<?xml version="1.0" encoding="UTF-8"?>
<svg id="Layer_2" data-name="Layer 2" xmlns="http://www.w3.org/2000/svg" viewBox="0 0 92.63 112.9">
  <defs>
    <style>
      .cls-1 {
        fill: none;
        stroke: #f15a24;
        stroke-linecap: round;
        stroke-linejoin: round;
        stroke-width: .75px;
      }
    </style>
  </defs>
  <g id="Layer_4" data-name="Layer 4">
    <path class="cls-1" d="M21.78,21.13l2.96,8s.6.7.49,2.13-1.7,12.9-1.7,12.9l-.57,4.16s-.33,2.27.9,3.42,3.68,3.38,3.68,3.38c0,0,1.29.91,1.36,2.65.01.35.11.96.26,1.71.59,2.96,1.98,8.09,1.98,8.09l1.62,10.05.76,3.88,2.8,4.87,6.59,4.52,8.03,6.3,5.84,3.29s4.28,2.37,5.27,6.57c.99,4.2,1.27,5.48,1.27,5.48"/>
    <path class="cls-1" d="M55.7,63.5l2.1-11.78.45-2.45-.38-1.23-1.72-1.8-2.46-5.12s-1.01-1.58-1.93-2.02-6.26-3.56-6.26-3.56l-13.11-6.01-10.6-8.38L18.61.38"/>
    <polyline class="cls-1" points="9.5 88.44 6.82 88.1 .38 87.19"/>
    <polyline class="cls-1" points="68.66 65.42 69.6 61.39 70.4 61.47 71.86 61.08 73.7 66.21 68.66 65.42 60.63 64.33 56.04 63.64 55.7 63.5 54.25 62.9 29.16 59.46"/>
    <polyline class="cls-1" points="35.95 88.78 37.19 86.92 38.4 86.21 40.7 86.25 54.78 88.34 68.56 90.14 71.23 78.22 73.24 68.93 73.7 66.21 76.63 68.79 83.38 69.92 88.17 71.74 89.56 72.28 92.26 72.69"/>
    <polyline class="cls-1" points="31.9 72.46 57.95 75.96 71.23 78.22"/>
    <line class="cls-1" x1="60.63" y1="64.33" x2="57.95" y2="75.96"/>
    <path class="cls-1" d="M14.85,65.91l16.43,2.24-16.43-2.24Z"/>
    <polyline class="cls-1" points="11.51 80.05 14.85 65.91 9.5 88.44 20.03 89.89 25.71 89.94 32.58 88.76 34.26 88.6 35.95 88.78 36.92 89.66 37.81 92.99 39.18 97.73 40.18 101.84 40.94 106.05 42.18 110.27 42.74 112.39"/>
    <polyline class="cls-1" points="71.86 61.08 68.78 53.65 67.94 51.65 69.37 43.49 66.42 43.07 60.72 42.35 53.77 41.38"/>
    <path class="cls-1" d="M69.37,43.49l1.86.24,3.63.47,2.84.35,4.11-.89s.71-.7,2.7-.95c0,0,1.69-.3,2.42-.76l5.13-.83"/>
    <path class="cls-1" d="M68.78,53.65l7.49,1.1,4.63-6.48.91-4.6.76-4.29-.19-5.29.75-3.53,1.05-5.21.78-4.53-6.9-.71s-2.19-.35-1.99-2.61l1.04-5,3.94.54,4.48,1.86,6.03.72"/>
    <polyline class="cls-1" points="45.11 35.44 48.93 31.44 57.56 31.38 65.57 27.03 68.31 25.54 70.93 25.78 75.13 25.09 83.13 30.57 89.2 34.66 92.07 41.13"/>
    <polyline class="cls-1" points="76.26 54.75 82.99 55.71 84.66 55.52 89.86 56.05 91.62 56.98 92.26 57.31"/>
    <polyline class="cls-1" points="91.76 78.37 89.84 76.58 84.71 75.7 78.12 74.78 76.63 68.79 74.77 68.85 73.24 68.93"/>
    <polyline class="cls-1" points="78.12 74.78 79.67 79.51 81.96 83.87 81.26 87.1 79.43 95.5 92.26 97.22"/>
    <polyline class="cls-1" points="81.26 87.1 85.98 87.68 92.26 89.07"/>
    <polyline class="cls-1" points="11.19 44.12 5.49 47.74 .38 51.04"/>
    <polyline class="cls-1" points="23.29 45.95 11.19 44.12 5.42 37.53 4.19 34.36 .38 30.27"/>
  </g>
</svg>