<?xml version="1.0" encoding="UTF-8"?>
<svg id="Layer_2" data-name="Layer 2" xmlns="http://www.w3.org/2000/svg" viewBox="0 0 92.79 113.6">
  <defs>
    <style>
      .cls-1 {
        fill: none;
        stroke: #8cc63f;
        stroke-miterlimit: 10;
        stroke-width: .25px;
      }
    </style>
  </defs>
  <g id="Layer_5" data-name="Layer 5">
    <line class="cls-1" x1="25.6" y1="30.02" x2="32.11" y2="30.89"/>
    <line class="cls-1" x1="25.36" y1="32.94" x2="31.54" y2="33.84"/>
    <polyline class="cls-1" points="30.76 37.81 24.85 37.25 21.9 36.98"/>
    <line class="cls-1" x1="30.28" y1="40.37" x2="24.54" y2="39.56"/>
    <polyline class="cls-1" points="29.78 42.86 24.15 42.43 17.5 41.82"/>
    <line class="cls-1" x1="29.15" y1="46.19" x2="23.69" y2="45.7"/>
    <line class="cls-1" x1="28.49" y1="49.43" x2="23.33" y2="49.04"/>
    <line class="cls-1" x1="25.59" y1="31.75" x2="22.97" y2="31.42"/>
    <polyline class="cls-1" points="22.71 32.8 21.9 36.98 18.52 36.51 15.19 36.03"/>
    <line class="cls-1" x1="21.9" y1="36.98" x2="20.9" y2="42.12"/>
    <polyline class="cls-1" points="19.34 32.35 16.01 31.91 14.11 41.37 13.56 44.21 12.57 49.31 15.96 49.78 16.94 44.71 19.34 32.35 22.71 32.8 22.97 31.42 24.02 27.98 24.59 27.74"/>
    <polyline class="cls-1" points="10.09 42.26 12.36 41.25 13.26 41.22 14.11 41.37 17.5 41.82"/>
    <polyline class="cls-1" points="7.87 39.62 9.66 38.61 11.01 38.27"/>
    <line class="cls-1" x1="5.9" y1="47.49" x2=".78" y2="41.41"/>
    <polyline class="cls-1" points="6.17 37.43 3.07 39.19 8.66 45.74"/>
    <line class="cls-1" x1="3.22" y1="49.22" x2=".78" y2="46.23"/>
    <line class="cls-1" x1="2.88" y1="32.3" x2=".78" y2="33.57"/>
    <line class="cls-1" x1="1.77" y1="36.5" x2="1.43" y2="35.64"/>
    <polyline class="cls-1" points="19.99 45.13 19.11 50.09 15.96 49.78 23.57 50.53"/>
    <polyline class="cls-1" points="27.23 56.07 21.91 55.55 22.65 50.43"/>
    <polyline class="cls-1" points="21.91 55.55 20.55 55.53 18.5 66.07 17.51 72.33 22.18 72.91 23.35 66.77 24.4 61.47 25.49 55.9"/>
    <polyline class="cls-1" points="23.73 55.77 22.67 61.31 19.47 61.05 16.28 60.79 15.37 65.68 8.34 64.73 7.58 67.21 14.66 68.17"/>
    <polyline class="cls-1" points="20.45 72.63 21.65 66.55 22.67 61.31 26.2 61.63"/>
    <polyline class="cls-1" points="22.18 72.91 24.1 73.2 25.2 66.98 27.52 54.51 28.49 49.43 29.15 46.19 29.78 42.86 30.28 40.37 30.76 37.81 31.54 33.84 32.11 30.89 32.78 29.26"/>
    <polyline class="cls-1" points="26.66 67.14 25.48 73.44 24.1 73.2"/>
    <polyline class="cls-1" points="17.51 72.33 16.94 74.87 16.67 75.79 16.15 76.42 16.79 76.67 22.69 77.45 24.82 77.02 28.94 77.29 28.26 72.73 27.89 70.13 28.4 67.52"/>
    <polyline class="cls-1" points="16.15 76.42 15.77 76.78 14.22 82.81 17.03 83.08 18.66 76.89"/>
    <line class="cls-1" x1="11.85" y1="79.69" x2="14.91" y2="80.12"/>
    <polyline class="cls-1" points="22.69 77.45 21.51 83.74 20.13 83.54 18.79 89.41 18.04 91.8 19.55 97.12 26.06 99.85"/>
    <polyline class="cls-1" points="15.52 88.96 17.03 83.08 20.13 83.54 21.34 77.27"/>
    <line class="cls-1" x1="12.63" y1="88.52" x2="14.22" y2="82.81"/>
    <polyline class="cls-1" points="14.24 70.67 10.87 70.32 8.4 79.31 9.42 79.47 7.22 87.85"/>
    <line class="cls-1" x1="6.43" y1="78.9" x2="4.31" y2="87.44"/>
    <polyline class="cls-1" points="8.4 79.31 3.69 78.56 .78 87.04"/>
    <line class="cls-1" x1="9.42" y1="79.47" x2="12.05" y2="79.71"/>
    <polyline class="cls-1" points="3.69 78.56 6.79 69.69 7.58 67.21"/>
    <line class="cls-1" x1="10.87" y1="70.32" x2="6.79" y2="69.69"/>
    <polyline class="cls-1" points="8.34 64.73 10.36 58.75 11.55 49.74 11.67 49.54 11.85 49.41 12.06 49.34 12.26 49.3 12.57 49.31"/>
    <polyline class="cls-1" points="12.07 65.24 12.98 60.54 16.28 60.79"/>
    <line class="cls-1" x1="12.53" y1="62.54" x2="9.23" y2="62.09"/>
    <polyline class="cls-1" points="38.84 86.05 38.51 84.09 37.98 81.29 39.73 81.54 40.59 77.06 42.74 77.35 43.07 75.61 36.97 74.77 37.36 77.16 35.5 77.37 36.19 81.54 34.41 81.89 30.08 82.57 32.54 86.74 32.86 88.6 33.18 89.61 33.81 90.37 34.74 90.93 35.7 91.2 36.71 91.14 37.6 90.86 44.86 91.78"/>
    <polyline class="cls-1" points="32.3 72.21 28.26 72.73 25.48 73.44 24.82 77.02 24.52 78.56 23.47 83.93 21.51 83.74 20.44 89.64"/>
    <line class="cls-1" x1="29.23" y1="78.63" x2="24.52" y2="78.56"/>
    <line class="cls-1" x1="29.53" y1="80.01" x2="24.19" y2="80.23"/>
    <line class="cls-1" x1="29.8" y1="81.29" x2="23.8" y2="82.21"/>
    <polyline class="cls-1" points="32.02 82.26 29.77 69.02 29.99 67.74"/>
    <polyline class="cls-1" points="40.98 86.06 41.88 81.88 39.73 81.54"/>
    <line class="cls-1" x1="56.33" y1="75.57" x2="56.68" y2="73.94"/>
    <polyline class="cls-1" points="52.58 70 52.24 71.66 57.03 72.33 56.68 73.94 51.86 73.26"/>
    <line class="cls-1" x1="57.33" y1="70.81" x2="59.44" y2="71.2"/>
    <polyline class="cls-1" points="50.12 71.38 49.56 74.39 48.79 78.2 46.7 77.96 47.47 74.11 48.05 71.1"/>
    <polyline class="cls-1" points="45.42 73.94 44.76 77.65 42.74 77.35 41.88 81.88 43.83 82.18 44.76 77.65 46.7 77.96 45.84 82.36 45.41 84.52 49.55 85.1 49.99 82.93 47.93 82.68 48.79 78.2 50.86 78.64 50.4 80.76 54.53 81.4 54.91 79.23 55.37 77.31 51.21 76.78 51.6 74.81 52.24 71.66 48.05 71.1 48.32 69.26 52.58 70 57.33 70.81 57.03 72.33 59.12 72.63"/>
    <line class="cls-1" x1="43.07" y1="75.61" x2="43.38" y2="73.7"/>
    <polyline class="cls-1" points="23.47 83.93 30.08 82.57 28.94 77.29 33.42 77.62 35.5 77.37 35.02 74.5"/>
    <polyline class="cls-1" points="32.8 74.7 34.7 74.46 35.02 74.5 36.97 74.77 37.31 72.88"/>
    <line class="cls-1" x1="36.19" y1="81.54" x2="37.98" y2="81.29"/>
    <polyline class="cls-1" points="37.36 77.16 38.73 76.98 40.59 77.06"/>
    <polyline class="cls-1" points="43.02 86.25 43.83 82.18 45.84 82.36 47.93 82.68"/>
    <line class="cls-1" x1="45.41" y1="84.52" x2="45.01" y2="86.39"/>
    <polyline class="cls-1" points="49.16 87.08 49.55 85.1 53.63 85.65"/>
    <polyline class="cls-1" points="50.4 80.76 49.99 82.93 54.1 83.51 53.63 85.65 53.17 87.7"/>
    <polyline class="cls-1" points="54.53 81.4 54.1 83.51 56.14 83.79 55.22 87.96 54.4 90.43 51.88 90.08 52.53 87.7"/>
    <line class="cls-1" x1="55.37" y1="77.31" x2="55.75" y2="75.48"/>
    <polyline class="cls-1" points="56.14 83.79 56.26 83.2 57.03 79.51 60.04 79.97 63.35 80.47 62.58 84.08 59.3 83.66 59.69 81.79 60.04 79.97 60.87 76.14 61.44 73.78"/>
    <line class="cls-1" x1="56.26" y1="83.2" x2="59.3" y2="83.66"/>
    <line class="cls-1" x1="59.69" y1="81.79" x2="62.97" y2="82.27"/>
    <line class="cls-1" x1="63.35" y1="80.47" x2="64.19" y2="76.74"/>
    <polyline class="cls-1" points="58.27 47.79 59.51 49.02 60.1 50.21 60.78 51.19 62.19 51.84 64.23 52.43 69.18 53.4"/>
    <polyline class="cls-1" points="70.15 55.73 68.86 56.02 69.74 58.46 62.78 57.5 62.13 59.91 56.8 59.19"/>
    <polyline class="cls-1" points="64.23 52.43 63.78 53.9 67.55 54.47 67.26 55.76 63.43 55.19 62.78 57.5"/>
    <line class="cls-1" x1="67.55" y1="54.47" x2="67.83" y2="53.06"/>
    <line class="cls-1" x1="67.26" y1="55.76" x2="68.86" y2="56.02"/>
    <polyline class="cls-1" points="63.43 55.19 63.78 53.9 60.21 53.32 60.78 51.19"/>
    <line class="cls-1" x1="59.55" y1="56.73" x2="60.21" y2="53.32"/>
    <polyline class="cls-1" points="69.39 63.68 61.48 62.51 62.13 59.91 70.15 61.16"/>
    <line class="cls-1" x1="61.04" y1="64.08" x2="61.48" y2="62.51"/>
    <polyline class="cls-1" points="62.72 76.52 63.19 74.16 63.68 71.69 59.48 71"/>
    <polyline class="cls-1" points="58.95 73.36 62.09 73.85 62.51 74.01"/>
    <line class="cls-1" x1="59.82" y1="75.96" x2="60.32" y2="73.68"/>
    <line class="cls-1" x1="66.75" y1="77.07" x2="67.84" y2="72.29"/>
    <polyline class="cls-1" points="67.31 74.68 69.4 74.96 69.69 73.34 63.54 72.42"/>
    <polyline class="cls-1" points="72.61 73.38 69.83 73.01 69.69 73.34"/>
    <line class="cls-1" x1="69.4" y1="74.96" x2="71.55" y2="75.29"/>
    <polyline class="cls-1" points="69.83 73.01 70.51 69.28 73.41 69.7"/>
    <polyline class="cls-1" points="78.52 74.53 75.8 74.12 72.61 73.65"/>
    <polyline class="cls-1" points="75.8 74.12 74.92 78.55 71.64 78.04"/>
    <line class="cls-1" x1="80.08" y1="79.26" x2="74.92" y2="78.55"/>
    <polyline class="cls-1" points="80.32 79.93 78.89 80.97 77.18 80.72 73.12 80.14 73.61 78.11"/>
    <line class="cls-1" x1="71.21" y1="79.87" x2="73.12" y2="80.14"/>
    <polyline class="cls-1" points="73.97 80.26 73.51 82.36 74.88 82.54 75.29 80.42"/>
    <polyline class="cls-1" points="70.79 81.95 72.11 82.14 71.85 83.24 73.28 83.45 72.87 85.47 74.25 85.66 74.67 83.64 76.07 83.84 76.59 83.07 76.81 82.87 76.96 81.92 79.56 82.3 80.63 84.22 80.02 87.8 79.55 87.73 78.76 91.28 70.41 90.1 68.96 89.89 68.61 91.79 80.37 93.37 88.27 94.54 88.67 92.65 89.83 92.81 90.61 88.39"/>
    <polyline class="cls-1" points="74.86 89.54 70.68 88.88 70.94 87.62 76.5 88.47 76.74 87.32 71.21 86.37 71.46 85.21 70.14 84.95"/>
    <polyline class="cls-1" points="72.87 85.47 71.46 85.21 71.85 83.24"/>
    <polyline class="cls-1" points="72.11 82.14 73.51 82.36 73.28 83.45 74.67 83.64"/>
    <polyline class="cls-1" points="74.88 82.54 75.32 82.6 76.59 83.07 77.55 83.5 78.62 83.93 80.63 84.22 82.18 84.46"/>
    <polyline class="cls-1" points="80.4 85.37 77.24 84.86 77.55 83.5"/>
    <polyline class="cls-1" points="76.07 83.84 75.79 85.88 74.25 85.66"/>
    <polyline class="cls-1" points="77.24 84.86 77 86.05 80.29 86.5 81.68 86.66"/>
    <line class="cls-1" x1="75.79" y1="85.88" x2="77" y2="86.05"/>
    <line class="cls-1" x1="80.02" y1="87.8" x2="81.5" y2="88.07"/>
    <line class="cls-1" x1="79.14" y1="89.51" x2="75.17" y2="88.94"/>
    <polyline class="cls-1" points="79.95 95.2 68.2 93.68 68.61 91.79"/>
    <polyline class="cls-1" points="44.63 91.7 53.47 92.84 54.4 90.43 58.44 90.97 56.51 93.26 61.1 93.88 61.57 91.43 65.34 91.95 64.88 94.4 68.11 94.88 68.2 93.68"/>
    <line class="cls-1" x1="68.49" y1="92.32" x2="65.34" y2="91.95"/>
    <line class="cls-1" x1="57.92" y1="100.83" x2="58.94" y2="99.69"/>
    <polyline class="cls-1" points="64.88 94.4 61.38 93.92 60.96 96.11 67.52 97.04 67.1 99.15 60.46 98.24 58.94 99.69 59.51 100.17 66.7 101.17 66.27 103.29 61.77 102.63 60.7 103.29 59.95 103.55 53.82 102.72 53.84 108.69 53.84 109.65 53.34 112.27"/>
    <line class="cls-1" x1="60.96" y1="96.11" x2="60.46" y2="98.24"/>
    <line class="cls-1" x1="68.11" y1="94.88" x2="67.52" y2="97.04"/>
    <line class="cls-1" x1="67.1" y1="99.15" x2="66.7" y2="101.17"/>
    <line class="cls-1" x1="57.63" y1="93.41" x2="56.4" y2="99.78"/>
    <polyline class="cls-1" points="42.87 110.81 48.68 101.99 53.82 102.72 54.61 98.76 55 95.61 56.51 93.26 53.47 92.84 51.43 97.02 50.53 98.75 49.76 100.23"/>
    <polyline class="cls-1" points="62.08 88.96 61.57 91.43 58.44 90.97 58.66 88.51"/>
    <line class="cls-1" x1="39.91" y1="88.43" x2="51.88" y2="90.08"/>
    <line class="cls-1" x1="66.27" y1="103.29" x2="64.61" y2="112.27"/>
    <polyline class="cls-1" points="81.09 89.16 88.24 90.14 88.72 87.98"/>
    <line class="cls-1" x1="90.23" y1="90.52" x2="88.24" y2="90.14"/>
    <polyline class="cls-1" points="88.67 92.65 80.63 91.55 78.76 91.28"/>
    <polyline class="cls-1" points="87.95 96.32 88.27 94.54 92.66 95.15"/>
    <line class="cls-1" x1="89.83" y1="92.81" x2="92.66" y2="93.18"/>
    <line class="cls-1" x1="91.52" y1="84.42" x2="90.36" y2="88.33"/>
    <line class="cls-1" x1="88.99" y1="83.11" x2="87.54" y2="87.68"/>
    <line class="cls-1" x1="85.09" y1="82.56" x2="88.34" y2="85.13"/>
    <polyline class="cls-1" points="92.66 84.98 91.52 84.42 88.99 83.11 87.1 81.26 85.27 79.57 84.85 79.12 85.36 76.62 85.58 75.57"/>
    <polyline class="cls-1" points="86.39 87.43 82.37 83.62 85.09 82.56 87.1 81.26 89.46 79.53 92.25 78.1 92.66 78.52"/>
    <polyline class="cls-1" points="81.94 75 81.73 76.12 85.36 76.62"/>
    <line class="cls-1" x1="81.75" y1="77.43" x2="85.1" y2="77.87"/>
    <polyline class="cls-1" points="80.98 78.64 82.87 78.87 84.85 79.12"/>
    <polyline class="cls-1" points="81.18 81.28 82.55 80.71 82.87 78.87"/>
    <line class="cls-1" x1="85.27" y1="79.57" x2="82.55" y2="80.71"/>
    <line class="cls-1" x1="85.09" y1="82.56" x2="83.72" y2="80.14"/>
    <line class="cls-1" x1="89.46" y1="79.53" x2="92" y2="82.03"/>
    <line class="cls-1" x1="90.36" y1="76.41" x2="88.57" y2="71.49"/>
    <polyline class="cls-1" points="92.66 68.62 88.85 68.09 88.41 70.38 92.66 70.99"/>
    <polyline class="cls-1" points="76.22 66.07 80.18 66.69 81.38 66.91 82.87 66.99 83.25 64.9 89.09 65.78 92.66 66.19"/>
    <line class="cls-1" x1="80.99" y1="69.06" x2="81.38" y2="66.91"/>
    <polyline class="cls-1" points="82.87 66.99 82.78 67.4 82.37 69.3"/>
    <polyline class="cls-1" points="82.78 67.4 85.72 67.99 88.77 68.5"/>
    <line class="cls-1" x1="84.97" y1="70.05" x2="85.48" y2="68.01"/>
    <line class="cls-1" x1="74.11" y1="65.96" x2="76.67" y2="54.5"/>
    <line class="cls-1" x1="85.72" y1="67.99" x2="86" y2="66.68"/>
    <polyline class="cls-1" points="75.08 60.32 83.83 61.54 83.6 62.18 92.66 63.61"/>
    <polyline class="cls-1" points="74.37 64.8 80.38 65.74 80.18 66.69 80.75 64.31"/>
    <polyline class="cls-1" points="76.15 56.9 79.2 57.28 83.57 57.94 84.26 55.31"/>
    <line class="cls-1" x1="81.94" y1="55.19" x2="81.45" y2="57.64"/>
    <line class="cls-1" x1="79.7" y1="54.94" x2="79.2" y2="57.28"/>
    <polyline class="cls-1" points="85.22 55.27 85.59 52.9 80.12 52.08 78.59 51.72"/>
    <line class="cls-1" x1="78.27" y1="54.73" x2="80.12" y2="52.08"/>
    <line class="cls-1" x1="72.62" y1="61.82" x2="74.97" y2="62.11"/>
    <polyline class="cls-1" points="87.6 43.74 90.03 47.17 89.03 53.44 85.59 52.9 87.6 43.74 86.57 42.14"/>
    <polyline class="cls-1" points="92.66 40.91 92.11 44.19 90.03 47.17"/>
    <polyline class="cls-1" points="89.03 53.44 89.11 55.63 89.56 58.45 89.11 60.37 92.66 60.87"/>
    <line class="cls-1" x1="63.18" y1="109.89" x2="53.84" y2="108.69"/>
    <line class="cls-1" x1="53.81" y1="106.53" x2="62.18" y2="105.69"/>
    <line class="cls-1" x1="58.76" y1="109.32" x2="58.09" y2="105.88"/>
    <line class="cls-1" x1="53.5" y1="111.42" x2="59.37" y2="112.27"/>
    <polyline class="cls-1" points="59.37 112.27 59.17 111.26 59.55 109.51"/>
    <polyline class="cls-1" points="44.12 108.91 47.34 110.35 49 108.49 49.4 107.41 50.8 107.39 53.62 107.3"/>
    <polyline class="cls-1" points="53.75 109.28 50.13 109.1 49 108.49 45.5 106.89"/>
    <polyline class="cls-1" points="46.93 104.8 50.15 106.13 53.85 106.19"/>
    <polyline class="cls-1" points="48.68 101.99 49.76 100.23 54.2 100.83"/>
    <polyline class="cls-1" points="39.02 94.76 44.57 96.35 45.22 94.81 46.24 92.84"/>
    <polyline class="cls-1" points="47.85 96.99 47.72 97.28 44.57 96.35 43.21 99.23"/>
    <line class="cls-1" x1="46.47" y1="100.32" x2="47.72" y2="97.28"/>
    <polyline class="cls-1" points="38.21 92.74 40.91 92.27 43.55 93.35 45.22 94.81 47.85 96.99 48.79 94.78"/>
    <polyline class="cls-1" points="25.72 100.21 31.37 93.35 33.81 90.37"/>
    <line class="cls-1" x1="30.17" y1="89.07" x2="31.37" y2="93.35"/>
    <line class="cls-1" x1="27.02" y1="89.5" x2="28.95" y2="96.5"/>
    <polyline class="cls-1" points="23.74 89.56 26.07 97.46 27.28 98.18"/>
    <polyline class="cls-1" points="20.69 89.65 22.62 96.95 23.05 98.58"/>
    <line class="cls-1" x1="25.73" y1="96.35" x2="22.62" y2="96.95"/>
    <line class="cls-1" x1="25.39" y1="95.42" x2="28.61" y2="94.76"/>
    <polyline class="cls-1" points="31.69 105.31 29.34 104.88 25.72 99.85"/>
    <polyline class="cls-1" points="35.7 91.2 34.55 95.12 33.48 98.77 28.31 96.76"/>
    <line class="cls-1" x1="34.55" y1="95.12" x2="31.2" y2="93.84"/>
    <polyline class="cls-1" points="35.21 92.98 36.71 93.36 38.34 93.05"/>
    <polyline class="cls-1" points="34.48 94.92 36.89 95.47 38.9 94.98"/>
    <polyline class="cls-1" points="33.65 98.21 36.05 99.04 37.49 99.1 39.58 98.31 43.21 99.23 49.32 101.09"/>
    <polyline class="cls-1" points="33.48 98.77 30.58 109.55 29.64 113.57"/>
    <line class="cls-1" x1="43.15" y1="112.14" x2="30.58" y2="109.55"/>
    <polyline class="cls-1" points="41.95 107.86 41.2 108.26 40.16 108.74 39.06 108.69 38.06 108.43 36.87 108.3 35.92 108.23 35.33 108.49 34.7 108.88 34.4 109.29 34.17 110.32 33.62 112.31"/>
    <polyline class="cls-1" points="51.21 76.78 50.86 78.64 54.91 79.23 57.03 79.51 57.92 75.71"/>
    <polyline class="cls-1" points="63.92 78.54 66.24 78.9 65.26 83.64 62.76 83.27"/>
    <line class="cls-1" x1="28.12" y1="103.19" x2="31.09" y2="97.84"/>
    <polyline class="cls-1" points="59.33 48.86 59.88 48.48 60.29 46.36 61.13 42.1 61.64 39.54 62.12 37.12"/>
    <polyline class="cls-1" points="60.29 46.36 69 47.51 74.39 48.28 73.38 54.03"/>
    <polyline class="cls-1" points="65.08 52.6 66.04 47.07 66.83 42.82 67.77 37.8"/>
    <polyline class="cls-1" points="84.2 49.58 80.49 49.08 74.39 48.28 75.27 43.95"/>
    <line class="cls-1" x1="82.41" y1="52.42" x2="83.11" y2="49.43"/>
    <line class="cls-1" x1="84.5" y1="50.21" x2="83.98" y2="52.65"/>
    <line class="cls-1" x1="82.79" y1="50.74" x2="84.38" y2="51.01"/>
    <polyline class="cls-1" points="45.71 34.91 72.46 38.36 74.87 24.96"/>
    <line class="cls-1" x1="71.34" y1="25.54" x2="68.92" y2="37.89"/>
    <line class="cls-1" x1="70.12" y1="38.07" x2="69.13" y2="43.15"/>
    <line class="cls-1" x1="72.46" y1="38.36" x2="71.46" y2="43.46"/>
    <line class="cls-1" x1="67.33" y1="40.28" x2="61.64" y2="39.54"/>
    <line class="cls-1" x1="67.62" y1="38.98" x2="61.89" y2="38.27"/>
    <line class="cls-1" x1="67.06" y1="41.59" x2="61.39" y2="40.76"/>
    <line class="cls-1" x1="67.18" y1="40.97" x2="71.84" y2="41.58"/>
    <line class="cls-1" x1="72.1" y1="40.19" x2="67.44" y2="39.59"/>
    <polyline class="cls-1" points="72.56 37.79 82.98 39.13 89.67 34.28 91.38 26.09"/>
    <line class="cls-1" x1="76.36" y1="44.03" x2="77.15" y2="40.01"/>
    <polyline class="cls-1" points="74.33 38.04 73.59 42.15 71.76 41.95"/>
    <line class="cls-1" x1="78.77" y1="40.25" x2="74.05" y2="39.59"/>
    <line class="cls-1" x1="73.59" y1="42.15" x2="76.63" y2="42.56"/>
    <line class="cls-1" x1="73.59" y1="32.71" x2="82.78" y2="34.02"/>
    <line class="cls-1" x1="79.25" y1="38.61" x2="80.27" y2="33.56"/>
    <line class="cls-1" x1="76.33" y1="38.29" x2="77.34" y2="33.25"/>
    <polyline class="cls-1" points="74.62 26.34 79.79 29.67 80.52 29.78 81.4 28.79"/>
    <line class="cls-1" x1="78.39" y1="33.4" x2="79.25" y2="29.32"/>
    <line class="cls-1" x1="83.26" y1="31.63" x2="78.88" y2="31.04"/>
    <line class="cls-1" x1="79.74" y1="33.59" x2="80.52" y2="29.78"/>
    <polyline class="cls-1" points="76.82 33.17 77.64 29.35 79.47 27.54"/>
    <line class="cls-1" x1="75.12" y1="32.95" x2="76.27" y2="27.4"/>
    <line class="cls-1" x1="74.15" y1="29.09" x2="77.57" y2="29.68"/>
    <polyline class="cls-1" points="59.89 30.06 60.83 31.6 67.11 28.24 66.08 26.63"/>
    <polyline class="cls-1" points="69.87 33.42 63.06 32.46 62.8 32.12 60.83 31.6"/>
    <polyline class="cls-1" points="70.85 28.26 70.44 28.27 68.12 29.52 67.11 28.24 69.77 26.84 71.05 27.02 72.75 27.26"/>
    <line class="cls-1" x1="62.9" y1="32.25" x2="68.12" y2="29.52"/>
    <polyline class="cls-1" points="67.98 33.15 68.71 29.4 70.53 29.68 73.94 30.13"/>
    <line class="cls-1" x1="66.14" y1="32.88" x2="66.71" y2="30.26"/>
    <line class="cls-1" x1="73.14" y1="25.26" x2="71.3" y2="34.71"/>
    <line class="cls-1" x1="69.58" y1="34.49" x2="73.13" y2="34.98"/>
    <line class="cls-1" x1="72.85" y1="26.75" x2="74.5" y2="26.98"/>
    <line class="cls-1" x1="86.03" y1="40.15" x2="91.68" y2="38.97"/>
    <polyline class="cls-1" points="42.3 73.39 42.5 72.15 44.48 72.42 45.26 68.58 48.42 68.64 48.63 68.3 49.06 65.39"/>
    <polyline class="cls-1" points="33.64 68.26 33.89 70.38 34.09 70.96 34.35 71.22 36.9 71.53 37.73 71.4 38.74 71.38 39.31 71.44 39.25 71.76 42.5 72.15"/>
    <polyline class="cls-1" points="37.7 60.35 37.43 62.38 39.93 62.77 42.14 63.06"/>
    <polyline class="cls-1" points="34.14 61.06 35.43 61.2 34.89 64.45 39.48 65.09 39.93 62.77"/>
    <line class="cls-1" x1="37.43" y1="62.38" x2="35.3" y2="62.16"/>
    <polyline class="cls-1" points="60.04 68.57 58.3 68.32 57.65 68.45 55.55 68.16 53.08 67.87 51.19 67.57 51.05 68.66"/>
    <polygon class="cls-1" points="52.48 30.52 51.44 30.43 50.49 30.19 49.44 31.16 49.37 29.88 47.85 29.39 45.51 27.92 43.78 26.58 41.04 24.28 39.3 22.61 37.77 20.84 36.79 19.58 36.44 18.77 36.05 17.56 35.81 16.45 35.85 15.4 36.18 14.22 36.55 13.25 36.54 12.24 36.3 11.23 35.81 10.31 35.52 9.65 37.38 9.5 39.88 9.02 42.63 7.79 44.19 6.7 45.84 4.61 47.56 2.68 49.2 1.55 51.33 .6 54.09 .13 56.31 .18 58.22 .3 60.34 .87 61.89 1.47 63.32 2.16 64.72 3.11 65.99 4.01 67.63 5.31 69.23 6.81 71.04 8.89 72.17 10.49 73.19 12.08 73.5 13.48 73.83 15.2 74.07 16.98 74.13 18.15 73.79 19.36 73.04 20.52 72 21.38 70.85 22.34 68.67 23.47 64.87 25.13 63.26 25.81 62.34 26.29 61.1 27.33 59.22 28.82 57.26 29.78 55.35 30.32 53.81 30.6 52.48 30.52"/>
    <polyline class="cls-1" points="50.49 30.19 49.87 30.03 49.37 29.88"/>
    <polyline class="cls-1" points="31.07 10.89 32.53 11.97 27.37 17.05 28.9 18.15 33.99 12.95 34.36 12.41 34.46 11.92 34.44 11.45 34.25 10.89 33.81 10.43 33.16 10.04 32.35 9.63"/>
    <polyline class="cls-1" points="24.33 17.14 25.19 18.77 25.68 18.78 27.37 17.05 25.94 16.02"/>
    <polyline class="cls-1" points="35.52 9.65 33.12 8.84 33.88 8.09 28.45 6.19 25.06 4.97 21.48 3.82 20.4 3.68 19.67 3.63 13.13 .13"/>
    <line class="cls-1" x1="22.3" y1="21.2" x2="0" y2="19.59"/>
    <path class="cls-1" d="M59.22,28.82l-1.87-2.59-3.68-6.33c-.25-3.31-1.68-6.07-1.68-6.07,0,0-2.91-4.84-5.07-5.1s-3.6-1.41-3.6-1.41"/>
    <path class="cls-1" d="M50.93.84s-.35,2.44-.79,3.23-.46,2.47-.46,2.47l.68,3.13,1.19,3.47"/>
    <path class="cls-1" d="M73.83,18.91l-1.11-1.29-5.63-2.93s-2.72-.76-4.92-.72-4.56,0-4.56,0c0,0-5.73-.22-6.7-2.46"/>
    <polyline class="cls-1" points="30.28 40.37 32.06 40.62 33.6 39.57 35.53 36.85 37.38 33.39 36.54 32.48 37 31.25"/>
    <polyline class="cls-1" points="32.11 30.89 34.53 31.31 35.29 31.44 35.55 31.57 35.76 31.85 35.74 32.19 35.6 32.61 34.69 35.33 32.33 38.48 33.68 31.55 35.17 31.74 34.49 35.47"/>
    <line class="cls-1" x1="35.74" y1="32.19" x2="36.22" y2="30.78"/>
    <path class="cls-1" d="M33.88,8.09l6.89-7.11,3.12,1.41-.75,1.28-1.14,1.79-1.65,2.06-1.35.84-2.24.48-1.54-.2-1.34-.55-.76.76-6.32,6.33s-1.14,1.12-1.62,1.59-.85.38-.85.38l-1.49-.09-.13.45.38,1.85.18.48h.4l.67.18,1.9.12,1.02-.27,1.65-1.71"/>
    <line class="cls-1" x1="40.74" y1=".13" x2="40.77" y2=".98"/>
    <line class="cls-1" x1="45.46" y1=".13" x2="43.89" y2="2.39"/>
    <line class="cls-1" x1="25.06" y1="4.97" x2="24.62" y2=".13"/>
    <line class="cls-1" x1="27.86" y1=".13" x2="28.45" y2="6.19"/>
    <polyline class="cls-1" points="37.78 4.06 36.51 3.01 31.64 4.65 28.27 4.32"/>
    <polyline class="cls-1" points="28.01 1.51 30.06 2.26 32.14 2 32.55 2.1 32.79 2.47 33.54 3.96 34.46 5.98 36.02 5.92"/>
    <polyline class="cls-1" points="31.54 7.27 31.87 6.89 32.28 6.7 31.64 5.02 33.68 4.34"/>
    <line class="cls-1" x1="34.46" y1="5.98" x2="32.28" y2="6.7"/>
    <path class="cls-1" d="M77.52,12.25l.36-1.91s-.06-.6-.55-.82-2.84-1.35-2.84-1.35c0,0-.53-.31-.59-.97s-.51-5.22-.51-5.22l.56-1.87"/>
    <line class="cls-1" x1="82.01" y1="20.34" x2="85.93" y2="14.66"/>
    <polyline class="cls-1" points="77.68 9.83 81.6 10.38 81.12 12.74"/>
    <polyline class="cls-1" points="81.42 11.19 83.1 11.44 82.81 13.24"/>
    <polyline class="cls-1" points="84.33 13.92 84.74 12.03 83.05 11.79"/>
    <polyline class="cls-1" points="91.3 15.15 91.62 13.57 84.7 12.52"/>
    <polyline class="cls-1" points="87.76 14.78 88.11 13.02 88.83 9.48 89.89 4.3 73.36 2.09"/>
    <line class="cls-1" x1="77.44" y1="2.64" x2="76.26" y2="9.03"/>
    <line class="cls-1" x1="78.09" y1="9.89" x2="79.58" y2="2.89"/>
    <line class="cls-1" x1="80.76" y1="3.08" x2="79.29" y2="10.06"/>
    <line class="cls-1" x1="80.45" y1="10.22" x2="81.88" y2="3.27"/>
    <line class="cls-1" x1="83.07" y1="3.43" x2="81.6" y2="10.38"/>
    <line class="cls-1" x1="83.1" y1="11.44" x2="84.71" y2="3.57"/>
    <line class="cls-1" x1="84.74" y1="12.03" x2="86.45" y2="3.81"/>
    <line class="cls-1" x1="86.3" y1="12.76" x2="88.14" y2="4.07"/>
    <polyline class="cls-1" points="82.01 8.42 88.83 9.48 90.56 9.75 89.83 13.3"/>
    <polyline class="cls-1" points="89.64 5.52 90.88 5.74 90.05 9.67"/>
    <polyline class="cls-1" points="78.5 7.97 76.52 7.71 76.54 7.5 75.63 7.06 75.27 3.38 75.48 2.44"/>
    <path class="cls-1" d="M72.44,10.9s1.52-.96,1.82-2.93"/>
    <path class="cls-1" d="M73.39,1.99l-2.41,1.29c-.63.98-2.67,2.65-2.67,2.65"/>
    <path class="cls-1" d="M84.73,24.73c-1.98-2.38-7.82-3.63-7.82-3.63l-.8-.05-.74,3.72,3.2-.55,6.01.89,7.44,1.03"/>
    <line class="cls-1" x1="92.03" y1="34.65" x2="89.67" y2="34.28"/>
    <path class="cls-1" d="M86.32,32.18l.92-4.82c-1.46-.28-2.71-1.97-2.71-1.97"/>
    <polyline class="cls-1" points="54.63 36.13 55.06 35.28 55.47 33.7 57.05 33.19"/>
    <polyline class="cls-1" points="56.99 36.38 57.37 34.17 58.74 33.45 61.57 33.82 61.12 36.3 58.33 35.98 57.8 35.98 57.72 36.5"/>
    <line class="cls-1" x1="38" y1="111.08" x2="37.65" y2="112.27"/>
    <line class="cls-1" x1="92.66" y1="68.62" x2="92.66" y2="70.99"/>
    <line class="cls-1" x1=".78" y1="34.85" x2="1.43" y2="35.64"/>
    <polyline class="cls-1" points=".78 40.72 3.07 39.19 2.45 38.4 1.77 36.5 .72 37.11"/>
  </g>
</svg>