%TF.GenerationSoftware,KiCad,Pcbnew,8.0.6*%
%TF.CreationDate,2025-03-30T16:03:16+11:00*%
%TF.ProjectId,ConnectorsTesting,436f6e6e-6563-4746-9f72-735465737469,rev?*%
%TF.SameCoordinates,Original*%
%TF.FileFunction,Legend,Bot*%
%TF.FilePolarity,Positive*%
%FSLAX46Y46*%
G04 Gerber Fmt 4.6, Leading zero omitted, Abs format (unit mm)*
G04 Created by KiCad (PCBNEW 8.0.6) date 2025-03-30 16:03:16*
%MOMM*%
%LPD*%
G01*
G04 APERTURE LIST*
G04 Aperture macros list*
%AMRotRect*
0 Rectangle, with rotation*
0 The origin of the aperture is its center*
0 $1 length*
0 $2 width*
0 $3 Rotation angle, in degrees counterclockwise*
0 Add horizontal line*
21,1,$1,$2,0,0,$3*%
G04 Aperture macros list end*
%ADD10C,0.150000*%
%ADD11C,0.152400*%
%ADD12RotRect,0.279400X0.406400X300.000000*%
%ADD13RotRect,0.660400X0.406400X300.000000*%
%ADD14R,0.406400X0.279400*%
%ADD15R,0.406400X0.660400*%
%ADD16R,0.279400X0.406400*%
%ADD17R,0.660400X0.406400*%
%ADD18RotRect,0.279400X0.406400X285.000000*%
%ADD19RotRect,0.660400X0.406400X285.000000*%
G04 APERTURE END LIST*
D10*
X37249746Y-57429342D02*
X37868336Y-57072199D01*
X37868336Y-57072199D02*
X37968244Y-56959531D01*
X37968244Y-56959531D02*
X38003104Y-56829434D01*
X38003104Y-56829434D02*
X37972914Y-56681906D01*
X37972914Y-56681906D02*
X37925295Y-56599428D01*
X37546511Y-57752877D02*
X37529081Y-57817926D01*
X37529081Y-57817926D02*
X37535461Y-57924214D01*
X37535461Y-57924214D02*
X37654508Y-58130410D01*
X37654508Y-58130410D02*
X37743367Y-58189080D01*
X37743367Y-58189080D02*
X37808415Y-58206509D01*
X37808415Y-58206509D02*
X37914704Y-58200130D01*
X37914704Y-58200130D02*
X37997182Y-58152511D01*
X37997182Y-58152511D02*
X38097091Y-58039843D01*
X38097091Y-58039843D02*
X38306248Y-57259257D01*
X38306248Y-57259257D02*
X38615772Y-57795368D01*
X38022701Y-58577663D02*
X38005271Y-58642712D01*
X38005271Y-58642712D02*
X38011651Y-58749000D01*
X38011651Y-58749000D02*
X38130699Y-58955197D01*
X38130699Y-58955197D02*
X38219557Y-59013866D01*
X38219557Y-59013866D02*
X38284606Y-59031295D01*
X38284606Y-59031295D02*
X38390894Y-59024916D01*
X38390894Y-59024916D02*
X38473373Y-58977297D01*
X38473373Y-58977297D02*
X38573281Y-58864629D01*
X38573281Y-58864629D02*
X38782438Y-58084043D01*
X38782438Y-58084043D02*
X39091962Y-58620154D01*
X32454819Y-41190476D02*
X33169104Y-41190476D01*
X33169104Y-41190476D02*
X33311961Y-41142857D01*
X33311961Y-41142857D02*
X33407200Y-41047619D01*
X33407200Y-41047619D02*
X33454819Y-40904762D01*
X33454819Y-40904762D02*
X33454819Y-40809524D01*
X33454819Y-42190476D02*
X33454819Y-41619048D01*
X33454819Y-41904762D02*
X32454819Y-41904762D01*
X32454819Y-41904762D02*
X32597676Y-41809524D01*
X32597676Y-41809524D02*
X32692914Y-41714286D01*
X32692914Y-41714286D02*
X32740533Y-41619048D01*
X32550057Y-42571429D02*
X32502438Y-42619048D01*
X32502438Y-42619048D02*
X32454819Y-42714286D01*
X32454819Y-42714286D02*
X32454819Y-42952381D01*
X32454819Y-42952381D02*
X32502438Y-43047619D01*
X32502438Y-43047619D02*
X32550057Y-43095238D01*
X32550057Y-43095238D02*
X32645295Y-43142857D01*
X32645295Y-43142857D02*
X32740533Y-43142857D01*
X32740533Y-43142857D02*
X32883390Y-43095238D01*
X32883390Y-43095238D02*
X33454819Y-42523810D01*
X33454819Y-42523810D02*
X33454819Y-43142857D01*
X22454819Y-31666666D02*
X23169104Y-31666666D01*
X23169104Y-31666666D02*
X23311961Y-31619047D01*
X23311961Y-31619047D02*
X23407200Y-31523809D01*
X23407200Y-31523809D02*
X23454819Y-31380952D01*
X23454819Y-31380952D02*
X23454819Y-31285714D01*
X22454819Y-32619047D02*
X22454819Y-32142857D01*
X22454819Y-32142857D02*
X22931009Y-32095238D01*
X22931009Y-32095238D02*
X22883390Y-32142857D01*
X22883390Y-32142857D02*
X22835771Y-32238095D01*
X22835771Y-32238095D02*
X22835771Y-32476190D01*
X22835771Y-32476190D02*
X22883390Y-32571428D01*
X22883390Y-32571428D02*
X22931009Y-32619047D01*
X22931009Y-32619047D02*
X23026247Y-32666666D01*
X23026247Y-32666666D02*
X23264342Y-32666666D01*
X23264342Y-32666666D02*
X23359580Y-32619047D01*
X23359580Y-32619047D02*
X23407200Y-32571428D01*
X23407200Y-32571428D02*
X23454819Y-32476190D01*
X23454819Y-32476190D02*
X23454819Y-32238095D01*
X23454819Y-32238095D02*
X23407200Y-32142857D01*
X23407200Y-32142857D02*
X23359580Y-32095238D01*
X44390476Y-62475180D02*
X44390476Y-61760895D01*
X44390476Y-61760895D02*
X44342857Y-61618038D01*
X44342857Y-61618038D02*
X44247619Y-61522800D01*
X44247619Y-61522800D02*
X44104762Y-61475180D01*
X44104762Y-61475180D02*
X44009524Y-61475180D01*
X44819048Y-62379942D02*
X44866667Y-62427561D01*
X44866667Y-62427561D02*
X44961905Y-62475180D01*
X44961905Y-62475180D02*
X45200000Y-62475180D01*
X45200000Y-62475180D02*
X45295238Y-62427561D01*
X45295238Y-62427561D02*
X45342857Y-62379942D01*
X45342857Y-62379942D02*
X45390476Y-62284704D01*
X45390476Y-62284704D02*
X45390476Y-62189466D01*
X45390476Y-62189466D02*
X45342857Y-62046609D01*
X45342857Y-62046609D02*
X44771429Y-61475180D01*
X44771429Y-61475180D02*
X45390476Y-61475180D01*
X46247619Y-62475180D02*
X46057143Y-62475180D01*
X46057143Y-62475180D02*
X45961905Y-62427561D01*
X45961905Y-62427561D02*
X45914286Y-62379942D01*
X45914286Y-62379942D02*
X45819048Y-62237085D01*
X45819048Y-62237085D02*
X45771429Y-62046609D01*
X45771429Y-62046609D02*
X45771429Y-61665657D01*
X45771429Y-61665657D02*
X45819048Y-61570419D01*
X45819048Y-61570419D02*
X45866667Y-61522800D01*
X45866667Y-61522800D02*
X45961905Y-61475180D01*
X45961905Y-61475180D02*
X46152381Y-61475180D01*
X46152381Y-61475180D02*
X46247619Y-61522800D01*
X46247619Y-61522800D02*
X46295238Y-61570419D01*
X46295238Y-61570419D02*
X46342857Y-61665657D01*
X46342857Y-61665657D02*
X46342857Y-61903752D01*
X46342857Y-61903752D02*
X46295238Y-61998990D01*
X46295238Y-61998990D02*
X46247619Y-62046609D01*
X46247619Y-62046609D02*
X46152381Y-62094228D01*
X46152381Y-62094228D02*
X45961905Y-62094228D01*
X45961905Y-62094228D02*
X45866667Y-62046609D01*
X45866667Y-62046609D02*
X45819048Y-61998990D01*
X45819048Y-61998990D02*
X45771429Y-61903752D01*
X22524819Y-55240476D02*
X23239104Y-55240476D01*
X23239104Y-55240476D02*
X23381961Y-55192857D01*
X23381961Y-55192857D02*
X23477200Y-55097619D01*
X23477200Y-55097619D02*
X23524819Y-54954762D01*
X23524819Y-54954762D02*
X23524819Y-54859524D01*
X23524819Y-56240476D02*
X23524819Y-55669048D01*
X23524819Y-55954762D02*
X22524819Y-55954762D01*
X22524819Y-55954762D02*
X22667676Y-55859524D01*
X22667676Y-55859524D02*
X22762914Y-55764286D01*
X22762914Y-55764286D02*
X22810533Y-55669048D01*
X22524819Y-57145238D02*
X22524819Y-56669048D01*
X22524819Y-56669048D02*
X23001009Y-56621429D01*
X23001009Y-56621429D02*
X22953390Y-56669048D01*
X22953390Y-56669048D02*
X22905771Y-56764286D01*
X22905771Y-56764286D02*
X22905771Y-57002381D01*
X22905771Y-57002381D02*
X22953390Y-57097619D01*
X22953390Y-57097619D02*
X23001009Y-57145238D01*
X23001009Y-57145238D02*
X23096247Y-57192857D01*
X23096247Y-57192857D02*
X23334342Y-57192857D01*
X23334342Y-57192857D02*
X23429580Y-57145238D01*
X23429580Y-57145238D02*
X23477200Y-57097619D01*
X23477200Y-57097619D02*
X23524819Y-57002381D01*
X23524819Y-57002381D02*
X23524819Y-56764286D01*
X23524819Y-56764286D02*
X23477200Y-56669048D01*
X23477200Y-56669048D02*
X23429580Y-56621429D01*
X46454819Y-37390475D02*
X47169104Y-37390475D01*
X47169104Y-37390475D02*
X47311961Y-37342856D01*
X47311961Y-37342856D02*
X47407200Y-37247618D01*
X47407200Y-37247618D02*
X47454819Y-37104761D01*
X47454819Y-37104761D02*
X47454819Y-37009523D01*
X46454819Y-37771428D02*
X46454819Y-38390475D01*
X46454819Y-38390475D02*
X46835771Y-38057142D01*
X46835771Y-38057142D02*
X46835771Y-38199999D01*
X46835771Y-38199999D02*
X46883390Y-38295237D01*
X46883390Y-38295237D02*
X46931009Y-38342856D01*
X46931009Y-38342856D02*
X47026247Y-38390475D01*
X47026247Y-38390475D02*
X47264342Y-38390475D01*
X47264342Y-38390475D02*
X47359580Y-38342856D01*
X47359580Y-38342856D02*
X47407200Y-38295237D01*
X47407200Y-38295237D02*
X47454819Y-38199999D01*
X47454819Y-38199999D02*
X47454819Y-37914285D01*
X47454819Y-37914285D02*
X47407200Y-37819047D01*
X47407200Y-37819047D02*
X47359580Y-37771428D01*
X46454819Y-39295237D02*
X46454819Y-38819047D01*
X46454819Y-38819047D02*
X46931009Y-38771428D01*
X46931009Y-38771428D02*
X46883390Y-38819047D01*
X46883390Y-38819047D02*
X46835771Y-38914285D01*
X46835771Y-38914285D02*
X46835771Y-39152380D01*
X46835771Y-39152380D02*
X46883390Y-39247618D01*
X46883390Y-39247618D02*
X46931009Y-39295237D01*
X46931009Y-39295237D02*
X47026247Y-39342856D01*
X47026247Y-39342856D02*
X47264342Y-39342856D01*
X47264342Y-39342856D02*
X47359580Y-39295237D01*
X47359580Y-39295237D02*
X47407200Y-39247618D01*
X47407200Y-39247618D02*
X47454819Y-39152380D01*
X47454819Y-39152380D02*
X47454819Y-38914285D01*
X47454819Y-38914285D02*
X47407200Y-38819047D01*
X47407200Y-38819047D02*
X47359580Y-38771428D01*
X36669819Y-51270677D02*
X37384104Y-51270677D01*
X37384104Y-51270677D02*
X37526961Y-51223058D01*
X37526961Y-51223058D02*
X37622200Y-51127820D01*
X37622200Y-51127820D02*
X37669819Y-50984963D01*
X37669819Y-50984963D02*
X37669819Y-50889725D01*
X36765057Y-51699249D02*
X36717438Y-51746868D01*
X36717438Y-51746868D02*
X36669819Y-51842106D01*
X36669819Y-51842106D02*
X36669819Y-52080201D01*
X36669819Y-52080201D02*
X36717438Y-52175439D01*
X36717438Y-52175439D02*
X36765057Y-52223058D01*
X36765057Y-52223058D02*
X36860295Y-52270677D01*
X36860295Y-52270677D02*
X36955533Y-52270677D01*
X36955533Y-52270677D02*
X37098390Y-52223058D01*
X37098390Y-52223058D02*
X37669819Y-51651630D01*
X37669819Y-51651630D02*
X37669819Y-52270677D01*
X36669819Y-52604011D02*
X36669819Y-53270677D01*
X36669819Y-53270677D02*
X37669819Y-52842106D01*
X32454819Y-31666666D02*
X33169104Y-31666666D01*
X33169104Y-31666666D02*
X33311961Y-31619047D01*
X33311961Y-31619047D02*
X33407200Y-31523809D01*
X33407200Y-31523809D02*
X33454819Y-31380952D01*
X33454819Y-31380952D02*
X33454819Y-31285714D01*
X33454819Y-32190476D02*
X33454819Y-32380952D01*
X33454819Y-32380952D02*
X33407200Y-32476190D01*
X33407200Y-32476190D02*
X33359580Y-32523809D01*
X33359580Y-32523809D02*
X33216723Y-32619047D01*
X33216723Y-32619047D02*
X33026247Y-32666666D01*
X33026247Y-32666666D02*
X32645295Y-32666666D01*
X32645295Y-32666666D02*
X32550057Y-32619047D01*
X32550057Y-32619047D02*
X32502438Y-32571428D01*
X32502438Y-32571428D02*
X32454819Y-32476190D01*
X32454819Y-32476190D02*
X32454819Y-32285714D01*
X32454819Y-32285714D02*
X32502438Y-32190476D01*
X32502438Y-32190476D02*
X32550057Y-32142857D01*
X32550057Y-32142857D02*
X32645295Y-32095238D01*
X32645295Y-32095238D02*
X32883390Y-32095238D01*
X32883390Y-32095238D02*
X32978628Y-32142857D01*
X32978628Y-32142857D02*
X33026247Y-32190476D01*
X33026247Y-32190476D02*
X33073866Y-32285714D01*
X33073866Y-32285714D02*
X33073866Y-32476190D01*
X33073866Y-32476190D02*
X33026247Y-32571428D01*
X33026247Y-32571428D02*
X32978628Y-32619047D01*
X32978628Y-32619047D02*
X32883390Y-32666666D01*
X35809523Y-45454819D02*
X35809523Y-46169104D01*
X35809523Y-46169104D02*
X35857142Y-46311961D01*
X35857142Y-46311961D02*
X35952380Y-46407200D01*
X35952380Y-46407200D02*
X36095237Y-46454819D01*
X36095237Y-46454819D02*
X36190475Y-46454819D01*
X34809523Y-46454819D02*
X35380951Y-46454819D01*
X35095237Y-46454819D02*
X35095237Y-45454819D01*
X35095237Y-45454819D02*
X35190475Y-45597676D01*
X35190475Y-45597676D02*
X35285713Y-45692914D01*
X35285713Y-45692914D02*
X35380951Y-45740533D01*
X33952380Y-45788152D02*
X33952380Y-46454819D01*
X34190475Y-45407200D02*
X34428570Y-46121485D01*
X34428570Y-46121485D02*
X33809523Y-46121485D01*
X22454819Y-24666666D02*
X23169104Y-24666666D01*
X23169104Y-24666666D02*
X23311961Y-24619047D01*
X23311961Y-24619047D02*
X23407200Y-24523809D01*
X23407200Y-24523809D02*
X23454819Y-24380952D01*
X23454819Y-24380952D02*
X23454819Y-24285714D01*
X22454819Y-25047619D02*
X22454819Y-25666666D01*
X22454819Y-25666666D02*
X22835771Y-25333333D01*
X22835771Y-25333333D02*
X22835771Y-25476190D01*
X22835771Y-25476190D02*
X22883390Y-25571428D01*
X22883390Y-25571428D02*
X22931009Y-25619047D01*
X22931009Y-25619047D02*
X23026247Y-25666666D01*
X23026247Y-25666666D02*
X23264342Y-25666666D01*
X23264342Y-25666666D02*
X23359580Y-25619047D01*
X23359580Y-25619047D02*
X23407200Y-25571428D01*
X23407200Y-25571428D02*
X23454819Y-25476190D01*
X23454819Y-25476190D02*
X23454819Y-25190476D01*
X23454819Y-25190476D02*
X23407200Y-25095238D01*
X23407200Y-25095238D02*
X23359580Y-25047619D01*
X35809523Y-35454819D02*
X35809523Y-36169104D01*
X35809523Y-36169104D02*
X35857142Y-36311961D01*
X35857142Y-36311961D02*
X35952380Y-36407200D01*
X35952380Y-36407200D02*
X36095237Y-36454819D01*
X36095237Y-36454819D02*
X36190475Y-36454819D01*
X34809523Y-36454819D02*
X35380951Y-36454819D01*
X35095237Y-36454819D02*
X35095237Y-35454819D01*
X35095237Y-35454819D02*
X35190475Y-35597676D01*
X35190475Y-35597676D02*
X35285713Y-35692914D01*
X35285713Y-35692914D02*
X35380951Y-35740533D01*
X33857142Y-36454819D02*
X34428570Y-36454819D01*
X34142856Y-36454819D02*
X34142856Y-35454819D01*
X34142856Y-35454819D02*
X34238094Y-35597676D01*
X34238094Y-35597676D02*
X34333332Y-35692914D01*
X34333332Y-35692914D02*
X34428570Y-35740533D01*
X25879523Y-51454819D02*
X25879523Y-52169104D01*
X25879523Y-52169104D02*
X25927142Y-52311961D01*
X25927142Y-52311961D02*
X26022380Y-52407200D01*
X26022380Y-52407200D02*
X26165237Y-52454819D01*
X26165237Y-52454819D02*
X26260475Y-52454819D01*
X24879523Y-52454819D02*
X25450951Y-52454819D01*
X25165237Y-52454819D02*
X25165237Y-51454819D01*
X25165237Y-51454819D02*
X25260475Y-51597676D01*
X25260475Y-51597676D02*
X25355713Y-51692914D01*
X25355713Y-51692914D02*
X25450951Y-51740533D01*
X24546189Y-51454819D02*
X23879523Y-51454819D01*
X23879523Y-51454819D02*
X24308094Y-52454819D01*
X22454819Y-41666666D02*
X23169104Y-41666666D01*
X23169104Y-41666666D02*
X23311961Y-41619047D01*
X23311961Y-41619047D02*
X23407200Y-41523809D01*
X23407200Y-41523809D02*
X23454819Y-41380952D01*
X23454819Y-41380952D02*
X23454819Y-41285714D01*
X22454819Y-42571428D02*
X22454819Y-42380952D01*
X22454819Y-42380952D02*
X22502438Y-42285714D01*
X22502438Y-42285714D02*
X22550057Y-42238095D01*
X22550057Y-42238095D02*
X22692914Y-42142857D01*
X22692914Y-42142857D02*
X22883390Y-42095238D01*
X22883390Y-42095238D02*
X23264342Y-42095238D01*
X23264342Y-42095238D02*
X23359580Y-42142857D01*
X23359580Y-42142857D02*
X23407200Y-42190476D01*
X23407200Y-42190476D02*
X23454819Y-42285714D01*
X23454819Y-42285714D02*
X23454819Y-42476190D01*
X23454819Y-42476190D02*
X23407200Y-42571428D01*
X23407200Y-42571428D02*
X23359580Y-42619047D01*
X23359580Y-42619047D02*
X23264342Y-42666666D01*
X23264342Y-42666666D02*
X23026247Y-42666666D01*
X23026247Y-42666666D02*
X22931009Y-42619047D01*
X22931009Y-42619047D02*
X22883390Y-42571428D01*
X22883390Y-42571428D02*
X22835771Y-42476190D01*
X22835771Y-42476190D02*
X22835771Y-42285714D01*
X22835771Y-42285714D02*
X22883390Y-42190476D01*
X22883390Y-42190476D02*
X22931009Y-42142857D01*
X22931009Y-42142857D02*
X23026247Y-42095238D01*
X42454819Y-37390475D02*
X43169104Y-37390475D01*
X43169104Y-37390475D02*
X43311961Y-37342856D01*
X43311961Y-37342856D02*
X43407200Y-37247618D01*
X43407200Y-37247618D02*
X43454819Y-37104761D01*
X43454819Y-37104761D02*
X43454819Y-37009523D01*
X42454819Y-37771428D02*
X42454819Y-38390475D01*
X42454819Y-38390475D02*
X42835771Y-38057142D01*
X42835771Y-38057142D02*
X42835771Y-38199999D01*
X42835771Y-38199999D02*
X42883390Y-38295237D01*
X42883390Y-38295237D02*
X42931009Y-38342856D01*
X42931009Y-38342856D02*
X43026247Y-38390475D01*
X43026247Y-38390475D02*
X43264342Y-38390475D01*
X43264342Y-38390475D02*
X43359580Y-38342856D01*
X43359580Y-38342856D02*
X43407200Y-38295237D01*
X43407200Y-38295237D02*
X43454819Y-38199999D01*
X43454819Y-38199999D02*
X43454819Y-37914285D01*
X43454819Y-37914285D02*
X43407200Y-37819047D01*
X43407200Y-37819047D02*
X43359580Y-37771428D01*
X42454819Y-38723809D02*
X42454819Y-39342856D01*
X42454819Y-39342856D02*
X42835771Y-39009523D01*
X42835771Y-39009523D02*
X42835771Y-39152380D01*
X42835771Y-39152380D02*
X42883390Y-39247618D01*
X42883390Y-39247618D02*
X42931009Y-39295237D01*
X42931009Y-39295237D02*
X43026247Y-39342856D01*
X43026247Y-39342856D02*
X43264342Y-39342856D01*
X43264342Y-39342856D02*
X43359580Y-39295237D01*
X43359580Y-39295237D02*
X43407200Y-39247618D01*
X43407200Y-39247618D02*
X43454819Y-39152380D01*
X43454819Y-39152380D02*
X43454819Y-38866666D01*
X43454819Y-38866666D02*
X43407200Y-38771428D01*
X43407200Y-38771428D02*
X43359580Y-38723809D01*
X45809523Y-41654818D02*
X45809523Y-42369103D01*
X45809523Y-42369103D02*
X45857142Y-42511960D01*
X45857142Y-42511960D02*
X45952380Y-42607199D01*
X45952380Y-42607199D02*
X46095237Y-42654818D01*
X46095237Y-42654818D02*
X46190475Y-42654818D01*
X45428570Y-41654818D02*
X44809523Y-41654818D01*
X44809523Y-41654818D02*
X45142856Y-42035770D01*
X45142856Y-42035770D02*
X44999999Y-42035770D01*
X44999999Y-42035770D02*
X44904761Y-42083389D01*
X44904761Y-42083389D02*
X44857142Y-42131008D01*
X44857142Y-42131008D02*
X44809523Y-42226246D01*
X44809523Y-42226246D02*
X44809523Y-42464341D01*
X44809523Y-42464341D02*
X44857142Y-42559579D01*
X44857142Y-42559579D02*
X44904761Y-42607199D01*
X44904761Y-42607199D02*
X44999999Y-42654818D01*
X44999999Y-42654818D02*
X45285713Y-42654818D01*
X45285713Y-42654818D02*
X45380951Y-42607199D01*
X45380951Y-42607199D02*
X45428570Y-42559579D01*
X43952380Y-41988151D02*
X43952380Y-42654818D01*
X44190475Y-41607199D02*
X44428570Y-42321484D01*
X44428570Y-42321484D02*
X43809523Y-42321484D01*
X26666666Y-32545180D02*
X26666666Y-31830895D01*
X26666666Y-31830895D02*
X26619047Y-31688038D01*
X26619047Y-31688038D02*
X26523809Y-31592800D01*
X26523809Y-31592800D02*
X26380952Y-31545180D01*
X26380952Y-31545180D02*
X26285714Y-31545180D01*
X27666666Y-31545180D02*
X27095238Y-31545180D01*
X27380952Y-31545180D02*
X27380952Y-32545180D01*
X27380952Y-32545180D02*
X27285714Y-32402323D01*
X27285714Y-32402323D02*
X27190476Y-32307085D01*
X27190476Y-32307085D02*
X27095238Y-32259466D01*
X43990476Y-52591781D02*
X43990476Y-51877496D01*
X43990476Y-51877496D02*
X43942857Y-51734639D01*
X43942857Y-51734639D02*
X43847619Y-51639401D01*
X43847619Y-51639401D02*
X43704762Y-51591781D01*
X43704762Y-51591781D02*
X43609524Y-51591781D01*
X44419048Y-52496543D02*
X44466667Y-52544162D01*
X44466667Y-52544162D02*
X44561905Y-52591781D01*
X44561905Y-52591781D02*
X44800000Y-52591781D01*
X44800000Y-52591781D02*
X44895238Y-52544162D01*
X44895238Y-52544162D02*
X44942857Y-52496543D01*
X44942857Y-52496543D02*
X44990476Y-52401305D01*
X44990476Y-52401305D02*
X44990476Y-52306067D01*
X44990476Y-52306067D02*
X44942857Y-52163210D01*
X44942857Y-52163210D02*
X44371429Y-51591781D01*
X44371429Y-51591781D02*
X44990476Y-51591781D01*
X45323810Y-52591781D02*
X45942857Y-52591781D01*
X45942857Y-52591781D02*
X45609524Y-52210829D01*
X45609524Y-52210829D02*
X45752381Y-52210829D01*
X45752381Y-52210829D02*
X45847619Y-52163210D01*
X45847619Y-52163210D02*
X45895238Y-52115591D01*
X45895238Y-52115591D02*
X45942857Y-52020353D01*
X45942857Y-52020353D02*
X45942857Y-51782258D01*
X45942857Y-51782258D02*
X45895238Y-51687020D01*
X45895238Y-51687020D02*
X45847619Y-51639401D01*
X45847619Y-51639401D02*
X45752381Y-51591781D01*
X45752381Y-51591781D02*
X45466667Y-51591781D01*
X45466667Y-51591781D02*
X45371429Y-51639401D01*
X45371429Y-51639401D02*
X45323810Y-51687020D01*
X25809523Y-59454819D02*
X25809523Y-60169104D01*
X25809523Y-60169104D02*
X25857142Y-60311961D01*
X25857142Y-60311961D02*
X25952380Y-60407200D01*
X25952380Y-60407200D02*
X26095237Y-60454819D01*
X26095237Y-60454819D02*
X26190475Y-60454819D01*
X24809523Y-60454819D02*
X25380951Y-60454819D01*
X25095237Y-60454819D02*
X25095237Y-59454819D01*
X25095237Y-59454819D02*
X25190475Y-59597676D01*
X25190475Y-59597676D02*
X25285713Y-59692914D01*
X25285713Y-59692914D02*
X25380951Y-59740533D01*
X24238094Y-59883390D02*
X24333332Y-59835771D01*
X24333332Y-59835771D02*
X24380951Y-59788152D01*
X24380951Y-59788152D02*
X24428570Y-59692914D01*
X24428570Y-59692914D02*
X24428570Y-59645295D01*
X24428570Y-59645295D02*
X24380951Y-59550057D01*
X24380951Y-59550057D02*
X24333332Y-59502438D01*
X24333332Y-59502438D02*
X24238094Y-59454819D01*
X24238094Y-59454819D02*
X24047618Y-59454819D01*
X24047618Y-59454819D02*
X23952380Y-59502438D01*
X23952380Y-59502438D02*
X23904761Y-59550057D01*
X23904761Y-59550057D02*
X23857142Y-59645295D01*
X23857142Y-59645295D02*
X23857142Y-59692914D01*
X23857142Y-59692914D02*
X23904761Y-59788152D01*
X23904761Y-59788152D02*
X23952380Y-59835771D01*
X23952380Y-59835771D02*
X24047618Y-59883390D01*
X24047618Y-59883390D02*
X24238094Y-59883390D01*
X24238094Y-59883390D02*
X24333332Y-59931009D01*
X24333332Y-59931009D02*
X24380951Y-59978628D01*
X24380951Y-59978628D02*
X24428570Y-60073866D01*
X24428570Y-60073866D02*
X24428570Y-60264342D01*
X24428570Y-60264342D02*
X24380951Y-60359580D01*
X24380951Y-60359580D02*
X24333332Y-60407200D01*
X24333332Y-60407200D02*
X24238094Y-60454819D01*
X24238094Y-60454819D02*
X24047618Y-60454819D01*
X24047618Y-60454819D02*
X23952380Y-60407200D01*
X23952380Y-60407200D02*
X23904761Y-60359580D01*
X23904761Y-60359580D02*
X23857142Y-60264342D01*
X23857142Y-60264342D02*
X23857142Y-60073866D01*
X23857142Y-60073866D02*
X23904761Y-59978628D01*
X23904761Y-59978628D02*
X23952380Y-59931009D01*
X23952380Y-59931009D02*
X24047618Y-59883390D01*
X25333334Y-45484819D02*
X25333334Y-46199104D01*
X25333334Y-46199104D02*
X25380953Y-46341961D01*
X25380953Y-46341961D02*
X25476191Y-46437200D01*
X25476191Y-46437200D02*
X25619048Y-46484819D01*
X25619048Y-46484819D02*
X25714286Y-46484819D01*
X24952381Y-45484819D02*
X24285715Y-45484819D01*
X24285715Y-45484819D02*
X24714286Y-46484819D01*
X32111737Y-24057822D02*
X32826022Y-24057822D01*
X32826022Y-24057822D02*
X32968879Y-24010203D01*
X32968879Y-24010203D02*
X33064118Y-23914965D01*
X33064118Y-23914965D02*
X33111737Y-23772108D01*
X33111737Y-23772108D02*
X33111737Y-23676870D01*
X32206975Y-24486394D02*
X32159356Y-24534013D01*
X32159356Y-24534013D02*
X32111737Y-24629251D01*
X32111737Y-24629251D02*
X32111737Y-24867346D01*
X32111737Y-24867346D02*
X32159356Y-24962584D01*
X32159356Y-24962584D02*
X32206975Y-25010203D01*
X32206975Y-25010203D02*
X32302213Y-25057822D01*
X32302213Y-25057822D02*
X32397451Y-25057822D01*
X32397451Y-25057822D02*
X32540308Y-25010203D01*
X32540308Y-25010203D02*
X33111737Y-24438775D01*
X33111737Y-24438775D02*
X33111737Y-25057822D01*
X32111737Y-25676870D02*
X32111737Y-25772108D01*
X32111737Y-25772108D02*
X32159356Y-25867346D01*
X32159356Y-25867346D02*
X32206975Y-25914965D01*
X32206975Y-25914965D02*
X32302213Y-25962584D01*
X32302213Y-25962584D02*
X32492689Y-26010203D01*
X32492689Y-26010203D02*
X32730784Y-26010203D01*
X32730784Y-26010203D02*
X32921260Y-25962584D01*
X32921260Y-25962584D02*
X33016498Y-25914965D01*
X33016498Y-25914965D02*
X33064118Y-25867346D01*
X33064118Y-25867346D02*
X33111737Y-25772108D01*
X33111737Y-25772108D02*
X33111737Y-25676870D01*
X33111737Y-25676870D02*
X33064118Y-25581632D01*
X33064118Y-25581632D02*
X33016498Y-25534013D01*
X33016498Y-25534013D02*
X32921260Y-25486394D01*
X32921260Y-25486394D02*
X32730784Y-25438775D01*
X32730784Y-25438775D02*
X32492689Y-25438775D01*
X32492689Y-25438775D02*
X32302213Y-25486394D01*
X32302213Y-25486394D02*
X32206975Y-25534013D01*
X32206975Y-25534013D02*
X32159356Y-25581632D01*
X32159356Y-25581632D02*
X32111737Y-25676870D01*
X44020476Y-24715179D02*
X44020476Y-24000894D01*
X44020476Y-24000894D02*
X43972857Y-23858037D01*
X43972857Y-23858037D02*
X43877619Y-23762799D01*
X43877619Y-23762799D02*
X43734762Y-23715179D01*
X43734762Y-23715179D02*
X43639524Y-23715179D01*
X44401429Y-24715179D02*
X45020476Y-24715179D01*
X45020476Y-24715179D02*
X44687143Y-24334227D01*
X44687143Y-24334227D02*
X44830000Y-24334227D01*
X44830000Y-24334227D02*
X44925238Y-24286608D01*
X44925238Y-24286608D02*
X44972857Y-24238989D01*
X44972857Y-24238989D02*
X45020476Y-24143751D01*
X45020476Y-24143751D02*
X45020476Y-23905656D01*
X45020476Y-23905656D02*
X44972857Y-23810418D01*
X44972857Y-23810418D02*
X44925238Y-23762799D01*
X44925238Y-23762799D02*
X44830000Y-23715179D01*
X44830000Y-23715179D02*
X44544286Y-23715179D01*
X44544286Y-23715179D02*
X44449048Y-23762799D01*
X44449048Y-23762799D02*
X44401429Y-23810418D01*
X45401429Y-24619941D02*
X45449048Y-24667560D01*
X45449048Y-24667560D02*
X45544286Y-24715179D01*
X45544286Y-24715179D02*
X45782381Y-24715179D01*
X45782381Y-24715179D02*
X45877619Y-24667560D01*
X45877619Y-24667560D02*
X45925238Y-24619941D01*
X45925238Y-24619941D02*
X45972857Y-24524703D01*
X45972857Y-24524703D02*
X45972857Y-24429465D01*
X45972857Y-24429465D02*
X45925238Y-24286608D01*
X45925238Y-24286608D02*
X45353810Y-23715179D01*
X45353810Y-23715179D02*
X45972857Y-23715179D01*
X26454819Y-24666666D02*
X27169104Y-24666666D01*
X27169104Y-24666666D02*
X27311961Y-24619047D01*
X27311961Y-24619047D02*
X27407200Y-24523809D01*
X27407200Y-24523809D02*
X27454819Y-24380952D01*
X27454819Y-24380952D02*
X27454819Y-24285714D01*
X26788152Y-25571428D02*
X27454819Y-25571428D01*
X26407200Y-25333333D02*
X27121485Y-25095238D01*
X27121485Y-25095238D02*
X27121485Y-25714285D01*
X32754820Y-58390475D02*
X33469105Y-58390475D01*
X33469105Y-58390475D02*
X33611962Y-58342856D01*
X33611962Y-58342856D02*
X33707201Y-58247618D01*
X33707201Y-58247618D02*
X33754820Y-58104761D01*
X33754820Y-58104761D02*
X33754820Y-58009523D01*
X32850058Y-58819047D02*
X32802439Y-58866666D01*
X32802439Y-58866666D02*
X32754820Y-58961904D01*
X32754820Y-58961904D02*
X32754820Y-59199999D01*
X32754820Y-59199999D02*
X32802439Y-59295237D01*
X32802439Y-59295237D02*
X32850058Y-59342856D01*
X32850058Y-59342856D02*
X32945296Y-59390475D01*
X32945296Y-59390475D02*
X33040534Y-59390475D01*
X33040534Y-59390475D02*
X33183391Y-59342856D01*
X33183391Y-59342856D02*
X33754820Y-58771428D01*
X33754820Y-58771428D02*
X33754820Y-59390475D01*
X33754820Y-60342856D02*
X33754820Y-59771428D01*
X33754820Y-60057142D02*
X32754820Y-60057142D01*
X32754820Y-60057142D02*
X32897677Y-59961904D01*
X32897677Y-59961904D02*
X32992915Y-59866666D01*
X32992915Y-59866666D02*
X33040534Y-59771428D01*
X46354819Y-27360475D02*
X47069104Y-27360475D01*
X47069104Y-27360475D02*
X47211961Y-27312856D01*
X47211961Y-27312856D02*
X47307200Y-27217618D01*
X47307200Y-27217618D02*
X47354819Y-27074761D01*
X47354819Y-27074761D02*
X47354819Y-26979523D01*
X46354819Y-27741428D02*
X46354819Y-28360475D01*
X46354819Y-28360475D02*
X46735771Y-28027142D01*
X46735771Y-28027142D02*
X46735771Y-28169999D01*
X46735771Y-28169999D02*
X46783390Y-28265237D01*
X46783390Y-28265237D02*
X46831009Y-28312856D01*
X46831009Y-28312856D02*
X46926247Y-28360475D01*
X46926247Y-28360475D02*
X47164342Y-28360475D01*
X47164342Y-28360475D02*
X47259580Y-28312856D01*
X47259580Y-28312856D02*
X47307200Y-28265237D01*
X47307200Y-28265237D02*
X47354819Y-28169999D01*
X47354819Y-28169999D02*
X47354819Y-27884285D01*
X47354819Y-27884285D02*
X47307200Y-27789047D01*
X47307200Y-27789047D02*
X47259580Y-27741428D01*
X46354819Y-28979523D02*
X46354819Y-29074761D01*
X46354819Y-29074761D02*
X46402438Y-29169999D01*
X46402438Y-29169999D02*
X46450057Y-29217618D01*
X46450057Y-29217618D02*
X46545295Y-29265237D01*
X46545295Y-29265237D02*
X46735771Y-29312856D01*
X46735771Y-29312856D02*
X46973866Y-29312856D01*
X46973866Y-29312856D02*
X47164342Y-29265237D01*
X47164342Y-29265237D02*
X47259580Y-29217618D01*
X47259580Y-29217618D02*
X47307200Y-29169999D01*
X47307200Y-29169999D02*
X47354819Y-29074761D01*
X47354819Y-29074761D02*
X47354819Y-28979523D01*
X47354819Y-28979523D02*
X47307200Y-28884285D01*
X47307200Y-28884285D02*
X47259580Y-28836666D01*
X47259580Y-28836666D02*
X47164342Y-28789047D01*
X47164342Y-28789047D02*
X46973866Y-28741428D01*
X46973866Y-28741428D02*
X46735771Y-28741428D01*
X46735771Y-28741428D02*
X46545295Y-28789047D01*
X46545295Y-28789047D02*
X46450057Y-28836666D01*
X46450057Y-28836666D02*
X46402438Y-28884285D01*
X46402438Y-28884285D02*
X46354819Y-28979523D01*
X42354819Y-27360475D02*
X43069104Y-27360475D01*
X43069104Y-27360475D02*
X43211961Y-27312856D01*
X43211961Y-27312856D02*
X43307200Y-27217618D01*
X43307200Y-27217618D02*
X43354819Y-27074761D01*
X43354819Y-27074761D02*
X43354819Y-26979523D01*
X42450057Y-27789047D02*
X42402438Y-27836666D01*
X42402438Y-27836666D02*
X42354819Y-27931904D01*
X42354819Y-27931904D02*
X42354819Y-28169999D01*
X42354819Y-28169999D02*
X42402438Y-28265237D01*
X42402438Y-28265237D02*
X42450057Y-28312856D01*
X42450057Y-28312856D02*
X42545295Y-28360475D01*
X42545295Y-28360475D02*
X42640533Y-28360475D01*
X42640533Y-28360475D02*
X42783390Y-28312856D01*
X42783390Y-28312856D02*
X43354819Y-27741428D01*
X43354819Y-27741428D02*
X43354819Y-28360475D01*
X43354819Y-28836666D02*
X43354819Y-29027142D01*
X43354819Y-29027142D02*
X43307200Y-29122380D01*
X43307200Y-29122380D02*
X43259580Y-29169999D01*
X43259580Y-29169999D02*
X43116723Y-29265237D01*
X43116723Y-29265237D02*
X42926247Y-29312856D01*
X42926247Y-29312856D02*
X42545295Y-29312856D01*
X42545295Y-29312856D02*
X42450057Y-29265237D01*
X42450057Y-29265237D02*
X42402438Y-29217618D01*
X42402438Y-29217618D02*
X42354819Y-29122380D01*
X42354819Y-29122380D02*
X42354819Y-28931904D01*
X42354819Y-28931904D02*
X42402438Y-28836666D01*
X42402438Y-28836666D02*
X42450057Y-28789047D01*
X42450057Y-28789047D02*
X42545295Y-28741428D01*
X42545295Y-28741428D02*
X42783390Y-28741428D01*
X42783390Y-28741428D02*
X42878628Y-28789047D01*
X42878628Y-28789047D02*
X42926247Y-28836666D01*
X42926247Y-28836666D02*
X42973866Y-28931904D01*
X42973866Y-28931904D02*
X42973866Y-29122380D01*
X42973866Y-29122380D02*
X42926247Y-29217618D01*
X42926247Y-29217618D02*
X42878628Y-29265237D01*
X42878628Y-29265237D02*
X42783390Y-29312856D01*
X37545180Y-42809523D02*
X36830895Y-42809523D01*
X36830895Y-42809523D02*
X36688038Y-42857142D01*
X36688038Y-42857142D02*
X36592800Y-42952380D01*
X36592800Y-42952380D02*
X36545180Y-43095237D01*
X36545180Y-43095237D02*
X36545180Y-43190475D01*
X36545180Y-41809523D02*
X36545180Y-42380951D01*
X36545180Y-42095237D02*
X37545180Y-42095237D01*
X37545180Y-42095237D02*
X37402323Y-42190475D01*
X37402323Y-42190475D02*
X37307085Y-42285713D01*
X37307085Y-42285713D02*
X37259466Y-42380951D01*
X37545180Y-41476189D02*
X37545180Y-40857142D01*
X37545180Y-40857142D02*
X37164228Y-41190475D01*
X37164228Y-41190475D02*
X37164228Y-41047618D01*
X37164228Y-41047618D02*
X37116609Y-40952380D01*
X37116609Y-40952380D02*
X37068990Y-40904761D01*
X37068990Y-40904761D02*
X36973752Y-40857142D01*
X36973752Y-40857142D02*
X36735657Y-40857142D01*
X36735657Y-40857142D02*
X36640419Y-40904761D01*
X36640419Y-40904761D02*
X36592800Y-40952380D01*
X36592800Y-40952380D02*
X36545180Y-41047618D01*
X36545180Y-41047618D02*
X36545180Y-41333332D01*
X36545180Y-41333332D02*
X36592800Y-41428570D01*
X36592800Y-41428570D02*
X36640419Y-41476189D01*
X44390476Y-57475180D02*
X44390476Y-56760895D01*
X44390476Y-56760895D02*
X44342857Y-56618038D01*
X44342857Y-56618038D02*
X44247619Y-56522800D01*
X44247619Y-56522800D02*
X44104762Y-56475180D01*
X44104762Y-56475180D02*
X44009524Y-56475180D01*
X44819048Y-57379942D02*
X44866667Y-57427561D01*
X44866667Y-57427561D02*
X44961905Y-57475180D01*
X44961905Y-57475180D02*
X45200000Y-57475180D01*
X45200000Y-57475180D02*
X45295238Y-57427561D01*
X45295238Y-57427561D02*
X45342857Y-57379942D01*
X45342857Y-57379942D02*
X45390476Y-57284704D01*
X45390476Y-57284704D02*
X45390476Y-57189466D01*
X45390476Y-57189466D02*
X45342857Y-57046609D01*
X45342857Y-57046609D02*
X44771429Y-56475180D01*
X44771429Y-56475180D02*
X45390476Y-56475180D01*
X46295238Y-57475180D02*
X45819048Y-57475180D01*
X45819048Y-57475180D02*
X45771429Y-56998990D01*
X45771429Y-56998990D02*
X45819048Y-57046609D01*
X45819048Y-57046609D02*
X45914286Y-57094228D01*
X45914286Y-57094228D02*
X46152381Y-57094228D01*
X46152381Y-57094228D02*
X46247619Y-57046609D01*
X46247619Y-57046609D02*
X46295238Y-56998990D01*
X46295238Y-56998990D02*
X46342857Y-56903752D01*
X46342857Y-56903752D02*
X46342857Y-56665657D01*
X46342857Y-56665657D02*
X46295238Y-56570419D01*
X46295238Y-56570419D02*
X46247619Y-56522800D01*
X46247619Y-56522800D02*
X46152381Y-56475180D01*
X46152381Y-56475180D02*
X45914286Y-56475180D01*
X45914286Y-56475180D02*
X45819048Y-56522800D01*
X45819048Y-56522800D02*
X45771429Y-56570419D01*
X33169819Y-51270677D02*
X33884104Y-51270677D01*
X33884104Y-51270677D02*
X34026961Y-51223058D01*
X34026961Y-51223058D02*
X34122200Y-51127820D01*
X34122200Y-51127820D02*
X34169819Y-50984963D01*
X34169819Y-50984963D02*
X34169819Y-50889725D01*
X33265057Y-51699249D02*
X33217438Y-51746868D01*
X33217438Y-51746868D02*
X33169819Y-51842106D01*
X33169819Y-51842106D02*
X33169819Y-52080201D01*
X33169819Y-52080201D02*
X33217438Y-52175439D01*
X33217438Y-52175439D02*
X33265057Y-52223058D01*
X33265057Y-52223058D02*
X33360295Y-52270677D01*
X33360295Y-52270677D02*
X33455533Y-52270677D01*
X33455533Y-52270677D02*
X33598390Y-52223058D01*
X33598390Y-52223058D02*
X34169819Y-51651630D01*
X34169819Y-51651630D02*
X34169819Y-52270677D01*
X33598390Y-52842106D02*
X33550771Y-52746868D01*
X33550771Y-52746868D02*
X33503152Y-52699249D01*
X33503152Y-52699249D02*
X33407914Y-52651630D01*
X33407914Y-52651630D02*
X33360295Y-52651630D01*
X33360295Y-52651630D02*
X33265057Y-52699249D01*
X33265057Y-52699249D02*
X33217438Y-52746868D01*
X33217438Y-52746868D02*
X33169819Y-52842106D01*
X33169819Y-52842106D02*
X33169819Y-53032582D01*
X33169819Y-53032582D02*
X33217438Y-53127820D01*
X33217438Y-53127820D02*
X33265057Y-53175439D01*
X33265057Y-53175439D02*
X33360295Y-53223058D01*
X33360295Y-53223058D02*
X33407914Y-53223058D01*
X33407914Y-53223058D02*
X33503152Y-53175439D01*
X33503152Y-53175439D02*
X33550771Y-53127820D01*
X33550771Y-53127820D02*
X33598390Y-53032582D01*
X33598390Y-53032582D02*
X33598390Y-52842106D01*
X33598390Y-52842106D02*
X33646009Y-52746868D01*
X33646009Y-52746868D02*
X33693628Y-52699249D01*
X33693628Y-52699249D02*
X33788866Y-52651630D01*
X33788866Y-52651630D02*
X33979342Y-52651630D01*
X33979342Y-52651630D02*
X34074580Y-52699249D01*
X34074580Y-52699249D02*
X34122200Y-52746868D01*
X34122200Y-52746868D02*
X34169819Y-52842106D01*
X34169819Y-52842106D02*
X34169819Y-53032582D01*
X34169819Y-53032582D02*
X34122200Y-53127820D01*
X34122200Y-53127820D02*
X34074580Y-53175439D01*
X34074580Y-53175439D02*
X33979342Y-53223058D01*
X33979342Y-53223058D02*
X33788866Y-53223058D01*
X33788866Y-53223058D02*
X33693628Y-53175439D01*
X33693628Y-53175439D02*
X33646009Y-53127820D01*
X33646009Y-53127820D02*
X33598390Y-53032582D01*
X43990476Y-48091781D02*
X43990476Y-47377496D01*
X43990476Y-47377496D02*
X43942857Y-47234639D01*
X43942857Y-47234639D02*
X43847619Y-47139401D01*
X43847619Y-47139401D02*
X43704762Y-47091781D01*
X43704762Y-47091781D02*
X43609524Y-47091781D01*
X44419048Y-47996543D02*
X44466667Y-48044162D01*
X44466667Y-48044162D02*
X44561905Y-48091781D01*
X44561905Y-48091781D02*
X44800000Y-48091781D01*
X44800000Y-48091781D02*
X44895238Y-48044162D01*
X44895238Y-48044162D02*
X44942857Y-47996543D01*
X44942857Y-47996543D02*
X44990476Y-47901305D01*
X44990476Y-47901305D02*
X44990476Y-47806067D01*
X44990476Y-47806067D02*
X44942857Y-47663210D01*
X44942857Y-47663210D02*
X44371429Y-47091781D01*
X44371429Y-47091781D02*
X44990476Y-47091781D01*
X45847619Y-47758448D02*
X45847619Y-47091781D01*
X45609524Y-48139401D02*
X45371429Y-47425115D01*
X45371429Y-47425115D02*
X45990476Y-47425115D01*
X26524819Y-55190475D02*
X27239104Y-55190475D01*
X27239104Y-55190475D02*
X27381961Y-55142856D01*
X27381961Y-55142856D02*
X27477200Y-55047618D01*
X27477200Y-55047618D02*
X27524819Y-54904761D01*
X27524819Y-54904761D02*
X27524819Y-54809523D01*
X27524819Y-56190475D02*
X27524819Y-55619047D01*
X27524819Y-55904761D02*
X26524819Y-55904761D01*
X26524819Y-55904761D02*
X26667676Y-55809523D01*
X26667676Y-55809523D02*
X26762914Y-55714285D01*
X26762914Y-55714285D02*
X26810533Y-55619047D01*
X26524819Y-57047618D02*
X26524819Y-56857142D01*
X26524819Y-56857142D02*
X26572438Y-56761904D01*
X26572438Y-56761904D02*
X26620057Y-56714285D01*
X26620057Y-56714285D02*
X26762914Y-56619047D01*
X26762914Y-56619047D02*
X26953390Y-56571428D01*
X26953390Y-56571428D02*
X27334342Y-56571428D01*
X27334342Y-56571428D02*
X27429580Y-56619047D01*
X27429580Y-56619047D02*
X27477200Y-56666666D01*
X27477200Y-56666666D02*
X27524819Y-56761904D01*
X27524819Y-56761904D02*
X27524819Y-56952380D01*
X27524819Y-56952380D02*
X27477200Y-57047618D01*
X27477200Y-57047618D02*
X27429580Y-57095237D01*
X27429580Y-57095237D02*
X27334342Y-57142856D01*
X27334342Y-57142856D02*
X27096247Y-57142856D01*
X27096247Y-57142856D02*
X27001009Y-57095237D01*
X27001009Y-57095237D02*
X26953390Y-57047618D01*
X26953390Y-57047618D02*
X26905771Y-56952380D01*
X26905771Y-56952380D02*
X26905771Y-56761904D01*
X26905771Y-56761904D02*
X26953390Y-56666666D01*
X26953390Y-56666666D02*
X27001009Y-56619047D01*
X27001009Y-56619047D02*
X27096247Y-56571428D01*
X26454819Y-41666666D02*
X27169104Y-41666666D01*
X27169104Y-41666666D02*
X27311961Y-41619047D01*
X27311961Y-41619047D02*
X27407200Y-41523809D01*
X27407200Y-41523809D02*
X27454819Y-41380952D01*
X27454819Y-41380952D02*
X27454819Y-41285714D01*
X26883390Y-42285714D02*
X26835771Y-42190476D01*
X26835771Y-42190476D02*
X26788152Y-42142857D01*
X26788152Y-42142857D02*
X26692914Y-42095238D01*
X26692914Y-42095238D02*
X26645295Y-42095238D01*
X26645295Y-42095238D02*
X26550057Y-42142857D01*
X26550057Y-42142857D02*
X26502438Y-42190476D01*
X26502438Y-42190476D02*
X26454819Y-42285714D01*
X26454819Y-42285714D02*
X26454819Y-42476190D01*
X26454819Y-42476190D02*
X26502438Y-42571428D01*
X26502438Y-42571428D02*
X26550057Y-42619047D01*
X26550057Y-42619047D02*
X26645295Y-42666666D01*
X26645295Y-42666666D02*
X26692914Y-42666666D01*
X26692914Y-42666666D02*
X26788152Y-42619047D01*
X26788152Y-42619047D02*
X26835771Y-42571428D01*
X26835771Y-42571428D02*
X26883390Y-42476190D01*
X26883390Y-42476190D02*
X26883390Y-42285714D01*
X26883390Y-42285714D02*
X26931009Y-42190476D01*
X26931009Y-42190476D02*
X26978628Y-42142857D01*
X26978628Y-42142857D02*
X27073866Y-42095238D01*
X27073866Y-42095238D02*
X27264342Y-42095238D01*
X27264342Y-42095238D02*
X27359580Y-42142857D01*
X27359580Y-42142857D02*
X27407200Y-42190476D01*
X27407200Y-42190476D02*
X27454819Y-42285714D01*
X27454819Y-42285714D02*
X27454819Y-42476190D01*
X27454819Y-42476190D02*
X27407200Y-42571428D01*
X27407200Y-42571428D02*
X27359580Y-42619047D01*
X27359580Y-42619047D02*
X27264342Y-42666666D01*
X27264342Y-42666666D02*
X27073866Y-42666666D01*
X27073866Y-42666666D02*
X26978628Y-42619047D01*
X26978628Y-42619047D02*
X26931009Y-42571428D01*
X26931009Y-42571428D02*
X26883390Y-42476190D01*
X36454819Y-31190476D02*
X37169104Y-31190476D01*
X37169104Y-31190476D02*
X37311961Y-31142857D01*
X37311961Y-31142857D02*
X37407200Y-31047619D01*
X37407200Y-31047619D02*
X37454819Y-30904762D01*
X37454819Y-30904762D02*
X37454819Y-30809524D01*
X37454819Y-32190476D02*
X37454819Y-31619048D01*
X37454819Y-31904762D02*
X36454819Y-31904762D01*
X36454819Y-31904762D02*
X36597676Y-31809524D01*
X36597676Y-31809524D02*
X36692914Y-31714286D01*
X36692914Y-31714286D02*
X36740533Y-31619048D01*
X36454819Y-32809524D02*
X36454819Y-32904762D01*
X36454819Y-32904762D02*
X36502438Y-33000000D01*
X36502438Y-33000000D02*
X36550057Y-33047619D01*
X36550057Y-33047619D02*
X36645295Y-33095238D01*
X36645295Y-33095238D02*
X36835771Y-33142857D01*
X36835771Y-33142857D02*
X37073866Y-33142857D01*
X37073866Y-33142857D02*
X37264342Y-33095238D01*
X37264342Y-33095238D02*
X37359580Y-33047619D01*
X37359580Y-33047619D02*
X37407200Y-33000000D01*
X37407200Y-33000000D02*
X37454819Y-32904762D01*
X37454819Y-32904762D02*
X37454819Y-32809524D01*
X37454819Y-32809524D02*
X37407200Y-32714286D01*
X37407200Y-32714286D02*
X37359580Y-32666667D01*
X37359580Y-32666667D02*
X37264342Y-32619048D01*
X37264342Y-32619048D02*
X37073866Y-32571429D01*
X37073866Y-32571429D02*
X36835771Y-32571429D01*
X36835771Y-32571429D02*
X36645295Y-32619048D01*
X36645295Y-32619048D02*
X36550057Y-32666667D01*
X36550057Y-32666667D02*
X36502438Y-32714286D01*
X36502438Y-32714286D02*
X36454819Y-32809524D01*
X45639523Y-31624818D02*
X45639523Y-32339103D01*
X45639523Y-32339103D02*
X45687142Y-32481960D01*
X45687142Y-32481960D02*
X45782380Y-32577199D01*
X45782380Y-32577199D02*
X45925237Y-32624818D01*
X45925237Y-32624818D02*
X46020475Y-32624818D01*
X45258570Y-31624818D02*
X44639523Y-31624818D01*
X44639523Y-31624818D02*
X44972856Y-32005770D01*
X44972856Y-32005770D02*
X44829999Y-32005770D01*
X44829999Y-32005770D02*
X44734761Y-32053389D01*
X44734761Y-32053389D02*
X44687142Y-32101008D01*
X44687142Y-32101008D02*
X44639523Y-32196246D01*
X44639523Y-32196246D02*
X44639523Y-32434341D01*
X44639523Y-32434341D02*
X44687142Y-32529579D01*
X44687142Y-32529579D02*
X44734761Y-32577199D01*
X44734761Y-32577199D02*
X44829999Y-32624818D01*
X44829999Y-32624818D02*
X45115713Y-32624818D01*
X45115713Y-32624818D02*
X45210951Y-32577199D01*
X45210951Y-32577199D02*
X45258570Y-32529579D01*
X43687142Y-32624818D02*
X44258570Y-32624818D01*
X43972856Y-32624818D02*
X43972856Y-31624818D01*
X43972856Y-31624818D02*
X44068094Y-31767675D01*
X44068094Y-31767675D02*
X44163332Y-31862913D01*
X44163332Y-31862913D02*
X44258570Y-31910532D01*
X35920793Y-23726509D02*
X36610740Y-23541638D01*
X36610740Y-23541638D02*
X36736405Y-23458668D01*
X36736405Y-23458668D02*
X36803748Y-23342025D01*
X36803748Y-23342025D02*
X36812771Y-23191711D01*
X36812771Y-23191711D02*
X36788121Y-23099718D01*
X37145538Y-24433616D02*
X36997641Y-23881658D01*
X37071590Y-24157637D02*
X36105664Y-24416456D01*
X36105664Y-24416456D02*
X36219004Y-24287489D01*
X36219004Y-24287489D02*
X36286347Y-24170847D01*
X36286347Y-24170847D02*
X36307694Y-24066529D01*
X37268785Y-24893581D02*
X37318084Y-25077567D01*
X37318084Y-25077567D02*
X37296737Y-25181884D01*
X37296737Y-25181884D02*
X37263065Y-25240206D01*
X37263065Y-25240206D02*
X37149725Y-25369173D01*
X37149725Y-25369173D02*
X36978064Y-25464468D01*
X36978064Y-25464468D02*
X36610092Y-25563066D01*
X36610092Y-25563066D02*
X36505775Y-25541719D01*
X36505775Y-25541719D02*
X36447454Y-25508047D01*
X36447454Y-25508047D02*
X36376808Y-25428379D01*
X36376808Y-25428379D02*
X36327509Y-25244393D01*
X36327509Y-25244393D02*
X36348856Y-25140075D01*
X36348856Y-25140075D02*
X36382528Y-25081754D01*
X36382528Y-25081754D02*
X36462196Y-25011108D01*
X36462196Y-25011108D02*
X36692178Y-24949484D01*
X36692178Y-24949484D02*
X36796496Y-24970832D01*
X36796496Y-24970832D02*
X36854817Y-25004503D01*
X36854817Y-25004503D02*
X36925463Y-25084171D01*
X36925463Y-25084171D02*
X36974762Y-25268157D01*
X36974762Y-25268157D02*
X36953415Y-25372475D01*
X36953415Y-25372475D02*
X36919743Y-25430796D01*
X36919743Y-25430796D02*
X36840075Y-25501442D01*
D11*
%TO.C,J22*%
X36126798Y-56959377D02*
X36284396Y-57232344D01*
X37747201Y-59765996D02*
X37904798Y-60038963D01*
X37904798Y-60038963D02*
X40126500Y-58756263D01*
X38348500Y-55676677D02*
X36126798Y-56959377D01*
X38506097Y-55949644D02*
X38348500Y-55676677D01*
X40126500Y-58756263D02*
X39968902Y-58483296D01*
%TO.C,J12*%
X31717300Y-40222000D02*
X31717300Y-40537195D01*
X31717300Y-43462805D02*
X31717300Y-43778000D01*
X31717300Y-43778000D02*
X34282700Y-43778000D01*
X34282700Y-40222000D02*
X31717300Y-40222000D01*
X34282700Y-40537195D02*
X34282700Y-40222000D01*
X34282700Y-43778000D02*
X34282700Y-43462805D01*
%TO.C,J5*%
X21717300Y-30222000D02*
X21717300Y-30537195D01*
X21717300Y-33462805D02*
X21717300Y-33778000D01*
X21717300Y-33778000D02*
X24282700Y-33778000D01*
X24282700Y-30222000D02*
X21717300Y-30222000D01*
X24282700Y-30537195D02*
X24282700Y-30222000D01*
X24282700Y-33778000D02*
X24282700Y-33462805D01*
%TO.C,J26*%
X43422000Y-60647300D02*
X43422000Y-63212700D01*
X43422000Y-63212700D02*
X43737195Y-63212700D01*
X43737195Y-60647300D02*
X43422000Y-60647300D01*
X46662805Y-63212700D02*
X46978000Y-63212700D01*
X46978000Y-60647300D02*
X46662805Y-60647300D01*
X46978000Y-63212700D02*
X46978000Y-60647300D01*
%TO.C,J15*%
X21787300Y-54222000D02*
X21787300Y-54537195D01*
X21787300Y-57462805D02*
X21787300Y-57778000D01*
X21787300Y-57778000D02*
X24352700Y-57778000D01*
X24352700Y-54222000D02*
X21787300Y-54222000D01*
X24352700Y-54537195D02*
X24352700Y-54222000D01*
X24352700Y-57778000D02*
X24352700Y-57462805D01*
%TO.C,J35*%
X45717300Y-36421999D02*
X45717300Y-36737194D01*
X45717300Y-39662804D02*
X45717300Y-39977999D01*
X45717300Y-39977999D02*
X48282700Y-39977999D01*
X48282700Y-36421999D02*
X45717300Y-36421999D01*
X48282700Y-36737194D02*
X48282700Y-36421999D01*
X48282700Y-39977999D02*
X48282700Y-39662804D01*
%TO.C,J27*%
X35932300Y-50302201D02*
X35932300Y-50617396D01*
X35932300Y-53543006D02*
X35932300Y-53858201D01*
X35932300Y-53858201D02*
X38497700Y-53858201D01*
X38497700Y-50302201D02*
X35932300Y-50302201D01*
X38497700Y-50617396D02*
X38497700Y-50302201D01*
X38497700Y-53858201D02*
X38497700Y-53543006D01*
%TO.C,J9*%
X31717300Y-30222000D02*
X31717300Y-30537195D01*
X31717300Y-33462805D02*
X31717300Y-33778000D01*
X31717300Y-33778000D02*
X34282700Y-33778000D01*
X34282700Y-30222000D02*
X31717300Y-30222000D01*
X34282700Y-30537195D02*
X34282700Y-30222000D01*
X34282700Y-33778000D02*
X34282700Y-33462805D01*
%TO.C,J14*%
X33222000Y-44717300D02*
X33222000Y-47282700D01*
X33222000Y-47282700D02*
X33537195Y-47282700D01*
X33537195Y-44717300D02*
X33222000Y-44717300D01*
X36462805Y-47282700D02*
X36778000Y-47282700D01*
X36778000Y-44717300D02*
X36462805Y-44717300D01*
X36778000Y-47282700D02*
X36778000Y-44717300D01*
%TO.C,J3*%
X21717300Y-23222000D02*
X21717300Y-23537195D01*
X21717300Y-26462805D02*
X21717300Y-26778000D01*
X21717300Y-26778000D02*
X24282700Y-26778000D01*
X24282700Y-23222000D02*
X21717300Y-23222000D01*
X24282700Y-23537195D02*
X24282700Y-23222000D01*
X24282700Y-26778000D02*
X24282700Y-26462805D01*
%TO.C,J11*%
X33222000Y-34717300D02*
X33222000Y-37282700D01*
X33222000Y-37282700D02*
X33537195Y-37282700D01*
X33537195Y-34717300D02*
X33222000Y-34717300D01*
X36462805Y-37282700D02*
X36778000Y-37282700D01*
X36778000Y-34717300D02*
X36462805Y-34717300D01*
X36778000Y-37282700D02*
X36778000Y-34717300D01*
%TO.C,J17*%
X23292000Y-50717300D02*
X23292000Y-53282700D01*
X23292000Y-53282700D02*
X23607195Y-53282700D01*
X23607195Y-50717300D02*
X23292000Y-50717300D01*
X26532805Y-53282700D02*
X26848000Y-53282700D01*
X26848000Y-50717300D02*
X26532805Y-50717300D01*
X26848000Y-53282700D02*
X26848000Y-50717300D01*
%TO.C,J6*%
X21717300Y-40222000D02*
X21717300Y-40537195D01*
X21717300Y-43462805D02*
X21717300Y-43778000D01*
X21717300Y-43778000D02*
X24282700Y-43778000D01*
X24282700Y-40222000D02*
X21717300Y-40222000D01*
X24282700Y-40537195D02*
X24282700Y-40222000D01*
X24282700Y-43778000D02*
X24282700Y-43462805D01*
%TO.C,J33*%
X41717300Y-36421999D02*
X41717300Y-36737194D01*
X41717300Y-39662804D02*
X41717300Y-39977999D01*
X41717300Y-39977999D02*
X44282700Y-39977999D01*
X44282700Y-36421999D02*
X41717300Y-36421999D01*
X44282700Y-36737194D02*
X44282700Y-36421999D01*
X44282700Y-39977999D02*
X44282700Y-39662804D01*
%TO.C,J34*%
X43222000Y-40917299D02*
X43222000Y-43482699D01*
X43222000Y-43482699D02*
X43537195Y-43482699D01*
X43537195Y-40917299D02*
X43222000Y-40917299D01*
X46462805Y-43482699D02*
X46778000Y-43482699D01*
X46778000Y-40917299D02*
X46462805Y-40917299D01*
X46778000Y-43482699D02*
X46778000Y-40917299D01*
%TO.C,J1*%
X25717300Y-30222000D02*
X25717300Y-30537195D01*
X25717300Y-33462805D02*
X25717300Y-33778000D01*
X25717300Y-33778000D02*
X28282700Y-33778000D01*
X28282700Y-30222000D02*
X25717300Y-30222000D01*
X28282700Y-30537195D02*
X28282700Y-30222000D01*
X28282700Y-33778000D02*
X28282700Y-33462805D01*
%TO.C,J23*%
X43022000Y-50763901D02*
X43022000Y-53329301D01*
X43022000Y-53329301D02*
X43337195Y-53329301D01*
X43337195Y-50763901D02*
X43022000Y-50763901D01*
X46262805Y-53329301D02*
X46578000Y-53329301D01*
X46578000Y-50763901D02*
X46262805Y-50763901D01*
X46578000Y-53329301D02*
X46578000Y-50763901D01*
%TO.C,J18*%
X23222000Y-58717300D02*
X23222000Y-61282700D01*
X23222000Y-61282700D02*
X23537195Y-61282700D01*
X23537195Y-58717300D02*
X23222000Y-58717300D01*
X26462805Y-61282700D02*
X26778000Y-61282700D01*
X26778000Y-58717300D02*
X26462805Y-58717300D01*
X26778000Y-61282700D02*
X26778000Y-58717300D01*
%TO.C,J2*%
X23222000Y-34717300D02*
X23222000Y-37282700D01*
X23222000Y-37282700D02*
X23537195Y-37282700D01*
X23537195Y-34717300D02*
X23222000Y-34717300D01*
X26462805Y-37282700D02*
X26778000Y-37282700D01*
X26778000Y-34717300D02*
X26462805Y-34717300D01*
X26778000Y-37282700D02*
X26778000Y-34717300D01*
%TO.C,J7*%
X23222000Y-44717300D02*
X23222000Y-47282700D01*
X23222000Y-47282700D02*
X23537195Y-47282700D01*
X23537195Y-44717300D02*
X23222000Y-44717300D01*
X26462805Y-47282700D02*
X26778000Y-47282700D01*
X26778000Y-44717300D02*
X26462805Y-44717300D01*
X26778000Y-47282700D02*
X26778000Y-44717300D01*
%TO.C,J20*%
X31374218Y-23089346D02*
X31374218Y-23404541D01*
X31374218Y-26330151D02*
X31374218Y-26645346D01*
X31374218Y-26645346D02*
X33939618Y-26645346D01*
X33939618Y-23089346D02*
X31374218Y-23089346D01*
X33939618Y-23404541D02*
X33939618Y-23089346D01*
X33939618Y-26645346D02*
X33939618Y-26330151D01*
%TO.C,J32*%
X43052000Y-22887299D02*
X43052000Y-25452699D01*
X43052000Y-25452699D02*
X43367195Y-25452699D01*
X43367195Y-22887299D02*
X43052000Y-22887299D01*
X46292805Y-25452699D02*
X46608000Y-25452699D01*
X46608000Y-22887299D02*
X46292805Y-22887299D01*
X46608000Y-25452699D02*
X46608000Y-22887299D01*
%TO.C,J4*%
X25717300Y-23222000D02*
X25717300Y-23537195D01*
X25717300Y-26462805D02*
X25717300Y-26778000D01*
X25717300Y-26778000D02*
X28282700Y-26778000D01*
X28282700Y-23222000D02*
X25717300Y-23222000D01*
X28282700Y-23537195D02*
X28282700Y-23222000D01*
X28282700Y-26778000D02*
X28282700Y-26462805D01*
%TO.C,J21*%
X32017301Y-57421999D02*
X32017301Y-57737194D01*
X32017301Y-60662804D02*
X32017301Y-60977999D01*
X32017301Y-60977999D02*
X34582701Y-60977999D01*
X34582701Y-57421999D02*
X32017301Y-57421999D01*
X34582701Y-57737194D02*
X34582701Y-57421999D01*
X34582701Y-60977999D02*
X34582701Y-60662804D01*
%TO.C,J30*%
X45617300Y-26391999D02*
X45617300Y-26707194D01*
X45617300Y-29632804D02*
X45617300Y-29947999D01*
X45617300Y-29947999D02*
X48182700Y-29947999D01*
X48182700Y-26391999D02*
X45617300Y-26391999D01*
X48182700Y-26707194D02*
X48182700Y-26391999D01*
X48182700Y-29947999D02*
X48182700Y-29632804D01*
%TO.C,J29*%
X41617300Y-26391999D02*
X41617300Y-26707194D01*
X41617300Y-29632804D02*
X41617300Y-29947999D01*
X41617300Y-29947999D02*
X44182700Y-29947999D01*
X44182700Y-26391999D02*
X41617300Y-26391999D01*
X44182700Y-26707194D02*
X44182700Y-26391999D01*
X44182700Y-29947999D02*
X44182700Y-29632804D01*
%TO.C,J13*%
X35717300Y-40222000D02*
X35717300Y-40537195D01*
X35717300Y-43462805D02*
X35717300Y-43778000D01*
X35717300Y-43778000D02*
X38282700Y-43778000D01*
X38282700Y-40222000D02*
X35717300Y-40222000D01*
X38282700Y-40537195D02*
X38282700Y-40222000D01*
X38282700Y-43778000D02*
X38282700Y-43462805D01*
%TO.C,J25*%
X43422000Y-55647300D02*
X43422000Y-58212700D01*
X43422000Y-58212700D02*
X43737195Y-58212700D01*
X43737195Y-55647300D02*
X43422000Y-55647300D01*
X46662805Y-58212700D02*
X46978000Y-58212700D01*
X46978000Y-55647300D02*
X46662805Y-55647300D01*
X46978000Y-58212700D02*
X46978000Y-55647300D01*
%TO.C,J28*%
X32432300Y-50302201D02*
X32432300Y-50617396D01*
X32432300Y-53543006D02*
X32432300Y-53858201D01*
X32432300Y-53858201D02*
X34997700Y-53858201D01*
X34997700Y-50302201D02*
X32432300Y-50302201D01*
X34997700Y-50617396D02*
X34997700Y-50302201D01*
X34997700Y-53858201D02*
X34997700Y-53543006D01*
%TO.C,J24*%
X43022000Y-46263901D02*
X43022000Y-48829301D01*
X43022000Y-48829301D02*
X43337195Y-48829301D01*
X43337195Y-46263901D02*
X43022000Y-46263901D01*
X46262805Y-48829301D02*
X46578000Y-48829301D01*
X46578000Y-46263901D02*
X46262805Y-46263901D01*
X46578000Y-48829301D02*
X46578000Y-46263901D01*
%TO.C,J16*%
X25787300Y-54222000D02*
X25787300Y-54537195D01*
X25787300Y-57462805D02*
X25787300Y-57778000D01*
X25787300Y-57778000D02*
X28352700Y-57778000D01*
X28352700Y-54222000D02*
X25787300Y-54222000D01*
X28352700Y-54537195D02*
X28352700Y-54222000D01*
X28352700Y-57778000D02*
X28352700Y-57462805D01*
%TO.C,J8*%
X25717300Y-40222000D02*
X25717300Y-40537195D01*
X25717300Y-43462805D02*
X25717300Y-43778000D01*
X25717300Y-43778000D02*
X28282700Y-43778000D01*
X28282700Y-40222000D02*
X25717300Y-40222000D01*
X28282700Y-40537195D02*
X28282700Y-40222000D01*
X28282700Y-43778000D02*
X28282700Y-43462805D01*
%TO.C,J10*%
X35717300Y-30222000D02*
X35717300Y-30537195D01*
X35717300Y-33462805D02*
X35717300Y-33778000D01*
X35717300Y-33778000D02*
X38282700Y-33778000D01*
X38282700Y-30222000D02*
X35717300Y-30222000D01*
X38282700Y-30537195D02*
X38282700Y-30222000D01*
X38282700Y-33778000D02*
X38282700Y-33462805D01*
%TO.C,J31*%
X43052000Y-30887299D02*
X43052000Y-33452699D01*
X43052000Y-33452699D02*
X43367195Y-33452699D01*
X43367195Y-30887299D02*
X43052000Y-30887299D01*
X46292805Y-33452699D02*
X46608000Y-33452699D01*
X46608000Y-30887299D02*
X46292805Y-30887299D01*
X46608000Y-33452699D02*
X46608000Y-30887299D01*
%TO.C,J19*%
X34957745Y-22981917D02*
X35039323Y-23286372D01*
X35796527Y-26112294D02*
X35878105Y-26416749D01*
X35878105Y-26416749D02*
X38356091Y-25752775D01*
X37435731Y-22317943D02*
X34957745Y-22981917D01*
X37517309Y-22622398D02*
X37435731Y-22317943D01*
X38356091Y-25752775D02*
X38274513Y-25448320D01*
%TD*%
%LPC*%
D12*
%TO.C,J22*%
X37100002Y-58219615D03*
X38953296Y-57149615D03*
X37300002Y-58566025D03*
X39153296Y-57496025D03*
D13*
X36800001Y-57699999D03*
X38653296Y-56629999D03*
X37600002Y-59085641D03*
X39453297Y-58015641D03*
%TD*%
D14*
%TO.C,J12*%
X31930000Y-41800000D03*
X34070000Y-41800000D03*
X31930000Y-42200000D03*
X34070000Y-42200000D03*
D15*
X31930000Y-41199999D03*
X34070000Y-41199999D03*
X31930000Y-42800001D03*
X34070000Y-42800001D03*
%TD*%
D14*
%TO.C,J5*%
X21930000Y-31800000D03*
X24070000Y-31800000D03*
X21930000Y-32200000D03*
X24070000Y-32200000D03*
D15*
X21930000Y-31199999D03*
X24070000Y-31199999D03*
X21930000Y-32800001D03*
X24070000Y-32800001D03*
%TD*%
D16*
%TO.C,J26*%
X45000000Y-63000000D03*
X45000000Y-60860000D03*
X45400000Y-63000000D03*
X45400000Y-60860000D03*
D17*
X44399999Y-63000000D03*
X44399999Y-60860000D03*
X46000001Y-63000000D03*
X46000001Y-60860000D03*
%TD*%
D14*
%TO.C,J15*%
X22000000Y-55800000D03*
X24140000Y-55800000D03*
X22000000Y-56200000D03*
X24140000Y-56200000D03*
D15*
X22000000Y-55199999D03*
X24140000Y-55199999D03*
X22000000Y-56800001D03*
X24140000Y-56800001D03*
%TD*%
D14*
%TO.C,J35*%
X45930000Y-37999999D03*
X48070000Y-37999999D03*
X45930000Y-38399999D03*
X48070000Y-38399999D03*
D15*
X45930000Y-37399998D03*
X48070000Y-37399998D03*
X45930000Y-39000000D03*
X48070000Y-39000000D03*
%TD*%
D14*
%TO.C,J27*%
X36145000Y-51880201D03*
X38285000Y-51880201D03*
X36145000Y-52280201D03*
X38285000Y-52280201D03*
D15*
X36145000Y-51280200D03*
X38285000Y-51280200D03*
X36145000Y-52880202D03*
X38285000Y-52880202D03*
%TD*%
D14*
%TO.C,J9*%
X31930000Y-31800000D03*
X34070000Y-31800000D03*
X31930000Y-32200000D03*
X34070000Y-32200000D03*
D15*
X31930000Y-31199999D03*
X34070000Y-31199999D03*
X31930000Y-32800001D03*
X34070000Y-32800001D03*
%TD*%
D16*
%TO.C,J14*%
X35200000Y-44930000D03*
X35200000Y-47070000D03*
X34800000Y-44930000D03*
X34800000Y-47070000D03*
D17*
X35800001Y-44930000D03*
X35800001Y-47070000D03*
X34199999Y-44930000D03*
X34199999Y-47070000D03*
%TD*%
D14*
%TO.C,J3*%
X21930000Y-24800000D03*
X24070000Y-24800000D03*
X21930000Y-25200000D03*
X24070000Y-25200000D03*
D15*
X21930000Y-24199999D03*
X24070000Y-24199999D03*
X21930000Y-25800001D03*
X24070000Y-25800001D03*
%TD*%
D16*
%TO.C,J11*%
X35200000Y-34930000D03*
X35200000Y-37070000D03*
X34800000Y-34930000D03*
X34800000Y-37070000D03*
D17*
X35800001Y-34930000D03*
X35800001Y-37070000D03*
X34199999Y-34930000D03*
X34199999Y-37070000D03*
%TD*%
D16*
%TO.C,J17*%
X25270000Y-50930000D03*
X25270000Y-53070000D03*
X24870000Y-50930000D03*
X24870000Y-53070000D03*
D17*
X25870001Y-50930000D03*
X25870001Y-53070000D03*
X24269999Y-50930000D03*
X24269999Y-53070000D03*
%TD*%
D14*
%TO.C,J6*%
X21930000Y-41800000D03*
X24070000Y-41800000D03*
X21930000Y-42200000D03*
X24070000Y-42200000D03*
D15*
X21930000Y-41199999D03*
X24070000Y-41199999D03*
X21930000Y-42800001D03*
X24070000Y-42800001D03*
%TD*%
D14*
%TO.C,J33*%
X41930000Y-37999999D03*
X44070000Y-37999999D03*
X41930000Y-38399999D03*
X44070000Y-38399999D03*
D15*
X41930000Y-37399998D03*
X44070000Y-37399998D03*
X41930000Y-39000000D03*
X44070000Y-39000000D03*
%TD*%
D16*
%TO.C,J34*%
X45200000Y-41129999D03*
X45200000Y-43269999D03*
X44800000Y-41129999D03*
X44800000Y-43269999D03*
D17*
X45800001Y-41129999D03*
X45800001Y-43269999D03*
X44199999Y-41129999D03*
X44199999Y-43269999D03*
%TD*%
D14*
%TO.C,J1*%
X25930000Y-31800000D03*
X28070000Y-31800000D03*
X25930000Y-32200000D03*
X28070000Y-32200000D03*
D15*
X25930000Y-31199999D03*
X28070000Y-31199999D03*
X25930000Y-32800001D03*
X28070000Y-32800001D03*
%TD*%
D16*
%TO.C,J23*%
X44600000Y-53116601D03*
X44600000Y-50976601D03*
X45000000Y-53116601D03*
X45000000Y-50976601D03*
D17*
X43999999Y-53116601D03*
X43999999Y-50976601D03*
X45600001Y-53116601D03*
X45600001Y-50976601D03*
%TD*%
D16*
%TO.C,J18*%
X25200000Y-58930000D03*
X25200000Y-61070000D03*
X24800000Y-58930000D03*
X24800000Y-61070000D03*
D17*
X25800001Y-58930000D03*
X25800001Y-61070000D03*
X24199999Y-58930000D03*
X24199999Y-61070000D03*
%TD*%
D16*
%TO.C,J2*%
X25200000Y-34930000D03*
X25200000Y-37070000D03*
X24800000Y-34930000D03*
X24800000Y-37070000D03*
D17*
X25800001Y-34930000D03*
X25800001Y-37070000D03*
X24199999Y-34930000D03*
X24199999Y-37070000D03*
%TD*%
D16*
%TO.C,J7*%
X25200000Y-44930000D03*
X25200000Y-47070000D03*
X24800000Y-44930000D03*
X24800000Y-47070000D03*
D17*
X25800001Y-44930000D03*
X25800001Y-47070000D03*
X24199999Y-44930000D03*
X24199999Y-47070000D03*
%TD*%
D14*
%TO.C,J20*%
X31586918Y-24667346D03*
X33726918Y-24667346D03*
X31586918Y-25067346D03*
X33726918Y-25067346D03*
D15*
X31586918Y-24067345D03*
X33726918Y-24067345D03*
X31586918Y-25667347D03*
X33726918Y-25667347D03*
%TD*%
D16*
%TO.C,J32*%
X44630000Y-25239999D03*
X44630000Y-23099999D03*
X45030000Y-25239999D03*
X45030000Y-23099999D03*
D17*
X44029999Y-25239999D03*
X44029999Y-23099999D03*
X45630001Y-25239999D03*
X45630001Y-23099999D03*
%TD*%
D14*
%TO.C,J4*%
X25930000Y-24800000D03*
X28070000Y-24800000D03*
X25930000Y-25200000D03*
X28070000Y-25200000D03*
D15*
X25930000Y-24199999D03*
X28070000Y-24199999D03*
X25930000Y-25800001D03*
X28070000Y-25800001D03*
%TD*%
D14*
%TO.C,J21*%
X32230001Y-58999999D03*
X34370001Y-58999999D03*
X32230001Y-59399999D03*
X34370001Y-59399999D03*
D15*
X32230001Y-58399998D03*
X34370001Y-58399998D03*
X32230001Y-60000000D03*
X34370001Y-60000000D03*
%TD*%
D14*
%TO.C,J30*%
X45830000Y-27969999D03*
X47970000Y-27969999D03*
X45830000Y-28369999D03*
X47970000Y-28369999D03*
D15*
X45830000Y-27369998D03*
X47970000Y-27369998D03*
X45830000Y-28970000D03*
X47970000Y-28970000D03*
%TD*%
D14*
%TO.C,J29*%
X41830000Y-27969999D03*
X43970000Y-27969999D03*
X41830000Y-28369999D03*
X43970000Y-28369999D03*
D15*
X41830000Y-27369998D03*
X43970000Y-27369998D03*
X41830000Y-28970000D03*
X43970000Y-28970000D03*
%TD*%
D14*
%TO.C,J13*%
X35930000Y-41800000D03*
X38070000Y-41800000D03*
X35930000Y-42200000D03*
X38070000Y-42200000D03*
D15*
X35930000Y-41199999D03*
X38070000Y-41199999D03*
X35930000Y-42800001D03*
X38070000Y-42800001D03*
%TD*%
D16*
%TO.C,J25*%
X45000000Y-58000000D03*
X45000000Y-55860000D03*
X45400000Y-58000000D03*
X45400000Y-55860000D03*
D17*
X44399999Y-58000000D03*
X44399999Y-55860000D03*
X46000001Y-58000000D03*
X46000001Y-55860000D03*
%TD*%
D14*
%TO.C,J28*%
X32645000Y-51880201D03*
X34785000Y-51880201D03*
X32645000Y-52280201D03*
X34785000Y-52280201D03*
D15*
X32645000Y-51280200D03*
X34785000Y-51280200D03*
X32645000Y-52880202D03*
X34785000Y-52880202D03*
%TD*%
D16*
%TO.C,J24*%
X44600000Y-48616601D03*
X44600000Y-46476601D03*
X45000000Y-48616601D03*
X45000000Y-46476601D03*
D17*
X43999999Y-48616601D03*
X43999999Y-46476601D03*
X45600001Y-48616601D03*
X45600001Y-46476601D03*
%TD*%
D14*
%TO.C,J16*%
X26000000Y-55800000D03*
X28140000Y-55800000D03*
X26000000Y-56200000D03*
X28140000Y-56200000D03*
D15*
X26000000Y-55199999D03*
X28140000Y-55199999D03*
X26000000Y-56800001D03*
X28140000Y-56800001D03*
%TD*%
D14*
%TO.C,J8*%
X25930000Y-41800000D03*
X28070000Y-41800000D03*
X25930000Y-42200000D03*
X28070000Y-42200000D03*
D15*
X25930000Y-41199999D03*
X28070000Y-41199999D03*
X25930000Y-42800001D03*
X28070000Y-42800001D03*
%TD*%
D14*
%TO.C,J10*%
X35930000Y-31800000D03*
X38070000Y-31800000D03*
X35930000Y-32200000D03*
X38070000Y-32200000D03*
D15*
X35930000Y-31199999D03*
X38070000Y-31199999D03*
X35930000Y-32800001D03*
X38070000Y-32800001D03*
%TD*%
D16*
%TO.C,J31*%
X45030000Y-31099999D03*
X45030000Y-33239999D03*
X44630000Y-31099999D03*
X44630000Y-33239999D03*
D17*
X45630001Y-31099999D03*
X45630001Y-33239999D03*
X44029999Y-31099999D03*
X44029999Y-33239999D03*
%TD*%
D18*
%TO.C,J19*%
X35571614Y-24451097D03*
X37638695Y-23897224D03*
X35675141Y-24837468D03*
X37742222Y-24283595D03*
D19*
X35416322Y-23871541D03*
X37483403Y-23317668D03*
X35830433Y-25417024D03*
X37897514Y-24863151D03*
%TD*%
%LPD*%
M02*
