M48
; DRILL file {KiCad 8.0.6} date 2025-03-30T16:03:16+1100
; FORMAT={-:-/ absolute / inch / decimal}
; #@! TF.CreationDate,2025-03-30T16:03:16+11:00
; #@! TF.GenerationSoftware,Kicad,Pcbnew,8.0.6
; #@! TF.FileFunction,Plated,1,2,PTH
FMAT,2
INCH
; #@! TA.AperFunction,Plated,PTH,ViaDrill
T1C0.0118
%
G90
G05
T1
X0.8465Y-1.3504
X0.8658Y-1.4059
X0.8799Y-1.7717
X0.8858Y-2.3976
X0.8898Y-2.0157
X0.8937Y-1.3583
X0.9016Y-2.1142
X0.9134Y-0.9843
X0.9193Y-1.0709
X0.9226Y-2.29
X0.9252Y-2.2047
X0.9843Y-0.9528
X0.9843Y-0.9843
X0.9843Y-1.0492
X0.9843Y-1.2598
X0.9843Y-1.2913
X0.9843Y-1.3366
X0.9843Y-1.7126
X1.0197Y-2.1209
X1.0394Y-1.7087
X1.0551Y-2.2087
X1.063Y-1.2402
X1.0709Y-0.9606
X1.0709Y-1.0
X1.0787Y-2.252
X1.0787Y-2.3622
X1.0801Y-0.9278
X1.1051Y-1.7429
X1.122Y-1.1693
X1.122Y-1.3583
X1.2697Y-1.752
X1.2815Y-1.3583
X1.2835Y-1.2205
X1.2874Y-1.4409
X1.2896Y-0.9751
X1.3274Y-2.0819
X1.3413Y-1.7382
X1.3605Y-0.8806
X1.378Y-1.2205
X1.378Y-1.5815
X1.378Y-1.622
X1.378Y-1.7224
X1.3833Y-1.252
X1.3841Y-1.042
X1.3929Y-2.2355
X1.3976Y-1.4075
X1.4035Y-2.2972
X1.4094Y-2.3307
X1.4312Y-0.9555
X1.4455Y-2.0197
X1.4469Y-1.3091
X1.4488Y-2.3898
X1.4567Y-1.685
X1.4569Y-1.9685
X1.4685Y-2.1143
X1.4764Y-1.3543
X1.4764Y-1.3976
X1.6469Y-1.2419
X1.6567Y-0.9614
X1.6831Y-1.9802
X1.7073Y-1.5919
X1.7224Y-2.3615
X1.7256Y-1.0303
X1.7335Y-1.1957
X1.7402Y-1.9507
X1.765Y-1.0776
X1.7676Y-2.328
X1.7717Y-1.5354
X1.7874Y-1.9703
X1.7912Y-2.3516
X1.8279Y-1.5917
X1.8353Y-2.3194
X1.8516Y-1.9625
X1.8673Y-1.0146
X1.8673Y-1.2075
X1.8701Y-1.6417
X1.874Y-1.5984
M30
