%TF.GenerationSoftware,KiCad,Pcbnew,8.0.6*%
%TF.CreationDate,2025-03-29T22:47:32+11:00*%
%TF.ProjectId,5050_20mm,35303530-5f32-4306-9d6d-2e6b69636164,rev?*%
%TF.SameCoordinates,Original*%
%TF.FileFunction,Legend,Top*%
%TF.FilePolarity,Positive*%
%FSLAX46Y46*%
G04 Gerber Fmt 4.6, Leading zero omitted, Abs format (unit mm)*
G04 Created by KiCad (PCBNEW 8.0.6) date 2025-03-29 22:47:32*
%MOMM*%
%LPD*%
G01*
G04 APERTURE LIST*
G04 Aperture macros list*
%AMRoundRect*
0 Rectangle with rounded corners*
0 $1 Rounding radius*
0 $2 $3 $4 $5 $6 $7 $8 $9 X,Y pos of 4 corners*
0 Add a 4 corners polygon primitive as box body*
4,1,4,$2,$3,$4,$5,$6,$7,$8,$9,$2,$3,0*
0 Add four circle primitives for the rounded corners*
1,1,$1+$1,$2,$3*
1,1,$1+$1,$4,$5*
1,1,$1+$1,$6,$7*
1,1,$1+$1,$8,$9*
0 Add four rect primitives between the rounded corners*
20,1,$1+$1,$2,$3,$4,$5,0*
20,1,$1+$1,$4,$5,$6,$7,0*
20,1,$1+$1,$6,$7,$8,$9,0*
20,1,$1+$1,$8,$9,$2,$3,0*%
G04 Aperture macros list end*
%ADD10C,0.400000*%
%ADD11C,0.150000*%
%ADD12C,0.152400*%
%ADD13C,0.120000*%
%ADD14R,0.482600X0.584200*%
%ADD15R,0.482600X0.279400*%
%ADD16R,0.330200X0.482600*%
%ADD17RoundRect,0.090000X-0.660000X-0.360000X0.660000X-0.360000X0.660000X0.360000X-0.660000X0.360000X0*%
%ADD18RoundRect,0.225000X-0.225000X-0.250000X0.225000X-0.250000X0.225000X0.250000X-0.225000X0.250000X0*%
%ADD19RoundRect,0.225000X0.225000X0.250000X-0.225000X0.250000X-0.225000X-0.250000X0.225000X-0.250000X0*%
%ADD20RoundRect,0.200000X-0.275000X0.200000X-0.275000X-0.200000X0.275000X-0.200000X0.275000X0.200000X0*%
G04 APERTURE END LIST*
D10*
X136875000Y-78250000D02*
X138125000Y-78250000D01*
X41687500Y-78125000D02*
X42812500Y-78125000D01*
X42250000Y-78625000D02*
X42250000Y-77625000D01*
D11*
X41954819Y-75333333D02*
X42669104Y-75333333D01*
X42669104Y-75333333D02*
X42811961Y-75380952D01*
X42811961Y-75380952D02*
X42907200Y-75476190D01*
X42907200Y-75476190D02*
X42954819Y-75619047D01*
X42954819Y-75619047D02*
X42954819Y-75714285D01*
X42954819Y-74333333D02*
X42954819Y-74904761D01*
X42954819Y-74619047D02*
X41954819Y-74619047D01*
X41954819Y-74619047D02*
X42097676Y-74714285D01*
X42097676Y-74714285D02*
X42192914Y-74809523D01*
X42192914Y-74809523D02*
X42240533Y-74904761D01*
X86135714Y-73854819D02*
X85564286Y-73854819D01*
X85850000Y-73854819D02*
X85850000Y-72854819D01*
X85850000Y-72854819D02*
X85754762Y-72997676D01*
X85754762Y-72997676D02*
X85659524Y-73092914D01*
X85659524Y-73092914D02*
X85564286Y-73140533D01*
X106135714Y-73854819D02*
X105564286Y-73854819D01*
X105850000Y-73854819D02*
X105850000Y-72854819D01*
X105850000Y-72854819D02*
X105754762Y-72997676D01*
X105754762Y-72997676D02*
X105659524Y-73092914D01*
X105659524Y-73092914D02*
X105564286Y-73140533D01*
D12*
%TO.C,J1*%
X41128400Y-72777500D02*
X43871600Y-72777500D01*
X43871600Y-77222500D02*
X41128400Y-77222500D01*
D13*
%TO.C,D5*%
X126500000Y-72250000D02*
X126500000Y-77750000D01*
X126500000Y-72250000D02*
X133500000Y-72250000D01*
X126500000Y-77750000D02*
X133050000Y-77750000D01*
X127300000Y-75900000D02*
X127300000Y-74100000D01*
X132700000Y-75900000D02*
X132700000Y-74100000D01*
X133050000Y-77750000D02*
X133500000Y-77300000D01*
X133500000Y-77300000D02*
X133500000Y-72250000D01*
%TO.C,C2*%
X124259420Y-73190000D02*
X124540580Y-73190000D01*
X124259420Y-74210000D02*
X124540580Y-74210000D01*
%TO.C,D3*%
X86500000Y-72250000D02*
X86500000Y-77750000D01*
X86500000Y-72250000D02*
X93500000Y-72250000D01*
X86500000Y-77750000D02*
X93050000Y-77750000D01*
X87300000Y-75900000D02*
X87300000Y-74100000D01*
X92700000Y-75900000D02*
X92700000Y-74100000D01*
X93050000Y-77750000D02*
X93500000Y-77300000D01*
X93500000Y-77300000D02*
X93500000Y-72250000D01*
D12*
%TO.C,J2*%
X136128400Y-72777500D02*
X138871600Y-72777500D01*
X138871600Y-77222500D02*
X136128400Y-77222500D01*
D13*
%TO.C,D2*%
X65250000Y-72250000D02*
X65250000Y-77750000D01*
X65250000Y-72250000D02*
X72250000Y-72250000D01*
X65250000Y-77750000D02*
X71800000Y-77750000D01*
X66050000Y-75900000D02*
X66050000Y-74100000D01*
X71450000Y-75900000D02*
X71450000Y-74100000D01*
X71800000Y-77750000D02*
X72250000Y-77300000D01*
X72250000Y-77300000D02*
X72250000Y-72250000D01*
%TO.C,C3*%
X95840580Y-73090000D02*
X95559420Y-73090000D01*
X95840580Y-74110000D02*
X95559420Y-74110000D01*
%TO.C,D4*%
X106500000Y-72250000D02*
X106500000Y-77750000D01*
X106500000Y-72250000D02*
X113500000Y-72250000D01*
X106500000Y-77750000D02*
X113050000Y-77750000D01*
X107300000Y-75900000D02*
X107300000Y-74100000D01*
X112700000Y-75900000D02*
X112700000Y-74100000D01*
X113050000Y-77750000D02*
X113500000Y-77300000D01*
X113500000Y-77300000D02*
X113500000Y-72250000D01*
%TO.C,R1*%
X44877500Y-75387742D02*
X44877500Y-75862258D01*
X45922500Y-75387742D02*
X45922500Y-75862258D01*
%TO.C,C1*%
X62559420Y-73190000D02*
X62840580Y-73190000D01*
X62559420Y-74210000D02*
X62840580Y-74210000D01*
%TO.C,D1*%
X46500000Y-72250000D02*
X46500000Y-77750000D01*
X46500000Y-72250000D02*
X53500000Y-72250000D01*
X46500000Y-77750000D02*
X53050000Y-77750000D01*
X47300000Y-75900000D02*
X47300000Y-74100000D01*
X52700000Y-75900000D02*
X52700000Y-74100000D01*
X53050000Y-77750000D02*
X53500000Y-77300000D01*
X53500000Y-77300000D02*
X53500000Y-72250000D01*
%TD*%
%LPC*%
D14*
%TO.C,J1*%
X41300000Y-74200000D03*
D15*
X41300000Y-74796800D03*
X41300000Y-75203200D03*
D14*
X41300000Y-75800000D03*
X43700000Y-74200000D03*
D15*
X43700000Y-74796800D03*
X43700000Y-75203200D03*
D14*
X43700000Y-75800000D03*
D16*
X41223800Y-73469997D03*
X41223800Y-76530003D03*
X43776200Y-73469997D03*
X43776200Y-76530003D03*
%TD*%
D17*
%TO.C,D5*%
X127550000Y-73350000D03*
X127550000Y-76650000D03*
X132450000Y-76650000D03*
X132450000Y-73350000D03*
%TD*%
D18*
%TO.C,C2*%
X123625000Y-73700000D03*
X125175000Y-73700000D03*
%TD*%
D17*
%TO.C,D3*%
X87550000Y-73350000D03*
X87550000Y-76650000D03*
X92450000Y-76650000D03*
X92450000Y-73350000D03*
%TD*%
D14*
%TO.C,J2*%
X136300000Y-74200000D03*
D15*
X136300000Y-74796800D03*
X136300000Y-75203200D03*
D14*
X136300000Y-75800000D03*
X138700000Y-74200000D03*
D15*
X138700000Y-74796800D03*
X138700000Y-75203200D03*
D14*
X138700000Y-75800000D03*
D16*
X136223800Y-73469997D03*
X136223800Y-76530003D03*
X138776200Y-73469997D03*
X138776200Y-76530003D03*
%TD*%
D17*
%TO.C,D2*%
X66300000Y-73350000D03*
X66300000Y-76650000D03*
X71200000Y-76650000D03*
X71200000Y-73350000D03*
%TD*%
D19*
%TO.C,C3*%
X96475000Y-73600000D03*
X94925000Y-73600000D03*
%TD*%
D17*
%TO.C,D4*%
X107550000Y-73350000D03*
X107550000Y-76650000D03*
X112450000Y-76650000D03*
X112450000Y-73350000D03*
%TD*%
D20*
%TO.C,R1*%
X45400000Y-74800000D03*
X45400000Y-76450000D03*
%TD*%
D18*
%TO.C,C1*%
X61925000Y-73700000D03*
X63475000Y-73700000D03*
%TD*%
D17*
%TO.C,D1*%
X47550000Y-73350000D03*
X47550000Y-76650000D03*
X52450000Y-76650000D03*
X52450000Y-73350000D03*
%TD*%
%LPD*%
M02*
