M48
; DRILL file {KiCad 8.0.6} date 2025-03-29T22:47:32+1100
; FORMAT={-:-/ absolute / inch / decimal}
; #@! TF.CreationDate,2025-03-29T22:47:32+11:00
; #@! TF.GenerationSoftware,Kicad,Pcbnew,8.0.6
; #@! TF.FileFunction,Plated,1,2,PTH
FMAT,2
INCH
; #@! TA.AperFunction,Plated,PTH,ViaDrill
T1C0.0118
%
G90
G05
T1
X1.6457Y-3.0118
X1.6929Y-2.8425
X1.6929Y-2.9724
X1.7657Y-2.8602
X2.122Y-3.0157
X2.3898Y-2.9016
X2.874Y-3.0177
X3.7047Y-3.0177
X3.8465Y-2.8976
X4.4961Y-3.0177
X4.815Y-2.9016
X5.2717Y-2.9882
X5.2795Y-2.8543
X5.2795Y-3.0335
X5.2795Y-3.0768
X5.315Y-2.9528
X5.3425Y-2.8543
X5.3937Y-2.9528
X5.3937Y-3.0039
X5.4409Y-3.0
M30
