%TF.GenerationSoftware,KiCad,Pcbnew,8.0.6*%
%TF.CreationDate,2025-03-29T22:47:32+11:00*%
%TF.ProjectId,5050_20mm,35303530-5f32-4306-9d6d-2e6b69636164,rev?*%
%TF.SameCoordinates,Original*%
%TF.FileFunction,Paste,Top*%
%TF.FilePolarity,Positive*%
%FSLAX46Y46*%
G04 Gerber Fmt 4.6, Leading zero omitted, Abs format (unit mm)*
G04 Created by KiCad (PCBNEW 8.0.6) date 2025-03-29 22:47:32*
%MOMM*%
%LPD*%
G01*
G04 APERTURE LIST*
G04 Aperture macros list*
%AMRoundRect*
0 Rectangle with rounded corners*
0 $1 Rounding radius*
0 $2 $3 $4 $5 $6 $7 $8 $9 X,Y pos of 4 corners*
0 Add a 4 corners polygon primitive as box body*
4,1,4,$2,$3,$4,$5,$6,$7,$8,$9,$2,$3,0*
0 Add four circle primitives for the rounded corners*
1,1,$1+$1,$2,$3*
1,1,$1+$1,$4,$5*
1,1,$1+$1,$6,$7*
1,1,$1+$1,$8,$9*
0 Add four rect primitives between the rounded corners*
20,1,$1+$1,$2,$3,$4,$5,0*
20,1,$1+$1,$4,$5,$6,$7,0*
20,1,$1+$1,$6,$7,$8,$9,0*
20,1,$1+$1,$8,$9,$2,$3,0*%
G04 Aperture macros list end*
%ADD10R,0.482600X0.584200*%
%ADD11R,0.482600X0.279400*%
%ADD12R,0.330200X0.482600*%
%ADD13RoundRect,0.090000X-0.660000X-0.360000X0.660000X-0.360000X0.660000X0.360000X-0.660000X0.360000X0*%
%ADD14RoundRect,0.225000X-0.225000X-0.250000X0.225000X-0.250000X0.225000X0.250000X-0.225000X0.250000X0*%
%ADD15RoundRect,0.225000X0.225000X0.250000X-0.225000X0.250000X-0.225000X-0.250000X0.225000X-0.250000X0*%
%ADD16RoundRect,0.200000X-0.275000X0.200000X-0.275000X-0.200000X0.275000X-0.200000X0.275000X0.200000X0*%
G04 APERTURE END LIST*
D10*
%TO.C,J1*%
X41300000Y-74200000D03*
D11*
X41300000Y-74796800D03*
X41300000Y-75203200D03*
D10*
X41300000Y-75800000D03*
X43700000Y-74200000D03*
D11*
X43700000Y-74796800D03*
X43700000Y-75203200D03*
D10*
X43700000Y-75800000D03*
D12*
X41223800Y-73469997D03*
X41223800Y-76530003D03*
X43776200Y-73469997D03*
X43776200Y-76530003D03*
%TD*%
D13*
%TO.C,D5*%
X127550000Y-73350000D03*
X127550000Y-76650000D03*
X132450000Y-76650000D03*
X132450000Y-73350000D03*
%TD*%
D14*
%TO.C,C2*%
X123625000Y-73700000D03*
X125175000Y-73700000D03*
%TD*%
D13*
%TO.C,D3*%
X87550000Y-73350000D03*
X87550000Y-76650000D03*
X92450000Y-76650000D03*
X92450000Y-73350000D03*
%TD*%
D10*
%TO.C,J2*%
X136300000Y-74200000D03*
D11*
X136300000Y-74796800D03*
X136300000Y-75203200D03*
D10*
X136300000Y-75800000D03*
X138700000Y-74200000D03*
D11*
X138700000Y-74796800D03*
X138700000Y-75203200D03*
D10*
X138700000Y-75800000D03*
D12*
X136223800Y-73469997D03*
X136223800Y-76530003D03*
X138776200Y-73469997D03*
X138776200Y-76530003D03*
%TD*%
D13*
%TO.C,D2*%
X66300000Y-73350000D03*
X66300000Y-76650000D03*
X71200000Y-76650000D03*
X71200000Y-73350000D03*
%TD*%
D15*
%TO.C,C3*%
X96475000Y-73600000D03*
X94925000Y-73600000D03*
%TD*%
D13*
%TO.C,D4*%
X107550000Y-73350000D03*
X107550000Y-76650000D03*
X112450000Y-76650000D03*
X112450000Y-73350000D03*
%TD*%
D16*
%TO.C,R1*%
X45400000Y-74800000D03*
X45400000Y-76450000D03*
%TD*%
D14*
%TO.C,C1*%
X61925000Y-73700000D03*
X63475000Y-73700000D03*
%TD*%
D13*
%TO.C,D1*%
X47550000Y-73350000D03*
X47550000Y-76650000D03*
X52450000Y-76650000D03*
X52450000Y-73350000D03*
%TD*%
M02*
