%TF.GenerationSoftware,KiCad,Pcbnew,8.0.6*%
%TF.CreationDate,2025-03-29T22:52:02+11:00*%
%TF.ProjectId,5050_25mm,35303530-5f32-4356-9d6d-2e6b69636164,rev?*%
%TF.SameCoordinates,Original*%
%TF.FileFunction,Copper,L2,Bot*%
%TF.FilePolarity,Positive*%
%FSLAX46Y46*%
G04 Gerber Fmt 4.6, Leading zero omitted, Abs format (unit mm)*
G04 Created by KiCad (PCBNEW 8.0.6) date 2025-03-29 22:52:02*
%MOMM*%
%LPD*%
G01*
G04 APERTURE LIST*
%TA.AperFunction,ViaPad*%
%ADD10C,0.600000*%
%TD*%
%TA.AperFunction,Conductor*%
%ADD11C,0.500000*%
%TD*%
%TA.AperFunction,Conductor*%
%ADD12C,0.300000*%
%TD*%
G04 APERTURE END LIST*
D10*
%TO.N,GND*%
X120100000Y-73750000D03*
X82450000Y-76600000D03*
X132450000Y-75750000D03*
X41800000Y-76500000D03*
X137000000Y-76300000D03*
X70750000Y-73650000D03*
X138200000Y-76200000D03*
X107450000Y-76650000D03*
X94150000Y-73750000D03*
X43000000Y-75500000D03*
X57550000Y-76650000D03*
%TO.N,+5V*%
X136500000Y-72450000D03*
X43000000Y-72200000D03*
X44850000Y-72650000D03*
X134550000Y-72450000D03*
%TO.N,/CH1-OUT*%
X137000000Y-75000000D03*
X135000000Y-75000000D03*
%TO.N,/CH3*%
X133000000Y-77000000D03*
X133000000Y-78200000D03*
%TD*%
D11*
%TO.N,+5V*%
X44400000Y-72200000D02*
X44850000Y-72650000D01*
X134550000Y-72450000D02*
X136500000Y-72450000D01*
X43000000Y-72200000D02*
X44400000Y-72200000D01*
D12*
%TO.N,/CH1-OUT*%
X135000000Y-75000000D02*
X137000000Y-75000000D01*
%TO.N,/CH3*%
X133000000Y-78200000D02*
X133000000Y-77000000D01*
%TD*%
%TA.AperFunction,Conductor*%
%TO.N,GND*%
G36*
X42337027Y-71520185D02*
G01*
X42382782Y-71572989D01*
X42392726Y-71642147D01*
X42371805Y-71690532D01*
X42373889Y-71691842D01*
X42274211Y-71850476D01*
X42214631Y-72020745D01*
X42214630Y-72020750D01*
X42194435Y-72199996D01*
X42194435Y-72200003D01*
X42214630Y-72379249D01*
X42214631Y-72379254D01*
X42274211Y-72549523D01*
X42337347Y-72650003D01*
X42370184Y-72702262D01*
X42497738Y-72829816D01*
X42650478Y-72925789D01*
X42799897Y-72978073D01*
X42820745Y-72985368D01*
X42820750Y-72985369D01*
X42999996Y-73005565D01*
X43000000Y-73005565D01*
X43000004Y-73005565D01*
X43179249Y-72985369D01*
X43179252Y-72985368D01*
X43179255Y-72985368D01*
X43259017Y-72957457D01*
X43299972Y-72950500D01*
X44024877Y-72950500D01*
X44091916Y-72970185D01*
X44129867Y-73008524D01*
X44220184Y-73152262D01*
X44347738Y-73279816D01*
X44500478Y-73375789D01*
X44670745Y-73435368D01*
X44670750Y-73435369D01*
X44849996Y-73455565D01*
X44850000Y-73455565D01*
X44850004Y-73455565D01*
X45029249Y-73435369D01*
X45029252Y-73435368D01*
X45029255Y-73435368D01*
X45199522Y-73375789D01*
X45352262Y-73279816D01*
X45479816Y-73152262D01*
X45575789Y-72999522D01*
X45635368Y-72829255D01*
X45655565Y-72650000D01*
X45644244Y-72549523D01*
X45635369Y-72470750D01*
X45635368Y-72470745D01*
X45575788Y-72300476D01*
X45479815Y-72147737D01*
X45352262Y-72020184D01*
X45199522Y-71924211D01*
X45199519Y-71924210D01*
X45199516Y-71924208D01*
X45193242Y-71921186D01*
X45194123Y-71919356D01*
X45158060Y-71896692D01*
X44973550Y-71712181D01*
X44940065Y-71650858D01*
X44945049Y-71581166D01*
X44986921Y-71525233D01*
X45052385Y-71500816D01*
X45061231Y-71500500D01*
X134126098Y-71500500D01*
X134193137Y-71520185D01*
X134238892Y-71572989D01*
X134248836Y-71642147D01*
X134219811Y-71705703D01*
X134192070Y-71729494D01*
X134047737Y-71820184D01*
X133920184Y-71947737D01*
X133824211Y-72100476D01*
X133764631Y-72270745D01*
X133764630Y-72270750D01*
X133744435Y-72449996D01*
X133744435Y-72450003D01*
X133764630Y-72629249D01*
X133764631Y-72629254D01*
X133824211Y-72799523D01*
X133903549Y-72925788D01*
X133920184Y-72952262D01*
X134047738Y-73079816D01*
X134200478Y-73175789D01*
X134271098Y-73200500D01*
X134370745Y-73235368D01*
X134370750Y-73235369D01*
X134549996Y-73255565D01*
X134550000Y-73255565D01*
X134550004Y-73255565D01*
X134729249Y-73235369D01*
X134729252Y-73235368D01*
X134729255Y-73235368D01*
X134809017Y-73207457D01*
X134849972Y-73200500D01*
X136200028Y-73200500D01*
X136240983Y-73207458D01*
X136320745Y-73235368D01*
X136320750Y-73235369D01*
X136499996Y-73255565D01*
X136500000Y-73255565D01*
X136500004Y-73255565D01*
X136679249Y-73235369D01*
X136679252Y-73235368D01*
X136679255Y-73235368D01*
X136849522Y-73175789D01*
X137002262Y-73079816D01*
X137129816Y-72952262D01*
X137225789Y-72799522D01*
X137285368Y-72629255D01*
X137305565Y-72450000D01*
X137297593Y-72379249D01*
X137285369Y-72270750D01*
X137285368Y-72270745D01*
X137242326Y-72147738D01*
X137225789Y-72100478D01*
X137129816Y-71947738D01*
X137002262Y-71820184D01*
X136857930Y-71729494D01*
X136811639Y-71677159D01*
X136800991Y-71608105D01*
X136829366Y-71544257D01*
X136887756Y-71505885D01*
X136923902Y-71500500D01*
X138875500Y-71500500D01*
X138942539Y-71520185D01*
X138988294Y-71572989D01*
X138999500Y-71624500D01*
X138999500Y-78375500D01*
X138979815Y-78442539D01*
X138927011Y-78488294D01*
X138875500Y-78499500D01*
X133910576Y-78499500D01*
X133843537Y-78479815D01*
X133797782Y-78427011D01*
X133787356Y-78361617D01*
X133805565Y-78200003D01*
X133805565Y-78199996D01*
X133785369Y-78020750D01*
X133785366Y-78020737D01*
X133725790Y-77850481D01*
X133725789Y-77850478D01*
X133704008Y-77815814D01*
X133669506Y-77760903D01*
X133650500Y-77694931D01*
X133650500Y-77505067D01*
X133669507Y-77439094D01*
X133725788Y-77349524D01*
X133785368Y-77179254D01*
X133785369Y-77179249D01*
X133805565Y-77000003D01*
X133805565Y-76999996D01*
X133785369Y-76820750D01*
X133785368Y-76820745D01*
X133725788Y-76650476D01*
X133629815Y-76497737D01*
X133502262Y-76370184D01*
X133349523Y-76274211D01*
X133179254Y-76214631D01*
X133179249Y-76214630D01*
X133000004Y-76194435D01*
X132999996Y-76194435D01*
X132820750Y-76214630D01*
X132820745Y-76214631D01*
X132650476Y-76274211D01*
X132497737Y-76370184D01*
X132370184Y-76497737D01*
X132274211Y-76650476D01*
X132214631Y-76820745D01*
X132214630Y-76820750D01*
X132194435Y-76999996D01*
X132194435Y-77000003D01*
X132214630Y-77179249D01*
X132214631Y-77179254D01*
X132274211Y-77349524D01*
X132330493Y-77439094D01*
X132349500Y-77505067D01*
X132349500Y-77694931D01*
X132330494Y-77760903D01*
X132274211Y-77850477D01*
X132274209Y-77850481D01*
X132214633Y-78020737D01*
X132214630Y-78020750D01*
X132194435Y-78199996D01*
X132194435Y-78200003D01*
X132212644Y-78361617D01*
X132200589Y-78430439D01*
X132153240Y-78481818D01*
X132089424Y-78499500D01*
X41124500Y-78499500D01*
X41057461Y-78479815D01*
X41011706Y-78427011D01*
X41000500Y-78375500D01*
X41000500Y-74999996D01*
X134194435Y-74999996D01*
X134194435Y-75000003D01*
X134214630Y-75179249D01*
X134214631Y-75179254D01*
X134274211Y-75349523D01*
X134370184Y-75502262D01*
X134497738Y-75629816D01*
X134650478Y-75725789D01*
X134820739Y-75785366D01*
X134820745Y-75785368D01*
X134820750Y-75785369D01*
X134999996Y-75805565D01*
X135000000Y-75805565D01*
X135000004Y-75805565D01*
X135179249Y-75785369D01*
X135179251Y-75785368D01*
X135179255Y-75785368D01*
X135179258Y-75785366D01*
X135179262Y-75785366D01*
X135269377Y-75753832D01*
X135349522Y-75725789D01*
X135439096Y-75669505D01*
X135505068Y-75650500D01*
X136494932Y-75650500D01*
X136560904Y-75669506D01*
X136650477Y-75725789D01*
X136650481Y-75725790D01*
X136820737Y-75785366D01*
X136820743Y-75785367D01*
X136820745Y-75785368D01*
X136820746Y-75785368D01*
X136820750Y-75785369D01*
X136999996Y-75805565D01*
X137000000Y-75805565D01*
X137000004Y-75805565D01*
X137179249Y-75785369D01*
X137179252Y-75785368D01*
X137179255Y-75785368D01*
X137349522Y-75725789D01*
X137502262Y-75629816D01*
X137629816Y-75502262D01*
X137725789Y-75349522D01*
X137785368Y-75179255D01*
X137805565Y-75000000D01*
X137785368Y-74820745D01*
X137725789Y-74650478D01*
X137629816Y-74497738D01*
X137502262Y-74370184D01*
X137439096Y-74330494D01*
X137349523Y-74274211D01*
X137179254Y-74214631D01*
X137179249Y-74214630D01*
X137000004Y-74194435D01*
X136999996Y-74194435D01*
X136820750Y-74214630D01*
X136820737Y-74214633D01*
X136650481Y-74274209D01*
X136650477Y-74274210D01*
X136560904Y-74330494D01*
X136494932Y-74349500D01*
X135505068Y-74349500D01*
X135439096Y-74330494D01*
X135349522Y-74274210D01*
X135349518Y-74274209D01*
X135179262Y-74214633D01*
X135179249Y-74214630D01*
X135000004Y-74194435D01*
X134999996Y-74194435D01*
X134820750Y-74214630D01*
X134820745Y-74214631D01*
X134650476Y-74274211D01*
X134497737Y-74370184D01*
X134370184Y-74497737D01*
X134274211Y-74650476D01*
X134214631Y-74820745D01*
X134214630Y-74820750D01*
X134194435Y-74999996D01*
X41000500Y-74999996D01*
X41000500Y-71624500D01*
X41020185Y-71557461D01*
X41072989Y-71511706D01*
X41124500Y-71500500D01*
X42269988Y-71500500D01*
X42337027Y-71520185D01*
G37*
%TD.AperFunction*%
%TD*%
M02*
