%TF.GenerationSoftware,KiCad,Pcbnew,8.0.6*%
%TF.CreationDate,2025-03-29T22:52:02+11:00*%
%TF.ProjectId,5050_25mm,35303530-5f32-4356-9d6d-2e6b69636164,rev?*%
%TF.SameCoordinates,Original*%
%TF.FileFunction,Copper,L1,Top*%
%TF.FilePolarity,Positive*%
%FSLAX46Y46*%
G04 Gerber Fmt 4.6, Leading zero omitted, Abs format (unit mm)*
G04 Created by KiCad (PCBNEW 8.0.6) date 2025-03-29 22:52:02*
%MOMM*%
%LPD*%
G01*
G04 APERTURE LIST*
G04 Aperture macros list*
%AMRoundRect*
0 Rectangle with rounded corners*
0 $1 Rounding radius*
0 $2 $3 $4 $5 $6 $7 $8 $9 X,Y pos of 4 corners*
0 Add a 4 corners polygon primitive as box body*
4,1,4,$2,$3,$4,$5,$6,$7,$8,$9,$2,$3,0*
0 Add four circle primitives for the rounded corners*
1,1,$1+$1,$2,$3*
1,1,$1+$1,$4,$5*
1,1,$1+$1,$6,$7*
1,1,$1+$1,$8,$9*
0 Add four rect primitives between the rounded corners*
20,1,$1+$1,$2,$3,$4,$5,0*
20,1,$1+$1,$4,$5,$6,$7,0*
20,1,$1+$1,$6,$7,$8,$9,0*
20,1,$1+$1,$8,$9,$2,$3,0*%
G04 Aperture macros list end*
%TA.AperFunction,SMDPad,CuDef*%
%ADD10R,0.482600X0.584200*%
%TD*%
%TA.AperFunction,SMDPad,CuDef*%
%ADD11R,0.482600X0.279400*%
%TD*%
%TA.AperFunction,SMDPad,CuDef*%
%ADD12R,0.330200X0.482600*%
%TD*%
%TA.AperFunction,SMDPad,CuDef*%
%ADD13RoundRect,0.090000X-0.660000X-0.360000X0.660000X-0.360000X0.660000X0.360000X-0.660000X0.360000X0*%
%TD*%
%TA.AperFunction,SMDPad,CuDef*%
%ADD14RoundRect,0.225000X-0.225000X-0.250000X0.225000X-0.250000X0.225000X0.250000X-0.225000X0.250000X0*%
%TD*%
%TA.AperFunction,SMDPad,CuDef*%
%ADD15RoundRect,0.200000X0.275000X-0.200000X0.275000X0.200000X-0.275000X0.200000X-0.275000X-0.200000X0*%
%TD*%
%TA.AperFunction,ViaPad*%
%ADD16C,0.600000*%
%TD*%
%TA.AperFunction,Conductor*%
%ADD17C,0.300000*%
%TD*%
%TA.AperFunction,Conductor*%
%ADD18C,0.500000*%
%TD*%
%TA.AperFunction,Conductor*%
%ADD19C,0.600000*%
%TD*%
%TA.AperFunction,Conductor*%
%ADD20C,0.200000*%
%TD*%
G04 APERTURE END LIST*
D10*
%TO.P,J1,1,1*%
%TO.N,+5V*%
X41300000Y-74200000D03*
D11*
%TO.P,J1,2,2*%
%TO.N,/CH4*%
X41300000Y-74796800D03*
%TO.P,J1,3,3*%
%TO.N,/CH3*%
X41300000Y-75203200D03*
D10*
%TO.P,J1,4,4*%
%TO.N,GND*%
X41300000Y-75800000D03*
%TO.P,J1,5,5*%
%TO.N,+5V*%
X43700000Y-74200000D03*
D11*
%TO.P,J1,6,6*%
%TO.N,/CH1-IN*%
X43700000Y-74796800D03*
%TO.P,J1,7,7*%
%TO.N,/CH2*%
X43700000Y-75203200D03*
D10*
%TO.P,J1,8,8*%
%TO.N,GND*%
X43700000Y-75800000D03*
D12*
%TO.P,J1,9*%
%TO.N,N/C*%
X41223800Y-73469997D03*
%TO.P,J1,10*%
X41223800Y-76530003D03*
%TO.P,J1,11*%
X43776200Y-73469997D03*
%TO.P,J1,12*%
X43776200Y-76530003D03*
%TD*%
D13*
%TO.P,D4,1,VDD*%
%TO.N,+5V*%
X126050000Y-73350000D03*
%TO.P,D4,2,DOUT*%
%TO.N,/CH1-OUT*%
X126050000Y-76650000D03*
%TO.P,D4,3,VSS*%
%TO.N,GND*%
X130950000Y-76650000D03*
%TO.P,D4,4,DIN*%
%TO.N,/3-4*%
X130950000Y-73350000D03*
%TD*%
D14*
%TO.P,C2,1*%
%TO.N,GND*%
X121425000Y-73700000D03*
%TO.P,C2,2*%
%TO.N,+5V*%
X122975000Y-73700000D03*
%TD*%
%TO.P,C3,1*%
%TO.N,GND*%
X95425000Y-73750000D03*
%TO.P,C3,2*%
%TO.N,+5V*%
X96975000Y-73750000D03*
%TD*%
D13*
%TO.P,D3,1,VDD*%
%TO.N,+5V*%
X101050000Y-73350000D03*
%TO.P,D3,2,DOUT*%
%TO.N,/3-4*%
X101050000Y-76650000D03*
%TO.P,D3,3,VSS*%
%TO.N,GND*%
X105950000Y-76650000D03*
%TO.P,D3,4,DIN*%
%TO.N,/2-3*%
X105950000Y-73350000D03*
%TD*%
D10*
%TO.P,J2,1,1*%
%TO.N,+5V*%
X136300000Y-74200000D03*
D11*
%TO.P,J2,2,2*%
%TO.N,/CH4*%
X136300000Y-74796800D03*
%TO.P,J2,3,3*%
%TO.N,/CH3*%
X136300000Y-75203200D03*
D10*
%TO.P,J2,4,4*%
%TO.N,GND*%
X136300000Y-75800000D03*
%TO.P,J2,5,5*%
%TO.N,+5V*%
X138700000Y-74200000D03*
D11*
%TO.P,J2,6,6*%
%TO.N,/CH1-OUT*%
X138700000Y-74796800D03*
%TO.P,J2,7,7*%
%TO.N,/CH2*%
X138700000Y-75203200D03*
D10*
%TO.P,J2,8,8*%
%TO.N,GND*%
X138700000Y-75800000D03*
D12*
%TO.P,J2,9*%
%TO.N,N/C*%
X136223800Y-73469997D03*
%TO.P,J2,10*%
X136223800Y-76530003D03*
%TO.P,J2,11*%
X138776200Y-73469997D03*
%TO.P,J2,12*%
X138776200Y-76530003D03*
%TD*%
D13*
%TO.P,D2,1,VDD*%
%TO.N,+5V*%
X76050000Y-73350000D03*
%TO.P,D2,2,DOUT*%
%TO.N,/2-3*%
X76050000Y-76650000D03*
%TO.P,D2,3,VSS*%
%TO.N,GND*%
X80950000Y-76650000D03*
%TO.P,D2,4,DIN*%
%TO.N,/1-2*%
X80950000Y-73350000D03*
%TD*%
D14*
%TO.P,C1,1*%
%TO.N,GND*%
X72200000Y-73650000D03*
%TO.P,C1,2*%
%TO.N,+5V*%
X73750000Y-73650000D03*
%TD*%
D15*
%TO.P,R1,1*%
%TO.N,/CH1-IN*%
X46750000Y-76575000D03*
%TO.P,R1,2*%
%TO.N,Net-(D1-DIN)*%
X46750000Y-74925000D03*
%TD*%
D13*
%TO.P,D1,1,VDD*%
%TO.N,+5V*%
X51050000Y-73350000D03*
%TO.P,D1,2,DOUT*%
%TO.N,/1-2*%
X51050000Y-76650000D03*
%TO.P,D1,3,VSS*%
%TO.N,GND*%
X55950000Y-76650000D03*
%TO.P,D1,4,DIN*%
%TO.N,Net-(D1-DIN)*%
X55950000Y-73350000D03*
%TD*%
D16*
%TO.N,GND*%
X120100000Y-73750000D03*
X82450000Y-76600000D03*
X132450000Y-75750000D03*
X41800000Y-76500000D03*
X137000000Y-76300000D03*
X70750000Y-73650000D03*
X138200000Y-76200000D03*
X107450000Y-76650000D03*
X94150000Y-73750000D03*
X43000000Y-75500000D03*
X57550000Y-76650000D03*
%TO.N,+5V*%
X136500000Y-72450000D03*
X43000000Y-72200000D03*
X44850000Y-72650000D03*
X134550000Y-72450000D03*
%TO.N,/CH1-OUT*%
X137000000Y-75000000D03*
X135000000Y-75000000D03*
%TO.N,/CH3*%
X133000000Y-77000000D03*
X133000000Y-78200000D03*
%TD*%
D17*
%TO.N,GND*%
X105950000Y-76650000D02*
X107450000Y-76650000D01*
D18*
X43300000Y-75800000D02*
X43000000Y-75500000D01*
X120150000Y-73700000D02*
X120100000Y-73750000D01*
X138700000Y-75800000D02*
X138561297Y-75938703D01*
X138600000Y-75800000D02*
X138200000Y-76200000D01*
D17*
X131550000Y-76650000D02*
X130950000Y-76650000D01*
X132450000Y-75750000D02*
X131550000Y-76650000D01*
X82400000Y-76650000D02*
X82450000Y-76600000D01*
D18*
X121425000Y-73700000D02*
X120150000Y-73700000D01*
D19*
X72200000Y-73650000D02*
X70750000Y-73650000D01*
D18*
X137000000Y-76300000D02*
X136500000Y-75800000D01*
D19*
X95425000Y-73750000D02*
X94150000Y-73750000D01*
D20*
X136500000Y-75800000D02*
X136300000Y-75800000D01*
D18*
X138700000Y-75800000D02*
X138600000Y-75800000D01*
X41800000Y-75999803D02*
X41800000Y-76500000D01*
X41600197Y-75800000D02*
X41800000Y-75999803D01*
D20*
X136300000Y-75800000D02*
X136400000Y-75900000D01*
D18*
X41300000Y-75800000D02*
X41600197Y-75800000D01*
D17*
X80950000Y-76650000D02*
X82400000Y-76650000D01*
D18*
X43700000Y-75800000D02*
X43300000Y-75800000D01*
D17*
X55950000Y-76650000D02*
X57550000Y-76650000D01*
D18*
%TO.N,+5V*%
X44850000Y-73250000D02*
X45300000Y-73700000D01*
X101850000Y-72550000D02*
X122950000Y-72550000D01*
D19*
X73750000Y-73650000D02*
X73750000Y-72600000D01*
D18*
X75250000Y-72550000D02*
X76050000Y-73350000D01*
X97000000Y-72550000D02*
X100250000Y-72550000D01*
X43700000Y-74200000D02*
X44800000Y-74200000D01*
X51850000Y-72550000D02*
X73700000Y-72550000D01*
X126950000Y-72450000D02*
X134550000Y-72450000D01*
X100250000Y-72550000D02*
X101050000Y-73350000D01*
X101050000Y-73350000D02*
X101850000Y-72550000D01*
D19*
X96975000Y-72575000D02*
X97000000Y-72550000D01*
D18*
X122950000Y-72550000D02*
X125250000Y-72550000D01*
X44850000Y-72650000D02*
X44850000Y-73250000D01*
D19*
X96975000Y-73750000D02*
X96975000Y-72575000D01*
D18*
X122975000Y-73700000D02*
X122975000Y-72575000D01*
X51050000Y-73350000D02*
X51850000Y-72550000D01*
D19*
X73750000Y-72600000D02*
X73700000Y-72550000D01*
D18*
X45650000Y-73350000D02*
X51050000Y-73350000D01*
X45300000Y-73700000D02*
X45650000Y-73350000D01*
X76050000Y-73350000D02*
X76850000Y-72550000D01*
X41738900Y-73461100D02*
X41738900Y-74061297D01*
X138700000Y-74200000D02*
X137600000Y-74200000D01*
X122975000Y-72575000D02*
X122950000Y-72550000D01*
X136500000Y-72450000D02*
X137600000Y-73550000D01*
X43000000Y-72200000D02*
X41738900Y-73461100D01*
X125250000Y-72550000D02*
X126050000Y-73350000D01*
X73700000Y-72550000D02*
X75250000Y-72550000D01*
X76850000Y-72550000D02*
X97000000Y-72550000D01*
X41738900Y-74061297D02*
X41600197Y-74200000D01*
X137600000Y-74200000D02*
X136300000Y-74200000D01*
X126050000Y-73350000D02*
X126950000Y-72450000D01*
X44800000Y-74200000D02*
X45300000Y-73700000D01*
X41600197Y-74200000D02*
X41300000Y-74200000D01*
X137600000Y-73550000D02*
X137600000Y-74200000D01*
D17*
%TO.N,/1-2*%
X79400000Y-73350000D02*
X80950000Y-73350000D01*
X54500000Y-75000000D02*
X77750000Y-75000000D01*
X51050000Y-76650000D02*
X52850000Y-76650000D01*
X52850000Y-76650000D02*
X54500000Y-75000000D01*
X77750000Y-75000000D02*
X79400000Y-73350000D01*
D20*
%TO.N,/CH1-IN*%
X44700000Y-74800000D02*
X43703200Y-74800000D01*
D17*
X46475000Y-76575000D02*
X44700000Y-74800000D01*
X47000000Y-76575000D02*
X46475000Y-76575000D01*
D20*
X43703200Y-74800000D02*
X43700000Y-74796800D01*
D17*
%TO.N,/2-3*%
X78200000Y-76650000D02*
X79850000Y-75000000D01*
X76050000Y-76650000D02*
X78200000Y-76650000D01*
X104000000Y-73350000D02*
X105950000Y-73350000D01*
X102350000Y-75000000D02*
X104000000Y-73350000D01*
X79850000Y-75000000D02*
X102350000Y-75000000D01*
%TO.N,/3-4*%
X104850000Y-74850000D02*
X127400000Y-74850000D01*
X127400000Y-74850000D02*
X128900000Y-73350000D01*
X128900000Y-73350000D02*
X130950000Y-73350000D01*
X103050000Y-76650000D02*
X104850000Y-74850000D01*
X101050000Y-76650000D02*
X103050000Y-76650000D01*
%TO.N,/CH1-OUT*%
X126050000Y-76650000D02*
X128450000Y-76650000D01*
X130100000Y-75000000D02*
X135000000Y-75000000D01*
X128450000Y-76650000D02*
X130100000Y-75000000D01*
D20*
X137000000Y-75000000D02*
X137203200Y-74796800D01*
X137203200Y-74796800D02*
X138700000Y-74796800D01*
D17*
%TO.N,/CH3*%
X42700000Y-77000000D02*
X42700000Y-76100000D01*
X133000000Y-77000000D02*
X134000000Y-77000000D01*
X41786500Y-75186500D02*
X42500000Y-75900000D01*
X42700000Y-76100000D02*
X41786500Y-75186500D01*
D20*
X41803200Y-75203200D02*
X42500000Y-75900000D01*
X135796800Y-75203200D02*
X136300000Y-75203200D01*
D17*
X44050000Y-78350000D02*
X42700000Y-77000000D01*
D20*
X41300000Y-75203200D02*
X41803200Y-75203200D01*
D17*
X134000000Y-77000000D02*
X135596800Y-75403200D01*
X133000000Y-78200000D02*
X132850000Y-78350000D01*
D20*
X135596800Y-75403200D02*
X135796800Y-75203200D01*
D17*
X132850000Y-78350000D02*
X44050000Y-78350000D01*
D20*
%TO.N,/CH2*%
X43700000Y-75203200D02*
X44196800Y-75203200D01*
X44200000Y-75200000D02*
X44400000Y-75400000D01*
D17*
X138363400Y-75203200D02*
X138296800Y-75203200D01*
X137600000Y-77000000D02*
X137000000Y-77600000D01*
X44850000Y-77600000D02*
X44400000Y-77150000D01*
X44400000Y-77150000D02*
X44400000Y-75400000D01*
D20*
X138363400Y-75203200D02*
X138700000Y-75203200D01*
D17*
X138296800Y-75203200D02*
X137600000Y-75900000D01*
X137600000Y-75900000D02*
X137600000Y-77000000D01*
X137000000Y-77600000D02*
X44850000Y-77600000D01*
D20*
X44196800Y-75203200D02*
X44200000Y-75200000D01*
%TO.N,/CH4*%
X41903200Y-74796800D02*
X41300000Y-74796800D01*
D17*
X135370148Y-72370148D02*
X135370148Y-74429852D01*
D20*
X135737096Y-74796800D02*
X135370148Y-74429852D01*
D17*
X42400000Y-74000000D02*
X44600000Y-71800000D01*
D20*
X42400000Y-74300000D02*
X41903200Y-74796800D01*
X136300000Y-74796800D02*
X135737096Y-74796800D01*
D17*
X42400000Y-74300000D02*
X42400000Y-74000000D01*
X134800000Y-71800000D02*
X135370148Y-72370148D01*
X44600000Y-71800000D02*
X134800000Y-71800000D01*
%TO.N,Net-(D1-DIN)*%
X52209314Y-74925000D02*
X46750000Y-74925000D01*
X55950000Y-73350000D02*
X53784314Y-73350000D01*
X53784314Y-73350000D02*
X52209314Y-74925000D01*
X47000000Y-74800000D02*
X47200000Y-75000000D01*
%TD*%
M02*
