%TF.GenerationSoftware,KiCad,Pcbnew,8.0.6*%
%TF.CreationDate,2025-03-29T22:52:02+11:00*%
%TF.ProjectId,5050_25mm,35303530-5f32-4356-9d6d-2e6b69636164,rev?*%
%TF.SameCoordinates,Original*%
%TF.FileFunction,Legend,Top*%
%TF.FilePolarity,Positive*%
%FSLAX46Y46*%
G04 Gerber Fmt 4.6, Leading zero omitted, Abs format (unit mm)*
G04 Created by KiCad (PCBNEW 8.0.6) date 2025-03-29 22:52:02*
%MOMM*%
%LPD*%
G01*
G04 APERTURE LIST*
G04 Aperture macros list*
%AMRoundRect*
0 Rectangle with rounded corners*
0 $1 Rounding radius*
0 $2 $3 $4 $5 $6 $7 $8 $9 X,Y pos of 4 corners*
0 Add a 4 corners polygon primitive as box body*
4,1,4,$2,$3,$4,$5,$6,$7,$8,$9,$2,$3,0*
0 Add four circle primitives for the rounded corners*
1,1,$1+$1,$2,$3*
1,1,$1+$1,$4,$5*
1,1,$1+$1,$6,$7*
1,1,$1+$1,$8,$9*
0 Add four rect primitives between the rounded corners*
20,1,$1+$1,$2,$3,$4,$5,0*
20,1,$1+$1,$4,$5,$6,$7,0*
20,1,$1+$1,$6,$7,$8,$9,0*
20,1,$1+$1,$8,$9,$2,$3,0*%
G04 Aperture macros list end*
%ADD10C,0.400000*%
%ADD11C,0.150000*%
%ADD12C,0.152400*%
%ADD13C,0.100000*%
%ADD14C,0.200000*%
%ADD15C,0.120000*%
%ADD16R,0.482600X0.584200*%
%ADD17R,0.482600X0.279400*%
%ADD18R,0.330200X0.482600*%
%ADD19RoundRect,0.090000X-0.660000X-0.360000X0.660000X-0.360000X0.660000X0.360000X-0.660000X0.360000X0*%
%ADD20RoundRect,0.225000X-0.225000X-0.250000X0.225000X-0.250000X0.225000X0.250000X-0.225000X0.250000X0*%
%ADD21RoundRect,0.200000X0.275000X-0.200000X0.275000X0.200000X-0.275000X0.200000X-0.275000X-0.200000X0*%
G04 APERTURE END LIST*
D10*
X136875000Y-78250000D02*
X138125000Y-78250000D01*
X41687500Y-78125000D02*
X42812500Y-78125000D01*
X42250000Y-78625000D02*
X42250000Y-77625000D01*
D11*
X41954819Y-75333333D02*
X42669104Y-75333333D01*
X42669104Y-75333333D02*
X42811961Y-75380952D01*
X42811961Y-75380952D02*
X42907200Y-75476190D01*
X42907200Y-75476190D02*
X42954819Y-75619047D01*
X42954819Y-75619047D02*
X42954819Y-75714285D01*
X42954819Y-74333333D02*
X42954819Y-74904761D01*
X42954819Y-74619047D02*
X41954819Y-74619047D01*
X41954819Y-74619047D02*
X42097676Y-74714285D01*
X42097676Y-74714285D02*
X42192914Y-74809523D01*
X42192914Y-74809523D02*
X42240533Y-74904761D01*
D12*
%TO.C,J1*%
X41128400Y-72777500D02*
X43871600Y-72777500D01*
X43871600Y-77222500D02*
X41128400Y-77222500D01*
D13*
%TO.C,ESKI1*%
X87750000Y-75700000D02*
X87750000Y-73950000D01*
X88250000Y-73450000D02*
X91750000Y-73450000D01*
X92250000Y-73950000D02*
X92250000Y-75700000D01*
D14*
X88000000Y-74450000D02*
X92000000Y-74450000D01*
X92000000Y-76950000D01*
X88000000Y-76950000D01*
X88000000Y-74450000D01*
D13*
X87750000Y-73950000D02*
G75*
G02*
X88250000Y-73450000I500001J-1D01*
G01*
X91750000Y-73450000D02*
G75*
G02*
X92250000Y-73950000I0J-500000D01*
G01*
D15*
%TO.C,D4*%
X125000000Y-72250000D02*
X125000000Y-77750000D01*
X125000000Y-72250000D02*
X132000000Y-72250000D01*
X125000000Y-77750000D02*
X131550000Y-77750000D01*
X125800000Y-75900000D02*
X125800000Y-74100000D01*
X131200000Y-75900000D02*
X131200000Y-74100000D01*
X131550000Y-77750000D02*
X132000000Y-77300000D01*
X132000000Y-77300000D02*
X132000000Y-72250000D01*
%TO.C,C2*%
X122059420Y-73190000D02*
X122340580Y-73190000D01*
X122059420Y-74210000D02*
X122340580Y-74210000D01*
%TO.C,C3*%
X96059420Y-73240000D02*
X96340580Y-73240000D01*
X96059420Y-74260000D02*
X96340580Y-74260000D01*
%TO.C,D3*%
X100000000Y-72250000D02*
X100000000Y-77750000D01*
X100000000Y-72250000D02*
X107000000Y-72250000D01*
X100000000Y-77750000D02*
X106550000Y-77750000D01*
X100800000Y-75900000D02*
X100800000Y-74100000D01*
X106200000Y-75900000D02*
X106200000Y-74100000D01*
X106550000Y-77750000D02*
X107000000Y-77300000D01*
X107000000Y-77300000D02*
X107000000Y-72250000D01*
D12*
%TO.C,J2*%
X136128400Y-72777500D02*
X138871600Y-72777500D01*
X138871600Y-77222500D02*
X136128400Y-77222500D01*
D15*
%TO.C,D2*%
X75000000Y-72250000D02*
X75000000Y-77750000D01*
X75000000Y-72250000D02*
X82000000Y-72250000D01*
X75000000Y-77750000D02*
X81550000Y-77750000D01*
X75800000Y-75900000D02*
X75800000Y-74100000D01*
X81200000Y-75900000D02*
X81200000Y-74100000D01*
X81550000Y-77750000D02*
X82000000Y-77300000D01*
X82000000Y-77300000D02*
X82000000Y-72250000D01*
%TO.C,C1*%
X72834420Y-73140000D02*
X73115580Y-73140000D01*
X72834420Y-74160000D02*
X73115580Y-74160000D01*
%TO.C,R1*%
X46227500Y-75987258D02*
X46227500Y-75512742D01*
X47272500Y-75987258D02*
X47272500Y-75512742D01*
%TO.C,D1*%
X50000000Y-72250000D02*
X50000000Y-77750000D01*
X50000000Y-72250000D02*
X57000000Y-72250000D01*
X50000000Y-77750000D02*
X56550000Y-77750000D01*
X50800000Y-75900000D02*
X50800000Y-74100000D01*
X56200000Y-75900000D02*
X56200000Y-74100000D01*
X56550000Y-77750000D02*
X57000000Y-77300000D01*
X57000000Y-77300000D02*
X57000000Y-72250000D01*
%TD*%
%LPC*%
D16*
%TO.C,J1*%
X41300000Y-74200000D03*
D17*
X41300000Y-74796800D03*
X41300000Y-75203200D03*
D16*
X41300000Y-75800000D03*
X43700000Y-74200000D03*
D17*
X43700000Y-74796800D03*
X43700000Y-75203200D03*
D16*
X43700000Y-75800000D03*
D18*
X41223800Y-73469997D03*
X41223800Y-76530003D03*
X43776200Y-73469997D03*
X43776200Y-76530003D03*
%TD*%
D19*
%TO.C,D4*%
X126050000Y-73350000D03*
X126050000Y-76650000D03*
X130950000Y-76650000D03*
X130950000Y-73350000D03*
%TD*%
D20*
%TO.C,C2*%
X121425000Y-73700000D03*
X122975000Y-73700000D03*
%TD*%
%TO.C,C3*%
X95425000Y-73750000D03*
X96975000Y-73750000D03*
%TD*%
D19*
%TO.C,D3*%
X101050000Y-73350000D03*
X101050000Y-76650000D03*
X105950000Y-76650000D03*
X105950000Y-73350000D03*
%TD*%
D16*
%TO.C,J2*%
X136300000Y-74200000D03*
D17*
X136300000Y-74796800D03*
X136300000Y-75203200D03*
D16*
X136300000Y-75800000D03*
X138700000Y-74200000D03*
D17*
X138700000Y-74796800D03*
X138700000Y-75203200D03*
D16*
X138700000Y-75800000D03*
D18*
X136223800Y-73469997D03*
X136223800Y-76530003D03*
X138776200Y-73469997D03*
X138776200Y-76530003D03*
%TD*%
D19*
%TO.C,D2*%
X76050000Y-73350000D03*
X76050000Y-76650000D03*
X80950000Y-76650000D03*
X80950000Y-73350000D03*
%TD*%
D20*
%TO.C,C1*%
X72200000Y-73650000D03*
X73750000Y-73650000D03*
%TD*%
D21*
%TO.C,R1*%
X46750000Y-76575000D03*
X46750000Y-74925000D03*
%TD*%
D19*
%TO.C,D1*%
X51050000Y-73350000D03*
X51050000Y-76650000D03*
X55950000Y-76650000D03*
X55950000Y-73350000D03*
%TD*%
%LPD*%
M02*
