%TF.GenerationSoftware,KiCad,Pcbnew,8.0.6*%
%TF.CreationDate,2025-03-30T22:20:58+11:00*%
%TF.ProjectId,adaptor board,61646170-746f-4722-9062-6f6172642e6b,rev?*%
%TF.SameCoordinates,Original*%
%TF.FileFunction,Legend,Top*%
%TF.FilePolarity,Positive*%
%FSLAX46Y46*%
G04 Gerber Fmt 4.6, Leading zero omitted, Abs format (unit mm)*
G04 Created by KiCad (PCBNEW 8.0.6) date 2025-03-30 22:20:58*
%MOMM*%
%LPD*%
G01*
G04 APERTURE LIST*
%ADD10C,0.200000*%
%ADD11C,0.152400*%
%ADD12C,0.100000*%
%ADD13C,0.120000*%
%ADD14R,0.482600X0.584200*%
%ADD15R,0.482600X0.279400*%
%ADD16R,0.330200X0.482600*%
%ADD17R,1.700000X1.700000*%
%ADD18O,1.700000X1.700000*%
G04 APERTURE END LIST*
D10*
X43393971Y-41488720D02*
X44893971Y-41488720D01*
X44893971Y-41488720D02*
X44893971Y-41845863D01*
X44893971Y-41845863D02*
X44822542Y-42060149D01*
X44822542Y-42060149D02*
X44679685Y-42203006D01*
X44679685Y-42203006D02*
X44536828Y-42274435D01*
X44536828Y-42274435D02*
X44251114Y-42345863D01*
X44251114Y-42345863D02*
X44036828Y-42345863D01*
X44036828Y-42345863D02*
X43751114Y-42274435D01*
X43751114Y-42274435D02*
X43608257Y-42203006D01*
X43608257Y-42203006D02*
X43465400Y-42060149D01*
X43465400Y-42060149D02*
X43393971Y-41845863D01*
X43393971Y-41845863D02*
X43393971Y-41488720D01*
X46136828Y-42445863D02*
X46065400Y-42374435D01*
X46065400Y-42374435D02*
X45993971Y-42160149D01*
X45993971Y-42160149D02*
X45993971Y-42017292D01*
X45993971Y-42017292D02*
X46065400Y-41803006D01*
X46065400Y-41803006D02*
X46208257Y-41660149D01*
X46208257Y-41660149D02*
X46351114Y-41588720D01*
X46351114Y-41588720D02*
X46636828Y-41517292D01*
X46636828Y-41517292D02*
X46851114Y-41517292D01*
X46851114Y-41517292D02*
X47136828Y-41588720D01*
X47136828Y-41588720D02*
X47279685Y-41660149D01*
X47279685Y-41660149D02*
X47422542Y-41803006D01*
X47422542Y-41803006D02*
X47493971Y-42017292D01*
X47493971Y-42017292D02*
X47493971Y-42160149D01*
X47493971Y-42160149D02*
X47422542Y-42374435D01*
X47422542Y-42374435D02*
X47351114Y-42445863D01*
X49379685Y-42088720D02*
X49308257Y-42303006D01*
X49308257Y-42303006D02*
X49236828Y-42374435D01*
X49236828Y-42374435D02*
X49093971Y-42445863D01*
X49093971Y-42445863D02*
X48879685Y-42445863D01*
X48879685Y-42445863D02*
X48736828Y-42374435D01*
X48736828Y-42374435D02*
X48665400Y-42303006D01*
X48665400Y-42303006D02*
X48593971Y-42160149D01*
X48593971Y-42160149D02*
X48593971Y-41588720D01*
X48593971Y-41588720D02*
X50093971Y-41588720D01*
X50093971Y-41588720D02*
X50093971Y-42088720D01*
X50093971Y-42088720D02*
X50022542Y-42231578D01*
X50022542Y-42231578D02*
X49951114Y-42303006D01*
X49951114Y-42303006D02*
X49808257Y-42374435D01*
X49808257Y-42374435D02*
X49665400Y-42374435D01*
X49665400Y-42374435D02*
X49522542Y-42303006D01*
X49522542Y-42303006D02*
X49451114Y-42231578D01*
X49451114Y-42231578D02*
X49379685Y-42088720D01*
X49379685Y-42088720D02*
X49379685Y-41588720D01*
X51522542Y-41517292D02*
X51522542Y-42231578D01*
X51093971Y-41374435D02*
X52593971Y-41874435D01*
X52593971Y-41874435D02*
X51093971Y-42374435D01*
X55093971Y-42303006D02*
X55093971Y-41588720D01*
X55093971Y-41588720D02*
X54379685Y-41517292D01*
X54379685Y-41517292D02*
X54451114Y-41588720D01*
X54451114Y-41588720D02*
X54522542Y-41731578D01*
X54522542Y-41731578D02*
X54522542Y-42088720D01*
X54522542Y-42088720D02*
X54451114Y-42231578D01*
X54451114Y-42231578D02*
X54379685Y-42303006D01*
X54379685Y-42303006D02*
X54236828Y-42374435D01*
X54236828Y-42374435D02*
X53879685Y-42374435D01*
X53879685Y-42374435D02*
X53736828Y-42303006D01*
X53736828Y-42303006D02*
X53665400Y-42231578D01*
X53665400Y-42231578D02*
X53593971Y-42088720D01*
X53593971Y-42088720D02*
X53593971Y-41731578D01*
X53593971Y-41731578D02*
X53665400Y-41588720D01*
X53665400Y-41588720D02*
X53736828Y-41517292D01*
X55093971Y-42803006D02*
X53593971Y-43303006D01*
X53593971Y-43303006D02*
X55093971Y-43803006D01*
X42322542Y-41974435D02*
X42393971Y-41831578D01*
X42393971Y-41831578D02*
X42393971Y-41617292D01*
X42393971Y-41617292D02*
X42322542Y-41403006D01*
X42322542Y-41403006D02*
X42179685Y-41260149D01*
X42179685Y-41260149D02*
X42036828Y-41188720D01*
X42036828Y-41188720D02*
X41751114Y-41117292D01*
X41751114Y-41117292D02*
X41536828Y-41117292D01*
X41536828Y-41117292D02*
X41251114Y-41188720D01*
X41251114Y-41188720D02*
X41108257Y-41260149D01*
X41108257Y-41260149D02*
X40965400Y-41403006D01*
X40965400Y-41403006D02*
X40893971Y-41617292D01*
X40893971Y-41617292D02*
X40893971Y-41760149D01*
X40893971Y-41760149D02*
X40965400Y-41974435D01*
X40965400Y-41974435D02*
X41036828Y-42045863D01*
X41036828Y-42045863D02*
X41536828Y-42045863D01*
X41536828Y-42045863D02*
X41536828Y-41760149D01*
X40893971Y-42688720D02*
X42393971Y-42688720D01*
X42393971Y-42688720D02*
X40893971Y-43545863D01*
X40893971Y-43545863D02*
X42393971Y-43545863D01*
X40893971Y-44260149D02*
X42393971Y-44260149D01*
X42393971Y-44260149D02*
X42393971Y-44617292D01*
X42393971Y-44617292D02*
X42322542Y-44831578D01*
X42322542Y-44831578D02*
X42179685Y-44974435D01*
X42179685Y-44974435D02*
X42036828Y-45045864D01*
X42036828Y-45045864D02*
X41751114Y-45117292D01*
X41751114Y-45117292D02*
X41536828Y-45117292D01*
X41536828Y-45117292D02*
X41251114Y-45045864D01*
X41251114Y-45045864D02*
X41108257Y-44974435D01*
X41108257Y-44974435D02*
X40965400Y-44831578D01*
X40965400Y-44831578D02*
X40893971Y-44617292D01*
X40893971Y-44617292D02*
X40893971Y-44260149D01*
D11*
%TO.C,J1*%
X46628400Y-54777500D02*
X49371600Y-54777500D01*
X49371600Y-59222500D02*
X46628400Y-59222500D01*
D12*
%TO.C,ESKI1*%
X45750000Y-46400000D02*
X45750000Y-44650000D01*
X46250000Y-44150000D02*
X49750000Y-44150000D01*
X50250000Y-44650000D02*
X50250000Y-46400000D01*
D10*
X46000000Y-45150000D02*
X50000000Y-45150000D01*
X50000000Y-47650000D01*
X46000000Y-47650000D01*
X46000000Y-45150000D01*
D12*
X45750000Y-44650000D02*
G75*
G02*
X46250000Y-44150000I500001J-1D01*
G01*
X49750000Y-44150000D02*
G75*
G02*
X50250000Y-44650000I0J-500000D01*
G01*
D13*
%TO.C,J3*%
X55680000Y-37670000D02*
X55680000Y-39000000D01*
X54350000Y-37670000D02*
X55680000Y-37670000D01*
X53080000Y-40330000D02*
X40320000Y-40330000D01*
X53080000Y-37670000D02*
X53080000Y-40330000D01*
X53080000Y-37670000D02*
X40320000Y-37670000D01*
X40320000Y-37670000D02*
X40320000Y-40330000D01*
%TD*%
%LPC*%
D14*
%TO.C,J1*%
X46800000Y-56200000D03*
D15*
X46800000Y-56796800D03*
X46800000Y-57203200D03*
D14*
X46800000Y-57800000D03*
X49200000Y-56200000D03*
D15*
X49200000Y-56796800D03*
X49200000Y-57203200D03*
D14*
X49200000Y-57800000D03*
D16*
X46723800Y-55469997D03*
X46723800Y-58530003D03*
X49276200Y-55469997D03*
X49276200Y-58530003D03*
%TD*%
D17*
%TO.C,J3*%
X54350000Y-39000000D03*
D18*
X51810000Y-39000000D03*
X49270000Y-39000000D03*
X46730000Y-39000000D03*
X44190000Y-39000000D03*
X41650000Y-39000000D03*
%TD*%
%LPD*%
M02*
