%TF.GenerationSoftware,KiCad,Pcbnew,8.0.6*%
%TF.CreationDate,2025-03-30T22:20:58+11:00*%
%TF.ProjectId,adaptor board,61646170-746f-4722-9062-6f6172642e6b,rev?*%
%TF.SameCoordinates,Original*%
%TF.FileFunction,Copper,L2,Bot*%
%TF.FilePolarity,Positive*%
%FSLAX46Y46*%
G04 Gerber Fmt 4.6, Leading zero omitted, Abs format (unit mm)*
G04 Created by KiCad (PCBNEW 8.0.6) date 2025-03-30 22:20:58*
%MOMM*%
%LPD*%
G01*
G04 APERTURE LIST*
%TA.AperFunction,ComponentPad*%
%ADD10R,1.700000X1.700000*%
%TD*%
%TA.AperFunction,ComponentPad*%
%ADD11O,1.700000X1.700000*%
%TD*%
%TA.AperFunction,SMDPad,CuDef*%
%ADD12R,0.406400X0.279400*%
%TD*%
%TA.AperFunction,SMDPad,CuDef*%
%ADD13R,0.406400X0.660400*%
%TD*%
%TA.AperFunction,ViaPad*%
%ADD14C,0.600000*%
%TD*%
%TA.AperFunction,Conductor*%
%ADD15C,0.200000*%
%TD*%
%TA.AperFunction,Conductor*%
%ADD16C,0.500000*%
%TD*%
%TA.AperFunction,Conductor*%
%ADD17C,0.400000*%
%TD*%
%TA.AperFunction,Conductor*%
%ADD18C,0.300000*%
%TD*%
G04 APERTURE END LIST*
D10*
%TO.P,J3,1,Pin_1*%
%TO.N,+5V*%
X54350000Y-39000000D03*
D11*
%TO.P,J3,2,Pin_2*%
%TO.N,/1A*%
X51810000Y-39000000D03*
%TO.P,J3,3,Pin_3*%
%TO.N,/1B*%
X49270000Y-39000000D03*
%TO.P,J3,4,Pin_4*%
%TO.N,/1C*%
X46730000Y-39000000D03*
%TO.P,J3,5,Pin_5*%
%TO.N,/1D*%
X44190000Y-39000000D03*
%TO.P,J3,6,Pin_6*%
%TO.N,GND*%
X41650000Y-39000000D03*
%TD*%
D12*
%TO.P,J2,1,1*%
%TO.N,/1D*%
X46930000Y-56800000D03*
%TO.P,J2,2,2*%
%TO.N,/1A*%
X49070000Y-56800000D03*
%TO.P,J2,3,3*%
%TO.N,/1C*%
X46930000Y-57200000D03*
%TO.P,J2,4,4*%
%TO.N,/1B*%
X49070000Y-57200000D03*
D13*
%TO.P,J2,P1,P1*%
%TO.N,+5V*%
X46930000Y-56199999D03*
%TO.P,J2,P2,P2*%
X49070000Y-56199999D03*
%TO.P,J2,P3,P3*%
%TO.N,GND*%
X46930000Y-57800001D03*
%TO.P,J2,P4,P4*%
X49070000Y-57800001D03*
%TD*%
D14*
%TO.N,+5V*%
X46600000Y-48800000D03*
X49400000Y-48900000D03*
%TO.N,GND*%
X47300000Y-60300000D03*
%TO.N,+5V*%
X49300000Y-52100000D03*
X46700000Y-53450000D03*
%TO.N,/1B*%
X48151255Y-58577275D03*
%TO.N,/1A*%
X48700000Y-53950000D03*
%TO.N,/1D*%
X47214043Y-54165513D03*
%TO.N,/1C*%
X47480001Y-57250649D03*
%TD*%
D15*
%TO.N,/1D*%
X47214043Y-54165513D02*
X47300000Y-54079556D01*
X47300000Y-54079556D02*
X47300000Y-48310000D01*
X47300000Y-48310000D02*
X44190000Y-45200000D01*
X44190000Y-45200000D02*
X44190000Y-39000000D01*
D16*
%TO.N,+5V*%
X49400000Y-48900000D02*
X50400000Y-48900000D01*
X50400000Y-48900000D02*
X54350000Y-44950000D01*
X54350000Y-44950000D02*
X54350000Y-39000000D01*
D15*
%TO.N,/1A*%
X48700000Y-53950000D02*
X48700000Y-48300000D01*
X48700000Y-48300000D02*
X51810000Y-45190000D01*
X51810000Y-45190000D02*
X51810000Y-39000000D01*
%TO.N,/1B*%
X48300000Y-57269801D02*
X48200000Y-57369801D01*
X48200000Y-57369801D02*
X48200000Y-40070000D01*
X48200000Y-40070000D02*
X49270000Y-39000000D01*
%TO.N,/1C*%
X47263399Y-57200000D02*
X47287663Y-57200000D01*
X47287663Y-57200000D02*
X47750000Y-56737663D01*
X47750000Y-40020000D02*
X46730000Y-39000000D01*
X47750000Y-56737663D02*
X47750000Y-40020000D01*
%TO.N,/1B*%
X48151255Y-58577275D02*
X48100000Y-58526020D01*
X48100000Y-57469801D02*
X48300000Y-57269801D01*
X48100000Y-58526020D02*
X48100000Y-57469801D01*
X48300000Y-57269801D02*
X48666800Y-57269801D01*
D16*
%TO.N,+5V*%
X49300000Y-52100000D02*
X49300000Y-49000000D01*
X49300000Y-49000000D02*
X49400000Y-48900000D01*
D17*
X49300000Y-52100000D02*
X49266800Y-52133200D01*
X49266800Y-52133200D02*
X49266800Y-53668271D01*
X49266800Y-53668271D02*
X49300000Y-53701471D01*
X49300000Y-53701471D02*
X49300000Y-55969999D01*
X49300000Y-55969999D02*
X49070000Y-56199999D01*
D15*
%TO.N,/1A*%
X48700000Y-53950000D02*
X48666800Y-53983200D01*
X48736601Y-56800000D02*
X49070000Y-56800000D01*
X48666800Y-53983200D02*
X48666800Y-56730199D01*
X48666800Y-56730199D02*
X48736601Y-56800000D01*
D17*
%TO.N,+5V*%
X46700000Y-53450000D02*
X46614043Y-53535957D01*
X46614043Y-53535957D02*
X46614043Y-55884042D01*
X46614043Y-55884042D02*
X46930000Y-56199999D01*
D18*
%TO.N,GND*%
X47300000Y-60300000D02*
X46900000Y-59900000D01*
X46900000Y-59900000D02*
X46900000Y-57830001D01*
X46900000Y-57830001D02*
X46930000Y-57800001D01*
X49070000Y-57800001D02*
X49070000Y-58530000D01*
X49070000Y-58530000D02*
X47300000Y-60300000D01*
D15*
%TO.N,/1C*%
X47480001Y-57250649D02*
X47460849Y-57269801D01*
X47333200Y-57269801D02*
X47263399Y-57200000D01*
X47460849Y-57269801D02*
X47333200Y-57269801D01*
%TO.N,/1D*%
X47263399Y-56800000D02*
X46930000Y-56800000D01*
X47214043Y-54165513D02*
X47333200Y-54284670D01*
X47333200Y-54284670D02*
X47333200Y-56730199D01*
X47333200Y-56730199D02*
X47263399Y-56800000D01*
%TO.N,/1B*%
X48666800Y-57269801D02*
X49000199Y-57269801D01*
X49000199Y-57269801D02*
X49070000Y-57200000D01*
%TO.N,/1C*%
X47263399Y-57200000D02*
X46930000Y-57200000D01*
D16*
%TO.N,+5V*%
X46600000Y-48800000D02*
X46650000Y-48850000D01*
X46650000Y-48850000D02*
X46650000Y-53400000D01*
X46650000Y-53400000D02*
X46700000Y-53450000D01*
%TD*%
M02*
