%TF.GenerationSoftware,KiCad,Pcbnew,8.0.6*%
%TF.CreationDate,2025-03-30T22:20:58+11:00*%
%TF.ProjectId,adaptor board,61646170-746f-4722-9062-6f6172642e6b,rev?*%
%TF.SameCoordinates,Original*%
%TF.FileFunction,Copper,L1,Top*%
%TF.FilePolarity,Positive*%
%FSLAX46Y46*%
G04 Gerber Fmt 4.6, Leading zero omitted, Abs format (unit mm)*
G04 Created by KiCad (PCBNEW 8.0.6) date 2025-03-30 22:20:58*
%MOMM*%
%LPD*%
G01*
G04 APERTURE LIST*
%TA.AperFunction,SMDPad,CuDef*%
%ADD10R,0.482600X0.584200*%
%TD*%
%TA.AperFunction,SMDPad,CuDef*%
%ADD11R,0.482600X0.279400*%
%TD*%
%TA.AperFunction,SMDPad,CuDef*%
%ADD12R,0.330200X0.482600*%
%TD*%
%TA.AperFunction,ComponentPad*%
%ADD13R,1.700000X1.700000*%
%TD*%
%TA.AperFunction,ComponentPad*%
%ADD14O,1.700000X1.700000*%
%TD*%
%TA.AperFunction,ViaPad*%
%ADD15C,0.600000*%
%TD*%
%TA.AperFunction,Conductor*%
%ADD16C,0.400000*%
%TD*%
%TA.AperFunction,Conductor*%
%ADD17C,0.200000*%
%TD*%
%TA.AperFunction,Conductor*%
%ADD18C,0.250000*%
%TD*%
%TA.AperFunction,Conductor*%
%ADD19C,0.500000*%
%TD*%
%TA.AperFunction,Conductor*%
%ADD20C,0.300000*%
%TD*%
G04 APERTURE END LIST*
D10*
%TO.P,J1,1,1*%
%TO.N,+5V*%
X46800000Y-56200000D03*
D11*
%TO.P,J1,2,2*%
%TO.N,/1D*%
X46800000Y-56796800D03*
%TO.P,J1,3,3*%
%TO.N,/1C*%
X46800000Y-57203200D03*
D10*
%TO.P,J1,4,4*%
%TO.N,GND*%
X46800000Y-57800000D03*
%TO.P,J1,5,5*%
%TO.N,+5V*%
X49200000Y-56200000D03*
D11*
%TO.P,J1,6,6*%
%TO.N,/1A*%
X49200000Y-56796800D03*
%TO.P,J1,7,7*%
%TO.N,/1B*%
X49200000Y-57203200D03*
D10*
%TO.P,J1,8,8*%
%TO.N,GND*%
X49200000Y-57800000D03*
D12*
%TO.P,J1,9*%
%TO.N,N/C*%
X46723800Y-55469997D03*
%TO.P,J1,10*%
X46723800Y-58530003D03*
%TO.P,J1,11*%
X49276200Y-55469997D03*
%TO.P,J1,12*%
X49276200Y-58530003D03*
%TD*%
D13*
%TO.P,J3,1,Pin_1*%
%TO.N,+5V*%
X54350000Y-39000000D03*
D14*
%TO.P,J3,2,Pin_2*%
%TO.N,/1A*%
X51810000Y-39000000D03*
%TO.P,J3,3,Pin_3*%
%TO.N,/1B*%
X49270000Y-39000000D03*
%TO.P,J3,4,Pin_4*%
%TO.N,/1C*%
X46730000Y-39000000D03*
%TO.P,J3,5,Pin_5*%
%TO.N,/1D*%
X44190000Y-39000000D03*
%TO.P,J3,6,Pin_6*%
%TO.N,GND*%
X41650000Y-39000000D03*
%TD*%
D15*
%TO.N,+5V*%
X46600000Y-48800000D03*
X49400000Y-48900000D03*
%TO.N,GND*%
X47300000Y-60300000D03*
%TO.N,+5V*%
X49300000Y-52100000D03*
X46700000Y-53450000D03*
%TO.N,/1B*%
X48151255Y-58577275D03*
%TO.N,/1A*%
X48700000Y-53950000D03*
%TO.N,/1D*%
X47214043Y-54165513D03*
%TO.N,/1C*%
X47480001Y-57250649D03*
%TD*%
D16*
%TO.N,+5V*%
X49391800Y-52191800D02*
X49391800Y-54302136D01*
X49391800Y-54302136D02*
X48800000Y-54893936D01*
X48800000Y-54893936D02*
X48800000Y-55900000D01*
X49100000Y-56200000D02*
X49200000Y-56200000D01*
X48800000Y-55900000D02*
X49100000Y-56200000D01*
D17*
%TO.N,/1D*%
X47214043Y-54165513D02*
X47438900Y-54390370D01*
X47136600Y-56796800D02*
X46800000Y-56796800D01*
X47438900Y-54390370D02*
X47438900Y-56494500D01*
X47438900Y-56494500D02*
X47136600Y-56796800D01*
D18*
%TO.N,+5V*%
X46700000Y-53450000D02*
X46689043Y-53460957D01*
X46689043Y-53460957D02*
X46689043Y-54382976D01*
X46689043Y-54382976D02*
X47113900Y-54807833D01*
X47113900Y-54807833D02*
X47113900Y-55886100D01*
X47113900Y-55886100D02*
X46800000Y-56200000D01*
D17*
%TO.N,/1A*%
X48700000Y-53950000D02*
X48400000Y-54250000D01*
X48400000Y-54250000D02*
X48400000Y-56333400D01*
X48400000Y-56333400D02*
X48863400Y-56796800D01*
X48863400Y-56796800D02*
X49200000Y-56796800D01*
D16*
%TO.N,GND*%
X48080000Y-57800000D02*
X48080000Y-57002119D01*
X48080000Y-57002119D02*
X47900000Y-56822119D01*
X47900000Y-56822119D02*
X47900000Y-51300000D01*
X47900000Y-51300000D02*
X41650000Y-45050000D01*
X41650000Y-45050000D02*
X41650000Y-39000000D01*
D19*
%TO.N,+5V*%
X49400000Y-48900000D02*
X46700000Y-48900000D01*
X46700000Y-48900000D02*
X46600000Y-48800000D01*
D18*
X49300000Y-52100000D02*
X49391800Y-52191800D01*
D16*
%TO.N,GND*%
X46800000Y-57800000D02*
X46900000Y-57900000D01*
X46900000Y-57900000D02*
X47980000Y-57900000D01*
X47980000Y-57900000D02*
X48080000Y-57800000D01*
X47300000Y-60300000D02*
X47300000Y-58580000D01*
X47300000Y-58580000D02*
X48080000Y-57800000D01*
D20*
X49200000Y-57800000D02*
X48701255Y-58298745D01*
X48701255Y-58298745D02*
X48701255Y-58898745D01*
X48701255Y-58898745D02*
X47300000Y-60300000D01*
D17*
%TO.N,/1B*%
X48151255Y-58577275D02*
X48151255Y-58294431D01*
X48863400Y-57203200D02*
X49200000Y-57203200D01*
X48151255Y-58294431D02*
X48758700Y-57686986D01*
X48758700Y-57686986D02*
X48758700Y-57307900D01*
X48758700Y-57307900D02*
X48863400Y-57203200D01*
%TO.N,/1C*%
X47184049Y-57250649D02*
X47136600Y-57203200D01*
X47480001Y-57250649D02*
X47184049Y-57250649D01*
X47136600Y-57203200D02*
X46800000Y-57203200D01*
%TD*%
M02*
