%TF.GenerationSoftware,KiCad,Pcbnew,8.0.6*%
%TF.CreationDate,2025-08-30T15:46:51+10:00*%
%TF.ProjectId,CustomisableLEDStraight,43757374-6f6d-4697-9361-626c654c4544,rev?*%
%TF.SameCoordinates,Original*%
%TF.FileFunction,Legend,Top*%
%TF.FilePolarity,Positive*%
%FSLAX46Y46*%
G04 Gerber Fmt 4.6, Leading zero omitted, Abs format (unit mm)*
G04 Created by KiCad (PCBNEW 8.0.6) date 2025-08-30 15:46:51*
%MOMM*%
%LPD*%
G01*
G04 APERTURE LIST*
G04 Aperture macros list*
%AMRoundRect*
0 Rectangle with rounded corners*
0 $1 Rounding radius*
0 $2 $3 $4 $5 $6 $7 $8 $9 X,Y pos of 4 corners*
0 Add a 4 corners polygon primitive as box body*
4,1,4,$2,$3,$4,$5,$6,$7,$8,$9,$2,$3,0*
0 Add four circle primitives for the rounded corners*
1,1,$1+$1,$2,$3*
1,1,$1+$1,$4,$5*
1,1,$1+$1,$6,$7*
1,1,$1+$1,$8,$9*
0 Add four rect primitives between the rounded corners*
20,1,$1+$1,$2,$3,$4,$5,0*
20,1,$1+$1,$4,$5,$6,$7,0*
20,1,$1+$1,$6,$7,$8,$9,0*
20,1,$1+$1,$8,$9,$2,$3,0*%
G04 Aperture macros list end*
%ADD10C,0.120000*%
%ADD11C,0.100000*%
%ADD12R,5.000000X0.600000*%
%ADD13R,5.000000X1.200000*%
%ADD14R,10.000000X0.600000*%
%ADD15R,10.000000X1.200000*%
%ADD16RoundRect,0.225000X0.250000X-0.225000X0.250000X0.225000X-0.250000X0.225000X-0.250000X-0.225000X0*%
%ADD17R,3.400000X0.900000*%
%ADD18R,1.500000X0.800000*%
%ADD19RoundRect,0.200000X0.275000X-0.200000X0.275000X0.200000X-0.275000X0.200000X-0.275000X-0.200000X0*%
G04 APERTURE END LIST*
D10*
%TO.C,C3*%
X125890000Y-74340580D02*
X125890000Y-74059420D01*
X126910000Y-74340580D02*
X126910000Y-74059420D01*
%TO.C,C2*%
X85990000Y-74340580D02*
X85990000Y-74059420D01*
X87010000Y-74340580D02*
X87010000Y-74059420D01*
%TO.C,C1*%
X65990000Y-74340580D02*
X65990000Y-74059420D01*
X67010000Y-74340580D02*
X67010000Y-74059420D01*
D11*
%TO.C,D3*%
X87750000Y-72750000D02*
X92250000Y-72750000D01*
X87750000Y-76750000D02*
X87750000Y-72750000D01*
X88250000Y-77250000D02*
X87750000Y-76750000D01*
X92250000Y-72750000D02*
X92250000Y-77250000D01*
X92250000Y-77250000D02*
X88250000Y-77250000D01*
%TO.C,D2*%
X67850000Y-72750000D02*
X72350000Y-72750000D01*
X67850000Y-76750000D02*
X67850000Y-72750000D01*
X68350000Y-77250000D02*
X67850000Y-76750000D01*
X72350000Y-72750000D02*
X72350000Y-77250000D01*
X72350000Y-77250000D02*
X68350000Y-77250000D01*
%TO.C,D4*%
X107750000Y-72750000D02*
X112250000Y-72750000D01*
X107750000Y-76750000D02*
X107750000Y-72750000D01*
X108250000Y-77250000D02*
X107750000Y-76750000D01*
X112250000Y-72750000D02*
X112250000Y-77250000D01*
X112250000Y-77250000D02*
X108250000Y-77250000D01*
D10*
%TO.C,R1*%
X46627500Y-76237258D02*
X46627500Y-75762742D01*
X47672500Y-76237258D02*
X47672500Y-75762742D01*
D11*
%TO.C,D1*%
X47750000Y-72750000D02*
X52250000Y-72750000D01*
X47750000Y-76750000D02*
X47750000Y-72750000D01*
X48250000Y-77250000D02*
X47750000Y-76750000D01*
X52250000Y-72750000D02*
X52250000Y-77250000D01*
X52250000Y-77250000D02*
X48250000Y-77250000D01*
%TO.C,D5*%
X127750000Y-72750000D02*
X132250000Y-72750000D01*
X127750000Y-76750000D02*
X127750000Y-72750000D01*
X128250000Y-77250000D02*
X127750000Y-76750000D01*
X132250000Y-72750000D02*
X132250000Y-77250000D01*
X132250000Y-77250000D02*
X128250000Y-77250000D01*
%TD*%
%LPC*%
D12*
%TO.C,J6*%
X137000000Y-72200000D03*
D13*
X137000000Y-73600000D03*
X137000000Y-75300000D03*
D12*
X137000000Y-76700000D03*
X137000000Y-77800000D03*
%TD*%
D14*
%TO.C,J5*%
X120000000Y-72200000D03*
D15*
X120000000Y-73600000D03*
X120000000Y-75300000D03*
D14*
X120000000Y-76700000D03*
X120000000Y-77800000D03*
%TD*%
D16*
%TO.C,C3*%
X126400000Y-74975000D03*
X126400000Y-73425000D03*
%TD*%
%TO.C,C2*%
X86500000Y-74975000D03*
X86500000Y-73425000D03*
%TD*%
%TO.C,C1*%
X66500000Y-74975000D03*
X66500000Y-73425000D03*
%TD*%
D14*
%TO.C,J4*%
X100000000Y-77800000D03*
X100000000Y-76700000D03*
D15*
X100000000Y-75300000D03*
X100000000Y-73600000D03*
D14*
X100000000Y-72200000D03*
%TD*%
%TO.C,J3*%
X80000000Y-77800000D03*
X80000000Y-76700000D03*
D15*
X80000000Y-75300000D03*
X80000000Y-73600000D03*
D14*
X80000000Y-72200000D03*
%TD*%
%TO.C,J2*%
X60000000Y-72200000D03*
D15*
X60000000Y-73600000D03*
X60000000Y-75300000D03*
D14*
X60000000Y-76700000D03*
X60000000Y-77800000D03*
%TD*%
D12*
%TO.C,J1*%
X43000000Y-77800000D03*
X43000000Y-76700000D03*
D13*
X43000000Y-75300000D03*
X43000000Y-73600000D03*
D12*
X43000000Y-72200000D03*
%TD*%
D17*
%TO.C,D3*%
X90000000Y-73700000D03*
D18*
X91250000Y-75000000D03*
D17*
X90000000Y-76300000D03*
D18*
X88750000Y-75000000D03*
%TD*%
D17*
%TO.C,D2*%
X70100000Y-73700000D03*
D18*
X71350000Y-75000000D03*
D17*
X70100000Y-76300000D03*
D18*
X68850000Y-75000000D03*
%TD*%
D17*
%TO.C,D4*%
X110000000Y-73700000D03*
D18*
X111250000Y-75000000D03*
D17*
X110000000Y-76300000D03*
D18*
X108750000Y-75000000D03*
%TD*%
D19*
%TO.C,R1*%
X47150000Y-76825000D03*
X47150000Y-75175000D03*
%TD*%
D17*
%TO.C,D1*%
X50000000Y-73700000D03*
D18*
X51250000Y-75000000D03*
D17*
X50000000Y-76300000D03*
D18*
X48750000Y-75000000D03*
%TD*%
D17*
%TO.C,D5*%
X130000000Y-73700000D03*
D18*
X131250000Y-75000000D03*
D17*
X130000000Y-76300000D03*
D18*
X128750000Y-75000000D03*
%TD*%
%LPD*%
M02*
