%TF.GenerationSoftware,KiCad,Pcbnew,8.0.6*%
%TF.CreationDate,2025-08-30T15:46:51+10:00*%
%TF.ProjectId,CustomisableLEDStraight,43757374-6f6d-4697-9361-626c654c4544,rev?*%
%TF.SameCoordinates,Original*%
%TF.FileFunction,Profile,NP*%
%FSLAX46Y46*%
G04 Gerber Fmt 4.6, Leading zero omitted, Abs format (unit mm)*
G04 Created by KiCad (PCBNEW 8.0.6) date 2025-08-30 15:46:51*
%MOMM*%
%LPD*%
G01*
G04 APERTURE LIST*
%TA.AperFunction,Profile*%
%ADD10C,0.050000*%
%TD*%
%TA.AperFunction,Profile*%
%ADD11C,0.100000*%
%TD*%
G04 APERTURE END LIST*
D10*
X50799999Y-70999999D02*
X69200002Y-71000000D01*
X89200002Y-71000000D02*
X70800000Y-71000000D01*
X109200002Y-71000000D02*
X90800000Y-71000000D01*
X129200002Y-71000000D02*
X110800000Y-71000000D01*
X140100000Y-71000000D02*
X130800000Y-71000000D01*
X130799998Y-79000000D02*
X140100000Y-79000000D01*
X110799998Y-79000000D02*
X129200000Y-79000000D01*
X90799998Y-79000000D02*
X109200000Y-79000000D01*
X70799998Y-79000000D02*
X89200000Y-79000000D01*
X50799998Y-79000000D02*
X69200000Y-79000000D01*
X40000000Y-79000000D02*
X49200000Y-79000000D01*
X49200000Y-79000000D02*
G75*
G02*
X50799998Y-79000000I799999J-1000001D01*
G01*
X69200000Y-79000000D02*
G75*
G02*
X70799998Y-79000000I799999J-1000001D01*
G01*
X89200000Y-79000000D02*
G75*
G02*
X90799998Y-79000000I799999J-1000001D01*
G01*
X109200000Y-79000000D02*
G75*
G02*
X110799998Y-79000000I799999J-1000001D01*
G01*
X129200000Y-79000000D02*
G75*
G02*
X130799998Y-79000000I799999J-1000001D01*
G01*
X130800000Y-71000000D02*
G75*
G02*
X129200002Y-71000000I-799999J1000001D01*
G01*
X110800000Y-71000000D02*
G75*
G02*
X109200002Y-71000000I-799999J1000001D01*
G01*
X90800000Y-71000000D02*
G75*
G02*
X89200002Y-71000000I-799999J1000001D01*
G01*
X70800000Y-71000000D02*
G75*
G02*
X69200002Y-71000000I-799999J1000001D01*
G01*
X50799999Y-70999999D02*
G75*
G02*
X49200001Y-70999999I-799999J999999D01*
G01*
X49200000Y-71000000D02*
X40000000Y-71000000D01*
D11*
X40000000Y-79000000D02*
X40000000Y-71000000D01*
X140100000Y-71000000D02*
X140100000Y-79000000D01*
M02*
