%TF.GenerationSoftware,KiCad,Pcbnew,8.0.6*%
%TF.CreationDate,2025-08-30T15:46:51+10:00*%
%TF.ProjectId,CustomisableLEDStraight,43757374-6f6d-4697-9361-626c654c4544,rev?*%
%TF.SameCoordinates,Original*%
%TF.FileFunction,Copper,L1,Top*%
%TF.FilePolarity,Positive*%
%FSLAX46Y46*%
G04 Gerber Fmt 4.6, Leading zero omitted, Abs format (unit mm)*
G04 Created by KiCad (PCBNEW 8.0.6) date 2025-08-30 15:46:51*
%MOMM*%
%LPD*%
G01*
G04 APERTURE LIST*
G04 Aperture macros list*
%AMRoundRect*
0 Rectangle with rounded corners*
0 $1 Rounding radius*
0 $2 $3 $4 $5 $6 $7 $8 $9 X,Y pos of 4 corners*
0 Add a 4 corners polygon primitive as box body*
4,1,4,$2,$3,$4,$5,$6,$7,$8,$9,$2,$3,0*
0 Add four circle primitives for the rounded corners*
1,1,$1+$1,$2,$3*
1,1,$1+$1,$4,$5*
1,1,$1+$1,$6,$7*
1,1,$1+$1,$8,$9*
0 Add four rect primitives between the rounded corners*
20,1,$1+$1,$2,$3,$4,$5,0*
20,1,$1+$1,$4,$5,$6,$7,0*
20,1,$1+$1,$6,$7,$8,$9,0*
20,1,$1+$1,$8,$9,$2,$3,0*%
G04 Aperture macros list end*
%TA.AperFunction,SMDPad,CuDef*%
%ADD10R,5.000000X0.600000*%
%TD*%
%TA.AperFunction,SMDPad,CuDef*%
%ADD11R,5.000000X1.200000*%
%TD*%
%TA.AperFunction,SMDPad,CuDef*%
%ADD12R,10.000000X0.600000*%
%TD*%
%TA.AperFunction,SMDPad,CuDef*%
%ADD13R,10.000000X1.200000*%
%TD*%
%TA.AperFunction,SMDPad,CuDef*%
%ADD14RoundRect,0.225000X0.250000X-0.225000X0.250000X0.225000X-0.250000X0.225000X-0.250000X-0.225000X0*%
%TD*%
%TA.AperFunction,SMDPad,CuDef*%
%ADD15R,3.400000X0.900000*%
%TD*%
%TA.AperFunction,SMDPad,CuDef*%
%ADD16R,1.500000X0.800000*%
%TD*%
%TA.AperFunction,SMDPad,CuDef*%
%ADD17RoundRect,0.200000X0.275000X-0.200000X0.275000X0.200000X-0.275000X0.200000X-0.275000X-0.200000X0*%
%TD*%
%TA.AperFunction,ViaPad*%
%ADD18C,0.600000*%
%TD*%
%TA.AperFunction,Conductor*%
%ADD19C,1.000000*%
%TD*%
%TA.AperFunction,Conductor*%
%ADD20C,0.400000*%
%TD*%
%TA.AperFunction,Conductor*%
%ADD21C,0.800000*%
%TD*%
%TA.AperFunction,Conductor*%
%ADD22C,0.600000*%
%TD*%
%TA.AperFunction,Conductor*%
%ADD23C,0.300000*%
%TD*%
%TA.AperFunction,Conductor*%
%ADD24C,0.500000*%
%TD*%
G04 APERTURE END LIST*
D10*
%TO.P,J6,1,Pin_1*%
%TO.N,/CH2*%
X137000000Y-72200000D03*
D11*
%TO.P,J6,2,Pin_2*%
%TO.N,+5V*%
X137000000Y-73600000D03*
%TO.P,J6,3,Pin_3*%
%TO.N,GND*%
X137000000Y-75300000D03*
D10*
%TO.P,J6,4,Pin_4*%
%TO.N,/CH1-OUT*%
X137000000Y-76700000D03*
%TO.P,J6,5,Pin_5*%
%TO.N,/CH3*%
X137000000Y-77800000D03*
%TD*%
D12*
%TO.P,J5,1,Pin_1*%
%TO.N,/CH2*%
X120000000Y-72200000D03*
D13*
%TO.P,J5,2,Pin_2*%
%TO.N,+5V*%
X120000000Y-73600000D03*
%TO.P,J5,3,Pin_3*%
%TO.N,GND*%
X120000000Y-75300000D03*
D12*
%TO.P,J5,4,Pin_4*%
%TO.N,/4-5*%
X120000000Y-76700000D03*
%TO.P,J5,5,Pin_5*%
%TO.N,/CH3*%
X120000000Y-77800000D03*
%TD*%
D14*
%TO.P,C3,1*%
%TO.N,GND*%
X126400000Y-74975000D03*
%TO.P,C3,2*%
%TO.N,+5V*%
X126400000Y-73425000D03*
%TD*%
%TO.P,C2,1*%
%TO.N,GND*%
X86500000Y-74975000D03*
%TO.P,C2,2*%
%TO.N,+5V*%
X86500000Y-73425000D03*
%TD*%
%TO.P,C1,1*%
%TO.N,GND*%
X66500000Y-74975000D03*
%TO.P,C1,2*%
%TO.N,+5V*%
X66500000Y-73425000D03*
%TD*%
D12*
%TO.P,J4,5,Pin_5*%
%TO.N,/CH3*%
X100000000Y-77800000D03*
%TO.P,J4,4,Pin_4*%
%TO.N,/3-4*%
X100000000Y-76700000D03*
D13*
%TO.P,J4,3,Pin_3*%
%TO.N,GND*%
X100000000Y-75300000D03*
%TO.P,J4,2,Pin_2*%
%TO.N,+5V*%
X100000000Y-73600000D03*
D12*
%TO.P,J4,1,Pin_1*%
%TO.N,/CH2*%
X100000000Y-72200000D03*
%TD*%
%TO.P,J3,5,Pin_5*%
%TO.N,/CH3*%
X80000000Y-77800000D03*
%TO.P,J3,4,Pin_4*%
%TO.N,/2-3*%
X80000000Y-76700000D03*
D13*
%TO.P,J3,3,Pin_3*%
%TO.N,GND*%
X80000000Y-75300000D03*
%TO.P,J3,2,Pin_2*%
%TO.N,+5V*%
X80000000Y-73600000D03*
D12*
%TO.P,J3,1,Pin_1*%
%TO.N,/CH2*%
X80000000Y-72200000D03*
%TD*%
%TO.P,J2,1,Pin_1*%
%TO.N,/CH2*%
X60000000Y-72200000D03*
D13*
%TO.P,J2,2,Pin_2*%
%TO.N,+5V*%
X60000000Y-73600000D03*
%TO.P,J2,3,Pin_3*%
%TO.N,GND*%
X60000000Y-75300000D03*
D12*
%TO.P,J2,4,Pin_4*%
%TO.N,/1-2*%
X60000000Y-76700000D03*
%TO.P,J2,5,Pin_5*%
%TO.N,/CH3*%
X60000000Y-77800000D03*
%TD*%
D10*
%TO.P,J1,5,Pin_5*%
%TO.N,/CH3*%
X43000000Y-77800000D03*
%TO.P,J1,4,Pin_4*%
%TO.N,/CH1-IN*%
X43000000Y-76700000D03*
D11*
%TO.P,J1,3,Pin_3*%
%TO.N,GND*%
X43000000Y-75300000D03*
%TO.P,J1,2,Pin_2*%
%TO.N,+5V*%
X43000000Y-73600000D03*
D10*
%TO.P,J1,1,Pin_1*%
%TO.N,/CH2*%
X43000000Y-72200000D03*
%TD*%
D15*
%TO.P,D3,1,VDD*%
%TO.N,+5V*%
X90000000Y-73700000D03*
D16*
%TO.P,D3,2,DOUT*%
%TO.N,/3-4*%
X91250000Y-75000000D03*
D15*
%TO.P,D3,3,VSS*%
%TO.N,GND*%
X90000000Y-76300000D03*
D16*
%TO.P,D3,4,DIN*%
%TO.N,/2-3*%
X88750000Y-75000000D03*
%TD*%
D15*
%TO.P,D2,1,VDD*%
%TO.N,+5V*%
X70100000Y-73700000D03*
D16*
%TO.P,D2,2,DOUT*%
%TO.N,/2-3*%
X71350000Y-75000000D03*
D15*
%TO.P,D2,3,VSS*%
%TO.N,GND*%
X70100000Y-76300000D03*
D16*
%TO.P,D2,4,DIN*%
%TO.N,/1-2*%
X68850000Y-75000000D03*
%TD*%
D15*
%TO.P,D4,1,VDD*%
%TO.N,+5V*%
X110000000Y-73700000D03*
D16*
%TO.P,D4,2,DOUT*%
%TO.N,/4-5*%
X111250000Y-75000000D03*
D15*
%TO.P,D4,3,VSS*%
%TO.N,GND*%
X110000000Y-76300000D03*
D16*
%TO.P,D4,4,DIN*%
%TO.N,/3-4*%
X108750000Y-75000000D03*
%TD*%
D17*
%TO.P,R1,1*%
%TO.N,/CH1-IN*%
X47150000Y-76825000D03*
%TO.P,R1,2*%
%TO.N,Net-(D1-DIN)*%
X47150000Y-75175000D03*
%TD*%
D15*
%TO.P,D1,1,VDD*%
%TO.N,+5V*%
X50000000Y-73700000D03*
D16*
%TO.P,D1,2,DOUT*%
%TO.N,/1-2*%
X51250000Y-75000000D03*
D15*
%TO.P,D1,3,VSS*%
%TO.N,GND*%
X50000000Y-76300000D03*
D16*
%TO.P,D1,4,DIN*%
%TO.N,Net-(D1-DIN)*%
X48750000Y-75000000D03*
%TD*%
D15*
%TO.P,D5,1,VDD*%
%TO.N,+5V*%
X130000000Y-73700000D03*
D16*
%TO.P,D5,2,DOUT*%
%TO.N,/CH1-OUT*%
X131250000Y-75000000D03*
D15*
%TO.P,D5,3,VSS*%
%TO.N,GND*%
X130000000Y-76300000D03*
D16*
%TO.P,D5,4,DIN*%
%TO.N,/4-5*%
X128750000Y-75000000D03*
%TD*%
D18*
%TO.N,GND*%
X85500000Y-75300000D03*
X45900000Y-75300000D03*
X52800000Y-76800000D03*
X54300000Y-75100000D03*
X65500000Y-75300000D03*
X74300000Y-75000000D03*
X72800000Y-76900000D03*
X92900000Y-76800000D03*
X94300000Y-75000000D03*
X105800000Y-75300000D03*
X114300000Y-74900000D03*
X112800000Y-76800000D03*
X133900000Y-75000000D03*
X133000000Y-76900000D03*
%TD*%
D19*
%TO.N,GND*%
X120000000Y-75300000D02*
X126075000Y-75300000D01*
X126075000Y-75300000D02*
X126400000Y-74975000D01*
D20*
%TO.N,/4-5*%
X126600000Y-76700000D02*
X126650000Y-76700000D01*
X126650000Y-76700000D02*
X128350000Y-75000000D01*
X128350000Y-75000000D02*
X128750000Y-75000000D01*
%TO.N,/2-3*%
X88750000Y-75000000D02*
X88300000Y-75000000D01*
X86600000Y-76700000D02*
X80000000Y-76700000D01*
X88300000Y-75000000D02*
X86600000Y-76700000D01*
D19*
%TO.N,GND*%
X85500000Y-75300000D02*
X86275000Y-75300000D01*
X80000000Y-75300000D02*
X85500000Y-75300000D01*
X86275000Y-75300000D02*
X86600000Y-74975000D01*
D20*
%TO.N,/2-3*%
X71350000Y-75000000D02*
X72400000Y-75000000D01*
X72400000Y-75000000D02*
X74100000Y-76700000D01*
X74100000Y-76700000D02*
X80000000Y-76700000D01*
%TO.N,/1-2*%
X60000000Y-76700000D02*
X66600000Y-76700000D01*
X66600000Y-76700000D02*
X68300000Y-75000000D01*
X68300000Y-75000000D02*
X68850000Y-75000000D01*
D19*
%TO.N,GND*%
X60000000Y-75300000D02*
X66175000Y-75300000D01*
X66175000Y-75300000D02*
X66500000Y-74975000D01*
D21*
X43000000Y-75300000D02*
X45900000Y-75300000D01*
D22*
X52300000Y-76300000D02*
X52800000Y-76800000D01*
X50000000Y-76300000D02*
X52300000Y-76300000D01*
D19*
X54500000Y-75300000D02*
X54300000Y-75100000D01*
X60000000Y-75300000D02*
X54500000Y-75300000D01*
D23*
%TO.N,/1-2*%
X51250000Y-75000000D02*
X52600000Y-75000000D01*
X52600000Y-75000000D02*
X54300000Y-76700000D01*
X54300000Y-76700000D02*
X60000000Y-76700000D01*
%TO.N,Net-(D1-DIN)*%
X47000000Y-75175000D02*
X48575000Y-75175000D01*
X48575000Y-75175000D02*
X48750000Y-75000000D01*
%TO.N,/CH1-IN*%
X43000000Y-76700000D02*
X46875000Y-76700000D01*
X46875000Y-76700000D02*
X47000000Y-76825000D01*
D19*
%TO.N,GND*%
X74600000Y-75300000D02*
X74300000Y-75000000D01*
X80000000Y-75300000D02*
X74600000Y-75300000D01*
D22*
X72200000Y-76300000D02*
X72800000Y-76900000D01*
X70100000Y-76300000D02*
X72200000Y-76300000D01*
X92400000Y-76300000D02*
X92900000Y-76800000D01*
X90000000Y-76300000D02*
X92400000Y-76300000D01*
D20*
%TO.N,/3-4*%
X91250000Y-75000000D02*
X92600000Y-75000000D01*
X92600000Y-75000000D02*
X94300000Y-76700000D01*
X94300000Y-76700000D02*
X100000000Y-76700000D01*
D19*
%TO.N,GND*%
X94600000Y-75300000D02*
X94300000Y-75000000D01*
X100000000Y-75300000D02*
X94600000Y-75300000D01*
X100000000Y-75300000D02*
X105800000Y-75300000D01*
X114700000Y-75300000D02*
X114300000Y-74900000D01*
X120000000Y-75300000D02*
X114700000Y-75300000D01*
D20*
%TO.N,/4-5*%
X111250000Y-75000000D02*
X112800000Y-75000000D01*
X114500000Y-76700000D02*
X120000000Y-76700000D01*
X112800000Y-75000000D02*
X114500000Y-76700000D01*
D19*
%TO.N,GND*%
X112300000Y-76300000D02*
X112800000Y-76800000D01*
X110000000Y-76300000D02*
X112300000Y-76300000D01*
X134200000Y-75300000D02*
X133900000Y-75000000D01*
X137000000Y-75300000D02*
X134200000Y-75300000D01*
D24*
X132400000Y-76300000D02*
X133000000Y-76900000D01*
X130000000Y-76300000D02*
X132400000Y-76300000D01*
D20*
%TO.N,/CH1-OUT*%
X131250000Y-75000000D02*
X132400000Y-75000000D01*
X132400000Y-75000000D02*
X134100000Y-76700000D01*
X134100000Y-76700000D02*
X137000000Y-76700000D01*
%TO.N,/CH2*%
X120000000Y-72200000D02*
X137000000Y-72200000D01*
%TO.N,/CH3*%
X100000000Y-77800000D02*
X120000000Y-77800000D01*
%TO.N,/CH2*%
X100000000Y-72200000D02*
X120000000Y-72200000D01*
%TO.N,/CH3*%
X80000000Y-77800000D02*
X100000000Y-77800000D01*
%TO.N,/CH2*%
X80000000Y-72200000D02*
X100000000Y-72200000D01*
%TO.N,/CH3*%
X43000000Y-77800000D02*
X60000000Y-77800000D01*
%TO.N,/CH2*%
X60000000Y-72200000D02*
X43000000Y-72200000D01*
X60000000Y-72200000D02*
X80000000Y-72200000D01*
%TO.N,/CH3*%
X60000000Y-77800000D02*
X80000000Y-77800000D01*
%TO.N,/3-4*%
X100000000Y-76700000D02*
X106200000Y-76700000D01*
X106200000Y-76700000D02*
X107900000Y-75000000D01*
X107900000Y-75000000D02*
X108750000Y-75000000D01*
%TO.N,/CH3*%
X120000000Y-77800000D02*
X120100000Y-77900000D01*
X136900000Y-77900000D02*
X137000000Y-77800000D01*
X120100000Y-77900000D02*
X136900000Y-77900000D01*
D24*
%TO.N,/4-5*%
X120000000Y-76700000D02*
X126600000Y-76700000D01*
%TO.N,GND*%
X130000000Y-76300000D02*
X128800000Y-76300000D01*
D19*
%TO.N,+5V*%
X137000000Y-73600000D02*
X130100000Y-73600000D01*
X130100000Y-73600000D02*
X130000000Y-73700000D01*
X120000000Y-73600000D02*
X129900000Y-73600000D01*
X129900000Y-73600000D02*
X130000000Y-73700000D01*
X120000000Y-73600000D02*
X110100000Y-73600000D01*
X110100000Y-73600000D02*
X110000000Y-73700000D01*
X100000000Y-73600000D02*
X109900000Y-73600000D01*
X109900000Y-73600000D02*
X110000000Y-73700000D01*
X100000000Y-73600000D02*
X90100000Y-73600000D01*
X90100000Y-73600000D02*
X90000000Y-73700000D01*
X80000000Y-73600000D02*
X89900000Y-73600000D01*
X89900000Y-73600000D02*
X90000000Y-73700000D01*
X80000000Y-73600000D02*
X70200000Y-73600000D01*
X70200000Y-73600000D02*
X70100000Y-73700000D01*
X60000000Y-73600000D02*
X70000000Y-73600000D01*
X70000000Y-73600000D02*
X70100000Y-73700000D01*
X60000000Y-73600000D02*
X50100000Y-73600000D01*
X50100000Y-73600000D02*
X50000000Y-73700000D01*
X43000000Y-73600000D02*
X49900000Y-73600000D01*
X49900000Y-73600000D02*
X50000000Y-73700000D01*
D22*
%TO.N,GND*%
X89100000Y-76300000D02*
X90000000Y-76300000D01*
D19*
X89900000Y-76200000D02*
X90000000Y-76300000D01*
D22*
X90000000Y-76300000D02*
X90100000Y-76400000D01*
%TD*%
M02*
