%TF.GenerationSoftware,KiCad,Pcbnew,8.0.6*%
%TF.CreationDate,2025-08-30T15:46:51+10:00*%
%TF.ProjectId,CustomisableLEDStraight,43757374-6f6d-4697-9361-626c654c4544,rev?*%
%TF.SameCoordinates,Original*%
%TF.FileFunction,Copper,L2,Bot*%
%TF.FilePolarity,Positive*%
%FSLAX46Y46*%
G04 Gerber Fmt 4.6, Leading zero omitted, Abs format (unit mm)*
G04 Created by KiCad (PCBNEW 8.0.6) date 2025-08-30 15:46:51*
%MOMM*%
%LPD*%
G01*
G04 APERTURE LIST*
%TA.AperFunction,ViaPad*%
%ADD10C,0.600000*%
%TD*%
G04 APERTURE END LIST*
D10*
%TO.N,GND*%
X85500000Y-75300000D03*
X45900000Y-75300000D03*
X52800000Y-76800000D03*
X54300000Y-75100000D03*
X65500000Y-75300000D03*
X74300000Y-75000000D03*
X72800000Y-76900000D03*
X92900000Y-76800000D03*
X94300000Y-75000000D03*
X105800000Y-75300000D03*
X114300000Y-74900000D03*
X112800000Y-76800000D03*
X133900000Y-75000000D03*
X133000000Y-76900000D03*
%TD*%
%TA.AperFunction,Conductor*%
%TO.N,GND*%
G36*
X69068461Y-71518129D02*
G01*
X69187862Y-71589669D01*
X69269144Y-71624500D01*
X69409118Y-71684481D01*
X69641118Y-71748663D01*
X69879644Y-71781048D01*
X70120358Y-71781048D01*
X70358884Y-71748663D01*
X70590884Y-71684481D01*
X70812140Y-71589669D01*
X70931540Y-71518130D01*
X70995271Y-71500500D01*
X89004731Y-71500500D01*
X89068461Y-71518130D01*
X89187862Y-71589669D01*
X89269144Y-71624500D01*
X89409118Y-71684481D01*
X89641118Y-71748663D01*
X89879644Y-71781048D01*
X90120358Y-71781048D01*
X90358884Y-71748663D01*
X90590884Y-71684481D01*
X90812140Y-71589669D01*
X90931540Y-71518130D01*
X90995271Y-71500500D01*
X109004731Y-71500500D01*
X109068461Y-71518130D01*
X109187862Y-71589669D01*
X109269144Y-71624500D01*
X109409118Y-71684481D01*
X109641118Y-71748663D01*
X109879644Y-71781048D01*
X110120358Y-71781048D01*
X110358884Y-71748663D01*
X110590884Y-71684481D01*
X110812140Y-71589669D01*
X110931540Y-71518130D01*
X110995271Y-71500500D01*
X129004731Y-71500500D01*
X129068461Y-71518130D01*
X129187862Y-71589669D01*
X129269144Y-71624500D01*
X129409118Y-71684481D01*
X129641118Y-71748663D01*
X129879644Y-71781048D01*
X130120358Y-71781048D01*
X130358884Y-71748663D01*
X130590884Y-71684481D01*
X130812140Y-71589669D01*
X130931540Y-71518130D01*
X130995271Y-71500500D01*
X139376000Y-71500500D01*
X139443039Y-71520185D01*
X139488794Y-71572989D01*
X139500000Y-71624500D01*
X139500000Y-78375500D01*
X139480315Y-78442539D01*
X139427511Y-78488294D01*
X139376000Y-78499500D01*
X130995269Y-78499500D01*
X130931538Y-78481869D01*
X130812138Y-78410331D01*
X130812137Y-78410330D01*
X130590886Y-78315520D01*
X130590883Y-78315519D01*
X130358883Y-78251337D01*
X130120356Y-78218952D01*
X129879642Y-78218952D01*
X129641114Y-78251337D01*
X129409114Y-78315519D01*
X129409111Y-78315520D01*
X129187860Y-78410330D01*
X129187859Y-78410331D01*
X129068460Y-78481869D01*
X129004729Y-78499500D01*
X110995269Y-78499500D01*
X110931538Y-78481869D01*
X110812138Y-78410331D01*
X110812137Y-78410330D01*
X110590886Y-78315520D01*
X110590883Y-78315519D01*
X110358883Y-78251337D01*
X110120356Y-78218952D01*
X109879642Y-78218952D01*
X109641114Y-78251337D01*
X109409114Y-78315519D01*
X109409111Y-78315520D01*
X109187860Y-78410330D01*
X109187859Y-78410331D01*
X109068460Y-78481869D01*
X109004729Y-78499500D01*
X90995269Y-78499500D01*
X90931538Y-78481869D01*
X90812138Y-78410331D01*
X90812137Y-78410330D01*
X90590886Y-78315520D01*
X90590883Y-78315519D01*
X90358883Y-78251337D01*
X90120356Y-78218952D01*
X89879642Y-78218952D01*
X89641114Y-78251337D01*
X89409114Y-78315519D01*
X89409111Y-78315520D01*
X89187860Y-78410330D01*
X89187859Y-78410331D01*
X89068460Y-78481869D01*
X89004729Y-78499500D01*
X70995269Y-78499500D01*
X70931538Y-78481869D01*
X70812138Y-78410331D01*
X70812137Y-78410330D01*
X70590886Y-78315520D01*
X70590883Y-78315519D01*
X70358883Y-78251337D01*
X70120356Y-78218952D01*
X69879642Y-78218952D01*
X69641114Y-78251337D01*
X69409114Y-78315519D01*
X69409111Y-78315520D01*
X69187860Y-78410330D01*
X69187859Y-78410331D01*
X69068460Y-78481869D01*
X69004729Y-78499500D01*
X50995269Y-78499500D01*
X50931538Y-78481869D01*
X50812138Y-78410331D01*
X50812137Y-78410330D01*
X50590886Y-78315520D01*
X50590883Y-78315519D01*
X50358883Y-78251337D01*
X50120356Y-78218952D01*
X49879642Y-78218952D01*
X49641114Y-78251337D01*
X49409114Y-78315519D01*
X49409111Y-78315520D01*
X49187860Y-78410330D01*
X49187859Y-78410331D01*
X49068460Y-78481869D01*
X49004729Y-78499500D01*
X40624500Y-78499500D01*
X40557461Y-78479815D01*
X40511706Y-78427011D01*
X40500500Y-78375500D01*
X40500500Y-71624500D01*
X40520185Y-71557461D01*
X40572989Y-71511706D01*
X40624500Y-71500500D01*
X49004732Y-71500500D01*
X49068462Y-71518130D01*
X49187861Y-71589668D01*
X49409117Y-71684480D01*
X49641117Y-71748662D01*
X49879643Y-71781047D01*
X50120357Y-71781047D01*
X50358883Y-71748662D01*
X50590883Y-71684480D01*
X50812139Y-71589668D01*
X50931538Y-71518129D01*
X50995269Y-71500499D01*
X69004731Y-71500499D01*
X69068461Y-71518129D01*
G37*
%TD.AperFunction*%
%TD*%
M02*
