M48
; DRILL file {KiCad 8.0.6} date 2025-03-29T22:49:51+1100
; FORMAT={-:-/ absolute / inch / decimal}
; #@! TF.CreationDate,2025-03-29T22:49:51+11:00
; #@! TF.GenerationSoftware,Kicad,Pcbnew,8.0.6
; #@! TF.FileFunction,Plated,1,2,PTH
FMAT,2
INCH
; #@! TA.AperFunction,Plated,PTH,ViaDrill
T1C0.0118
%
G90
G05
T1
X1.6457Y-3.0118
X1.6929Y-2.8425
X1.6929Y-2.9724
X1.7657Y-2.8602
X2.0591Y-3.0157
X2.248Y-2.8976
X2.7126Y-3.0157
X2.9213Y-2.9016
X3.374Y-3.0197
X4.0394Y-3.0197
X4.1614Y-2.8937
X4.685Y-3.0157
X4.8307Y-2.8976
X5.2205Y-3.0197
X5.2819Y-2.8484
X5.315Y-2.9528
X5.3268Y-3.0768
X5.3346Y-3.0335
X5.3701Y-2.8465
X5.3937Y-2.9528
X5.3937Y-3.0039
X5.4409Y-3.0
M30
