%TF.GenerationSoftware,KiCad,Pcbnew,8.0.6*%
%TF.CreationDate,2025-03-29T22:49:51+11:00*%
%TF.ProjectId,5050_16mm,35303530-5f31-4366-9d6d-2e6b69636164,rev?*%
%TF.SameCoordinates,Original*%
%TF.FileFunction,Soldermask,Top*%
%TF.FilePolarity,Negative*%
%FSLAX46Y46*%
G04 Gerber Fmt 4.6, Leading zero omitted, Abs format (unit mm)*
G04 Created by KiCad (PCBNEW 8.0.6) date 2025-03-29 22:49:51*
%MOMM*%
%LPD*%
G01*
G04 APERTURE LIST*
G04 Aperture macros list*
%AMRoundRect*
0 Rectangle with rounded corners*
0 $1 Rounding radius*
0 $2 $3 $4 $5 $6 $7 $8 $9 X,Y pos of 4 corners*
0 Add a 4 corners polygon primitive as box body*
4,1,4,$2,$3,$4,$5,$6,$7,$8,$9,$2,$3,0*
0 Add four circle primitives for the rounded corners*
1,1,$1+$1,$2,$3*
1,1,$1+$1,$4,$5*
1,1,$1+$1,$6,$7*
1,1,$1+$1,$8,$9*
0 Add four rect primitives between the rounded corners*
20,1,$1+$1,$2,$3,$4,$5,0*
20,1,$1+$1,$4,$5,$6,$7,0*
20,1,$1+$1,$6,$7,$8,$9,0*
20,1,$1+$1,$8,$9,$2,$3,0*%
G04 Aperture macros list end*
%ADD10RoundRect,0.225000X-0.225000X-0.250000X0.225000X-0.250000X0.225000X0.250000X-0.225000X0.250000X0*%
%ADD11R,0.482600X0.584200*%
%ADD12R,0.482600X0.279400*%
%ADD13R,0.330200X0.482600*%
%ADD14RoundRect,0.225000X0.225000X0.250000X-0.225000X0.250000X-0.225000X-0.250000X0.225000X-0.250000X0*%
%ADD15RoundRect,0.090000X-0.660000X-0.360000X0.660000X-0.360000X0.660000X0.360000X-0.660000X0.360000X0*%
%ADD16RoundRect,0.200000X0.200000X0.275000X-0.200000X0.275000X-0.200000X-0.275000X0.200000X-0.275000X0*%
G04 APERTURE END LIST*
D10*
%TO.C,C4*%
X119925000Y-73600000D03*
X121475000Y-73600000D03*
%TD*%
D11*
%TO.C,J1*%
X41300000Y-74200000D03*
D12*
X41300000Y-74796800D03*
X41300000Y-75203200D03*
D11*
X41300000Y-75800000D03*
X43700000Y-74200000D03*
D12*
X43700000Y-74796800D03*
X43700000Y-75203200D03*
D11*
X43700000Y-75800000D03*
D13*
X41223800Y-73469997D03*
X41223800Y-76530003D03*
X43776200Y-73469997D03*
X43776200Y-76530003D03*
%TD*%
D14*
%TO.C,C3*%
X104350000Y-73500000D03*
X102800000Y-73500000D03*
%TD*%
D15*
%TO.C,D5*%
X112550000Y-73350000D03*
X112550000Y-76650000D03*
X117450000Y-76650000D03*
X117450000Y-73350000D03*
%TD*%
%TO.C,D3*%
X79216667Y-73350000D03*
X79216667Y-76650000D03*
X84116667Y-76650000D03*
X84116667Y-73350000D03*
%TD*%
D11*
%TO.C,J2*%
X136300000Y-74200000D03*
D12*
X136300000Y-74796800D03*
X136300000Y-75203200D03*
D11*
X136300000Y-75800000D03*
X138700000Y-74200000D03*
D12*
X138700000Y-74796800D03*
X138700000Y-75203200D03*
D11*
X138700000Y-75800000D03*
D13*
X136223800Y-73469997D03*
X136223800Y-76530003D03*
X138776200Y-73469997D03*
X138776200Y-76530003D03*
%TD*%
D15*
%TO.C,D6*%
X129216667Y-73350000D03*
X129216667Y-76650000D03*
X134116667Y-76650000D03*
X134116667Y-73350000D03*
%TD*%
%TO.C,D2*%
X62550000Y-73350000D03*
X62550000Y-76650000D03*
X67450000Y-76650000D03*
X67450000Y-73350000D03*
%TD*%
%TO.C,D4*%
X95883333Y-73350000D03*
X95883333Y-76650000D03*
X100783333Y-76650000D03*
X100783333Y-73350000D03*
%TD*%
D10*
%TO.C,C1*%
X58725000Y-73600000D03*
X60275000Y-73600000D03*
%TD*%
D16*
%TO.C,R1*%
X54525000Y-73600000D03*
X52875000Y-73600000D03*
%TD*%
D15*
%TO.C,D1*%
X45883333Y-73350000D03*
X45883333Y-76650000D03*
X50783333Y-76650000D03*
X50783333Y-73350000D03*
%TD*%
D10*
%TO.C,C2*%
X75600000Y-73700000D03*
X77150000Y-73700000D03*
%TD*%
M02*
