%TF.GenerationSoftware,KiCad,Pcbnew,8.0.6*%
%TF.CreationDate,2025-03-29T22:49:51+11:00*%
%TF.ProjectId,5050_16mm,35303530-5f31-4366-9d6d-2e6b69636164,rev?*%
%TF.SameCoordinates,Original*%
%TF.FileFunction,Legend,Top*%
%TF.FilePolarity,Positive*%
%FSLAX46Y46*%
G04 Gerber Fmt 4.6, Leading zero omitted, Abs format (unit mm)*
G04 Created by KiCad (PCBNEW 8.0.6) date 2025-03-29 22:49:51*
%MOMM*%
%LPD*%
G01*
G04 APERTURE LIST*
G04 Aperture macros list*
%AMRoundRect*
0 Rectangle with rounded corners*
0 $1 Rounding radius*
0 $2 $3 $4 $5 $6 $7 $8 $9 X,Y pos of 4 corners*
0 Add a 4 corners polygon primitive as box body*
4,1,4,$2,$3,$4,$5,$6,$7,$8,$9,$2,$3,0*
0 Add four circle primitives for the rounded corners*
1,1,$1+$1,$2,$3*
1,1,$1+$1,$4,$5*
1,1,$1+$1,$6,$7*
1,1,$1+$1,$8,$9*
0 Add four rect primitives between the rounded corners*
20,1,$1+$1,$2,$3,$4,$5,0*
20,1,$1+$1,$4,$5,$6,$7,0*
20,1,$1+$1,$6,$7,$8,$9,0*
20,1,$1+$1,$8,$9,$2,$3,0*%
G04 Aperture macros list end*
%ADD10C,0.400000*%
%ADD11C,0.150000*%
%ADD12C,0.120000*%
%ADD13C,0.152400*%
%ADD14C,0.100000*%
%ADD15C,0.200000*%
%ADD16RoundRect,0.225000X-0.225000X-0.250000X0.225000X-0.250000X0.225000X0.250000X-0.225000X0.250000X0*%
%ADD17R,0.482600X0.584200*%
%ADD18R,0.482600X0.279400*%
%ADD19R,0.330200X0.482600*%
%ADD20RoundRect,0.225000X0.225000X0.250000X-0.225000X0.250000X-0.225000X-0.250000X0.225000X-0.250000X0*%
%ADD21RoundRect,0.090000X-0.660000X-0.360000X0.660000X-0.360000X0.660000X0.360000X-0.660000X0.360000X0*%
%ADD22RoundRect,0.200000X0.200000X0.275000X-0.200000X0.275000X-0.200000X-0.275000X0.200000X-0.275000X0*%
G04 APERTURE END LIST*
D10*
X136875000Y-78250000D02*
X138125000Y-78250000D01*
X41687500Y-78125000D02*
X42812500Y-78125000D01*
X42250000Y-78625000D02*
X42250000Y-77625000D01*
D11*
X41954819Y-75333333D02*
X42669104Y-75333333D01*
X42669104Y-75333333D02*
X42811961Y-75380952D01*
X42811961Y-75380952D02*
X42907200Y-75476190D01*
X42907200Y-75476190D02*
X42954819Y-75619047D01*
X42954819Y-75619047D02*
X42954819Y-75714285D01*
X42954819Y-74333333D02*
X42954819Y-74904761D01*
X42954819Y-74619047D02*
X41954819Y-74619047D01*
X41954819Y-74619047D02*
X42097676Y-74714285D01*
X42097676Y-74714285D02*
X42192914Y-74809523D01*
X42192914Y-74809523D02*
X42240533Y-74904761D01*
X76208333Y-72629580D02*
X76160714Y-72677200D01*
X76160714Y-72677200D02*
X76017857Y-72724819D01*
X76017857Y-72724819D02*
X75922619Y-72724819D01*
X75922619Y-72724819D02*
X75779762Y-72677200D01*
X75779762Y-72677200D02*
X75684524Y-72581961D01*
X75684524Y-72581961D02*
X75636905Y-72486723D01*
X75636905Y-72486723D02*
X75589286Y-72296247D01*
X75589286Y-72296247D02*
X75589286Y-72153390D01*
X75589286Y-72153390D02*
X75636905Y-71962914D01*
X75636905Y-71962914D02*
X75684524Y-71867676D01*
X75684524Y-71867676D02*
X75779762Y-71772438D01*
X75779762Y-71772438D02*
X75922619Y-71724819D01*
X75922619Y-71724819D02*
X76017857Y-71724819D01*
X76017857Y-71724819D02*
X76160714Y-71772438D01*
X76160714Y-71772438D02*
X76208333Y-71820057D01*
X76589286Y-71820057D02*
X76636905Y-71772438D01*
X76636905Y-71772438D02*
X76732143Y-71724819D01*
X76732143Y-71724819D02*
X76970238Y-71724819D01*
X76970238Y-71724819D02*
X77065476Y-71772438D01*
X77065476Y-71772438D02*
X77113095Y-71820057D01*
X77113095Y-71820057D02*
X77160714Y-71915295D01*
X77160714Y-71915295D02*
X77160714Y-72010533D01*
X77160714Y-72010533D02*
X77113095Y-72153390D01*
X77113095Y-72153390D02*
X76541667Y-72724819D01*
X76541667Y-72724819D02*
X77160714Y-72724819D01*
D12*
%TO.C,C4*%
X120559420Y-73090000D02*
X120840580Y-73090000D01*
X120559420Y-74110000D02*
X120840580Y-74110000D01*
D13*
%TO.C,J1*%
X41128400Y-72777500D02*
X43871600Y-72777500D01*
X43871600Y-77222500D02*
X41128400Y-77222500D01*
D12*
%TO.C,C3*%
X103715580Y-72990000D02*
X103434420Y-72990000D01*
X103715580Y-74010000D02*
X103434420Y-74010000D01*
%TO.C,D5*%
X111500000Y-72250000D02*
X111500000Y-77750000D01*
X111500000Y-72250000D02*
X118500000Y-72250000D01*
X111500000Y-77750000D02*
X118050000Y-77750000D01*
X112300000Y-75900000D02*
X112300000Y-74100000D01*
X117700000Y-75900000D02*
X117700000Y-74100000D01*
X118050000Y-77750000D02*
X118500000Y-77300000D01*
X118500000Y-77300000D02*
X118500000Y-72250000D01*
%TO.C,D3*%
X78166667Y-72250000D02*
X78166667Y-77750000D01*
X78166667Y-72250000D02*
X85166667Y-72250000D01*
X78166667Y-77750000D02*
X84716667Y-77750000D01*
X78966667Y-75900000D02*
X78966667Y-74100000D01*
X84366667Y-75900000D02*
X84366667Y-74100000D01*
X84716667Y-77750000D02*
X85166667Y-77300000D01*
X85166667Y-77300000D02*
X85166667Y-72250000D01*
D13*
%TO.C,J2*%
X136128400Y-72777500D02*
X138871600Y-72777500D01*
X138871600Y-77222500D02*
X136128400Y-77222500D01*
D12*
%TO.C,D6*%
X128166667Y-72250000D02*
X128166667Y-77750000D01*
X128166667Y-72250000D02*
X135166667Y-72250000D01*
X128166667Y-77750000D02*
X134716667Y-77750000D01*
X128966667Y-75900000D02*
X128966667Y-74100000D01*
X134366667Y-75900000D02*
X134366667Y-74100000D01*
X134716667Y-77750000D02*
X135166667Y-77300000D01*
X135166667Y-77300000D02*
X135166667Y-72250000D01*
%TO.C,D2*%
X61500000Y-72250000D02*
X61500000Y-77750000D01*
X61500000Y-72250000D02*
X68500000Y-72250000D01*
X61500000Y-77750000D02*
X68050000Y-77750000D01*
X62300000Y-75900000D02*
X62300000Y-74100000D01*
X67700000Y-75900000D02*
X67700000Y-74100000D01*
X68050000Y-77750000D02*
X68500000Y-77300000D01*
X68500000Y-77300000D02*
X68500000Y-72250000D01*
%TO.C,D4*%
X94833333Y-72250000D02*
X94833333Y-77750000D01*
X94833333Y-72250000D02*
X101833333Y-72250000D01*
X94833333Y-77750000D02*
X101383333Y-77750000D01*
X95633333Y-75900000D02*
X95633333Y-74100000D01*
X101033333Y-75900000D02*
X101033333Y-74100000D01*
X101383333Y-77750000D02*
X101833333Y-77300000D01*
X101833333Y-77300000D02*
X101833333Y-72250000D01*
%TO.C,C1*%
X59359420Y-73090000D02*
X59640580Y-73090000D01*
X59359420Y-74110000D02*
X59640580Y-74110000D01*
%TO.C,R1*%
X53937258Y-73077500D02*
X53462742Y-73077500D01*
X53937258Y-74122500D02*
X53462742Y-74122500D01*
%TO.C,D1*%
X44833333Y-72250000D02*
X44833333Y-77750000D01*
X44833333Y-72250000D02*
X51833333Y-72250000D01*
X44833333Y-77750000D02*
X51383333Y-77750000D01*
X45633333Y-75900000D02*
X45633333Y-74100000D01*
X51033333Y-75900000D02*
X51033333Y-74100000D01*
X51383333Y-77750000D02*
X51833333Y-77300000D01*
X51833333Y-77300000D02*
X51833333Y-72250000D01*
D14*
%TO.C,ESKI1*%
X87750000Y-75600000D02*
X87750000Y-73850000D01*
X88250000Y-73350000D02*
X91750000Y-73350000D01*
X92250000Y-73850000D02*
X92250000Y-75600000D01*
D15*
X88000000Y-74350000D02*
X92000000Y-74350000D01*
X92000000Y-76850000D01*
X88000000Y-76850000D01*
X88000000Y-74350000D01*
D14*
X87750000Y-73850000D02*
G75*
G02*
X88250000Y-73350000I500001J-1D01*
G01*
X91750000Y-73350000D02*
G75*
G02*
X92250000Y-73850000I0J-500000D01*
G01*
D12*
%TO.C,C2*%
X76234420Y-73190000D02*
X76515580Y-73190000D01*
X76234420Y-74210000D02*
X76515580Y-74210000D01*
%TD*%
%LPC*%
D16*
%TO.C,C4*%
X119925000Y-73600000D03*
X121475000Y-73600000D03*
%TD*%
D17*
%TO.C,J1*%
X41300000Y-74200000D03*
D18*
X41300000Y-74796800D03*
X41300000Y-75203200D03*
D17*
X41300000Y-75800000D03*
X43700000Y-74200000D03*
D18*
X43700000Y-74796800D03*
X43700000Y-75203200D03*
D17*
X43700000Y-75800000D03*
D19*
X41223800Y-73469997D03*
X41223800Y-76530003D03*
X43776200Y-73469997D03*
X43776200Y-76530003D03*
%TD*%
D20*
%TO.C,C3*%
X104350000Y-73500000D03*
X102800000Y-73500000D03*
%TD*%
D21*
%TO.C,D5*%
X112550000Y-73350000D03*
X112550000Y-76650000D03*
X117450000Y-76650000D03*
X117450000Y-73350000D03*
%TD*%
%TO.C,D3*%
X79216667Y-73350000D03*
X79216667Y-76650000D03*
X84116667Y-76650000D03*
X84116667Y-73350000D03*
%TD*%
D17*
%TO.C,J2*%
X136300000Y-74200000D03*
D18*
X136300000Y-74796800D03*
X136300000Y-75203200D03*
D17*
X136300000Y-75800000D03*
X138700000Y-74200000D03*
D18*
X138700000Y-74796800D03*
X138700000Y-75203200D03*
D17*
X138700000Y-75800000D03*
D19*
X136223800Y-73469997D03*
X136223800Y-76530003D03*
X138776200Y-73469997D03*
X138776200Y-76530003D03*
%TD*%
D21*
%TO.C,D6*%
X129216667Y-73350000D03*
X129216667Y-76650000D03*
X134116667Y-76650000D03*
X134116667Y-73350000D03*
%TD*%
%TO.C,D2*%
X62550000Y-73350000D03*
X62550000Y-76650000D03*
X67450000Y-76650000D03*
X67450000Y-73350000D03*
%TD*%
%TO.C,D4*%
X95883333Y-73350000D03*
X95883333Y-76650000D03*
X100783333Y-76650000D03*
X100783333Y-73350000D03*
%TD*%
D16*
%TO.C,C1*%
X58725000Y-73600000D03*
X60275000Y-73600000D03*
%TD*%
D22*
%TO.C,R1*%
X54525000Y-73600000D03*
X52875000Y-73600000D03*
%TD*%
D21*
%TO.C,D1*%
X45883333Y-73350000D03*
X45883333Y-76650000D03*
X50783333Y-76650000D03*
X50783333Y-73350000D03*
%TD*%
D16*
%TO.C,C2*%
X75600000Y-73700000D03*
X77150000Y-73700000D03*
%TD*%
%LPD*%
M02*
