%TF.GenerationSoftware,KiCad,Pcbnew,8.0.6*%
%TF.CreationDate,2025-03-29T22:49:51+11:00*%
%TF.ProjectId,5050_16mm,35303530-5f31-4366-9d6d-2e6b69636164,rev?*%
%TF.SameCoordinates,Original*%
%TF.FileFunction,Copper,L1,Top*%
%TF.FilePolarity,Positive*%
%FSLAX46Y46*%
G04 Gerber Fmt 4.6, Leading zero omitted, Abs format (unit mm)*
G04 Created by KiCad (PCBNEW 8.0.6) date 2025-03-29 22:49:51*
%MOMM*%
%LPD*%
G01*
G04 APERTURE LIST*
G04 Aperture macros list*
%AMRoundRect*
0 Rectangle with rounded corners*
0 $1 Rounding radius*
0 $2 $3 $4 $5 $6 $7 $8 $9 X,Y pos of 4 corners*
0 Add a 4 corners polygon primitive as box body*
4,1,4,$2,$3,$4,$5,$6,$7,$8,$9,$2,$3,0*
0 Add four circle primitives for the rounded corners*
1,1,$1+$1,$2,$3*
1,1,$1+$1,$4,$5*
1,1,$1+$1,$6,$7*
1,1,$1+$1,$8,$9*
0 Add four rect primitives between the rounded corners*
20,1,$1+$1,$2,$3,$4,$5,0*
20,1,$1+$1,$4,$5,$6,$7,0*
20,1,$1+$1,$6,$7,$8,$9,0*
20,1,$1+$1,$8,$9,$2,$3,0*%
G04 Aperture macros list end*
%TA.AperFunction,SMDPad,CuDef*%
%ADD10RoundRect,0.225000X-0.225000X-0.250000X0.225000X-0.250000X0.225000X0.250000X-0.225000X0.250000X0*%
%TD*%
%TA.AperFunction,SMDPad,CuDef*%
%ADD11R,0.482600X0.584200*%
%TD*%
%TA.AperFunction,SMDPad,CuDef*%
%ADD12R,0.482600X0.279400*%
%TD*%
%TA.AperFunction,SMDPad,CuDef*%
%ADD13R,0.330200X0.482600*%
%TD*%
%TA.AperFunction,SMDPad,CuDef*%
%ADD14RoundRect,0.225000X0.225000X0.250000X-0.225000X0.250000X-0.225000X-0.250000X0.225000X-0.250000X0*%
%TD*%
%TA.AperFunction,SMDPad,CuDef*%
%ADD15RoundRect,0.090000X-0.660000X-0.360000X0.660000X-0.360000X0.660000X0.360000X-0.660000X0.360000X0*%
%TD*%
%TA.AperFunction,SMDPad,CuDef*%
%ADD16RoundRect,0.200000X0.200000X0.275000X-0.200000X0.275000X-0.200000X-0.275000X0.200000X-0.275000X0*%
%TD*%
%TA.AperFunction,ViaPad*%
%ADD17C,0.600000*%
%TD*%
%TA.AperFunction,Conductor*%
%ADD18C,0.600000*%
%TD*%
%TA.AperFunction,Conductor*%
%ADD19C,0.500000*%
%TD*%
%TA.AperFunction,Conductor*%
%ADD20C,0.200000*%
%TD*%
%TA.AperFunction,Conductor*%
%ADD21C,0.300000*%
%TD*%
%TA.AperFunction,Conductor*%
%ADD22C,0.250000*%
%TD*%
%TA.AperFunction,Conductor*%
%ADD23C,0.400000*%
%TD*%
G04 APERTURE END LIST*
D10*
%TO.P,C4,1*%
%TO.N,+5V*%
X119925000Y-73600000D03*
%TO.P,C4,2*%
%TO.N,GND*%
X121475000Y-73600000D03*
%TD*%
D11*
%TO.P,J1,1,1*%
%TO.N,+5V*%
X41300000Y-74200000D03*
D12*
%TO.P,J1,2,2*%
%TO.N,/CH4*%
X41300000Y-74796800D03*
%TO.P,J1,3,3*%
%TO.N,/CH3*%
X41300000Y-75203200D03*
D11*
%TO.P,J1,4,4*%
%TO.N,GND*%
X41300000Y-75800000D03*
%TO.P,J1,5,5*%
%TO.N,+5V*%
X43700000Y-74200000D03*
D12*
%TO.P,J1,6,6*%
%TO.N,/CH1-IN*%
X43700000Y-74796800D03*
%TO.P,J1,7,7*%
%TO.N,/CH2*%
X43700000Y-75203200D03*
D11*
%TO.P,J1,8,8*%
%TO.N,GND*%
X43700000Y-75800000D03*
D13*
%TO.P,J1,9*%
%TO.N,N/C*%
X41223800Y-73469997D03*
%TO.P,J1,10*%
X41223800Y-76530003D03*
%TO.P,J1,11*%
X43776200Y-73469997D03*
%TO.P,J1,12*%
X43776200Y-76530003D03*
%TD*%
D14*
%TO.P,C3,1*%
%TO.N,GND*%
X104350000Y-73500000D03*
%TO.P,C3,2*%
%TO.N,+5V*%
X102800000Y-73500000D03*
%TD*%
D15*
%TO.P,D5,1,VDD*%
%TO.N,+5V*%
X112550000Y-73350000D03*
%TO.P,D5,2,DOUT*%
%TO.N,/5-6*%
X112550000Y-76650000D03*
%TO.P,D5,3,VSS*%
%TO.N,GND*%
X117450000Y-76650000D03*
%TO.P,D5,4,DIN*%
%TO.N,/4-5*%
X117450000Y-73350000D03*
%TD*%
%TO.P,D3,1,VDD*%
%TO.N,+5V*%
X79216667Y-73350000D03*
%TO.P,D3,2,DOUT*%
%TO.N,/3-4*%
X79216667Y-76650000D03*
%TO.P,D3,3,VSS*%
%TO.N,GND*%
X84116667Y-76650000D03*
%TO.P,D3,4,DIN*%
%TO.N,/2-3*%
X84116667Y-73350000D03*
%TD*%
D11*
%TO.P,J2,1,1*%
%TO.N,+5V*%
X136300000Y-74200000D03*
D12*
%TO.P,J2,2,2*%
%TO.N,/CH4*%
X136300000Y-74796800D03*
%TO.P,J2,3,3*%
%TO.N,/CH3*%
X136300000Y-75203200D03*
D11*
%TO.P,J2,4,4*%
%TO.N,GND*%
X136300000Y-75800000D03*
%TO.P,J2,5,5*%
%TO.N,+5V*%
X138700000Y-74200000D03*
D12*
%TO.P,J2,6,6*%
%TO.N,/CH1-OUT*%
X138700000Y-74796800D03*
%TO.P,J2,7,7*%
%TO.N,/CH2*%
X138700000Y-75203200D03*
D11*
%TO.P,J2,8,8*%
%TO.N,GND*%
X138700000Y-75800000D03*
D13*
%TO.P,J2,9*%
%TO.N,N/C*%
X136223800Y-73469997D03*
%TO.P,J2,10*%
X136223800Y-76530003D03*
%TO.P,J2,11*%
X138776200Y-73469997D03*
%TO.P,J2,12*%
X138776200Y-76530003D03*
%TD*%
D15*
%TO.P,D6,1,VDD*%
%TO.N,+5V*%
X129216667Y-73350000D03*
%TO.P,D6,2,DOUT*%
%TO.N,/CH1-OUT*%
X129216667Y-76650000D03*
%TO.P,D6,3,VSS*%
%TO.N,GND*%
X134116667Y-76650000D03*
%TO.P,D6,4,DIN*%
%TO.N,/5-6*%
X134116667Y-73350000D03*
%TD*%
%TO.P,D2,1,VDD*%
%TO.N,+5V*%
X62550000Y-73350000D03*
%TO.P,D2,2,DOUT*%
%TO.N,/2-3*%
X62550000Y-76650000D03*
%TO.P,D2,3,VSS*%
%TO.N,GND*%
X67450000Y-76650000D03*
%TO.P,D2,4,DIN*%
%TO.N,/1-2*%
X67450000Y-73350000D03*
%TD*%
%TO.P,D4,1,VDD*%
%TO.N,+5V*%
X95883333Y-73350000D03*
%TO.P,D4,2,DOUT*%
%TO.N,/4-5*%
X95883333Y-76650000D03*
%TO.P,D4,3,VSS*%
%TO.N,GND*%
X100783333Y-76650000D03*
%TO.P,D4,4,DIN*%
%TO.N,/3-4*%
X100783333Y-73350000D03*
%TD*%
D10*
%TO.P,C1,1*%
%TO.N,GND*%
X58725000Y-73600000D03*
%TO.P,C1,2*%
%TO.N,+5V*%
X60275000Y-73600000D03*
%TD*%
D16*
%TO.P,R1,1*%
%TO.N,/CH1-IN*%
X54525000Y-73600000D03*
%TO.P,R1,2*%
%TO.N,Net-(D1-DIN)*%
X52875000Y-73600000D03*
%TD*%
D15*
%TO.P,D1,1,VDD*%
%TO.N,+5V*%
X45883333Y-73350000D03*
%TO.P,D1,2,DOUT*%
%TO.N,/1-2*%
X45883333Y-76650000D03*
%TO.P,D1,3,VSS*%
%TO.N,GND*%
X50783333Y-76650000D03*
%TO.P,D1,4,DIN*%
%TO.N,Net-(D1-DIN)*%
X50783333Y-73350000D03*
%TD*%
D10*
%TO.P,C2,1*%
%TO.N,GND*%
X75600000Y-73700000D03*
%TO.P,C2,2*%
%TO.N,+5V*%
X77150000Y-73700000D03*
%TD*%
D17*
%TO.N,GND*%
X105700000Y-73500000D03*
X119000000Y-76600000D03*
X85700000Y-76700000D03*
X41800000Y-76500000D03*
X102600000Y-76700000D03*
X137000000Y-76300000D03*
X138200000Y-76200000D03*
X43000000Y-75500000D03*
X122700000Y-73600000D03*
X57100000Y-73600000D03*
X74200000Y-73700000D03*
X52300000Y-76600000D03*
X132600000Y-76700000D03*
X68900000Y-76600000D03*
%TO.N,+5V*%
X43000000Y-72200000D03*
X44850000Y-72650000D03*
X134161091Y-72350000D03*
X136400000Y-72300000D03*
%TO.N,/CH1-OUT*%
X137000000Y-75000000D03*
X135000000Y-75000000D03*
%TO.N,/CH3*%
X135500000Y-77050000D03*
X135300000Y-78150000D03*
%TD*%
D18*
%TO.N,GND*%
X117450000Y-76650000D02*
X118950000Y-76650000D01*
D19*
X43300000Y-75800000D02*
X43000000Y-75500000D01*
X138700000Y-75800000D02*
X138561297Y-75938703D01*
X138600000Y-75800000D02*
X138200000Y-76200000D01*
D18*
X58725000Y-73600000D02*
X57100000Y-73600000D01*
X67450000Y-76650000D02*
X68850000Y-76650000D01*
X132650000Y-76650000D02*
X132600000Y-76700000D01*
X121475000Y-73600000D02*
X122700000Y-73600000D01*
D19*
X137000000Y-76300000D02*
X136500000Y-75800000D01*
D18*
X118950000Y-76650000D02*
X119000000Y-76600000D01*
X104350000Y-73500000D02*
X105700000Y-73500000D01*
X84116667Y-76650000D02*
X85650000Y-76650000D01*
X102550000Y-76650000D02*
X102600000Y-76700000D01*
X68850000Y-76650000D02*
X68900000Y-76600000D01*
X75600000Y-73700000D02*
X74200000Y-73700000D01*
D20*
X136500000Y-75800000D02*
X136300000Y-75800000D01*
D19*
X138700000Y-75800000D02*
X138600000Y-75800000D01*
X41800000Y-75999803D02*
X41800000Y-76500000D01*
X41600197Y-75800000D02*
X41800000Y-75999803D01*
D18*
X85650000Y-76650000D02*
X85700000Y-76700000D01*
X100783333Y-76650000D02*
X102550000Y-76650000D01*
D20*
X136300000Y-75800000D02*
X136400000Y-75900000D01*
D18*
X50783333Y-76650000D02*
X52250000Y-76650000D01*
D19*
X41300000Y-75800000D02*
X41600197Y-75800000D01*
D18*
X52250000Y-76650000D02*
X52300000Y-76600000D01*
D19*
X43700000Y-75800000D02*
X43300000Y-75800000D01*
D18*
X134116667Y-76650000D02*
X132650000Y-76650000D01*
%TO.N,+5V*%
X119925000Y-72925000D02*
X119500000Y-72500000D01*
D19*
X44800000Y-74200000D02*
X44900000Y-74100000D01*
X43700000Y-74200000D02*
X44800000Y-74200000D01*
D18*
X95800000Y-72500000D02*
X97000000Y-72500000D01*
X62400000Y-72500000D02*
X63400000Y-72500000D01*
X113400000Y-72500000D02*
X113700000Y-72500000D01*
X111700000Y-72500000D02*
X112500000Y-72500000D01*
X95033333Y-72500000D02*
X95800000Y-72500000D01*
D19*
X136300000Y-74200000D02*
X137500000Y-74200000D01*
D18*
X119500000Y-72500000D02*
X128366667Y-72500000D01*
X78366667Y-72500000D02*
X79400000Y-72500000D01*
X60275000Y-73600000D02*
X60275000Y-72625000D01*
X45883333Y-73350000D02*
X46733333Y-72500000D01*
X112500000Y-72500000D02*
X113400000Y-72500000D01*
D19*
X45133333Y-74100000D02*
X45883333Y-73350000D01*
D18*
X77700000Y-72500000D02*
X78366667Y-72500000D01*
X129216667Y-73350000D02*
X130216667Y-72350000D01*
D19*
X137500000Y-74200000D02*
X137500000Y-73400000D01*
D18*
X63400000Y-72500000D02*
X77700000Y-72500000D01*
X102800000Y-73500000D02*
X102800000Y-72800000D01*
D19*
X41738900Y-73461100D02*
X41738900Y-74061297D01*
X137500000Y-73400000D02*
X136400000Y-72300000D01*
D18*
X79216667Y-73350000D02*
X80066667Y-72500000D01*
X62550000Y-73350000D02*
X63400000Y-72500000D01*
X79216667Y-72683333D02*
X79216667Y-73350000D01*
D19*
X138700000Y-74200000D02*
X137500000Y-74200000D01*
D18*
X77150000Y-73700000D02*
X77150000Y-73050000D01*
X62400000Y-73200000D02*
X62550000Y-73350000D01*
X119925000Y-73600000D02*
X119925000Y-72925000D01*
X102800000Y-72800000D02*
X102500000Y-72500000D01*
X95883333Y-73350000D02*
X96733333Y-72500000D01*
X77150000Y-73050000D02*
X77700000Y-72500000D01*
D19*
X43000000Y-72200000D02*
X41738900Y-73461100D01*
D18*
X46000000Y-73466667D02*
X45883333Y-73350000D01*
X62400000Y-72500000D02*
X62400000Y-73200000D01*
X60400000Y-72500000D02*
X61700000Y-72500000D01*
X102500000Y-72500000D02*
X111700000Y-72500000D01*
X95800000Y-72500000D02*
X95800000Y-73266667D01*
D19*
X41738900Y-74061297D02*
X41600197Y-74200000D01*
D18*
X130216667Y-72350000D02*
X134161091Y-72350000D01*
X45883333Y-73350000D02*
X45550000Y-73350000D01*
D19*
X44900000Y-74100000D02*
X45133333Y-74100000D01*
D18*
X111700000Y-72500000D02*
X112550000Y-73350000D01*
X97000000Y-72500000D02*
X102500000Y-72500000D01*
X128366667Y-72500000D02*
X129216667Y-73350000D01*
D19*
X41600197Y-74200000D02*
X41300000Y-74200000D01*
D18*
X112550000Y-72550000D02*
X112550000Y-73350000D01*
X96733333Y-72500000D02*
X97000000Y-72500000D01*
X80066667Y-72500000D02*
X95033333Y-72500000D01*
X95033333Y-72500000D02*
X95883333Y-73350000D01*
X61700000Y-72500000D02*
X62550000Y-73350000D01*
X45550000Y-73350000D02*
X44850000Y-72650000D01*
X46733333Y-72500000D02*
X60400000Y-72500000D01*
X95800000Y-73266667D02*
X95883333Y-73350000D01*
X79400000Y-72500000D02*
X79216667Y-72683333D01*
X113700000Y-72500000D02*
X119500000Y-72500000D01*
X79400000Y-72500000D02*
X80066667Y-72500000D01*
X60275000Y-72625000D02*
X60400000Y-72500000D01*
X61700000Y-72500000D02*
X62400000Y-72500000D01*
X112550000Y-73350000D02*
X113400000Y-72500000D01*
X112500000Y-72500000D02*
X112550000Y-72550000D01*
X78366667Y-72500000D02*
X79216667Y-73350000D01*
D21*
%TO.N,/1-2*%
X65450000Y-73350000D02*
X67450000Y-73350000D01*
X45883333Y-76650000D02*
X47133333Y-75400000D01*
X63400000Y-75400000D02*
X65450000Y-73350000D01*
X47133333Y-75400000D02*
X63400000Y-75400000D01*
D22*
%TO.N,/CH1-IN*%
X44200000Y-74800000D02*
X44600000Y-74800000D01*
D21*
X53325000Y-74800000D02*
X54525000Y-73600000D01*
D20*
X43700000Y-74796800D02*
X44196800Y-74796800D01*
X44196800Y-74796800D02*
X44200000Y-74800000D01*
D22*
X44600000Y-74800000D02*
X44500000Y-74800000D01*
D20*
X43703200Y-74800000D02*
X43700000Y-74796800D01*
D21*
X44500000Y-74800000D02*
X53325000Y-74800000D01*
%TO.N,/2-3*%
X65600000Y-75100000D02*
X80500000Y-75100000D01*
X64050000Y-76650000D02*
X65600000Y-75100000D01*
X82250000Y-73350000D02*
X84116667Y-73350000D01*
X62550000Y-76650000D02*
X64050000Y-76650000D01*
X80500000Y-75100000D02*
X82250000Y-73350000D01*
%TO.N,/3-4*%
X99450000Y-73350000D02*
X100783333Y-73350000D01*
X97700000Y-75100000D02*
X99450000Y-73350000D01*
X82700000Y-75100000D02*
X97700000Y-75100000D01*
X79216667Y-76650000D02*
X81150000Y-76650000D01*
X81150000Y-76650000D02*
X82700000Y-75100000D01*
%TO.N,/4-5*%
X99400000Y-75000000D02*
X114800000Y-75000000D01*
X114800000Y-75000000D02*
X116450000Y-73350000D01*
X97750000Y-76650000D02*
X99400000Y-75000000D01*
X95883333Y-76650000D02*
X97750000Y-76650000D01*
X116450000Y-73350000D02*
X117450000Y-73350000D01*
%TO.N,/CH1-OUT*%
X129216667Y-76650000D02*
X130366667Y-75500000D01*
X133600000Y-75500000D02*
X134100000Y-75000000D01*
X134100000Y-75000000D02*
X135000000Y-75000000D01*
X130366667Y-75500000D02*
X133600000Y-75500000D01*
D20*
X137000000Y-75000000D02*
X137203200Y-74796800D01*
X137203200Y-74796800D02*
X138700000Y-74796800D01*
D21*
%TO.N,/CH3*%
X42700000Y-77000000D02*
X42700000Y-76100000D01*
X135500000Y-75500000D02*
X135500000Y-77050000D01*
D20*
X41803200Y-75203200D02*
X42500000Y-75900000D01*
D21*
X42700000Y-76100000D02*
X42500000Y-75900000D01*
X135100000Y-78350000D02*
X44050000Y-78350000D01*
D22*
X135796800Y-75203200D02*
X136300000Y-75203200D01*
D21*
X135596800Y-75403200D02*
X135500000Y-75500000D01*
D20*
X41300000Y-75203200D02*
X41803200Y-75203200D01*
D22*
X135596800Y-75403200D02*
X135796800Y-75203200D01*
D21*
X135300000Y-78150000D02*
X135100000Y-78350000D01*
X44050000Y-78350000D02*
X42700000Y-77000000D01*
%TO.N,/CH2*%
X44858062Y-77600000D02*
X137000000Y-77600000D01*
X138296800Y-75203200D02*
X138363400Y-75203200D01*
X44300000Y-75700000D02*
X44300000Y-77041938D01*
X137600000Y-75900000D02*
X138296800Y-75203200D01*
D20*
X44300000Y-75416600D02*
X44086600Y-75203200D01*
D21*
X137000000Y-77600000D02*
X137600000Y-77000000D01*
X44300000Y-77041938D02*
X44858062Y-77600000D01*
D20*
X44086600Y-75203200D02*
X43700000Y-75203200D01*
X138363400Y-75203200D02*
X138700000Y-75203200D01*
D21*
X137600000Y-77000000D02*
X137600000Y-75900000D01*
D20*
X44300000Y-75700000D02*
X44300000Y-75416600D01*
%TO.N,/CH4*%
X41903200Y-74796800D02*
X41300000Y-74796800D01*
X136300000Y-74796800D02*
X135796800Y-74796800D01*
D21*
X42400000Y-74000000D02*
X42400000Y-74300000D01*
D20*
X135796800Y-74796800D02*
X135400000Y-74400000D01*
D21*
X135400000Y-72800000D02*
X135100000Y-72500000D01*
X134400000Y-71800000D02*
X44600000Y-71800000D01*
X135400000Y-74400000D02*
X135400000Y-72800000D01*
D20*
X42400000Y-74300000D02*
X41903200Y-74796800D01*
D21*
X44600000Y-71800000D02*
X42400000Y-74000000D01*
X135100000Y-72500000D02*
X134400000Y-71800000D01*
D23*
%TO.N,Net-(D1-DIN)*%
X51033333Y-73600000D02*
X50783333Y-73350000D01*
X52875000Y-73600000D02*
X51033333Y-73600000D01*
D21*
%TO.N,/5-6*%
X114150000Y-76650000D02*
X115900000Y-74900000D01*
X115900000Y-74900000D02*
X132566667Y-74900000D01*
X132566667Y-74900000D02*
X134116667Y-73350000D01*
X112550000Y-76650000D02*
X114150000Y-76650000D01*
%TD*%
M02*
