%TF.GenerationSoftware,KiCad,Pcbnew,8.0.6*%
%TF.CreationDate,2025-03-29T22:44:09+11:00*%
%TF.ProjectId,3332_25mm_v2,33333332-5f32-4356-9d6d-5f76322e6b69,rev?*%
%TF.SameCoordinates,Original*%
%TF.FileFunction,Legend,Top*%
%TF.FilePolarity,Positive*%
%FSLAX46Y46*%
G04 Gerber Fmt 4.6, Leading zero omitted, Abs format (unit mm)*
G04 Created by KiCad (PCBNEW 8.0.6) date 2025-03-29 22:44:09*
%MOMM*%
%LPD*%
G01*
G04 APERTURE LIST*
G04 Aperture macros list*
%AMRoundRect*
0 Rectangle with rounded corners*
0 $1 Rounding radius*
0 $2 $3 $4 $5 $6 $7 $8 $9 X,Y pos of 4 corners*
0 Add a 4 corners polygon primitive as box body*
4,1,4,$2,$3,$4,$5,$6,$7,$8,$9,$2,$3,0*
0 Add four circle primitives for the rounded corners*
1,1,$1+$1,$2,$3*
1,1,$1+$1,$4,$5*
1,1,$1+$1,$6,$7*
1,1,$1+$1,$8,$9*
0 Add four rect primitives between the rounded corners*
20,1,$1+$1,$2,$3,$4,$5,0*
20,1,$1+$1,$4,$5,$6,$7,0*
20,1,$1+$1,$6,$7,$8,$9,0*
20,1,$1+$1,$8,$9,$2,$3,0*%
G04 Aperture macros list end*
%ADD10C,0.400000*%
%ADD11C,0.150000*%
%ADD12C,0.100000*%
%ADD13C,0.152400*%
%ADD14C,0.200000*%
%ADD15C,0.120000*%
%ADD16R,0.482600X0.584200*%
%ADD17R,0.482600X0.279400*%
%ADD18R,0.330200X0.482600*%
%ADD19R,3.400000X0.900000*%
%ADD20R,1.500000X0.800000*%
%ADD21RoundRect,0.225000X-0.225000X-0.250000X0.225000X-0.250000X0.225000X0.250000X-0.225000X0.250000X0*%
%ADD22RoundRect,0.225000X0.225000X0.250000X-0.225000X0.250000X-0.225000X-0.250000X0.225000X-0.250000X0*%
%ADD23RoundRect,0.200000X0.275000X-0.200000X0.275000X0.200000X-0.275000X0.200000X-0.275000X-0.200000X0*%
G04 APERTURE END LIST*
D10*
X136875000Y-78250000D02*
X138125000Y-78250000D01*
X41687500Y-78125000D02*
X42812500Y-78125000D01*
X42250000Y-78625000D02*
X42250000Y-77625000D01*
D11*
X41954819Y-75333333D02*
X42669104Y-75333333D01*
X42669104Y-75333333D02*
X42811961Y-75380952D01*
X42811961Y-75380952D02*
X42907200Y-75476190D01*
X42907200Y-75476190D02*
X42954819Y-75619047D01*
X42954819Y-75619047D02*
X42954819Y-75714285D01*
X42954819Y-74333333D02*
X42954819Y-74904761D01*
X42954819Y-74619047D02*
X41954819Y-74619047D01*
X41954819Y-74619047D02*
X42097676Y-74714285D01*
X42097676Y-74714285D02*
X42192914Y-74809523D01*
X42192914Y-74809523D02*
X42240533Y-74904761D01*
D12*
X127761905Y-72457419D02*
X127761905Y-71457419D01*
X127761905Y-71457419D02*
X128000000Y-71457419D01*
X128000000Y-71457419D02*
X128142857Y-71505038D01*
X128142857Y-71505038D02*
X128238095Y-71600276D01*
X128238095Y-71600276D02*
X128285714Y-71695514D01*
X128285714Y-71695514D02*
X128333333Y-71885990D01*
X128333333Y-71885990D02*
X128333333Y-72028847D01*
X128333333Y-72028847D02*
X128285714Y-72219323D01*
X128285714Y-72219323D02*
X128238095Y-72314561D01*
X128238095Y-72314561D02*
X128142857Y-72409800D01*
X128142857Y-72409800D02*
X128000000Y-72457419D01*
X128000000Y-72457419D02*
X127761905Y-72457419D01*
X129190476Y-71790752D02*
X129190476Y-72457419D01*
X128952381Y-71409800D02*
X128714286Y-72124085D01*
X128714286Y-72124085D02*
X129333333Y-72124085D01*
D13*
%TO.C,J1*%
X41128400Y-72777500D02*
X43871600Y-72777500D01*
X43871600Y-77222500D02*
X41128400Y-77222500D01*
D12*
%TO.C,ESKI1*%
X87750000Y-75900000D02*
X87750000Y-74150000D01*
X88250000Y-73650000D02*
X91750000Y-73650000D01*
X92250000Y-74150000D02*
X92250000Y-75900000D01*
D14*
X88000000Y-74650000D02*
X92000000Y-74650000D01*
X92000000Y-77150000D01*
X88000000Y-77150000D01*
X88000000Y-74650000D01*
D12*
X87750000Y-74150000D02*
G75*
G02*
X88250000Y-73650000I500001J-1D01*
G01*
X91750000Y-73650000D02*
G75*
G02*
X92250000Y-74150000I0J-500000D01*
G01*
%TO.C,D4*%
X126250000Y-72750000D02*
X130750000Y-72750000D01*
X126250000Y-76750000D02*
X126250000Y-72750000D01*
X126750000Y-77250000D02*
X126250000Y-76750000D01*
X130750000Y-72750000D02*
X130750000Y-77250000D01*
X130750000Y-77250000D02*
X126750000Y-77250000D01*
D15*
%TO.C,C2*%
X124359420Y-72490000D02*
X124640580Y-72490000D01*
X124359420Y-73510000D02*
X124640580Y-73510000D01*
D12*
%TO.C,D3*%
X101250000Y-72750000D02*
X105750000Y-72750000D01*
X101250000Y-76750000D02*
X101250000Y-72750000D01*
X101750000Y-77250000D02*
X101250000Y-76750000D01*
X105750000Y-72750000D02*
X105750000Y-77250000D01*
X105750000Y-77250000D02*
X101750000Y-77250000D01*
D13*
%TO.C,J2*%
X136128400Y-72777500D02*
X138871600Y-72777500D01*
X138871600Y-77222500D02*
X136128400Y-77222500D01*
D12*
%TO.C,D2*%
X76250000Y-72750000D02*
X80750000Y-72750000D01*
X76250000Y-76750000D02*
X76250000Y-72750000D01*
X76750000Y-77250000D02*
X76250000Y-76750000D01*
X80750000Y-72750000D02*
X80750000Y-77250000D01*
X80750000Y-77250000D02*
X76750000Y-77250000D01*
D15*
%TO.C,C3*%
X98365580Y-72490000D02*
X98084420Y-72490000D01*
X98365580Y-73510000D02*
X98084420Y-73510000D01*
%TO.C,R1*%
X46227500Y-75987258D02*
X46227500Y-75512742D01*
X47272500Y-75987258D02*
X47272500Y-75512742D01*
%TO.C,C1*%
X74084420Y-72490000D02*
X74365580Y-72490000D01*
X74084420Y-73510000D02*
X74365580Y-73510000D01*
D12*
%TO.C,D1*%
X51250000Y-72750000D02*
X55750000Y-72750000D01*
X51250000Y-76750000D02*
X51250000Y-72750000D01*
X51750000Y-77250000D02*
X51250000Y-76750000D01*
X55750000Y-72750000D02*
X55750000Y-77250000D01*
X55750000Y-77250000D02*
X51750000Y-77250000D01*
%TD*%
%LPC*%
D16*
%TO.C,J1*%
X41300000Y-74200000D03*
D17*
X41300000Y-74796800D03*
X41300000Y-75203200D03*
D16*
X41300000Y-75800000D03*
X43700000Y-74200000D03*
D17*
X43700000Y-74796800D03*
X43700000Y-75203200D03*
D16*
X43700000Y-75800000D03*
D18*
X41223800Y-73469997D03*
X41223800Y-76530003D03*
X43776200Y-73469997D03*
X43776200Y-76530003D03*
%TD*%
D19*
%TO.C,D4*%
X128500000Y-73700000D03*
D20*
X129750000Y-75000000D03*
D19*
X128500000Y-76300000D03*
D20*
X127250000Y-75000000D03*
%TD*%
D21*
%TO.C,C2*%
X123725000Y-73000000D03*
X125275000Y-73000000D03*
%TD*%
D19*
%TO.C,D3*%
X103500000Y-73700000D03*
D20*
X104750000Y-75000000D03*
D19*
X103500000Y-76300000D03*
D20*
X102250000Y-75000000D03*
%TD*%
D16*
%TO.C,J2*%
X136300000Y-74200000D03*
D17*
X136300000Y-74796800D03*
X136300000Y-75203200D03*
D16*
X136300000Y-75800000D03*
X138700000Y-74200000D03*
D17*
X138700000Y-74796800D03*
X138700000Y-75203200D03*
D16*
X138700000Y-75800000D03*
D18*
X136223800Y-73469997D03*
X136223800Y-76530003D03*
X138776200Y-73469997D03*
X138776200Y-76530003D03*
%TD*%
D19*
%TO.C,D2*%
X78500000Y-73700000D03*
D20*
X79750000Y-75000000D03*
D19*
X78500000Y-76300000D03*
D20*
X77250000Y-75000000D03*
%TD*%
D22*
%TO.C,C3*%
X99000000Y-73000000D03*
X97450000Y-73000000D03*
%TD*%
D23*
%TO.C,R1*%
X46750000Y-76575000D03*
X46750000Y-74925000D03*
%TD*%
D21*
%TO.C,C1*%
X73450000Y-73000000D03*
X75000000Y-73000000D03*
%TD*%
D19*
%TO.C,D1*%
X53500000Y-73700000D03*
D20*
X54750000Y-75000000D03*
D19*
X53500000Y-76300000D03*
D20*
X52250000Y-75000000D03*
%TD*%
%LPD*%
M02*
