%TF.GenerationSoftware,KiCad,Pcbnew,8.0.6*%
%TF.CreationDate,2025-03-29T22:44:09+11:00*%
%TF.ProjectId,3332_25mm_v2,33333332-5f32-4356-9d6d-5f76322e6b69,rev?*%
%TF.SameCoordinates,Original*%
%TF.FileFunction,Copper,L1,Top*%
%TF.FilePolarity,Positive*%
%FSLAX46Y46*%
G04 Gerber Fmt 4.6, Leading zero omitted, Abs format (unit mm)*
G04 Created by KiCad (PCBNEW 8.0.6) date 2025-03-29 22:44:09*
%MOMM*%
%LPD*%
G01*
G04 APERTURE LIST*
G04 Aperture macros list*
%AMRoundRect*
0 Rectangle with rounded corners*
0 $1 Rounding radius*
0 $2 $3 $4 $5 $6 $7 $8 $9 X,Y pos of 4 corners*
0 Add a 4 corners polygon primitive as box body*
4,1,4,$2,$3,$4,$5,$6,$7,$8,$9,$2,$3,0*
0 Add four circle primitives for the rounded corners*
1,1,$1+$1,$2,$3*
1,1,$1+$1,$4,$5*
1,1,$1+$1,$6,$7*
1,1,$1+$1,$8,$9*
0 Add four rect primitives between the rounded corners*
20,1,$1+$1,$2,$3,$4,$5,0*
20,1,$1+$1,$4,$5,$6,$7,0*
20,1,$1+$1,$6,$7,$8,$9,0*
20,1,$1+$1,$8,$9,$2,$3,0*%
G04 Aperture macros list end*
%TA.AperFunction,SMDPad,CuDef*%
%ADD10R,0.482600X0.584200*%
%TD*%
%TA.AperFunction,SMDPad,CuDef*%
%ADD11R,0.482600X0.279400*%
%TD*%
%TA.AperFunction,SMDPad,CuDef*%
%ADD12R,0.330200X0.482600*%
%TD*%
%TA.AperFunction,SMDPad,CuDef*%
%ADD13R,3.400000X0.900000*%
%TD*%
%TA.AperFunction,SMDPad,CuDef*%
%ADD14R,1.500000X0.800000*%
%TD*%
%TA.AperFunction,SMDPad,CuDef*%
%ADD15RoundRect,0.225000X-0.225000X-0.250000X0.225000X-0.250000X0.225000X0.250000X-0.225000X0.250000X0*%
%TD*%
%TA.AperFunction,SMDPad,CuDef*%
%ADD16RoundRect,0.225000X0.225000X0.250000X-0.225000X0.250000X-0.225000X-0.250000X0.225000X-0.250000X0*%
%TD*%
%TA.AperFunction,SMDPad,CuDef*%
%ADD17RoundRect,0.200000X0.275000X-0.200000X0.275000X0.200000X-0.275000X0.200000X-0.275000X-0.200000X0*%
%TD*%
%TA.AperFunction,ViaPad*%
%ADD18C,0.600000*%
%TD*%
%TA.AperFunction,Conductor*%
%ADD19C,0.500000*%
%TD*%
%TA.AperFunction,Conductor*%
%ADD20C,0.600000*%
%TD*%
%TA.AperFunction,Conductor*%
%ADD21C,0.200000*%
%TD*%
%TA.AperFunction,Conductor*%
%ADD22C,0.400000*%
%TD*%
%TA.AperFunction,Conductor*%
%ADD23C,0.300000*%
%TD*%
G04 APERTURE END LIST*
D10*
%TO.P,J1,1,1*%
%TO.N,+5V*%
X41300000Y-74200000D03*
D11*
%TO.P,J1,2,2*%
%TO.N,/CH4*%
X41300000Y-74796800D03*
%TO.P,J1,3,3*%
%TO.N,/CH3*%
X41300000Y-75203200D03*
D10*
%TO.P,J1,4,4*%
%TO.N,GND*%
X41300000Y-75800000D03*
%TO.P,J1,5,5*%
%TO.N,+5V*%
X43700000Y-74200000D03*
D11*
%TO.P,J1,6,6*%
%TO.N,/CH1-IN*%
X43700000Y-74796800D03*
%TO.P,J1,7,7*%
%TO.N,/CH2*%
X43700000Y-75203200D03*
D10*
%TO.P,J1,8,8*%
%TO.N,GND*%
X43700000Y-75800000D03*
D12*
%TO.P,J1,9*%
%TO.N,N/C*%
X41223800Y-73469997D03*
%TO.P,J1,10*%
X41223800Y-76530003D03*
%TO.P,J1,11*%
X43776200Y-73469997D03*
%TO.P,J1,12*%
X43776200Y-76530003D03*
%TD*%
D13*
%TO.P,D4,1,VDD*%
%TO.N,+5V*%
X128500000Y-73700000D03*
D14*
%TO.P,D4,2,DOUT*%
%TO.N,/CH1-OUT*%
X129750000Y-75000000D03*
D13*
%TO.P,D4,3,VSS*%
%TO.N,GND*%
X128500000Y-76300000D03*
D14*
%TO.P,D4,4,DIN*%
%TO.N,/3-4*%
X127250000Y-75000000D03*
%TD*%
D15*
%TO.P,C2,1*%
%TO.N,GND*%
X123725000Y-73000000D03*
%TO.P,C2,2*%
%TO.N,+5V*%
X125275000Y-73000000D03*
%TD*%
D13*
%TO.P,D3,1,VDD*%
%TO.N,+5V*%
X103500000Y-73700000D03*
D14*
%TO.P,D3,2,DOUT*%
%TO.N,/3-4*%
X104750000Y-75000000D03*
D13*
%TO.P,D3,3,VSS*%
%TO.N,GND*%
X103500000Y-76300000D03*
D14*
%TO.P,D3,4,DIN*%
%TO.N,/2-3*%
X102250000Y-75000000D03*
%TD*%
D10*
%TO.P,J2,1,1*%
%TO.N,+5V*%
X136300000Y-74200000D03*
D11*
%TO.P,J2,2,2*%
%TO.N,/CH4*%
X136300000Y-74796800D03*
%TO.P,J2,3,3*%
%TO.N,/CH3*%
X136300000Y-75203200D03*
D10*
%TO.P,J2,4,4*%
%TO.N,GND*%
X136300000Y-75800000D03*
%TO.P,J2,5,5*%
%TO.N,+5V*%
X138700000Y-74200000D03*
D11*
%TO.P,J2,6,6*%
%TO.N,/CH1-OUT*%
X138700000Y-74796800D03*
%TO.P,J2,7,7*%
%TO.N,/CH2*%
X138700000Y-75203200D03*
D10*
%TO.P,J2,8,8*%
%TO.N,GND*%
X138700000Y-75800000D03*
D12*
%TO.P,J2,9*%
%TO.N,N/C*%
X136223800Y-73469997D03*
%TO.P,J2,10*%
X136223800Y-76530003D03*
%TO.P,J2,11*%
X138776200Y-73469997D03*
%TO.P,J2,12*%
X138776200Y-76530003D03*
%TD*%
D13*
%TO.P,D2,1,VDD*%
%TO.N,+5V*%
X78500000Y-73700000D03*
D14*
%TO.P,D2,2,DOUT*%
%TO.N,/2-3*%
X79750000Y-75000000D03*
D13*
%TO.P,D2,3,VSS*%
%TO.N,GND*%
X78500000Y-76300000D03*
D14*
%TO.P,D2,4,DIN*%
%TO.N,/1-2*%
X77250000Y-75000000D03*
%TD*%
D16*
%TO.P,C3,1*%
%TO.N,GND*%
X99000000Y-73000000D03*
%TO.P,C3,2*%
%TO.N,+5V*%
X97450000Y-73000000D03*
%TD*%
D17*
%TO.P,R1,1*%
%TO.N,/CH1-IN*%
X46750000Y-76575000D03*
%TO.P,R1,2*%
%TO.N,Net-(D1-DIN)*%
X46750000Y-74925000D03*
%TD*%
D15*
%TO.P,C1,1*%
%TO.N,GND*%
X73450000Y-73000000D03*
%TO.P,C1,2*%
%TO.N,+5V*%
X75000000Y-73000000D03*
%TD*%
D13*
%TO.P,D1,1,VDD*%
%TO.N,+5V*%
X53500000Y-73700000D03*
D14*
%TO.P,D1,2,DOUT*%
%TO.N,/1-2*%
X54750000Y-75000000D03*
D13*
%TO.P,D1,3,VSS*%
%TO.N,GND*%
X53500000Y-76300000D03*
D14*
%TO.P,D1,4,DIN*%
%TO.N,Net-(D1-DIN)*%
X52250000Y-75000000D03*
%TD*%
D18*
%TO.N,GND*%
X124500000Y-76300000D03*
X72500000Y-76300000D03*
X122500000Y-72900000D03*
X98500000Y-76300000D03*
X41800000Y-76500000D03*
X85000000Y-76300000D03*
X71825000Y-73000000D03*
X137000000Y-76300000D03*
X58000000Y-76300000D03*
X138200000Y-76200000D03*
X107000000Y-76300000D03*
X43000000Y-75500000D03*
X100025000Y-73000000D03*
X50000000Y-76300000D03*
%TO.N,+5V*%
X43000000Y-72200000D03*
X44850000Y-72650000D03*
X133500000Y-73700000D03*
X135658698Y-73700000D03*
%TO.N,/CH1-OUT*%
X137000000Y-75000000D03*
X135000000Y-75000000D03*
%TO.N,/CH3*%
X132500000Y-77000000D03*
X132000000Y-78200000D03*
%TD*%
D19*
%TO.N,+5V*%
X94000000Y-74000000D02*
X97500000Y-74000000D01*
X97500000Y-74000000D02*
X103200000Y-74000000D01*
X97450000Y-73000000D02*
X97450000Y-73950000D01*
X97450000Y-73950000D02*
X97500000Y-74000000D01*
D20*
%TO.N,GND*%
X72500000Y-76300000D02*
X85000000Y-76300000D01*
X58000000Y-76300000D02*
X72500000Y-76300000D01*
D19*
X100025000Y-73000000D02*
X99000000Y-73000000D01*
X43300000Y-75800000D02*
X43000000Y-75500000D01*
X138700000Y-75800000D02*
X138561297Y-75938703D01*
X138600000Y-75800000D02*
X138200000Y-76200000D01*
D20*
X113000000Y-76300000D02*
X124500000Y-76300000D01*
X124500000Y-76300000D02*
X130000000Y-76300000D01*
X107000000Y-76300000D02*
X110000000Y-76300000D01*
X50000000Y-76300000D02*
X58000000Y-76300000D01*
D19*
X137000000Y-76300000D02*
X136500000Y-75800000D01*
D20*
X98500000Y-76300000D02*
X85000000Y-76300000D01*
X110000000Y-76300000D02*
X113000000Y-76300000D01*
D21*
X136500000Y-75800000D02*
X136300000Y-75800000D01*
D20*
X98500000Y-76300000D02*
X107000000Y-76300000D01*
D19*
X138700000Y-75800000D02*
X138600000Y-75800000D01*
X41800000Y-75999803D02*
X41800000Y-76500000D01*
X41600197Y-75800000D02*
X41800000Y-75999803D01*
D21*
X136300000Y-75800000D02*
X136400000Y-75900000D01*
D19*
X41300000Y-75800000D02*
X41600197Y-75800000D01*
X123725000Y-72900000D02*
X122500000Y-72900000D01*
X73250000Y-73000000D02*
X71825000Y-73000000D01*
X43700000Y-75800000D02*
X43300000Y-75800000D01*
%TO.N,+5V*%
X125275000Y-73550000D02*
X125000000Y-73825000D01*
X138700000Y-74200000D02*
X135847403Y-74200000D01*
X135658698Y-73700000D02*
X135708700Y-73750002D01*
X135847403Y-74200000D02*
X136300000Y-74200000D01*
X43700000Y-74200000D02*
X44800000Y-74200000D01*
X103200000Y-74000000D02*
X103500000Y-73700000D01*
D20*
X46000000Y-73700000D02*
X45900000Y-73700000D01*
D19*
X78500000Y-73700000D02*
X78800000Y-74000000D01*
X125275000Y-73000000D02*
X126100000Y-73825000D01*
X78375000Y-73825000D02*
X78500000Y-73700000D01*
X135708700Y-74061297D02*
X135847403Y-74200000D01*
X74825000Y-74000000D02*
X75000000Y-73825000D01*
X41738900Y-73461100D02*
X41738900Y-74061297D01*
X75000000Y-73825000D02*
X78375000Y-73825000D01*
D20*
X46000000Y-73700000D02*
X53500000Y-73700000D01*
D19*
X125000000Y-73825000D02*
X126500000Y-73825000D01*
D20*
X45900000Y-73700000D02*
X44850000Y-72650000D01*
D19*
X43000000Y-72200000D02*
X41738900Y-73461100D01*
X103500000Y-73700000D02*
X103800000Y-74000000D01*
X70500000Y-74000000D02*
X74825000Y-74000000D01*
X53500000Y-73700000D02*
X70200000Y-73700000D01*
X133500000Y-73700000D02*
X130000000Y-73700000D01*
X135708700Y-73750002D02*
X135708700Y-74061297D01*
X75000000Y-73000000D02*
X75000000Y-73825000D01*
X126500000Y-73825000D02*
X128375000Y-73825000D01*
X45300000Y-73700000D02*
X46000000Y-73700000D01*
X70200000Y-73700000D02*
X70500000Y-74000000D01*
X41738900Y-74061297D02*
X41600197Y-74200000D01*
X78800000Y-74000000D02*
X94000000Y-74000000D01*
X44800000Y-74200000D02*
X45300000Y-73700000D01*
X41600197Y-74200000D02*
X41300000Y-74200000D01*
X128375000Y-73825000D02*
X128500000Y-73700000D01*
X103800000Y-74000000D02*
X124825000Y-74000000D01*
X125275000Y-73000000D02*
X125275000Y-73550000D01*
X126100000Y-73825000D02*
X126500000Y-73825000D01*
X124825000Y-74000000D02*
X125000000Y-73825000D01*
D22*
%TO.N,/1-2*%
X54750000Y-75000000D02*
X77250000Y-75000000D01*
D21*
%TO.N,/CH1-IN*%
X44700000Y-74800000D02*
X43703200Y-74800000D01*
D23*
X46475000Y-76575000D02*
X44700000Y-74800000D01*
X47000000Y-76575000D02*
X46475000Y-76575000D01*
D21*
X43703200Y-74800000D02*
X43700000Y-74796800D01*
D22*
%TO.N,/2-3*%
X79750000Y-75000000D02*
X102250000Y-75000000D01*
%TO.N,/3-4*%
X127050000Y-75000000D02*
X127250000Y-75200000D01*
X104750000Y-75000000D02*
X127050000Y-75000000D01*
D19*
%TO.N,/CH1-OUT*%
X129750000Y-75000000D02*
X134000000Y-75000000D01*
D21*
X137000000Y-75000000D02*
X137203200Y-74796800D01*
X137203200Y-74796800D02*
X138700000Y-74796800D01*
D23*
X134000000Y-75000000D02*
X135000000Y-75000000D01*
%TO.N,/CH3*%
X132000000Y-78200000D02*
X131850000Y-78350000D01*
X135446800Y-75403200D02*
X135596800Y-75403200D01*
X133850000Y-77000000D02*
X135446800Y-75403200D01*
X42700000Y-76100000D02*
X41786500Y-75186500D01*
X44050000Y-78350000D02*
X42700000Y-77000000D01*
D21*
X41803200Y-75203200D02*
X42500000Y-75900000D01*
D23*
X131850000Y-78350000D02*
X44050000Y-78350000D01*
D21*
X135796800Y-75203200D02*
X136300000Y-75203200D01*
D23*
X42700000Y-77000000D02*
X42700000Y-76100000D01*
X132500000Y-77000000D02*
X133850000Y-77000000D01*
D21*
X41300000Y-75203200D02*
X41803200Y-75203200D01*
X135596800Y-75403200D02*
X135796800Y-75203200D01*
D23*
X41786500Y-75186500D02*
X42500000Y-75900000D01*
D21*
%TO.N,/CH2*%
X43700000Y-75203200D02*
X44196800Y-75203200D01*
X44200000Y-75200000D02*
X44400000Y-75400000D01*
D23*
X138363400Y-75203200D02*
X138296800Y-75203200D01*
X137600000Y-77000000D02*
X137000000Y-77600000D01*
X44850000Y-77600000D02*
X44400000Y-77150000D01*
X44400000Y-77150000D02*
X44400000Y-75400000D01*
D21*
X138363400Y-75203200D02*
X138700000Y-75203200D01*
D23*
X138296800Y-75203200D02*
X137600000Y-75900000D01*
X137600000Y-75900000D02*
X137600000Y-77000000D01*
X137000000Y-77600000D02*
X44850000Y-77600000D01*
D21*
X44196800Y-75203200D02*
X44200000Y-75200000D01*
%TO.N,/CH4*%
X41903200Y-74796800D02*
X41300000Y-74796800D01*
D23*
X42400000Y-74000000D02*
X44600000Y-71800000D01*
D21*
X135737096Y-74796800D02*
X135370148Y-74429852D01*
D23*
X132600000Y-72200000D02*
X133140296Y-72200000D01*
X132200000Y-71800000D02*
X132600000Y-72200000D01*
D21*
X42400000Y-74300000D02*
X41903200Y-74796800D01*
X136300000Y-74796800D02*
X135737096Y-74796800D01*
D23*
X133140296Y-72200000D02*
X135370148Y-74429852D01*
X42400000Y-74300000D02*
X42400000Y-74000000D01*
X44600000Y-71800000D02*
X132200000Y-71800000D01*
%TO.N,Net-(D1-DIN)*%
X47200000Y-75000000D02*
X52250000Y-75000000D01*
X47000000Y-74800000D02*
X47200000Y-75000000D01*
%TD*%
M02*
