%TF.GenerationSoftware,KiCad,Pcbnew,8.0.6*%
%TF.CreationDate,2025-03-29T22:44:09+11:00*%
%TF.ProjectId,3332_25mm_v2,33333332-5f32-4356-9d6d-5f76322e6b69,rev?*%
%TF.SameCoordinates,Original*%
%TF.FileFunction,Soldermask,Top*%
%TF.FilePolarity,Negative*%
%FSLAX46Y46*%
G04 Gerber Fmt 4.6, Leading zero omitted, Abs format (unit mm)*
G04 Created by KiCad (PCBNEW 8.0.6) date 2025-03-29 22:44:09*
%MOMM*%
%LPD*%
G01*
G04 APERTURE LIST*
G04 Aperture macros list*
%AMRoundRect*
0 Rectangle with rounded corners*
0 $1 Rounding radius*
0 $2 $3 $4 $5 $6 $7 $8 $9 X,Y pos of 4 corners*
0 Add a 4 corners polygon primitive as box body*
4,1,4,$2,$3,$4,$5,$6,$7,$8,$9,$2,$3,0*
0 Add four circle primitives for the rounded corners*
1,1,$1+$1,$2,$3*
1,1,$1+$1,$4,$5*
1,1,$1+$1,$6,$7*
1,1,$1+$1,$8,$9*
0 Add four rect primitives between the rounded corners*
20,1,$1+$1,$2,$3,$4,$5,0*
20,1,$1+$1,$4,$5,$6,$7,0*
20,1,$1+$1,$6,$7,$8,$9,0*
20,1,$1+$1,$8,$9,$2,$3,0*%
G04 Aperture macros list end*
%ADD10R,0.482600X0.584200*%
%ADD11R,0.482600X0.279400*%
%ADD12R,0.330200X0.482600*%
%ADD13R,3.400000X0.900000*%
%ADD14R,1.500000X0.800000*%
%ADD15RoundRect,0.225000X-0.225000X-0.250000X0.225000X-0.250000X0.225000X0.250000X-0.225000X0.250000X0*%
%ADD16RoundRect,0.225000X0.225000X0.250000X-0.225000X0.250000X-0.225000X-0.250000X0.225000X-0.250000X0*%
%ADD17RoundRect,0.200000X0.275000X-0.200000X0.275000X0.200000X-0.275000X0.200000X-0.275000X-0.200000X0*%
G04 APERTURE END LIST*
D10*
%TO.C,J1*%
X41300000Y-74200000D03*
D11*
X41300000Y-74796800D03*
X41300000Y-75203200D03*
D10*
X41300000Y-75800000D03*
X43700000Y-74200000D03*
D11*
X43700000Y-74796800D03*
X43700000Y-75203200D03*
D10*
X43700000Y-75800000D03*
D12*
X41223800Y-73469997D03*
X41223800Y-76530003D03*
X43776200Y-73469997D03*
X43776200Y-76530003D03*
%TD*%
D13*
%TO.C,D4*%
X128500000Y-73700000D03*
D14*
X129750000Y-75000000D03*
D13*
X128500000Y-76300000D03*
D14*
X127250000Y-75000000D03*
%TD*%
D15*
%TO.C,C2*%
X123725000Y-73000000D03*
X125275000Y-73000000D03*
%TD*%
D13*
%TO.C,D3*%
X103500000Y-73700000D03*
D14*
X104750000Y-75000000D03*
D13*
X103500000Y-76300000D03*
D14*
X102250000Y-75000000D03*
%TD*%
D10*
%TO.C,J2*%
X136300000Y-74200000D03*
D11*
X136300000Y-74796800D03*
X136300000Y-75203200D03*
D10*
X136300000Y-75800000D03*
X138700000Y-74200000D03*
D11*
X138700000Y-74796800D03*
X138700000Y-75203200D03*
D10*
X138700000Y-75800000D03*
D12*
X136223800Y-73469997D03*
X136223800Y-76530003D03*
X138776200Y-73469997D03*
X138776200Y-76530003D03*
%TD*%
D13*
%TO.C,D2*%
X78500000Y-73700000D03*
D14*
X79750000Y-75000000D03*
D13*
X78500000Y-76300000D03*
D14*
X77250000Y-75000000D03*
%TD*%
D16*
%TO.C,C3*%
X99000000Y-73000000D03*
X97450000Y-73000000D03*
%TD*%
D17*
%TO.C,R1*%
X46750000Y-76575000D03*
X46750000Y-74925000D03*
%TD*%
D15*
%TO.C,C1*%
X73450000Y-73000000D03*
X75000000Y-73000000D03*
%TD*%
D13*
%TO.C,D1*%
X53500000Y-73700000D03*
D14*
X54750000Y-75000000D03*
D13*
X53500000Y-76300000D03*
D14*
X52250000Y-75000000D03*
%TD*%
M02*
