%TF.GenerationSoftware,KiCad,Pcbnew,8.0.6*%
%TF.CreationDate,2025-06-06T10:54:12+10:00*%
%TF.ProjectId,TestingStraight,54657374-696e-4675-9374-726169676874,rev?*%
%TF.SameCoordinates,Original*%
%TF.FileFunction,Profile,NP*%
%FSLAX46Y46*%
G04 Gerber Fmt 4.6, Leading zero omitted, Abs format (unit mm)*
G04 Created by KiCad (PCBNEW 8.0.6) date 2025-06-06 10:54:12*
%MOMM*%
%LPD*%
G01*
G04 APERTURE LIST*
%TA.AperFunction,Profile*%
%ADD10C,0.050000*%
%TD*%
%TA.AperFunction,Profile*%
%ADD11C,0.100000*%
%TD*%
G04 APERTURE END LIST*
D10*
X55000000Y-78500000D02*
G75*
G02*
X55250000Y-78250000I250000J0D01*
G01*
X114250000Y-71250000D02*
X114250000Y-71500000D01*
X121250000Y-71250000D02*
X121250000Y-71500000D01*
X114500000Y-71750000D02*
G75*
G02*
X114250000Y-71500000I0J250000D01*
G01*
X114500000Y-78250000D02*
X121000000Y-78250000D01*
X114250000Y-78500000D02*
G75*
G02*
X114500000Y-78250000I250000J0D01*
G01*
X62000000Y-78750000D02*
X62000000Y-78500000D01*
X121250000Y-71250000D02*
G75*
G02*
X121500000Y-71000000I250000J0D01*
G01*
X139500000Y-79000000D02*
X121500000Y-79000000D01*
X55250000Y-78250000D02*
X61750000Y-78250000D01*
X121000000Y-71750000D02*
X114500000Y-71750000D01*
X55000000Y-78750000D02*
G75*
G02*
X54750000Y-79000000I-250000J0D01*
G01*
X114250000Y-78750000D02*
X114250000Y-78500000D01*
X61750000Y-78250000D02*
G75*
G02*
X62000000Y-78500000I0J-250000D01*
G01*
X54750000Y-71000000D02*
G75*
G02*
X55000000Y-71250000I0J-250000D01*
G01*
X121250000Y-71500000D02*
G75*
G02*
X121000000Y-71750000I-250000J0D01*
G01*
X121250000Y-78750000D02*
X121250000Y-78500000D01*
X114000000Y-71000000D02*
G75*
G02*
X114250000Y-71250000I0J-250000D01*
G01*
X54750000Y-71000000D02*
X40500000Y-71000000D01*
X114250000Y-78750000D02*
G75*
G02*
X114000000Y-79000000I-250000J0D01*
G01*
D11*
X139500000Y-71000000D02*
X139500000Y-79000000D01*
X62250000Y-71000000D02*
X114000000Y-71000000D01*
D10*
X55250000Y-71750000D02*
G75*
G02*
X55000000Y-71500000I0J250000D01*
G01*
X61750000Y-71750000D02*
X55250000Y-71750000D01*
X54750000Y-79000000D02*
X40500000Y-79000000D01*
X121500000Y-79000000D02*
G75*
G02*
X121250000Y-78750000I0J250000D01*
G01*
D11*
X40500000Y-79000000D02*
X40500000Y-71000000D01*
D10*
X62000000Y-71250000D02*
G75*
G02*
X62250000Y-71000000I250000J0D01*
G01*
X55000000Y-71250000D02*
X55000000Y-71500000D01*
X62000000Y-71500000D02*
G75*
G02*
X61750000Y-71750000I-250000J0D01*
G01*
X55000000Y-78750000D02*
X55000000Y-78500000D01*
X139500000Y-71000000D02*
X121500000Y-71000000D01*
X121000000Y-78250000D02*
G75*
G02*
X121250000Y-78500000I0J-250000D01*
G01*
X62250000Y-79000000D02*
G75*
G02*
X62000000Y-78750000I0J250000D01*
G01*
X62000000Y-71250000D02*
X62000000Y-71500000D01*
D11*
X114000000Y-79000000D02*
X62250000Y-79000000D01*
M02*
