M48
; DRILL file {KiCad 8.0.6} date 2025-06-06T10:54:12+1000
; FORMAT={-:-/ absolute / inch / decimal}
; #@! TF.CreationDate,2025-06-06T10:54:12+10:00
; #@! TF.GenerationSoftware,Kicad,Pcbnew,8.0.6
; #@! TF.FileFunction,Plated,1,2,PTH
FMAT,2
INCH
; #@! TA.AperFunction,Plated,PTH,ViaDrill
T1C0.0118
%
G90
G05
T1
X1.6457Y-3.0118
X1.6929Y-2.8425
X1.6929Y-2.9724
X1.7657Y-2.8602
X2.1063Y-3.0039
X2.4114Y-2.8937
X2.5591Y-3.0039
X2.8543Y-3.0039
X3.3465Y-3.0039
X3.7008Y-3.0039
X3.8602Y-2.874
X4.2126Y-3.0039
X4.4488Y-3.0039
X4.878Y-2.8701
X5.0Y-3.0039
X5.1969Y-3.0787
X5.2165Y-3.0315
X5.2559Y-2.9016
X5.315Y-2.9528
X5.3409Y-2.9016
X5.3937Y-2.9528
X5.3937Y-3.0039
X5.4409Y-3.0
M30
