M48
; DRILL file {KiCad 8.0.6} date 2025-03-29T22:35:30+1100
; FORMAT={-:-/ absolute / inch / decimal}
; #@! TF.CreationDate,2025-03-29T22:35:30+11:00
; #@! TF.GenerationSoftware,Kicad,Pcbnew,8.0.6
; #@! TF.FileFunction,Plated,1,2,PTH
FMAT,2
INCH
; #@! TA.AperFunction,Plated,PTH,ViaDrill
T1C0.0118
%
G90
G05
T1
X1.6457Y-3.0118
X1.6929Y-2.8425
X1.6929Y-2.9724
X1.7657Y-2.8602
X2.0276Y-3.0039
X2.1811Y-2.874
X2.4213Y-3.0039
X2.6969Y-3.0039
X2.8425Y-2.8661
X3.0709Y-3.0039
X3.3465Y-3.0039
X3.7402Y-3.0039
X3.9961Y-3.0039
X4.3031Y-2.878
X4.3898Y-3.0039
X4.6457Y-3.0039
X4.9567Y-2.8701
X5.0591Y-3.0039
X5.2559Y-3.0768
X5.2756Y-3.0315
X5.2953Y-2.9016
X5.315Y-2.9528
X5.3409Y-2.9016
X5.3937Y-2.9528
X5.3937Y-3.0039
X5.4409Y-3.0
M30
