%TF.GenerationSoftware,KiCad,Pcbnew,8.0.6*%
%TF.CreationDate,2025-03-29T22:35:30+11:00*%
%TF.ProjectId,3332_16mm,33333332-5f31-4366-9d6d-2e6b69636164,rev?*%
%TF.SameCoordinates,Original*%
%TF.FileFunction,Copper,L1,Top*%
%TF.FilePolarity,Positive*%
%FSLAX46Y46*%
G04 Gerber Fmt 4.6, Leading zero omitted, Abs format (unit mm)*
G04 Created by KiCad (PCBNEW 8.0.6) date 2025-03-29 22:35:30*
%MOMM*%
%LPD*%
G01*
G04 APERTURE LIST*
G04 Aperture macros list*
%AMRoundRect*
0 Rectangle with rounded corners*
0 $1 Rounding radius*
0 $2 $3 $4 $5 $6 $7 $8 $9 X,Y pos of 4 corners*
0 Add a 4 corners polygon primitive as box body*
4,1,4,$2,$3,$4,$5,$6,$7,$8,$9,$2,$3,0*
0 Add four circle primitives for the rounded corners*
1,1,$1+$1,$2,$3*
1,1,$1+$1,$4,$5*
1,1,$1+$1,$6,$7*
1,1,$1+$1,$8,$9*
0 Add four rect primitives between the rounded corners*
20,1,$1+$1,$2,$3,$4,$5,0*
20,1,$1+$1,$4,$5,$6,$7,0*
20,1,$1+$1,$6,$7,$8,$9,0*
20,1,$1+$1,$8,$9,$2,$3,0*%
G04 Aperture macros list end*
%TA.AperFunction,SMDPad,CuDef*%
%ADD10R,0.482600X0.584200*%
%TD*%
%TA.AperFunction,SMDPad,CuDef*%
%ADD11R,0.482600X0.279400*%
%TD*%
%TA.AperFunction,SMDPad,CuDef*%
%ADD12R,0.330200X0.482600*%
%TD*%
%TA.AperFunction,SMDPad,CuDef*%
%ADD13R,3.400000X0.900000*%
%TD*%
%TA.AperFunction,SMDPad,CuDef*%
%ADD14R,1.500000X0.800000*%
%TD*%
%TA.AperFunction,SMDPad,CuDef*%
%ADD15RoundRect,0.225000X0.225000X0.250000X-0.225000X0.250000X-0.225000X-0.250000X0.225000X-0.250000X0*%
%TD*%
%TA.AperFunction,SMDPad,CuDef*%
%ADD16RoundRect,0.200000X-0.275000X0.200000X-0.275000X-0.200000X0.275000X-0.200000X0.275000X0.200000X0*%
%TD*%
%TA.AperFunction,SMDPad,CuDef*%
%ADD17RoundRect,0.225000X-0.225000X-0.250000X0.225000X-0.250000X0.225000X0.250000X-0.225000X0.250000X0*%
%TD*%
%TA.AperFunction,ViaPad*%
%ADD18C,0.600000*%
%TD*%
%TA.AperFunction,Conductor*%
%ADD19C,0.500000*%
%TD*%
%TA.AperFunction,Conductor*%
%ADD20C,0.600000*%
%TD*%
%TA.AperFunction,Conductor*%
%ADD21C,0.200000*%
%TD*%
%TA.AperFunction,Conductor*%
%ADD22C,0.300000*%
%TD*%
%TA.AperFunction,Conductor*%
%ADD23C,0.400000*%
%TD*%
G04 APERTURE END LIST*
D10*
%TO.P,J1,1,1*%
%TO.N,+5V*%
X41300000Y-74200000D03*
D11*
%TO.P,J1,2,2*%
%TO.N,/CH4*%
X41300000Y-74796800D03*
%TO.P,J1,3,3*%
%TO.N,/CH3*%
X41300000Y-75203200D03*
D10*
%TO.P,J1,4,4*%
%TO.N,GND*%
X41300000Y-75800000D03*
%TO.P,J1,5,5*%
%TO.N,+5V*%
X43700000Y-74200000D03*
D11*
%TO.P,J1,6,6*%
%TO.N,/CH1-IN*%
X43700000Y-74796800D03*
%TO.P,J1,7,7*%
%TO.N,/CH2*%
X43700000Y-75203200D03*
D10*
%TO.P,J1,8,8*%
%TO.N,GND*%
X43700000Y-75800000D03*
D12*
%TO.P,J1,9*%
%TO.N,N/C*%
X41223800Y-73469997D03*
%TO.P,J1,10*%
X41223800Y-76530003D03*
%TO.P,J1,11*%
X43776200Y-73469997D03*
%TO.P,J1,12*%
X43776200Y-76530003D03*
%TD*%
D13*
%TO.P,D5,1,VDD*%
%TO.N,+5V*%
X115000000Y-73700000D03*
D14*
%TO.P,D5,2,DOUT*%
%TO.N,/5-6*%
X116250000Y-75000000D03*
D13*
%TO.P,D5,3,VSS*%
%TO.N,GND*%
X115000000Y-76300000D03*
D14*
%TO.P,D5,4,DIN*%
%TO.N,/4-5*%
X113750000Y-75000000D03*
%TD*%
D15*
%TO.P,C2,1*%
%TO.N,GND*%
X120275000Y-72900000D03*
%TO.P,C2,2*%
%TO.N,+5V*%
X118725000Y-72900000D03*
%TD*%
D13*
%TO.P,D3,1,VDD*%
%TO.N,+5V*%
X81666667Y-73700000D03*
D14*
%TO.P,D3,2,DOUT*%
%TO.N,/3-4*%
X82916667Y-75000000D03*
D13*
%TO.P,D3,3,VSS*%
%TO.N,GND*%
X81666667Y-76300000D03*
D14*
%TO.P,D3,4,DIN*%
%TO.N,/2-3*%
X80416667Y-75000000D03*
%TD*%
D10*
%TO.P,J2,1,1*%
%TO.N,+5V*%
X136300000Y-74200000D03*
D11*
%TO.P,J2,2,2*%
%TO.N,/CH4*%
X136300000Y-74796800D03*
%TO.P,J2,3,3*%
%TO.N,/CH3*%
X136300000Y-75203200D03*
D10*
%TO.P,J2,4,4*%
%TO.N,GND*%
X136300000Y-75800000D03*
%TO.P,J2,5,5*%
%TO.N,+5V*%
X138700000Y-74200000D03*
D11*
%TO.P,J2,6,6*%
%TO.N,/CH1-OUT*%
X138700000Y-74796800D03*
%TO.P,J2,7,7*%
%TO.N,/CH2*%
X138700000Y-75203200D03*
D10*
%TO.P,J2,8,8*%
%TO.N,GND*%
X138700000Y-75800000D03*
D12*
%TO.P,J2,9*%
%TO.N,N/C*%
X136223800Y-73469997D03*
%TO.P,J2,10*%
X136223800Y-76530003D03*
%TO.P,J2,11*%
X138776200Y-73469997D03*
%TO.P,J2,12*%
X138776200Y-76530003D03*
%TD*%
D13*
%TO.P,D6,1,VDD*%
%TO.N,+5V*%
X131666667Y-73700000D03*
D14*
%TO.P,D6,2,DOUT*%
%TO.N,/CH1-OUT*%
X132916667Y-75000000D03*
D13*
%TO.P,D6,3,VSS*%
%TO.N,GND*%
X131666667Y-76300000D03*
D14*
%TO.P,D6,4,DIN*%
%TO.N,/5-6*%
X130416667Y-75000000D03*
%TD*%
D13*
%TO.P,D2,1,VDD*%
%TO.N,+5V*%
X65000000Y-73700000D03*
D14*
%TO.P,D2,2,DOUT*%
%TO.N,/2-3*%
X66250000Y-75000000D03*
D13*
%TO.P,D2,3,VSS*%
%TO.N,GND*%
X65000000Y-76300000D03*
D14*
%TO.P,D2,4,DIN*%
%TO.N,/1-2*%
X63750000Y-75000000D03*
%TD*%
D15*
%TO.P,C3,1*%
%TO.N,GND*%
X103900000Y-73100000D03*
%TO.P,C3,2*%
%TO.N,+5V*%
X102350000Y-73100000D03*
%TD*%
%TO.P,C4,1*%
%TO.N,+5V*%
X61550000Y-73000000D03*
%TO.P,C4,2*%
%TO.N,GND*%
X60000000Y-73000000D03*
%TD*%
D13*
%TO.P,D4,1,VDD*%
%TO.N,+5V*%
X98333333Y-73700000D03*
D14*
%TO.P,D4,2,DOUT*%
%TO.N,/4-5*%
X99583333Y-75000000D03*
D13*
%TO.P,D4,3,VSS*%
%TO.N,GND*%
X98333333Y-76300000D03*
D14*
%TO.P,D4,4,DIN*%
%TO.N,/3-4*%
X97083333Y-75000000D03*
%TD*%
D16*
%TO.P,R1,1*%
%TO.N,/CH1-IN*%
X45200000Y-75175000D03*
%TO.P,R1,2*%
%TO.N,Net-(D1-DIN)*%
X45200000Y-76825000D03*
%TD*%
D17*
%TO.P,C1,1*%
%TO.N,GND*%
X76800000Y-72800000D03*
%TO.P,C1,2*%
%TO.N,+5V*%
X78350000Y-72800000D03*
%TD*%
D13*
%TO.P,D1,1,VDD*%
%TO.N,+5V*%
X48333333Y-73700000D03*
D14*
%TO.P,D1,2,DOUT*%
%TO.N,/1-2*%
X49583333Y-75000000D03*
D13*
%TO.P,D1,3,VSS*%
%TO.N,GND*%
X48333333Y-76300000D03*
D14*
%TO.P,D1,4,DIN*%
%TO.N,Net-(D1-DIN)*%
X47083333Y-75000000D03*
%TD*%
D18*
%TO.N,GND*%
X55400000Y-73000000D03*
X111500000Y-76300000D03*
X118000000Y-76300000D03*
X51500000Y-76300000D03*
X68500000Y-76300000D03*
X41800000Y-76500000D03*
X109300000Y-73100000D03*
X137000000Y-76300000D03*
X125900000Y-72900000D03*
X138200000Y-76200000D03*
X128500000Y-76300000D03*
X43000000Y-75500000D03*
X72200000Y-72800000D03*
X101500000Y-76300000D03*
X78000000Y-76300000D03*
X95000000Y-76300000D03*
X61500000Y-76300000D03*
X85000000Y-76300000D03*
%TO.N,+5V*%
X43000000Y-72200000D03*
X44850000Y-72650000D03*
X134500000Y-73700000D03*
X135658698Y-73700000D03*
%TO.N,/CH1-OUT*%
X137000000Y-75000000D03*
X135000000Y-75000000D03*
%TO.N,/CH3*%
X134000000Y-77000000D03*
X133500000Y-78150000D03*
%TD*%
D19*
%TO.N,GND*%
X51500000Y-76300000D02*
X61500000Y-76300000D01*
D20*
X120275000Y-72900000D02*
X125900000Y-72900000D01*
X103900000Y-73100000D02*
X109300000Y-73100000D01*
D19*
X101500000Y-76300000D02*
X111500000Y-76300000D01*
D20*
X60000000Y-73000000D02*
X55400000Y-73000000D01*
D19*
X43300000Y-75800000D02*
X43000000Y-75500000D01*
X138700000Y-75800000D02*
X138561297Y-75938703D01*
X138600000Y-75800000D02*
X138200000Y-76200000D01*
X118000000Y-76300000D02*
X128500000Y-76300000D01*
X111500000Y-76300000D02*
X115000000Y-76300000D01*
X78000000Y-76300000D02*
X81666667Y-76300000D01*
X65000000Y-76300000D02*
X68500000Y-76300000D01*
X85000000Y-76300000D02*
X95000000Y-76300000D01*
X61500000Y-76300000D02*
X65000000Y-76300000D01*
X137000000Y-76300000D02*
X136500000Y-75800000D01*
X128500000Y-76300000D02*
X131666667Y-76300000D01*
D21*
X136500000Y-75800000D02*
X136300000Y-75800000D01*
D19*
X138700000Y-75800000D02*
X138600000Y-75800000D01*
X41800000Y-75999803D02*
X41800000Y-76500000D01*
X115000000Y-76300000D02*
X118000000Y-76300000D01*
X41600197Y-75800000D02*
X41800000Y-75999803D01*
X81666667Y-76300000D02*
X85000000Y-76300000D01*
X98333333Y-76300000D02*
X101500000Y-76300000D01*
D21*
X136300000Y-75800000D02*
X136400000Y-75900000D01*
D19*
X95000000Y-76300000D02*
X98333333Y-76300000D01*
D20*
X76800000Y-72800000D02*
X72200000Y-72800000D01*
D19*
X41300000Y-75800000D02*
X41600197Y-75800000D01*
X68500000Y-76300000D02*
X78000000Y-76300000D01*
X43700000Y-75800000D02*
X43300000Y-75800000D01*
X48333333Y-76300000D02*
X51500000Y-76300000D01*
%TO.N,+5V*%
X79300000Y-73700000D02*
X79600000Y-73700000D01*
X138700000Y-74200000D02*
X135847403Y-74200000D01*
X135658698Y-73700000D02*
X135708700Y-73750002D01*
X135847403Y-74200000D02*
X136300000Y-74200000D01*
X115000000Y-73700000D02*
X112400000Y-73700000D01*
X129100000Y-73700000D02*
X128700000Y-74100000D01*
X43700000Y-74200000D02*
X44800000Y-74200000D01*
D20*
X46000000Y-73700000D02*
X45900000Y-73700000D01*
D19*
X117400000Y-73700000D02*
X115000000Y-73700000D01*
D20*
X118200000Y-72900000D02*
X117400000Y-73700000D01*
D19*
X67400000Y-73700000D02*
X67800000Y-74100000D01*
X135708700Y-74061297D02*
X135847403Y-74200000D01*
X95900000Y-73700000D02*
X98333333Y-73700000D01*
D20*
X78700000Y-72800000D02*
X79600000Y-73700000D01*
D19*
X41738900Y-73461100D02*
X41738900Y-74061297D01*
X48333333Y-73700000D02*
X51100000Y-73700000D01*
X79600000Y-73700000D02*
X81666667Y-73700000D01*
X101500000Y-74100000D02*
X101100000Y-73700000D01*
X84500000Y-74100000D02*
X95500000Y-74100000D01*
X101100000Y-73700000D02*
X98333333Y-73700000D01*
D20*
X45900000Y-73700000D02*
X44850000Y-72650000D01*
D19*
X43000000Y-72200000D02*
X41738900Y-73461100D01*
X128700000Y-74100000D02*
X117800000Y-74100000D01*
D20*
X61550000Y-73000000D02*
X62000000Y-73000000D01*
D19*
X67800000Y-74100000D02*
X78900000Y-74100000D01*
X131666667Y-73700000D02*
X134500000Y-73700000D01*
D20*
X62000000Y-73000000D02*
X62700000Y-73700000D01*
D19*
X135708700Y-73750002D02*
X135708700Y-74061297D01*
D20*
X118725000Y-72900000D02*
X118200000Y-72900000D01*
D19*
X84100000Y-73700000D02*
X84500000Y-74100000D01*
X112000000Y-74100000D02*
X101500000Y-74100000D01*
X46000000Y-73700000D02*
X48333333Y-73700000D01*
X45300000Y-73700000D02*
X46000000Y-73700000D01*
X41738900Y-74061297D02*
X41600197Y-74200000D01*
X131666667Y-73700000D02*
X129100000Y-73700000D01*
D20*
X78350000Y-72800000D02*
X78700000Y-72800000D01*
D19*
X51100000Y-73700000D02*
X51600000Y-74200000D01*
X51600000Y-74200000D02*
X62200000Y-74200000D01*
X117800000Y-74100000D02*
X117400000Y-73700000D01*
X95500000Y-74100000D02*
X95900000Y-73700000D01*
D20*
X101700000Y-73100000D02*
X101100000Y-73700000D01*
D19*
X44800000Y-74200000D02*
X45300000Y-73700000D01*
X41600197Y-74200000D02*
X41300000Y-74200000D01*
X112400000Y-73700000D02*
X112000000Y-74100000D01*
X78900000Y-74100000D02*
X79300000Y-73700000D01*
X81666667Y-73700000D02*
X84100000Y-73700000D01*
D20*
X102350000Y-73100000D02*
X101700000Y-73100000D01*
D19*
X65000000Y-73700000D02*
X67400000Y-73700000D01*
X62700000Y-73700000D02*
X65000000Y-73700000D01*
X62200000Y-74200000D02*
X62700000Y-73700000D01*
%TO.N,/1-2*%
X49583333Y-75000000D02*
X63750000Y-75000000D01*
D21*
%TO.N,/CH1-IN*%
X44700000Y-74800000D02*
X43703200Y-74800000D01*
D22*
X45000000Y-75100000D02*
X44700000Y-74800000D01*
D21*
X43703200Y-74800000D02*
X43700000Y-74796800D01*
D19*
%TO.N,/2-3*%
X80416667Y-75000000D02*
X66250000Y-75000000D01*
%TO.N,/3-4*%
X82916667Y-75000000D02*
X97083333Y-75000000D01*
%TO.N,/4-5*%
X99583333Y-75000000D02*
X113750000Y-75000000D01*
D21*
%TO.N,/CH1-OUT*%
X137000000Y-75000000D02*
X137203200Y-74796800D01*
X137203200Y-74796800D02*
X138700000Y-74796800D01*
D22*
X135000000Y-75000000D02*
X132916667Y-75000000D01*
%TO.N,/CH3*%
X133300000Y-78350000D02*
X133500000Y-78150000D01*
X42700000Y-77000000D02*
X44050000Y-78350000D01*
D21*
X41803200Y-75203200D02*
X42500000Y-75900000D01*
D22*
X42700000Y-76100000D02*
X42700000Y-77000000D01*
D21*
X135796800Y-75203200D02*
X136300000Y-75203200D01*
D22*
X42500000Y-75900000D02*
X42700000Y-76100000D01*
D21*
X41300000Y-75203200D02*
X41803200Y-75203200D01*
X135596800Y-75403200D02*
X135796800Y-75203200D01*
D22*
X44050000Y-78350000D02*
X133300000Y-78350000D01*
X134000000Y-77000000D02*
X135596800Y-75403200D01*
%TO.N,/CH2*%
X44858062Y-77600000D02*
X137000000Y-77600000D01*
X138296800Y-75203200D02*
X138363400Y-75203200D01*
X44300000Y-75700000D02*
X44300000Y-77041938D01*
X137600000Y-75900000D02*
X138296800Y-75203200D01*
D21*
X44300000Y-75416600D02*
X44086600Y-75203200D01*
D22*
X137000000Y-77600000D02*
X137600000Y-77000000D01*
X44300000Y-77041938D02*
X44858062Y-77600000D01*
D21*
X44086600Y-75203200D02*
X43700000Y-75203200D01*
X138363400Y-75203200D02*
X138700000Y-75203200D01*
D22*
X137600000Y-77000000D02*
X137600000Y-75900000D01*
D21*
X44300000Y-75700000D02*
X44300000Y-75416600D01*
%TO.N,/CH4*%
X41903200Y-74796800D02*
X41300000Y-74796800D01*
D22*
X42400000Y-74000000D02*
X44600000Y-71800000D01*
X133800000Y-71800000D02*
X135108698Y-73108698D01*
X132200000Y-71800000D02*
X133800000Y-71800000D01*
D21*
X135737096Y-74796800D02*
X135370148Y-74429852D01*
X42400000Y-74300000D02*
X41903200Y-74796800D01*
D22*
X135108698Y-74168402D02*
X135370148Y-74429852D01*
D21*
X136300000Y-74796800D02*
X135737096Y-74796800D01*
D22*
X135108698Y-73108698D02*
X135108698Y-74168402D01*
X42400000Y-74300000D02*
X42400000Y-74000000D01*
X44600000Y-71800000D02*
X132200000Y-71800000D01*
D23*
%TO.N,Net-(D1-DIN)*%
X45200000Y-76825000D02*
X45200000Y-76500000D01*
X45200000Y-76500000D02*
X46700000Y-75000000D01*
X46700000Y-75000000D02*
X47083333Y-75000000D01*
D19*
%TO.N,/5-6*%
X116250000Y-75000000D02*
X130416667Y-75000000D01*
%TD*%
M02*
