%TF.GenerationSoftware,KiCad,Pcbnew,8.0.6*%
%TF.CreationDate,2025-04-01T14:48:14+11:00*%
%TF.ProjectId,testingstencil,74657374-696e-4677-9374-656e63696c2e,rev?*%
%TF.SameCoordinates,Original*%
%TF.FileFunction,Profile,NP*%
%FSLAX46Y46*%
G04 Gerber Fmt 4.6, Leading zero omitted, Abs format (unit mm)*
G04 Created by KiCad (PCBNEW 8.0.6) date 2025-04-01 14:48:14*
%MOMM*%
%LPD*%
G01*
G04 APERTURE LIST*
%TA.AperFunction,Profile*%
%ADD10C,0.050000*%
%TD*%
%TA.AperFunction,Profile*%
%ADD11C,0.100000*%
%TD*%
G04 APERTURE END LIST*
D10*
X30850000Y-15000000D02*
G75*
G02*
X31100000Y-14750000I250000J0D01*
G01*
X30600000Y-7500000D02*
X16350000Y-7500000D01*
X115350000Y-15500000D02*
X97350000Y-15500000D01*
X37850000Y-7750000D02*
G75*
G02*
X38100000Y-7500000I250000J0D01*
G01*
X90350000Y-14750000D02*
X96850000Y-14750000D01*
X31100000Y-8250000D02*
G75*
G02*
X30850000Y-8000000I0J250000D01*
G01*
D11*
X38100000Y-7500000D02*
X89850000Y-7500000D01*
D10*
X38100000Y-15500000D02*
G75*
G02*
X37850000Y-15250000I0J250000D01*
G01*
X96850000Y-8250000D02*
X90350000Y-8250000D01*
X37600000Y-8250000D02*
X31100000Y-8250000D01*
X115350000Y-7500000D02*
X97350000Y-7500000D01*
X37850000Y-7750000D02*
X37850000Y-8000000D01*
X97100000Y-7750000D02*
G75*
G02*
X97350000Y-7500000I250000J0D01*
G01*
X30850000Y-7750000D02*
X30850000Y-8000000D01*
X37850000Y-15250000D02*
X37850000Y-15000000D01*
X16884314Y-70150000D02*
X115884314Y-70150000D01*
X115884314Y-78150000D01*
X16884314Y-78150000D01*
X16884314Y-70150000D01*
D11*
X115350000Y-7500000D02*
X115350000Y-15500000D01*
D10*
X90350000Y-8250000D02*
G75*
G02*
X90100000Y-8000000I0J250000D01*
G01*
X89850000Y-7500000D02*
G75*
G02*
X90100000Y-7750000I0J-250000D01*
G01*
X16775000Y-112600000D02*
X115775000Y-112600000D01*
X115775000Y-120600000D01*
X16775000Y-120600000D01*
X16775000Y-112600000D01*
D11*
X89850000Y-15500000D02*
X38100000Y-15500000D01*
X16350000Y-15500000D02*
X16350000Y-7500000D01*
D10*
X16684314Y-91450000D02*
X115684314Y-91450000D01*
X115684314Y-99450000D01*
X16684314Y-99450000D01*
X16684314Y-91450000D01*
X31100000Y-14750000D02*
X37600000Y-14750000D01*
X97100000Y-7750000D02*
X97100000Y-8000000D01*
X16400000Y-28450000D02*
X115400000Y-28450000D01*
X115400000Y-36450000D01*
X16400000Y-36450000D01*
X16400000Y-28450000D01*
X30600000Y-7500000D02*
G75*
G02*
X30850000Y-7750000I0J-250000D01*
G01*
X90100000Y-15250000D02*
X90100000Y-15000000D01*
X30850000Y-15250000D02*
X30850000Y-15000000D01*
X97350000Y-15500000D02*
G75*
G02*
X97100000Y-15250000I0J250000D01*
G01*
X37850000Y-8000000D02*
G75*
G02*
X37600000Y-8250000I-250000J0D01*
G01*
X16800000Y-49500000D02*
X115800000Y-49500000D01*
X115800000Y-57500000D01*
X16800000Y-57500000D01*
X16800000Y-49500000D01*
X97100000Y-8000000D02*
G75*
G02*
X96850000Y-8250000I-250000J0D01*
G01*
X97100000Y-15250000D02*
X97100000Y-15000000D01*
X90100000Y-15250000D02*
G75*
G02*
X89850000Y-15500000I-250000J0D01*
G01*
X90100000Y-7750000D02*
X90100000Y-8000000D01*
X37600000Y-14750000D02*
G75*
G02*
X37850000Y-15000000I0J-250000D01*
G01*
X90100000Y-15000000D02*
G75*
G02*
X90350000Y-14750000I250000J0D01*
G01*
X30600000Y-15500000D02*
X16350000Y-15500000D01*
X30850000Y-15250000D02*
G75*
G02*
X30600000Y-15500000I-250000J0D01*
G01*
X96850000Y-14750000D02*
G75*
G02*
X97100000Y-15000000I0J-250000D01*
G01*
M02*
