%TF.GenerationSoftware,KiCad,Pcbnew,8.0.6*%
%TF.CreationDate,2025-04-01T14:48:14+11:00*%
%TF.ProjectId,testingstencil,74657374-696e-4677-9374-656e63696c2e,rev?*%
%TF.SameCoordinates,Original*%
%TF.FileFunction,Soldermask,Top*%
%TF.FilePolarity,Negative*%
%FSLAX46Y46*%
G04 Gerber Fmt 4.6, Leading zero omitted, Abs format (unit mm)*
G04 Created by KiCad (PCBNEW 8.0.6) date 2025-04-01 14:48:14*
%MOMM*%
%LPD*%
G01*
G04 APERTURE LIST*
G04 Aperture macros list*
%AMRoundRect*
0 Rectangle with rounded corners*
0 $1 Rounding radius*
0 $2 $3 $4 $5 $6 $7 $8 $9 X,Y pos of 4 corners*
0 Add a 4 corners polygon primitive as box body*
4,1,4,$2,$3,$4,$5,$6,$7,$8,$9,$2,$3,0*
0 Add four circle primitives for the rounded corners*
1,1,$1+$1,$2,$3*
1,1,$1+$1,$4,$5*
1,1,$1+$1,$6,$7*
1,1,$1+$1,$8,$9*
0 Add four rect primitives between the rounded corners*
20,1,$1+$1,$2,$3,$4,$5,0*
20,1,$1+$1,$4,$5,$6,$7,0*
20,1,$1+$1,$6,$7,$8,$9,0*
20,1,$1+$1,$8,$9,$2,$3,0*%
%AMRotRect*
0 Rectangle, with rotation*
0 The origin of the aperture is its center*
0 $1 length*
0 $2 width*
0 $3 Rotation angle, in degrees counterclockwise*
0 Add horizontal line*
21,1,$1,$2,0,0,$3*%
G04 Aperture macros list end*
%ADD10RoundRect,0.090000X-0.660000X-0.360000X0.660000X-0.360000X0.660000X0.360000X-0.660000X0.360000X0*%
%ADD11R,3.400000X0.900000*%
%ADD12R,1.500000X0.800000*%
%ADD13RoundRect,0.225000X-0.225000X-0.250000X0.225000X-0.250000X0.225000X0.250000X-0.225000X0.250000X0*%
%ADD14R,0.279400X0.406400*%
%ADD15R,0.660400X0.406400*%
%ADD16R,0.406400X0.279400*%
%ADD17R,0.406400X0.660400*%
%ADD18R,0.482600X0.584200*%
%ADD19R,0.482600X0.279400*%
%ADD20R,0.330200X0.482600*%
%ADD21RoundRect,0.225000X-0.250000X0.225000X-0.250000X-0.225000X0.250000X-0.225000X0.250000X0.225000X0*%
%ADD22RoundRect,0.225000X0.225000X0.250000X-0.225000X0.250000X-0.225000X-0.250000X0.225000X-0.250000X0*%
%ADD23RotRect,0.279400X0.406400X240.000000*%
%ADD24RotRect,0.660400X0.406400X240.000000*%
%ADD25RoundRect,0.200000X0.275000X-0.200000X0.275000X0.200000X-0.275000X0.200000X-0.275000X-0.200000X0*%
%ADD26RotRect,0.279400X0.406400X255.000000*%
%ADD27RotRect,0.660400X0.406400X255.000000*%
%ADD28RoundRect,0.200000X0.200000X0.275000X-0.200000X0.275000X-0.200000X-0.275000X0.200000X-0.275000X0*%
%ADD29RoundRect,0.200000X-0.275000X0.200000X-0.275000X-0.200000X0.275000X-0.200000X0.275000X0.200000X0*%
%ADD30C,0.600000*%
G04 APERTURE END LIST*
D10*
%TO.C,D5*%
X88934314Y-72500000D03*
X88934314Y-75800000D03*
X93834314Y-75800000D03*
X93834314Y-72500000D03*
%TD*%
D11*
%TO.C,D3*%
X139700000Y-114900000D03*
D12*
X140950000Y-116200000D03*
D11*
X139700000Y-117500000D03*
D12*
X138450000Y-116200000D03*
%TD*%
D13*
%TO.C,C2*%
X51984314Y-72850000D03*
X53534314Y-72850000D03*
%TD*%
%TO.C,C1*%
X53100000Y-51300000D03*
X54650000Y-51300000D03*
%TD*%
D11*
%TO.C,D3*%
X57966667Y-52200000D03*
D12*
X59216667Y-53500000D03*
D11*
X57966667Y-54800000D03*
D12*
X56716667Y-53500000D03*
%TD*%
D11*
%TO.C,D4*%
X74633333Y-52200000D03*
D12*
X75883333Y-53500000D03*
D11*
X74633333Y-54800000D03*
D12*
X73383333Y-53500000D03*
%TD*%
D14*
%TO.C,J24*%
X139425000Y-54516601D03*
X139425000Y-52376601D03*
X139025000Y-54516601D03*
X139025000Y-52376601D03*
D15*
X140025001Y-54516601D03*
X140025001Y-52376601D03*
X138424999Y-54516601D03*
X138424999Y-52376601D03*
%TD*%
D16*
%TO.C,J29*%
X142195000Y-33869999D03*
X140055000Y-33869999D03*
X142195000Y-34269999D03*
X140055000Y-34269999D03*
D17*
X142195000Y-33269998D03*
X140055000Y-33269998D03*
X142195000Y-34870000D03*
X140055000Y-34870000D03*
%TD*%
D16*
%TO.C,J8*%
X158095000Y-47700000D03*
X155955000Y-47700000D03*
X158095000Y-48100000D03*
X155955000Y-48100000D03*
D17*
X158095000Y-47099999D03*
X155955000Y-47099999D03*
X158095000Y-48700001D03*
X155955000Y-48700001D03*
%TD*%
D16*
%TO.C,J30*%
X138195000Y-33869999D03*
X136055000Y-33869999D03*
X138195000Y-34269999D03*
X136055000Y-34269999D03*
D17*
X138195000Y-33269998D03*
X136055000Y-33269998D03*
X138195000Y-34870000D03*
X136055000Y-34870000D03*
%TD*%
D18*
%TO.C,J2*%
X112575000Y-115800000D03*
D19*
X112575000Y-116396800D03*
X112575000Y-116803200D03*
D18*
X112575000Y-117400000D03*
X114975000Y-115800000D03*
D19*
X114975000Y-116396800D03*
X114975000Y-116803200D03*
D18*
X114975000Y-117400000D03*
D20*
X112498800Y-115069997D03*
X112498800Y-118130003D03*
X115051200Y-115069997D03*
X115051200Y-118130003D03*
%TD*%
D16*
%TO.C,J13*%
X148095000Y-47700000D03*
X145955000Y-47700000D03*
X148095000Y-48100000D03*
X145955000Y-48100000D03*
D17*
X148095000Y-47099999D03*
X145955000Y-47099999D03*
X148095000Y-48700001D03*
X145955000Y-48700001D03*
%TD*%
D10*
%TO.C,D1*%
X27325000Y-114950000D03*
X27325000Y-118250000D03*
X32225000Y-118250000D03*
X32225000Y-114950000D03*
%TD*%
D11*
%TO.C,D3*%
X157391667Y-114800000D03*
D12*
X158641667Y-116100000D03*
D11*
X157391667Y-117400000D03*
D12*
X156141667Y-116100000D03*
%TD*%
D16*
%TO.C,J28*%
X151380000Y-57780201D03*
X149240000Y-57780201D03*
X151380000Y-58180201D03*
X149240000Y-58180201D03*
D17*
X151380000Y-57180200D03*
X149240000Y-57180200D03*
X151380000Y-58780202D03*
X149240000Y-58780202D03*
%TD*%
D21*
%TO.C,C3*%
X155500000Y-89700000D03*
X155500000Y-91250000D03*
%TD*%
D22*
%TO.C,C3*%
X74900000Y-30450000D03*
X73350000Y-30450000D03*
%TD*%
D13*
%TO.C,C2*%
X97700000Y-115300000D03*
X99250000Y-115300000D03*
%TD*%
D21*
%TO.C,C3*%
X149000000Y-99950000D03*
X149000000Y-101500000D03*
%TD*%
D14*
%TO.C,J17*%
X158755000Y-56830000D03*
X158755000Y-58970000D03*
X159155000Y-56830000D03*
X159155000Y-58970000D03*
D15*
X158154999Y-56830000D03*
X158154999Y-58970000D03*
X159755001Y-56830000D03*
X159755001Y-58970000D03*
%TD*%
D16*
%TO.C,J15*%
X162025000Y-61700000D03*
X159885000Y-61700000D03*
X162025000Y-62100000D03*
X159885000Y-62100000D03*
D17*
X162025000Y-61099999D03*
X159885000Y-61099999D03*
X162025000Y-62700001D03*
X159885000Y-62700001D03*
%TD*%
D23*
%TO.C,J22*%
X146924998Y-64119615D03*
X145071704Y-63049615D03*
X146724998Y-64466025D03*
X144871704Y-63396025D03*
D24*
X147224999Y-63599999D03*
X145371704Y-62529999D03*
X146424998Y-64985641D03*
X144571703Y-63915641D03*
%TD*%
D18*
%TO.C,J2*%
X112200000Y-31650000D03*
D19*
X112200000Y-32246800D03*
X112200000Y-32653200D03*
D18*
X112200000Y-33250000D03*
X114600000Y-31650000D03*
D19*
X114600000Y-32246800D03*
X114600000Y-32653200D03*
D18*
X114600000Y-33250000D03*
D20*
X112123800Y-30919997D03*
X112123800Y-33980003D03*
X114676200Y-30919997D03*
X114676200Y-33980003D03*
%TD*%
D11*
%TO.C,D2*%
X44600000Y-10200000D03*
D12*
X45850000Y-11500000D03*
D11*
X44600000Y-12800000D03*
D12*
X43350000Y-11500000D03*
%TD*%
D18*
%TO.C,J1*%
X17484314Y-94650000D03*
D19*
X17484314Y-95246800D03*
X17484314Y-95653200D03*
D18*
X17484314Y-96250000D03*
X19884314Y-94650000D03*
D19*
X19884314Y-95246800D03*
X19884314Y-95653200D03*
D18*
X19884314Y-96250000D03*
D20*
X17408114Y-93919997D03*
X17408114Y-96980003D03*
X19960514Y-93919997D03*
X19960514Y-96980003D03*
%TD*%
D18*
%TO.C,J1*%
X17200000Y-31650000D03*
D19*
X17200000Y-32246800D03*
X17200000Y-32653200D03*
D18*
X17200000Y-33250000D03*
X19600000Y-31650000D03*
D19*
X19600000Y-32246800D03*
X19600000Y-32653200D03*
D18*
X19600000Y-33250000D03*
D20*
X17123800Y-30919997D03*
X17123800Y-33980003D03*
X19676200Y-30919997D03*
X19676200Y-33980003D03*
%TD*%
D16*
%TO.C,J10*%
X148095000Y-37700000D03*
X145955000Y-37700000D03*
X148095000Y-38100000D03*
X145955000Y-38100000D03*
D17*
X148095000Y-37099999D03*
X145955000Y-37099999D03*
X148095000Y-38700001D03*
X145955000Y-38700001D03*
%TD*%
D11*
%TO.C,D1*%
X29400000Y-31150000D03*
D12*
X30650000Y-32450000D03*
D11*
X29400000Y-33750000D03*
D12*
X28150000Y-32450000D03*
%TD*%
D16*
%TO.C,J21*%
X151794999Y-64899999D03*
X149654999Y-64899999D03*
X151794999Y-65299999D03*
X149654999Y-65299999D03*
D17*
X151794999Y-64299998D03*
X149654999Y-64299998D03*
X151794999Y-65900000D03*
X149654999Y-65900000D03*
%TD*%
D21*
%TO.C,C3*%
X137250000Y-99950000D03*
X137250000Y-101500000D03*
%TD*%
D10*
%TO.C,D3*%
X63734314Y-93800000D03*
X63734314Y-97100000D03*
X68634314Y-97100000D03*
X68634314Y-93800000D03*
%TD*%
D18*
%TO.C,J2*%
X112484314Y-94650000D03*
D19*
X112484314Y-95246800D03*
X112484314Y-95653200D03*
D18*
X112484314Y-96250000D03*
X114884314Y-94650000D03*
D19*
X114884314Y-95246800D03*
X114884314Y-95653200D03*
D18*
X114884314Y-96250000D03*
D20*
X112408114Y-93919997D03*
X112408114Y-96980003D03*
X114960514Y-93919997D03*
X114960514Y-96980003D03*
%TD*%
D14*
%TO.C,J14*%
X148825000Y-50830000D03*
X148825000Y-52970000D03*
X149225000Y-50830000D03*
X149225000Y-52970000D03*
D15*
X148224999Y-50830000D03*
X148224999Y-52970000D03*
X149825001Y-50830000D03*
X149825001Y-52970000D03*
%TD*%
D25*
%TO.C,R1*%
X22650000Y-34025000D03*
X22650000Y-32375000D03*
%TD*%
D18*
%TO.C,J2*%
X112150000Y-10700000D03*
D19*
X112150000Y-11296800D03*
X112150000Y-11703200D03*
D18*
X112150000Y-12300000D03*
X114550000Y-10700000D03*
D19*
X114550000Y-11296800D03*
X114550000Y-11703200D03*
D18*
X114550000Y-12300000D03*
D20*
X112073800Y-9969997D03*
X112073800Y-13030003D03*
X114626200Y-9969997D03*
X114626200Y-13030003D03*
%TD*%
D10*
%TO.C,D4*%
X83734314Y-93800000D03*
X83734314Y-97100000D03*
X88634314Y-97100000D03*
X88634314Y-93800000D03*
%TD*%
D21*
%TO.C,C3*%
X158000000Y-100175000D03*
X158000000Y-101725000D03*
%TD*%
%TO.C,C3*%
X156000000Y-100175000D03*
X156000000Y-101725000D03*
%TD*%
%TO.C,C3*%
X157500000Y-89700000D03*
X157500000Y-91250000D03*
%TD*%
D10*
%TO.C,D6*%
X105600981Y-72500000D03*
X105600981Y-75800000D03*
X110500981Y-75800000D03*
X110500981Y-72500000D03*
%TD*%
D18*
%TO.C,J1*%
X17575000Y-115800000D03*
D19*
X17575000Y-116396800D03*
X17575000Y-116803200D03*
D18*
X17575000Y-117400000D03*
X19975000Y-115800000D03*
D19*
X19975000Y-116396800D03*
X19975000Y-116803200D03*
D18*
X19975000Y-117400000D03*
D20*
X17498800Y-115069997D03*
X17498800Y-118130003D03*
X20051200Y-115069997D03*
X20051200Y-118130003D03*
%TD*%
D11*
%TO.C,D5*%
X105850000Y-10200000D03*
D12*
X107100000Y-11500000D03*
D11*
X105850000Y-12800000D03*
D12*
X104600000Y-11500000D03*
%TD*%
D18*
%TO.C,J1*%
X17150000Y-10700000D03*
D19*
X17150000Y-11296800D03*
X17150000Y-11703200D03*
D18*
X17150000Y-12300000D03*
X19550000Y-10700000D03*
D19*
X19550000Y-11296800D03*
X19550000Y-11703200D03*
D18*
X19550000Y-12300000D03*
D20*
X17073800Y-9969997D03*
X17073800Y-13030003D03*
X19626200Y-9969997D03*
X19626200Y-13030003D03*
%TD*%
D14*
%TO.C,J2*%
X158825000Y-40830000D03*
X158825000Y-42970000D03*
X159225000Y-40830000D03*
X159225000Y-42970000D03*
D15*
X158224999Y-40830000D03*
X158224999Y-42970000D03*
X159825001Y-40830000D03*
X159825001Y-42970000D03*
%TD*%
D13*
%TO.C,C2*%
X99809314Y-94150000D03*
X101359314Y-94150000D03*
%TD*%
D11*
%TO.C,D1*%
X24633333Y-52200000D03*
D12*
X25883333Y-53500000D03*
D11*
X24633333Y-54800000D03*
D12*
X23383333Y-53500000D03*
%TD*%
D22*
%TO.C,C3*%
X72875000Y-9500000D03*
X71325000Y-9500000D03*
%TD*%
D16*
%TO.C,J16*%
X158025000Y-61700000D03*
X155885000Y-61700000D03*
X158025000Y-62100000D03*
X155885000Y-62100000D03*
D17*
X158025000Y-61099999D03*
X155885000Y-61099999D03*
X158025000Y-62700001D03*
X155885000Y-62700001D03*
%TD*%
D14*
%TO.C,J23*%
X139425000Y-59016601D03*
X139425000Y-56876601D03*
X139025000Y-59016601D03*
X139025000Y-56876601D03*
D15*
X140025001Y-59016601D03*
X140025001Y-56876601D03*
X138424999Y-59016601D03*
X138424999Y-56876601D03*
%TD*%
D10*
%TO.C,D2*%
X38934314Y-72500000D03*
X38934314Y-75800000D03*
X43834314Y-75800000D03*
X43834314Y-72500000D03*
%TD*%
D21*
%TO.C,C3*%
X135500000Y-99950000D03*
X135500000Y-101500000D03*
%TD*%
D22*
%TO.C,C3*%
X72659314Y-94050000D03*
X71109314Y-94050000D03*
%TD*%
%TO.C,C2*%
X96575000Y-51400000D03*
X95025000Y-51400000D03*
%TD*%
D25*
%TO.C,R1*%
X22600000Y-13075000D03*
X22600000Y-11425000D03*
%TD*%
D11*
%TO.C,D4*%
X85850000Y-10200000D03*
D12*
X87100000Y-11500000D03*
D11*
X85850000Y-12800000D03*
D12*
X84600000Y-11500000D03*
%TD*%
D21*
%TO.C,C3*%
X160000000Y-100175000D03*
X160000000Y-101725000D03*
%TD*%
D14*
%TO.C,J32*%
X139395000Y-31139999D03*
X139395000Y-28999999D03*
X138995000Y-31139999D03*
X138995000Y-28999999D03*
D15*
X139995001Y-31139999D03*
X139995001Y-28999999D03*
X138394999Y-31139999D03*
X138394999Y-28999999D03*
%TD*%
D21*
%TO.C,C3*%
X137000000Y-89675000D03*
X137000000Y-91225000D03*
%TD*%
D22*
%TO.C,C3*%
X80200000Y-51600000D03*
X78650000Y-51600000D03*
%TD*%
D10*
%TO.C,D4*%
X102325000Y-114950000D03*
X102325000Y-118250000D03*
X107225000Y-118250000D03*
X107225000Y-114950000D03*
%TD*%
%TO.C,D3*%
X55600981Y-72500000D03*
X55600981Y-75800000D03*
X60500981Y-75800000D03*
X60500981Y-72500000D03*
%TD*%
D25*
%TO.C,R1*%
X23025000Y-118175000D03*
X23025000Y-116525000D03*
%TD*%
D11*
%TO.C,D3*%
X65850000Y-10200000D03*
D12*
X67100000Y-11500000D03*
D11*
X65850000Y-12800000D03*
D12*
X64600000Y-11500000D03*
%TD*%
D21*
%TO.C,C3*%
X143250000Y-89450000D03*
X143250000Y-91000000D03*
%TD*%
D16*
%TO.C,J1*%
X158095000Y-37700000D03*
X155955000Y-37700000D03*
X158095000Y-38100000D03*
X155955000Y-38100000D03*
D17*
X158095000Y-37099999D03*
X155955000Y-37099999D03*
X158095000Y-38700001D03*
X155955000Y-38700001D03*
%TD*%
D11*
%TO.C,D2*%
X54400000Y-31150000D03*
D12*
X55650000Y-32450000D03*
D11*
X54400000Y-33750000D03*
D12*
X53150000Y-32450000D03*
%TD*%
D10*
%TO.C,D3*%
X77325000Y-114950000D03*
X77325000Y-118250000D03*
X82225000Y-118250000D03*
X82225000Y-114950000D03*
%TD*%
%TO.C,D5*%
X103734314Y-93800000D03*
X103734314Y-97100000D03*
X108634314Y-97100000D03*
X108634314Y-93800000D03*
%TD*%
%TO.C,D4*%
X72267647Y-72500000D03*
X72267647Y-75800000D03*
X77167647Y-75800000D03*
X77167647Y-72500000D03*
%TD*%
D16*
%TO.C,J20*%
X152438082Y-30567346D03*
X150298082Y-30567346D03*
X152438082Y-30967346D03*
X150298082Y-30967346D03*
D17*
X152438082Y-29967345D03*
X150298082Y-29967345D03*
X152438082Y-31567347D03*
X150298082Y-31567347D03*
%TD*%
D11*
%TO.C,D1*%
X25850000Y-10200000D03*
D12*
X27100000Y-11500000D03*
D11*
X25850000Y-12800000D03*
D12*
X24600000Y-11500000D03*
%TD*%
D13*
%TO.C,C3*%
X71700000Y-115350000D03*
X73250000Y-115350000D03*
%TD*%
%TO.C,C1*%
X152525000Y-113900000D03*
X154075000Y-113900000D03*
%TD*%
D26*
%TO.C,J19*%
X148453386Y-30351097D03*
X146386305Y-29797224D03*
X148349859Y-30737468D03*
X146282778Y-30183595D03*
D27*
X148608678Y-29771541D03*
X146541597Y-29217668D03*
X148194567Y-31317024D03*
X146127486Y-30763151D03*
%TD*%
D13*
%TO.C,C2*%
X100975000Y-9500000D03*
X102525000Y-9500000D03*
%TD*%
D14*
%TO.C,J26*%
X139025000Y-68900000D03*
X139025000Y-66760000D03*
X138625000Y-68900000D03*
X138625000Y-66760000D03*
D15*
X139625001Y-68900000D03*
X139625001Y-66760000D03*
X138024999Y-68900000D03*
X138024999Y-66760000D03*
%TD*%
D13*
%TO.C,C1*%
X35109314Y-72750000D03*
X36659314Y-72750000D03*
%TD*%
%TO.C,C2*%
X99625000Y-30450000D03*
X101175000Y-30450000D03*
%TD*%
D16*
%TO.C,J12*%
X152095000Y-47700000D03*
X149955000Y-47700000D03*
X152095000Y-48100000D03*
X149955000Y-48100000D03*
D17*
X152095000Y-47099999D03*
X149955000Y-47099999D03*
X152095000Y-48700001D03*
X149955000Y-48700001D03*
%TD*%
D14*
%TO.C,J18*%
X158825000Y-64830000D03*
X158825000Y-66970000D03*
X159225000Y-64830000D03*
X159225000Y-66970000D03*
D15*
X158224999Y-64830000D03*
X158224999Y-66970000D03*
X159825001Y-64830000D03*
X159825001Y-66970000D03*
%TD*%
D11*
%TO.C,D4*%
X104400000Y-31150000D03*
D12*
X105650000Y-32450000D03*
D11*
X104400000Y-33750000D03*
D12*
X103150000Y-32450000D03*
%TD*%
D18*
%TO.C,J2*%
X112684314Y-73350000D03*
D19*
X112684314Y-73946800D03*
X112684314Y-74353200D03*
D18*
X112684314Y-74950000D03*
X115084314Y-73350000D03*
D19*
X115084314Y-73946800D03*
X115084314Y-74353200D03*
D18*
X115084314Y-74950000D03*
D20*
X112608114Y-72619997D03*
X112608114Y-75680003D03*
X115160514Y-72619997D03*
X115160514Y-75680003D03*
%TD*%
D10*
%TO.C,D1*%
X22267647Y-72500000D03*
X22267647Y-75800000D03*
X27167647Y-75800000D03*
X27167647Y-72500000D03*
%TD*%
%TO.C,D2*%
X42484314Y-93800000D03*
X42484314Y-97100000D03*
X47384314Y-97100000D03*
X47384314Y-93800000D03*
%TD*%
D16*
%TO.C,J5*%
X162095000Y-37700000D03*
X159955000Y-37700000D03*
X162095000Y-38100000D03*
X159955000Y-38100000D03*
D17*
X162095000Y-37099999D03*
X159955000Y-37099999D03*
X162095000Y-38700001D03*
X159955000Y-38700001D03*
%TD*%
D16*
%TO.C,J6*%
X162095000Y-47700000D03*
X159955000Y-47700000D03*
X162095000Y-48100000D03*
X159955000Y-48100000D03*
D17*
X162095000Y-47099999D03*
X159955000Y-47099999D03*
X162095000Y-48700001D03*
X159955000Y-48700001D03*
%TD*%
D13*
%TO.C,C4*%
X96309314Y-72750000D03*
X97859314Y-72750000D03*
%TD*%
%TO.C,C1*%
X48475000Y-115250000D03*
X50025000Y-115250000D03*
%TD*%
D21*
%TO.C,C3*%
X145500000Y-99950000D03*
X145500000Y-101500000D03*
%TD*%
%TO.C,C3*%
X133750000Y-99950000D03*
X133750000Y-101500000D03*
%TD*%
D14*
%TO.C,J34*%
X138825000Y-47029999D03*
X138825000Y-49169999D03*
X139225000Y-47029999D03*
X139225000Y-49169999D03*
D15*
X138224999Y-47029999D03*
X138224999Y-49169999D03*
X139825001Y-47029999D03*
X139825001Y-49169999D03*
%TD*%
D10*
%TO.C,D2*%
X52325000Y-114950000D03*
X52325000Y-118250000D03*
X57225000Y-118250000D03*
X57225000Y-114950000D03*
%TD*%
D28*
%TO.C,R1*%
X30909314Y-72750000D03*
X29259314Y-72750000D03*
%TD*%
D11*
%TO.C,D3*%
X79400000Y-31150000D03*
D12*
X80650000Y-32450000D03*
D11*
X79400000Y-33750000D03*
D12*
X78150000Y-32450000D03*
%TD*%
D16*
%TO.C,J4*%
X158095000Y-30700000D03*
X155955000Y-30700000D03*
X158095000Y-31100000D03*
X155955000Y-31100000D03*
D17*
X158095000Y-30099999D03*
X155955000Y-30099999D03*
X158095000Y-31700001D03*
X155955000Y-31700001D03*
%TD*%
D21*
%TO.C,C3*%
X147250000Y-99950000D03*
X147250000Y-101500000D03*
%TD*%
%TO.C,C3*%
X143750000Y-99950000D03*
X143750000Y-101500000D03*
%TD*%
D16*
%TO.C,J33*%
X142095000Y-43899999D03*
X139955000Y-43899999D03*
X142095000Y-44299999D03*
X139955000Y-44299999D03*
D17*
X142095000Y-43299998D03*
X139955000Y-43299998D03*
X142095000Y-44900000D03*
X139955000Y-44900000D03*
%TD*%
D16*
%TO.C,J9*%
X152095000Y-37700000D03*
X149955000Y-37700000D03*
X152095000Y-38100000D03*
X149955000Y-38100000D03*
D17*
X152095000Y-37099999D03*
X149955000Y-37099999D03*
X152095000Y-38700001D03*
X149955000Y-38700001D03*
%TD*%
D13*
%TO.C,C1*%
X38109314Y-94150000D03*
X39659314Y-94150000D03*
%TD*%
D14*
%TO.C,J7*%
X158825000Y-50830000D03*
X158825000Y-52970000D03*
X159225000Y-50830000D03*
X159225000Y-52970000D03*
D15*
X158224999Y-50830000D03*
X158224999Y-52970000D03*
X159825001Y-50830000D03*
X159825001Y-52970000D03*
%TD*%
D13*
%TO.C,C1*%
X38350000Y-10000000D03*
X39900000Y-10000000D03*
%TD*%
%TO.C,C1*%
X49350000Y-30450000D03*
X50900000Y-30450000D03*
%TD*%
D11*
%TO.C,D5*%
X91300000Y-52200000D03*
D12*
X92550000Y-53500000D03*
D11*
X91300000Y-54800000D03*
D12*
X90050000Y-53500000D03*
%TD*%
D10*
%TO.C,D1*%
X23734314Y-93800000D03*
X23734314Y-97100000D03*
X28634314Y-97100000D03*
X28634314Y-93800000D03*
%TD*%
D29*
%TO.C,R1*%
X21500000Y-53675000D03*
X21500000Y-55325000D03*
%TD*%
D21*
%TO.C,C3*%
X135250000Y-89675000D03*
X135250000Y-91225000D03*
%TD*%
D14*
%TO.C,J25*%
X139025000Y-63900000D03*
X139025000Y-61760000D03*
X138625000Y-63900000D03*
X138625000Y-61760000D03*
D15*
X139625001Y-63900000D03*
X139625001Y-61760000D03*
X138024999Y-63900000D03*
X138024999Y-61760000D03*
%TD*%
D16*
%TO.C,J3*%
X162095000Y-30700000D03*
X159955000Y-30700000D03*
X162095000Y-31100000D03*
X159955000Y-31100000D03*
D17*
X162095000Y-30099999D03*
X159955000Y-30099999D03*
X162095000Y-31700001D03*
X159955000Y-31700001D03*
%TD*%
D18*
%TO.C,J2*%
X112600000Y-52700000D03*
D19*
X112600000Y-53296800D03*
X112600000Y-53703200D03*
D18*
X112600000Y-54300000D03*
X115000000Y-52700000D03*
D19*
X115000000Y-53296800D03*
X115000000Y-53703200D03*
D18*
X115000000Y-54300000D03*
D20*
X112523800Y-51969997D03*
X112523800Y-55030003D03*
X115076200Y-51969997D03*
X115076200Y-55030003D03*
%TD*%
D18*
%TO.C,J1*%
X17600000Y-52700000D03*
D19*
X17600000Y-53296800D03*
X17600000Y-53703200D03*
D18*
X17600000Y-54300000D03*
X20000000Y-52700000D03*
D19*
X20000000Y-53296800D03*
X20000000Y-53703200D03*
D18*
X20000000Y-54300000D03*
D20*
X17523800Y-51969997D03*
X17523800Y-55030003D03*
X20076200Y-51969997D03*
X20076200Y-55030003D03*
%TD*%
D14*
%TO.C,J31*%
X138995000Y-36999999D03*
X138995000Y-39139999D03*
X139395000Y-36999999D03*
X139395000Y-39139999D03*
D15*
X138394999Y-36999999D03*
X138394999Y-39139999D03*
X139995001Y-36999999D03*
X139995001Y-39139999D03*
%TD*%
D16*
%TO.C,J27*%
X147880000Y-57780201D03*
X145740000Y-57780201D03*
X147880000Y-58180201D03*
X145740000Y-58180201D03*
D17*
X147880000Y-57180200D03*
X145740000Y-57180200D03*
X147880000Y-58780202D03*
X145740000Y-58780202D03*
%TD*%
D16*
%TO.C,J35*%
X138095000Y-43899999D03*
X135955000Y-43899999D03*
X138095000Y-44299999D03*
X135955000Y-44299999D03*
D17*
X138095000Y-43299998D03*
X135955000Y-43299998D03*
X138095000Y-44900000D03*
X135955000Y-44900000D03*
%TD*%
D14*
%TO.C,J11*%
X148825000Y-40830000D03*
X148825000Y-42970000D03*
X149225000Y-40830000D03*
X149225000Y-42970000D03*
D15*
X148224999Y-40830000D03*
X148224999Y-42970000D03*
X149825001Y-40830000D03*
X149825001Y-42970000D03*
%TD*%
D11*
%TO.C,D6*%
X107966667Y-52200000D03*
D12*
X109216667Y-53500000D03*
D11*
X107966667Y-54800000D03*
D12*
X106716667Y-53500000D03*
%TD*%
D11*
%TO.C,D2*%
X41300000Y-52200000D03*
D12*
X42550000Y-53500000D03*
D11*
X41300000Y-54800000D03*
D12*
X40050000Y-53500000D03*
%TD*%
D29*
%TO.C,R1*%
X21584314Y-95250000D03*
X21584314Y-96900000D03*
%TD*%
D22*
%TO.C,C4*%
X37850000Y-51500000D03*
X36300000Y-51500000D03*
%TD*%
D18*
%TO.C,J1*%
X17684314Y-73350000D03*
D19*
X17684314Y-73946800D03*
X17684314Y-74353200D03*
D18*
X17684314Y-74950000D03*
X20084314Y-73350000D03*
D19*
X20084314Y-73946800D03*
X20084314Y-74353200D03*
D18*
X20084314Y-74950000D03*
D20*
X17608114Y-72619997D03*
X17608114Y-75680003D03*
X20160514Y-72619997D03*
X20160514Y-75680003D03*
%TD*%
D22*
%TO.C,C3*%
X80734314Y-72650000D03*
X79184314Y-72650000D03*
%TD*%
D30*
X113384314Y-75450000D03*
X142195000Y-37443195D03*
X48500000Y-51300000D03*
X37100000Y-10000000D03*
X112900000Y-33750000D03*
X75925000Y-30450000D03*
X136595000Y-31669999D03*
X90384314Y-97100000D03*
X74400000Y-33750000D03*
X99750000Y-9400000D03*
X149955000Y-50050000D03*
X159025000Y-32550000D03*
X159025000Y-39850000D03*
X112850000Y-12800000D03*
X85600000Y-51600000D03*
X160525000Y-61900000D03*
X157625000Y-49300000D03*
X17650000Y-13000000D03*
X40850000Y-12800000D03*
X114500000Y-54700000D03*
X99084314Y-72750000D03*
X155955000Y-50170000D03*
X36884314Y-94150000D03*
X108725000Y-117350000D03*
X19184314Y-95950000D03*
X83725000Y-118250000D03*
X161125000Y-59600000D03*
X61300000Y-54800000D03*
X87800000Y-54800000D03*
X113300000Y-54800000D03*
X148868082Y-32367346D03*
X114475000Y-117800000D03*
X110084314Y-96350000D03*
X28684314Y-75750000D03*
X73884314Y-94050000D03*
X137408046Y-64813046D03*
X151475000Y-40400000D03*
X108984314Y-75850000D03*
X136994799Y-55746601D03*
X94300000Y-54800000D03*
X113184314Y-96750000D03*
X159025000Y-49400000D03*
X77800000Y-54800000D03*
X82900000Y-33750000D03*
X30084314Y-97050000D03*
X48350000Y-12800000D03*
X17984314Y-96950000D03*
X33900000Y-33750000D03*
X25900000Y-33750000D03*
X50584314Y-72850000D03*
X58725000Y-118200000D03*
X47725000Y-30450000D03*
X147224999Y-66599999D03*
X17700000Y-33950000D03*
X18900000Y-32950000D03*
X139025000Y-44900000D03*
X100400000Y-33750000D03*
X114384314Y-96650000D03*
X70425000Y-115350000D03*
X73900000Y-9500000D03*
X88850000Y-12800000D03*
X136425000Y-46499999D03*
X19300000Y-54000000D03*
X18100000Y-55000000D03*
X151325000Y-42500000D03*
X37800000Y-54800000D03*
X151268082Y-30667346D03*
X70284314Y-97100000D03*
X114050000Y-12700000D03*
X159025000Y-38700001D03*
X71300000Y-54800000D03*
X31700000Y-51500000D03*
X60850000Y-12800000D03*
X147025000Y-48700001D03*
X160590001Y-64065001D03*
X44800000Y-54800000D03*
X60900000Y-33750000D03*
X146525000Y-40300000D03*
X19275000Y-117100000D03*
X148890232Y-37699999D03*
X82850000Y-12800000D03*
X82084314Y-72650000D03*
X161525000Y-66800000D03*
X140660001Y-46335000D03*
X160675000Y-33100000D03*
X33484314Y-72750000D03*
X136595000Y-36569999D03*
X19384314Y-74650000D03*
X47025000Y-115250000D03*
X33825000Y-118250000D03*
X151775000Y-50400000D03*
X138527286Y-65630000D03*
X102200000Y-51400000D03*
X69850000Y-12800000D03*
X18184314Y-75650000D03*
X45284314Y-75750000D03*
X102850000Y-12800000D03*
X114100000Y-33650000D03*
X150310000Y-58780202D03*
X98400000Y-30350000D03*
X113275000Y-117900000D03*
X96375000Y-115350000D03*
X138625000Y-55946601D03*
X161675000Y-50900000D03*
X95384314Y-75750000D03*
X161425000Y-57100000D03*
X78984314Y-75850000D03*
X62084314Y-75850000D03*
X18075000Y-118100000D03*
X104800000Y-54800000D03*
X18850000Y-12000000D03*
X148224999Y-65099999D03*
X48400000Y-33750000D03*
X146725784Y-59603092D03*
X162525000Y-40200000D03*
X139995001Y-36269999D03*
X114584314Y-75350000D03*
X156625000Y-63100000D03*
X54300000Y-54800000D03*
X29350000Y-12800000D03*
X27800000Y-54800000D03*
X98484314Y-94150000D03*
X49184314Y-97100000D03*
X110825000Y-114050000D03*
X19275000Y-113800000D03*
X18900000Y-29650000D03*
X112784314Y-71450000D03*
X109400000Y-31150000D03*
X111958698Y-52200000D03*
X18850000Y-8700000D03*
X21125000Y-114250000D03*
X110800000Y-52200000D03*
X110284314Y-92950000D03*
X21034314Y-93100000D03*
X20700000Y-9150000D03*
X111508698Y-10200000D03*
X20750000Y-30100000D03*
X110545405Y-71500000D03*
X19384314Y-71350000D03*
X19300000Y-50700000D03*
X19184314Y-92650000D03*
X111558698Y-31150000D03*
X111884314Y-92950000D03*
X109350000Y-10200000D03*
X21234314Y-71800000D03*
X112775000Y-114050000D03*
X21150000Y-51150000D03*
X111300000Y-53500000D03*
X113275000Y-116600000D03*
X111184314Y-95450000D03*
X113184314Y-95450000D03*
X110900000Y-32450000D03*
X113300000Y-53500000D03*
X111384314Y-74150000D03*
X112850000Y-11500000D03*
X112900000Y-32450000D03*
X110850000Y-11500000D03*
X111275000Y-116600000D03*
X113384314Y-74150000D03*
X110284314Y-98600000D03*
X111684314Y-77300000D03*
X111884314Y-76200000D03*
X109275000Y-118600000D03*
X109275000Y-119800000D03*
X107900000Y-35650000D03*
X109800000Y-56650000D03*
X107850000Y-14700000D03*
X108400000Y-34450000D03*
X110300000Y-55500000D03*
X110284314Y-97500000D03*
X108350000Y-13500000D03*
X159025000Y-37900000D03*
X157025000Y-37400000D03*
X149025000Y-36900000D03*
X139195000Y-33269998D03*
X147310000Y-57200000D03*
X147275000Y-39150000D03*
X140195000Y-32069999D03*
X148374998Y-64249998D03*
X149025000Y-46069799D03*
X149025000Y-47099999D03*
X148525000Y-41650000D03*
X139825000Y-55446601D03*
X137596751Y-46328248D03*
X155525000Y-35600000D03*
X141945000Y-30320000D03*
X158125000Y-59769799D03*
X146525000Y-41400000D03*
X159025000Y-30099999D03*
X156589999Y-29464999D03*
X140276854Y-65881854D03*
X149025000Y-49650000D03*
X136525000Y-47599999D03*
X157225000Y-62000000D03*
X148644239Y-62680760D03*
X147671636Y-30170900D03*
X149468082Y-28267346D03*
X155525000Y-40400000D03*
X147020200Y-55900000D03*
X141275000Y-56196601D03*
X151425000Y-36900000D03*
X156625000Y-65900000D03*
X139127286Y-65030000D03*
X162034265Y-41609265D03*
X161325000Y-40400000D03*
X156825000Y-30300000D03*
X159025000Y-30900000D03*
X160825000Y-30900000D03*
X156825000Y-31300000D03*
M02*
