%TF.GenerationSoftware,KiCad,Pcbnew,8.0.6*%
%TF.CreationDate,2025-04-01T14:48:14+11:00*%
%TF.ProjectId,testingstencil,74657374-696e-4677-9374-656e63696c2e,rev?*%
%TF.SameCoordinates,Original*%
%TF.FileFunction,Legend,Bot*%
%TF.FilePolarity,Positive*%
%FSLAX46Y46*%
G04 Gerber Fmt 4.6, Leading zero omitted, Abs format (unit mm)*
G04 Created by KiCad (PCBNEW 8.0.6) date 2025-04-01 14:48:14*
%MOMM*%
%LPD*%
G01*
G04 APERTURE LIST*
%ADD10C,0.100000*%
%ADD11C,0.400000*%
%ADD12C,0.200000*%
%ADD13C,0.150000*%
%ADD14C,0.600000*%
G04 APERTURE END LIST*
D10*
X149375000Y-30400000D02*
X148075000Y-30050000D01*
X137325000Y-48700000D02*
X137325000Y-49500000D01*
X139625000Y-56100000D02*
X139525000Y-55900000D01*
X140925000Y-28700000D02*
X137525000Y-28700000D01*
X142425000Y-42400000D02*
X141625000Y-42400000D01*
X140325000Y-31600000D02*
X140325000Y-29700000D01*
X147725000Y-59200000D02*
X147925000Y-59100000D01*
D11*
X113259314Y-72650000D02*
X114509314Y-72650000D01*
D10*
X148525000Y-63900000D02*
X146225000Y-62500000D01*
X63884314Y-71850000D02*
X68884314Y-71850000D01*
X68884314Y-76850000D01*
X63884314Y-76850000D01*
X63884314Y-71850000D01*
G36*
X63884314Y-71850000D02*
G01*
X68884314Y-71850000D01*
X68884314Y-76850000D01*
X63884314Y-76850000D01*
X63884314Y-71850000D01*
G37*
X156425000Y-36200000D02*
X155625000Y-36200000D01*
X140825000Y-39500000D02*
X140825000Y-38700000D01*
X162425000Y-36200000D02*
X161625000Y-36200000D01*
X161925000Y-31000000D02*
X161925000Y-31050000D01*
X152775000Y-29050000D02*
X155625000Y-29200000D01*
X141725000Y-35800000D02*
X140825000Y-38700000D01*
X151525000Y-39100000D02*
X149625000Y-39100000D01*
X147325000Y-53300000D02*
X145425000Y-56300000D01*
X147925000Y-52100000D02*
X147825000Y-52400000D01*
X151925000Y-29550000D02*
X149525000Y-29550000D01*
X162225000Y-46200000D02*
X162225000Y-49600000D01*
X159125000Y-52800000D02*
X159175000Y-52800000D01*
X147925000Y-57500000D02*
X147725000Y-57600000D01*
X151925000Y-48000000D02*
X151925000Y-48050000D01*
X151725000Y-56300000D02*
X150925000Y-56300000D01*
X158225000Y-47500000D02*
X158425000Y-47400000D01*
X141625000Y-33700000D02*
X140325000Y-35000000D01*
X155625000Y-32600000D02*
X155525000Y-35150000D01*
X161925000Y-37700000D02*
X161925000Y-37750000D01*
X158425000Y-29700000D02*
X158625000Y-29600000D01*
X156125000Y-31000000D02*
X156125000Y-31050000D01*
X157225000Y-57300000D02*
X157225000Y-56500000D01*
X136425000Y-42400000D02*
X135625000Y-42400000D01*
X144675000Y-63072243D02*
X140525000Y-61900000D01*
X152775000Y-32450000D02*
X151975000Y-32450000D01*
X152325000Y-30900000D02*
X152325000Y-30950000D01*
X135625000Y-32400000D02*
X135625000Y-35800000D01*
X162225000Y-49600000D02*
X161425000Y-49600000D01*
X137125000Y-61500000D02*
X137125000Y-62300000D01*
X137725000Y-65300000D02*
X137625000Y-65500000D01*
X151575000Y-46700000D02*
X148725000Y-46700000D01*
X146528527Y-29813630D02*
X146515586Y-29861926D01*
X152775000Y-29050000D02*
X151975000Y-29050000D01*
X138425000Y-62500000D02*
X138425000Y-65200000D01*
X145625000Y-36200000D02*
X142525000Y-35800000D01*
D11*
X17837500Y-32450000D02*
X18962500Y-32450000D01*
D10*
X152775000Y-29050000D02*
X152775000Y-32450000D01*
X150725000Y-52500000D02*
X150725000Y-53300000D01*
X162425000Y-29200000D02*
X162425000Y-32600000D01*
X137525000Y-52100000D02*
X137525000Y-52900000D01*
X145625000Y-49600000D02*
X142425000Y-45800000D01*
D11*
X112775000Y-30950000D02*
X114025000Y-30950000D01*
D10*
X145525000Y-61600000D02*
X140525000Y-61500000D01*
X152425000Y-46200000D02*
X155425000Y-46200000D01*
X156725000Y-49000000D02*
X156525000Y-49100000D01*
X147325000Y-53300000D02*
X150725000Y-53300000D01*
X138025000Y-56100000D02*
X137925000Y-55900000D01*
D12*
X160025000Y-61900000D02*
X157725000Y-61900000D01*
D10*
X136425000Y-32400000D02*
X135625000Y-32400000D01*
D11*
X17787500Y-11500000D02*
X18912500Y-11500000D01*
D10*
X147237734Y-28464982D02*
X146464993Y-28257926D01*
X136425000Y-35800000D02*
X135625000Y-35800000D01*
X141425000Y-43700000D02*
X136725000Y-43700000D01*
X138525000Y-66600000D02*
X138425000Y-66800000D01*
X146464993Y-28257926D02*
X145585008Y-31542074D01*
X147925000Y-59100000D02*
X147725000Y-59200000D01*
X160625000Y-56500000D02*
X160725000Y-53300000D01*
X140825000Y-38700000D02*
X145625000Y-36200000D01*
X148725000Y-46700000D02*
X146625000Y-46700000D01*
X150725000Y-42500000D02*
X150725000Y-43300000D01*
X138625000Y-61950000D02*
X138675000Y-61950000D01*
X158825000Y-56950000D02*
X158775000Y-56950000D01*
X158425000Y-47600000D02*
X158225000Y-47500000D01*
X139225000Y-66300000D02*
X139125000Y-66100000D01*
X150825000Y-57600000D02*
X146325000Y-57600000D01*
X162425000Y-32600000D02*
X162425000Y-36200000D01*
X144517820Y-64944488D02*
X143825000Y-64544486D01*
X161975000Y-62000000D02*
X161975000Y-62050000D01*
X51684314Y-92950000D02*
X56684314Y-92950000D01*
X56684314Y-97950000D01*
X51684314Y-97950000D01*
X51684314Y-92950000D01*
G36*
X51684314Y-92950000D02*
G01*
X56684314Y-92950000D01*
X56684314Y-97950000D01*
X51684314Y-97950000D01*
X51684314Y-92950000D01*
G37*
X162225000Y-46200000D02*
X161425000Y-46200000D01*
X141625000Y-34500000D02*
X141325000Y-34200000D01*
X141125000Y-35200000D02*
X140725000Y-34800000D01*
X145625000Y-39600000D02*
X141725000Y-35800000D01*
X158775000Y-52800000D02*
X158825000Y-52800000D01*
X145425000Y-56300000D02*
X145425000Y-59700000D01*
X135625000Y-42400000D02*
X137425000Y-39500000D01*
X151925000Y-37650000D02*
X151925000Y-37700000D01*
D11*
X112725000Y-10000000D02*
X113975000Y-10000000D01*
D10*
X150725000Y-43300000D02*
X152425000Y-46200000D01*
X146217820Y-62000002D02*
X145525000Y-61600000D01*
X152425000Y-36200000D02*
X151625000Y-36200000D01*
X141725000Y-32400000D02*
X140925000Y-29500000D01*
X138825000Y-53100000D02*
X138825000Y-55500000D01*
X139025000Y-49500000D02*
X139225000Y-52100000D01*
D12*
X161525000Y-61900000D02*
X161025000Y-61900000D01*
D10*
X151075000Y-47500000D02*
X149325000Y-49350000D01*
X156725000Y-48400000D02*
X156525000Y-48300000D01*
X147725000Y-52100000D02*
X147825000Y-52400000D01*
X138875000Y-49050000D02*
X138825000Y-49050000D01*
X157325000Y-52500000D02*
X157325000Y-53300000D01*
X151925000Y-38000000D02*
X151925000Y-38050000D01*
X148775000Y-49950000D02*
X148625000Y-50100000D01*
D12*
X156725000Y-61900000D02*
X156425000Y-61900000D01*
D10*
X158425000Y-36700000D02*
X158625000Y-36600000D01*
X161725000Y-48050000D02*
X161725000Y-48100000D01*
X158825000Y-42850000D02*
X158875000Y-42850000D01*
D11*
X18321814Y-74150000D02*
X19446814Y-74150000D01*
D10*
X146464993Y-28257926D02*
X140925000Y-28700000D01*
X140225000Y-47400000D02*
X140225000Y-48600000D01*
X137125000Y-68250000D02*
X137125000Y-69050000D01*
X157425000Y-31400000D02*
X157225000Y-31300000D01*
X152425000Y-36200000D02*
X152425000Y-39600000D01*
X139625000Y-33700000D02*
X139625000Y-33100000D01*
X160725000Y-42500000D02*
X160725000Y-43300000D01*
X138975000Y-61950000D02*
X139025000Y-61950000D01*
X158775000Y-66800000D02*
X158825000Y-66800000D01*
X161475000Y-31300000D02*
X157225000Y-31300000D01*
X156425000Y-32600000D02*
X155625000Y-32600000D01*
X141125000Y-34000000D02*
X140325000Y-33200000D01*
X142075000Y-33900000D02*
X142075000Y-33950000D01*
X158225000Y-46700000D02*
X158425000Y-46600000D01*
X139075000Y-29150000D02*
X139025000Y-29150000D01*
X140025000Y-62500000D02*
X140025000Y-65500000D01*
X158625000Y-30600000D02*
X158425000Y-30500000D01*
X135625000Y-42400000D02*
X135625000Y-45800000D01*
X145025000Y-63409808D02*
X145000000Y-63453109D01*
X137525000Y-58450000D02*
X137525000Y-59250000D01*
X136125000Y-34250000D02*
X136125000Y-34300000D01*
X140825000Y-39500000D02*
X136425000Y-42400000D01*
X142425000Y-45800000D02*
X141625000Y-45800000D01*
X139375000Y-39050000D02*
X139325000Y-39050000D01*
D11*
X18775000Y-117100000D02*
X18775000Y-116100000D01*
D10*
X157225000Y-31300000D02*
X157425000Y-31200000D01*
X146425000Y-39600000D02*
X145625000Y-39600000D01*
X146464993Y-28257926D02*
X141725000Y-32400000D01*
X150925000Y-30400000D02*
X149375000Y-30400000D01*
X136425000Y-45800000D02*
X135625000Y-45800000D01*
X146357749Y-31749130D02*
X146425000Y-36200000D01*
D11*
X113059314Y-93950000D02*
X114309314Y-93950000D01*
D10*
X148825000Y-49100000D02*
X147825000Y-50100000D01*
X147825000Y-39800000D02*
X147825000Y-42400000D01*
X155625000Y-32600000D02*
X152775000Y-32450000D01*
X139325000Y-66100000D02*
X139225000Y-66300000D01*
X151525000Y-37500000D02*
X150125000Y-37500000D01*
X160425000Y-39100000D02*
X158625000Y-40700000D01*
X162225000Y-46200000D02*
X160725000Y-43300000D01*
X159425000Y-51600000D02*
X156925000Y-49100000D01*
X148725000Y-52100000D02*
X148625000Y-52400000D01*
X145625000Y-36200000D02*
X145625000Y-39600000D01*
X137325000Y-44500000D02*
X140225000Y-47400000D01*
X139425000Y-29150000D02*
X139375000Y-29150000D01*
X140925000Y-29500000D02*
X140925000Y-28700000D01*
X160625000Y-57300000D02*
X160625000Y-56500000D01*
X140925000Y-58450000D02*
X140925000Y-59250000D01*
X151625000Y-64900000D02*
X151625000Y-64950000D01*
X138925000Y-57200000D02*
X138825000Y-57400000D01*
X157325000Y-53300000D02*
X160725000Y-53300000D01*
X147325000Y-42500000D02*
X147325000Y-43300000D01*
X141625000Y-42400000D02*
X137425000Y-39500000D01*
X157325000Y-67300000D02*
X157325000Y-66500000D01*
X145425000Y-58000000D02*
X140925000Y-58850000D01*
X147725000Y-57600000D02*
X147925000Y-57500000D01*
X140525000Y-55900000D02*
X140425000Y-56100000D01*
X147325000Y-52500000D02*
X147325000Y-53300000D01*
X145625000Y-46200000D02*
X145625000Y-49600000D01*
D11*
X18350000Y-12000000D02*
X18350000Y-11000000D01*
D10*
X157325000Y-42500000D02*
X157325000Y-43300000D01*
X139225000Y-49050000D02*
X139175000Y-49050000D01*
X157325000Y-53300000D02*
X157225000Y-56500000D01*
X142525000Y-32400000D02*
X145585008Y-31542074D01*
X137525000Y-52100000D02*
X140925000Y-52100000D01*
X161325000Y-46700000D02*
X156425000Y-46700000D01*
X156525000Y-49100000D02*
X156725000Y-49000000D01*
X152125000Y-66800000D02*
X151325000Y-66800000D01*
X152425000Y-46200000D02*
X151625000Y-46200000D01*
X146425000Y-46200000D02*
X145625000Y-46200000D01*
X155425000Y-49600000D02*
X152425000Y-49600000D01*
X146357749Y-31749130D02*
X145585008Y-31542074D01*
D11*
X18212500Y-116600000D02*
X19337500Y-116600000D01*
D10*
X158625000Y-30400000D02*
X158425000Y-30500000D01*
X151275000Y-58150000D02*
X151275000Y-58200000D01*
X140025000Y-65500000D02*
X139925000Y-65300000D01*
X161525000Y-36700000D02*
X156625000Y-36700000D01*
X155525000Y-63600000D02*
X151725000Y-59700000D01*
X148525000Y-52100000D02*
X148625000Y-52400000D01*
X155625000Y-39600000D02*
X152425000Y-39600000D01*
X162425000Y-63600000D02*
X161625000Y-63600000D01*
X152425000Y-46200000D02*
X152425000Y-49600000D01*
X148425000Y-36700000D02*
X148625000Y-36600000D01*
X138575000Y-68550000D02*
X138625000Y-68550000D01*
X149025000Y-38300000D02*
X148425000Y-38300000D01*
X140325000Y-32700000D02*
X140325000Y-32500000D01*
X149625000Y-39100000D02*
X148625000Y-40100000D01*
D11*
X113175000Y-52000000D02*
X114425000Y-52000000D01*
D10*
X151975000Y-32450000D02*
X151625000Y-36200000D01*
X142525000Y-35800000D02*
X141725000Y-35800000D01*
X139425000Y-47700000D02*
X137125000Y-45400000D01*
D12*
X158925000Y-62300000D02*
X158925000Y-66400000D01*
D10*
X152775000Y-32450000D02*
X152425000Y-36200000D01*
X139425000Y-48600000D02*
X139425000Y-47700000D01*
X137525000Y-29500000D02*
X137525000Y-28700000D01*
X147925000Y-57700000D02*
X147725000Y-57600000D01*
X150725000Y-53300000D02*
X151725000Y-56300000D01*
X140425000Y-56100000D02*
X140325000Y-55900000D01*
X137625000Y-65500000D02*
X137525000Y-65300000D01*
X162425000Y-29200000D02*
X161625000Y-29200000D01*
X151125000Y-66300000D02*
X147825000Y-66300000D01*
X159125000Y-66800000D02*
X159175000Y-66800000D01*
X156125000Y-37650000D02*
X156125000Y-37700000D01*
X139125000Y-66100000D02*
X139225000Y-66300000D01*
X145525000Y-59700000D02*
X145525000Y-61600000D01*
X139625000Y-53100000D02*
X139625000Y-55000000D01*
X146125000Y-38050000D02*
X146125000Y-38100000D01*
X137525000Y-52100000D02*
X137325000Y-49500000D01*
X146125000Y-37700000D02*
X146125000Y-37750000D01*
X156425000Y-39600000D02*
X155625000Y-39600000D01*
X138025000Y-53000000D02*
X138025000Y-57900000D01*
X143825000Y-64544486D02*
X140525000Y-62300000D01*
X139225000Y-65400000D02*
X139225000Y-68000000D01*
X156925000Y-49100000D02*
X156525000Y-49100000D01*
X151025000Y-36700000D02*
X149475000Y-36700000D01*
X147725000Y-58400000D02*
X147925000Y-58300000D01*
X152425000Y-49600000D02*
X151625000Y-49600000D01*
X146625000Y-46700000D02*
X146875000Y-46600000D01*
X159425000Y-48300000D02*
X156525000Y-48300000D01*
X155525000Y-63600000D02*
X152125000Y-66800000D01*
X157825000Y-40300000D02*
X157825000Y-42400000D01*
X148625000Y-36800000D02*
X148425000Y-36700000D01*
X161975000Y-61650000D02*
X161975000Y-61700000D01*
X151925000Y-47650000D02*
X151925000Y-47700000D01*
X145875000Y-58100000D02*
X145875000Y-58150000D01*
X148025000Y-65500000D02*
X145425000Y-64000000D01*
X142425000Y-42400000D02*
X142425000Y-45800000D01*
X160125000Y-38300000D02*
X157825000Y-40300000D01*
X145625000Y-36200000D02*
X142525000Y-32400000D01*
X155425000Y-46200000D02*
X155425000Y-49600000D01*
X161525000Y-29700000D02*
X156625000Y-29700000D01*
X156125000Y-30650000D02*
X156125000Y-30700000D01*
X158425000Y-37500000D02*
X158625000Y-37400000D01*
X155975000Y-62000000D02*
X155975000Y-62050000D01*
X147425000Y-29850000D02*
X147025000Y-29750000D01*
X156425000Y-32600000D02*
X156425000Y-36200000D01*
X151725000Y-59700000D02*
X150925000Y-59700000D01*
X160225000Y-49100000D02*
X159425000Y-48300000D01*
X148425000Y-48300000D02*
X147525000Y-47500000D01*
X151125000Y-64700000D02*
X148225000Y-64700000D01*
X147925000Y-58500000D02*
X147725000Y-58400000D01*
X145875000Y-57750000D02*
X145875000Y-57800000D01*
X147525000Y-37500000D02*
X146625000Y-37500000D01*
X141425000Y-42900000D02*
X136725000Y-42900000D01*
X152125000Y-63400000D02*
X155525000Y-60200000D01*
X151275000Y-57800000D02*
X151275000Y-57850000D01*
X158425000Y-30500000D02*
X158625000Y-30400000D01*
X156525000Y-48300000D02*
X156725000Y-48200000D01*
X150825000Y-56800000D02*
X146425000Y-56800000D01*
X147925000Y-56900000D02*
X147725000Y-56800000D01*
X137125000Y-61500000D02*
X137525000Y-59250000D01*
X151625000Y-65250000D02*
X151625000Y-65300000D01*
X151825000Y-31150000D02*
X149275000Y-31150000D01*
X161425000Y-37500000D02*
X157425000Y-37500000D01*
X150725000Y-59200000D02*
X146325000Y-59200000D01*
X152325000Y-30550000D02*
X152325000Y-30600000D01*
X156225000Y-46200000D02*
X155425000Y-46200000D01*
X155625000Y-36200000D02*
X155625000Y-39600000D01*
X139625000Y-29700000D02*
X139625000Y-32700000D01*
X151725000Y-56300000D02*
X151725000Y-59700000D01*
D11*
X18800000Y-54000000D02*
X18800000Y-53000000D01*
D10*
X162425000Y-32600000D02*
X161625000Y-32600000D01*
X137125000Y-61500000D02*
X140525000Y-61500000D01*
X162425000Y-60200000D02*
X161625000Y-60200000D01*
X158725000Y-41700000D02*
X158625000Y-41900000D01*
X156225000Y-49600000D02*
X155425000Y-49600000D01*
D11*
X18684314Y-95950000D02*
X18684314Y-94950000D01*
D10*
X140925000Y-52100000D02*
X140925000Y-52900000D01*
X162425000Y-36200000D02*
X162425000Y-39600000D01*
X148625000Y-52400000D02*
X148725000Y-52100000D01*
X155875000Y-48050000D02*
X155875000Y-48100000D01*
X138425000Y-66800000D02*
X138325000Y-66600000D01*
X140525000Y-68250000D02*
X140525000Y-69050000D01*
X157725000Y-41700000D02*
X157825000Y-41900000D01*
X142425000Y-44100000D02*
X145625000Y-47900000D01*
X146075000Y-47700000D02*
X146075000Y-47750000D01*
X155875000Y-47700000D02*
X155875000Y-47750000D01*
X158625000Y-37600000D02*
X158425000Y-37500000D01*
D12*
X158925000Y-57550000D02*
X158925000Y-61500000D01*
D10*
X152425000Y-36200000D02*
X155625000Y-36200000D01*
X157325000Y-43300000D02*
X160725000Y-43300000D01*
X160625000Y-56500000D02*
X157225000Y-56500000D01*
X161725000Y-47700000D02*
X161725000Y-47750000D01*
X156725000Y-49200000D02*
X156525000Y-49100000D01*
X139725000Y-55900000D02*
X139625000Y-56100000D01*
X139375000Y-52550000D02*
X139425000Y-52550000D01*
X140725000Y-49500000D02*
X140925000Y-52100000D01*
X142525000Y-32400000D02*
X142525000Y-35800000D01*
X138125000Y-55900000D02*
X138025000Y-56100000D01*
X161925000Y-38050000D02*
X161925000Y-38100000D01*
X151125000Y-63900000D02*
X148525000Y-63900000D01*
X145625000Y-46200000D02*
X142425000Y-42400000D01*
X147325000Y-43300000D02*
X145625000Y-46200000D01*
X137125000Y-69050000D02*
X140525000Y-69050000D01*
X146437941Y-30151704D02*
X146425000Y-30200000D01*
X137425000Y-39500000D02*
X137425000Y-38700000D01*
X149275000Y-49100000D02*
X148825000Y-49100000D01*
X158525000Y-41700000D02*
X158625000Y-41900000D01*
X149275000Y-31150000D02*
X146925000Y-30550000D01*
X63400000Y-30100000D02*
X68400000Y-30100000D01*
X68400000Y-35100000D01*
X63400000Y-35100000D01*
X63400000Y-30100000D01*
G36*
X63400000Y-30100000D02*
G01*
X68400000Y-30100000D01*
X68400000Y-35100000D01*
X63400000Y-35100000D01*
X63400000Y-30100000D01*
G37*
X161425000Y-38300000D02*
X160125000Y-38300000D01*
X151525000Y-38300000D02*
X149575000Y-38300000D01*
X157825000Y-41900000D02*
X157925000Y-41700000D01*
D11*
X18237500Y-53500000D02*
X19362500Y-53500000D01*
D10*
X156325000Y-60200000D02*
X155525000Y-60200000D01*
X137625000Y-65200000D02*
X137625000Y-68000000D01*
X160725000Y-67300000D02*
X157325000Y-67300000D01*
X137125000Y-45400000D02*
X136625000Y-45400000D01*
X138825000Y-56500000D02*
X138825000Y-57900000D01*
X161625000Y-32600000D02*
X161625000Y-36200000D01*
X139625000Y-55800000D02*
X139625000Y-58000000D01*
X140325000Y-55900000D02*
X140425000Y-56100000D01*
X156425000Y-29200000D02*
X155625000Y-29200000D01*
X147925000Y-59300000D02*
X147725000Y-59200000D01*
X162425000Y-60200000D02*
X162425000Y-63600000D01*
X145425000Y-56300000D02*
X140925000Y-58450000D01*
X146225000Y-56300000D02*
X145425000Y-56300000D01*
X161925000Y-30650000D02*
X161925000Y-30700000D01*
X140325000Y-35000000D02*
X140325000Y-38500000D01*
X150725000Y-58400000D02*
X146325000Y-58400000D01*
X142525000Y-32400000D02*
X141725000Y-32400000D01*
X139225000Y-62500000D02*
X139225000Y-64600000D01*
X137325000Y-49500000D02*
X140725000Y-49500000D01*
X138825000Y-57400000D02*
X138725000Y-57200000D01*
X152125000Y-63400000D02*
X152125000Y-66800000D01*
X138725000Y-57200000D02*
X138825000Y-57400000D01*
X161300000Y-31950000D02*
X156525000Y-31950000D01*
X145585008Y-31542074D02*
X145625000Y-36200000D01*
X146425000Y-49600000D02*
X145625000Y-49600000D01*
X139925000Y-65300000D02*
X140025000Y-65500000D01*
X159175000Y-42850000D02*
X159225000Y-42850000D01*
X140525000Y-61500000D02*
X140525000Y-62300000D01*
X141625000Y-35200000D02*
X141125000Y-35200000D01*
X138825000Y-61500000D02*
X139225000Y-59250000D01*
X140825000Y-39500000D02*
X142425000Y-42400000D01*
X158625000Y-37400000D02*
X158425000Y-37500000D01*
X160725000Y-67300000D02*
X160725000Y-66500000D01*
X149525000Y-29550000D02*
X147325000Y-29050000D01*
X140325000Y-33200000D02*
X140325000Y-33100000D01*
X148725000Y-36700000D02*
X146625000Y-36700000D01*
X140925000Y-59250000D02*
X145425000Y-59700000D01*
X139525000Y-55900000D02*
X139625000Y-56100000D01*
X63800000Y-51200000D02*
X68800000Y-51200000D01*
X68800000Y-56200000D01*
X63800000Y-56200000D01*
X63800000Y-51200000D01*
G36*
X63800000Y-51200000D02*
G01*
X68800000Y-51200000D01*
X68800000Y-56200000D01*
X63800000Y-56200000D01*
X63800000Y-51200000D01*
G37*
X147325000Y-42500000D02*
X142425000Y-42400000D01*
X147325000Y-43300000D02*
X150725000Y-43300000D01*
X139025000Y-52550000D02*
X139075000Y-52550000D01*
X151525000Y-48300000D02*
X150625000Y-48300000D01*
X155525000Y-60200000D02*
X155525000Y-63600000D01*
X160725000Y-52500000D02*
X160725000Y-53300000D01*
X141925000Y-44250000D02*
X141925000Y-44300000D01*
X145625000Y-39600000D02*
X140825000Y-39500000D01*
X145525000Y-61600000D02*
X143825000Y-64544486D01*
X158625000Y-40700000D02*
X158625000Y-42400000D01*
X157325000Y-43300000D02*
X155425000Y-46200000D01*
X150125000Y-37500000D02*
X147825000Y-39800000D01*
X136625000Y-44500000D02*
X137325000Y-44500000D01*
X136125000Y-43900000D02*
X136125000Y-43950000D01*
X140125000Y-65300000D02*
X140025000Y-65500000D01*
X147525000Y-47500000D02*
X146625000Y-47500000D01*
X140425000Y-53100000D02*
X140425000Y-58000000D01*
X155525000Y-60200000D02*
X151725000Y-56300000D01*
X155625000Y-29200000D02*
X155625000Y-32600000D01*
X136125000Y-33900000D02*
X136125000Y-33950000D01*
D11*
X18400000Y-32950000D02*
X18400000Y-31950000D01*
D10*
X141925000Y-43900000D02*
X141925000Y-43950000D01*
X148225000Y-64700000D02*
X145825000Y-63300000D01*
X149175000Y-31950000D02*
X146675000Y-31300000D01*
X156125000Y-38000000D02*
X156125000Y-38050000D01*
X141625000Y-32900000D02*
X136625000Y-32900000D01*
D11*
X18884314Y-74650000D02*
X18884314Y-73650000D01*
D10*
X139025000Y-39050000D02*
X138975000Y-39050000D01*
X158625000Y-29800000D02*
X158425000Y-29700000D01*
X151325000Y-63400000D02*
X150925000Y-59700000D01*
X138925000Y-68550000D02*
X138975000Y-68550000D01*
X159175000Y-56950000D02*
X159125000Y-56950000D01*
X162425000Y-39600000D02*
X161625000Y-39600000D01*
X148625000Y-50100000D02*
X148625000Y-52400000D01*
X152125000Y-63400000D02*
X151725000Y-59700000D01*
X137525000Y-59250000D02*
X140925000Y-59250000D01*
X146225000Y-59700000D02*
X145425000Y-59700000D01*
X52350000Y-9000000D02*
X57350000Y-9000000D01*
X57350000Y-14000000D01*
X52350000Y-14000000D01*
X52350000Y-9000000D01*
G36*
X52350000Y-9000000D02*
G01*
X57350000Y-9000000D01*
X57350000Y-14000000D01*
X52350000Y-14000000D01*
X52350000Y-9000000D01*
G37*
X151525000Y-49100000D02*
X149875000Y-49100000D01*
X161425000Y-30500000D02*
X157225000Y-30500000D01*
X136125000Y-44250000D02*
X136125000Y-44300000D01*
X147825000Y-50100000D02*
X147825000Y-52400000D01*
X148625000Y-40100000D02*
X148625000Y-42400000D01*
X63775000Y-114050000D02*
X68775000Y-114050000D01*
X68775000Y-119050000D01*
X63775000Y-119050000D01*
X63775000Y-114050000D01*
G36*
X63775000Y-114050000D02*
G01*
X68775000Y-114050000D01*
X68775000Y-119050000D01*
X63775000Y-119050000D01*
X63775000Y-114050000D01*
G37*
X150025000Y-48300000D02*
X148425000Y-48300000D01*
X152425000Y-39600000D02*
X151625000Y-39600000D01*
X158625000Y-41900000D02*
X158525000Y-41700000D01*
X151875000Y-30400000D02*
X151575000Y-30400000D01*
D11*
X18121814Y-95450000D02*
X19246814Y-95450000D01*
D10*
X146625000Y-47500000D02*
X146875000Y-47400000D01*
X152125000Y-63400000D02*
X151325000Y-63400000D01*
X151525000Y-47500000D02*
X151075000Y-47500000D01*
X146625000Y-47500000D02*
X146875000Y-47600000D01*
X147925000Y-58300000D02*
X147725000Y-58400000D01*
X140525000Y-61500000D02*
X140925000Y-59250000D01*
X155975000Y-61650000D02*
X155975000Y-61700000D01*
X161425000Y-39100000D02*
X160425000Y-39100000D01*
X142075000Y-34250000D02*
X142075000Y-34300000D01*
X159425000Y-52400000D02*
X159425000Y-51600000D01*
X145585008Y-31542074D02*
X140925000Y-29500000D01*
X146625000Y-46700000D02*
X146875000Y-46800000D01*
X140525000Y-34600000D02*
X139625000Y-33700000D01*
X138425000Y-66100000D02*
X138425000Y-68000000D01*
X158425000Y-46800000D02*
X158225000Y-46700000D01*
X148425000Y-38300000D02*
X147525000Y-37500000D01*
X158625000Y-36800000D02*
X158425000Y-36700000D01*
X151825000Y-31950000D02*
X149175000Y-31950000D01*
D11*
X113150000Y-115100000D02*
X114400000Y-115100000D01*
D10*
X146425000Y-36200000D02*
X145625000Y-36200000D01*
X161225000Y-47500000D02*
X157025000Y-47500000D01*
X137625000Y-62400000D02*
X137625000Y-64400000D01*
X140825000Y-39500000D02*
X137425000Y-39500000D01*
X156325000Y-63600000D02*
X155525000Y-63600000D01*
X157425000Y-31200000D02*
X157225000Y-31300000D01*
X158425000Y-47400000D02*
X158225000Y-47500000D01*
X160225000Y-52400000D02*
X160225000Y-49100000D01*
X140725000Y-48700000D02*
X140725000Y-49500000D01*
X140025000Y-66300000D02*
X140025000Y-68100000D01*
X146075000Y-48050000D02*
X146075000Y-48100000D01*
X147725000Y-56800000D02*
X147925000Y-56700000D01*
X151125000Y-65500000D02*
X148025000Y-65500000D01*
X145200000Y-63106699D02*
X145175000Y-63150000D01*
X147825000Y-66300000D02*
X145125000Y-64600000D01*
D13*
X162062030Y-37184104D02*
X161776316Y-37184104D01*
X162119173Y-37469819D02*
X161919173Y-36469819D01*
X161919173Y-36469819D02*
X161719173Y-37469819D01*
X162033458Y-32319819D02*
X162033458Y-31319819D01*
X162033458Y-31319819D02*
X161890601Y-31319819D01*
X161890601Y-31319819D02*
X161804887Y-31367438D01*
X161804887Y-31367438D02*
X161747744Y-31462676D01*
X161747744Y-31462676D02*
X161719173Y-31557914D01*
X161719173Y-31557914D02*
X161690601Y-31748390D01*
X161690601Y-31748390D02*
X161690601Y-31891247D01*
X161690601Y-31891247D02*
X161719173Y-32081723D01*
X161719173Y-32081723D02*
X161747744Y-32176961D01*
X161747744Y-32176961D02*
X161804887Y-32272200D01*
X161804887Y-32272200D02*
X161890601Y-32319819D01*
X161890601Y-32319819D02*
X162033458Y-32319819D01*
X156112030Y-61134104D02*
X155826316Y-61134104D01*
X156169173Y-61419819D02*
X155969173Y-60419819D01*
X155969173Y-60419819D02*
X155769173Y-61419819D01*
X139740895Y-49187030D02*
X139740895Y-48901316D01*
X139455180Y-49244173D02*
X140455180Y-49044173D01*
X140455180Y-49044173D02*
X139455180Y-48844173D01*
X152062030Y-37134104D02*
X151776316Y-37134104D01*
X152119173Y-37419819D02*
X151919173Y-36419819D01*
X151919173Y-36419819D02*
X151719173Y-37419819D01*
X160444819Y-52691541D02*
X159444819Y-52691541D01*
X159444819Y-52691541D02*
X159444819Y-52834398D01*
X159444819Y-52834398D02*
X159492438Y-52920112D01*
X159492438Y-52920112D02*
X159587676Y-52977255D01*
X159587676Y-52977255D02*
X159682914Y-53005826D01*
X159682914Y-53005826D02*
X159873390Y-53034398D01*
X159873390Y-53034398D02*
X160016247Y-53034398D01*
X160016247Y-53034398D02*
X160206723Y-53005826D01*
X160206723Y-53005826D02*
X160301961Y-52977255D01*
X160301961Y-52977255D02*
X160397200Y-52920112D01*
X160397200Y-52920112D02*
X160444819Y-52834398D01*
X160444819Y-52834398D02*
X160444819Y-52691541D01*
D10*
X147915752Y-52661027D02*
X147915752Y-52899122D01*
X148058609Y-52613408D02*
X147558609Y-52780074D01*
X147558609Y-52780074D02*
X148058609Y-52946741D01*
D13*
X157505180Y-57058458D02*
X158505180Y-57058458D01*
X158505180Y-57058458D02*
X158505180Y-56915601D01*
X158505180Y-56915601D02*
X158457561Y-56829887D01*
X158457561Y-56829887D02*
X158362323Y-56772744D01*
X158362323Y-56772744D02*
X158267085Y-56744173D01*
X158267085Y-56744173D02*
X158076609Y-56715601D01*
X158076609Y-56715601D02*
X157933752Y-56715601D01*
X157933752Y-56715601D02*
X157743276Y-56744173D01*
X157743276Y-56744173D02*
X157648038Y-56772744D01*
X157648038Y-56772744D02*
X157552800Y-56829887D01*
X157552800Y-56829887D02*
X157505180Y-56915601D01*
X157505180Y-56915601D02*
X157505180Y-57058458D01*
X158309104Y-42712969D02*
X158309104Y-42998684D01*
X158594819Y-42655826D02*
X157594819Y-42855826D01*
X157594819Y-42855826D02*
X158594819Y-43055826D01*
X151383458Y-59469819D02*
X151383458Y-58469819D01*
X151383458Y-58469819D02*
X151240601Y-58469819D01*
X151240601Y-58469819D02*
X151154887Y-58517438D01*
X151154887Y-58517438D02*
X151097744Y-58612676D01*
X151097744Y-58612676D02*
X151069173Y-58707914D01*
X151069173Y-58707914D02*
X151040601Y-58898390D01*
X151040601Y-58898390D02*
X151040601Y-59041247D01*
X151040601Y-59041247D02*
X151069173Y-59231723D01*
X151069173Y-59231723D02*
X151097744Y-59326961D01*
X151097744Y-59326961D02*
X151154887Y-59422200D01*
X151154887Y-59422200D02*
X151240601Y-59469819D01*
X151240601Y-59469819D02*
X151383458Y-59469819D01*
X138059104Y-68412969D02*
X138059104Y-68698684D01*
X138344819Y-68355826D02*
X137344819Y-68555826D01*
X137344819Y-68555826D02*
X138344819Y-68755826D01*
X145576619Y-62728436D02*
X145329183Y-62585579D01*
X145483249Y-63004443D02*
X145810044Y-62038418D01*
X145810044Y-62038418D02*
X145136839Y-62804443D01*
X156083458Y-63319819D02*
X156083458Y-62319819D01*
X156083458Y-62319819D02*
X155940601Y-62319819D01*
X155940601Y-62319819D02*
X155854887Y-62367438D01*
X155854887Y-62367438D02*
X155797744Y-62462676D01*
X155797744Y-62462676D02*
X155769173Y-62557914D01*
X155769173Y-62557914D02*
X155740601Y-62748390D01*
X155740601Y-62748390D02*
X155740601Y-62891247D01*
X155740601Y-62891247D02*
X155769173Y-63081723D01*
X155769173Y-63081723D02*
X155797744Y-63176961D01*
X155797744Y-63176961D02*
X155854887Y-63272200D01*
X155854887Y-63272200D02*
X155940601Y-63319819D01*
X155940601Y-63319819D02*
X156083458Y-63319819D01*
X146262030Y-37184104D02*
X145976316Y-37184104D01*
X146319173Y-37469819D02*
X146119173Y-36469819D01*
X146119173Y-36469819D02*
X145919173Y-37469819D01*
X137705180Y-39158458D02*
X138705180Y-39158458D01*
X138705180Y-39158458D02*
X138705180Y-39015601D01*
X138705180Y-39015601D02*
X138657561Y-38929887D01*
X138657561Y-38929887D02*
X138562323Y-38872744D01*
X138562323Y-38872744D02*
X138467085Y-38844173D01*
X138467085Y-38844173D02*
X138276609Y-38815601D01*
X138276609Y-38815601D02*
X138133752Y-38815601D01*
X138133752Y-38815601D02*
X137943276Y-38844173D01*
X137943276Y-38844173D02*
X137848038Y-38872744D01*
X137848038Y-38872744D02*
X137752800Y-38929887D01*
X137752800Y-38929887D02*
X137705180Y-39015601D01*
X137705180Y-39015601D02*
X137705180Y-39158458D01*
X139890895Y-39187030D02*
X139890895Y-38901316D01*
X139605180Y-39244173D02*
X140605180Y-39044173D01*
X140605180Y-39044173D02*
X139605180Y-38844173D01*
X140244819Y-68441541D02*
X139244819Y-68441541D01*
X139244819Y-68441541D02*
X139244819Y-68584398D01*
X139244819Y-68584398D02*
X139292438Y-68670112D01*
X139292438Y-68670112D02*
X139387676Y-68727255D01*
X139387676Y-68727255D02*
X139482914Y-68755826D01*
X139482914Y-68755826D02*
X139673390Y-68784398D01*
X139673390Y-68784398D02*
X139816247Y-68784398D01*
X139816247Y-68784398D02*
X140006723Y-68755826D01*
X140006723Y-68755826D02*
X140101961Y-68727255D01*
X140101961Y-68727255D02*
X140197200Y-68670112D01*
X140197200Y-68670112D02*
X140244819Y-68584398D01*
X140244819Y-68584398D02*
X140244819Y-68441541D01*
X152433458Y-32219819D02*
X152433458Y-31219819D01*
X152433458Y-31219819D02*
X152290601Y-31219819D01*
X152290601Y-31219819D02*
X152204887Y-31267438D01*
X152204887Y-31267438D02*
X152147744Y-31362676D01*
X152147744Y-31362676D02*
X152119173Y-31457914D01*
X152119173Y-31457914D02*
X152090601Y-31648390D01*
X152090601Y-31648390D02*
X152090601Y-31791247D01*
X152090601Y-31791247D02*
X152119173Y-31981723D01*
X152119173Y-31981723D02*
X152147744Y-32076961D01*
X152147744Y-32076961D02*
X152204887Y-32172200D01*
X152204887Y-32172200D02*
X152290601Y-32219819D01*
X152290601Y-32219819D02*
X152433458Y-32219819D01*
X137555180Y-49158458D02*
X138555180Y-49158458D01*
X138555180Y-49158458D02*
X138555180Y-49015601D01*
X138555180Y-49015601D02*
X138507561Y-48929887D01*
X138507561Y-48929887D02*
X138412323Y-48872744D01*
X138412323Y-48872744D02*
X138317085Y-48844173D01*
X138317085Y-48844173D02*
X138126609Y-48815601D01*
X138126609Y-48815601D02*
X137983752Y-48815601D01*
X137983752Y-48815601D02*
X137793276Y-48844173D01*
X137793276Y-48844173D02*
X137698038Y-48872744D01*
X137698038Y-48872744D02*
X137602800Y-48929887D01*
X137602800Y-48929887D02*
X137555180Y-49015601D01*
X137555180Y-49015601D02*
X137555180Y-49158458D01*
X138509104Y-52412969D02*
X138509104Y-52698684D01*
X138794819Y-52355826D02*
X137794819Y-52555826D01*
X137794819Y-52555826D02*
X138794819Y-52755826D01*
X162112030Y-61134104D02*
X161826316Y-61134104D01*
X162169173Y-61419819D02*
X161969173Y-60419819D01*
X161969173Y-60419819D02*
X161769173Y-61419819D01*
X146183458Y-49369819D02*
X146183458Y-48369819D01*
X146183458Y-48369819D02*
X146040601Y-48369819D01*
X146040601Y-48369819D02*
X145954887Y-48417438D01*
X145954887Y-48417438D02*
X145897744Y-48512676D01*
X145897744Y-48512676D02*
X145869173Y-48607914D01*
X145869173Y-48607914D02*
X145840601Y-48798390D01*
X145840601Y-48798390D02*
X145840601Y-48941247D01*
X145840601Y-48941247D02*
X145869173Y-49131723D01*
X145869173Y-49131723D02*
X145897744Y-49226961D01*
X145897744Y-49226961D02*
X145954887Y-49322200D01*
X145954887Y-49322200D02*
X146040601Y-49369819D01*
X146040601Y-49369819D02*
X146183458Y-49369819D01*
X162083458Y-63319819D02*
X162083458Y-62319819D01*
X162083458Y-62319819D02*
X161940601Y-62319819D01*
X161940601Y-62319819D02*
X161854887Y-62367438D01*
X161854887Y-62367438D02*
X161797744Y-62462676D01*
X161797744Y-62462676D02*
X161769173Y-62557914D01*
X161769173Y-62557914D02*
X161740601Y-62748390D01*
X161740601Y-62748390D02*
X161740601Y-62891247D01*
X161740601Y-62891247D02*
X161769173Y-63081723D01*
X161769173Y-63081723D02*
X161797744Y-63176961D01*
X161797744Y-63176961D02*
X161854887Y-63272200D01*
X161854887Y-63272200D02*
X161940601Y-63319819D01*
X161940601Y-63319819D02*
X162083458Y-63319819D01*
X162062030Y-30134104D02*
X161776316Y-30134104D01*
X162119173Y-30419819D02*
X161919173Y-29419819D01*
X161919173Y-29419819D02*
X161719173Y-30419819D01*
X160444819Y-66691541D02*
X159444819Y-66691541D01*
X159444819Y-66691541D02*
X159444819Y-66834398D01*
X159444819Y-66834398D02*
X159492438Y-66920112D01*
X159492438Y-66920112D02*
X159587676Y-66977255D01*
X159587676Y-66977255D02*
X159682914Y-67005826D01*
X159682914Y-67005826D02*
X159873390Y-67034398D01*
X159873390Y-67034398D02*
X160016247Y-67034398D01*
X160016247Y-67034398D02*
X160206723Y-67005826D01*
X160206723Y-67005826D02*
X160301961Y-66977255D01*
X160301961Y-66977255D02*
X160397200Y-66920112D01*
X160397200Y-66920112D02*
X160444819Y-66834398D01*
X160444819Y-66834398D02*
X160444819Y-66691541D01*
X144459018Y-64607034D02*
X144959018Y-63741009D01*
X144959018Y-63741009D02*
X144835300Y-63669580D01*
X144835300Y-63669580D02*
X144737260Y-63667962D01*
X144737260Y-63667962D02*
X144640154Y-63721869D01*
X144640154Y-63721869D02*
X144567791Y-63790062D01*
X144567791Y-63790062D02*
X144447810Y-63940734D01*
X144447810Y-63940734D02*
X144376381Y-64064452D01*
X144376381Y-64064452D02*
X144305886Y-64243695D01*
X144305886Y-64243695D02*
X144283011Y-64340459D01*
X144283011Y-64340459D02*
X144284879Y-64451509D01*
X144284879Y-64451509D02*
X144335300Y-64535605D01*
X144335300Y-64535605D02*
X144459018Y-64607034D01*
X136233458Y-35569819D02*
X136233458Y-34569819D01*
X136233458Y-34569819D02*
X136090601Y-34569819D01*
X136090601Y-34569819D02*
X136004887Y-34617438D01*
X136004887Y-34617438D02*
X135947744Y-34712676D01*
X135947744Y-34712676D02*
X135919173Y-34807914D01*
X135919173Y-34807914D02*
X135890601Y-34998390D01*
X135890601Y-34998390D02*
X135890601Y-35141247D01*
X135890601Y-35141247D02*
X135919173Y-35331723D01*
X135919173Y-35331723D02*
X135947744Y-35426961D01*
X135947744Y-35426961D02*
X136004887Y-35522200D01*
X136004887Y-35522200D02*
X136090601Y-35569819D01*
X136090601Y-35569819D02*
X136233458Y-35569819D01*
X151762030Y-64384104D02*
X151476316Y-64384104D01*
X151819173Y-64669819D02*
X151619173Y-63669819D01*
X151619173Y-63669819D02*
X151419173Y-64669819D01*
X142062030Y-43384104D02*
X141776316Y-43384104D01*
X142119173Y-43669819D02*
X141919173Y-42669819D01*
X141919173Y-42669819D02*
X141719173Y-43669819D01*
D10*
X148596704Y-42851503D02*
X148620514Y-42922931D01*
X148620514Y-42922931D02*
X148644323Y-42946741D01*
X148644323Y-42946741D02*
X148691942Y-42970550D01*
X148691942Y-42970550D02*
X148763371Y-42970550D01*
X148763371Y-42970550D02*
X148810990Y-42946741D01*
X148810990Y-42946741D02*
X148834800Y-42922931D01*
X148834800Y-42922931D02*
X148858609Y-42875312D01*
X148858609Y-42875312D02*
X148858609Y-42684836D01*
X148858609Y-42684836D02*
X148358609Y-42684836D01*
X148358609Y-42684836D02*
X148358609Y-42851503D01*
X148358609Y-42851503D02*
X148382419Y-42899122D01*
X148382419Y-42899122D02*
X148406228Y-42922931D01*
X148406228Y-42922931D02*
X148453847Y-42946741D01*
X148453847Y-42946741D02*
X148501466Y-42946741D01*
X148501466Y-42946741D02*
X148549085Y-42922931D01*
X148549085Y-42922931D02*
X148572895Y-42899122D01*
X148572895Y-42899122D02*
X148596704Y-42851503D01*
X148596704Y-42851503D02*
X148596704Y-42684836D01*
D13*
X146201109Y-31454622D02*
X146459928Y-30488696D01*
X146459928Y-30488696D02*
X146321939Y-30451722D01*
X146321939Y-30451722D02*
X146226820Y-30475534D01*
X146226820Y-30475534D02*
X146146975Y-30552737D01*
X146146975Y-30552737D02*
X146094728Y-30637335D01*
X146094728Y-30637335D02*
X146017831Y-30813926D01*
X146017831Y-30813926D02*
X145980857Y-30951916D01*
X145980857Y-30951916D02*
X145959156Y-31143296D01*
X145959156Y-31143296D02*
X145962104Y-31242684D01*
X145962104Y-31242684D02*
X145992651Y-31349467D01*
X145992651Y-31349467D02*
X146063120Y-31417648D01*
X146063120Y-31417648D02*
X146201109Y-31454622D01*
X159690895Y-57087030D02*
X159690895Y-56801316D01*
X159405180Y-57144173D02*
X160405180Y-56944173D01*
X160405180Y-56944173D02*
X159405180Y-56744173D01*
X139940895Y-29287030D02*
X139940895Y-29001316D01*
X139655180Y-29344173D02*
X140655180Y-29144173D01*
X140655180Y-29144173D02*
X139655180Y-28944173D01*
X140694819Y-52441541D02*
X139694819Y-52441541D01*
X139694819Y-52441541D02*
X139694819Y-52584398D01*
X139694819Y-52584398D02*
X139742438Y-52670112D01*
X139742438Y-52670112D02*
X139837676Y-52727255D01*
X139837676Y-52727255D02*
X139932914Y-52755826D01*
X139932914Y-52755826D02*
X140123390Y-52784398D01*
X140123390Y-52784398D02*
X140266247Y-52784398D01*
X140266247Y-52784398D02*
X140456723Y-52755826D01*
X140456723Y-52755826D02*
X140551961Y-52727255D01*
X140551961Y-52727255D02*
X140647200Y-52670112D01*
X140647200Y-52670112D02*
X140694819Y-52584398D01*
X140694819Y-52584398D02*
X140694819Y-52441541D01*
X156262030Y-37134104D02*
X155976316Y-37134104D01*
X156319173Y-37419819D02*
X156119173Y-36419819D01*
X156119173Y-36419819D02*
X155919173Y-37419819D01*
X156012030Y-47184104D02*
X155726316Y-47184104D01*
X156069173Y-47469819D02*
X155869173Y-46469819D01*
X155869173Y-46469819D02*
X155669173Y-47469819D01*
X137755180Y-29258458D02*
X138755180Y-29258458D01*
X138755180Y-29258458D02*
X138755180Y-29115601D01*
X138755180Y-29115601D02*
X138707561Y-29029887D01*
X138707561Y-29029887D02*
X138612323Y-28972744D01*
X138612323Y-28972744D02*
X138517085Y-28944173D01*
X138517085Y-28944173D02*
X138326609Y-28915601D01*
X138326609Y-28915601D02*
X138183752Y-28915601D01*
X138183752Y-28915601D02*
X137993276Y-28944173D01*
X137993276Y-28944173D02*
X137898038Y-28972744D01*
X137898038Y-28972744D02*
X137802800Y-29029887D01*
X137802800Y-29029887D02*
X137755180Y-29115601D01*
X137755180Y-29115601D02*
X137755180Y-29258458D01*
X152462030Y-30034104D02*
X152176316Y-30034104D01*
X152519173Y-30319819D02*
X152319173Y-29319819D01*
X152319173Y-29319819D02*
X152119173Y-30319819D01*
X152062030Y-47134104D02*
X151776316Y-47134104D01*
X152119173Y-47419819D02*
X151919173Y-46419819D01*
X151919173Y-46419819D02*
X151719173Y-47419819D01*
X158259104Y-66662969D02*
X158259104Y-66948684D01*
X158544819Y-66605826D02*
X157544819Y-66805826D01*
X157544819Y-66805826D02*
X158544819Y-67005826D01*
D10*
X147915752Y-42661027D02*
X147915752Y-42899122D01*
X148058609Y-42613408D02*
X147558609Y-42780074D01*
X147558609Y-42780074D02*
X148058609Y-42946741D01*
D13*
X156233458Y-32319819D02*
X156233458Y-31319819D01*
X156233458Y-31319819D02*
X156090601Y-31319819D01*
X156090601Y-31319819D02*
X156004887Y-31367438D01*
X156004887Y-31367438D02*
X155947744Y-31462676D01*
X155947744Y-31462676D02*
X155919173Y-31557914D01*
X155919173Y-31557914D02*
X155890601Y-31748390D01*
X155890601Y-31748390D02*
X155890601Y-31891247D01*
X155890601Y-31891247D02*
X155919173Y-32081723D01*
X155919173Y-32081723D02*
X155947744Y-32176961D01*
X155947744Y-32176961D02*
X156004887Y-32272200D01*
X156004887Y-32272200D02*
X156090601Y-32319819D01*
X156090601Y-32319819D02*
X156233458Y-32319819D01*
X146794411Y-29350779D02*
X146518432Y-29276831D01*
X146775659Y-29641547D02*
X146841293Y-28623858D01*
X146841293Y-28623858D02*
X146389288Y-29538020D01*
X136262030Y-43384104D02*
X135976316Y-43384104D01*
X136319173Y-43669819D02*
X136119173Y-42669819D01*
X136119173Y-42669819D02*
X135919173Y-43669819D01*
X140294819Y-61841541D02*
X139294819Y-61841541D01*
X139294819Y-61841541D02*
X139294819Y-61984398D01*
X139294819Y-61984398D02*
X139342438Y-62070112D01*
X139342438Y-62070112D02*
X139437676Y-62127255D01*
X139437676Y-62127255D02*
X139532914Y-62155826D01*
X139532914Y-62155826D02*
X139723390Y-62184398D01*
X139723390Y-62184398D02*
X139866247Y-62184398D01*
X139866247Y-62184398D02*
X140056723Y-62155826D01*
X140056723Y-62155826D02*
X140151961Y-62127255D01*
X140151961Y-62127255D02*
X140247200Y-62070112D01*
X140247200Y-62070112D02*
X140294819Y-61984398D01*
X140294819Y-61984398D02*
X140294819Y-61841541D01*
X155983458Y-49369819D02*
X155983458Y-48369819D01*
X155983458Y-48369819D02*
X155840601Y-48369819D01*
X155840601Y-48369819D02*
X155754887Y-48417438D01*
X155754887Y-48417438D02*
X155697744Y-48512676D01*
X155697744Y-48512676D02*
X155669173Y-48607914D01*
X155669173Y-48607914D02*
X155640601Y-48798390D01*
X155640601Y-48798390D02*
X155640601Y-48941247D01*
X155640601Y-48941247D02*
X155669173Y-49131723D01*
X155669173Y-49131723D02*
X155697744Y-49226961D01*
X155697744Y-49226961D02*
X155754887Y-49322200D01*
X155754887Y-49322200D02*
X155840601Y-49369819D01*
X155840601Y-49369819D02*
X155983458Y-49369819D01*
X158259104Y-52662969D02*
X158259104Y-52948684D01*
X158544819Y-52605826D02*
X157544819Y-52805826D01*
X157544819Y-52805826D02*
X158544819Y-53005826D01*
X145983458Y-59419819D02*
X145983458Y-58419819D01*
X145983458Y-58419819D02*
X145840601Y-58419819D01*
X145840601Y-58419819D02*
X145754887Y-58467438D01*
X145754887Y-58467438D02*
X145697744Y-58562676D01*
X145697744Y-58562676D02*
X145669173Y-58657914D01*
X145669173Y-58657914D02*
X145640601Y-58848390D01*
X145640601Y-58848390D02*
X145640601Y-58991247D01*
X145640601Y-58991247D02*
X145669173Y-59181723D01*
X145669173Y-59181723D02*
X145697744Y-59276961D01*
X145697744Y-59276961D02*
X145754887Y-59372200D01*
X145754887Y-59372200D02*
X145840601Y-59419819D01*
X145840601Y-59419819D02*
X145983458Y-59419819D01*
X146233458Y-39369819D02*
X146233458Y-38369819D01*
X146233458Y-38369819D02*
X146090601Y-38369819D01*
X146090601Y-38369819D02*
X146004887Y-38417438D01*
X146004887Y-38417438D02*
X145947744Y-38512676D01*
X145947744Y-38512676D02*
X145919173Y-38607914D01*
X145919173Y-38607914D02*
X145890601Y-38798390D01*
X145890601Y-38798390D02*
X145890601Y-38941247D01*
X145890601Y-38941247D02*
X145919173Y-39131723D01*
X145919173Y-39131723D02*
X145947744Y-39226961D01*
X145947744Y-39226961D02*
X146004887Y-39322200D01*
X146004887Y-39322200D02*
X146090601Y-39369819D01*
X146090601Y-39369819D02*
X146233458Y-39369819D01*
X146012030Y-57234104D02*
X145726316Y-57234104D01*
X146069173Y-57519819D02*
X145869173Y-56519819D01*
X145869173Y-56519819D02*
X145669173Y-57519819D01*
X152033458Y-39319819D02*
X152033458Y-38319819D01*
X152033458Y-38319819D02*
X151890601Y-38319819D01*
X151890601Y-38319819D02*
X151804887Y-38367438D01*
X151804887Y-38367438D02*
X151747744Y-38462676D01*
X151747744Y-38462676D02*
X151719173Y-38557914D01*
X151719173Y-38557914D02*
X151690601Y-38748390D01*
X151690601Y-38748390D02*
X151690601Y-38891247D01*
X151690601Y-38891247D02*
X151719173Y-39081723D01*
X151719173Y-39081723D02*
X151747744Y-39176961D01*
X151747744Y-39176961D02*
X151804887Y-39272200D01*
X151804887Y-39272200D02*
X151890601Y-39319819D01*
X151890601Y-39319819D02*
X152033458Y-39319819D01*
D10*
X150458609Y-42684836D02*
X149958609Y-42684836D01*
X149958609Y-42684836D02*
X149958609Y-42803884D01*
X149958609Y-42803884D02*
X149982419Y-42875312D01*
X149982419Y-42875312D02*
X150030038Y-42922931D01*
X150030038Y-42922931D02*
X150077657Y-42946741D01*
X150077657Y-42946741D02*
X150172895Y-42970550D01*
X150172895Y-42970550D02*
X150244323Y-42970550D01*
X150244323Y-42970550D02*
X150339561Y-42946741D01*
X150339561Y-42946741D02*
X150387180Y-42922931D01*
X150387180Y-42922931D02*
X150434800Y-42875312D01*
X150434800Y-42875312D02*
X150458609Y-42803884D01*
X150458609Y-42803884D02*
X150458609Y-42684836D01*
X149610990Y-42970550D02*
X149634800Y-42946741D01*
X149634800Y-42946741D02*
X149658609Y-42875312D01*
X149658609Y-42875312D02*
X149658609Y-42827693D01*
X149658609Y-42827693D02*
X149634800Y-42756265D01*
X149634800Y-42756265D02*
X149587180Y-42708646D01*
X149587180Y-42708646D02*
X149539561Y-42684836D01*
X149539561Y-42684836D02*
X149444323Y-42661027D01*
X149444323Y-42661027D02*
X149372895Y-42661027D01*
X149372895Y-42661027D02*
X149277657Y-42684836D01*
X149277657Y-42684836D02*
X149230038Y-42708646D01*
X149230038Y-42708646D02*
X149182419Y-42756265D01*
X149182419Y-42756265D02*
X149158609Y-42827693D01*
X149158609Y-42827693D02*
X149158609Y-42875312D01*
X149158609Y-42875312D02*
X149182419Y-42946741D01*
X149182419Y-42946741D02*
X149206228Y-42970550D01*
X150458609Y-52684836D02*
X149958609Y-52684836D01*
X149958609Y-52684836D02*
X149958609Y-52803884D01*
X149958609Y-52803884D02*
X149982419Y-52875312D01*
X149982419Y-52875312D02*
X150030038Y-52922931D01*
X150030038Y-52922931D02*
X150077657Y-52946741D01*
X150077657Y-52946741D02*
X150172895Y-52970550D01*
X150172895Y-52970550D02*
X150244323Y-52970550D01*
X150244323Y-52970550D02*
X150339561Y-52946741D01*
X150339561Y-52946741D02*
X150387180Y-52922931D01*
X150387180Y-52922931D02*
X150434800Y-52875312D01*
X150434800Y-52875312D02*
X150458609Y-52803884D01*
X150458609Y-52803884D02*
X150458609Y-52684836D01*
D13*
X156233458Y-39319819D02*
X156233458Y-38319819D01*
X156233458Y-38319819D02*
X156090601Y-38319819D01*
X156090601Y-38319819D02*
X156004887Y-38367438D01*
X156004887Y-38367438D02*
X155947744Y-38462676D01*
X155947744Y-38462676D02*
X155919173Y-38557914D01*
X155919173Y-38557914D02*
X155890601Y-38748390D01*
X155890601Y-38748390D02*
X155890601Y-38891247D01*
X155890601Y-38891247D02*
X155919173Y-39081723D01*
X155919173Y-39081723D02*
X155947744Y-39176961D01*
X155947744Y-39176961D02*
X156004887Y-39272200D01*
X156004887Y-39272200D02*
X156090601Y-39319819D01*
X156090601Y-39319819D02*
X156233458Y-39319819D01*
X161833458Y-49369819D02*
X161833458Y-48369819D01*
X161833458Y-48369819D02*
X161690601Y-48369819D01*
X161690601Y-48369819D02*
X161604887Y-48417438D01*
X161604887Y-48417438D02*
X161547744Y-48512676D01*
X161547744Y-48512676D02*
X161519173Y-48607914D01*
X161519173Y-48607914D02*
X161490601Y-48798390D01*
X161490601Y-48798390D02*
X161490601Y-48941247D01*
X161490601Y-48941247D02*
X161519173Y-49131723D01*
X161519173Y-49131723D02*
X161547744Y-49226961D01*
X161547744Y-49226961D02*
X161604887Y-49322200D01*
X161604887Y-49322200D02*
X161690601Y-49369819D01*
X161690601Y-49369819D02*
X161833458Y-49369819D01*
D10*
X149610990Y-52970550D02*
X149634800Y-52946741D01*
X149634800Y-52946741D02*
X149658609Y-52875312D01*
X149658609Y-52875312D02*
X149658609Y-52827693D01*
X149658609Y-52827693D02*
X149634800Y-52756265D01*
X149634800Y-52756265D02*
X149587180Y-52708646D01*
X149587180Y-52708646D02*
X149539561Y-52684836D01*
X149539561Y-52684836D02*
X149444323Y-52661027D01*
X149444323Y-52661027D02*
X149372895Y-52661027D01*
X149372895Y-52661027D02*
X149277657Y-52684836D01*
X149277657Y-52684836D02*
X149230038Y-52708646D01*
X149230038Y-52708646D02*
X149182419Y-52756265D01*
X149182419Y-52756265D02*
X149158609Y-52827693D01*
X149158609Y-52827693D02*
X149158609Y-52875312D01*
X149158609Y-52875312D02*
X149182419Y-52946741D01*
X149182419Y-52946741D02*
X149206228Y-52970550D01*
D13*
X142183458Y-35569819D02*
X142183458Y-34569819D01*
X142183458Y-34569819D02*
X142040601Y-34569819D01*
X142040601Y-34569819D02*
X141954887Y-34617438D01*
X141954887Y-34617438D02*
X141897744Y-34712676D01*
X141897744Y-34712676D02*
X141869173Y-34807914D01*
X141869173Y-34807914D02*
X141840601Y-34998390D01*
X141840601Y-34998390D02*
X141840601Y-35141247D01*
X141840601Y-35141247D02*
X141869173Y-35331723D01*
X141869173Y-35331723D02*
X141897744Y-35426961D01*
X141897744Y-35426961D02*
X141954887Y-35522200D01*
X141954887Y-35522200D02*
X142040601Y-35569819D01*
X142040601Y-35569819D02*
X142183458Y-35569819D01*
X142212030Y-33384104D02*
X141926316Y-33384104D01*
X142269173Y-33669819D02*
X142069173Y-32669819D01*
X142069173Y-32669819D02*
X141869173Y-33669819D01*
X142033458Y-45569819D02*
X142033458Y-44569819D01*
X142033458Y-44569819D02*
X141890601Y-44569819D01*
X141890601Y-44569819D02*
X141804887Y-44617438D01*
X141804887Y-44617438D02*
X141747744Y-44712676D01*
X141747744Y-44712676D02*
X141719173Y-44807914D01*
X141719173Y-44807914D02*
X141690601Y-44998390D01*
X141690601Y-44998390D02*
X141690601Y-45141247D01*
X141690601Y-45141247D02*
X141719173Y-45331723D01*
X141719173Y-45331723D02*
X141747744Y-45426961D01*
X141747744Y-45426961D02*
X141804887Y-45522200D01*
X141804887Y-45522200D02*
X141890601Y-45569819D01*
X141890601Y-45569819D02*
X142033458Y-45569819D01*
D10*
X148596704Y-52851503D02*
X148620514Y-52922931D01*
X148620514Y-52922931D02*
X148644323Y-52946741D01*
X148644323Y-52946741D02*
X148691942Y-52970550D01*
X148691942Y-52970550D02*
X148763371Y-52970550D01*
X148763371Y-52970550D02*
X148810990Y-52946741D01*
X148810990Y-52946741D02*
X148834800Y-52922931D01*
X148834800Y-52922931D02*
X148858609Y-52875312D01*
X148858609Y-52875312D02*
X148858609Y-52684836D01*
X148858609Y-52684836D02*
X148358609Y-52684836D01*
X148358609Y-52684836D02*
X148358609Y-52851503D01*
X148358609Y-52851503D02*
X148382419Y-52899122D01*
X148382419Y-52899122D02*
X148406228Y-52922931D01*
X148406228Y-52922931D02*
X148453847Y-52946741D01*
X148453847Y-52946741D02*
X148501466Y-52946741D01*
X148501466Y-52946741D02*
X148549085Y-52922931D01*
X148549085Y-52922931D02*
X148572895Y-52899122D01*
X148572895Y-52899122D02*
X148596704Y-52851503D01*
X148596704Y-52851503D02*
X148596704Y-52684836D01*
D13*
X162033458Y-39369819D02*
X162033458Y-38369819D01*
X162033458Y-38369819D02*
X161890601Y-38369819D01*
X161890601Y-38369819D02*
X161804887Y-38417438D01*
X161804887Y-38417438D02*
X161747744Y-38512676D01*
X161747744Y-38512676D02*
X161719173Y-38607914D01*
X161719173Y-38607914D02*
X161690601Y-38798390D01*
X161690601Y-38798390D02*
X161690601Y-38941247D01*
X161690601Y-38941247D02*
X161719173Y-39131723D01*
X161719173Y-39131723D02*
X161747744Y-39226961D01*
X161747744Y-39226961D02*
X161804887Y-39322200D01*
X161804887Y-39322200D02*
X161890601Y-39369819D01*
X161890601Y-39369819D02*
X162033458Y-39369819D01*
X146212030Y-47184104D02*
X145926316Y-47184104D01*
X146269173Y-47469819D02*
X146069173Y-46469819D01*
X146069173Y-46469819D02*
X145869173Y-47469819D01*
X138109104Y-61812969D02*
X138109104Y-62098684D01*
X138394819Y-61755826D02*
X137394819Y-61955826D01*
X137394819Y-61955826D02*
X138394819Y-62155826D01*
X156262030Y-30134104D02*
X155976316Y-30134104D01*
X156319173Y-30419819D02*
X156119173Y-29419819D01*
X156119173Y-29419819D02*
X155919173Y-30419819D01*
X152033458Y-49319819D02*
X152033458Y-48319819D01*
X152033458Y-48319819D02*
X151890601Y-48319819D01*
X151890601Y-48319819D02*
X151804887Y-48367438D01*
X151804887Y-48367438D02*
X151747744Y-48462676D01*
X151747744Y-48462676D02*
X151719173Y-48557914D01*
X151719173Y-48557914D02*
X151690601Y-48748390D01*
X151690601Y-48748390D02*
X151690601Y-48891247D01*
X151690601Y-48891247D02*
X151719173Y-49081723D01*
X151719173Y-49081723D02*
X151747744Y-49176961D01*
X151747744Y-49176961D02*
X151804887Y-49272200D01*
X151804887Y-49272200D02*
X151890601Y-49319819D01*
X151890601Y-49319819D02*
X152033458Y-49319819D01*
X161862030Y-47184104D02*
X161576316Y-47184104D01*
X161919173Y-47469819D02*
X161719173Y-46469819D01*
X161719173Y-46469819D02*
X161519173Y-47469819D01*
X160494819Y-42741541D02*
X159494819Y-42741541D01*
X159494819Y-42741541D02*
X159494819Y-42884398D01*
X159494819Y-42884398D02*
X159542438Y-42970112D01*
X159542438Y-42970112D02*
X159637676Y-43027255D01*
X159637676Y-43027255D02*
X159732914Y-43055826D01*
X159732914Y-43055826D02*
X159923390Y-43084398D01*
X159923390Y-43084398D02*
X160066247Y-43084398D01*
X160066247Y-43084398D02*
X160256723Y-43055826D01*
X160256723Y-43055826D02*
X160351961Y-43027255D01*
X160351961Y-43027255D02*
X160447200Y-42970112D01*
X160447200Y-42970112D02*
X160494819Y-42884398D01*
X160494819Y-42884398D02*
X160494819Y-42741541D01*
X136262030Y-33384104D02*
X135976316Y-33384104D01*
X136319173Y-33669819D02*
X136119173Y-32669819D01*
X136119173Y-32669819D02*
X135919173Y-33669819D01*
X151412030Y-57284104D02*
X151126316Y-57284104D01*
X151469173Y-57569819D02*
X151269173Y-56569819D01*
X151269173Y-56569819D02*
X151069173Y-57569819D01*
X151733458Y-66569819D02*
X151733458Y-65569819D01*
X151733458Y-65569819D02*
X151590601Y-65569819D01*
X151590601Y-65569819D02*
X151504887Y-65617438D01*
X151504887Y-65617438D02*
X151447744Y-65712676D01*
X151447744Y-65712676D02*
X151419173Y-65807914D01*
X151419173Y-65807914D02*
X151390601Y-65998390D01*
X151390601Y-65998390D02*
X151390601Y-66141247D01*
X151390601Y-66141247D02*
X151419173Y-66331723D01*
X151419173Y-66331723D02*
X151447744Y-66426961D01*
X151447744Y-66426961D02*
X151504887Y-66522200D01*
X151504887Y-66522200D02*
X151590601Y-66569819D01*
X151590601Y-66569819D02*
X151733458Y-66569819D01*
X136233458Y-45569819D02*
X136233458Y-44569819D01*
X136233458Y-44569819D02*
X136090601Y-44569819D01*
X136090601Y-44569819D02*
X136004887Y-44617438D01*
X136004887Y-44617438D02*
X135947744Y-44712676D01*
X135947744Y-44712676D02*
X135919173Y-44807914D01*
X135919173Y-44807914D02*
X135890601Y-44998390D01*
X135890601Y-44998390D02*
X135890601Y-45141247D01*
X135890601Y-45141247D02*
X135919173Y-45331723D01*
X135919173Y-45331723D02*
X135947744Y-45426961D01*
X135947744Y-45426961D02*
X136004887Y-45522200D01*
X136004887Y-45522200D02*
X136090601Y-45569819D01*
X136090601Y-45569819D02*
X136233458Y-45569819D01*
%LPC*%
D14*
X113384314Y-75450000D03*
X142195000Y-37443195D03*
X48500000Y-51300000D03*
X37100000Y-10000000D03*
X112900000Y-33750000D03*
X75925000Y-30450000D03*
X136595000Y-31669999D03*
X90384314Y-97100000D03*
X74400000Y-33750000D03*
X99750000Y-9400000D03*
X149955000Y-50050000D03*
X159025000Y-32550000D03*
X159025000Y-39850000D03*
X112850000Y-12800000D03*
X85600000Y-51600000D03*
X160525000Y-61900000D03*
X157625000Y-49300000D03*
X17650000Y-13000000D03*
X40850000Y-12800000D03*
X114500000Y-54700000D03*
X99084314Y-72750000D03*
X155955000Y-50170000D03*
X36884314Y-94150000D03*
X108725000Y-117350000D03*
X19184314Y-95950000D03*
X83725000Y-118250000D03*
X161125000Y-59600000D03*
X61300000Y-54800000D03*
X87800000Y-54800000D03*
X113300000Y-54800000D03*
X148868082Y-32367346D03*
X114475000Y-117800000D03*
X110084314Y-96350000D03*
X28684314Y-75750000D03*
X73884314Y-94050000D03*
X137408046Y-64813046D03*
X151475000Y-40400000D03*
X108984314Y-75850000D03*
X136994799Y-55746601D03*
X94300000Y-54800000D03*
X113184314Y-96750000D03*
X159025000Y-49400000D03*
X77800000Y-54800000D03*
X82900000Y-33750000D03*
X30084314Y-97050000D03*
X48350000Y-12800000D03*
X17984314Y-96950000D03*
X33900000Y-33750000D03*
X25900000Y-33750000D03*
X50584314Y-72850000D03*
X58725000Y-118200000D03*
X47725000Y-30450000D03*
X147224999Y-66599999D03*
X17700000Y-33950000D03*
X18900000Y-32950000D03*
X139025000Y-44900000D03*
X100400000Y-33750000D03*
X114384314Y-96650000D03*
X70425000Y-115350000D03*
X73900000Y-9500000D03*
X88850000Y-12800000D03*
X136425000Y-46499999D03*
X19300000Y-54000000D03*
X18100000Y-55000000D03*
X151325000Y-42500000D03*
X37800000Y-54800000D03*
X151268082Y-30667346D03*
X70284314Y-97100000D03*
X114050000Y-12700000D03*
X159025000Y-38700001D03*
X71300000Y-54800000D03*
X31700000Y-51500000D03*
X60850000Y-12800000D03*
X147025000Y-48700001D03*
X160590001Y-64065001D03*
X44800000Y-54800000D03*
X60900000Y-33750000D03*
X146525000Y-40300000D03*
X19275000Y-117100000D03*
X148890232Y-37699999D03*
X82850000Y-12800000D03*
X82084314Y-72650000D03*
X161525000Y-66800000D03*
X140660001Y-46335000D03*
X160675000Y-33100000D03*
X33484314Y-72750000D03*
X136595000Y-36569999D03*
X19384314Y-74650000D03*
X47025000Y-115250000D03*
X33825000Y-118250000D03*
X151775000Y-50400000D03*
X138527286Y-65630000D03*
X102200000Y-51400000D03*
X69850000Y-12800000D03*
X18184314Y-75650000D03*
X45284314Y-75750000D03*
X102850000Y-12800000D03*
X114100000Y-33650000D03*
X150310000Y-58780202D03*
X98400000Y-30350000D03*
X113275000Y-117900000D03*
X96375000Y-115350000D03*
X138625000Y-55946601D03*
X161675000Y-50900000D03*
X95384314Y-75750000D03*
X161425000Y-57100000D03*
X78984314Y-75850000D03*
X62084314Y-75850000D03*
X18075000Y-118100000D03*
X104800000Y-54800000D03*
X18850000Y-12000000D03*
X148224999Y-65099999D03*
X48400000Y-33750000D03*
X146725784Y-59603092D03*
X162525000Y-40200000D03*
X139995001Y-36269999D03*
X114584314Y-75350000D03*
X156625000Y-63100000D03*
X54300000Y-54800000D03*
X29350000Y-12800000D03*
X27800000Y-54800000D03*
X98484314Y-94150000D03*
X49184314Y-97100000D03*
X110825000Y-114050000D03*
X19275000Y-113800000D03*
X18900000Y-29650000D03*
X112784314Y-71450000D03*
X109400000Y-31150000D03*
X111958698Y-52200000D03*
X18850000Y-8700000D03*
X21125000Y-114250000D03*
X110800000Y-52200000D03*
X110284314Y-92950000D03*
X21034314Y-93100000D03*
X20700000Y-9150000D03*
X111508698Y-10200000D03*
X20750000Y-30100000D03*
X110545405Y-71500000D03*
X19384314Y-71350000D03*
X19300000Y-50700000D03*
X19184314Y-92650000D03*
X111558698Y-31150000D03*
X111884314Y-92950000D03*
X109350000Y-10200000D03*
X21234314Y-71800000D03*
X112775000Y-114050000D03*
X21150000Y-51150000D03*
X111300000Y-53500000D03*
X113275000Y-116600000D03*
X111184314Y-95450000D03*
X113184314Y-95450000D03*
X110900000Y-32450000D03*
X113300000Y-53500000D03*
X111384314Y-74150000D03*
X112850000Y-11500000D03*
X112900000Y-32450000D03*
X110850000Y-11500000D03*
X111275000Y-116600000D03*
X113384314Y-74150000D03*
X110284314Y-98600000D03*
X111684314Y-77300000D03*
X111884314Y-76200000D03*
X109275000Y-118600000D03*
X109275000Y-119800000D03*
X107900000Y-35650000D03*
X109800000Y-56650000D03*
X107850000Y-14700000D03*
X108400000Y-34450000D03*
X110300000Y-55500000D03*
X110284314Y-97500000D03*
X108350000Y-13500000D03*
X159025000Y-37900000D03*
X157025000Y-37400000D03*
X149025000Y-36900000D03*
X139195000Y-33269998D03*
X147310000Y-57200000D03*
X147275000Y-39150000D03*
X140195000Y-32069999D03*
X148374998Y-64249998D03*
X149025000Y-46069799D03*
X149025000Y-47099999D03*
X148525000Y-41650000D03*
X139825000Y-55446601D03*
X137596751Y-46328248D03*
X155525000Y-35600000D03*
X141945000Y-30320000D03*
X158125000Y-59769799D03*
X146525000Y-41400000D03*
X159025000Y-30099999D03*
X156589999Y-29464999D03*
X140276854Y-65881854D03*
X149025000Y-49650000D03*
X136525000Y-47599999D03*
X157225000Y-62000000D03*
X148644239Y-62680760D03*
X147671636Y-30170900D03*
X149468082Y-28267346D03*
X155525000Y-40400000D03*
X147020200Y-55900000D03*
X141275000Y-56196601D03*
X151425000Y-36900000D03*
X156625000Y-65900000D03*
X139127286Y-65030000D03*
X162034265Y-41609265D03*
X161325000Y-40400000D03*
X156825000Y-30300000D03*
X159025000Y-30900000D03*
X160825000Y-30900000D03*
X156825000Y-31300000D03*
%LPD*%
M02*
