M48
; DRILL file {KiCad 8.0.6} date 2025-04-01T14:48:14+1100
; FORMAT={-:-/ absolute / inch / decimal}
; #@! TF.CreationDate,2025-04-01T14:48:14+11:00
; #@! TF.GenerationSoftware,Kicad,Pcbnew,8.0.6
; #@! TF.FileFunction,Plated,1,2,PTH
FMAT,2
INCH
; #@! TA.AperFunction,Plated,PTH,ViaDrill
T1C0.0118
%
G90
G05
T1
X0.6949Y-0.5118
X0.6969Y-1.3366
X0.708Y-3.8169
X0.7116Y-4.6496
X0.7126Y-2.1654
X0.7159Y-2.9783
X0.7421Y-0.3425
X0.7421Y-0.4724
X0.7441Y-1.1673
X0.7441Y-1.2972
X0.7553Y-3.6476
X0.7553Y-3.7776
X0.7589Y-4.4803
X0.7589Y-4.6102
X0.7598Y-1.9961
X0.7598Y-2.126
X0.7632Y-2.8091
X0.7632Y-2.939
X0.815Y-0.3602
X0.8169Y-1.185
X0.8281Y-3.6654
X0.8317Y-4.498
X0.8327Y-2.0138
X0.836Y-2.8268
X1.0197Y-1.3287
X1.0945Y-2.1575
X1.1293Y-2.9823
X1.1555Y-0.5039
X1.1844Y-3.8209
X1.248Y-2.0276
X1.3183Y-2.8642
X1.3317Y-4.6555
X1.3346Y-1.3287
X1.4521Y-3.7067
X1.4606Y-0.3937
X1.4882Y-2.1575
X1.6083Y-0.5039
X1.7638Y-2.1575
X1.7828Y-2.9823
X1.8514Y-4.5374
X1.8789Y-1.1988
X1.9035Y-0.5039
X1.9055Y-1.3287
X1.9094Y-2.0197
X1.9364Y-3.8228
X1.9915Y-2.8681
X2.1378Y-2.1575
X2.312Y-4.6535
X2.3957Y-0.5039
X2.3976Y-1.3287
X2.4134Y-2.1575
X2.4443Y-2.9862
X2.75Y-0.5039
X2.7671Y-3.8228
X2.7726Y-4.5413
X2.8071Y-2.1575
X2.9088Y-3.7028
X2.9094Y-0.374
X2.9291Y-1.3287
X2.9892Y-1.1988
X3.063Y-2.1575
X3.1096Y-2.9862
X3.2317Y-2.8602
X3.2618Y-0.5039
X3.2638Y-1.3287
X3.2963Y-4.6555
X3.3701Y-2.0315
X3.4567Y-2.1575
X3.498Y-0.5039
X3.5584Y-3.8228
X3.7126Y-2.1575
X3.7553Y-2.9823
X3.7943Y-4.5413
X3.874Y-1.1949
X3.8773Y-3.7067
X3.901Y-2.8642
X3.9272Y-0.3701
X3.9528Y-1.3287
X4.0236Y-2.0236
X4.0492Y-0.5039
X4.126Y-2.1575
X4.2461Y-0.5787
X4.248Y-1.4035
X4.2657Y-0.5315
X4.2677Y-1.3563
X4.2805Y-4.6201
X4.2907Y-2.9862
X4.3022Y-4.6693
X4.3022Y-4.7165
X4.3051Y-0.4016
X4.3071Y-1.2264
X4.3228Y-2.2303
X4.334Y-3.7933
X4.3419Y-3.6594
X4.3419Y-3.8386
X4.3419Y-3.8819
X4.3425Y-2.185
X4.3522Y-2.815
X4.3622Y-2.0551
X4.3632Y-4.4902
X4.3642Y-0.4528
X4.3661Y-1.2776
X4.3773Y-3.7579
X4.3809Y-4.5906
X4.3819Y-2.1063
X4.3852Y-2.9193
X4.3901Y-0.4016
X4.3921Y-1.2264
X4.397Y-3.0433
X4.4049Y-3.0
X4.4049Y-3.6594
X4.4078Y-2.0551
X4.44Y-4.4902
X4.4403Y-2.813
X4.4429Y-0.4528
X4.4429Y-0.5039
X4.4449Y-1.2776
X4.4449Y-1.3287
X4.4561Y-3.7579
X4.4561Y-3.8091
X4.4596Y-4.5906
X4.4596Y-4.6417
X4.4606Y-2.1063
X4.4606Y-2.1575
X4.4639Y-2.9193
X4.4639Y-2.9705
X4.4902Y-0.5
X4.4921Y-1.3248
X4.5033Y-3.8051
X4.5069Y-4.6378
X4.5079Y-2.1535
X4.5112Y-2.9665
X5.3711Y-1.8307
X5.375Y-1.874
X5.3778Y-1.2469
X5.3778Y-1.4398
X5.3935Y-2.1947
X5.4098Y-2.5517
X5.4172Y-1.8239
X5.4538Y-2.5839
X5.4577Y-2.2026
X5.4734Y-1.7677
X5.4775Y-2.5602
X5.4801Y-1.3098
X5.5049Y-2.1829
X5.5116Y-1.428
X5.5195Y-1.2626
X5.5227Y-2.5938
X5.5378Y-1.8242
X5.562Y-2.2125
X5.5884Y-1.1937
X5.5982Y-1.4741
X5.7687Y-1.5866
X5.7687Y-1.6299
X5.7766Y-2.3466
X5.7882Y-2.2008
X5.7884Y-1.9173
X5.7963Y-2.622
X5.7982Y-1.5413
X5.7996Y-2.252
X5.8138Y-1.1878
X5.8356Y-2.563
X5.8415Y-2.5295
X5.8474Y-1.6398
X5.8521Y-2.4677
X5.8609Y-1.2743
X5.8618Y-1.4843
X5.8671Y-1.4528
X5.8671Y-1.8138
X5.8671Y-1.8543
X5.8671Y-1.9547
X5.8846Y-1.1129
X5.9037Y-1.9705
X5.9177Y-2.3142
X5.9554Y-1.2074
X5.9577Y-1.6732
X5.9616Y-1.4528
X5.9636Y-1.5906
X5.9754Y-1.9843
X6.123Y-1.4016
X6.123Y-1.5906
X6.14Y-1.9752
X6.165Y-1.16
X6.1663Y-2.4843
X6.1663Y-2.5945
X6.1742Y-1.1929
X6.1742Y-1.2323
X6.1821Y-1.4724
X6.19Y-2.4409
X6.2057Y-1.9409
X6.2254Y-2.3531
X6.2608Y-1.185
X6.2608Y-1.2165
X6.2608Y-1.2815
X6.2608Y-1.4921
X6.2608Y-1.5236
X6.2608Y-1.5689
X6.2608Y-1.9449
X6.3199Y-2.437
X6.3224Y-2.5222
X6.3258Y-1.3031
X6.3317Y-1.2165
X6.3435Y-2.3465
X6.3514Y-1.5906
X6.3553Y-2.248
X6.3593Y-2.6299
X6.3652Y-2.0039
X6.3793Y-1.6382
X6.3986Y-1.5827
M30
