%TF.GenerationSoftware,KiCad,Pcbnew,8.0.6*%
%TF.CreationDate,2025-04-01T14:48:14+11:00*%
%TF.ProjectId,testingstencil,74657374-696e-4677-9374-656e63696c2e,rev?*%
%TF.SameCoordinates,Original*%
%TF.FileFunction,Legend,Top*%
%TF.FilePolarity,Positive*%
%FSLAX46Y46*%
G04 Gerber Fmt 4.6, Leading zero omitted, Abs format (unit mm)*
G04 Created by KiCad (PCBNEW 8.0.6) date 2025-04-01 14:48:14*
%MOMM*%
%LPD*%
G01*
G04 APERTURE LIST*
G04 Aperture macros list*
%AMRoundRect*
0 Rectangle with rounded corners*
0 $1 Rounding radius*
0 $2 $3 $4 $5 $6 $7 $8 $9 X,Y pos of 4 corners*
0 Add a 4 corners polygon primitive as box body*
4,1,4,$2,$3,$4,$5,$6,$7,$8,$9,$2,$3,0*
0 Add four circle primitives for the rounded corners*
1,1,$1+$1,$2,$3*
1,1,$1+$1,$4,$5*
1,1,$1+$1,$6,$7*
1,1,$1+$1,$8,$9*
0 Add four rect primitives between the rounded corners*
20,1,$1+$1,$2,$3,$4,$5,0*
20,1,$1+$1,$4,$5,$6,$7,0*
20,1,$1+$1,$6,$7,$8,$9,0*
20,1,$1+$1,$8,$9,$2,$3,0*%
%AMRotRect*
0 Rectangle, with rotation*
0 The origin of the aperture is its center*
0 $1 length*
0 $2 width*
0 $3 Rotation angle, in degrees counterclockwise*
0 Add horizontal line*
21,1,$1,$2,0,0,$3*%
G04 Aperture macros list end*
%ADD10C,0.400000*%
%ADD11C,0.150000*%
%ADD12C,0.100000*%
%ADD13C,0.120000*%
%ADD14C,0.152400*%
%ADD15C,0.200000*%
%ADD16RoundRect,0.090000X-0.660000X-0.360000X0.660000X-0.360000X0.660000X0.360000X-0.660000X0.360000X0*%
%ADD17R,3.400000X0.900000*%
%ADD18R,1.500000X0.800000*%
%ADD19RoundRect,0.225000X-0.225000X-0.250000X0.225000X-0.250000X0.225000X0.250000X-0.225000X0.250000X0*%
%ADD20R,0.279400X0.406400*%
%ADD21R,0.660400X0.406400*%
%ADD22R,0.406400X0.279400*%
%ADD23R,0.406400X0.660400*%
%ADD24R,0.482600X0.584200*%
%ADD25R,0.482600X0.279400*%
%ADD26R,0.330200X0.482600*%
%ADD27RoundRect,0.225000X-0.250000X0.225000X-0.250000X-0.225000X0.250000X-0.225000X0.250000X0.225000X0*%
%ADD28RoundRect,0.225000X0.225000X0.250000X-0.225000X0.250000X-0.225000X-0.250000X0.225000X-0.250000X0*%
%ADD29RotRect,0.279400X0.406400X240.000000*%
%ADD30RotRect,0.660400X0.406400X240.000000*%
%ADD31RoundRect,0.200000X0.275000X-0.200000X0.275000X0.200000X-0.275000X0.200000X-0.275000X-0.200000X0*%
%ADD32RotRect,0.279400X0.406400X255.000000*%
%ADD33RotRect,0.660400X0.406400X255.000000*%
%ADD34RoundRect,0.200000X0.200000X0.275000X-0.200000X0.275000X-0.200000X-0.275000X0.200000X-0.275000X0*%
%ADD35RoundRect,0.200000X-0.275000X0.200000X-0.275000X-0.200000X0.275000X-0.200000X0.275000X0.200000X0*%
%ADD36C,0.600000*%
G04 APERTURE END LIST*
D10*
X113150000Y-119850000D02*
X114400000Y-119850000D01*
X112775000Y-35700000D02*
X114025000Y-35700000D01*
X18550000Y-57125000D02*
X18550000Y-56125000D01*
X113059314Y-98700000D02*
X114309314Y-98700000D01*
X17962500Y-119725000D02*
X19087500Y-119725000D01*
X17871814Y-98575000D02*
X18996814Y-98575000D01*
X113259314Y-77400000D02*
X114509314Y-77400000D01*
X17987500Y-56625000D02*
X19112500Y-56625000D01*
X17587500Y-35575000D02*
X18712500Y-35575000D01*
X112725000Y-14750000D02*
X113975000Y-14750000D01*
X18071814Y-77275000D02*
X19196814Y-77275000D01*
X18525000Y-120225000D02*
X18525000Y-119225000D01*
X17537500Y-14625000D02*
X18662500Y-14625000D01*
X18150000Y-36075000D02*
X18150000Y-35075000D01*
X18434314Y-99075000D02*
X18434314Y-98075000D01*
X113175000Y-56750000D02*
X114425000Y-56750000D01*
X18100000Y-15125000D02*
X18100000Y-14125000D01*
X18634314Y-77775000D02*
X18634314Y-76775000D01*
D11*
X52592647Y-71779580D02*
X52545028Y-71827200D01*
X52545028Y-71827200D02*
X52402171Y-71874819D01*
X52402171Y-71874819D02*
X52306933Y-71874819D01*
X52306933Y-71874819D02*
X52164076Y-71827200D01*
X52164076Y-71827200D02*
X52068838Y-71731961D01*
X52068838Y-71731961D02*
X52021219Y-71636723D01*
X52021219Y-71636723D02*
X51973600Y-71446247D01*
X51973600Y-71446247D02*
X51973600Y-71303390D01*
X51973600Y-71303390D02*
X52021219Y-71112914D01*
X52021219Y-71112914D02*
X52068838Y-71017676D01*
X52068838Y-71017676D02*
X52164076Y-70922438D01*
X52164076Y-70922438D02*
X52306933Y-70874819D01*
X52306933Y-70874819D02*
X52402171Y-70874819D01*
X52402171Y-70874819D02*
X52545028Y-70922438D01*
X52545028Y-70922438D02*
X52592647Y-70970057D01*
X52973600Y-70970057D02*
X53021219Y-70922438D01*
X53021219Y-70922438D02*
X53116457Y-70874819D01*
X53116457Y-70874819D02*
X53354552Y-70874819D01*
X53354552Y-70874819D02*
X53449790Y-70922438D01*
X53449790Y-70922438D02*
X53497409Y-70970057D01*
X53497409Y-70970057D02*
X53545028Y-71065295D01*
X53545028Y-71065295D02*
X53545028Y-71160533D01*
X53545028Y-71160533D02*
X53497409Y-71303390D01*
X53497409Y-71303390D02*
X52925981Y-71874819D01*
X52925981Y-71874819D02*
X53545028Y-71874819D01*
X140034523Y-53991781D02*
X140034523Y-53277496D01*
X140034523Y-53277496D02*
X140082142Y-53134639D01*
X140082142Y-53134639D02*
X140177380Y-53039401D01*
X140177380Y-53039401D02*
X140320237Y-52991781D01*
X140320237Y-52991781D02*
X140415475Y-52991781D01*
X139605951Y-53896543D02*
X139558332Y-53944162D01*
X139558332Y-53944162D02*
X139463094Y-53991781D01*
X139463094Y-53991781D02*
X139224999Y-53991781D01*
X139224999Y-53991781D02*
X139129761Y-53944162D01*
X139129761Y-53944162D02*
X139082142Y-53896543D01*
X139082142Y-53896543D02*
X139034523Y-53801305D01*
X139034523Y-53801305D02*
X139034523Y-53706067D01*
X139034523Y-53706067D02*
X139082142Y-53563210D01*
X139082142Y-53563210D02*
X139653570Y-52991781D01*
X139653570Y-52991781D02*
X139034523Y-52991781D01*
X138177380Y-53658448D02*
X138177380Y-52991781D01*
X138415475Y-54039401D02*
X138653570Y-53325115D01*
X138653570Y-53325115D02*
X138034523Y-53325115D01*
X141670180Y-33260475D02*
X140955895Y-33260475D01*
X140955895Y-33260475D02*
X140813038Y-33212856D01*
X140813038Y-33212856D02*
X140717800Y-33117618D01*
X140717800Y-33117618D02*
X140670180Y-32974761D01*
X140670180Y-32974761D02*
X140670180Y-32879523D01*
X141574942Y-33689047D02*
X141622561Y-33736666D01*
X141622561Y-33736666D02*
X141670180Y-33831904D01*
X141670180Y-33831904D02*
X141670180Y-34069999D01*
X141670180Y-34069999D02*
X141622561Y-34165237D01*
X141622561Y-34165237D02*
X141574942Y-34212856D01*
X141574942Y-34212856D02*
X141479704Y-34260475D01*
X141479704Y-34260475D02*
X141384466Y-34260475D01*
X141384466Y-34260475D02*
X141241609Y-34212856D01*
X141241609Y-34212856D02*
X140670180Y-33641428D01*
X140670180Y-33641428D02*
X140670180Y-34260475D01*
X140670180Y-34736666D02*
X140670180Y-34927142D01*
X140670180Y-34927142D02*
X140717800Y-35022380D01*
X140717800Y-35022380D02*
X140765419Y-35069999D01*
X140765419Y-35069999D02*
X140908276Y-35165237D01*
X140908276Y-35165237D02*
X141098752Y-35212856D01*
X141098752Y-35212856D02*
X141479704Y-35212856D01*
X141479704Y-35212856D02*
X141574942Y-35165237D01*
X141574942Y-35165237D02*
X141622561Y-35117618D01*
X141622561Y-35117618D02*
X141670180Y-35022380D01*
X141670180Y-35022380D02*
X141670180Y-34831904D01*
X141670180Y-34831904D02*
X141622561Y-34736666D01*
X141622561Y-34736666D02*
X141574942Y-34689047D01*
X141574942Y-34689047D02*
X141479704Y-34641428D01*
X141479704Y-34641428D02*
X141241609Y-34641428D01*
X141241609Y-34641428D02*
X141146371Y-34689047D01*
X141146371Y-34689047D02*
X141098752Y-34736666D01*
X141098752Y-34736666D02*
X141051133Y-34831904D01*
X141051133Y-34831904D02*
X141051133Y-35022380D01*
X141051133Y-35022380D02*
X141098752Y-35117618D01*
X141098752Y-35117618D02*
X141146371Y-35165237D01*
X141146371Y-35165237D02*
X141241609Y-35212856D01*
X157570180Y-47566666D02*
X156855895Y-47566666D01*
X156855895Y-47566666D02*
X156713038Y-47519047D01*
X156713038Y-47519047D02*
X156617800Y-47423809D01*
X156617800Y-47423809D02*
X156570180Y-47280952D01*
X156570180Y-47280952D02*
X156570180Y-47185714D01*
X157141609Y-48185714D02*
X157189228Y-48090476D01*
X157189228Y-48090476D02*
X157236847Y-48042857D01*
X157236847Y-48042857D02*
X157332085Y-47995238D01*
X157332085Y-47995238D02*
X157379704Y-47995238D01*
X157379704Y-47995238D02*
X157474942Y-48042857D01*
X157474942Y-48042857D02*
X157522561Y-48090476D01*
X157522561Y-48090476D02*
X157570180Y-48185714D01*
X157570180Y-48185714D02*
X157570180Y-48376190D01*
X157570180Y-48376190D02*
X157522561Y-48471428D01*
X157522561Y-48471428D02*
X157474942Y-48519047D01*
X157474942Y-48519047D02*
X157379704Y-48566666D01*
X157379704Y-48566666D02*
X157332085Y-48566666D01*
X157332085Y-48566666D02*
X157236847Y-48519047D01*
X157236847Y-48519047D02*
X157189228Y-48471428D01*
X157189228Y-48471428D02*
X157141609Y-48376190D01*
X157141609Y-48376190D02*
X157141609Y-48185714D01*
X157141609Y-48185714D02*
X157093990Y-48090476D01*
X157093990Y-48090476D02*
X157046371Y-48042857D01*
X157046371Y-48042857D02*
X156951133Y-47995238D01*
X156951133Y-47995238D02*
X156760657Y-47995238D01*
X156760657Y-47995238D02*
X156665419Y-48042857D01*
X156665419Y-48042857D02*
X156617800Y-48090476D01*
X156617800Y-48090476D02*
X156570180Y-48185714D01*
X156570180Y-48185714D02*
X156570180Y-48376190D01*
X156570180Y-48376190D02*
X156617800Y-48471428D01*
X156617800Y-48471428D02*
X156665419Y-48519047D01*
X156665419Y-48519047D02*
X156760657Y-48566666D01*
X156760657Y-48566666D02*
X156951133Y-48566666D01*
X156951133Y-48566666D02*
X157046371Y-48519047D01*
X157046371Y-48519047D02*
X157093990Y-48471428D01*
X157093990Y-48471428D02*
X157141609Y-48376190D01*
X137670180Y-33260475D02*
X136955895Y-33260475D01*
X136955895Y-33260475D02*
X136813038Y-33212856D01*
X136813038Y-33212856D02*
X136717800Y-33117618D01*
X136717800Y-33117618D02*
X136670180Y-32974761D01*
X136670180Y-32974761D02*
X136670180Y-32879523D01*
X137670180Y-33641428D02*
X137670180Y-34260475D01*
X137670180Y-34260475D02*
X137289228Y-33927142D01*
X137289228Y-33927142D02*
X137289228Y-34069999D01*
X137289228Y-34069999D02*
X137241609Y-34165237D01*
X137241609Y-34165237D02*
X137193990Y-34212856D01*
X137193990Y-34212856D02*
X137098752Y-34260475D01*
X137098752Y-34260475D02*
X136860657Y-34260475D01*
X136860657Y-34260475D02*
X136765419Y-34212856D01*
X136765419Y-34212856D02*
X136717800Y-34165237D01*
X136717800Y-34165237D02*
X136670180Y-34069999D01*
X136670180Y-34069999D02*
X136670180Y-33784285D01*
X136670180Y-33784285D02*
X136717800Y-33689047D01*
X136717800Y-33689047D02*
X136765419Y-33641428D01*
X137670180Y-34879523D02*
X137670180Y-34974761D01*
X137670180Y-34974761D02*
X137622561Y-35069999D01*
X137622561Y-35069999D02*
X137574942Y-35117618D01*
X137574942Y-35117618D02*
X137479704Y-35165237D01*
X137479704Y-35165237D02*
X137289228Y-35212856D01*
X137289228Y-35212856D02*
X137051133Y-35212856D01*
X137051133Y-35212856D02*
X136860657Y-35165237D01*
X136860657Y-35165237D02*
X136765419Y-35117618D01*
X136765419Y-35117618D02*
X136717800Y-35069999D01*
X136717800Y-35069999D02*
X136670180Y-34974761D01*
X136670180Y-34974761D02*
X136670180Y-34879523D01*
X136670180Y-34879523D02*
X136717800Y-34784285D01*
X136717800Y-34784285D02*
X136765419Y-34736666D01*
X136765419Y-34736666D02*
X136860657Y-34689047D01*
X136860657Y-34689047D02*
X137051133Y-34641428D01*
X137051133Y-34641428D02*
X137289228Y-34641428D01*
X137289228Y-34641428D02*
X137479704Y-34689047D01*
X137479704Y-34689047D02*
X137574942Y-34736666D01*
X137574942Y-34736666D02*
X137622561Y-34784285D01*
X137622561Y-34784285D02*
X137670180Y-34879523D01*
X146479819Y-48709523D02*
X147194104Y-48709523D01*
X147194104Y-48709523D02*
X147336961Y-48757142D01*
X147336961Y-48757142D02*
X147432200Y-48852380D01*
X147432200Y-48852380D02*
X147479819Y-48995237D01*
X147479819Y-48995237D02*
X147479819Y-49090475D01*
X147479819Y-47709523D02*
X147479819Y-48280951D01*
X147479819Y-47995237D02*
X146479819Y-47995237D01*
X146479819Y-47995237D02*
X146622676Y-48090475D01*
X146622676Y-48090475D02*
X146717914Y-48185713D01*
X146717914Y-48185713D02*
X146765533Y-48280951D01*
X146479819Y-47376189D02*
X146479819Y-46757142D01*
X146479819Y-46757142D02*
X146860771Y-47090475D01*
X146860771Y-47090475D02*
X146860771Y-46947618D01*
X146860771Y-46947618D02*
X146908390Y-46852380D01*
X146908390Y-46852380D02*
X146956009Y-46804761D01*
X146956009Y-46804761D02*
X147051247Y-46757142D01*
X147051247Y-46757142D02*
X147289342Y-46757142D01*
X147289342Y-46757142D02*
X147384580Y-46804761D01*
X147384580Y-46804761D02*
X147432200Y-46852380D01*
X147432200Y-46852380D02*
X147479819Y-46947618D01*
X147479819Y-46947618D02*
X147479819Y-47233332D01*
X147479819Y-47233332D02*
X147432200Y-47328570D01*
X147432200Y-47328570D02*
X147384580Y-47376189D01*
X150855180Y-57170677D02*
X150140895Y-57170677D01*
X150140895Y-57170677D02*
X149998038Y-57123058D01*
X149998038Y-57123058D02*
X149902800Y-57027820D01*
X149902800Y-57027820D02*
X149855180Y-56884963D01*
X149855180Y-56884963D02*
X149855180Y-56789725D01*
X150759942Y-57599249D02*
X150807561Y-57646868D01*
X150807561Y-57646868D02*
X150855180Y-57742106D01*
X150855180Y-57742106D02*
X150855180Y-57980201D01*
X150855180Y-57980201D02*
X150807561Y-58075439D01*
X150807561Y-58075439D02*
X150759942Y-58123058D01*
X150759942Y-58123058D02*
X150664704Y-58170677D01*
X150664704Y-58170677D02*
X150569466Y-58170677D01*
X150569466Y-58170677D02*
X150426609Y-58123058D01*
X150426609Y-58123058D02*
X149855180Y-57551630D01*
X149855180Y-57551630D02*
X149855180Y-58170677D01*
X150426609Y-58742106D02*
X150474228Y-58646868D01*
X150474228Y-58646868D02*
X150521847Y-58599249D01*
X150521847Y-58599249D02*
X150617085Y-58551630D01*
X150617085Y-58551630D02*
X150664704Y-58551630D01*
X150664704Y-58551630D02*
X150759942Y-58599249D01*
X150759942Y-58599249D02*
X150807561Y-58646868D01*
X150807561Y-58646868D02*
X150855180Y-58742106D01*
X150855180Y-58742106D02*
X150855180Y-58932582D01*
X150855180Y-58932582D02*
X150807561Y-59027820D01*
X150807561Y-59027820D02*
X150759942Y-59075439D01*
X150759942Y-59075439D02*
X150664704Y-59123058D01*
X150664704Y-59123058D02*
X150617085Y-59123058D01*
X150617085Y-59123058D02*
X150521847Y-59075439D01*
X150521847Y-59075439D02*
X150474228Y-59027820D01*
X150474228Y-59027820D02*
X150426609Y-58932582D01*
X150426609Y-58932582D02*
X150426609Y-58742106D01*
X150426609Y-58742106D02*
X150378990Y-58646868D01*
X150378990Y-58646868D02*
X150331371Y-58599249D01*
X150331371Y-58599249D02*
X150236133Y-58551630D01*
X150236133Y-58551630D02*
X150045657Y-58551630D01*
X150045657Y-58551630D02*
X149950419Y-58599249D01*
X149950419Y-58599249D02*
X149902800Y-58646868D01*
X149902800Y-58646868D02*
X149855180Y-58742106D01*
X149855180Y-58742106D02*
X149855180Y-58932582D01*
X149855180Y-58932582D02*
X149902800Y-59027820D01*
X149902800Y-59027820D02*
X149950419Y-59075439D01*
X149950419Y-59075439D02*
X150045657Y-59123058D01*
X150045657Y-59123058D02*
X150236133Y-59123058D01*
X150236133Y-59123058D02*
X150331371Y-59075439D01*
X150331371Y-59075439D02*
X150378990Y-59027820D01*
X150378990Y-59027820D02*
X150426609Y-58932582D01*
X158145476Y-57354819D02*
X158145476Y-58069104D01*
X158145476Y-58069104D02*
X158097857Y-58211961D01*
X158097857Y-58211961D02*
X158002619Y-58307200D01*
X158002619Y-58307200D02*
X157859762Y-58354819D01*
X157859762Y-58354819D02*
X157764524Y-58354819D01*
X159145476Y-58354819D02*
X158574048Y-58354819D01*
X158859762Y-58354819D02*
X158859762Y-57354819D01*
X158859762Y-57354819D02*
X158764524Y-57497676D01*
X158764524Y-57497676D02*
X158669286Y-57592914D01*
X158669286Y-57592914D02*
X158574048Y-57640533D01*
X159478810Y-57354819D02*
X160145476Y-57354819D01*
X160145476Y-57354819D02*
X159716905Y-58354819D01*
X161500180Y-61140476D02*
X160785895Y-61140476D01*
X160785895Y-61140476D02*
X160643038Y-61092857D01*
X160643038Y-61092857D02*
X160547800Y-60997619D01*
X160547800Y-60997619D02*
X160500180Y-60854762D01*
X160500180Y-60854762D02*
X160500180Y-60759524D01*
X160500180Y-62140476D02*
X160500180Y-61569048D01*
X160500180Y-61854762D02*
X161500180Y-61854762D01*
X161500180Y-61854762D02*
X161357323Y-61759524D01*
X161357323Y-61759524D02*
X161262085Y-61664286D01*
X161262085Y-61664286D02*
X161214466Y-61569048D01*
X161500180Y-63045238D02*
X161500180Y-62569048D01*
X161500180Y-62569048D02*
X161023990Y-62521429D01*
X161023990Y-62521429D02*
X161071609Y-62569048D01*
X161071609Y-62569048D02*
X161119228Y-62664286D01*
X161119228Y-62664286D02*
X161119228Y-62902381D01*
X161119228Y-62902381D02*
X161071609Y-62997619D01*
X161071609Y-62997619D02*
X161023990Y-63045238D01*
X161023990Y-63045238D02*
X160928752Y-63092857D01*
X160928752Y-63092857D02*
X160690657Y-63092857D01*
X160690657Y-63092857D02*
X160595419Y-63045238D01*
X160595419Y-63045238D02*
X160547800Y-62997619D01*
X160547800Y-62997619D02*
X160500180Y-62902381D01*
X160500180Y-62902381D02*
X160500180Y-62664286D01*
X160500180Y-62664286D02*
X160547800Y-62569048D01*
X160547800Y-62569048D02*
X160595419Y-62521429D01*
X146775253Y-63329342D02*
X146156663Y-62972199D01*
X146156663Y-62972199D02*
X146056755Y-62859531D01*
X146056755Y-62859531D02*
X146021895Y-62729434D01*
X146021895Y-62729434D02*
X146052085Y-62581906D01*
X146052085Y-62581906D02*
X146099704Y-62499428D01*
X146478488Y-63652877D02*
X146495918Y-63717926D01*
X146495918Y-63717926D02*
X146489538Y-63824214D01*
X146489538Y-63824214D02*
X146370491Y-64030410D01*
X146370491Y-64030410D02*
X146281632Y-64089080D01*
X146281632Y-64089080D02*
X146216584Y-64106509D01*
X146216584Y-64106509D02*
X146110295Y-64100130D01*
X146110295Y-64100130D02*
X146027817Y-64052511D01*
X146027817Y-64052511D02*
X145927908Y-63939843D01*
X145927908Y-63939843D02*
X145718751Y-63159257D01*
X145718751Y-63159257D02*
X145409227Y-63695368D01*
X146002298Y-64477663D02*
X146019728Y-64542712D01*
X146019728Y-64542712D02*
X146013348Y-64649000D01*
X146013348Y-64649000D02*
X145894300Y-64855197D01*
X145894300Y-64855197D02*
X145805442Y-64913866D01*
X145805442Y-64913866D02*
X145740393Y-64931295D01*
X145740393Y-64931295D02*
X145634105Y-64924916D01*
X145634105Y-64924916D02*
X145551626Y-64877297D01*
X145551626Y-64877297D02*
X145451718Y-64764629D01*
X145451718Y-64764629D02*
X145242561Y-63984043D01*
X145242561Y-63984043D02*
X144933037Y-64520154D01*
X18139133Y-95783333D02*
X18853418Y-95783333D01*
X18853418Y-95783333D02*
X18996275Y-95830952D01*
X18996275Y-95830952D02*
X19091514Y-95926190D01*
X19091514Y-95926190D02*
X19139133Y-96069047D01*
X19139133Y-96069047D02*
X19139133Y-96164285D01*
X19139133Y-94783333D02*
X19139133Y-95354761D01*
X19139133Y-95069047D02*
X18139133Y-95069047D01*
X18139133Y-95069047D02*
X18281990Y-95164285D01*
X18281990Y-95164285D02*
X18377228Y-95259523D01*
X18377228Y-95259523D02*
X18424847Y-95354761D01*
X17854819Y-32783333D02*
X18569104Y-32783333D01*
X18569104Y-32783333D02*
X18711961Y-32830952D01*
X18711961Y-32830952D02*
X18807200Y-32926190D01*
X18807200Y-32926190D02*
X18854819Y-33069047D01*
X18854819Y-33069047D02*
X18854819Y-33164285D01*
X18854819Y-31783333D02*
X18854819Y-32354761D01*
X18854819Y-32069047D02*
X17854819Y-32069047D01*
X17854819Y-32069047D02*
X17997676Y-32164285D01*
X17997676Y-32164285D02*
X18092914Y-32259523D01*
X18092914Y-32259523D02*
X18140533Y-32354761D01*
X147570180Y-37090476D02*
X146855895Y-37090476D01*
X146855895Y-37090476D02*
X146713038Y-37042857D01*
X146713038Y-37042857D02*
X146617800Y-36947619D01*
X146617800Y-36947619D02*
X146570180Y-36804762D01*
X146570180Y-36804762D02*
X146570180Y-36709524D01*
X146570180Y-38090476D02*
X146570180Y-37519048D01*
X146570180Y-37804762D02*
X147570180Y-37804762D01*
X147570180Y-37804762D02*
X147427323Y-37709524D01*
X147427323Y-37709524D02*
X147332085Y-37614286D01*
X147332085Y-37614286D02*
X147284466Y-37519048D01*
X147570180Y-38709524D02*
X147570180Y-38804762D01*
X147570180Y-38804762D02*
X147522561Y-38900000D01*
X147522561Y-38900000D02*
X147474942Y-38947619D01*
X147474942Y-38947619D02*
X147379704Y-38995238D01*
X147379704Y-38995238D02*
X147189228Y-39042857D01*
X147189228Y-39042857D02*
X146951133Y-39042857D01*
X146951133Y-39042857D02*
X146760657Y-38995238D01*
X146760657Y-38995238D02*
X146665419Y-38947619D01*
X146665419Y-38947619D02*
X146617800Y-38900000D01*
X146617800Y-38900000D02*
X146570180Y-38804762D01*
X146570180Y-38804762D02*
X146570180Y-38709524D01*
X146570180Y-38709524D02*
X146617800Y-38614286D01*
X146617800Y-38614286D02*
X146665419Y-38566667D01*
X146665419Y-38566667D02*
X146760657Y-38519048D01*
X146760657Y-38519048D02*
X146951133Y-38471429D01*
X146951133Y-38471429D02*
X147189228Y-38471429D01*
X147189228Y-38471429D02*
X147379704Y-38519048D01*
X147379704Y-38519048D02*
X147474942Y-38566667D01*
X147474942Y-38566667D02*
X147522561Y-38614286D01*
X147522561Y-38614286D02*
X147570180Y-38709524D01*
X151270179Y-64290475D02*
X150555894Y-64290475D01*
X150555894Y-64290475D02*
X150413037Y-64242856D01*
X150413037Y-64242856D02*
X150317799Y-64147618D01*
X150317799Y-64147618D02*
X150270179Y-64004761D01*
X150270179Y-64004761D02*
X150270179Y-63909523D01*
X151174941Y-64719047D02*
X151222560Y-64766666D01*
X151222560Y-64766666D02*
X151270179Y-64861904D01*
X151270179Y-64861904D02*
X151270179Y-65099999D01*
X151270179Y-65099999D02*
X151222560Y-65195237D01*
X151222560Y-65195237D02*
X151174941Y-65242856D01*
X151174941Y-65242856D02*
X151079703Y-65290475D01*
X151079703Y-65290475D02*
X150984465Y-65290475D01*
X150984465Y-65290475D02*
X150841608Y-65242856D01*
X150841608Y-65242856D02*
X150270179Y-64671428D01*
X150270179Y-64671428D02*
X150270179Y-65290475D01*
X150270179Y-66242856D02*
X150270179Y-65671428D01*
X150270179Y-65957142D02*
X151270179Y-65957142D01*
X151270179Y-65957142D02*
X151127322Y-65861904D01*
X151127322Y-65861904D02*
X151032084Y-65766666D01*
X151032084Y-65766666D02*
X150984465Y-65671428D01*
X62320028Y-94304819D02*
X61748600Y-94304819D01*
X62034314Y-94304819D02*
X62034314Y-93304819D01*
X62034314Y-93304819D02*
X61939076Y-93447676D01*
X61939076Y-93447676D02*
X61843838Y-93542914D01*
X61843838Y-93542914D02*
X61748600Y-93590533D01*
X148215476Y-51354819D02*
X148215476Y-52069104D01*
X148215476Y-52069104D02*
X148167857Y-52211961D01*
X148167857Y-52211961D02*
X148072619Y-52307200D01*
X148072619Y-52307200D02*
X147929762Y-52354819D01*
X147929762Y-52354819D02*
X147834524Y-52354819D01*
X149215476Y-52354819D02*
X148644048Y-52354819D01*
X148929762Y-52354819D02*
X148929762Y-51354819D01*
X148929762Y-51354819D02*
X148834524Y-51497676D01*
X148834524Y-51497676D02*
X148739286Y-51592914D01*
X148739286Y-51592914D02*
X148644048Y-51640533D01*
X150072619Y-51688152D02*
X150072619Y-52354819D01*
X149834524Y-51307200D02*
X149596429Y-52021485D01*
X149596429Y-52021485D02*
X150215476Y-52021485D01*
X82320028Y-94304819D02*
X81748600Y-94304819D01*
X82034314Y-94304819D02*
X82034314Y-93304819D01*
X82034314Y-93304819D02*
X81939076Y-93447676D01*
X81939076Y-93447676D02*
X81843838Y-93542914D01*
X81843838Y-93542914D02*
X81748600Y-93590533D01*
X18229819Y-116933333D02*
X18944104Y-116933333D01*
X18944104Y-116933333D02*
X19086961Y-116980952D01*
X19086961Y-116980952D02*
X19182200Y-117076190D01*
X19182200Y-117076190D02*
X19229819Y-117219047D01*
X19229819Y-117219047D02*
X19229819Y-117314285D01*
X19229819Y-115933333D02*
X19229819Y-116504761D01*
X19229819Y-116219047D02*
X18229819Y-116219047D01*
X18229819Y-116219047D02*
X18372676Y-116314285D01*
X18372676Y-116314285D02*
X18467914Y-116409523D01*
X18467914Y-116409523D02*
X18515533Y-116504761D01*
X17804819Y-11833333D02*
X18519104Y-11833333D01*
X18519104Y-11833333D02*
X18661961Y-11880952D01*
X18661961Y-11880952D02*
X18757200Y-11976190D01*
X18757200Y-11976190D02*
X18804819Y-12119047D01*
X18804819Y-12119047D02*
X18804819Y-12214285D01*
X18804819Y-10833333D02*
X18804819Y-11404761D01*
X18804819Y-11119047D02*
X17804819Y-11119047D01*
X17804819Y-11119047D02*
X17947676Y-11214285D01*
X17947676Y-11214285D02*
X18042914Y-11309523D01*
X18042914Y-11309523D02*
X18090533Y-11404761D01*
X157500180Y-61090475D02*
X156785895Y-61090475D01*
X156785895Y-61090475D02*
X156643038Y-61042856D01*
X156643038Y-61042856D02*
X156547800Y-60947618D01*
X156547800Y-60947618D02*
X156500180Y-60804761D01*
X156500180Y-60804761D02*
X156500180Y-60709523D01*
X156500180Y-62090475D02*
X156500180Y-61519047D01*
X156500180Y-61804761D02*
X157500180Y-61804761D01*
X157500180Y-61804761D02*
X157357323Y-61709523D01*
X157357323Y-61709523D02*
X157262085Y-61614285D01*
X157262085Y-61614285D02*
X157214466Y-61519047D01*
X157500180Y-62947618D02*
X157500180Y-62757142D01*
X157500180Y-62757142D02*
X157452561Y-62661904D01*
X157452561Y-62661904D02*
X157404942Y-62614285D01*
X157404942Y-62614285D02*
X157262085Y-62519047D01*
X157262085Y-62519047D02*
X157071609Y-62471428D01*
X157071609Y-62471428D02*
X156690657Y-62471428D01*
X156690657Y-62471428D02*
X156595419Y-62519047D01*
X156595419Y-62519047D02*
X156547800Y-62566666D01*
X156547800Y-62566666D02*
X156500180Y-62661904D01*
X156500180Y-62661904D02*
X156500180Y-62852380D01*
X156500180Y-62852380D02*
X156547800Y-62947618D01*
X156547800Y-62947618D02*
X156595419Y-62995237D01*
X156595419Y-62995237D02*
X156690657Y-63042856D01*
X156690657Y-63042856D02*
X156928752Y-63042856D01*
X156928752Y-63042856D02*
X157023990Y-62995237D01*
X157023990Y-62995237D02*
X157071609Y-62947618D01*
X157071609Y-62947618D02*
X157119228Y-62852380D01*
X157119228Y-62852380D02*
X157119228Y-62661904D01*
X157119228Y-62661904D02*
X157071609Y-62566666D01*
X157071609Y-62566666D02*
X157023990Y-62519047D01*
X157023990Y-62519047D02*
X156928752Y-62471428D01*
X140034523Y-58491781D02*
X140034523Y-57777496D01*
X140034523Y-57777496D02*
X140082142Y-57634639D01*
X140082142Y-57634639D02*
X140177380Y-57539401D01*
X140177380Y-57539401D02*
X140320237Y-57491781D01*
X140320237Y-57491781D02*
X140415475Y-57491781D01*
X139605951Y-58396543D02*
X139558332Y-58444162D01*
X139558332Y-58444162D02*
X139463094Y-58491781D01*
X139463094Y-58491781D02*
X139224999Y-58491781D01*
X139224999Y-58491781D02*
X139129761Y-58444162D01*
X139129761Y-58444162D02*
X139082142Y-58396543D01*
X139082142Y-58396543D02*
X139034523Y-58301305D01*
X139034523Y-58301305D02*
X139034523Y-58206067D01*
X139034523Y-58206067D02*
X139082142Y-58063210D01*
X139082142Y-58063210D02*
X139653570Y-57491781D01*
X139653570Y-57491781D02*
X139034523Y-57491781D01*
X138701189Y-58491781D02*
X138082142Y-58491781D01*
X138082142Y-58491781D02*
X138415475Y-58110829D01*
X138415475Y-58110829D02*
X138272618Y-58110829D01*
X138272618Y-58110829D02*
X138177380Y-58063210D01*
X138177380Y-58063210D02*
X138129761Y-58015591D01*
X138129761Y-58015591D02*
X138082142Y-57920353D01*
X138082142Y-57920353D02*
X138082142Y-57682258D01*
X138082142Y-57682258D02*
X138129761Y-57587020D01*
X138129761Y-57587020D02*
X138177380Y-57539401D01*
X138177380Y-57539401D02*
X138272618Y-57491781D01*
X138272618Y-57491781D02*
X138558332Y-57491781D01*
X138558332Y-57491781D02*
X138653570Y-57539401D01*
X138653570Y-57539401D02*
X138701189Y-57587020D01*
X140004523Y-30615179D02*
X140004523Y-29900894D01*
X140004523Y-29900894D02*
X140052142Y-29758037D01*
X140052142Y-29758037D02*
X140147380Y-29662799D01*
X140147380Y-29662799D02*
X140290237Y-29615179D01*
X140290237Y-29615179D02*
X140385475Y-29615179D01*
X139623570Y-30615179D02*
X139004523Y-30615179D01*
X139004523Y-30615179D02*
X139337856Y-30234227D01*
X139337856Y-30234227D02*
X139194999Y-30234227D01*
X139194999Y-30234227D02*
X139099761Y-30186608D01*
X139099761Y-30186608D02*
X139052142Y-30138989D01*
X139052142Y-30138989D02*
X139004523Y-30043751D01*
X139004523Y-30043751D02*
X139004523Y-29805656D01*
X139004523Y-29805656D02*
X139052142Y-29710418D01*
X139052142Y-29710418D02*
X139099761Y-29662799D01*
X139099761Y-29662799D02*
X139194999Y-29615179D01*
X139194999Y-29615179D02*
X139480713Y-29615179D01*
X139480713Y-29615179D02*
X139575951Y-29662799D01*
X139575951Y-29662799D02*
X139623570Y-29710418D01*
X138623570Y-30519941D02*
X138575951Y-30567560D01*
X138575951Y-30567560D02*
X138480713Y-30615179D01*
X138480713Y-30615179D02*
X138242618Y-30615179D01*
X138242618Y-30615179D02*
X138147380Y-30567560D01*
X138147380Y-30567560D02*
X138099761Y-30519941D01*
X138099761Y-30519941D02*
X138052142Y-30424703D01*
X138052142Y-30424703D02*
X138052142Y-30329465D01*
X138052142Y-30329465D02*
X138099761Y-30186608D01*
X138099761Y-30186608D02*
X138671189Y-29615179D01*
X138671189Y-29615179D02*
X138052142Y-29615179D01*
X157358333Y-38445180D02*
X157358333Y-37730895D01*
X157358333Y-37730895D02*
X157405952Y-37588038D01*
X157405952Y-37588038D02*
X157501190Y-37492800D01*
X157501190Y-37492800D02*
X157644047Y-37445180D01*
X157644047Y-37445180D02*
X157739285Y-37445180D01*
X156358333Y-37445180D02*
X156929761Y-37445180D01*
X156644047Y-37445180D02*
X156644047Y-38445180D01*
X156644047Y-38445180D02*
X156739285Y-38302323D01*
X156739285Y-38302323D02*
X156834523Y-38207085D01*
X156834523Y-38207085D02*
X156929761Y-38159466D01*
X151913262Y-29957822D02*
X151198977Y-29957822D01*
X151198977Y-29957822D02*
X151056120Y-29910203D01*
X151056120Y-29910203D02*
X150960882Y-29814965D01*
X150960882Y-29814965D02*
X150913262Y-29672108D01*
X150913262Y-29672108D02*
X150913262Y-29576870D01*
X151818024Y-30386394D02*
X151865643Y-30434013D01*
X151865643Y-30434013D02*
X151913262Y-30529251D01*
X151913262Y-30529251D02*
X151913262Y-30767346D01*
X151913262Y-30767346D02*
X151865643Y-30862584D01*
X151865643Y-30862584D02*
X151818024Y-30910203D01*
X151818024Y-30910203D02*
X151722786Y-30957822D01*
X151722786Y-30957822D02*
X151627548Y-30957822D01*
X151627548Y-30957822D02*
X151484691Y-30910203D01*
X151484691Y-30910203D02*
X150913262Y-30338775D01*
X150913262Y-30338775D02*
X150913262Y-30957822D01*
X151913262Y-31576870D02*
X151913262Y-31672108D01*
X151913262Y-31672108D02*
X151865643Y-31767346D01*
X151865643Y-31767346D02*
X151818024Y-31814965D01*
X151818024Y-31814965D02*
X151722786Y-31862584D01*
X151722786Y-31862584D02*
X151532310Y-31910203D01*
X151532310Y-31910203D02*
X151294215Y-31910203D01*
X151294215Y-31910203D02*
X151103739Y-31862584D01*
X151103739Y-31862584D02*
X151008501Y-31814965D01*
X151008501Y-31814965D02*
X150960882Y-31767346D01*
X150960882Y-31767346D02*
X150913262Y-31672108D01*
X150913262Y-31672108D02*
X150913262Y-31576870D01*
X150913262Y-31576870D02*
X150960882Y-31481632D01*
X150960882Y-31481632D02*
X151008501Y-31434013D01*
X151008501Y-31434013D02*
X151103739Y-31386394D01*
X151103739Y-31386394D02*
X151294215Y-31338775D01*
X151294215Y-31338775D02*
X151532310Y-31338775D01*
X151532310Y-31338775D02*
X151722786Y-31386394D01*
X151722786Y-31386394D02*
X151818024Y-31434013D01*
X151818024Y-31434013D02*
X151865643Y-31481632D01*
X151865643Y-31481632D02*
X151913262Y-31576870D01*
X148104206Y-29626509D02*
X147414259Y-29441638D01*
X147414259Y-29441638D02*
X147288594Y-29358668D01*
X147288594Y-29358668D02*
X147221251Y-29242025D01*
X147221251Y-29242025D02*
X147212228Y-29091711D01*
X147212228Y-29091711D02*
X147236878Y-28999718D01*
X146879461Y-30333616D02*
X147027358Y-29781658D01*
X146953409Y-30057637D02*
X147919335Y-30316456D01*
X147919335Y-30316456D02*
X147805995Y-30187489D01*
X147805995Y-30187489D02*
X147738652Y-30070847D01*
X147738652Y-30070847D02*
X147717305Y-29966529D01*
X146756214Y-30793581D02*
X146706915Y-30977567D01*
X146706915Y-30977567D02*
X146728262Y-31081884D01*
X146728262Y-31081884D02*
X146761934Y-31140206D01*
X146761934Y-31140206D02*
X146875274Y-31269173D01*
X146875274Y-31269173D02*
X147046935Y-31364468D01*
X147046935Y-31364468D02*
X147414907Y-31463066D01*
X147414907Y-31463066D02*
X147519224Y-31441719D01*
X147519224Y-31441719D02*
X147577545Y-31408047D01*
X147577545Y-31408047D02*
X147648191Y-31328379D01*
X147648191Y-31328379D02*
X147697490Y-31144393D01*
X147697490Y-31144393D02*
X147676143Y-31040075D01*
X147676143Y-31040075D02*
X147642471Y-30981754D01*
X147642471Y-30981754D02*
X147562803Y-30911108D01*
X147562803Y-30911108D02*
X147332821Y-30849484D01*
X147332821Y-30849484D02*
X147228503Y-30870832D01*
X147228503Y-30870832D02*
X147170182Y-30904503D01*
X147170182Y-30904503D02*
X147099536Y-30984171D01*
X147099536Y-30984171D02*
X147050237Y-31168157D01*
X147050237Y-31168157D02*
X147071584Y-31272475D01*
X147071584Y-31272475D02*
X147105256Y-31330796D01*
X147105256Y-31330796D02*
X147184924Y-31401442D01*
X139634523Y-68375180D02*
X139634523Y-67660895D01*
X139634523Y-67660895D02*
X139682142Y-67518038D01*
X139682142Y-67518038D02*
X139777380Y-67422800D01*
X139777380Y-67422800D02*
X139920237Y-67375180D01*
X139920237Y-67375180D02*
X140015475Y-67375180D01*
X139205951Y-68279942D02*
X139158332Y-68327561D01*
X139158332Y-68327561D02*
X139063094Y-68375180D01*
X139063094Y-68375180D02*
X138824999Y-68375180D01*
X138824999Y-68375180D02*
X138729761Y-68327561D01*
X138729761Y-68327561D02*
X138682142Y-68279942D01*
X138682142Y-68279942D02*
X138634523Y-68184704D01*
X138634523Y-68184704D02*
X138634523Y-68089466D01*
X138634523Y-68089466D02*
X138682142Y-67946609D01*
X138682142Y-67946609D02*
X139253570Y-67375180D01*
X139253570Y-67375180D02*
X138634523Y-67375180D01*
X137777380Y-68375180D02*
X137967856Y-68375180D01*
X137967856Y-68375180D02*
X138063094Y-68327561D01*
X138063094Y-68327561D02*
X138110713Y-68279942D01*
X138110713Y-68279942D02*
X138205951Y-68137085D01*
X138205951Y-68137085D02*
X138253570Y-67946609D01*
X138253570Y-67946609D02*
X138253570Y-67565657D01*
X138253570Y-67565657D02*
X138205951Y-67470419D01*
X138205951Y-67470419D02*
X138158332Y-67422800D01*
X138158332Y-67422800D02*
X138063094Y-67375180D01*
X138063094Y-67375180D02*
X137872618Y-67375180D01*
X137872618Y-67375180D02*
X137777380Y-67422800D01*
X137777380Y-67422800D02*
X137729761Y-67470419D01*
X137729761Y-67470419D02*
X137682142Y-67565657D01*
X137682142Y-67565657D02*
X137682142Y-67803752D01*
X137682142Y-67803752D02*
X137729761Y-67898990D01*
X137729761Y-67898990D02*
X137777380Y-67946609D01*
X137777380Y-67946609D02*
X137872618Y-67994228D01*
X137872618Y-67994228D02*
X138063094Y-67994228D01*
X138063094Y-67994228D02*
X138158332Y-67946609D01*
X138158332Y-67946609D02*
X138205951Y-67898990D01*
X138205951Y-67898990D02*
X138253570Y-67803752D01*
X151570180Y-47090476D02*
X150855895Y-47090476D01*
X150855895Y-47090476D02*
X150713038Y-47042857D01*
X150713038Y-47042857D02*
X150617800Y-46947619D01*
X150617800Y-46947619D02*
X150570180Y-46804762D01*
X150570180Y-46804762D02*
X150570180Y-46709524D01*
X150570180Y-48090476D02*
X150570180Y-47519048D01*
X150570180Y-47804762D02*
X151570180Y-47804762D01*
X151570180Y-47804762D02*
X151427323Y-47709524D01*
X151427323Y-47709524D02*
X151332085Y-47614286D01*
X151332085Y-47614286D02*
X151284466Y-47519048D01*
X151474942Y-48471429D02*
X151522561Y-48519048D01*
X151522561Y-48519048D02*
X151570180Y-48614286D01*
X151570180Y-48614286D02*
X151570180Y-48852381D01*
X151570180Y-48852381D02*
X151522561Y-48947619D01*
X151522561Y-48947619D02*
X151474942Y-48995238D01*
X151474942Y-48995238D02*
X151379704Y-49042857D01*
X151379704Y-49042857D02*
X151284466Y-49042857D01*
X151284466Y-49042857D02*
X151141609Y-48995238D01*
X151141609Y-48995238D02*
X150570180Y-48423810D01*
X150570180Y-48423810D02*
X150570180Y-49042857D01*
X158215476Y-65354819D02*
X158215476Y-66069104D01*
X158215476Y-66069104D02*
X158167857Y-66211961D01*
X158167857Y-66211961D02*
X158072619Y-66307200D01*
X158072619Y-66307200D02*
X157929762Y-66354819D01*
X157929762Y-66354819D02*
X157834524Y-66354819D01*
X159215476Y-66354819D02*
X158644048Y-66354819D01*
X158929762Y-66354819D02*
X158929762Y-65354819D01*
X158929762Y-65354819D02*
X158834524Y-65497676D01*
X158834524Y-65497676D02*
X158739286Y-65592914D01*
X158739286Y-65592914D02*
X158644048Y-65640533D01*
X159786905Y-65783390D02*
X159691667Y-65735771D01*
X159691667Y-65735771D02*
X159644048Y-65688152D01*
X159644048Y-65688152D02*
X159596429Y-65592914D01*
X159596429Y-65592914D02*
X159596429Y-65545295D01*
X159596429Y-65545295D02*
X159644048Y-65450057D01*
X159644048Y-65450057D02*
X159691667Y-65402438D01*
X159691667Y-65402438D02*
X159786905Y-65354819D01*
X159786905Y-65354819D02*
X159977381Y-65354819D01*
X159977381Y-65354819D02*
X160072619Y-65402438D01*
X160072619Y-65402438D02*
X160120238Y-65450057D01*
X160120238Y-65450057D02*
X160167857Y-65545295D01*
X160167857Y-65545295D02*
X160167857Y-65592914D01*
X160167857Y-65592914D02*
X160120238Y-65688152D01*
X160120238Y-65688152D02*
X160072619Y-65735771D01*
X160072619Y-65735771D02*
X159977381Y-65783390D01*
X159977381Y-65783390D02*
X159786905Y-65783390D01*
X159786905Y-65783390D02*
X159691667Y-65831009D01*
X159691667Y-65831009D02*
X159644048Y-65878628D01*
X159644048Y-65878628D02*
X159596429Y-65973866D01*
X159596429Y-65973866D02*
X159596429Y-66164342D01*
X159596429Y-66164342D02*
X159644048Y-66259580D01*
X159644048Y-66259580D02*
X159691667Y-66307200D01*
X159691667Y-66307200D02*
X159786905Y-66354819D01*
X159786905Y-66354819D02*
X159977381Y-66354819D01*
X159977381Y-66354819D02*
X160072619Y-66307200D01*
X160072619Y-66307200D02*
X160120238Y-66259580D01*
X160120238Y-66259580D02*
X160167857Y-66164342D01*
X160167857Y-66164342D02*
X160167857Y-65973866D01*
X160167857Y-65973866D02*
X160120238Y-65878628D01*
X160120238Y-65878628D02*
X160072619Y-65831009D01*
X160072619Y-65831009D02*
X159977381Y-65783390D01*
D12*
X103661905Y-29907419D02*
X103661905Y-28907419D01*
X103661905Y-28907419D02*
X103900000Y-28907419D01*
X103900000Y-28907419D02*
X104042857Y-28955038D01*
X104042857Y-28955038D02*
X104138095Y-29050276D01*
X104138095Y-29050276D02*
X104185714Y-29145514D01*
X104185714Y-29145514D02*
X104233333Y-29335990D01*
X104233333Y-29335990D02*
X104233333Y-29478847D01*
X104233333Y-29478847D02*
X104185714Y-29669323D01*
X104185714Y-29669323D02*
X104138095Y-29764561D01*
X104138095Y-29764561D02*
X104042857Y-29859800D01*
X104042857Y-29859800D02*
X103900000Y-29907419D01*
X103900000Y-29907419D02*
X103661905Y-29907419D01*
X105090476Y-29240752D02*
X105090476Y-29907419D01*
X104852381Y-28859800D02*
X104614286Y-29574085D01*
X104614286Y-29574085D02*
X105233333Y-29574085D01*
D11*
X161570180Y-37566666D02*
X160855895Y-37566666D01*
X160855895Y-37566666D02*
X160713038Y-37519047D01*
X160713038Y-37519047D02*
X160617800Y-37423809D01*
X160617800Y-37423809D02*
X160570180Y-37280952D01*
X160570180Y-37280952D02*
X160570180Y-37185714D01*
X161570180Y-38519047D02*
X161570180Y-38042857D01*
X161570180Y-38042857D02*
X161093990Y-37995238D01*
X161093990Y-37995238D02*
X161141609Y-38042857D01*
X161141609Y-38042857D02*
X161189228Y-38138095D01*
X161189228Y-38138095D02*
X161189228Y-38376190D01*
X161189228Y-38376190D02*
X161141609Y-38471428D01*
X161141609Y-38471428D02*
X161093990Y-38519047D01*
X161093990Y-38519047D02*
X160998752Y-38566666D01*
X160998752Y-38566666D02*
X160760657Y-38566666D01*
X160760657Y-38566666D02*
X160665419Y-38519047D01*
X160665419Y-38519047D02*
X160617800Y-38471428D01*
X160617800Y-38471428D02*
X160570180Y-38376190D01*
X160570180Y-38376190D02*
X160570180Y-38138095D01*
X160570180Y-38138095D02*
X160617800Y-38042857D01*
X160617800Y-38042857D02*
X160665419Y-37995238D01*
X161570180Y-47566666D02*
X160855895Y-47566666D01*
X160855895Y-47566666D02*
X160713038Y-47519047D01*
X160713038Y-47519047D02*
X160617800Y-47423809D01*
X160617800Y-47423809D02*
X160570180Y-47280952D01*
X160570180Y-47280952D02*
X160570180Y-47185714D01*
X161570180Y-48471428D02*
X161570180Y-48280952D01*
X161570180Y-48280952D02*
X161522561Y-48185714D01*
X161522561Y-48185714D02*
X161474942Y-48138095D01*
X161474942Y-48138095D02*
X161332085Y-48042857D01*
X161332085Y-48042857D02*
X161141609Y-47995238D01*
X161141609Y-47995238D02*
X160760657Y-47995238D01*
X160760657Y-47995238D02*
X160665419Y-48042857D01*
X160665419Y-48042857D02*
X160617800Y-48090476D01*
X160617800Y-48090476D02*
X160570180Y-48185714D01*
X160570180Y-48185714D02*
X160570180Y-48376190D01*
X160570180Y-48376190D02*
X160617800Y-48471428D01*
X160617800Y-48471428D02*
X160665419Y-48519047D01*
X160665419Y-48519047D02*
X160760657Y-48566666D01*
X160760657Y-48566666D02*
X160998752Y-48566666D01*
X160998752Y-48566666D02*
X161093990Y-48519047D01*
X161093990Y-48519047D02*
X161141609Y-48471428D01*
X161141609Y-48471428D02*
X161189228Y-48376190D01*
X161189228Y-48376190D02*
X161189228Y-48185714D01*
X161189228Y-48185714D02*
X161141609Y-48090476D01*
X161141609Y-48090476D02*
X161093990Y-48042857D01*
X161093990Y-48042857D02*
X160998752Y-47995238D01*
X138215476Y-47554818D02*
X138215476Y-48269103D01*
X138215476Y-48269103D02*
X138167857Y-48411960D01*
X138167857Y-48411960D02*
X138072619Y-48507199D01*
X138072619Y-48507199D02*
X137929762Y-48554818D01*
X137929762Y-48554818D02*
X137834524Y-48554818D01*
X138596429Y-47554818D02*
X139215476Y-47554818D01*
X139215476Y-47554818D02*
X138882143Y-47935770D01*
X138882143Y-47935770D02*
X139025000Y-47935770D01*
X139025000Y-47935770D02*
X139120238Y-47983389D01*
X139120238Y-47983389D02*
X139167857Y-48031008D01*
X139167857Y-48031008D02*
X139215476Y-48126246D01*
X139215476Y-48126246D02*
X139215476Y-48364341D01*
X139215476Y-48364341D02*
X139167857Y-48459579D01*
X139167857Y-48459579D02*
X139120238Y-48507199D01*
X139120238Y-48507199D02*
X139025000Y-48554818D01*
X139025000Y-48554818D02*
X138739286Y-48554818D01*
X138739286Y-48554818D02*
X138644048Y-48507199D01*
X138644048Y-48507199D02*
X138596429Y-48459579D01*
X140072619Y-47888151D02*
X140072619Y-48554818D01*
X139834524Y-47507199D02*
X139596429Y-48221484D01*
X139596429Y-48221484D02*
X140215476Y-48221484D01*
X157570180Y-30566666D02*
X156855895Y-30566666D01*
X156855895Y-30566666D02*
X156713038Y-30519047D01*
X156713038Y-30519047D02*
X156617800Y-30423809D01*
X156617800Y-30423809D02*
X156570180Y-30280952D01*
X156570180Y-30280952D02*
X156570180Y-30185714D01*
X157236847Y-31471428D02*
X156570180Y-31471428D01*
X157617800Y-31233333D02*
X156903514Y-30995238D01*
X156903514Y-30995238D02*
X156903514Y-31614285D01*
X141570180Y-43290475D02*
X140855895Y-43290475D01*
X140855895Y-43290475D02*
X140713038Y-43242856D01*
X140713038Y-43242856D02*
X140617800Y-43147618D01*
X140617800Y-43147618D02*
X140570180Y-43004761D01*
X140570180Y-43004761D02*
X140570180Y-42909523D01*
X141570180Y-43671428D02*
X141570180Y-44290475D01*
X141570180Y-44290475D02*
X141189228Y-43957142D01*
X141189228Y-43957142D02*
X141189228Y-44099999D01*
X141189228Y-44099999D02*
X141141609Y-44195237D01*
X141141609Y-44195237D02*
X141093990Y-44242856D01*
X141093990Y-44242856D02*
X140998752Y-44290475D01*
X140998752Y-44290475D02*
X140760657Y-44290475D01*
X140760657Y-44290475D02*
X140665419Y-44242856D01*
X140665419Y-44242856D02*
X140617800Y-44195237D01*
X140617800Y-44195237D02*
X140570180Y-44099999D01*
X140570180Y-44099999D02*
X140570180Y-43814285D01*
X140570180Y-43814285D02*
X140617800Y-43719047D01*
X140617800Y-43719047D02*
X140665419Y-43671428D01*
X141570180Y-44623809D02*
X141570180Y-45242856D01*
X141570180Y-45242856D02*
X141189228Y-44909523D01*
X141189228Y-44909523D02*
X141189228Y-45052380D01*
X141189228Y-45052380D02*
X141141609Y-45147618D01*
X141141609Y-45147618D02*
X141093990Y-45195237D01*
X141093990Y-45195237D02*
X140998752Y-45242856D01*
X140998752Y-45242856D02*
X140760657Y-45242856D01*
X140760657Y-45242856D02*
X140665419Y-45195237D01*
X140665419Y-45195237D02*
X140617800Y-45147618D01*
X140617800Y-45147618D02*
X140570180Y-45052380D01*
X140570180Y-45052380D02*
X140570180Y-44766666D01*
X140570180Y-44766666D02*
X140617800Y-44671428D01*
X140617800Y-44671428D02*
X140665419Y-44623809D01*
X151570180Y-37566666D02*
X150855895Y-37566666D01*
X150855895Y-37566666D02*
X150713038Y-37519047D01*
X150713038Y-37519047D02*
X150617800Y-37423809D01*
X150617800Y-37423809D02*
X150570180Y-37280952D01*
X150570180Y-37280952D02*
X150570180Y-37185714D01*
X150570180Y-38090476D02*
X150570180Y-38280952D01*
X150570180Y-38280952D02*
X150617800Y-38376190D01*
X150617800Y-38376190D02*
X150665419Y-38423809D01*
X150665419Y-38423809D02*
X150808276Y-38519047D01*
X150808276Y-38519047D02*
X150998752Y-38566666D01*
X150998752Y-38566666D02*
X151379704Y-38566666D01*
X151379704Y-38566666D02*
X151474942Y-38519047D01*
X151474942Y-38519047D02*
X151522561Y-38471428D01*
X151522561Y-38471428D02*
X151570180Y-38376190D01*
X151570180Y-38376190D02*
X151570180Y-38185714D01*
X151570180Y-38185714D02*
X151522561Y-38090476D01*
X151522561Y-38090476D02*
X151474942Y-38042857D01*
X151474942Y-38042857D02*
X151379704Y-37995238D01*
X151379704Y-37995238D02*
X151141609Y-37995238D01*
X151141609Y-37995238D02*
X151046371Y-38042857D01*
X151046371Y-38042857D02*
X150998752Y-38090476D01*
X150998752Y-38090476D02*
X150951133Y-38185714D01*
X150951133Y-38185714D02*
X150951133Y-38376190D01*
X150951133Y-38376190D02*
X150998752Y-38471428D01*
X150998752Y-38471428D02*
X151046371Y-38519047D01*
X151046371Y-38519047D02*
X151141609Y-38566666D01*
X158691665Y-51384819D02*
X158691665Y-52099104D01*
X158691665Y-52099104D02*
X158644046Y-52241961D01*
X158644046Y-52241961D02*
X158548808Y-52337200D01*
X158548808Y-52337200D02*
X158405951Y-52384819D01*
X158405951Y-52384819D02*
X158310713Y-52384819D01*
X159072618Y-51384819D02*
X159739284Y-51384819D01*
X159739284Y-51384819D02*
X159310713Y-52384819D01*
X139634523Y-63375180D02*
X139634523Y-62660895D01*
X139634523Y-62660895D02*
X139682142Y-62518038D01*
X139682142Y-62518038D02*
X139777380Y-62422800D01*
X139777380Y-62422800D02*
X139920237Y-62375180D01*
X139920237Y-62375180D02*
X140015475Y-62375180D01*
X139205951Y-63279942D02*
X139158332Y-63327561D01*
X139158332Y-63327561D02*
X139063094Y-63375180D01*
X139063094Y-63375180D02*
X138824999Y-63375180D01*
X138824999Y-63375180D02*
X138729761Y-63327561D01*
X138729761Y-63327561D02*
X138682142Y-63279942D01*
X138682142Y-63279942D02*
X138634523Y-63184704D01*
X138634523Y-63184704D02*
X138634523Y-63089466D01*
X138634523Y-63089466D02*
X138682142Y-62946609D01*
X138682142Y-62946609D02*
X139253570Y-62375180D01*
X139253570Y-62375180D02*
X138634523Y-62375180D01*
X137729761Y-63375180D02*
X138205951Y-63375180D01*
X138205951Y-63375180D02*
X138253570Y-62898990D01*
X138253570Y-62898990D02*
X138205951Y-62946609D01*
X138205951Y-62946609D02*
X138110713Y-62994228D01*
X138110713Y-62994228D02*
X137872618Y-62994228D01*
X137872618Y-62994228D02*
X137777380Y-62946609D01*
X137777380Y-62946609D02*
X137729761Y-62898990D01*
X137729761Y-62898990D02*
X137682142Y-62803752D01*
X137682142Y-62803752D02*
X137682142Y-62565657D01*
X137682142Y-62565657D02*
X137729761Y-62470419D01*
X137729761Y-62470419D02*
X137777380Y-62422800D01*
X137777380Y-62422800D02*
X137872618Y-62375180D01*
X137872618Y-62375180D02*
X138110713Y-62375180D01*
X138110713Y-62375180D02*
X138205951Y-62422800D01*
X138205951Y-62422800D02*
X138253570Y-62470419D01*
X161570180Y-30566666D02*
X160855895Y-30566666D01*
X160855895Y-30566666D02*
X160713038Y-30519047D01*
X160713038Y-30519047D02*
X160617800Y-30423809D01*
X160617800Y-30423809D02*
X160570180Y-30280952D01*
X160570180Y-30280952D02*
X160570180Y-30185714D01*
X161570180Y-30947619D02*
X161570180Y-31566666D01*
X161570180Y-31566666D02*
X161189228Y-31233333D01*
X161189228Y-31233333D02*
X161189228Y-31376190D01*
X161189228Y-31376190D02*
X161141609Y-31471428D01*
X161141609Y-31471428D02*
X161093990Y-31519047D01*
X161093990Y-31519047D02*
X160998752Y-31566666D01*
X160998752Y-31566666D02*
X160760657Y-31566666D01*
X160760657Y-31566666D02*
X160665419Y-31519047D01*
X160665419Y-31519047D02*
X160617800Y-31471428D01*
X160617800Y-31471428D02*
X160570180Y-31376190D01*
X160570180Y-31376190D02*
X160570180Y-31090476D01*
X160570180Y-31090476D02*
X160617800Y-30995238D01*
X160617800Y-30995238D02*
X160665419Y-30947619D01*
X18254819Y-53833333D02*
X18969104Y-53833333D01*
X18969104Y-53833333D02*
X19111961Y-53880952D01*
X19111961Y-53880952D02*
X19207200Y-53976190D01*
X19207200Y-53976190D02*
X19254819Y-54119047D01*
X19254819Y-54119047D02*
X19254819Y-54214285D01*
X19254819Y-52833333D02*
X19254819Y-53404761D01*
X19254819Y-53119047D02*
X18254819Y-53119047D01*
X18254819Y-53119047D02*
X18397676Y-53214285D01*
X18397676Y-53214285D02*
X18492914Y-53309523D01*
X18492914Y-53309523D02*
X18540533Y-53404761D01*
X138385476Y-37524818D02*
X138385476Y-38239103D01*
X138385476Y-38239103D02*
X138337857Y-38381960D01*
X138337857Y-38381960D02*
X138242619Y-38477199D01*
X138242619Y-38477199D02*
X138099762Y-38524818D01*
X138099762Y-38524818D02*
X138004524Y-38524818D01*
X138766429Y-37524818D02*
X139385476Y-37524818D01*
X139385476Y-37524818D02*
X139052143Y-37905770D01*
X139052143Y-37905770D02*
X139195000Y-37905770D01*
X139195000Y-37905770D02*
X139290238Y-37953389D01*
X139290238Y-37953389D02*
X139337857Y-38001008D01*
X139337857Y-38001008D02*
X139385476Y-38096246D01*
X139385476Y-38096246D02*
X139385476Y-38334341D01*
X139385476Y-38334341D02*
X139337857Y-38429579D01*
X139337857Y-38429579D02*
X139290238Y-38477199D01*
X139290238Y-38477199D02*
X139195000Y-38524818D01*
X139195000Y-38524818D02*
X138909286Y-38524818D01*
X138909286Y-38524818D02*
X138814048Y-38477199D01*
X138814048Y-38477199D02*
X138766429Y-38429579D01*
X140337857Y-38524818D02*
X139766429Y-38524818D01*
X140052143Y-38524818D02*
X140052143Y-37524818D01*
X140052143Y-37524818D02*
X139956905Y-37667675D01*
X139956905Y-37667675D02*
X139861667Y-37762913D01*
X139861667Y-37762913D02*
X139766429Y-37810532D01*
X147355180Y-57170677D02*
X146640895Y-57170677D01*
X146640895Y-57170677D02*
X146498038Y-57123058D01*
X146498038Y-57123058D02*
X146402800Y-57027820D01*
X146402800Y-57027820D02*
X146355180Y-56884963D01*
X146355180Y-56884963D02*
X146355180Y-56789725D01*
X147259942Y-57599249D02*
X147307561Y-57646868D01*
X147307561Y-57646868D02*
X147355180Y-57742106D01*
X147355180Y-57742106D02*
X147355180Y-57980201D01*
X147355180Y-57980201D02*
X147307561Y-58075439D01*
X147307561Y-58075439D02*
X147259942Y-58123058D01*
X147259942Y-58123058D02*
X147164704Y-58170677D01*
X147164704Y-58170677D02*
X147069466Y-58170677D01*
X147069466Y-58170677D02*
X146926609Y-58123058D01*
X146926609Y-58123058D02*
X146355180Y-57551630D01*
X146355180Y-57551630D02*
X146355180Y-58170677D01*
X147355180Y-58504011D02*
X147355180Y-59170677D01*
X147355180Y-59170677D02*
X146355180Y-58742106D01*
X137570180Y-43290475D02*
X136855895Y-43290475D01*
X136855895Y-43290475D02*
X136713038Y-43242856D01*
X136713038Y-43242856D02*
X136617800Y-43147618D01*
X136617800Y-43147618D02*
X136570180Y-43004761D01*
X136570180Y-43004761D02*
X136570180Y-42909523D01*
X137570180Y-43671428D02*
X137570180Y-44290475D01*
X137570180Y-44290475D02*
X137189228Y-43957142D01*
X137189228Y-43957142D02*
X137189228Y-44099999D01*
X137189228Y-44099999D02*
X137141609Y-44195237D01*
X137141609Y-44195237D02*
X137093990Y-44242856D01*
X137093990Y-44242856D02*
X136998752Y-44290475D01*
X136998752Y-44290475D02*
X136760657Y-44290475D01*
X136760657Y-44290475D02*
X136665419Y-44242856D01*
X136665419Y-44242856D02*
X136617800Y-44195237D01*
X136617800Y-44195237D02*
X136570180Y-44099999D01*
X136570180Y-44099999D02*
X136570180Y-43814285D01*
X136570180Y-43814285D02*
X136617800Y-43719047D01*
X136617800Y-43719047D02*
X136665419Y-43671428D01*
X137570180Y-45195237D02*
X137570180Y-44719047D01*
X137570180Y-44719047D02*
X137093990Y-44671428D01*
X137093990Y-44671428D02*
X137141609Y-44719047D01*
X137141609Y-44719047D02*
X137189228Y-44814285D01*
X137189228Y-44814285D02*
X137189228Y-45052380D01*
X137189228Y-45052380D02*
X137141609Y-45147618D01*
X137141609Y-45147618D02*
X137093990Y-45195237D01*
X137093990Y-45195237D02*
X136998752Y-45242856D01*
X136998752Y-45242856D02*
X136760657Y-45242856D01*
X136760657Y-45242856D02*
X136665419Y-45195237D01*
X136665419Y-45195237D02*
X136617800Y-45147618D01*
X136617800Y-45147618D02*
X136570180Y-45052380D01*
X136570180Y-45052380D02*
X136570180Y-44814285D01*
X136570180Y-44814285D02*
X136617800Y-44719047D01*
X136617800Y-44719047D02*
X136665419Y-44671428D01*
X148215476Y-41354819D02*
X148215476Y-42069104D01*
X148215476Y-42069104D02*
X148167857Y-42211961D01*
X148167857Y-42211961D02*
X148072619Y-42307200D01*
X148072619Y-42307200D02*
X147929762Y-42354819D01*
X147929762Y-42354819D02*
X147834524Y-42354819D01*
X149215476Y-42354819D02*
X148644048Y-42354819D01*
X148929762Y-42354819D02*
X148929762Y-41354819D01*
X148929762Y-41354819D02*
X148834524Y-41497676D01*
X148834524Y-41497676D02*
X148739286Y-41592914D01*
X148739286Y-41592914D02*
X148644048Y-41640533D01*
X150167857Y-42354819D02*
X149596429Y-42354819D01*
X149882143Y-42354819D02*
X149882143Y-41354819D01*
X149882143Y-41354819D02*
X149786905Y-41497676D01*
X149786905Y-41497676D02*
X149691667Y-41592914D01*
X149691667Y-41592914D02*
X149596429Y-41640533D01*
D12*
X107228572Y-50957419D02*
X107228572Y-49957419D01*
X107228572Y-49957419D02*
X107466667Y-49957419D01*
X107466667Y-49957419D02*
X107609524Y-50005038D01*
X107609524Y-50005038D02*
X107704762Y-50100276D01*
X107704762Y-50100276D02*
X107752381Y-50195514D01*
X107752381Y-50195514D02*
X107800000Y-50385990D01*
X107800000Y-50385990D02*
X107800000Y-50528847D01*
X107800000Y-50528847D02*
X107752381Y-50719323D01*
X107752381Y-50719323D02*
X107704762Y-50814561D01*
X107704762Y-50814561D02*
X107609524Y-50909800D01*
X107609524Y-50909800D02*
X107466667Y-50957419D01*
X107466667Y-50957419D02*
X107228572Y-50957419D01*
X108657143Y-49957419D02*
X108466667Y-49957419D01*
X108466667Y-49957419D02*
X108371429Y-50005038D01*
X108371429Y-50005038D02*
X108323810Y-50052657D01*
X108323810Y-50052657D02*
X108228572Y-50195514D01*
X108228572Y-50195514D02*
X108180953Y-50385990D01*
X108180953Y-50385990D02*
X108180953Y-50766942D01*
X108180953Y-50766942D02*
X108228572Y-50862180D01*
X108228572Y-50862180D02*
X108276191Y-50909800D01*
X108276191Y-50909800D02*
X108371429Y-50957419D01*
X108371429Y-50957419D02*
X108561905Y-50957419D01*
X108561905Y-50957419D02*
X108657143Y-50909800D01*
X108657143Y-50909800D02*
X108704762Y-50862180D01*
X108704762Y-50862180D02*
X108752381Y-50766942D01*
X108752381Y-50766942D02*
X108752381Y-50528847D01*
X108752381Y-50528847D02*
X108704762Y-50433609D01*
X108704762Y-50433609D02*
X108657143Y-50385990D01*
X108657143Y-50385990D02*
X108561905Y-50338371D01*
X108561905Y-50338371D02*
X108371429Y-50338371D01*
X108371429Y-50338371D02*
X108276191Y-50385990D01*
X108276191Y-50385990D02*
X108228572Y-50433609D01*
X108228572Y-50433609D02*
X108180953Y-50528847D01*
D11*
X18339133Y-74483333D02*
X19053418Y-74483333D01*
X19053418Y-74483333D02*
X19196275Y-74530952D01*
X19196275Y-74530952D02*
X19291514Y-74626190D01*
X19291514Y-74626190D02*
X19339133Y-74769047D01*
X19339133Y-74769047D02*
X19339133Y-74864285D01*
X19339133Y-73483333D02*
X19339133Y-74054761D01*
X19339133Y-73769047D02*
X18339133Y-73769047D01*
X18339133Y-73769047D02*
X18481990Y-73864285D01*
X18481990Y-73864285D02*
X18577228Y-73959523D01*
X18577228Y-73959523D02*
X18624847Y-74054761D01*
D13*
%TO.C,D5*%
X87884314Y-71400000D02*
X87884314Y-76900000D01*
X87884314Y-71400000D02*
X94884314Y-71400000D01*
X87884314Y-76900000D02*
X94434314Y-76900000D01*
X88684314Y-75050000D02*
X88684314Y-73250000D01*
X94084314Y-75050000D02*
X94084314Y-73250000D01*
X94434314Y-76900000D02*
X94884314Y-76450000D01*
X94884314Y-76450000D02*
X94884314Y-71400000D01*
D12*
%TO.C,D3*%
X137450000Y-113950000D02*
X141950000Y-113950000D01*
X137450000Y-117950000D02*
X137450000Y-113950000D01*
X137950000Y-118450000D02*
X137450000Y-117950000D01*
X141950000Y-113950000D02*
X141950000Y-118450000D01*
X141950000Y-118450000D02*
X137950000Y-118450000D01*
D13*
%TO.C,C2*%
X52618734Y-72340000D02*
X52899894Y-72340000D01*
X52618734Y-73360000D02*
X52899894Y-73360000D01*
%TO.C,C1*%
X53734420Y-50790000D02*
X54015580Y-50790000D01*
X53734420Y-51810000D02*
X54015580Y-51810000D01*
D12*
%TO.C,D3*%
X55716667Y-51250000D02*
X60216667Y-51250000D01*
X55716667Y-55250000D02*
X55716667Y-51250000D01*
X56216667Y-55750000D02*
X55716667Y-55250000D01*
X60216667Y-51250000D02*
X60216667Y-55750000D01*
X60216667Y-55750000D02*
X56216667Y-55750000D01*
%TO.C,D4*%
X72383333Y-51250000D02*
X76883333Y-51250000D01*
X72383333Y-55250000D02*
X72383333Y-51250000D01*
X72883333Y-55750000D02*
X72383333Y-55250000D01*
X76883333Y-51250000D02*
X76883333Y-55750000D01*
X76883333Y-55750000D02*
X72883333Y-55750000D01*
D14*
%TO.C,J24*%
X137447000Y-52163901D02*
X137447000Y-54729301D01*
X137447000Y-54729301D02*
X137762195Y-54729301D01*
X137762195Y-52163901D02*
X137447000Y-52163901D01*
X140687805Y-54729301D02*
X141003000Y-54729301D01*
X141003000Y-52163901D02*
X140687805Y-52163901D01*
X141003000Y-54729301D02*
X141003000Y-52163901D01*
D12*
%TO.C,ESKI1*%
X32100000Y-11900000D02*
X32100000Y-10150000D01*
X32600000Y-9650000D02*
X36100000Y-9650000D01*
X36600000Y-10150000D02*
X36600000Y-11900000D01*
D15*
X32350000Y-10650000D02*
X36350000Y-10650000D01*
X36350000Y-13150000D01*
X32350000Y-13150000D01*
X32350000Y-10650000D01*
D12*
X32100000Y-10150000D02*
G75*
G02*
X32600000Y-9650000I500001J-1D01*
G01*
X36100000Y-9650000D02*
G75*
G02*
X36600000Y-10150000I0J-500000D01*
G01*
D14*
%TO.C,J29*%
X139842300Y-32291999D02*
X139842300Y-32607194D01*
X139842300Y-35532804D02*
X139842300Y-35847999D01*
X139842300Y-35847999D02*
X142407700Y-35847999D01*
X142407700Y-32291999D02*
X139842300Y-32291999D01*
X142407700Y-32607194D02*
X142407700Y-32291999D01*
X142407700Y-35847999D02*
X142407700Y-35532804D01*
%TO.C,J8*%
X155742300Y-46122000D02*
X155742300Y-46437195D01*
X155742300Y-49362805D02*
X155742300Y-49678000D01*
X155742300Y-49678000D02*
X158307700Y-49678000D01*
X158307700Y-46122000D02*
X155742300Y-46122000D01*
X158307700Y-46437195D02*
X158307700Y-46122000D01*
X158307700Y-49678000D02*
X158307700Y-49362805D01*
%TO.C,J30*%
X135842300Y-32291999D02*
X135842300Y-32607194D01*
X135842300Y-35532804D02*
X135842300Y-35847999D01*
X135842300Y-35847999D02*
X138407700Y-35847999D01*
X138407700Y-32291999D02*
X135842300Y-32291999D01*
X138407700Y-32607194D02*
X138407700Y-32291999D01*
X138407700Y-35847999D02*
X138407700Y-35532804D01*
%TO.C,J2*%
X112403400Y-114377500D02*
X115146600Y-114377500D01*
X115146600Y-118822500D02*
X112403400Y-118822500D01*
%TO.C,J13*%
X145742300Y-46122000D02*
X145742300Y-46437195D01*
X145742300Y-49362805D02*
X145742300Y-49678000D01*
X145742300Y-49678000D02*
X148307700Y-49678000D01*
X148307700Y-46122000D02*
X145742300Y-46122000D01*
X148307700Y-46437195D02*
X148307700Y-46122000D01*
X148307700Y-49678000D02*
X148307700Y-49362805D01*
D13*
%TO.C,D1*%
X26275000Y-113850000D02*
X26275000Y-119350000D01*
X26275000Y-113850000D02*
X33275000Y-113850000D01*
X26275000Y-119350000D02*
X32825000Y-119350000D01*
X27075000Y-117500000D02*
X27075000Y-115700000D01*
X32475000Y-117500000D02*
X32475000Y-115700000D01*
X32825000Y-119350000D02*
X33275000Y-118900000D01*
X33275000Y-118900000D02*
X33275000Y-113850000D01*
D12*
%TO.C,D3*%
X155141667Y-113850000D02*
X159641667Y-113850000D01*
X155141667Y-117850000D02*
X155141667Y-113850000D01*
X155641667Y-118350000D02*
X155141667Y-117850000D01*
X159641667Y-113850000D02*
X159641667Y-118350000D01*
X159641667Y-118350000D02*
X155641667Y-118350000D01*
D14*
%TO.C,J28*%
X149027300Y-56202201D02*
X149027300Y-56517396D01*
X149027300Y-59443006D02*
X149027300Y-59758201D01*
X149027300Y-59758201D02*
X151592700Y-59758201D01*
X151592700Y-56202201D02*
X149027300Y-56202201D01*
X151592700Y-56517396D02*
X151592700Y-56202201D01*
X151592700Y-59758201D02*
X151592700Y-59443006D01*
D13*
%TO.C,C3*%
X154990000Y-90334420D02*
X154990000Y-90615580D01*
X156010000Y-90334420D02*
X156010000Y-90615580D01*
X74265580Y-29940000D02*
X73984420Y-29940000D01*
X74265580Y-30960000D02*
X73984420Y-30960000D01*
%TO.C,C2*%
X98334420Y-114790000D02*
X98615580Y-114790000D01*
X98334420Y-115810000D02*
X98615580Y-115810000D01*
%TO.C,C3*%
X148490000Y-100584420D02*
X148490000Y-100865580D01*
X149510000Y-100584420D02*
X149510000Y-100865580D01*
D12*
%TO.C,ESKI1*%
X64025000Y-117300000D02*
X64025000Y-115550000D01*
X64525000Y-115050000D02*
X68025000Y-115050000D01*
X68525000Y-115550000D02*
X68525000Y-117300000D01*
D15*
X64275000Y-116050000D02*
X68275000Y-116050000D01*
X68275000Y-118550000D01*
X64275000Y-118550000D01*
X64275000Y-116050000D01*
D12*
X64025000Y-115550000D02*
G75*
G02*
X64525000Y-115050000I500001J-1D01*
G01*
X68025000Y-115050000D02*
G75*
G02*
X68525000Y-115550000I0J-500000D01*
G01*
D14*
%TO.C,J17*%
X157177000Y-56617300D02*
X157177000Y-59182700D01*
X157177000Y-59182700D02*
X157492195Y-59182700D01*
X157492195Y-56617300D02*
X157177000Y-56617300D01*
X160417805Y-59182700D02*
X160733000Y-59182700D01*
X160733000Y-56617300D02*
X160417805Y-56617300D01*
X160733000Y-59182700D02*
X160733000Y-56617300D01*
%TO.C,J15*%
X159672300Y-60122000D02*
X159672300Y-60437195D01*
X159672300Y-63362805D02*
X159672300Y-63678000D01*
X159672300Y-63678000D02*
X162237700Y-63678000D01*
X162237700Y-60122000D02*
X159672300Y-60122000D01*
X162237700Y-60437195D02*
X162237700Y-60122000D01*
X162237700Y-63678000D02*
X162237700Y-63362805D01*
%TO.C,J22*%
X143898500Y-64656263D02*
X146120202Y-65938963D01*
X144056098Y-64383296D02*
X143898500Y-64656263D01*
X145676500Y-61576677D02*
X145518903Y-61849644D01*
X146120202Y-65938963D02*
X146277799Y-65665996D01*
X147740604Y-63132344D02*
X147898202Y-62859377D01*
X147898202Y-62859377D02*
X145676500Y-61576677D01*
%TO.C,J2*%
X112028400Y-30227500D02*
X114771600Y-30227500D01*
X114771600Y-34672500D02*
X112028400Y-34672500D01*
D12*
%TO.C,D2*%
X42350000Y-9250000D02*
X46850000Y-9250000D01*
X42350000Y-13250000D02*
X42350000Y-9250000D01*
X42850000Y-13750000D02*
X42350000Y-13250000D01*
X46850000Y-9250000D02*
X46850000Y-13750000D01*
X46850000Y-13750000D02*
X42850000Y-13750000D01*
D14*
%TO.C,J1*%
X17312714Y-93227500D02*
X20055914Y-93227500D01*
X20055914Y-97672500D02*
X17312714Y-97672500D01*
X17028400Y-30227500D02*
X19771600Y-30227500D01*
X19771600Y-34672500D02*
X17028400Y-34672500D01*
%TO.C,J10*%
X145742300Y-36122000D02*
X145742300Y-36437195D01*
X145742300Y-39362805D02*
X145742300Y-39678000D01*
X145742300Y-39678000D02*
X148307700Y-39678000D01*
X148307700Y-36122000D02*
X145742300Y-36122000D01*
X148307700Y-36437195D02*
X148307700Y-36122000D01*
X148307700Y-39678000D02*
X148307700Y-39362805D01*
D12*
%TO.C,D1*%
X27150000Y-30200000D02*
X31650000Y-30200000D01*
X27150000Y-34200000D02*
X27150000Y-30200000D01*
X27650000Y-34700000D02*
X27150000Y-34200000D01*
X31650000Y-30200000D02*
X31650000Y-34700000D01*
X31650000Y-34700000D02*
X27650000Y-34700000D01*
D14*
%TO.C,J21*%
X149442299Y-63321999D02*
X149442299Y-63637194D01*
X149442299Y-66562804D02*
X149442299Y-66877999D01*
X149442299Y-66877999D02*
X152007699Y-66877999D01*
X152007699Y-63321999D02*
X149442299Y-63321999D01*
X152007699Y-63637194D02*
X152007699Y-63321999D01*
X152007699Y-66877999D02*
X152007699Y-66562804D01*
D13*
%TO.C,C3*%
X136740000Y-100584420D02*
X136740000Y-100865580D01*
X137760000Y-100584420D02*
X137760000Y-100865580D01*
%TO.C,D3*%
X62684314Y-92700000D02*
X62684314Y-98200000D01*
X62684314Y-92700000D02*
X69684314Y-92700000D01*
X62684314Y-98200000D02*
X69234314Y-98200000D01*
X63484314Y-96350000D02*
X63484314Y-94550000D01*
X68884314Y-96350000D02*
X68884314Y-94550000D01*
X69234314Y-98200000D02*
X69684314Y-97750000D01*
X69684314Y-97750000D02*
X69684314Y-92700000D01*
D14*
%TO.C,J2*%
X112312714Y-93227500D02*
X115055914Y-93227500D01*
X115055914Y-97672500D02*
X112312714Y-97672500D01*
%TO.C,J14*%
X147247000Y-50617300D02*
X147247000Y-53182700D01*
X147247000Y-53182700D02*
X147562195Y-53182700D01*
X147562195Y-50617300D02*
X147247000Y-50617300D01*
X150487805Y-53182700D02*
X150803000Y-53182700D01*
X150803000Y-50617300D02*
X150487805Y-50617300D01*
X150803000Y-53182700D02*
X150803000Y-50617300D01*
D13*
%TO.C,R1*%
X22127500Y-33437258D02*
X22127500Y-32962742D01*
X23172500Y-33437258D02*
X23172500Y-32962742D01*
D14*
%TO.C,J2*%
X111978400Y-9277500D02*
X114721600Y-9277500D01*
X114721600Y-13722500D02*
X111978400Y-13722500D01*
D13*
%TO.C,D4*%
X82684314Y-92700000D02*
X82684314Y-98200000D01*
X82684314Y-92700000D02*
X89684314Y-92700000D01*
X82684314Y-98200000D02*
X89234314Y-98200000D01*
X83484314Y-96350000D02*
X83484314Y-94550000D01*
X88884314Y-96350000D02*
X88884314Y-94550000D01*
X89234314Y-98200000D02*
X89684314Y-97750000D01*
X89684314Y-97750000D02*
X89684314Y-92700000D01*
%TO.C,C3*%
X157490000Y-100809420D02*
X157490000Y-101090580D01*
X158510000Y-100809420D02*
X158510000Y-101090580D01*
X155490000Y-100809420D02*
X155490000Y-101090580D01*
X156510000Y-100809420D02*
X156510000Y-101090580D01*
X156990000Y-90334420D02*
X156990000Y-90615580D01*
X158010000Y-90334420D02*
X158010000Y-90615580D01*
%TO.C,D6*%
X104550981Y-71400000D02*
X104550981Y-76900000D01*
X104550981Y-71400000D02*
X111550981Y-71400000D01*
X104550981Y-76900000D02*
X111100981Y-76900000D01*
X105350981Y-75050000D02*
X105350981Y-73250000D01*
X110750981Y-75050000D02*
X110750981Y-73250000D01*
X111100981Y-76900000D02*
X111550981Y-76450000D01*
X111550981Y-76450000D02*
X111550981Y-71400000D01*
D14*
%TO.C,J1*%
X17403400Y-114377500D02*
X20146600Y-114377500D01*
X20146600Y-118822500D02*
X17403400Y-118822500D01*
D12*
%TO.C,D5*%
X103600000Y-9250000D02*
X108100000Y-9250000D01*
X103600000Y-13250000D02*
X103600000Y-9250000D01*
X104100000Y-13750000D02*
X103600000Y-13250000D01*
X108100000Y-9250000D02*
X108100000Y-13750000D01*
X108100000Y-13750000D02*
X104100000Y-13750000D01*
D14*
%TO.C,J1*%
X16978400Y-9277500D02*
X19721600Y-9277500D01*
X19721600Y-13722500D02*
X16978400Y-13722500D01*
%TO.C,J2*%
X157247000Y-40617300D02*
X157247000Y-43182700D01*
X157247000Y-43182700D02*
X157562195Y-43182700D01*
X157562195Y-40617300D02*
X157247000Y-40617300D01*
X160487805Y-43182700D02*
X160803000Y-43182700D01*
X160803000Y-40617300D02*
X160487805Y-40617300D01*
X160803000Y-43182700D02*
X160803000Y-40617300D01*
D13*
%TO.C,C2*%
X100443734Y-93640000D02*
X100724894Y-93640000D01*
X100443734Y-94660000D02*
X100724894Y-94660000D01*
D12*
%TO.C,D1*%
X22383333Y-51250000D02*
X26883333Y-51250000D01*
X22383333Y-55250000D02*
X22383333Y-51250000D01*
X22883333Y-55750000D02*
X22383333Y-55250000D01*
X26883333Y-51250000D02*
X26883333Y-55750000D01*
X26883333Y-55750000D02*
X22883333Y-55750000D01*
D13*
%TO.C,C3*%
X72240580Y-8990000D02*
X71959420Y-8990000D01*
X72240580Y-10010000D02*
X71959420Y-10010000D01*
D14*
%TO.C,J16*%
X155672300Y-60122000D02*
X155672300Y-60437195D01*
X155672300Y-63362805D02*
X155672300Y-63678000D01*
X155672300Y-63678000D02*
X158237700Y-63678000D01*
X158237700Y-60122000D02*
X155672300Y-60122000D01*
X158237700Y-60437195D02*
X158237700Y-60122000D01*
X158237700Y-63678000D02*
X158237700Y-63362805D01*
%TO.C,J23*%
X137447000Y-56663901D02*
X137447000Y-59229301D01*
X137447000Y-59229301D02*
X137762195Y-59229301D01*
X137762195Y-56663901D02*
X137447000Y-56663901D01*
X140687805Y-59229301D02*
X141003000Y-59229301D01*
X141003000Y-56663901D02*
X140687805Y-56663901D01*
X141003000Y-59229301D02*
X141003000Y-56663901D01*
D13*
%TO.C,D2*%
X37884314Y-71400000D02*
X37884314Y-76900000D01*
X37884314Y-71400000D02*
X44884314Y-71400000D01*
X37884314Y-76900000D02*
X44434314Y-76900000D01*
X38684314Y-75050000D02*
X38684314Y-73250000D01*
X44084314Y-75050000D02*
X44084314Y-73250000D01*
X44434314Y-76900000D02*
X44884314Y-76450000D01*
X44884314Y-76450000D02*
X44884314Y-71400000D01*
%TO.C,C3*%
X134990000Y-100584420D02*
X134990000Y-100865580D01*
X136010000Y-100584420D02*
X136010000Y-100865580D01*
X72024894Y-93540000D02*
X71743734Y-93540000D01*
X72024894Y-94560000D02*
X71743734Y-94560000D01*
%TO.C,C2*%
X95940580Y-50890000D02*
X95659420Y-50890000D01*
X95940580Y-51910000D02*
X95659420Y-51910000D01*
%TO.C,R1*%
X22077500Y-12487258D02*
X22077500Y-12012742D01*
X23122500Y-12487258D02*
X23122500Y-12012742D01*
D12*
%TO.C,D4*%
X83600000Y-9250000D02*
X88100000Y-9250000D01*
X83600000Y-13250000D02*
X83600000Y-9250000D01*
X84100000Y-13750000D02*
X83600000Y-13250000D01*
X88100000Y-9250000D02*
X88100000Y-13750000D01*
X88100000Y-13750000D02*
X84100000Y-13750000D01*
D13*
%TO.C,C3*%
X159490000Y-100809420D02*
X159490000Y-101090580D01*
X160510000Y-100809420D02*
X160510000Y-101090580D01*
D14*
%TO.C,J32*%
X137417000Y-28787299D02*
X137417000Y-31352699D01*
X137417000Y-31352699D02*
X137732195Y-31352699D01*
X137732195Y-28787299D02*
X137417000Y-28787299D01*
X140657805Y-31352699D02*
X140973000Y-31352699D01*
X140973000Y-28787299D02*
X140657805Y-28787299D01*
X140973000Y-31352699D02*
X140973000Y-28787299D01*
D13*
%TO.C,C3*%
X136490000Y-90309420D02*
X136490000Y-90590580D01*
X137510000Y-90309420D02*
X137510000Y-90590580D01*
D12*
%TO.C,ESKI1*%
X63650000Y-33350000D02*
X63650000Y-31600000D01*
X64150000Y-31100000D02*
X67650000Y-31100000D01*
X68150000Y-31600000D02*
X68150000Y-33350000D01*
D15*
X63900000Y-32100000D02*
X67900000Y-32100000D01*
X67900000Y-34600000D01*
X63900000Y-34600000D01*
X63900000Y-32100000D01*
D12*
X63650000Y-31600000D02*
G75*
G02*
X64150000Y-31100000I500001J-1D01*
G01*
X67650000Y-31100000D02*
G75*
G02*
X68150000Y-31600000I0J-500000D01*
G01*
D13*
%TO.C,C3*%
X79565580Y-51090000D02*
X79284420Y-51090000D01*
X79565580Y-52110000D02*
X79284420Y-52110000D01*
%TO.C,D4*%
X101275000Y-113850000D02*
X101275000Y-119350000D01*
X101275000Y-113850000D02*
X108275000Y-113850000D01*
X101275000Y-119350000D02*
X107825000Y-119350000D01*
X102075000Y-117500000D02*
X102075000Y-115700000D01*
X107475000Y-117500000D02*
X107475000Y-115700000D01*
X107825000Y-119350000D02*
X108275000Y-118900000D01*
X108275000Y-118900000D02*
X108275000Y-113850000D01*
%TO.C,D3*%
X54550981Y-71400000D02*
X54550981Y-76900000D01*
X54550981Y-71400000D02*
X61550981Y-71400000D01*
X54550981Y-76900000D02*
X61100981Y-76900000D01*
X55350981Y-75050000D02*
X55350981Y-73250000D01*
X60750981Y-75050000D02*
X60750981Y-73250000D01*
X61100981Y-76900000D02*
X61550981Y-76450000D01*
X61550981Y-76450000D02*
X61550981Y-71400000D01*
%TO.C,R1*%
X22502500Y-117587258D02*
X22502500Y-117112742D01*
X23547500Y-117587258D02*
X23547500Y-117112742D01*
D12*
%TO.C,D3*%
X63600000Y-9250000D02*
X68100000Y-9250000D01*
X63600000Y-13250000D02*
X63600000Y-9250000D01*
X64100000Y-13750000D02*
X63600000Y-13250000D01*
X68100000Y-9250000D02*
X68100000Y-13750000D01*
X68100000Y-13750000D02*
X64100000Y-13750000D01*
D13*
%TO.C,C3*%
X142740000Y-90084420D02*
X142740000Y-90365580D01*
X143760000Y-90084420D02*
X143760000Y-90365580D01*
D12*
%TO.C,ESKI1*%
X64050000Y-54150000D02*
X64050000Y-52400000D01*
X64550000Y-51900000D02*
X68050000Y-51900000D01*
X68550000Y-52400000D02*
X68550000Y-54150000D01*
D15*
X64300000Y-52900000D02*
X68300000Y-52900000D01*
X68300000Y-55400000D01*
X64300000Y-55400000D01*
X64300000Y-52900000D01*
D12*
X64050000Y-52400000D02*
G75*
G02*
X64550000Y-51900000I500001J-1D01*
G01*
X68050000Y-51900000D02*
G75*
G02*
X68550000Y-52400000I0J-500000D01*
G01*
D14*
%TO.C,J1*%
X155742300Y-36122000D02*
X155742300Y-36437195D01*
X155742300Y-39362805D02*
X155742300Y-39678000D01*
X155742300Y-39678000D02*
X158307700Y-39678000D01*
X158307700Y-36122000D02*
X155742300Y-36122000D01*
X158307700Y-36437195D02*
X158307700Y-36122000D01*
X158307700Y-39678000D02*
X158307700Y-39362805D01*
D12*
%TO.C,D2*%
X52150000Y-30200000D02*
X56650000Y-30200000D01*
X52150000Y-34200000D02*
X52150000Y-30200000D01*
X52650000Y-34700000D02*
X52150000Y-34200000D01*
X56650000Y-30200000D02*
X56650000Y-34700000D01*
X56650000Y-34700000D02*
X52650000Y-34700000D01*
D13*
%TO.C,D3*%
X76275000Y-113850000D02*
X76275000Y-119350000D01*
X76275000Y-113850000D02*
X83275000Y-113850000D01*
X76275000Y-119350000D02*
X82825000Y-119350000D01*
X77075000Y-117500000D02*
X77075000Y-115700000D01*
X82475000Y-117500000D02*
X82475000Y-115700000D01*
X82825000Y-119350000D02*
X83275000Y-118900000D01*
X83275000Y-118900000D02*
X83275000Y-113850000D01*
%TO.C,D5*%
X102684314Y-92700000D02*
X102684314Y-98200000D01*
X102684314Y-92700000D02*
X109684314Y-92700000D01*
X102684314Y-98200000D02*
X109234314Y-98200000D01*
X103484314Y-96350000D02*
X103484314Y-94550000D01*
X108884314Y-96350000D02*
X108884314Y-94550000D01*
X109234314Y-98200000D02*
X109684314Y-97750000D01*
X109684314Y-97750000D02*
X109684314Y-92700000D01*
%TO.C,D4*%
X71217647Y-71400000D02*
X71217647Y-76900000D01*
X71217647Y-71400000D02*
X78217647Y-71400000D01*
X71217647Y-76900000D02*
X77767647Y-76900000D01*
X72017647Y-75050000D02*
X72017647Y-73250000D01*
X77417647Y-75050000D02*
X77417647Y-73250000D01*
X77767647Y-76900000D02*
X78217647Y-76450000D01*
X78217647Y-76450000D02*
X78217647Y-71400000D01*
D14*
%TO.C,J20*%
X150085382Y-28989346D02*
X150085382Y-29304541D01*
X150085382Y-32230151D02*
X150085382Y-32545346D01*
X150085382Y-32545346D02*
X152650782Y-32545346D01*
X152650782Y-28989346D02*
X150085382Y-28989346D01*
X152650782Y-29304541D02*
X152650782Y-28989346D01*
X152650782Y-32545346D02*
X152650782Y-32230151D01*
D12*
%TO.C,D1*%
X23600000Y-9250000D02*
X28100000Y-9250000D01*
X23600000Y-13250000D02*
X23600000Y-9250000D01*
X24100000Y-13750000D02*
X23600000Y-13250000D01*
X28100000Y-9250000D02*
X28100000Y-13750000D01*
X28100000Y-13750000D02*
X24100000Y-13750000D01*
D13*
%TO.C,C3*%
X72334420Y-114840000D02*
X72615580Y-114840000D01*
X72334420Y-115860000D02*
X72615580Y-115860000D01*
%TO.C,C1*%
X153159420Y-113390000D02*
X153440580Y-113390000D01*
X153159420Y-114410000D02*
X153440580Y-114410000D01*
D14*
%TO.C,J19*%
X145668909Y-31652775D02*
X148146895Y-32316749D01*
X145750487Y-31348320D02*
X145668909Y-31652775D01*
X146589269Y-28217943D02*
X146507691Y-28522398D01*
X148146895Y-32316749D02*
X148228473Y-32012294D01*
X148985677Y-29186372D02*
X149067255Y-28881917D01*
X149067255Y-28881917D02*
X146589269Y-28217943D01*
D13*
%TO.C,C2*%
X101609420Y-8990000D02*
X101890580Y-8990000D01*
X101609420Y-10010000D02*
X101890580Y-10010000D01*
D14*
%TO.C,J26*%
X137047000Y-66547300D02*
X137047000Y-69112700D01*
X137047000Y-69112700D02*
X137362195Y-69112700D01*
X137362195Y-66547300D02*
X137047000Y-66547300D01*
X140287805Y-69112700D02*
X140603000Y-69112700D01*
X140603000Y-66547300D02*
X140287805Y-66547300D01*
X140603000Y-69112700D02*
X140603000Y-66547300D01*
D13*
%TO.C,C1*%
X35743734Y-72240000D02*
X36024894Y-72240000D01*
X35743734Y-73260000D02*
X36024894Y-73260000D01*
D12*
%TO.C,ESKI1*%
X64134314Y-74750000D02*
X64134314Y-73000000D01*
X64634314Y-72500000D02*
X68134314Y-72500000D01*
X68634314Y-73000000D02*
X68634314Y-74750000D01*
D15*
X64384314Y-73500000D02*
X68384314Y-73500000D01*
X68384314Y-76000000D01*
X64384314Y-76000000D01*
X64384314Y-73500000D01*
D12*
X64134314Y-73000000D02*
G75*
G02*
X64634314Y-72500000I500001J-1D01*
G01*
X68134314Y-72500000D02*
G75*
G02*
X68634314Y-73000000I0J-500000D01*
G01*
D13*
%TO.C,C2*%
X100259420Y-29940000D02*
X100540580Y-29940000D01*
X100259420Y-30960000D02*
X100540580Y-30960000D01*
D14*
%TO.C,J12*%
X149742300Y-46122000D02*
X149742300Y-46437195D01*
X149742300Y-49362805D02*
X149742300Y-49678000D01*
X149742300Y-49678000D02*
X152307700Y-49678000D01*
X152307700Y-46122000D02*
X149742300Y-46122000D01*
X152307700Y-46437195D02*
X152307700Y-46122000D01*
X152307700Y-49678000D02*
X152307700Y-49362805D01*
%TO.C,J18*%
X157247000Y-64617300D02*
X157247000Y-67182700D01*
X157247000Y-67182700D02*
X157562195Y-67182700D01*
X157562195Y-64617300D02*
X157247000Y-64617300D01*
X160487805Y-67182700D02*
X160803000Y-67182700D01*
X160803000Y-64617300D02*
X160487805Y-64617300D01*
X160803000Y-67182700D02*
X160803000Y-64617300D01*
D12*
%TO.C,D4*%
X102150000Y-30200000D02*
X106650000Y-30200000D01*
X102150000Y-34200000D02*
X102150000Y-30200000D01*
X102650000Y-34700000D02*
X102150000Y-34200000D01*
X106650000Y-30200000D02*
X106650000Y-34700000D01*
X106650000Y-34700000D02*
X102650000Y-34700000D01*
D14*
%TO.C,J2*%
X112512714Y-71927500D02*
X115255914Y-71927500D01*
X115255914Y-76372500D02*
X112512714Y-76372500D01*
D13*
%TO.C,D1*%
X21217647Y-71400000D02*
X21217647Y-76900000D01*
X21217647Y-71400000D02*
X28217647Y-71400000D01*
X21217647Y-76900000D02*
X27767647Y-76900000D01*
X22017647Y-75050000D02*
X22017647Y-73250000D01*
X27417647Y-75050000D02*
X27417647Y-73250000D01*
X27767647Y-76900000D02*
X28217647Y-76450000D01*
X28217647Y-76450000D02*
X28217647Y-71400000D01*
%TO.C,D2*%
X41434314Y-92700000D02*
X41434314Y-98200000D01*
X41434314Y-92700000D02*
X48434314Y-92700000D01*
X41434314Y-98200000D02*
X47984314Y-98200000D01*
X42234314Y-96350000D02*
X42234314Y-94550000D01*
X47634314Y-96350000D02*
X47634314Y-94550000D01*
X47984314Y-98200000D02*
X48434314Y-97750000D01*
X48434314Y-97750000D02*
X48434314Y-92700000D01*
D14*
%TO.C,J5*%
X159742300Y-36122000D02*
X159742300Y-36437195D01*
X159742300Y-39362805D02*
X159742300Y-39678000D01*
X159742300Y-39678000D02*
X162307700Y-39678000D01*
X162307700Y-36122000D02*
X159742300Y-36122000D01*
X162307700Y-36437195D02*
X162307700Y-36122000D01*
X162307700Y-39678000D02*
X162307700Y-39362805D01*
%TO.C,J6*%
X159742300Y-46122000D02*
X159742300Y-46437195D01*
X159742300Y-49362805D02*
X159742300Y-49678000D01*
X159742300Y-49678000D02*
X162307700Y-49678000D01*
X162307700Y-46122000D02*
X159742300Y-46122000D01*
X162307700Y-46437195D02*
X162307700Y-46122000D01*
X162307700Y-49678000D02*
X162307700Y-49362805D01*
D13*
%TO.C,C4*%
X96943734Y-72240000D02*
X97224894Y-72240000D01*
X96943734Y-73260000D02*
X97224894Y-73260000D01*
%TO.C,C1*%
X49109420Y-114740000D02*
X49390580Y-114740000D01*
X49109420Y-115760000D02*
X49390580Y-115760000D01*
%TO.C,C3*%
X144990000Y-100584420D02*
X144990000Y-100865580D01*
X146010000Y-100584420D02*
X146010000Y-100865580D01*
X133240000Y-100584420D02*
X133240000Y-100865580D01*
X134260000Y-100584420D02*
X134260000Y-100865580D01*
D14*
%TO.C,J34*%
X137247000Y-46817299D02*
X137247000Y-49382699D01*
X137247000Y-49382699D02*
X137562195Y-49382699D01*
X137562195Y-46817299D02*
X137247000Y-46817299D01*
X140487805Y-49382699D02*
X140803000Y-49382699D01*
X140803000Y-46817299D02*
X140487805Y-46817299D01*
X140803000Y-49382699D02*
X140803000Y-46817299D01*
D13*
%TO.C,D2*%
X51275000Y-113850000D02*
X51275000Y-119350000D01*
X51275000Y-113850000D02*
X58275000Y-113850000D01*
X51275000Y-119350000D02*
X57825000Y-119350000D01*
X52075000Y-117500000D02*
X52075000Y-115700000D01*
X57475000Y-117500000D02*
X57475000Y-115700000D01*
X57825000Y-119350000D02*
X58275000Y-118900000D01*
X58275000Y-118900000D02*
X58275000Y-113850000D01*
%TO.C,R1*%
X30321572Y-72227500D02*
X29847056Y-72227500D01*
X30321572Y-73272500D02*
X29847056Y-73272500D01*
D12*
%TO.C,D3*%
X77150000Y-30200000D02*
X81650000Y-30200000D01*
X77150000Y-34200000D02*
X77150000Y-30200000D01*
X77650000Y-34700000D02*
X77150000Y-34200000D01*
X81650000Y-30200000D02*
X81650000Y-34700000D01*
X81650000Y-34700000D02*
X77650000Y-34700000D01*
D14*
%TO.C,J4*%
X155742300Y-29122000D02*
X155742300Y-29437195D01*
X155742300Y-32362805D02*
X155742300Y-32678000D01*
X155742300Y-32678000D02*
X158307700Y-32678000D01*
X158307700Y-29122000D02*
X155742300Y-29122000D01*
X158307700Y-29437195D02*
X158307700Y-29122000D01*
X158307700Y-32678000D02*
X158307700Y-32362805D01*
D13*
%TO.C,C3*%
X146740000Y-100584420D02*
X146740000Y-100865580D01*
X147760000Y-100584420D02*
X147760000Y-100865580D01*
X143240000Y-100584420D02*
X143240000Y-100865580D01*
X144260000Y-100584420D02*
X144260000Y-100865580D01*
D14*
%TO.C,J33*%
X139742300Y-42321999D02*
X139742300Y-42637194D01*
X139742300Y-45562804D02*
X139742300Y-45877999D01*
X139742300Y-45877999D02*
X142307700Y-45877999D01*
X142307700Y-42321999D02*
X139742300Y-42321999D01*
X142307700Y-42637194D02*
X142307700Y-42321999D01*
X142307700Y-45877999D02*
X142307700Y-45562804D01*
%TO.C,J9*%
X149742300Y-36122000D02*
X149742300Y-36437195D01*
X149742300Y-39362805D02*
X149742300Y-39678000D01*
X149742300Y-39678000D02*
X152307700Y-39678000D01*
X152307700Y-36122000D02*
X149742300Y-36122000D01*
X152307700Y-36437195D02*
X152307700Y-36122000D01*
X152307700Y-39678000D02*
X152307700Y-39362805D01*
D13*
%TO.C,C1*%
X38743734Y-93640000D02*
X39024894Y-93640000D01*
X38743734Y-94660000D02*
X39024894Y-94660000D01*
D14*
%TO.C,J7*%
X157247000Y-50617300D02*
X157247000Y-53182700D01*
X157247000Y-53182700D02*
X157562195Y-53182700D01*
X157562195Y-50617300D02*
X157247000Y-50617300D01*
X160487805Y-53182700D02*
X160803000Y-53182700D01*
X160803000Y-50617300D02*
X160487805Y-50617300D01*
X160803000Y-53182700D02*
X160803000Y-50617300D01*
D13*
%TO.C,C1*%
X38984420Y-9490000D02*
X39265580Y-9490000D01*
X38984420Y-10510000D02*
X39265580Y-10510000D01*
X49984420Y-29940000D02*
X50265580Y-29940000D01*
X49984420Y-30960000D02*
X50265580Y-30960000D01*
D12*
%TO.C,D5*%
X89050000Y-51250000D02*
X93550000Y-51250000D01*
X89050000Y-55250000D02*
X89050000Y-51250000D01*
X89550000Y-55750000D02*
X89050000Y-55250000D01*
X93550000Y-51250000D02*
X93550000Y-55750000D01*
X93550000Y-55750000D02*
X89550000Y-55750000D01*
D13*
%TO.C,D1*%
X22684314Y-92700000D02*
X22684314Y-98200000D01*
X22684314Y-92700000D02*
X29684314Y-92700000D01*
X22684314Y-98200000D02*
X29234314Y-98200000D01*
X23484314Y-96350000D02*
X23484314Y-94550000D01*
X28884314Y-96350000D02*
X28884314Y-94550000D01*
X29234314Y-98200000D02*
X29684314Y-97750000D01*
X29684314Y-97750000D02*
X29684314Y-92700000D01*
%TO.C,R1*%
X20977500Y-54262742D02*
X20977500Y-54737258D01*
X22022500Y-54262742D02*
X22022500Y-54737258D01*
%TO.C,C3*%
X134740000Y-90309420D02*
X134740000Y-90590580D01*
X135760000Y-90309420D02*
X135760000Y-90590580D01*
D14*
%TO.C,J25*%
X137047000Y-61547300D02*
X137047000Y-64112700D01*
X137047000Y-64112700D02*
X137362195Y-64112700D01*
X137362195Y-61547300D02*
X137047000Y-61547300D01*
X140287805Y-64112700D02*
X140603000Y-64112700D01*
X140603000Y-61547300D02*
X140287805Y-61547300D01*
X140603000Y-64112700D02*
X140603000Y-61547300D01*
%TO.C,J3*%
X159742300Y-29122000D02*
X159742300Y-29437195D01*
X159742300Y-32362805D02*
X159742300Y-32678000D01*
X159742300Y-32678000D02*
X162307700Y-32678000D01*
X162307700Y-29122000D02*
X159742300Y-29122000D01*
X162307700Y-29437195D02*
X162307700Y-29122000D01*
X162307700Y-32678000D02*
X162307700Y-32362805D01*
%TO.C,J2*%
X112428400Y-51277500D02*
X115171600Y-51277500D01*
X115171600Y-55722500D02*
X112428400Y-55722500D01*
%TO.C,J1*%
X17428400Y-51277500D02*
X20171600Y-51277500D01*
X20171600Y-55722500D02*
X17428400Y-55722500D01*
%TO.C,J31*%
X137417000Y-36787299D02*
X137417000Y-39352699D01*
X137417000Y-39352699D02*
X137732195Y-39352699D01*
X137732195Y-36787299D02*
X137417000Y-36787299D01*
X140657805Y-39352699D02*
X140973000Y-39352699D01*
X140973000Y-36787299D02*
X140657805Y-36787299D01*
X140973000Y-39352699D02*
X140973000Y-36787299D01*
%TO.C,J27*%
X145527300Y-56202201D02*
X145527300Y-56517396D01*
X145527300Y-59443006D02*
X145527300Y-59758201D01*
X145527300Y-59758201D02*
X148092700Y-59758201D01*
X148092700Y-56202201D02*
X145527300Y-56202201D01*
X148092700Y-56517396D02*
X148092700Y-56202201D01*
X148092700Y-59758201D02*
X148092700Y-59443006D01*
%TO.C,J35*%
X135742300Y-42321999D02*
X135742300Y-42637194D01*
X135742300Y-45562804D02*
X135742300Y-45877999D01*
X135742300Y-45877999D02*
X138307700Y-45877999D01*
X138307700Y-42321999D02*
X135742300Y-42321999D01*
X138307700Y-42637194D02*
X138307700Y-42321999D01*
X138307700Y-45877999D02*
X138307700Y-45562804D01*
%TO.C,J11*%
X147247000Y-40617300D02*
X147247000Y-43182700D01*
X147247000Y-43182700D02*
X147562195Y-43182700D01*
X147562195Y-40617300D02*
X147247000Y-40617300D01*
X150487805Y-43182700D02*
X150803000Y-43182700D01*
X150803000Y-40617300D02*
X150487805Y-40617300D01*
X150803000Y-43182700D02*
X150803000Y-40617300D01*
D12*
%TO.C,D6*%
X105716667Y-51250000D02*
X110216667Y-51250000D01*
X105716667Y-55250000D02*
X105716667Y-51250000D01*
X106216667Y-55750000D02*
X105716667Y-55250000D01*
X110216667Y-51250000D02*
X110216667Y-55750000D01*
X110216667Y-55750000D02*
X106216667Y-55750000D01*
%TO.C,D2*%
X39050000Y-51250000D02*
X43550000Y-51250000D01*
X39050000Y-55250000D02*
X39050000Y-51250000D01*
X39550000Y-55750000D02*
X39050000Y-55250000D01*
X43550000Y-51250000D02*
X43550000Y-55750000D01*
X43550000Y-55750000D02*
X39550000Y-55750000D01*
D13*
%TO.C,R1*%
X21061814Y-95837742D02*
X21061814Y-96312258D01*
X22106814Y-95837742D02*
X22106814Y-96312258D01*
%TO.C,C4*%
X37215580Y-50990000D02*
X36934420Y-50990000D01*
X37215580Y-52010000D02*
X36934420Y-52010000D01*
D14*
%TO.C,J1*%
X17512714Y-71927500D02*
X20255914Y-71927500D01*
X20255914Y-76372500D02*
X17512714Y-76372500D01*
D13*
%TO.C,C3*%
X80099894Y-72140000D02*
X79818734Y-72140000D01*
X80099894Y-73160000D02*
X79818734Y-73160000D01*
%TD*%
%LPC*%
D16*
%TO.C,D5*%
X88934314Y-72500000D03*
X88934314Y-75800000D03*
X93834314Y-75800000D03*
X93834314Y-72500000D03*
%TD*%
D17*
%TO.C,D3*%
X139700000Y-114900000D03*
D18*
X140950000Y-116200000D03*
D17*
X139700000Y-117500000D03*
D18*
X138450000Y-116200000D03*
%TD*%
D19*
%TO.C,C2*%
X51984314Y-72850000D03*
X53534314Y-72850000D03*
%TD*%
%TO.C,C1*%
X53100000Y-51300000D03*
X54650000Y-51300000D03*
%TD*%
D17*
%TO.C,D3*%
X57966667Y-52200000D03*
D18*
X59216667Y-53500000D03*
D17*
X57966667Y-54800000D03*
D18*
X56716667Y-53500000D03*
%TD*%
D17*
%TO.C,D4*%
X74633333Y-52200000D03*
D18*
X75883333Y-53500000D03*
D17*
X74633333Y-54800000D03*
D18*
X73383333Y-53500000D03*
%TD*%
D20*
%TO.C,J24*%
X139425000Y-54516601D03*
X139425000Y-52376601D03*
X139025000Y-54516601D03*
X139025000Y-52376601D03*
D21*
X140025001Y-54516601D03*
X140025001Y-52376601D03*
X138424999Y-54516601D03*
X138424999Y-52376601D03*
%TD*%
D22*
%TO.C,J29*%
X142195000Y-33869999D03*
X140055000Y-33869999D03*
X142195000Y-34269999D03*
X140055000Y-34269999D03*
D23*
X142195000Y-33269998D03*
X140055000Y-33269998D03*
X142195000Y-34870000D03*
X140055000Y-34870000D03*
%TD*%
D22*
%TO.C,J8*%
X158095000Y-47700000D03*
X155955000Y-47700000D03*
X158095000Y-48100000D03*
X155955000Y-48100000D03*
D23*
X158095000Y-47099999D03*
X155955000Y-47099999D03*
X158095000Y-48700001D03*
X155955000Y-48700001D03*
%TD*%
D22*
%TO.C,J30*%
X138195000Y-33869999D03*
X136055000Y-33869999D03*
X138195000Y-34269999D03*
X136055000Y-34269999D03*
D23*
X138195000Y-33269998D03*
X136055000Y-33269998D03*
X138195000Y-34870000D03*
X136055000Y-34870000D03*
%TD*%
D24*
%TO.C,J2*%
X112575000Y-115800000D03*
D25*
X112575000Y-116396800D03*
X112575000Y-116803200D03*
D24*
X112575000Y-117400000D03*
X114975000Y-115800000D03*
D25*
X114975000Y-116396800D03*
X114975000Y-116803200D03*
D24*
X114975000Y-117400000D03*
D26*
X112498800Y-115069997D03*
X112498800Y-118130003D03*
X115051200Y-115069997D03*
X115051200Y-118130003D03*
%TD*%
D22*
%TO.C,J13*%
X148095000Y-47700000D03*
X145955000Y-47700000D03*
X148095000Y-48100000D03*
X145955000Y-48100000D03*
D23*
X148095000Y-47099999D03*
X145955000Y-47099999D03*
X148095000Y-48700001D03*
X145955000Y-48700001D03*
%TD*%
D16*
%TO.C,D1*%
X27325000Y-114950000D03*
X27325000Y-118250000D03*
X32225000Y-118250000D03*
X32225000Y-114950000D03*
%TD*%
D17*
%TO.C,D3*%
X157391667Y-114800000D03*
D18*
X158641667Y-116100000D03*
D17*
X157391667Y-117400000D03*
D18*
X156141667Y-116100000D03*
%TD*%
D22*
%TO.C,J28*%
X151380000Y-57780201D03*
X149240000Y-57780201D03*
X151380000Y-58180201D03*
X149240000Y-58180201D03*
D23*
X151380000Y-57180200D03*
X149240000Y-57180200D03*
X151380000Y-58780202D03*
X149240000Y-58780202D03*
%TD*%
D27*
%TO.C,C3*%
X155500000Y-89700000D03*
X155500000Y-91250000D03*
%TD*%
D28*
%TO.C,C3*%
X74900000Y-30450000D03*
X73350000Y-30450000D03*
%TD*%
D19*
%TO.C,C2*%
X97700000Y-115300000D03*
X99250000Y-115300000D03*
%TD*%
D27*
%TO.C,C3*%
X149000000Y-99950000D03*
X149000000Y-101500000D03*
%TD*%
D20*
%TO.C,J17*%
X158755000Y-56830000D03*
X158755000Y-58970000D03*
X159155000Y-56830000D03*
X159155000Y-58970000D03*
D21*
X158154999Y-56830000D03*
X158154999Y-58970000D03*
X159755001Y-56830000D03*
X159755001Y-58970000D03*
%TD*%
D22*
%TO.C,J15*%
X162025000Y-61700000D03*
X159885000Y-61700000D03*
X162025000Y-62100000D03*
X159885000Y-62100000D03*
D23*
X162025000Y-61099999D03*
X159885000Y-61099999D03*
X162025000Y-62700001D03*
X159885000Y-62700001D03*
%TD*%
D29*
%TO.C,J22*%
X146924998Y-64119615D03*
X145071704Y-63049615D03*
X146724998Y-64466025D03*
X144871704Y-63396025D03*
D30*
X147224999Y-63599999D03*
X145371704Y-62529999D03*
X146424998Y-64985641D03*
X144571703Y-63915641D03*
%TD*%
D24*
%TO.C,J2*%
X112200000Y-31650000D03*
D25*
X112200000Y-32246800D03*
X112200000Y-32653200D03*
D24*
X112200000Y-33250000D03*
X114600000Y-31650000D03*
D25*
X114600000Y-32246800D03*
X114600000Y-32653200D03*
D24*
X114600000Y-33250000D03*
D26*
X112123800Y-30919997D03*
X112123800Y-33980003D03*
X114676200Y-30919997D03*
X114676200Y-33980003D03*
%TD*%
D17*
%TO.C,D2*%
X44600000Y-10200000D03*
D18*
X45850000Y-11500000D03*
D17*
X44600000Y-12800000D03*
D18*
X43350000Y-11500000D03*
%TD*%
D24*
%TO.C,J1*%
X17484314Y-94650000D03*
D25*
X17484314Y-95246800D03*
X17484314Y-95653200D03*
D24*
X17484314Y-96250000D03*
X19884314Y-94650000D03*
D25*
X19884314Y-95246800D03*
X19884314Y-95653200D03*
D24*
X19884314Y-96250000D03*
D26*
X17408114Y-93919997D03*
X17408114Y-96980003D03*
X19960514Y-93919997D03*
X19960514Y-96980003D03*
%TD*%
D24*
%TO.C,J1*%
X17200000Y-31650000D03*
D25*
X17200000Y-32246800D03*
X17200000Y-32653200D03*
D24*
X17200000Y-33250000D03*
X19600000Y-31650000D03*
D25*
X19600000Y-32246800D03*
X19600000Y-32653200D03*
D24*
X19600000Y-33250000D03*
D26*
X17123800Y-30919997D03*
X17123800Y-33980003D03*
X19676200Y-30919997D03*
X19676200Y-33980003D03*
%TD*%
D22*
%TO.C,J10*%
X148095000Y-37700000D03*
X145955000Y-37700000D03*
X148095000Y-38100000D03*
X145955000Y-38100000D03*
D23*
X148095000Y-37099999D03*
X145955000Y-37099999D03*
X148095000Y-38700001D03*
X145955000Y-38700001D03*
%TD*%
D17*
%TO.C,D1*%
X29400000Y-31150000D03*
D18*
X30650000Y-32450000D03*
D17*
X29400000Y-33750000D03*
D18*
X28150000Y-32450000D03*
%TD*%
D22*
%TO.C,J21*%
X151794999Y-64899999D03*
X149654999Y-64899999D03*
X151794999Y-65299999D03*
X149654999Y-65299999D03*
D23*
X151794999Y-64299998D03*
X149654999Y-64299998D03*
X151794999Y-65900000D03*
X149654999Y-65900000D03*
%TD*%
D27*
%TO.C,C3*%
X137250000Y-99950000D03*
X137250000Y-101500000D03*
%TD*%
D16*
%TO.C,D3*%
X63734314Y-93800000D03*
X63734314Y-97100000D03*
X68634314Y-97100000D03*
X68634314Y-93800000D03*
%TD*%
D24*
%TO.C,J2*%
X112484314Y-94650000D03*
D25*
X112484314Y-95246800D03*
X112484314Y-95653200D03*
D24*
X112484314Y-96250000D03*
X114884314Y-94650000D03*
D25*
X114884314Y-95246800D03*
X114884314Y-95653200D03*
D24*
X114884314Y-96250000D03*
D26*
X112408114Y-93919997D03*
X112408114Y-96980003D03*
X114960514Y-93919997D03*
X114960514Y-96980003D03*
%TD*%
D20*
%TO.C,J14*%
X148825000Y-50830000D03*
X148825000Y-52970000D03*
X149225000Y-50830000D03*
X149225000Y-52970000D03*
D21*
X148224999Y-50830000D03*
X148224999Y-52970000D03*
X149825001Y-50830000D03*
X149825001Y-52970000D03*
%TD*%
D31*
%TO.C,R1*%
X22650000Y-34025000D03*
X22650000Y-32375000D03*
%TD*%
D24*
%TO.C,J2*%
X112150000Y-10700000D03*
D25*
X112150000Y-11296800D03*
X112150000Y-11703200D03*
D24*
X112150000Y-12300000D03*
X114550000Y-10700000D03*
D25*
X114550000Y-11296800D03*
X114550000Y-11703200D03*
D24*
X114550000Y-12300000D03*
D26*
X112073800Y-9969997D03*
X112073800Y-13030003D03*
X114626200Y-9969997D03*
X114626200Y-13030003D03*
%TD*%
D16*
%TO.C,D4*%
X83734314Y-93800000D03*
X83734314Y-97100000D03*
X88634314Y-97100000D03*
X88634314Y-93800000D03*
%TD*%
D27*
%TO.C,C3*%
X158000000Y-100175000D03*
X158000000Y-101725000D03*
%TD*%
%TO.C,C3*%
X156000000Y-100175000D03*
X156000000Y-101725000D03*
%TD*%
%TO.C,C3*%
X157500000Y-89700000D03*
X157500000Y-91250000D03*
%TD*%
D16*
%TO.C,D6*%
X105600981Y-72500000D03*
X105600981Y-75800000D03*
X110500981Y-75800000D03*
X110500981Y-72500000D03*
%TD*%
D24*
%TO.C,J1*%
X17575000Y-115800000D03*
D25*
X17575000Y-116396800D03*
X17575000Y-116803200D03*
D24*
X17575000Y-117400000D03*
X19975000Y-115800000D03*
D25*
X19975000Y-116396800D03*
X19975000Y-116803200D03*
D24*
X19975000Y-117400000D03*
D26*
X17498800Y-115069997D03*
X17498800Y-118130003D03*
X20051200Y-115069997D03*
X20051200Y-118130003D03*
%TD*%
D17*
%TO.C,D5*%
X105850000Y-10200000D03*
D18*
X107100000Y-11500000D03*
D17*
X105850000Y-12800000D03*
D18*
X104600000Y-11500000D03*
%TD*%
D24*
%TO.C,J1*%
X17150000Y-10700000D03*
D25*
X17150000Y-11296800D03*
X17150000Y-11703200D03*
D24*
X17150000Y-12300000D03*
X19550000Y-10700000D03*
D25*
X19550000Y-11296800D03*
X19550000Y-11703200D03*
D24*
X19550000Y-12300000D03*
D26*
X17073800Y-9969997D03*
X17073800Y-13030003D03*
X19626200Y-9969997D03*
X19626200Y-13030003D03*
%TD*%
D20*
%TO.C,J2*%
X158825000Y-40830000D03*
X158825000Y-42970000D03*
X159225000Y-40830000D03*
X159225000Y-42970000D03*
D21*
X158224999Y-40830000D03*
X158224999Y-42970000D03*
X159825001Y-40830000D03*
X159825001Y-42970000D03*
%TD*%
D19*
%TO.C,C2*%
X99809314Y-94150000D03*
X101359314Y-94150000D03*
%TD*%
D17*
%TO.C,D1*%
X24633333Y-52200000D03*
D18*
X25883333Y-53500000D03*
D17*
X24633333Y-54800000D03*
D18*
X23383333Y-53500000D03*
%TD*%
D28*
%TO.C,C3*%
X72875000Y-9500000D03*
X71325000Y-9500000D03*
%TD*%
D22*
%TO.C,J16*%
X158025000Y-61700000D03*
X155885000Y-61700000D03*
X158025000Y-62100000D03*
X155885000Y-62100000D03*
D23*
X158025000Y-61099999D03*
X155885000Y-61099999D03*
X158025000Y-62700001D03*
X155885000Y-62700001D03*
%TD*%
D20*
%TO.C,J23*%
X139425000Y-59016601D03*
X139425000Y-56876601D03*
X139025000Y-59016601D03*
X139025000Y-56876601D03*
D21*
X140025001Y-59016601D03*
X140025001Y-56876601D03*
X138424999Y-59016601D03*
X138424999Y-56876601D03*
%TD*%
D16*
%TO.C,D2*%
X38934314Y-72500000D03*
X38934314Y-75800000D03*
X43834314Y-75800000D03*
X43834314Y-72500000D03*
%TD*%
D27*
%TO.C,C3*%
X135500000Y-99950000D03*
X135500000Y-101500000D03*
%TD*%
D28*
%TO.C,C3*%
X72659314Y-94050000D03*
X71109314Y-94050000D03*
%TD*%
%TO.C,C2*%
X96575000Y-51400000D03*
X95025000Y-51400000D03*
%TD*%
D31*
%TO.C,R1*%
X22600000Y-13075000D03*
X22600000Y-11425000D03*
%TD*%
D17*
%TO.C,D4*%
X85850000Y-10200000D03*
D18*
X87100000Y-11500000D03*
D17*
X85850000Y-12800000D03*
D18*
X84600000Y-11500000D03*
%TD*%
D27*
%TO.C,C3*%
X160000000Y-100175000D03*
X160000000Y-101725000D03*
%TD*%
D20*
%TO.C,J32*%
X139395000Y-31139999D03*
X139395000Y-28999999D03*
X138995000Y-31139999D03*
X138995000Y-28999999D03*
D21*
X139995001Y-31139999D03*
X139995001Y-28999999D03*
X138394999Y-31139999D03*
X138394999Y-28999999D03*
%TD*%
D27*
%TO.C,C3*%
X137000000Y-89675000D03*
X137000000Y-91225000D03*
%TD*%
D28*
%TO.C,C3*%
X80200000Y-51600000D03*
X78650000Y-51600000D03*
%TD*%
D16*
%TO.C,D4*%
X102325000Y-114950000D03*
X102325000Y-118250000D03*
X107225000Y-118250000D03*
X107225000Y-114950000D03*
%TD*%
%TO.C,D3*%
X55600981Y-72500000D03*
X55600981Y-75800000D03*
X60500981Y-75800000D03*
X60500981Y-72500000D03*
%TD*%
D31*
%TO.C,R1*%
X23025000Y-118175000D03*
X23025000Y-116525000D03*
%TD*%
D17*
%TO.C,D3*%
X65850000Y-10200000D03*
D18*
X67100000Y-11500000D03*
D17*
X65850000Y-12800000D03*
D18*
X64600000Y-11500000D03*
%TD*%
D27*
%TO.C,C3*%
X143250000Y-89450000D03*
X143250000Y-91000000D03*
%TD*%
D22*
%TO.C,J1*%
X158095000Y-37700000D03*
X155955000Y-37700000D03*
X158095000Y-38100000D03*
X155955000Y-38100000D03*
D23*
X158095000Y-37099999D03*
X155955000Y-37099999D03*
X158095000Y-38700001D03*
X155955000Y-38700001D03*
%TD*%
D17*
%TO.C,D2*%
X54400000Y-31150000D03*
D18*
X55650000Y-32450000D03*
D17*
X54400000Y-33750000D03*
D18*
X53150000Y-32450000D03*
%TD*%
D16*
%TO.C,D3*%
X77325000Y-114950000D03*
X77325000Y-118250000D03*
X82225000Y-118250000D03*
X82225000Y-114950000D03*
%TD*%
%TO.C,D5*%
X103734314Y-93800000D03*
X103734314Y-97100000D03*
X108634314Y-97100000D03*
X108634314Y-93800000D03*
%TD*%
%TO.C,D4*%
X72267647Y-72500000D03*
X72267647Y-75800000D03*
X77167647Y-75800000D03*
X77167647Y-72500000D03*
%TD*%
D22*
%TO.C,J20*%
X152438082Y-30567346D03*
X150298082Y-30567346D03*
X152438082Y-30967346D03*
X150298082Y-30967346D03*
D23*
X152438082Y-29967345D03*
X150298082Y-29967345D03*
X152438082Y-31567347D03*
X150298082Y-31567347D03*
%TD*%
D17*
%TO.C,D1*%
X25850000Y-10200000D03*
D18*
X27100000Y-11500000D03*
D17*
X25850000Y-12800000D03*
D18*
X24600000Y-11500000D03*
%TD*%
D19*
%TO.C,C3*%
X71700000Y-115350000D03*
X73250000Y-115350000D03*
%TD*%
%TO.C,C1*%
X152525000Y-113900000D03*
X154075000Y-113900000D03*
%TD*%
D32*
%TO.C,J19*%
X148453386Y-30351097D03*
X146386305Y-29797224D03*
X148349859Y-30737468D03*
X146282778Y-30183595D03*
D33*
X148608678Y-29771541D03*
X146541597Y-29217668D03*
X148194567Y-31317024D03*
X146127486Y-30763151D03*
%TD*%
D19*
%TO.C,C2*%
X100975000Y-9500000D03*
X102525000Y-9500000D03*
%TD*%
D20*
%TO.C,J26*%
X139025000Y-68900000D03*
X139025000Y-66760000D03*
X138625000Y-68900000D03*
X138625000Y-66760000D03*
D21*
X139625001Y-68900000D03*
X139625001Y-66760000D03*
X138024999Y-68900000D03*
X138024999Y-66760000D03*
%TD*%
D19*
%TO.C,C1*%
X35109314Y-72750000D03*
X36659314Y-72750000D03*
%TD*%
%TO.C,C2*%
X99625000Y-30450000D03*
X101175000Y-30450000D03*
%TD*%
D22*
%TO.C,J12*%
X152095000Y-47700000D03*
X149955000Y-47700000D03*
X152095000Y-48100000D03*
X149955000Y-48100000D03*
D23*
X152095000Y-47099999D03*
X149955000Y-47099999D03*
X152095000Y-48700001D03*
X149955000Y-48700001D03*
%TD*%
D20*
%TO.C,J18*%
X158825000Y-64830000D03*
X158825000Y-66970000D03*
X159225000Y-64830000D03*
X159225000Y-66970000D03*
D21*
X158224999Y-64830000D03*
X158224999Y-66970000D03*
X159825001Y-64830000D03*
X159825001Y-66970000D03*
%TD*%
D17*
%TO.C,D4*%
X104400000Y-31150000D03*
D18*
X105650000Y-32450000D03*
D17*
X104400000Y-33750000D03*
D18*
X103150000Y-32450000D03*
%TD*%
D24*
%TO.C,J2*%
X112684314Y-73350000D03*
D25*
X112684314Y-73946800D03*
X112684314Y-74353200D03*
D24*
X112684314Y-74950000D03*
X115084314Y-73350000D03*
D25*
X115084314Y-73946800D03*
X115084314Y-74353200D03*
D24*
X115084314Y-74950000D03*
D26*
X112608114Y-72619997D03*
X112608114Y-75680003D03*
X115160514Y-72619997D03*
X115160514Y-75680003D03*
%TD*%
D16*
%TO.C,D1*%
X22267647Y-72500000D03*
X22267647Y-75800000D03*
X27167647Y-75800000D03*
X27167647Y-72500000D03*
%TD*%
%TO.C,D2*%
X42484314Y-93800000D03*
X42484314Y-97100000D03*
X47384314Y-97100000D03*
X47384314Y-93800000D03*
%TD*%
D22*
%TO.C,J5*%
X162095000Y-37700000D03*
X159955000Y-37700000D03*
X162095000Y-38100000D03*
X159955000Y-38100000D03*
D23*
X162095000Y-37099999D03*
X159955000Y-37099999D03*
X162095000Y-38700001D03*
X159955000Y-38700001D03*
%TD*%
D22*
%TO.C,J6*%
X162095000Y-47700000D03*
X159955000Y-47700000D03*
X162095000Y-48100000D03*
X159955000Y-48100000D03*
D23*
X162095000Y-47099999D03*
X159955000Y-47099999D03*
X162095000Y-48700001D03*
X159955000Y-48700001D03*
%TD*%
D19*
%TO.C,C4*%
X96309314Y-72750000D03*
X97859314Y-72750000D03*
%TD*%
%TO.C,C1*%
X48475000Y-115250000D03*
X50025000Y-115250000D03*
%TD*%
D27*
%TO.C,C3*%
X145500000Y-99950000D03*
X145500000Y-101500000D03*
%TD*%
%TO.C,C3*%
X133750000Y-99950000D03*
X133750000Y-101500000D03*
%TD*%
D20*
%TO.C,J34*%
X138825000Y-47029999D03*
X138825000Y-49169999D03*
X139225000Y-47029999D03*
X139225000Y-49169999D03*
D21*
X138224999Y-47029999D03*
X138224999Y-49169999D03*
X139825001Y-47029999D03*
X139825001Y-49169999D03*
%TD*%
D16*
%TO.C,D2*%
X52325000Y-114950000D03*
X52325000Y-118250000D03*
X57225000Y-118250000D03*
X57225000Y-114950000D03*
%TD*%
D34*
%TO.C,R1*%
X30909314Y-72750000D03*
X29259314Y-72750000D03*
%TD*%
D17*
%TO.C,D3*%
X79400000Y-31150000D03*
D18*
X80650000Y-32450000D03*
D17*
X79400000Y-33750000D03*
D18*
X78150000Y-32450000D03*
%TD*%
D22*
%TO.C,J4*%
X158095000Y-30700000D03*
X155955000Y-30700000D03*
X158095000Y-31100000D03*
X155955000Y-31100000D03*
D23*
X158095000Y-30099999D03*
X155955000Y-30099999D03*
X158095000Y-31700001D03*
X155955000Y-31700001D03*
%TD*%
D27*
%TO.C,C3*%
X147250000Y-99950000D03*
X147250000Y-101500000D03*
%TD*%
%TO.C,C3*%
X143750000Y-99950000D03*
X143750000Y-101500000D03*
%TD*%
D22*
%TO.C,J33*%
X142095000Y-43899999D03*
X139955000Y-43899999D03*
X142095000Y-44299999D03*
X139955000Y-44299999D03*
D23*
X142095000Y-43299998D03*
X139955000Y-43299998D03*
X142095000Y-44900000D03*
X139955000Y-44900000D03*
%TD*%
D22*
%TO.C,J9*%
X152095000Y-37700000D03*
X149955000Y-37700000D03*
X152095000Y-38100000D03*
X149955000Y-38100000D03*
D23*
X152095000Y-37099999D03*
X149955000Y-37099999D03*
X152095000Y-38700001D03*
X149955000Y-38700001D03*
%TD*%
D19*
%TO.C,C1*%
X38109314Y-94150000D03*
X39659314Y-94150000D03*
%TD*%
D20*
%TO.C,J7*%
X158825000Y-50830000D03*
X158825000Y-52970000D03*
X159225000Y-50830000D03*
X159225000Y-52970000D03*
D21*
X158224999Y-50830000D03*
X158224999Y-52970000D03*
X159825001Y-50830000D03*
X159825001Y-52970000D03*
%TD*%
D19*
%TO.C,C1*%
X38350000Y-10000000D03*
X39900000Y-10000000D03*
%TD*%
%TO.C,C1*%
X49350000Y-30450000D03*
X50900000Y-30450000D03*
%TD*%
D17*
%TO.C,D5*%
X91300000Y-52200000D03*
D18*
X92550000Y-53500000D03*
D17*
X91300000Y-54800000D03*
D18*
X90050000Y-53500000D03*
%TD*%
D16*
%TO.C,D1*%
X23734314Y-93800000D03*
X23734314Y-97100000D03*
X28634314Y-97100000D03*
X28634314Y-93800000D03*
%TD*%
D35*
%TO.C,R1*%
X21500000Y-53675000D03*
X21500000Y-55325000D03*
%TD*%
D27*
%TO.C,C3*%
X135250000Y-89675000D03*
X135250000Y-91225000D03*
%TD*%
D20*
%TO.C,J25*%
X139025000Y-63900000D03*
X139025000Y-61760000D03*
X138625000Y-63900000D03*
X138625000Y-61760000D03*
D21*
X139625001Y-63900000D03*
X139625001Y-61760000D03*
X138024999Y-63900000D03*
X138024999Y-61760000D03*
%TD*%
D22*
%TO.C,J3*%
X162095000Y-30700000D03*
X159955000Y-30700000D03*
X162095000Y-31100000D03*
X159955000Y-31100000D03*
D23*
X162095000Y-30099999D03*
X159955000Y-30099999D03*
X162095000Y-31700001D03*
X159955000Y-31700001D03*
%TD*%
D24*
%TO.C,J2*%
X112600000Y-52700000D03*
D25*
X112600000Y-53296800D03*
X112600000Y-53703200D03*
D24*
X112600000Y-54300000D03*
X115000000Y-52700000D03*
D25*
X115000000Y-53296800D03*
X115000000Y-53703200D03*
D24*
X115000000Y-54300000D03*
D26*
X112523800Y-51969997D03*
X112523800Y-55030003D03*
X115076200Y-51969997D03*
X115076200Y-55030003D03*
%TD*%
D24*
%TO.C,J1*%
X17600000Y-52700000D03*
D25*
X17600000Y-53296800D03*
X17600000Y-53703200D03*
D24*
X17600000Y-54300000D03*
X20000000Y-52700000D03*
D25*
X20000000Y-53296800D03*
X20000000Y-53703200D03*
D24*
X20000000Y-54300000D03*
D26*
X17523800Y-51969997D03*
X17523800Y-55030003D03*
X20076200Y-51969997D03*
X20076200Y-55030003D03*
%TD*%
D20*
%TO.C,J31*%
X138995000Y-36999999D03*
X138995000Y-39139999D03*
X139395000Y-36999999D03*
X139395000Y-39139999D03*
D21*
X138394999Y-36999999D03*
X138394999Y-39139999D03*
X139995001Y-36999999D03*
X139995001Y-39139999D03*
%TD*%
D22*
%TO.C,J27*%
X147880000Y-57780201D03*
X145740000Y-57780201D03*
X147880000Y-58180201D03*
X145740000Y-58180201D03*
D23*
X147880000Y-57180200D03*
X145740000Y-57180200D03*
X147880000Y-58780202D03*
X145740000Y-58780202D03*
%TD*%
D22*
%TO.C,J35*%
X138095000Y-43899999D03*
X135955000Y-43899999D03*
X138095000Y-44299999D03*
X135955000Y-44299999D03*
D23*
X138095000Y-43299998D03*
X135955000Y-43299998D03*
X138095000Y-44900000D03*
X135955000Y-44900000D03*
%TD*%
D20*
%TO.C,J11*%
X148825000Y-40830000D03*
X148825000Y-42970000D03*
X149225000Y-40830000D03*
X149225000Y-42970000D03*
D21*
X148224999Y-40830000D03*
X148224999Y-42970000D03*
X149825001Y-40830000D03*
X149825001Y-42970000D03*
%TD*%
D17*
%TO.C,D6*%
X107966667Y-52200000D03*
D18*
X109216667Y-53500000D03*
D17*
X107966667Y-54800000D03*
D18*
X106716667Y-53500000D03*
%TD*%
D17*
%TO.C,D2*%
X41300000Y-52200000D03*
D18*
X42550000Y-53500000D03*
D17*
X41300000Y-54800000D03*
D18*
X40050000Y-53500000D03*
%TD*%
D35*
%TO.C,R1*%
X21584314Y-95250000D03*
X21584314Y-96900000D03*
%TD*%
D28*
%TO.C,C4*%
X37850000Y-51500000D03*
X36300000Y-51500000D03*
%TD*%
D24*
%TO.C,J1*%
X17684314Y-73350000D03*
D25*
X17684314Y-73946800D03*
X17684314Y-74353200D03*
D24*
X17684314Y-74950000D03*
X20084314Y-73350000D03*
D25*
X20084314Y-73946800D03*
X20084314Y-74353200D03*
D24*
X20084314Y-74950000D03*
D26*
X17608114Y-72619997D03*
X17608114Y-75680003D03*
X20160514Y-72619997D03*
X20160514Y-75680003D03*
%TD*%
D28*
%TO.C,C3*%
X80734314Y-72650000D03*
X79184314Y-72650000D03*
%TD*%
D36*
X113384314Y-75450000D03*
X142195000Y-37443195D03*
X48500000Y-51300000D03*
X37100000Y-10000000D03*
X112900000Y-33750000D03*
X75925000Y-30450000D03*
X136595000Y-31669999D03*
X90384314Y-97100000D03*
X74400000Y-33750000D03*
X99750000Y-9400000D03*
X149955000Y-50050000D03*
X159025000Y-32550000D03*
X159025000Y-39850000D03*
X112850000Y-12800000D03*
X85600000Y-51600000D03*
X160525000Y-61900000D03*
X157625000Y-49300000D03*
X17650000Y-13000000D03*
X40850000Y-12800000D03*
X114500000Y-54700000D03*
X99084314Y-72750000D03*
X155955000Y-50170000D03*
X36884314Y-94150000D03*
X108725000Y-117350000D03*
X19184314Y-95950000D03*
X83725000Y-118250000D03*
X161125000Y-59600000D03*
X61300000Y-54800000D03*
X87800000Y-54800000D03*
X113300000Y-54800000D03*
X148868082Y-32367346D03*
X114475000Y-117800000D03*
X110084314Y-96350000D03*
X28684314Y-75750000D03*
X73884314Y-94050000D03*
X137408046Y-64813046D03*
X151475000Y-40400000D03*
X108984314Y-75850000D03*
X136994799Y-55746601D03*
X94300000Y-54800000D03*
X113184314Y-96750000D03*
X159025000Y-49400000D03*
X77800000Y-54800000D03*
X82900000Y-33750000D03*
X30084314Y-97050000D03*
X48350000Y-12800000D03*
X17984314Y-96950000D03*
X33900000Y-33750000D03*
X25900000Y-33750000D03*
X50584314Y-72850000D03*
X58725000Y-118200000D03*
X47725000Y-30450000D03*
X147224999Y-66599999D03*
X17700000Y-33950000D03*
X18900000Y-32950000D03*
X139025000Y-44900000D03*
X100400000Y-33750000D03*
X114384314Y-96650000D03*
X70425000Y-115350000D03*
X73900000Y-9500000D03*
X88850000Y-12800000D03*
X136425000Y-46499999D03*
X19300000Y-54000000D03*
X18100000Y-55000000D03*
X151325000Y-42500000D03*
X37800000Y-54800000D03*
X151268082Y-30667346D03*
X70284314Y-97100000D03*
X114050000Y-12700000D03*
X159025000Y-38700001D03*
X71300000Y-54800000D03*
X31700000Y-51500000D03*
X60850000Y-12800000D03*
X147025000Y-48700001D03*
X160590001Y-64065001D03*
X44800000Y-54800000D03*
X60900000Y-33750000D03*
X146525000Y-40300000D03*
X19275000Y-117100000D03*
X148890232Y-37699999D03*
X82850000Y-12800000D03*
X82084314Y-72650000D03*
X161525000Y-66800000D03*
X140660001Y-46335000D03*
X160675000Y-33100000D03*
X33484314Y-72750000D03*
X136595000Y-36569999D03*
X19384314Y-74650000D03*
X47025000Y-115250000D03*
X33825000Y-118250000D03*
X151775000Y-50400000D03*
X138527286Y-65630000D03*
X102200000Y-51400000D03*
X69850000Y-12800000D03*
X18184314Y-75650000D03*
X45284314Y-75750000D03*
X102850000Y-12800000D03*
X114100000Y-33650000D03*
X150310000Y-58780202D03*
X98400000Y-30350000D03*
X113275000Y-117900000D03*
X96375000Y-115350000D03*
X138625000Y-55946601D03*
X161675000Y-50900000D03*
X95384314Y-75750000D03*
X161425000Y-57100000D03*
X78984314Y-75850000D03*
X62084314Y-75850000D03*
X18075000Y-118100000D03*
X104800000Y-54800000D03*
X18850000Y-12000000D03*
X148224999Y-65099999D03*
X48400000Y-33750000D03*
X146725784Y-59603092D03*
X162525000Y-40200000D03*
X139995001Y-36269999D03*
X114584314Y-75350000D03*
X156625000Y-63100000D03*
X54300000Y-54800000D03*
X29350000Y-12800000D03*
X27800000Y-54800000D03*
X98484314Y-94150000D03*
X49184314Y-97100000D03*
X110825000Y-114050000D03*
X19275000Y-113800000D03*
X18900000Y-29650000D03*
X112784314Y-71450000D03*
X109400000Y-31150000D03*
X111958698Y-52200000D03*
X18850000Y-8700000D03*
X21125000Y-114250000D03*
X110800000Y-52200000D03*
X110284314Y-92950000D03*
X21034314Y-93100000D03*
X20700000Y-9150000D03*
X111508698Y-10200000D03*
X20750000Y-30100000D03*
X110545405Y-71500000D03*
X19384314Y-71350000D03*
X19300000Y-50700000D03*
X19184314Y-92650000D03*
X111558698Y-31150000D03*
X111884314Y-92950000D03*
X109350000Y-10200000D03*
X21234314Y-71800000D03*
X112775000Y-114050000D03*
X21150000Y-51150000D03*
X111300000Y-53500000D03*
X113275000Y-116600000D03*
X111184314Y-95450000D03*
X113184314Y-95450000D03*
X110900000Y-32450000D03*
X113300000Y-53500000D03*
X111384314Y-74150000D03*
X112850000Y-11500000D03*
X112900000Y-32450000D03*
X110850000Y-11500000D03*
X111275000Y-116600000D03*
X113384314Y-74150000D03*
X110284314Y-98600000D03*
X111684314Y-77300000D03*
X111884314Y-76200000D03*
X109275000Y-118600000D03*
X109275000Y-119800000D03*
X107900000Y-35650000D03*
X109800000Y-56650000D03*
X107850000Y-14700000D03*
X108400000Y-34450000D03*
X110300000Y-55500000D03*
X110284314Y-97500000D03*
X108350000Y-13500000D03*
X159025000Y-37900000D03*
X157025000Y-37400000D03*
X149025000Y-36900000D03*
X139195000Y-33269998D03*
X147310000Y-57200000D03*
X147275000Y-39150000D03*
X140195000Y-32069999D03*
X148374998Y-64249998D03*
X149025000Y-46069799D03*
X149025000Y-47099999D03*
X148525000Y-41650000D03*
X139825000Y-55446601D03*
X137596751Y-46328248D03*
X155525000Y-35600000D03*
X141945000Y-30320000D03*
X158125000Y-59769799D03*
X146525000Y-41400000D03*
X159025000Y-30099999D03*
X156589999Y-29464999D03*
X140276854Y-65881854D03*
X149025000Y-49650000D03*
X136525000Y-47599999D03*
X157225000Y-62000000D03*
X148644239Y-62680760D03*
X147671636Y-30170900D03*
X149468082Y-28267346D03*
X155525000Y-40400000D03*
X147020200Y-55900000D03*
X141275000Y-56196601D03*
X151425000Y-36900000D03*
X156625000Y-65900000D03*
X139127286Y-65030000D03*
X162034265Y-41609265D03*
X161325000Y-40400000D03*
X156825000Y-30300000D03*
X159025000Y-30900000D03*
X160825000Y-30900000D03*
X156825000Y-31300000D03*
%LPD*%
M02*
