%TF.GenerationSoftware,KiCad,Pcbnew,8.0.6*%
%TF.CreationDate,2025-04-01T14:48:14+11:00*%
%TF.ProjectId,testingstencil,74657374-696e-4677-9374-656e63696c2e,rev?*%
%TF.SameCoordinates,Original*%
%TF.FileFunction,Copper,L2,Bot*%
%TF.FilePolarity,Positive*%
%FSLAX46Y46*%
G04 Gerber Fmt 4.6, Leading zero omitted, Abs format (unit mm)*
G04 Created by KiCad (PCBNEW 8.0.6) date 2025-04-01 14:48:14*
%MOMM*%
%LPD*%
G01*
G04 APERTURE LIST*
%TA.AperFunction,ViaPad*%
%ADD10C,0.600000*%
%TD*%
%TA.AperFunction,Conductor*%
%ADD11C,0.600000*%
%TD*%
%TA.AperFunction,Conductor*%
%ADD12C,0.500000*%
%TD*%
%TA.AperFunction,Conductor*%
%ADD13C,0.300000*%
%TD*%
%TA.AperFunction,Conductor*%
%ADD14C,0.250000*%
%TD*%
%TA.AperFunction,Conductor*%
%ADD15C,0.200000*%
%TD*%
%TA.AperFunction,Conductor*%
%ADD16C,0.400000*%
%TD*%
G04 APERTURE END LIST*
D10*
%TO.N,GND*%
X113384314Y-75450000D03*
X142195000Y-37443195D03*
X48500000Y-51300000D03*
X37100000Y-10000000D03*
X112900000Y-33750000D03*
X75925000Y-30450000D03*
X136595000Y-31669999D03*
X90384314Y-97100000D03*
X74400000Y-33750000D03*
X99750000Y-9400000D03*
X149955000Y-50050000D03*
X159025000Y-32550000D03*
X159025000Y-39850000D03*
X112850000Y-12800000D03*
X85600000Y-51600000D03*
X160525000Y-61900000D03*
X157625000Y-49300000D03*
X17650000Y-13000000D03*
X40850000Y-12800000D03*
X114500000Y-54700000D03*
X99084314Y-72750000D03*
X155955000Y-50170000D03*
X36884314Y-94150000D03*
X108725000Y-117350000D03*
X19184314Y-95950000D03*
X83725000Y-118250000D03*
X161125000Y-59600000D03*
X61300000Y-54800000D03*
X87800000Y-54800000D03*
X113300000Y-54800000D03*
X148868082Y-32367346D03*
X114475000Y-117800000D03*
X110084314Y-96350000D03*
X28684314Y-75750000D03*
X73884314Y-94050000D03*
X137408046Y-64813046D03*
X151475000Y-40400000D03*
X108984314Y-75850000D03*
X136994799Y-55746601D03*
X94300000Y-54800000D03*
X113184314Y-96750000D03*
X159025000Y-49400000D03*
X77800000Y-54800000D03*
X82900000Y-33750000D03*
X30084314Y-97050000D03*
X48350000Y-12800000D03*
X17984314Y-96950000D03*
X33900000Y-33750000D03*
X25900000Y-33750000D03*
X50584314Y-72850000D03*
X58725000Y-118200000D03*
X47725000Y-30450000D03*
X147224999Y-66599999D03*
X17700000Y-33950000D03*
X18900000Y-32950000D03*
X139025000Y-44900000D03*
X100400000Y-33750000D03*
X114384314Y-96650000D03*
X70425000Y-115350000D03*
X73900000Y-9500000D03*
X88850000Y-12800000D03*
X136425000Y-46499999D03*
X19300000Y-54000000D03*
X18100000Y-55000000D03*
X151325000Y-42500000D03*
X37800000Y-54800000D03*
X151268082Y-30667346D03*
X70284314Y-97100000D03*
X114050000Y-12700000D03*
X159025000Y-38700001D03*
X71300000Y-54800000D03*
X31700000Y-51500000D03*
X60850000Y-12800000D03*
X147025000Y-48700001D03*
X160590001Y-64065001D03*
X44800000Y-54800000D03*
X60900000Y-33750000D03*
X146525000Y-40300000D03*
X19275000Y-117100000D03*
X148890232Y-37699999D03*
X82850000Y-12800000D03*
X82084314Y-72650000D03*
X161525000Y-66800000D03*
X140660001Y-46335000D03*
X160675000Y-33100000D03*
X33484314Y-72750000D03*
X136595000Y-36569999D03*
X19384314Y-74650000D03*
X47025000Y-115250000D03*
X33825000Y-118250000D03*
X151775000Y-50400000D03*
X138527286Y-65630000D03*
X102200000Y-51400000D03*
X69850000Y-12800000D03*
X18184314Y-75650000D03*
X45284314Y-75750000D03*
X102850000Y-12800000D03*
X114100000Y-33650000D03*
X150310000Y-58780202D03*
X98400000Y-30350000D03*
X113275000Y-117900000D03*
X96375000Y-115350000D03*
X138625000Y-55946601D03*
X161675000Y-50900000D03*
X95384314Y-75750000D03*
X161425000Y-57100000D03*
X78984314Y-75850000D03*
X62084314Y-75850000D03*
X18075000Y-118100000D03*
X104800000Y-54800000D03*
X18850000Y-12000000D03*
X148224999Y-65099999D03*
X48400000Y-33750000D03*
X146725784Y-59603092D03*
X162525000Y-40200000D03*
X139995001Y-36269999D03*
X114584314Y-75350000D03*
X156625000Y-63100000D03*
X54300000Y-54800000D03*
X29350000Y-12800000D03*
X27800000Y-54800000D03*
X98484314Y-94150000D03*
X49184314Y-97100000D03*
%TO.N,+5V*%
X110825000Y-114050000D03*
X19275000Y-113800000D03*
X18900000Y-29650000D03*
X112784314Y-71450000D03*
X109400000Y-31150000D03*
X111958698Y-52200000D03*
X18850000Y-8700000D03*
X21125000Y-114250000D03*
X110800000Y-52200000D03*
X110284314Y-92950000D03*
X21034314Y-93100000D03*
X20700000Y-9150000D03*
X111508698Y-10200000D03*
X20750000Y-30100000D03*
X110545405Y-71500000D03*
X19384314Y-71350000D03*
X19300000Y-50700000D03*
X19184314Y-92650000D03*
X111558698Y-31150000D03*
X111884314Y-92950000D03*
X109350000Y-10200000D03*
X21234314Y-71800000D03*
X112775000Y-114050000D03*
X21150000Y-51150000D03*
%TO.N,/CH1-OUT*%
X111300000Y-53500000D03*
X113275000Y-116600000D03*
X111184314Y-95450000D03*
X113184314Y-95450000D03*
X110900000Y-32450000D03*
X113300000Y-53500000D03*
X111384314Y-74150000D03*
X112850000Y-11500000D03*
X112900000Y-32450000D03*
X110850000Y-11500000D03*
X111275000Y-116600000D03*
X113384314Y-74150000D03*
%TO.N,/CH3*%
X110284314Y-98600000D03*
X111684314Y-77300000D03*
X111884314Y-76200000D03*
X109275000Y-118600000D03*
X109275000Y-119800000D03*
X107900000Y-35650000D03*
X109800000Y-56650000D03*
X107850000Y-14700000D03*
X108400000Y-34450000D03*
X110300000Y-55500000D03*
X110284314Y-97500000D03*
X108350000Y-13500000D03*
%TO.N,/1Input2Outputs/1A*%
X159025000Y-37900000D03*
X157025000Y-37400000D03*
%TO.N,5V*%
X149025000Y-36900000D03*
X139195000Y-33269998D03*
X147310000Y-57200000D03*
X147275000Y-39150000D03*
X140195000Y-32069999D03*
X148374998Y-64249998D03*
X149025000Y-46069799D03*
X149025000Y-47099999D03*
X148525000Y-41650000D03*
X139825000Y-55446601D03*
X137596751Y-46328248D03*
X155525000Y-35600000D03*
X141945000Y-30320000D03*
X158125000Y-59769799D03*
X146525000Y-41400000D03*
X159025000Y-30099999D03*
X156589999Y-29464999D03*
X140276854Y-65881854D03*
X149025000Y-49650000D03*
X136525000Y-47599999D03*
X157225000Y-62000000D03*
X148644239Y-62680760D03*
X147671636Y-30170900D03*
X149468082Y-28267346D03*
X155525000Y-40400000D03*
X147020200Y-55900000D03*
X141275000Y-56196601D03*
X151425000Y-36900000D03*
X156625000Y-65900000D03*
X139127286Y-65030000D03*
%TO.N,/1Input2Outputs/1C*%
X162034265Y-41609265D03*
X161325000Y-40400000D03*
%TO.N,/Basic1-1/1A*%
X156825000Y-30300000D03*
X159025000Y-30900000D03*
%TO.N,/Basic1-1/1B*%
X160825000Y-30900000D03*
X156825000Y-31300000D03*
%TD*%
D11*
%TO.N,GND*%
X150525000Y-45400000D02*
X150525000Y-43400000D01*
X160525000Y-45900000D02*
X160525000Y-43900000D01*
X155175000Y-51550000D02*
X152875000Y-51550000D01*
X155025000Y-31900000D02*
X153025000Y-31900000D01*
X155025000Y-58900000D02*
X152525000Y-58900000D01*
X155025000Y-65400000D02*
X153025000Y-65400000D01*
X145025000Y-30900000D02*
X143025000Y-30900000D01*
X147525000Y-35900000D02*
X147525000Y-32900000D01*
X141025000Y-52400000D02*
X141025000Y-48900000D01*
X145025000Y-36900000D02*
X143025000Y-36900000D01*
X142525000Y-45900000D02*
X145525000Y-48900000D01*
X140025000Y-41900000D02*
X140025000Y-39900000D01*
X161525000Y-35400000D02*
X161525000Y-33400000D01*
X150525000Y-62400000D02*
X150525000Y-59400000D01*
X155025000Y-41400000D02*
X153025000Y-41400000D01*
X145025000Y-58400000D02*
X142025000Y-58400000D01*
X143025000Y-63900000D02*
X141025000Y-63900000D01*
D12*
%TO.N,+5V*%
X19184314Y-92650000D02*
X20584314Y-92650000D01*
X20250000Y-8700000D02*
X20700000Y-9150000D01*
X109400000Y-31150000D02*
X111558698Y-31150000D01*
X20300000Y-29650000D02*
X20750000Y-30100000D01*
X110284314Y-92950000D02*
X111884314Y-92950000D01*
D11*
X112734314Y-71500000D02*
X112784314Y-71450000D01*
D12*
X19300000Y-50700000D02*
X20700000Y-50700000D01*
X20675000Y-113800000D02*
X21125000Y-114250000D01*
X18900000Y-29650000D02*
X20300000Y-29650000D01*
X110825000Y-114050000D02*
X112775000Y-114050000D01*
D11*
X110545405Y-71500000D02*
X112734314Y-71500000D01*
D12*
X109350000Y-10200000D02*
X111508698Y-10200000D01*
X110800000Y-52200000D02*
X111958698Y-52200000D01*
X20784314Y-71350000D02*
X21234314Y-71800000D01*
X19384314Y-71350000D02*
X20784314Y-71350000D01*
X20700000Y-50700000D02*
X21150000Y-51150000D01*
X20584314Y-92650000D02*
X21034314Y-93100000D01*
X18850000Y-8700000D02*
X20250000Y-8700000D01*
X19275000Y-113800000D02*
X20675000Y-113800000D01*
D13*
%TO.N,/CH1-OUT*%
X111384314Y-74150000D02*
X113384314Y-74150000D01*
X110850000Y-11500000D02*
X112850000Y-11500000D01*
X110900000Y-32450000D02*
X112900000Y-32450000D01*
X111184314Y-95450000D02*
X113184314Y-95450000D01*
X111275000Y-116600000D02*
X113275000Y-116600000D01*
X111300000Y-53500000D02*
X113300000Y-53500000D01*
%TO.N,/CH3*%
X107900000Y-34950000D02*
X107900000Y-35650000D01*
X107850000Y-14000000D02*
X107850000Y-14700000D01*
X109275000Y-119800000D02*
X109275000Y-118600000D01*
X110300000Y-55500000D02*
X109800000Y-56000000D01*
D14*
X110284314Y-97500000D02*
X110284314Y-98600000D01*
D15*
X111884314Y-77100000D02*
X111684314Y-77300000D01*
X111884314Y-76200000D02*
X111884314Y-77100000D01*
D13*
X108350000Y-13500000D02*
X107850000Y-14000000D01*
X108400000Y-34450000D02*
X107900000Y-34950000D01*
X109800000Y-56000000D02*
X109800000Y-56650000D01*
D14*
%TO.N,/1Input2Outputs/1A*%
X157525000Y-37900000D02*
X157025000Y-37400000D01*
X159025000Y-37900000D02*
X157525000Y-37900000D01*
D12*
%TO.N,5V*%
X140525000Y-55446601D02*
X139825000Y-55446601D01*
D16*
X155275000Y-35850000D02*
X155275000Y-40150000D01*
X157225000Y-62000000D02*
X157225000Y-60669799D01*
X157225000Y-60669799D02*
X158125000Y-59769799D01*
D11*
X156979949Y-29464999D02*
X157564950Y-30050000D01*
D12*
X136525000Y-47599999D02*
X137596751Y-46528248D01*
D16*
X147275000Y-41650000D02*
X147775000Y-41650000D01*
X147310000Y-56189800D02*
X147020200Y-55900000D01*
X147025000Y-41400000D02*
X147275000Y-41650000D01*
D11*
X149025000Y-47099999D02*
X149025000Y-46069799D01*
D16*
X155525000Y-35600000D02*
X155275000Y-35850000D01*
D11*
X156589999Y-29464999D02*
X156979949Y-29464999D01*
X141944999Y-30320000D02*
X139195000Y-33069999D01*
D16*
X147671636Y-30170900D02*
X147671636Y-30063792D01*
X147275000Y-39150000D02*
X147275000Y-41150000D01*
D11*
X157564950Y-30050000D02*
X158975001Y-30050000D01*
D12*
X139979140Y-65881854D02*
X139127286Y-65030000D01*
D16*
X157225000Y-65300000D02*
X156625000Y-65900000D01*
X148525000Y-41650000D02*
X147775000Y-41650000D01*
D12*
X137596751Y-46528248D02*
X137596751Y-46328248D01*
D16*
X147310000Y-57200000D02*
X147310000Y-56189800D01*
X147671636Y-30063792D02*
X149468082Y-28267346D01*
D11*
X149025000Y-49650000D02*
X149025000Y-47099999D01*
X148644239Y-63980757D02*
X148644239Y-62680760D01*
X141945000Y-30320000D02*
X141944999Y-30320000D01*
D16*
X149025000Y-36900000D02*
X151425000Y-36900000D01*
D11*
X158975001Y-30050000D02*
X159025000Y-30099999D01*
X139195000Y-33069999D02*
X139195000Y-33269998D01*
D12*
X140276854Y-65881854D02*
X139979140Y-65881854D01*
D11*
X148374998Y-64249998D02*
X148644239Y-63980757D01*
D16*
X157225000Y-62000000D02*
X157225000Y-65300000D01*
X155275000Y-40150000D02*
X155525000Y-40400000D01*
D12*
X141275000Y-56196601D02*
X140525000Y-55446601D01*
D16*
X146525000Y-41400000D02*
X147025000Y-41400000D01*
X147275000Y-41150000D02*
X147775000Y-41650000D01*
D14*
%TO.N,/1Input2Outputs/1C*%
X162034265Y-41609265D02*
X161325000Y-40900000D01*
X161325000Y-40900000D02*
X161325000Y-40400000D01*
D15*
%TO.N,/Basic1-1/1A*%
X159025000Y-30900000D02*
X157425000Y-30900000D01*
X157425000Y-30900000D02*
X156825000Y-30300000D01*
%TO.N,/Basic1-1/1B*%
X160025000Y-31700000D02*
X157225000Y-31700000D01*
X160825000Y-30900000D02*
X160025000Y-31700000D01*
X157225000Y-31700000D02*
X156825000Y-31300000D01*
%TD*%
%TA.AperFunction,Conductor*%
%TO.N,GND*%
G36*
X18721341Y-70670185D02*
G01*
X18767096Y-70722989D01*
X18777040Y-70792147D01*
X18756119Y-70840532D01*
X18758203Y-70841842D01*
X18658525Y-71000476D01*
X18598945Y-71170745D01*
X18598944Y-71170750D01*
X18578749Y-71349996D01*
X18578749Y-71350003D01*
X18598944Y-71529249D01*
X18598945Y-71529254D01*
X18658525Y-71699523D01*
X18739509Y-71828407D01*
X18754498Y-71852262D01*
X18882052Y-71979816D01*
X19034792Y-72075789D01*
X19189192Y-72129816D01*
X19205059Y-72135368D01*
X19205064Y-72135369D01*
X19384310Y-72155565D01*
X19384314Y-72155565D01*
X19384318Y-72155565D01*
X19563563Y-72135369D01*
X19563566Y-72135368D01*
X19563569Y-72135368D01*
X19643331Y-72107457D01*
X19684286Y-72100500D01*
X20409191Y-72100500D01*
X20476230Y-72120185D01*
X20514181Y-72158524D01*
X20604498Y-72302262D01*
X20732052Y-72429816D01*
X20884792Y-72525789D01*
X21055059Y-72585368D01*
X21055064Y-72585369D01*
X21234310Y-72605565D01*
X21234314Y-72605565D01*
X21234318Y-72605565D01*
X21413563Y-72585369D01*
X21413566Y-72585368D01*
X21413569Y-72585368D01*
X21583836Y-72525789D01*
X21736576Y-72429816D01*
X21864130Y-72302262D01*
X21960103Y-72149522D01*
X22019682Y-71979255D01*
X22021819Y-71960289D01*
X22039879Y-71800003D01*
X22039879Y-71799996D01*
X22019683Y-71620750D01*
X22019682Y-71620745D01*
X22005020Y-71578844D01*
X21960103Y-71450478D01*
X21959803Y-71450001D01*
X21864129Y-71297737D01*
X21736576Y-71170184D01*
X21705214Y-71150478D01*
X21583836Y-71074211D01*
X21583833Y-71074210D01*
X21583830Y-71074208D01*
X21577556Y-71071186D01*
X21578437Y-71069356D01*
X21542374Y-71046692D01*
X21357863Y-70862181D01*
X21324378Y-70800858D01*
X21329362Y-70731166D01*
X21371234Y-70675233D01*
X21436698Y-70650816D01*
X21445544Y-70650500D01*
X109964247Y-70650500D01*
X110031286Y-70670185D01*
X110077041Y-70722989D01*
X110086985Y-70792147D01*
X110057960Y-70855703D01*
X110048036Y-70865229D01*
X110048067Y-70865260D01*
X109915591Y-70997735D01*
X109915585Y-70997742D01*
X109874497Y-71063132D01*
X109872609Y-71066047D01*
X109836009Y-71120824D01*
X109836005Y-71120832D01*
X109835671Y-71121639D01*
X109826118Y-71140127D01*
X109819617Y-71150474D01*
X109819615Y-71150477D01*
X109798387Y-71211140D01*
X109795909Y-71217631D01*
X109775669Y-71266496D01*
X109775668Y-71266502D01*
X109772955Y-71280140D01*
X109768380Y-71296898D01*
X109760039Y-71320735D01*
X109760037Y-71320742D01*
X109754295Y-71371696D01*
X109752693Y-71381994D01*
X109744905Y-71421152D01*
X109744905Y-71448085D01*
X109744125Y-71461969D01*
X109739840Y-71499998D01*
X109739840Y-71500001D01*
X109744125Y-71538029D01*
X109744905Y-71551914D01*
X109744905Y-71578844D01*
X109752693Y-71618003D01*
X109754295Y-71628303D01*
X109760037Y-71679252D01*
X109760038Y-71679260D01*
X109768381Y-71703104D01*
X109772955Y-71719860D01*
X109775667Y-71733496D01*
X109795914Y-71782377D01*
X109798391Y-71788867D01*
X109812497Y-71829179D01*
X109819617Y-71849524D01*
X109826114Y-71859865D01*
X109835673Y-71878365D01*
X109836008Y-71879173D01*
X109836010Y-71879179D01*
X109872628Y-71933982D01*
X109874519Y-71936900D01*
X109915585Y-72002257D01*
X109915587Y-72002260D01*
X109915589Y-72002262D01*
X110043143Y-72129816D01*
X110088838Y-72158528D01*
X110108536Y-72170905D01*
X110111445Y-72172790D01*
X110166226Y-72209394D01*
X110167011Y-72209719D01*
X110185539Y-72219289D01*
X110195883Y-72225789D01*
X110256580Y-72247028D01*
X110263012Y-72249484D01*
X110291426Y-72261253D01*
X110311902Y-72269735D01*
X110311903Y-72269735D01*
X110311908Y-72269737D01*
X110325544Y-72272449D01*
X110342303Y-72277023D01*
X110366150Y-72285368D01*
X110417119Y-72291110D01*
X110427397Y-72292709D01*
X110454545Y-72298109D01*
X110466562Y-72300500D01*
X110466563Y-72300500D01*
X110493490Y-72300500D01*
X110507374Y-72301280D01*
X110545403Y-72305565D01*
X110545405Y-72305565D01*
X110545407Y-72305565D01*
X110583436Y-72301280D01*
X110597320Y-72300500D01*
X112813158Y-72300500D01*
X112813159Y-72300499D01*
X112967811Y-72269737D01*
X113113493Y-72209394D01*
X113244603Y-72121789D01*
X113406103Y-71960289D01*
X113414130Y-71952262D01*
X113455245Y-71886825D01*
X113457091Y-71883979D01*
X113478284Y-71852262D01*
X113493708Y-71829179D01*
X113494034Y-71828390D01*
X113503601Y-71809868D01*
X113510103Y-71799522D01*
X113531336Y-71738837D01*
X113533791Y-71732407D01*
X113554052Y-71683497D01*
X113556763Y-71669860D01*
X113561339Y-71653096D01*
X113569682Y-71629255D01*
X113575423Y-71578287D01*
X113577023Y-71568004D01*
X113582009Y-71542938D01*
X113584814Y-71528844D01*
X113584814Y-71501914D01*
X113585594Y-71488029D01*
X113589879Y-71450001D01*
X113589879Y-71449998D01*
X113585594Y-71411969D01*
X113584814Y-71398085D01*
X113584814Y-71371157D01*
X113580605Y-71350000D01*
X113577022Y-71331987D01*
X113575423Y-71321703D01*
X113569682Y-71270745D01*
X113561341Y-71246909D01*
X113556763Y-71230137D01*
X113554276Y-71217631D01*
X113554052Y-71216503D01*
X113533795Y-71167600D01*
X113531320Y-71161115D01*
X113527598Y-71150478D01*
X113510103Y-71100478D01*
X113503603Y-71090134D01*
X113494033Y-71071606D01*
X113493708Y-71070821D01*
X113457104Y-71016040D01*
X113455219Y-71013131D01*
X113447269Y-71000478D01*
X113414130Y-70947738D01*
X113328573Y-70862181D01*
X113295088Y-70800858D01*
X113300072Y-70731166D01*
X113341944Y-70675233D01*
X113407408Y-70650816D01*
X113416254Y-70650500D01*
X115259814Y-70650500D01*
X115326853Y-70670185D01*
X115372608Y-70722989D01*
X115383814Y-70774500D01*
X115383814Y-77525500D01*
X115364129Y-77592539D01*
X115311325Y-77638294D01*
X115259814Y-77649500D01*
X112584873Y-77649500D01*
X112517834Y-77629815D01*
X112472079Y-77577011D01*
X112462135Y-77507853D01*
X112467831Y-77484546D01*
X112469681Y-77479257D01*
X112469682Y-77479255D01*
X112489879Y-77300000D01*
X112481413Y-77224869D01*
X112484239Y-77187184D01*
X112483754Y-77187121D01*
X112484815Y-77179061D01*
X112484815Y-77013347D01*
X112484814Y-77013329D01*
X112484814Y-76782412D01*
X112504499Y-76715373D01*
X112511869Y-76705097D01*
X112514124Y-76702267D01*
X112514130Y-76702262D01*
X112610103Y-76549522D01*
X112669682Y-76379255D01*
X112689879Y-76200000D01*
X112669682Y-76020745D01*
X112610103Y-75850478D01*
X112514130Y-75697738D01*
X112386576Y-75570184D01*
X112233837Y-75474211D01*
X112063568Y-75414631D01*
X112063563Y-75414630D01*
X111884318Y-75394435D01*
X111884310Y-75394435D01*
X111705064Y-75414630D01*
X111705059Y-75414631D01*
X111534790Y-75474211D01*
X111382051Y-75570184D01*
X111254498Y-75697737D01*
X111158525Y-75850476D01*
X111098945Y-76020745D01*
X111098944Y-76020750D01*
X111078749Y-76199996D01*
X111078749Y-76200003D01*
X111098944Y-76379249D01*
X111098947Y-76379262D01*
X111158524Y-76549521D01*
X111158524Y-76549522D01*
X111161557Y-76554349D01*
X111180552Y-76621587D01*
X111160181Y-76688420D01*
X111144241Y-76707995D01*
X111054497Y-76797739D01*
X110958525Y-76950476D01*
X110898945Y-77120745D01*
X110898944Y-77120750D01*
X110878749Y-77299996D01*
X110878749Y-77300003D01*
X110898944Y-77479249D01*
X110898946Y-77479257D01*
X110900797Y-77484546D01*
X110904358Y-77554325D01*
X110869629Y-77614952D01*
X110807636Y-77647179D01*
X110783755Y-77649500D01*
X17508814Y-77649500D01*
X17441775Y-77629815D01*
X17396020Y-77577011D01*
X17384814Y-77525500D01*
X17384814Y-74149996D01*
X110578749Y-74149996D01*
X110578749Y-74150003D01*
X110598944Y-74329249D01*
X110598945Y-74329254D01*
X110658525Y-74499523D01*
X110754498Y-74652262D01*
X110882052Y-74779816D01*
X111034792Y-74875789D01*
X111205053Y-74935366D01*
X111205059Y-74935368D01*
X111205064Y-74935369D01*
X111384310Y-74955565D01*
X111384314Y-74955565D01*
X111384318Y-74955565D01*
X111563563Y-74935369D01*
X111563565Y-74935368D01*
X111563569Y-74935368D01*
X111563572Y-74935366D01*
X111563576Y-74935366D01*
X111653691Y-74903832D01*
X111733836Y-74875789D01*
X111823410Y-74819505D01*
X111889382Y-74800500D01*
X112879246Y-74800500D01*
X112945218Y-74819506D01*
X113034791Y-74875789D01*
X113034795Y-74875790D01*
X113205051Y-74935366D01*
X113205057Y-74935367D01*
X113205059Y-74935368D01*
X113205060Y-74935368D01*
X113205064Y-74935369D01*
X113384310Y-74955565D01*
X113384314Y-74955565D01*
X113384318Y-74955565D01*
X113563563Y-74935369D01*
X113563566Y-74935368D01*
X113563569Y-74935368D01*
X113733836Y-74875789D01*
X113886576Y-74779816D01*
X114014130Y-74652262D01*
X114110103Y-74499522D01*
X114169682Y-74329255D01*
X114189879Y-74150000D01*
X114169682Y-73970745D01*
X114110103Y-73800478D01*
X114014130Y-73647738D01*
X113886576Y-73520184D01*
X113823410Y-73480494D01*
X113733837Y-73424211D01*
X113563568Y-73364631D01*
X113563563Y-73364630D01*
X113384318Y-73344435D01*
X113384310Y-73344435D01*
X113205064Y-73364630D01*
X113205051Y-73364633D01*
X113034795Y-73424209D01*
X113034791Y-73424210D01*
X112945218Y-73480494D01*
X112879246Y-73499500D01*
X111889382Y-73499500D01*
X111823410Y-73480494D01*
X111733836Y-73424210D01*
X111733832Y-73424209D01*
X111563576Y-73364633D01*
X111563563Y-73364630D01*
X111384318Y-73344435D01*
X111384310Y-73344435D01*
X111205064Y-73364630D01*
X111205059Y-73364631D01*
X111034790Y-73424211D01*
X110882051Y-73520184D01*
X110754498Y-73647737D01*
X110658525Y-73800476D01*
X110598945Y-73970745D01*
X110598944Y-73970750D01*
X110578749Y-74149996D01*
X17384814Y-74149996D01*
X17384814Y-70774500D01*
X17404499Y-70707461D01*
X17457303Y-70661706D01*
X17508814Y-70650500D01*
X18654302Y-70650500D01*
X18721341Y-70670185D01*
G37*
%TD.AperFunction*%
%TD*%
%TA.AperFunction,Conductor*%
%TO.N,GND*%
G36*
X151653646Y-35919685D02*
G01*
X151607891Y-35972489D01*
X151597947Y-36041647D01*
X151626972Y-36105203D01*
X151679731Y-36141042D01*
X151774522Y-36174210D01*
X151927263Y-36270184D01*
X152054816Y-36397737D01*
X152150789Y-36550476D01*
X152210369Y-36720745D01*
X152210370Y-36720750D01*
X152230565Y-36899996D01*
X152230565Y-36900003D01*
X152210370Y-37079249D01*
X152210369Y-37079254D01*
X152150789Y-37249523D01*
X152054816Y-37402262D01*
X151927262Y-37529816D01*
X151836920Y-37586582D01*
X151774526Y-37625787D01*
X151774522Y-37625789D01*
X151604255Y-37685368D01*
X151604250Y-37685369D01*
X151425004Y-37705565D01*
X151425000Y-37705565D01*
X151424996Y-37705565D01*
X151245751Y-37685369D01*
X151245748Y-37685368D01*
X151245745Y-37685368D01*
X151075478Y-37625789D01*
X151074512Y-37625181D01*
X151065477Y-37619506D01*
X150999506Y-37600500D01*
X149450494Y-37600500D01*
X149384523Y-37619506D01*
X149374526Y-37625787D01*
X149374525Y-37625787D01*
X149374522Y-37625789D01*
X149204255Y-37685368D01*
X149204250Y-37685369D01*
X149025004Y-37705565D01*
X149025000Y-37705565D01*
X149024996Y-37705565D01*
X148845751Y-37685369D01*
X148845748Y-37685368D01*
X148845745Y-37685368D01*
X148675478Y-37625789D01*
X148522738Y-37529816D01*
X148395184Y-37402262D01*
X148299211Y-37249522D01*
X148239632Y-37079255D01*
X148219435Y-36900000D01*
X148239632Y-36720745D01*
X148299211Y-36550478D01*
X148395184Y-36397738D01*
X148522738Y-36270184D01*
X148675479Y-36174210D01*
X148770269Y-36141042D01*
X148827046Y-36100320D01*
X148852793Y-36035367D01*
X148839337Y-35966806D01*
X148790950Y-35916403D01*
X148729315Y-35900000D01*
X145149000Y-35900000D01*
X145081961Y-35919685D01*
X145036206Y-35972489D01*
X145025000Y-36024000D01*
X145025000Y-42348638D01*
X145044685Y-42415677D01*
X145061319Y-42436319D01*
X146488681Y-43863681D01*
X146550004Y-43897166D01*
X146576362Y-43900000D01*
X150973638Y-43900000D01*
X151040677Y-43880315D01*
X151061319Y-43863681D01*
X152988681Y-41936319D01*
X153022166Y-41874996D01*
X153025000Y-41848638D01*
X153025000Y-41649996D01*
X149330565Y-41649996D01*
X149330565Y-41650003D01*
X149310370Y-41829249D01*
X149310369Y-41829254D01*
X149250789Y-41999523D01*
X149171451Y-42125788D01*
X149154816Y-42152262D01*
X149027262Y-42279816D01*
X148957615Y-42323578D01*
X148874526Y-42375787D01*
X148874522Y-42375789D01*
X148704255Y-42435368D01*
X148704250Y-42435369D01*
X148525004Y-42455565D01*
X148525000Y-42455565D01*
X148524996Y-42455565D01*
X148345751Y-42435369D01*
X148345748Y-42435368D01*
X148345745Y-42435368D01*
X148175478Y-42375789D01*
X148174512Y-42375181D01*
X148165477Y-42369506D01*
X148099506Y-42350500D01*
X147206004Y-42350500D01*
X147114960Y-42332389D01*
X147070672Y-42323580D01*
X146943189Y-42270775D01*
X146828623Y-42194224D01*
X146761946Y-42173347D01*
X146718780Y-42180285D01*
X146704255Y-42185368D01*
X146704251Y-42185368D01*
X146704247Y-42185369D01*
X146525004Y-42205565D01*
X146525000Y-42205565D01*
X146524996Y-42205565D01*
X146345751Y-42185369D01*
X146345748Y-42185368D01*
X146345745Y-42185368D01*
X146175478Y-42125789D01*
X146022738Y-42029816D01*
X145895184Y-41902262D01*
X145799211Y-41749522D01*
X145739632Y-41579255D01*
X145739631Y-41579249D01*
X145719435Y-41400003D01*
X145719435Y-41399996D01*
X145739631Y-41220750D01*
X145739632Y-41220745D01*
X145799212Y-41050476D01*
X145868565Y-40940102D01*
X145895184Y-40897738D01*
X146022738Y-40770184D01*
X146175477Y-40674211D01*
X146345746Y-40614631D01*
X146345750Y-40614630D01*
X146464384Y-40601264D01*
X146528798Y-40574197D01*
X146568353Y-40516603D01*
X146574500Y-40478044D01*
X146574500Y-39575493D01*
X146555492Y-39509519D01*
X146549213Y-39499525D01*
X146549214Y-39499525D01*
X146549211Y-39499522D01*
X146489632Y-39329255D01*
X146469435Y-39150000D01*
X146489632Y-38970745D01*
X146549211Y-38800478D01*
X146645184Y-38647738D01*
X146772738Y-38520184D01*
X146925477Y-38424211D01*
X147095746Y-38364631D01*
X147095751Y-38364630D01*
X147274996Y-38344435D01*
X147275004Y-38344435D01*
X147454250Y-38364630D01*
X147454255Y-38364631D01*
X147624524Y-38424211D01*
X147777263Y-38520184D01*
X147904816Y-38647737D01*
X148000789Y-38800476D01*
X148060369Y-38970745D01*
X148060370Y-38970750D01*
X148080565Y-39149996D01*
X148080565Y-39150003D01*
X148060370Y-39329249D01*
X148060369Y-39329254D01*
X148000788Y-39499525D01*
X147994508Y-39509519D01*
X147975500Y-39575493D01*
X147975500Y-40808481D01*
X147995185Y-40875520D01*
X148011823Y-40896166D01*
X148022278Y-40906620D01*
X148083603Y-40940102D01*
X148153294Y-40935115D01*
X148170743Y-40926490D01*
X148175471Y-40924213D01*
X148345746Y-40864631D01*
X148345751Y-40864630D01*
X148524996Y-40844435D01*
X148525004Y-40844435D01*
X148704250Y-40864630D01*
X148704255Y-40864631D01*
X148874524Y-40924211D01*
X149027263Y-41020184D01*
X149154816Y-41147737D01*
X149250789Y-41300476D01*
X149310369Y-41470745D01*
X149310370Y-41470750D01*
X149330565Y-41649996D01*
X153025000Y-41649996D01*
X153025000Y-36024000D01*
X153005315Y-35956961D01*
X152952511Y-35911206D01*
X152901000Y-35900000D01*
X151720685Y-35900000D01*
X151653646Y-35919685D01*
G37*
%TD.AperFunction*%
%TD*%
%TA.AperFunction,Conductor*%
%TO.N,GND*%
G36*
X145081961Y-44919685D02*
G01*
X145036206Y-44972489D01*
X145025000Y-45024000D01*
X145025000Y-51848638D01*
X145044685Y-51915677D01*
X145061319Y-51936319D01*
X146988681Y-53863681D01*
X147050004Y-53897166D01*
X147076362Y-53900000D01*
X150973638Y-53900000D01*
X151040677Y-53880315D01*
X151061319Y-53863681D01*
X152988681Y-51936319D01*
X153022166Y-51874996D01*
X153025000Y-51848638D01*
X153025000Y-46069797D01*
X149830565Y-46069797D01*
X149830565Y-46069800D01*
X149826280Y-46107828D01*
X149825500Y-46121713D01*
X149825500Y-47048084D01*
X149826280Y-47061968D01*
X149830565Y-47099997D01*
X149830565Y-47100000D01*
X149826280Y-47138028D01*
X149825500Y-47151913D01*
X149825500Y-49598085D01*
X149826280Y-49611969D01*
X149830565Y-49649998D01*
X149830565Y-49650001D01*
X149826280Y-49688029D01*
X149825500Y-49701914D01*
X149825500Y-49728844D01*
X149817712Y-49768003D01*
X149816110Y-49778303D01*
X149810368Y-49829252D01*
X149810367Y-49829260D01*
X149802024Y-49853104D01*
X149797450Y-49869860D01*
X149794738Y-49883496D01*
X149774491Y-49932377D01*
X149772012Y-49938872D01*
X149750788Y-49999524D01*
X149744291Y-50009865D01*
X149734732Y-50028365D01*
X149734397Y-50029173D01*
X149734395Y-50029179D01*
X149697777Y-50083982D01*
X149695886Y-50086900D01*
X149654820Y-50152257D01*
X149654818Y-50152260D01*
X149654816Y-50152262D01*
X149527262Y-50279816D01*
X149461904Y-50320883D01*
X149461869Y-50320905D01*
X149458960Y-50322790D01*
X149404179Y-50359394D01*
X149403394Y-50359719D01*
X149384866Y-50369289D01*
X149374522Y-50375789D01*
X149313825Y-50397028D01*
X149307393Y-50399484D01*
X149278979Y-50411253D01*
X149258503Y-50419735D01*
X149258502Y-50419735D01*
X149258497Y-50419737D01*
X149244861Y-50422449D01*
X149228102Y-50427023D01*
X149204255Y-50435368D01*
X149153286Y-50441110D01*
X149143008Y-50442709D01*
X149115860Y-50448109D01*
X149103843Y-50450500D01*
X149103842Y-50450500D01*
X149076915Y-50450500D01*
X149063031Y-50451280D01*
X149025002Y-50455565D01*
X149025000Y-50455565D01*
X149024998Y-50455565D01*
X148986969Y-50451280D01*
X148973085Y-50450500D01*
X148946159Y-50450500D01*
X148946158Y-50450500D01*
X148906983Y-50442707D01*
X148896717Y-50441110D01*
X148845745Y-50435368D01*
X148821900Y-50427023D01*
X148805138Y-50422448D01*
X148791503Y-50419737D01*
X148742611Y-50399484D01*
X148736163Y-50397023D01*
X148675478Y-50375789D01*
X148665132Y-50369287D01*
X148646610Y-50359720D01*
X148645821Y-50359394D01*
X148591013Y-50322771D01*
X148588175Y-50320931D01*
X148522738Y-50279816D01*
X148395184Y-50152262D01*
X148354069Y-50086825D01*
X148352223Y-50083979D01*
X148315611Y-50029186D01*
X148315606Y-50029179D01*
X148315280Y-50028390D01*
X148305713Y-50009868D01*
X148299211Y-49999522D01*
X148277977Y-49938837D01*
X148275510Y-49932377D01*
X148255263Y-49883497D01*
X148252551Y-49869860D01*
X148247977Y-49853100D01*
X148239632Y-49829255D01*
X148233890Y-49778283D01*
X148232293Y-49768017D01*
X148224500Y-49728842D01*
X148224500Y-49701914D01*
X148223720Y-49688029D01*
X148219435Y-49650001D01*
X148219435Y-49649998D01*
X148223720Y-49611969D01*
X148224500Y-49598085D01*
X148224500Y-47151913D01*
X148223720Y-47138028D01*
X148219435Y-47100000D01*
X148219435Y-47099997D01*
X148223720Y-47061968D01*
X148224500Y-47048084D01*
X148224500Y-46121713D01*
X148223720Y-46107828D01*
X148219435Y-46069800D01*
X148219435Y-46069797D01*
X148223720Y-46031768D01*
X148224500Y-46017884D01*
X148224500Y-45990956D01*
X148232289Y-45951802D01*
X148233890Y-45941513D01*
X148239632Y-45890544D01*
X148247977Y-45866697D01*
X148252551Y-45849938D01*
X148255263Y-45836302D01*
X148255266Y-45836295D01*
X148263747Y-45815820D01*
X148275516Y-45787406D01*
X148277972Y-45780974D01*
X148299211Y-45720277D01*
X148305711Y-45709933D01*
X148315281Y-45691405D01*
X148315606Y-45690620D01*
X148352210Y-45635839D01*
X148354095Y-45632930D01*
X148395184Y-45567537D01*
X148522738Y-45439983D01*
X148522740Y-45439981D01*
X148522743Y-45439979D01*
X148588100Y-45398913D01*
X148591018Y-45397022D01*
X148645821Y-45360404D01*
X148645827Y-45360402D01*
X148646635Y-45360067D01*
X148665135Y-45350508D01*
X148675476Y-45344011D01*
X148675477Y-45344010D01*
X148675478Y-45344010D01*
X148736133Y-45322785D01*
X148742623Y-45320308D01*
X148791504Y-45300061D01*
X148805140Y-45297349D01*
X148821896Y-45292775D01*
X148845740Y-45284432D01*
X148845744Y-45284431D01*
X148845745Y-45284431D01*
X148866425Y-45282100D01*
X148896697Y-45278689D01*
X148906997Y-45277087D01*
X148946156Y-45269299D01*
X148946158Y-45269299D01*
X148973085Y-45269299D01*
X148986969Y-45268519D01*
X149024998Y-45264234D01*
X149025002Y-45264234D01*
X149063031Y-45268519D01*
X149076915Y-45269299D01*
X149103848Y-45269299D01*
X149143006Y-45277087D01*
X149153304Y-45278689D01*
X149204258Y-45284431D01*
X149204265Y-45284433D01*
X149228102Y-45292774D01*
X149244860Y-45297349D01*
X149258498Y-45300062D01*
X149258504Y-45300063D01*
X149307369Y-45320303D01*
X149313860Y-45322781D01*
X149374523Y-45344009D01*
X149374526Y-45344011D01*
X149384873Y-45350512D01*
X149403361Y-45360065D01*
X149404168Y-45360399D01*
X149404176Y-45360403D01*
X149458953Y-45397003D01*
X149461868Y-45398891D01*
X149527258Y-45439979D01*
X149527265Y-45439985D01*
X149654814Y-45567534D01*
X149654820Y-45567541D01*
X149695908Y-45632931D01*
X149697796Y-45635846D01*
X149734396Y-45690623D01*
X149734400Y-45690631D01*
X149734734Y-45691438D01*
X149744287Y-45709926D01*
X149750788Y-45720273D01*
X149750790Y-45720276D01*
X149772018Y-45780939D01*
X149774496Y-45787430D01*
X149794736Y-45836295D01*
X149794737Y-45836301D01*
X149797450Y-45849939D01*
X149802025Y-45866697D01*
X149810366Y-45890534D01*
X149810368Y-45890541D01*
X149816110Y-45941495D01*
X149817712Y-45951793D01*
X149825500Y-45990951D01*
X149825500Y-46017884D01*
X149826280Y-46031768D01*
X149830565Y-46069797D01*
X153025000Y-46069797D01*
X153025000Y-45024000D01*
X153005315Y-44956961D01*
X152952511Y-44911206D01*
X152901000Y-44900000D01*
X145149000Y-44900000D01*
X145081961Y-44919685D01*
G37*
%TD.AperFunction*%
%TD*%
%TA.AperFunction,Conductor*%
%TO.N,GND*%
G36*
X156187575Y-34919685D02*
G01*
X156141820Y-34972489D01*
X156131876Y-35041647D01*
X156153046Y-35090626D01*
X156151111Y-35091842D01*
X156250789Y-35250476D01*
X156310369Y-35420745D01*
X156310370Y-35420750D01*
X156330565Y-35599996D01*
X156330565Y-35600003D01*
X156310370Y-35779249D01*
X156310369Y-35779254D01*
X156250789Y-35949523D01*
X156154816Y-36102262D01*
X156027262Y-36229816D01*
X156027258Y-36229819D01*
X156022191Y-36233859D01*
X155982048Y-36291046D01*
X155975500Y-36330809D01*
X155975500Y-37356957D01*
X155988109Y-37399897D01*
X155977360Y-37421648D01*
X155975500Y-37443042D01*
X155975500Y-39669190D01*
X155995185Y-39736229D01*
X156022185Y-39766135D01*
X156027262Y-39770183D01*
X156154816Y-39897737D01*
X156250789Y-40050476D01*
X156310369Y-40220745D01*
X156310370Y-40220750D01*
X156330565Y-40399996D01*
X156330565Y-40400003D01*
X156310370Y-40579249D01*
X156310369Y-40579254D01*
X156250789Y-40749523D01*
X156204056Y-40823897D01*
X156154816Y-40902262D01*
X156027262Y-41029816D01*
X155943505Y-41082444D01*
X155904422Y-41107002D01*
X155874522Y-41125789D01*
X155770977Y-41162021D01*
X155704255Y-41185368D01*
X155704250Y-41185369D01*
X155525004Y-41205565D01*
X155525000Y-41205565D01*
X155524996Y-41205565D01*
X155345751Y-41185369D01*
X155345749Y-41185368D01*
X155345745Y-41185368D01*
X155345742Y-41185366D01*
X155345738Y-41185366D01*
X155189955Y-41130855D01*
X155120176Y-41127293D01*
X155059549Y-41162021D01*
X155027321Y-41224015D01*
X155025000Y-41247896D01*
X155025000Y-41848638D01*
X155044685Y-41915677D01*
X155061319Y-41936319D01*
X156988681Y-43863681D01*
X157050004Y-43897166D01*
X157076362Y-43900000D01*
X160973638Y-43900000D01*
X161040677Y-43880315D01*
X161061319Y-43863681D01*
X162320022Y-42604978D01*
X162353507Y-42543655D01*
X162348523Y-42473963D01*
X162306651Y-42418030D01*
X162241187Y-42393613D01*
X162218458Y-42394077D01*
X162034269Y-42414830D01*
X162034265Y-42414830D01*
X162034261Y-42414830D01*
X161855016Y-42394634D01*
X161855013Y-42394633D01*
X161855010Y-42394633D01*
X161684743Y-42335054D01*
X161532003Y-42239081D01*
X161404449Y-42111527D01*
X161308476Y-41958787D01*
X161248897Y-41788520D01*
X161243593Y-41741438D01*
X161216528Y-41677028D01*
X161208064Y-41667652D01*
X160926271Y-41385860D01*
X160926267Y-41385858D01*
X160839142Y-41298733D01*
X160770689Y-41196286D01*
X160723537Y-41082452D01*
X160699500Y-40961606D01*
X160699500Y-40944854D01*
X160680493Y-40878881D01*
X160599212Y-40749524D01*
X160599211Y-40749522D01*
X160539632Y-40579255D01*
X160537104Y-40556818D01*
X160519435Y-40400003D01*
X160519435Y-40399996D01*
X160539631Y-40220750D01*
X160539632Y-40220745D01*
X160599212Y-40050476D01*
X160695185Y-39897737D01*
X160822738Y-39770184D01*
X160975477Y-39674211D01*
X161145746Y-39614631D01*
X161145751Y-39614630D01*
X161324996Y-39594435D01*
X161325004Y-39594435D01*
X161504250Y-39614630D01*
X161504255Y-39614631D01*
X161674524Y-39674211D01*
X161827263Y-39770184D01*
X161954816Y-39897737D01*
X162050789Y-40050476D01*
X162110369Y-40220745D01*
X162110370Y-40220750D01*
X162130565Y-40399996D01*
X162130565Y-40400003D01*
X162110369Y-40579252D01*
X162083280Y-40656670D01*
X162079719Y-40726449D01*
X162114448Y-40787076D01*
X162176442Y-40819303D01*
X162186435Y-40820844D01*
X162213516Y-40823895D01*
X162383787Y-40883475D01*
X162536528Y-40979449D01*
X162664081Y-41107002D01*
X162760056Y-41259745D01*
X162783959Y-41328056D01*
X162824680Y-41384832D01*
X162889633Y-41410579D01*
X162958195Y-41397123D01*
X163008598Y-41348735D01*
X163025000Y-41287101D01*
X163025000Y-37899996D01*
X159830565Y-37899996D01*
X159830565Y-37900003D01*
X159810370Y-38079249D01*
X159810369Y-38079254D01*
X159750789Y-38249523D01*
X159719868Y-38298733D01*
X159654816Y-38402262D01*
X159527262Y-38529816D01*
X159374522Y-38625789D01*
X159204255Y-38685368D01*
X159204250Y-38685369D01*
X159025004Y-38705565D01*
X159025000Y-38705565D01*
X159024996Y-38705565D01*
X158845751Y-38685369D01*
X158845748Y-38685368D01*
X158845745Y-38685368D01*
X158675478Y-38625789D01*
X158546117Y-38544505D01*
X158480145Y-38525500D01*
X157463392Y-38525500D01*
X157463392Y-38525499D01*
X157399022Y-38512696D01*
X157399021Y-38512696D01*
X157379850Y-38508882D01*
X157342548Y-38501463D01*
X157309208Y-38487652D01*
X157228714Y-38454312D01*
X157177491Y-38420084D01*
X157126267Y-38385858D01*
X157039142Y-38298733D01*
X157039141Y-38298731D01*
X157032075Y-38291665D01*
X157032072Y-38291661D01*
X156966621Y-38226209D01*
X156905300Y-38192726D01*
X156892844Y-38190674D01*
X156845745Y-38185368D01*
X156675478Y-38125789D01*
X156522738Y-38029816D01*
X156395184Y-37902262D01*
X156299211Y-37749522D01*
X156239632Y-37579255D01*
X156239631Y-37579249D01*
X156222720Y-37429159D01*
X156211575Y-37402633D01*
X156218477Y-37391892D01*
X156222720Y-37370840D01*
X156239631Y-37220750D01*
X156239632Y-37220745D01*
X156299212Y-37050476D01*
X156395185Y-36897737D01*
X156522738Y-36770184D01*
X156675477Y-36674211D01*
X156845746Y-36614631D01*
X156845751Y-36614630D01*
X157024996Y-36594435D01*
X157025004Y-36594435D01*
X157204250Y-36614630D01*
X157204255Y-36614631D01*
X157374524Y-36674211D01*
X157527263Y-36770184D01*
X157654816Y-36897737D01*
X157750790Y-37050478D01*
X157780945Y-37136658D01*
X157800120Y-37191455D01*
X157840840Y-37248230D01*
X157905792Y-37273978D01*
X157917160Y-37274500D01*
X158480145Y-37274500D01*
X158546117Y-37255494D01*
X158675477Y-37174211D01*
X158845746Y-37114631D01*
X158845751Y-37114630D01*
X159024996Y-37094435D01*
X159025004Y-37094435D01*
X159204250Y-37114630D01*
X159204255Y-37114631D01*
X159374524Y-37174211D01*
X159527263Y-37270184D01*
X159654816Y-37397737D01*
X159750789Y-37550476D01*
X159810369Y-37720745D01*
X159810370Y-37720750D01*
X159830565Y-37899996D01*
X163025000Y-37899996D01*
X163025000Y-35024000D01*
X163005315Y-34956961D01*
X162952511Y-34911206D01*
X162901000Y-34900000D01*
X156254614Y-34900000D01*
X156187575Y-34919685D01*
G37*
%TD.AperFunction*%
%TD*%
%TA.AperFunction,Conductor*%
%TO.N,GND*%
G36*
X18237027Y-28970185D02*
G01*
X18282782Y-29022989D01*
X18292726Y-29092147D01*
X18271805Y-29140532D01*
X18273889Y-29141842D01*
X18174211Y-29300476D01*
X18114631Y-29470745D01*
X18114630Y-29470750D01*
X18094435Y-29649996D01*
X18094435Y-29650003D01*
X18114630Y-29829249D01*
X18114631Y-29829254D01*
X18174211Y-29999523D01*
X18237347Y-30100003D01*
X18270184Y-30152262D01*
X18397738Y-30279816D01*
X18488080Y-30336582D01*
X18532721Y-30364632D01*
X18550478Y-30375789D01*
X18688860Y-30424211D01*
X18720745Y-30435368D01*
X18720750Y-30435369D01*
X18899996Y-30455565D01*
X18900000Y-30455565D01*
X18900004Y-30455565D01*
X19079249Y-30435369D01*
X19079252Y-30435368D01*
X19079255Y-30435368D01*
X19159017Y-30407457D01*
X19199972Y-30400500D01*
X19924877Y-30400500D01*
X19991916Y-30420185D01*
X20029867Y-30458524D01*
X20120184Y-30602262D01*
X20247738Y-30729816D01*
X20338080Y-30786582D01*
X20360192Y-30800476D01*
X20400478Y-30825789D01*
X20570745Y-30885368D01*
X20570750Y-30885369D01*
X20749996Y-30905565D01*
X20750000Y-30905565D01*
X20750004Y-30905565D01*
X20929249Y-30885369D01*
X20929252Y-30885368D01*
X20929255Y-30885368D01*
X21099522Y-30825789D01*
X21252262Y-30729816D01*
X21379816Y-30602262D01*
X21475789Y-30449522D01*
X21535368Y-30279255D01*
X21555565Y-30100000D01*
X21544244Y-29999523D01*
X21535369Y-29920750D01*
X21535368Y-29920745D01*
X21475788Y-29750476D01*
X21379815Y-29597737D01*
X21252262Y-29470184D01*
X21099522Y-29374211D01*
X21099519Y-29374210D01*
X21099516Y-29374208D01*
X21093242Y-29371186D01*
X21094123Y-29369356D01*
X21058060Y-29346692D01*
X20873550Y-29162181D01*
X20840065Y-29100858D01*
X20845049Y-29031166D01*
X20886921Y-28975233D01*
X20952385Y-28950816D01*
X20961231Y-28950500D01*
X114775500Y-28950500D01*
X114842539Y-28970185D01*
X114888294Y-29022989D01*
X114899500Y-29074500D01*
X114899500Y-35825500D01*
X114879815Y-35892539D01*
X114827011Y-35938294D01*
X114775500Y-35949500D01*
X108810576Y-35949500D01*
X108743537Y-35929815D01*
X108697782Y-35877011D01*
X108687356Y-35811617D01*
X108705565Y-35650003D01*
X108705565Y-35649996D01*
X108685369Y-35470750D01*
X108685366Y-35470737D01*
X108641370Y-35345005D01*
X108637808Y-35275226D01*
X108672536Y-35214599D01*
X108717457Y-35187008D01*
X108749522Y-35175789D01*
X108902262Y-35079816D01*
X109029816Y-34952262D01*
X109125789Y-34799522D01*
X109185368Y-34629255D01*
X109205565Y-34450000D01*
X109186184Y-34277988D01*
X109185369Y-34270750D01*
X109185368Y-34270745D01*
X109125788Y-34100476D01*
X109029815Y-33947737D01*
X108902262Y-33820184D01*
X108749523Y-33724211D01*
X108579254Y-33664631D01*
X108579249Y-33664630D01*
X108400004Y-33644435D01*
X108399996Y-33644435D01*
X108220750Y-33664630D01*
X108220745Y-33664631D01*
X108050476Y-33724211D01*
X107897737Y-33820184D01*
X107770184Y-33947737D01*
X107674210Y-34100478D01*
X107614632Y-34270744D01*
X107614630Y-34270752D01*
X107613815Y-34277988D01*
X107586743Y-34342400D01*
X107578278Y-34351775D01*
X107394723Y-34535331D01*
X107346959Y-34606817D01*
X107346957Y-34606819D01*
X107323539Y-34641864D01*
X107323533Y-34641875D01*
X107274499Y-34760255D01*
X107274497Y-34760261D01*
X107249500Y-34885928D01*
X107249500Y-35144931D01*
X107230494Y-35210903D01*
X107174211Y-35300477D01*
X107174209Y-35300481D01*
X107114633Y-35470737D01*
X107114630Y-35470750D01*
X107094435Y-35649996D01*
X107094435Y-35650003D01*
X107112644Y-35811617D01*
X107100589Y-35880439D01*
X107053240Y-35931818D01*
X106989424Y-35949500D01*
X17024500Y-35949500D01*
X16957461Y-35929815D01*
X16911706Y-35877011D01*
X16900500Y-35825500D01*
X16900500Y-31149996D01*
X108594435Y-31149996D01*
X108594435Y-31150003D01*
X108614630Y-31329249D01*
X108614631Y-31329254D01*
X108674211Y-31499523D01*
X108674212Y-31499524D01*
X108770184Y-31652262D01*
X108897738Y-31779816D01*
X109050478Y-31875789D01*
X109220745Y-31935368D01*
X109220750Y-31935369D01*
X109399996Y-31955565D01*
X109400000Y-31955565D01*
X109400004Y-31955565D01*
X109579249Y-31935369D01*
X109579252Y-31935368D01*
X109579255Y-31935368D01*
X109659017Y-31907457D01*
X109699972Y-31900500D01*
X110075504Y-31900500D01*
X110142543Y-31920185D01*
X110188298Y-31972989D01*
X110198242Y-32042147D01*
X110180497Y-32090473D01*
X110174211Y-32100475D01*
X110114631Y-32270745D01*
X110114630Y-32270750D01*
X110094435Y-32449996D01*
X110094435Y-32450003D01*
X110114630Y-32629249D01*
X110114631Y-32629254D01*
X110174211Y-32799523D01*
X110270184Y-32952262D01*
X110397738Y-33079816D01*
X110550478Y-33175789D01*
X110720739Y-33235366D01*
X110720745Y-33235368D01*
X110720750Y-33235369D01*
X110899996Y-33255565D01*
X110900000Y-33255565D01*
X110900004Y-33255565D01*
X111079249Y-33235369D01*
X111079251Y-33235368D01*
X111079255Y-33235368D01*
X111079258Y-33235366D01*
X111079262Y-33235366D01*
X111169377Y-33203832D01*
X111249522Y-33175789D01*
X111339096Y-33119505D01*
X111405068Y-33100500D01*
X112394932Y-33100500D01*
X112460904Y-33119506D01*
X112550477Y-33175789D01*
X112550481Y-33175790D01*
X112720737Y-33235366D01*
X112720743Y-33235367D01*
X112720745Y-33235368D01*
X112720746Y-33235368D01*
X112720750Y-33235369D01*
X112899996Y-33255565D01*
X112900000Y-33255565D01*
X112900004Y-33255565D01*
X113079249Y-33235369D01*
X113079252Y-33235368D01*
X113079255Y-33235368D01*
X113249522Y-33175789D01*
X113402262Y-33079816D01*
X113529816Y-32952262D01*
X113625789Y-32799522D01*
X113685368Y-32629255D01*
X113705565Y-32450000D01*
X113685368Y-32270745D01*
X113625789Y-32100478D01*
X113619502Y-32090473D01*
X113529815Y-31947737D01*
X113402262Y-31820184D01*
X113249523Y-31724211D01*
X113079254Y-31664631D01*
X113079249Y-31664630D01*
X112900004Y-31644435D01*
X112899996Y-31644435D01*
X112720750Y-31664630D01*
X112720737Y-31664633D01*
X112550481Y-31724209D01*
X112550477Y-31724210D01*
X112460904Y-31780494D01*
X112394932Y-31799500D01*
X112320359Y-31799500D01*
X112253320Y-31779815D01*
X112207565Y-31727011D01*
X112197621Y-31657853D01*
X112215366Y-31609527D01*
X112284486Y-31499524D01*
X112344066Y-31329254D01*
X112344067Y-31329249D01*
X112364263Y-31150003D01*
X112364263Y-31149996D01*
X112344067Y-30970750D01*
X112344066Y-30970745D01*
X112284487Y-30800478D01*
X112188514Y-30647738D01*
X112060960Y-30520184D01*
X111908221Y-30424211D01*
X111737952Y-30364631D01*
X111737947Y-30364630D01*
X111558702Y-30344435D01*
X111558694Y-30344435D01*
X111379448Y-30364630D01*
X111379443Y-30364631D01*
X111299681Y-30392542D01*
X111258726Y-30399500D01*
X109699972Y-30399500D01*
X109659017Y-30392542D01*
X109579254Y-30364631D01*
X109579249Y-30364630D01*
X109400004Y-30344435D01*
X109399996Y-30344435D01*
X109220750Y-30364630D01*
X109220745Y-30364631D01*
X109050476Y-30424211D01*
X108897737Y-30520184D01*
X108770184Y-30647737D01*
X108674211Y-30800476D01*
X108614631Y-30970745D01*
X108614630Y-30970750D01*
X108594435Y-31149996D01*
X16900500Y-31149996D01*
X16900500Y-29074500D01*
X16920185Y-29007461D01*
X16972989Y-28961706D01*
X17024500Y-28950500D01*
X18169988Y-28950500D01*
X18237027Y-28970185D01*
G37*
%TD.AperFunction*%
%TD*%
%TA.AperFunction,Conductor*%
%TO.N,GND*%
G36*
X18612027Y-113120185D02*
G01*
X18657782Y-113172989D01*
X18667726Y-113242147D01*
X18646805Y-113290532D01*
X18648889Y-113291842D01*
X18549211Y-113450476D01*
X18489631Y-113620745D01*
X18489630Y-113620750D01*
X18469435Y-113799996D01*
X18469435Y-113800003D01*
X18489630Y-113979249D01*
X18489631Y-113979254D01*
X18549211Y-114149523D01*
X18612347Y-114250003D01*
X18645184Y-114302262D01*
X18772738Y-114429816D01*
X18925478Y-114525789D01*
X19074897Y-114578073D01*
X19095745Y-114585368D01*
X19095750Y-114585369D01*
X19274996Y-114605565D01*
X19275000Y-114605565D01*
X19275004Y-114605565D01*
X19454249Y-114585369D01*
X19454252Y-114585368D01*
X19454255Y-114585368D01*
X19534017Y-114557457D01*
X19574972Y-114550500D01*
X20299877Y-114550500D01*
X20366916Y-114570185D01*
X20404867Y-114608524D01*
X20495184Y-114752262D01*
X20622738Y-114879816D01*
X20775478Y-114975789D01*
X20945745Y-115035368D01*
X20945750Y-115035369D01*
X21124996Y-115055565D01*
X21125000Y-115055565D01*
X21125004Y-115055565D01*
X21304249Y-115035369D01*
X21304252Y-115035368D01*
X21304255Y-115035368D01*
X21474522Y-114975789D01*
X21627262Y-114879816D01*
X21754816Y-114752262D01*
X21850789Y-114599522D01*
X21910368Y-114429255D01*
X21930565Y-114250000D01*
X21919244Y-114149523D01*
X21910369Y-114070750D01*
X21910368Y-114070745D01*
X21850788Y-113900476D01*
X21754815Y-113747737D01*
X21627262Y-113620184D01*
X21474522Y-113524211D01*
X21474519Y-113524210D01*
X21474516Y-113524208D01*
X21468242Y-113521186D01*
X21469123Y-113519356D01*
X21433060Y-113496692D01*
X21248550Y-113312181D01*
X21215065Y-113250858D01*
X21220049Y-113181166D01*
X21261921Y-113125233D01*
X21327385Y-113100816D01*
X21336231Y-113100500D01*
X110401098Y-113100500D01*
X110468137Y-113120185D01*
X110513892Y-113172989D01*
X110523836Y-113242147D01*
X110494811Y-113305703D01*
X110467070Y-113329494D01*
X110322737Y-113420184D01*
X110195184Y-113547737D01*
X110099211Y-113700476D01*
X110039631Y-113870745D01*
X110039630Y-113870750D01*
X110019435Y-114049996D01*
X110019435Y-114050003D01*
X110039630Y-114229249D01*
X110039631Y-114229254D01*
X110099211Y-114399523D01*
X110178549Y-114525788D01*
X110195184Y-114552262D01*
X110322738Y-114679816D01*
X110475478Y-114775789D01*
X110546098Y-114800500D01*
X110645745Y-114835368D01*
X110645750Y-114835369D01*
X110824996Y-114855565D01*
X110825000Y-114855565D01*
X110825004Y-114855565D01*
X111004249Y-114835369D01*
X111004252Y-114835368D01*
X111004255Y-114835368D01*
X111084017Y-114807457D01*
X111124972Y-114800500D01*
X112475028Y-114800500D01*
X112515983Y-114807458D01*
X112595745Y-114835368D01*
X112595750Y-114835369D01*
X112774996Y-114855565D01*
X112775000Y-114855565D01*
X112775004Y-114855565D01*
X112954249Y-114835369D01*
X112954252Y-114835368D01*
X112954255Y-114835368D01*
X113124522Y-114775789D01*
X113277262Y-114679816D01*
X113404816Y-114552262D01*
X113500789Y-114399522D01*
X113560368Y-114229255D01*
X113580565Y-114050000D01*
X113572593Y-113979249D01*
X113560369Y-113870750D01*
X113560368Y-113870745D01*
X113517326Y-113747738D01*
X113500789Y-113700478D01*
X113404816Y-113547738D01*
X113277262Y-113420184D01*
X113132930Y-113329494D01*
X113086639Y-113277159D01*
X113075991Y-113208105D01*
X113104366Y-113144257D01*
X113162756Y-113105885D01*
X113198902Y-113100500D01*
X115150500Y-113100500D01*
X115217539Y-113120185D01*
X115263294Y-113172989D01*
X115274500Y-113224500D01*
X115274500Y-119975500D01*
X115254815Y-120042539D01*
X115202011Y-120088294D01*
X115150500Y-120099500D01*
X110185576Y-120099500D01*
X110118537Y-120079815D01*
X110072782Y-120027011D01*
X110062356Y-119961617D01*
X110080565Y-119800003D01*
X110080565Y-119799996D01*
X110060369Y-119620750D01*
X110060366Y-119620737D01*
X110000790Y-119450481D01*
X110000789Y-119450478D01*
X109979008Y-119415814D01*
X109944506Y-119360903D01*
X109925500Y-119294931D01*
X109925500Y-119105067D01*
X109944507Y-119039094D01*
X110000788Y-118949524D01*
X110060368Y-118779254D01*
X110060369Y-118779249D01*
X110080565Y-118600003D01*
X110080565Y-118599996D01*
X110060369Y-118420750D01*
X110060368Y-118420745D01*
X110000788Y-118250476D01*
X109904815Y-118097737D01*
X109777262Y-117970184D01*
X109624523Y-117874211D01*
X109454254Y-117814631D01*
X109454249Y-117814630D01*
X109275004Y-117794435D01*
X109274996Y-117794435D01*
X109095750Y-117814630D01*
X109095745Y-117814631D01*
X108925476Y-117874211D01*
X108772737Y-117970184D01*
X108645184Y-118097737D01*
X108549211Y-118250476D01*
X108489631Y-118420745D01*
X108489630Y-118420750D01*
X108469435Y-118599996D01*
X108469435Y-118600003D01*
X108489630Y-118779249D01*
X108489631Y-118779254D01*
X108549211Y-118949524D01*
X108605493Y-119039094D01*
X108624500Y-119105067D01*
X108624500Y-119294931D01*
X108605494Y-119360903D01*
X108549211Y-119450477D01*
X108549209Y-119450481D01*
X108489633Y-119620737D01*
X108489630Y-119620750D01*
X108469435Y-119799996D01*
X108469435Y-119800003D01*
X108487644Y-119961617D01*
X108475589Y-120030439D01*
X108428240Y-120081818D01*
X108364424Y-120099500D01*
X17399500Y-120099500D01*
X17332461Y-120079815D01*
X17286706Y-120027011D01*
X17275500Y-119975500D01*
X17275500Y-116599996D01*
X110469435Y-116599996D01*
X110469435Y-116600003D01*
X110489630Y-116779249D01*
X110489631Y-116779254D01*
X110549211Y-116949523D01*
X110645184Y-117102262D01*
X110772738Y-117229816D01*
X110925478Y-117325789D01*
X111095739Y-117385366D01*
X111095745Y-117385368D01*
X111095750Y-117385369D01*
X111274996Y-117405565D01*
X111275000Y-117405565D01*
X111275004Y-117405565D01*
X111454249Y-117385369D01*
X111454251Y-117385368D01*
X111454255Y-117385368D01*
X111454258Y-117385366D01*
X111454262Y-117385366D01*
X111544377Y-117353832D01*
X111624522Y-117325789D01*
X111714096Y-117269505D01*
X111780068Y-117250500D01*
X112769932Y-117250500D01*
X112835904Y-117269506D01*
X112925477Y-117325789D01*
X112925481Y-117325790D01*
X113095737Y-117385366D01*
X113095743Y-117385367D01*
X113095745Y-117385368D01*
X113095746Y-117385368D01*
X113095750Y-117385369D01*
X113274996Y-117405565D01*
X113275000Y-117405565D01*
X113275004Y-117405565D01*
X113454249Y-117385369D01*
X113454252Y-117385368D01*
X113454255Y-117385368D01*
X113624522Y-117325789D01*
X113777262Y-117229816D01*
X113904816Y-117102262D01*
X114000789Y-116949522D01*
X114060368Y-116779255D01*
X114080565Y-116600000D01*
X114060368Y-116420745D01*
X114000789Y-116250478D01*
X113904816Y-116097738D01*
X113777262Y-115970184D01*
X113714096Y-115930494D01*
X113624523Y-115874211D01*
X113454254Y-115814631D01*
X113454249Y-115814630D01*
X113275004Y-115794435D01*
X113274996Y-115794435D01*
X113095750Y-115814630D01*
X113095737Y-115814633D01*
X112925481Y-115874209D01*
X112925477Y-115874210D01*
X112835904Y-115930494D01*
X112769932Y-115949500D01*
X111780068Y-115949500D01*
X111714096Y-115930494D01*
X111624522Y-115874210D01*
X111624518Y-115874209D01*
X111454262Y-115814633D01*
X111454249Y-115814630D01*
X111275004Y-115794435D01*
X111274996Y-115794435D01*
X111095750Y-115814630D01*
X111095745Y-115814631D01*
X110925476Y-115874211D01*
X110772737Y-115970184D01*
X110645184Y-116097737D01*
X110549211Y-116250476D01*
X110489631Y-116420745D01*
X110489630Y-116420750D01*
X110469435Y-116599996D01*
X17275500Y-116599996D01*
X17275500Y-113224500D01*
X17295185Y-113157461D01*
X17347989Y-113111706D01*
X17399500Y-113100500D01*
X18544988Y-113100500D01*
X18612027Y-113120185D01*
G37*
%TD.AperFunction*%
%TD*%
%TA.AperFunction,Conductor*%
%TO.N,GND*%
G36*
X18521341Y-91970185D02*
G01*
X18567096Y-92022989D01*
X18577040Y-92092147D01*
X18556119Y-92140532D01*
X18558203Y-92141842D01*
X18554498Y-92147737D01*
X18554498Y-92147738D01*
X18552560Y-92150822D01*
X18458525Y-92300476D01*
X18398945Y-92470745D01*
X18398944Y-92470750D01*
X18378749Y-92649996D01*
X18378749Y-92650003D01*
X18398944Y-92829249D01*
X18398945Y-92829254D01*
X18458525Y-92999523D01*
X18521661Y-93100003D01*
X18554498Y-93152262D01*
X18682052Y-93279816D01*
X18834792Y-93375789D01*
X18984211Y-93428073D01*
X19005059Y-93435368D01*
X19005064Y-93435369D01*
X19184310Y-93455565D01*
X19184314Y-93455565D01*
X19184318Y-93455565D01*
X19363563Y-93435369D01*
X19363566Y-93435368D01*
X19363569Y-93435368D01*
X19443331Y-93407457D01*
X19484286Y-93400500D01*
X20209191Y-93400500D01*
X20276230Y-93420185D01*
X20314181Y-93458524D01*
X20404498Y-93602262D01*
X20532052Y-93729816D01*
X20684792Y-93825789D01*
X20855059Y-93885368D01*
X20855064Y-93885369D01*
X21034310Y-93905565D01*
X21034314Y-93905565D01*
X21034318Y-93905565D01*
X21213563Y-93885369D01*
X21213566Y-93885368D01*
X21213569Y-93885368D01*
X21383836Y-93825789D01*
X21536576Y-93729816D01*
X21664130Y-93602262D01*
X21760103Y-93449522D01*
X21819682Y-93279255D01*
X21836583Y-93129254D01*
X21839879Y-93100003D01*
X21839879Y-93099996D01*
X21819683Y-92920750D01*
X21819682Y-92920745D01*
X21767196Y-92770750D01*
X21760103Y-92750478D01*
X21664130Y-92597738D01*
X21536576Y-92470184D01*
X21383836Y-92374211D01*
X21383833Y-92374210D01*
X21383830Y-92374208D01*
X21377556Y-92371186D01*
X21378437Y-92369356D01*
X21342374Y-92346692D01*
X21157864Y-92162181D01*
X21124379Y-92100858D01*
X21129363Y-92031166D01*
X21171235Y-91975233D01*
X21236699Y-91950816D01*
X21245545Y-91950500D01*
X109987200Y-91950500D01*
X110054239Y-91970185D01*
X110099994Y-92022989D01*
X110109938Y-92092147D01*
X110080913Y-92155703D01*
X110028154Y-92191542D01*
X109934792Y-92224210D01*
X109782051Y-92320184D01*
X109654498Y-92447737D01*
X109558525Y-92600476D01*
X109498945Y-92770745D01*
X109498944Y-92770750D01*
X109478749Y-92949996D01*
X109478749Y-92950003D01*
X109498944Y-93129249D01*
X109498945Y-93129254D01*
X109558525Y-93299523D01*
X109621974Y-93400500D01*
X109654498Y-93452262D01*
X109782052Y-93579816D01*
X109934792Y-93675789D01*
X110089192Y-93729816D01*
X110105059Y-93735368D01*
X110105064Y-93735369D01*
X110284310Y-93755565D01*
X110284314Y-93755565D01*
X110284318Y-93755565D01*
X110463563Y-93735369D01*
X110463566Y-93735368D01*
X110463569Y-93735368D01*
X110543331Y-93707457D01*
X110584286Y-93700500D01*
X111584342Y-93700500D01*
X111625297Y-93707458D01*
X111705059Y-93735368D01*
X111705064Y-93735369D01*
X111884310Y-93755565D01*
X111884314Y-93755565D01*
X111884318Y-93755565D01*
X112063563Y-93735369D01*
X112063566Y-93735368D01*
X112063569Y-93735368D01*
X112233836Y-93675789D01*
X112386576Y-93579816D01*
X112514130Y-93452262D01*
X112610103Y-93299522D01*
X112669682Y-93129255D01*
X112672978Y-93100003D01*
X112689879Y-92950003D01*
X112689879Y-92949996D01*
X112669683Y-92770750D01*
X112669682Y-92770745D01*
X112662590Y-92750476D01*
X112610103Y-92600478D01*
X112608381Y-92597738D01*
X112528586Y-92470745D01*
X112514130Y-92447738D01*
X112386576Y-92320184D01*
X112355211Y-92300476D01*
X112233835Y-92224210D01*
X112140474Y-92191542D01*
X112083697Y-92150820D01*
X112057950Y-92085867D01*
X112071406Y-92017306D01*
X112119793Y-91966903D01*
X112181428Y-91950500D01*
X115059814Y-91950500D01*
X115126853Y-91970185D01*
X115172608Y-92022989D01*
X115183814Y-92074500D01*
X115183814Y-98825500D01*
X115164129Y-98892539D01*
X115111325Y-98938294D01*
X115059814Y-98949500D01*
X111184873Y-98949500D01*
X111117834Y-98929815D01*
X111072079Y-98877011D01*
X111062135Y-98807853D01*
X111067831Y-98784546D01*
X111069681Y-98779257D01*
X111069682Y-98779255D01*
X111089879Y-98600000D01*
X111069682Y-98420745D01*
X111010103Y-98250478D01*
X110928819Y-98121116D01*
X110909814Y-98055145D01*
X110909814Y-98044854D01*
X110928821Y-97978881D01*
X111010102Y-97849524D01*
X111069682Y-97679254D01*
X111069683Y-97679249D01*
X111089879Y-97500003D01*
X111089879Y-97499996D01*
X111069683Y-97320750D01*
X111069682Y-97320745D01*
X111010102Y-97150476D01*
X110914129Y-96997737D01*
X110786576Y-96870184D01*
X110633837Y-96774211D01*
X110463568Y-96714631D01*
X110463563Y-96714630D01*
X110284318Y-96694435D01*
X110284310Y-96694435D01*
X110105064Y-96714630D01*
X110105059Y-96714631D01*
X109934790Y-96774211D01*
X109782051Y-96870184D01*
X109654498Y-96997737D01*
X109558525Y-97150476D01*
X109498945Y-97320745D01*
X109498944Y-97320750D01*
X109478749Y-97499996D01*
X109478749Y-97500003D01*
X109498944Y-97679249D01*
X109498945Y-97679254D01*
X109558525Y-97849524D01*
X109639807Y-97978881D01*
X109658814Y-98044854D01*
X109658814Y-98055145D01*
X109639808Y-98121117D01*
X109558525Y-98250476D01*
X109498945Y-98420745D01*
X109498944Y-98420750D01*
X109478749Y-98599996D01*
X109478749Y-98600003D01*
X109498944Y-98779249D01*
X109498946Y-98779257D01*
X109500797Y-98784546D01*
X109504358Y-98854325D01*
X109469629Y-98914952D01*
X109407636Y-98947179D01*
X109383755Y-98949500D01*
X17308814Y-98949500D01*
X17241775Y-98929815D01*
X17196020Y-98877011D01*
X17184814Y-98825500D01*
X17184814Y-95449996D01*
X110378749Y-95449996D01*
X110378749Y-95450003D01*
X110398944Y-95629249D01*
X110398945Y-95629254D01*
X110458525Y-95799523D01*
X110554498Y-95952262D01*
X110682052Y-96079816D01*
X110834792Y-96175789D01*
X111005053Y-96235366D01*
X111005059Y-96235368D01*
X111005064Y-96235369D01*
X111184310Y-96255565D01*
X111184314Y-96255565D01*
X111184318Y-96255565D01*
X111363563Y-96235369D01*
X111363565Y-96235368D01*
X111363569Y-96235368D01*
X111363572Y-96235366D01*
X111363576Y-96235366D01*
X111453691Y-96203832D01*
X111533836Y-96175789D01*
X111623410Y-96119505D01*
X111689382Y-96100500D01*
X112679246Y-96100500D01*
X112745218Y-96119506D01*
X112834791Y-96175789D01*
X112834795Y-96175790D01*
X113005051Y-96235366D01*
X113005057Y-96235367D01*
X113005059Y-96235368D01*
X113005060Y-96235368D01*
X113005064Y-96235369D01*
X113184310Y-96255565D01*
X113184314Y-96255565D01*
X113184318Y-96255565D01*
X113363563Y-96235369D01*
X113363566Y-96235368D01*
X113363569Y-96235368D01*
X113533836Y-96175789D01*
X113686576Y-96079816D01*
X113814130Y-95952262D01*
X113910103Y-95799522D01*
X113969682Y-95629255D01*
X113989879Y-95450000D01*
X113969682Y-95270745D01*
X113910103Y-95100478D01*
X113814130Y-94947738D01*
X113686576Y-94820184D01*
X113623410Y-94780494D01*
X113533837Y-94724211D01*
X113363568Y-94664631D01*
X113363563Y-94664630D01*
X113184318Y-94644435D01*
X113184310Y-94644435D01*
X113005064Y-94664630D01*
X113005051Y-94664633D01*
X112834795Y-94724209D01*
X112834791Y-94724210D01*
X112745218Y-94780494D01*
X112679246Y-94799500D01*
X111689382Y-94799500D01*
X111623410Y-94780494D01*
X111533836Y-94724210D01*
X111533832Y-94724209D01*
X111363576Y-94664633D01*
X111363563Y-94664630D01*
X111184318Y-94644435D01*
X111184310Y-94644435D01*
X111005064Y-94664630D01*
X111005059Y-94664631D01*
X110834790Y-94724211D01*
X110682051Y-94820184D01*
X110554498Y-94947737D01*
X110458525Y-95100476D01*
X110398945Y-95270745D01*
X110398944Y-95270750D01*
X110378749Y-95449996D01*
X17184814Y-95449996D01*
X17184814Y-92074500D01*
X17204499Y-92007461D01*
X17257303Y-91961706D01*
X17308814Y-91950500D01*
X18454302Y-91950500D01*
X18521341Y-91970185D01*
G37*
%TD.AperFunction*%
%TD*%
%TA.AperFunction,Conductor*%
%TO.N,GND*%
G36*
X18187027Y-8020185D02*
G01*
X18232782Y-8072989D01*
X18242726Y-8142147D01*
X18221805Y-8190532D01*
X18223889Y-8191842D01*
X18124211Y-8350476D01*
X18064631Y-8520745D01*
X18064630Y-8520750D01*
X18044435Y-8699996D01*
X18044435Y-8700003D01*
X18064630Y-8879249D01*
X18064631Y-8879254D01*
X18124211Y-9049523D01*
X18187347Y-9150003D01*
X18220184Y-9202262D01*
X18347738Y-9329816D01*
X18438080Y-9386582D01*
X18482721Y-9414632D01*
X18500478Y-9425789D01*
X18638860Y-9474211D01*
X18670745Y-9485368D01*
X18670750Y-9485369D01*
X18849996Y-9505565D01*
X18850000Y-9505565D01*
X18850004Y-9505565D01*
X19029249Y-9485369D01*
X19029252Y-9485368D01*
X19029255Y-9485368D01*
X19109017Y-9457457D01*
X19149972Y-9450500D01*
X19874877Y-9450500D01*
X19941916Y-9470185D01*
X19979867Y-9508524D01*
X20070184Y-9652262D01*
X20197738Y-9779816D01*
X20288080Y-9836582D01*
X20310192Y-9850476D01*
X20350478Y-9875789D01*
X20520745Y-9935368D01*
X20520750Y-9935369D01*
X20699996Y-9955565D01*
X20700000Y-9955565D01*
X20700004Y-9955565D01*
X20879249Y-9935369D01*
X20879252Y-9935368D01*
X20879255Y-9935368D01*
X21049522Y-9875789D01*
X21202262Y-9779816D01*
X21329816Y-9652262D01*
X21425789Y-9499522D01*
X21485368Y-9329255D01*
X21505565Y-9150000D01*
X21494244Y-9049523D01*
X21485369Y-8970750D01*
X21485368Y-8970745D01*
X21425788Y-8800476D01*
X21340715Y-8665084D01*
X21329816Y-8647738D01*
X21202262Y-8520184D01*
X21049522Y-8424211D01*
X21049519Y-8424210D01*
X21049516Y-8424208D01*
X21043242Y-8421186D01*
X21044123Y-8419356D01*
X21008060Y-8396692D01*
X20823550Y-8212181D01*
X20790065Y-8150858D01*
X20795049Y-8081166D01*
X20836921Y-8025233D01*
X20902385Y-8000816D01*
X20911231Y-8000500D01*
X30233132Y-8000500D01*
X30300171Y-8020185D01*
X30345926Y-8072989D01*
X30354749Y-8100308D01*
X30378340Y-8218907D01*
X30378343Y-8218917D01*
X30434912Y-8355488D01*
X30434919Y-8355501D01*
X30517048Y-8478415D01*
X30517051Y-8478419D01*
X30621580Y-8582948D01*
X30621584Y-8582951D01*
X30744498Y-8665080D01*
X30744511Y-8665087D01*
X30828807Y-8700003D01*
X30881087Y-8721658D01*
X30881091Y-8721658D01*
X30881092Y-8721659D01*
X31026079Y-8750500D01*
X31026082Y-8750500D01*
X37673920Y-8750500D01*
X37771462Y-8731096D01*
X37818913Y-8721658D01*
X37955495Y-8665084D01*
X38078416Y-8582951D01*
X38182951Y-8478416D01*
X38265084Y-8355495D01*
X38321658Y-8218913D01*
X38336928Y-8142147D01*
X38345251Y-8100308D01*
X38377636Y-8038397D01*
X38438352Y-8003823D01*
X38466868Y-8000500D01*
X89483132Y-8000500D01*
X89550171Y-8020185D01*
X89595926Y-8072989D01*
X89604749Y-8100308D01*
X89628340Y-8218907D01*
X89628343Y-8218917D01*
X89684912Y-8355488D01*
X89684919Y-8355501D01*
X89767048Y-8478415D01*
X89767051Y-8478419D01*
X89871580Y-8582948D01*
X89871584Y-8582951D01*
X89994498Y-8665080D01*
X89994511Y-8665087D01*
X90078807Y-8700003D01*
X90131087Y-8721658D01*
X90131091Y-8721658D01*
X90131092Y-8721659D01*
X90276079Y-8750500D01*
X90276082Y-8750500D01*
X96923920Y-8750500D01*
X97021462Y-8731096D01*
X97068913Y-8721658D01*
X97205495Y-8665084D01*
X97328416Y-8582951D01*
X97432951Y-8478416D01*
X97515084Y-8355495D01*
X97571658Y-8218913D01*
X97586928Y-8142147D01*
X97595251Y-8100308D01*
X97627636Y-8038397D01*
X97688352Y-8003823D01*
X97716868Y-8000500D01*
X114725500Y-8000500D01*
X114792539Y-8020185D01*
X114838294Y-8072989D01*
X114849500Y-8124500D01*
X114849500Y-14875500D01*
X114829815Y-14942539D01*
X114777011Y-14988294D01*
X114725500Y-14999500D01*
X108760576Y-14999500D01*
X108693537Y-14979815D01*
X108647782Y-14927011D01*
X108637356Y-14861617D01*
X108655565Y-14700003D01*
X108655565Y-14699996D01*
X108635369Y-14520750D01*
X108635366Y-14520737D01*
X108591370Y-14395005D01*
X108587808Y-14325226D01*
X108622536Y-14264599D01*
X108667457Y-14237008D01*
X108699522Y-14225789D01*
X108852262Y-14129816D01*
X108979816Y-14002262D01*
X109075789Y-13849522D01*
X109135368Y-13679255D01*
X109155565Y-13500000D01*
X109136184Y-13327988D01*
X109135369Y-13320750D01*
X109135368Y-13320745D01*
X109075788Y-13150476D01*
X108979815Y-12997737D01*
X108852262Y-12870184D01*
X108699523Y-12774211D01*
X108529254Y-12714631D01*
X108529249Y-12714630D01*
X108350004Y-12694435D01*
X108349996Y-12694435D01*
X108170750Y-12714630D01*
X108170745Y-12714631D01*
X108000476Y-12774211D01*
X107847737Y-12870184D01*
X107720184Y-12997737D01*
X107624210Y-13150478D01*
X107564632Y-13320744D01*
X107564630Y-13320752D01*
X107563815Y-13327988D01*
X107536743Y-13392400D01*
X107528278Y-13401775D01*
X107344723Y-13585331D01*
X107296959Y-13656817D01*
X107296957Y-13656819D01*
X107273539Y-13691864D01*
X107273533Y-13691875D01*
X107224499Y-13810255D01*
X107224497Y-13810261D01*
X107199500Y-13935928D01*
X107199500Y-14194931D01*
X107180494Y-14260903D01*
X107124211Y-14350477D01*
X107124209Y-14350481D01*
X107064633Y-14520737D01*
X107064630Y-14520750D01*
X107044435Y-14699996D01*
X107044435Y-14700003D01*
X107062644Y-14861617D01*
X107050589Y-14930439D01*
X107003240Y-14981818D01*
X106939424Y-14999500D01*
X97716868Y-14999500D01*
X97649829Y-14979815D01*
X97604074Y-14927011D01*
X97595251Y-14899692D01*
X97571659Y-14781092D01*
X97571658Y-14781091D01*
X97571658Y-14781087D01*
X97538069Y-14699996D01*
X97515087Y-14644511D01*
X97515080Y-14644498D01*
X97432951Y-14521584D01*
X97432948Y-14521580D01*
X97328419Y-14417051D01*
X97328415Y-14417048D01*
X97205501Y-14334919D01*
X97205488Y-14334912D01*
X97068917Y-14278343D01*
X97068907Y-14278340D01*
X96923920Y-14249500D01*
X96923918Y-14249500D01*
X96915892Y-14249500D01*
X90415892Y-14249500D01*
X90350000Y-14249500D01*
X90276082Y-14249500D01*
X90276080Y-14249500D01*
X90131092Y-14278340D01*
X90131082Y-14278343D01*
X89994511Y-14334912D01*
X89994498Y-14334919D01*
X89871584Y-14417048D01*
X89871580Y-14417051D01*
X89767051Y-14521580D01*
X89767048Y-14521584D01*
X89684919Y-14644498D01*
X89684912Y-14644511D01*
X89628343Y-14781082D01*
X89628340Y-14781092D01*
X89604749Y-14899692D01*
X89572364Y-14961603D01*
X89511648Y-14996177D01*
X89483132Y-14999500D01*
X38466868Y-14999500D01*
X38399829Y-14979815D01*
X38354074Y-14927011D01*
X38345251Y-14899692D01*
X38321659Y-14781092D01*
X38321658Y-14781091D01*
X38321658Y-14781087D01*
X38288069Y-14699996D01*
X38265087Y-14644511D01*
X38265080Y-14644498D01*
X38182951Y-14521584D01*
X38182948Y-14521580D01*
X38078419Y-14417051D01*
X38078415Y-14417048D01*
X37955501Y-14334919D01*
X37955488Y-14334912D01*
X37818917Y-14278343D01*
X37818907Y-14278340D01*
X37673920Y-14249500D01*
X37673918Y-14249500D01*
X37665892Y-14249500D01*
X31165892Y-14249500D01*
X31100000Y-14249500D01*
X31026082Y-14249500D01*
X31026080Y-14249500D01*
X30881092Y-14278340D01*
X30881082Y-14278343D01*
X30744511Y-14334912D01*
X30744498Y-14334919D01*
X30621584Y-14417048D01*
X30621580Y-14417051D01*
X30517051Y-14521580D01*
X30517048Y-14521584D01*
X30434919Y-14644498D01*
X30434912Y-14644511D01*
X30378343Y-14781082D01*
X30378340Y-14781092D01*
X30354749Y-14899692D01*
X30322364Y-14961603D01*
X30261648Y-14996177D01*
X30233132Y-14999500D01*
X16974500Y-14999500D01*
X16907461Y-14979815D01*
X16861706Y-14927011D01*
X16850500Y-14875500D01*
X16850500Y-10199996D01*
X108544435Y-10199996D01*
X108544435Y-10200003D01*
X108564630Y-10379249D01*
X108564631Y-10379254D01*
X108624211Y-10549523D01*
X108624212Y-10549524D01*
X108720184Y-10702262D01*
X108847738Y-10829816D01*
X109000478Y-10925789D01*
X109170745Y-10985368D01*
X109170750Y-10985369D01*
X109349996Y-11005565D01*
X109350000Y-11005565D01*
X109350004Y-11005565D01*
X109529249Y-10985369D01*
X109529252Y-10985368D01*
X109529255Y-10985368D01*
X109609017Y-10957457D01*
X109649972Y-10950500D01*
X110025504Y-10950500D01*
X110092543Y-10970185D01*
X110138298Y-11022989D01*
X110148242Y-11092147D01*
X110130497Y-11140473D01*
X110124211Y-11150475D01*
X110064631Y-11320745D01*
X110064630Y-11320750D01*
X110044435Y-11499996D01*
X110044435Y-11500003D01*
X110064630Y-11679249D01*
X110064631Y-11679254D01*
X110124211Y-11849523D01*
X110220184Y-12002262D01*
X110347738Y-12129816D01*
X110500478Y-12225789D01*
X110670739Y-12285366D01*
X110670745Y-12285368D01*
X110670750Y-12285369D01*
X110849996Y-12305565D01*
X110850000Y-12305565D01*
X110850004Y-12305565D01*
X111029249Y-12285369D01*
X111029251Y-12285368D01*
X111029255Y-12285368D01*
X111029258Y-12285366D01*
X111029262Y-12285366D01*
X111119377Y-12253832D01*
X111199522Y-12225789D01*
X111289096Y-12169505D01*
X111355068Y-12150500D01*
X112344932Y-12150500D01*
X112410904Y-12169506D01*
X112500477Y-12225789D01*
X112500481Y-12225790D01*
X112670737Y-12285366D01*
X112670743Y-12285367D01*
X112670745Y-12285368D01*
X112670746Y-12285368D01*
X112670750Y-12285369D01*
X112849996Y-12305565D01*
X112850000Y-12305565D01*
X112850004Y-12305565D01*
X113029249Y-12285369D01*
X113029252Y-12285368D01*
X113029255Y-12285368D01*
X113199522Y-12225789D01*
X113352262Y-12129816D01*
X113479816Y-12002262D01*
X113575789Y-11849522D01*
X113635368Y-11679255D01*
X113655565Y-11500000D01*
X113635368Y-11320745D01*
X113575789Y-11150478D01*
X113569502Y-11140473D01*
X113479815Y-10997737D01*
X113352262Y-10870184D01*
X113199523Y-10774211D01*
X113029254Y-10714631D01*
X113029249Y-10714630D01*
X112850004Y-10694435D01*
X112849996Y-10694435D01*
X112670750Y-10714630D01*
X112670737Y-10714633D01*
X112500481Y-10774209D01*
X112500477Y-10774210D01*
X112410904Y-10830494D01*
X112344932Y-10849500D01*
X112270359Y-10849500D01*
X112203320Y-10829815D01*
X112157565Y-10777011D01*
X112147621Y-10707853D01*
X112165366Y-10659527D01*
X112234486Y-10549524D01*
X112294066Y-10379254D01*
X112294067Y-10379249D01*
X112314263Y-10200003D01*
X112314263Y-10199996D01*
X112294067Y-10020750D01*
X112294066Y-10020745D01*
X112234487Y-9850478D01*
X112138514Y-9697738D01*
X112010960Y-9570184D01*
X111858221Y-9474211D01*
X111687952Y-9414631D01*
X111687947Y-9414630D01*
X111508702Y-9394435D01*
X111508694Y-9394435D01*
X111329448Y-9414630D01*
X111329443Y-9414631D01*
X111249681Y-9442542D01*
X111208726Y-9449500D01*
X109649972Y-9449500D01*
X109609017Y-9442542D01*
X109529254Y-9414631D01*
X109529249Y-9414630D01*
X109350004Y-9394435D01*
X109349996Y-9394435D01*
X109170750Y-9414630D01*
X109170745Y-9414631D01*
X109000476Y-9474211D01*
X108847737Y-9570184D01*
X108720184Y-9697737D01*
X108624211Y-9850476D01*
X108564631Y-10020745D01*
X108564630Y-10020750D01*
X108544435Y-10199996D01*
X16850500Y-10199996D01*
X16850500Y-8124500D01*
X16870185Y-8057461D01*
X16922989Y-8011706D01*
X16974500Y-8000500D01*
X18119988Y-8000500D01*
X18187027Y-8020185D01*
G37*
%TD.AperFunction*%
%TD*%
%TA.AperFunction,Conductor*%
%TO.N,GND*%
G36*
X136081961Y-51919685D02*
G01*
X136036206Y-51972489D01*
X136025000Y-52024000D01*
X136025000Y-59776000D01*
X136044685Y-59843039D01*
X136097489Y-59888794D01*
X136149000Y-59900000D01*
X141901000Y-59900000D01*
X141968039Y-59880315D01*
X142013794Y-59827511D01*
X142025000Y-59776000D01*
X142025000Y-56878041D01*
X142005315Y-56811002D01*
X141952511Y-56765247D01*
X141883353Y-56755303D01*
X141819797Y-56784328D01*
X141813319Y-56790360D01*
X141777262Y-56826417D01*
X141624522Y-56922390D01*
X141454255Y-56981969D01*
X141454250Y-56981970D01*
X141275004Y-57002166D01*
X141275000Y-57002166D01*
X141274996Y-57002166D01*
X141095751Y-56981970D01*
X141095748Y-56981969D01*
X141095745Y-56981969D01*
X140925478Y-56922390D01*
X140772738Y-56826417D01*
X140645184Y-56698863D01*
X140549211Y-56546123D01*
X140549208Y-56546111D01*
X140546190Y-56539849D01*
X140544350Y-56540735D01*
X140521695Y-56504662D01*
X140250452Y-56233420D01*
X140189129Y-56199935D01*
X140162771Y-56197101D01*
X140124972Y-56197101D01*
X140084017Y-56204059D01*
X140004255Y-56231969D01*
X140004250Y-56231970D01*
X139825004Y-56252166D01*
X139825000Y-56252166D01*
X139824996Y-56252166D01*
X139645751Y-56231970D01*
X139645748Y-56231969D01*
X139645745Y-56231969D01*
X139475478Y-56172390D01*
X139322738Y-56076417D01*
X139195184Y-55948863D01*
X139099211Y-55796123D01*
X139039632Y-55625856D01*
X139028156Y-55524007D01*
X139019435Y-55446604D01*
X139019435Y-55446597D01*
X139039631Y-55267351D01*
X139039632Y-55267346D01*
X139099212Y-55097077D01*
X139195185Y-54944338D01*
X139322738Y-54816785D01*
X139475477Y-54720812D01*
X139645746Y-54661232D01*
X139645751Y-54661231D01*
X139824996Y-54641036D01*
X139825004Y-54641036D01*
X140004250Y-54661231D01*
X140004255Y-54661232D01*
X140084017Y-54689143D01*
X140124972Y-54696101D01*
X140598920Y-54696101D01*
X140743908Y-54724941D01*
X140743918Y-54724944D01*
X140880489Y-54781513D01*
X140880502Y-54781520D01*
X141003416Y-54863649D01*
X141003420Y-54863652D01*
X141583063Y-55443294D01*
X141619127Y-55465971D01*
X141618250Y-55467792D01*
X141624525Y-55470813D01*
X141777263Y-55566785D01*
X141813319Y-55602842D01*
X141874642Y-55636327D01*
X141944334Y-55631343D01*
X142000267Y-55589471D01*
X142024684Y-55524007D01*
X142025000Y-55515161D01*
X142025000Y-52024000D01*
X142005315Y-51956961D01*
X141952511Y-51911206D01*
X141901000Y-51900000D01*
X136149000Y-51900000D01*
X136081961Y-51919685D01*
G37*
%TD.AperFunction*%
%TD*%
%TA.AperFunction,Conductor*%
%TO.N,GND*%
G36*
X137009323Y-27919685D02*
G01*
X136988681Y-27936319D01*
X135061319Y-29863681D01*
X135027834Y-29925004D01*
X135025000Y-29951362D01*
X135025000Y-37848638D01*
X135044685Y-37915677D01*
X135061319Y-37936319D01*
X136988681Y-39863681D01*
X137050004Y-39897166D01*
X137076362Y-39900000D01*
X140973638Y-39900000D01*
X141040677Y-39880315D01*
X141061319Y-39863681D01*
X142988681Y-37936319D01*
X143022166Y-37874996D01*
X143025000Y-37848638D01*
X143025000Y-30319998D01*
X142750565Y-30319998D01*
X142750565Y-30320001D01*
X142746280Y-30358029D01*
X142745500Y-30371914D01*
X142745500Y-30398844D01*
X142737712Y-30438003D01*
X142736110Y-30448303D01*
X142730368Y-30499252D01*
X142730367Y-30499260D01*
X142722024Y-30523104D01*
X142717450Y-30539860D01*
X142714738Y-30553496D01*
X142694491Y-30602377D01*
X142692012Y-30608872D01*
X142670788Y-30669524D01*
X142664291Y-30679865D01*
X142654732Y-30698365D01*
X142654397Y-30699173D01*
X142654395Y-30699179D01*
X142617777Y-30753982D01*
X142615886Y-30756900D01*
X142574820Y-30822257D01*
X142574818Y-30822260D01*
X142440197Y-30956881D01*
X142440191Y-30956886D01*
X140015182Y-33381895D01*
X139982088Y-33442502D01*
X139981917Y-33442464D01*
X139981780Y-33443067D01*
X139981697Y-33443218D01*
X139981571Y-33443980D01*
X139980367Y-33449258D01*
X139972024Y-33473102D01*
X139967450Y-33489858D01*
X139964738Y-33503494D01*
X139944491Y-33552375D01*
X139942012Y-33558870D01*
X139920788Y-33619522D01*
X139914291Y-33629863D01*
X139904732Y-33648363D01*
X139904397Y-33649171D01*
X139904395Y-33649177D01*
X139867777Y-33703980D01*
X139865886Y-33706898D01*
X139824820Y-33772255D01*
X139824818Y-33772258D01*
X139824816Y-33772260D01*
X139697262Y-33899814D01*
X139631904Y-33940881D01*
X139631869Y-33940903D01*
X139628960Y-33942788D01*
X139574179Y-33979392D01*
X139573394Y-33979717D01*
X139554866Y-33989287D01*
X139544522Y-33995787D01*
X139483825Y-34017026D01*
X139477393Y-34019482D01*
X139448979Y-34031251D01*
X139428503Y-34039733D01*
X139428502Y-34039733D01*
X139428497Y-34039735D01*
X139414861Y-34042447D01*
X139398102Y-34047021D01*
X139374255Y-34055366D01*
X139323286Y-34061108D01*
X139313008Y-34062707D01*
X139285860Y-34068107D01*
X139273843Y-34070498D01*
X139273842Y-34070498D01*
X139246915Y-34070498D01*
X139233031Y-34071278D01*
X139195002Y-34075563D01*
X139195000Y-34075563D01*
X139194998Y-34075563D01*
X139156969Y-34071278D01*
X139143085Y-34070498D01*
X139116159Y-34070498D01*
X139116158Y-34070498D01*
X139076983Y-34062705D01*
X139066717Y-34061108D01*
X139015745Y-34055366D01*
X138991900Y-34047021D01*
X138975138Y-34042446D01*
X138961503Y-34039735D01*
X138912611Y-34019482D01*
X138906163Y-34017021D01*
X138845478Y-33995787D01*
X138835132Y-33989285D01*
X138816610Y-33979718D01*
X138815821Y-33979392D01*
X138761013Y-33942769D01*
X138758175Y-33940929D01*
X138692738Y-33899814D01*
X138565184Y-33772260D01*
X138524069Y-33706823D01*
X138522223Y-33703977D01*
X138485611Y-33649184D01*
X138485606Y-33649177D01*
X138485280Y-33648388D01*
X138475713Y-33629866D01*
X138469211Y-33619520D01*
X138447977Y-33558835D01*
X138445510Y-33552375D01*
X138425263Y-33503495D01*
X138422551Y-33489858D01*
X138417977Y-33473098D01*
X138409632Y-33449253D01*
X138403890Y-33398281D01*
X138402293Y-33388015D01*
X138394500Y-33348840D01*
X138394500Y-33321912D01*
X138393720Y-33308027D01*
X138389435Y-33269999D01*
X138389435Y-33269996D01*
X138393720Y-33231967D01*
X138394500Y-33218083D01*
X138394500Y-32991154D01*
X138394501Y-32991152D01*
X138425262Y-32836509D01*
X138425263Y-32836502D01*
X138425265Y-32836497D01*
X138485603Y-32690826D01*
X138485610Y-32690813D01*
X138573210Y-32559711D01*
X138573211Y-32559710D01*
X138684711Y-32448210D01*
X141437806Y-29695114D01*
X141437837Y-29695085D01*
X141442740Y-29690182D01*
X141508117Y-29649103D01*
X141511035Y-29647212D01*
X141565815Y-29610609D01*
X141565831Y-29610600D01*
X141566626Y-29610271D01*
X141585138Y-29600707D01*
X141595473Y-29594213D01*
X141595474Y-29594212D01*
X141631026Y-29581772D01*
X141656137Y-29572985D01*
X141662626Y-29570508D01*
X141711501Y-29550263D01*
X141711500Y-29550263D01*
X141725152Y-29547547D01*
X141741904Y-29542973D01*
X141765736Y-29534634D01*
X141765744Y-29534632D01*
X141816696Y-29528890D01*
X141826996Y-29527288D01*
X141866155Y-29519500D01*
X141866157Y-29519500D01*
X141893085Y-29519500D01*
X141906969Y-29518720D01*
X141944998Y-29514435D01*
X141945002Y-29514435D01*
X141983031Y-29518720D01*
X141996915Y-29519500D01*
X142023848Y-29519500D01*
X142063006Y-29527288D01*
X142073304Y-29528890D01*
X142124258Y-29534632D01*
X142124265Y-29534634D01*
X142148102Y-29542975D01*
X142164860Y-29547550D01*
X142178498Y-29550263D01*
X142178504Y-29550264D01*
X142227369Y-29570504D01*
X142233860Y-29572982D01*
X142294523Y-29594210D01*
X142294526Y-29594212D01*
X142304873Y-29600713D01*
X142323361Y-29610266D01*
X142324168Y-29610600D01*
X142324176Y-29610604D01*
X142378953Y-29647204D01*
X142381868Y-29649092D01*
X142447258Y-29690180D01*
X142447265Y-29690186D01*
X142574814Y-29817735D01*
X142574820Y-29817742D01*
X142615908Y-29883132D01*
X142617796Y-29886047D01*
X142654396Y-29940824D01*
X142654400Y-29940832D01*
X142654734Y-29941639D01*
X142664287Y-29960127D01*
X142670788Y-29970474D01*
X142670790Y-29970477D01*
X142692018Y-30031140D01*
X142694496Y-30037631D01*
X142714736Y-30086496D01*
X142714737Y-30086502D01*
X142717450Y-30100140D01*
X142722025Y-30116898D01*
X142730366Y-30140735D01*
X142730368Y-30140742D01*
X142736110Y-30191696D01*
X142737712Y-30201994D01*
X142745500Y-30241152D01*
X142745500Y-30268085D01*
X142746280Y-30281969D01*
X142750565Y-30319998D01*
X143025000Y-30319998D01*
X143025000Y-29951362D01*
X143005315Y-29884323D01*
X142988681Y-29863681D01*
X141061319Y-27936319D01*
X140999996Y-27902834D01*
X140973638Y-27900000D01*
X137076362Y-27900000D01*
X137009323Y-27919685D01*
G37*
%TD.AperFunction*%
%TD*%
%TA.AperFunction,Conductor*%
%TO.N,GND*%
G36*
X145009323Y-60919685D02*
G01*
X144988681Y-60936319D01*
X143061319Y-62863681D01*
X143027834Y-62925004D01*
X143025000Y-62951362D01*
X143025000Y-64848638D01*
X143044685Y-64915677D01*
X143061319Y-64936319D01*
X145988681Y-67863681D01*
X146050004Y-67897166D01*
X146076362Y-67900000D01*
X151973638Y-67900000D01*
X152040677Y-67880315D01*
X152061319Y-67863681D01*
X152988681Y-66936319D01*
X153022166Y-66874996D01*
X153025000Y-66848638D01*
X153025000Y-62937544D01*
X153005315Y-62870505D01*
X153004174Y-62868761D01*
X152878839Y-62680758D01*
X149449804Y-62680758D01*
X149449804Y-62680761D01*
X149445519Y-62718789D01*
X149444739Y-62732674D01*
X149444739Y-64059603D01*
X149413978Y-64214246D01*
X149413975Y-64214258D01*
X149353637Y-64359929D01*
X149353630Y-64359942D01*
X149266029Y-64491045D01*
X149266026Y-64491049D01*
X149128673Y-64628401D01*
X149004816Y-64752258D01*
X149004814Y-64752260D01*
X148877260Y-64879814D01*
X148811832Y-64920924D01*
X148808955Y-64922789D01*
X148754183Y-64959387D01*
X148754178Y-64959390D01*
X148754175Y-64959392D01*
X148753395Y-64959715D01*
X148734866Y-64969285D01*
X148724520Y-64975787D01*
X148663838Y-64997020D01*
X148657371Y-64999490D01*
X148608504Y-65019732D01*
X148608500Y-65019733D01*
X148608495Y-65019735D01*
X148594859Y-65022447D01*
X148578100Y-65027021D01*
X148554253Y-65035366D01*
X148503285Y-65041108D01*
X148493007Y-65042707D01*
X148465859Y-65048107D01*
X148453842Y-65050498D01*
X148453841Y-65050498D01*
X148426913Y-65050498D01*
X148413029Y-65051278D01*
X148375000Y-65055563D01*
X148374998Y-65055563D01*
X148374996Y-65055563D01*
X148336967Y-65051278D01*
X148323083Y-65050498D01*
X148296157Y-65050498D01*
X148296156Y-65050498D01*
X148256981Y-65042705D01*
X148246715Y-65041108D01*
X148195743Y-65035366D01*
X148171891Y-65027018D01*
X148155146Y-65022448D01*
X148141501Y-65019735D01*
X148092616Y-64999485D01*
X148086146Y-64997015D01*
X148025476Y-64975787D01*
X148015138Y-64969290D01*
X147996609Y-64959717D01*
X147995819Y-64959391D01*
X147941033Y-64922782D01*
X147938171Y-64920928D01*
X147938120Y-64920896D01*
X147872736Y-64879814D01*
X147745182Y-64752260D01*
X147704059Y-64686809D01*
X147702214Y-64683963D01*
X147665605Y-64629177D01*
X147665279Y-64628387D01*
X147655705Y-64609857D01*
X147649209Y-64599520D01*
X147627981Y-64538850D01*
X147625505Y-64532366D01*
X147605261Y-64483495D01*
X147602548Y-64469850D01*
X147597978Y-64453105D01*
X147589630Y-64429253D01*
X147583888Y-64378281D01*
X147582291Y-64368015D01*
X147574498Y-64328840D01*
X147574498Y-64301912D01*
X147573718Y-64288027D01*
X147569433Y-64249999D01*
X147569433Y-64249996D01*
X147573718Y-64211967D01*
X147574498Y-64198083D01*
X147574498Y-64171154D01*
X147582287Y-64132000D01*
X147583888Y-64121711D01*
X147589630Y-64070743D01*
X147597975Y-64046896D01*
X147602549Y-64030137D01*
X147605261Y-64016501D01*
X147605263Y-64016496D01*
X147605264Y-64016492D01*
X147625506Y-63967625D01*
X147627976Y-63961158D01*
X147649209Y-63900476D01*
X147655711Y-63890130D01*
X147665281Y-63871601D01*
X147665604Y-63870821D01*
X147665606Y-63870818D01*
X147702207Y-63816041D01*
X147704072Y-63813164D01*
X147745182Y-63747736D01*
X147807420Y-63685498D01*
X147840905Y-63624175D01*
X147843739Y-63597817D01*
X147843739Y-62732674D01*
X147842959Y-62718789D01*
X147838674Y-62680761D01*
X147838674Y-62680758D01*
X147842959Y-62642729D01*
X147843739Y-62628845D01*
X147843739Y-62601917D01*
X147851528Y-62562763D01*
X147853129Y-62552474D01*
X147858871Y-62501505D01*
X147867216Y-62477658D01*
X147871790Y-62460899D01*
X147874502Y-62447263D01*
X147874505Y-62447256D01*
X147882986Y-62426781D01*
X147894755Y-62398367D01*
X147897211Y-62391935D01*
X147918450Y-62331238D01*
X147924950Y-62320894D01*
X147934520Y-62302366D01*
X147934845Y-62301581D01*
X147971449Y-62246800D01*
X147973334Y-62243891D01*
X148014423Y-62178498D01*
X148141977Y-62050944D01*
X148141979Y-62050942D01*
X148141982Y-62050940D01*
X148207339Y-62009874D01*
X148210257Y-62007983D01*
X148265060Y-61971365D01*
X148265066Y-61971363D01*
X148265874Y-61971028D01*
X148284374Y-61961469D01*
X148294715Y-61954972D01*
X148294716Y-61954971D01*
X148294717Y-61954971D01*
X148355372Y-61933746D01*
X148361862Y-61931269D01*
X148410743Y-61911022D01*
X148424379Y-61908310D01*
X148441135Y-61903736D01*
X148464979Y-61895393D01*
X148464983Y-61895392D01*
X148464984Y-61895392D01*
X148485664Y-61893061D01*
X148515936Y-61889650D01*
X148526236Y-61888048D01*
X148565395Y-61880260D01*
X148565397Y-61880260D01*
X148592324Y-61880260D01*
X148606208Y-61879480D01*
X148644237Y-61875195D01*
X148644241Y-61875195D01*
X148682270Y-61879480D01*
X148696154Y-61880260D01*
X148723087Y-61880260D01*
X148762245Y-61888048D01*
X148772543Y-61889650D01*
X148823497Y-61895392D01*
X148823504Y-61895394D01*
X148847341Y-61903735D01*
X148864099Y-61908310D01*
X148877737Y-61911023D01*
X148877743Y-61911024D01*
X148926608Y-61931264D01*
X148933099Y-61933742D01*
X148993762Y-61954970D01*
X148993765Y-61954972D01*
X149004112Y-61961473D01*
X149022600Y-61971026D01*
X149023407Y-61971360D01*
X149023415Y-61971364D01*
X149078192Y-62007964D01*
X149081107Y-62009852D01*
X149146497Y-62050940D01*
X149146504Y-62050946D01*
X149274053Y-62178495D01*
X149274059Y-62178502D01*
X149315147Y-62243892D01*
X149317035Y-62246807D01*
X149353635Y-62301584D01*
X149353639Y-62301592D01*
X149353973Y-62302399D01*
X149363526Y-62320887D01*
X149370027Y-62331234D01*
X149370029Y-62331237D01*
X149391257Y-62391900D01*
X149393735Y-62398391D01*
X149413975Y-62447256D01*
X149413976Y-62447262D01*
X149416689Y-62460900D01*
X149421264Y-62477658D01*
X149429605Y-62501495D01*
X149429607Y-62501502D01*
X149435349Y-62552456D01*
X149436951Y-62562754D01*
X149444739Y-62601912D01*
X149444739Y-62628845D01*
X149445519Y-62642729D01*
X149449804Y-62680758D01*
X152878839Y-62680758D01*
X152061811Y-61455217D01*
X152008246Y-61410356D01*
X151958637Y-61400000D01*
X147025000Y-61400000D01*
X146561319Y-60936319D01*
X146499996Y-60902834D01*
X146473638Y-60900000D01*
X145076362Y-60900000D01*
X145009323Y-60919685D01*
G37*
%TD.AperFunction*%
%TD*%
%TA.AperFunction,Conductor*%
%TO.N,GND*%
G36*
X157009323Y-55919685D02*
G01*
X156988681Y-55936319D01*
X155061319Y-57863681D01*
X155027834Y-57925004D01*
X155025000Y-57951362D01*
X155025000Y-65848638D01*
X155044685Y-65915677D01*
X155061319Y-65936319D01*
X156988681Y-67863681D01*
X157050004Y-67897166D01*
X157076362Y-67900000D01*
X161973638Y-67900000D01*
X162040677Y-67880315D01*
X162061319Y-67863681D01*
X162988681Y-66936319D01*
X163022166Y-66874996D01*
X163025000Y-66848638D01*
X163025000Y-59769795D01*
X158930565Y-59769795D01*
X158930565Y-59769802D01*
X158910370Y-59949048D01*
X158910369Y-59949053D01*
X158850789Y-60119322D01*
X158785486Y-60223250D01*
X158754816Y-60272061D01*
X158627262Y-60399615D01*
X158474522Y-60495588D01*
X158371016Y-60531806D01*
X158324290Y-60561166D01*
X157961819Y-60923637D01*
X157928334Y-60984960D01*
X157925500Y-61011318D01*
X157925500Y-61574507D01*
X157944506Y-61640478D01*
X157950791Y-61650479D01*
X158010367Y-61820737D01*
X158010370Y-61820750D01*
X158030565Y-61999996D01*
X158030565Y-62000003D01*
X158010370Y-62179249D01*
X158010369Y-62179254D01*
X157950788Y-62349525D01*
X157944508Y-62359519D01*
X157925500Y-62425493D01*
X157925500Y-65231006D01*
X157925500Y-65368994D01*
X157925500Y-65368996D01*
X157925501Y-65368996D01*
X157898582Y-65504322D01*
X157898579Y-65504332D01*
X157845778Y-65631807D01*
X157769113Y-65746545D01*
X157769112Y-65746546D01*
X157416370Y-66099287D01*
X157387010Y-66146013D01*
X157350791Y-66249519D01*
X157350789Y-66249522D01*
X157254816Y-66402262D01*
X157127262Y-66529816D01*
X156974522Y-66625789D01*
X156804255Y-66685368D01*
X156804250Y-66685369D01*
X156625004Y-66705565D01*
X156625000Y-66705565D01*
X156624996Y-66705565D01*
X156445751Y-66685369D01*
X156445748Y-66685368D01*
X156445745Y-66685368D01*
X156275478Y-66625789D01*
X156122738Y-66529816D01*
X155995184Y-66402262D01*
X155899211Y-66249522D01*
X155839632Y-66079255D01*
X155819435Y-65900000D01*
X155839632Y-65720745D01*
X155899211Y-65550478D01*
X155995184Y-65397738D01*
X156122738Y-65270184D01*
X156275478Y-65174211D01*
X156275481Y-65174209D01*
X156378987Y-65137990D01*
X156425713Y-65108630D01*
X156488181Y-65046162D01*
X156521666Y-64984839D01*
X156524500Y-64958481D01*
X156524500Y-62425493D01*
X156505492Y-62359519D01*
X156499213Y-62349525D01*
X156499214Y-62349525D01*
X156499211Y-62349522D01*
X156439632Y-62179255D01*
X156419435Y-62000000D01*
X156439632Y-61820745D01*
X156439633Y-61820743D01*
X156439634Y-61820737D01*
X156499210Y-61650479D01*
X156505494Y-61640478D01*
X156524500Y-61574507D01*
X156524500Y-60600803D01*
X156551419Y-60465476D01*
X156551420Y-60465475D01*
X156551420Y-60465471D01*
X156578698Y-60399615D01*
X156604222Y-60337994D01*
X156604224Y-60337990D01*
X156604225Y-60337988D01*
X156648276Y-60272061D01*
X156680886Y-60223256D01*
X156680888Y-60223253D01*
X156680891Y-60223250D01*
X157333633Y-59570509D01*
X157362994Y-59523782D01*
X157399212Y-59420275D01*
X157495185Y-59267536D01*
X157622738Y-59139983D01*
X157775477Y-59044010D01*
X157945746Y-58984430D01*
X157945751Y-58984429D01*
X158124996Y-58964234D01*
X158125004Y-58964234D01*
X158304250Y-58984429D01*
X158304255Y-58984430D01*
X158474524Y-59044010D01*
X158627263Y-59139983D01*
X158754816Y-59267536D01*
X158850789Y-59420275D01*
X158910369Y-59590544D01*
X158910370Y-59590549D01*
X158930565Y-59769795D01*
X163025000Y-59769795D01*
X163025000Y-56951362D01*
X163005315Y-56884323D01*
X162988681Y-56863681D01*
X162061319Y-55936319D01*
X161999996Y-55902834D01*
X161973638Y-55900000D01*
X157076362Y-55900000D01*
X157009323Y-55919685D01*
G37*
%TD.AperFunction*%
%TD*%
%TA.AperFunction,Conductor*%
%TO.N,GND*%
G36*
X150295357Y-27919685D02*
G01*
X150249602Y-27972489D01*
X150239658Y-28041647D01*
X150245355Y-28064956D01*
X150253450Y-28088086D01*
X150253452Y-28088096D01*
X150273647Y-28267342D01*
X150273647Y-28267349D01*
X150253452Y-28446595D01*
X150253451Y-28446600D01*
X150193871Y-28616869D01*
X150097898Y-28769608D01*
X149970344Y-28897162D01*
X149817604Y-28993135D01*
X149714098Y-29029353D01*
X149667372Y-29058713D01*
X148497981Y-30228104D01*
X148464496Y-30289427D01*
X148462442Y-30301901D01*
X148457006Y-30350149D01*
X148397426Y-30520421D01*
X148301452Y-30673162D01*
X148173898Y-30800716D01*
X148021158Y-30896689D01*
X147850891Y-30956268D01*
X147850886Y-30956269D01*
X147671640Y-30976465D01*
X147671636Y-30976465D01*
X147671632Y-30976465D01*
X147492387Y-30956269D01*
X147492384Y-30956268D01*
X147492381Y-30956268D01*
X147322114Y-30896689D01*
X147169374Y-30800716D01*
X147041820Y-30673162D01*
X146945847Y-30520422D01*
X146886268Y-30350155D01*
X146880831Y-30301901D01*
X146866071Y-30170903D01*
X146866071Y-30170896D01*
X146886267Y-29991650D01*
X146886268Y-29991645D01*
X146945848Y-29821376D01*
X147041821Y-29668637D01*
X147169375Y-29541083D01*
X147249871Y-29490504D01*
X147271580Y-29473191D01*
X148633090Y-28111681D01*
X148666575Y-28050358D01*
X148661591Y-27980666D01*
X148619719Y-27924733D01*
X148554255Y-27900316D01*
X148545409Y-27900000D01*
X146076362Y-27900000D01*
X146009323Y-27919685D01*
X145988681Y-27936319D01*
X145061319Y-28863681D01*
X145027834Y-28925004D01*
X145025000Y-28951362D01*
X145025000Y-31848638D01*
X145044685Y-31915677D01*
X145061319Y-31936319D01*
X145988681Y-32863681D01*
X146050004Y-32897166D01*
X146076362Y-32900000D01*
X152901000Y-32900000D01*
X152968039Y-32880315D01*
X153013794Y-32827511D01*
X153025000Y-32776000D01*
X153025000Y-28024000D01*
X153005315Y-27956961D01*
X152952511Y-27911206D01*
X152901000Y-27900000D01*
X150362396Y-27900000D01*
X150295357Y-27919685D01*
G37*
%TD.AperFunction*%
%TD*%
%TA.AperFunction,Conductor*%
%TO.N,GND*%
G36*
X147801057Y-55419685D02*
G01*
X147755302Y-55472489D01*
X147745358Y-55541647D01*
X147751055Y-55564956D01*
X147782208Y-55653983D01*
X147811565Y-55700705D01*
X147854110Y-55743252D01*
X147854115Y-55743257D01*
X147930777Y-55857991D01*
X147983579Y-55985467D01*
X147983582Y-55985477D01*
X148010500Y-56120804D01*
X148010500Y-56774507D01*
X148029506Y-56840478D01*
X148035791Y-56850479D01*
X148095367Y-57020737D01*
X148095370Y-57020750D01*
X148115565Y-57199996D01*
X148115565Y-57200003D01*
X148095370Y-57379249D01*
X148095369Y-57379254D01*
X148035789Y-57549523D01*
X147939816Y-57702262D01*
X147812262Y-57829816D01*
X147659522Y-57925789D01*
X147489255Y-57985368D01*
X147489250Y-57985369D01*
X147310004Y-58005565D01*
X147310000Y-58005565D01*
X147309996Y-58005565D01*
X147130751Y-57985369D01*
X147130748Y-57985368D01*
X147130745Y-57985368D01*
X146960478Y-57925789D01*
X146807738Y-57829816D01*
X146680184Y-57702262D01*
X146584211Y-57549522D01*
X146524632Y-57379255D01*
X146504435Y-57200000D01*
X146524632Y-57020745D01*
X146524633Y-57020743D01*
X146524634Y-57020737D01*
X146584210Y-56850479D01*
X146590494Y-56840478D01*
X146609500Y-56774507D01*
X146609500Y-56655880D01*
X146589815Y-56588841D01*
X146551471Y-56550886D01*
X146517938Y-56529816D01*
X146390384Y-56402262D01*
X146294411Y-56249522D01*
X146234832Y-56079255D01*
X146224265Y-55985472D01*
X146214635Y-55900003D01*
X146214635Y-55899996D01*
X146234831Y-55720750D01*
X146234833Y-55720742D01*
X146289345Y-55564954D01*
X146292906Y-55495176D01*
X146258177Y-55434548D01*
X146196184Y-55402321D01*
X146172303Y-55400000D01*
X146076362Y-55400000D01*
X146009323Y-55419685D01*
X145988681Y-55436319D01*
X145061319Y-56363681D01*
X145027834Y-56425004D01*
X145025000Y-56451362D01*
X145025000Y-60276000D01*
X145044685Y-60343039D01*
X145097489Y-60388794D01*
X145149000Y-60400000D01*
X152401000Y-60400000D01*
X152468039Y-60380315D01*
X152513794Y-60327511D01*
X152525000Y-60276000D01*
X152525000Y-56951362D01*
X152505315Y-56884323D01*
X152488681Y-56863681D01*
X151061319Y-55436319D01*
X150999996Y-55402834D01*
X150973638Y-55400000D01*
X147868096Y-55400000D01*
X147801057Y-55419685D01*
G37*
%TD.AperFunction*%
%TD*%
%TA.AperFunction,Conductor*%
%TO.N,GND*%
G36*
X18637027Y-50020185D02*
G01*
X18682782Y-50072989D01*
X18692726Y-50142147D01*
X18671805Y-50190532D01*
X18673889Y-50191842D01*
X18574211Y-50350476D01*
X18514631Y-50520745D01*
X18514630Y-50520750D01*
X18494435Y-50699996D01*
X18494435Y-50700003D01*
X18514630Y-50879249D01*
X18514631Y-50879254D01*
X18574211Y-51049523D01*
X18637347Y-51150003D01*
X18670184Y-51202262D01*
X18797738Y-51329816D01*
X18888080Y-51386582D01*
X18932721Y-51414632D01*
X18950478Y-51425789D01*
X19088860Y-51474211D01*
X19120745Y-51485368D01*
X19120750Y-51485369D01*
X19299996Y-51505565D01*
X19300000Y-51505565D01*
X19300004Y-51505565D01*
X19479249Y-51485369D01*
X19479252Y-51485368D01*
X19479255Y-51485368D01*
X19559017Y-51457457D01*
X19599972Y-51450500D01*
X20324877Y-51450500D01*
X20391916Y-51470185D01*
X20429867Y-51508524D01*
X20520184Y-51652262D01*
X20647738Y-51779816D01*
X20738080Y-51836582D01*
X20760192Y-51850476D01*
X20800478Y-51875789D01*
X20970745Y-51935368D01*
X20970750Y-51935369D01*
X21149996Y-51955565D01*
X21150000Y-51955565D01*
X21150004Y-51955565D01*
X21329249Y-51935369D01*
X21329252Y-51935368D01*
X21329255Y-51935368D01*
X21499522Y-51875789D01*
X21652262Y-51779816D01*
X21779816Y-51652262D01*
X21875789Y-51499522D01*
X21935368Y-51329255D01*
X21955565Y-51150000D01*
X21944244Y-51049523D01*
X21935369Y-50970750D01*
X21935368Y-50970745D01*
X21875788Y-50800476D01*
X21779815Y-50647737D01*
X21652262Y-50520184D01*
X21499522Y-50424211D01*
X21499519Y-50424210D01*
X21499516Y-50424208D01*
X21493242Y-50421186D01*
X21494123Y-50419356D01*
X21458060Y-50396692D01*
X21273550Y-50212181D01*
X21240065Y-50150858D01*
X21245049Y-50081166D01*
X21286921Y-50025233D01*
X21352385Y-50000816D01*
X21361231Y-50000500D01*
X115175500Y-50000500D01*
X115242539Y-50020185D01*
X115288294Y-50072989D01*
X115299500Y-50124500D01*
X115299500Y-56875500D01*
X115279815Y-56942539D01*
X115227011Y-56988294D01*
X115175500Y-56999500D01*
X110700559Y-56999500D01*
X110633520Y-56979815D01*
X110587765Y-56927011D01*
X110577821Y-56857853D01*
X110583517Y-56834546D01*
X110585367Y-56829257D01*
X110585368Y-56829255D01*
X110605565Y-56650000D01*
X110585368Y-56470745D01*
X110585367Y-56470740D01*
X110556957Y-56389552D01*
X110553394Y-56319773D01*
X110588123Y-56259145D01*
X110633044Y-56231554D01*
X110649522Y-56225789D01*
X110802262Y-56129816D01*
X110929816Y-56002262D01*
X111025789Y-55849522D01*
X111085368Y-55679255D01*
X111105565Y-55500000D01*
X111086184Y-55327988D01*
X111085369Y-55320750D01*
X111085368Y-55320745D01*
X111025788Y-55150476D01*
X110929815Y-54997737D01*
X110802262Y-54870184D01*
X110649523Y-54774211D01*
X110479254Y-54714631D01*
X110479249Y-54714630D01*
X110300004Y-54694435D01*
X110299996Y-54694435D01*
X110120750Y-54714630D01*
X110120745Y-54714631D01*
X109950476Y-54774211D01*
X109797737Y-54870184D01*
X109670184Y-54997737D01*
X109574210Y-55150478D01*
X109514632Y-55320744D01*
X109514630Y-55320752D01*
X109513815Y-55327988D01*
X109486743Y-55392400D01*
X109478278Y-55401775D01*
X109294723Y-55585331D01*
X109246959Y-55656817D01*
X109246957Y-55656819D01*
X109223539Y-55691864D01*
X109223533Y-55691875D01*
X109174499Y-55810255D01*
X109174497Y-55810261D01*
X109149500Y-55935928D01*
X109149500Y-56144931D01*
X109130494Y-56210903D01*
X109074211Y-56300477D01*
X109074209Y-56300481D01*
X109014633Y-56470737D01*
X109014630Y-56470750D01*
X108994435Y-56649996D01*
X108994435Y-56650003D01*
X109014630Y-56829249D01*
X109014632Y-56829257D01*
X109016483Y-56834546D01*
X109020044Y-56904325D01*
X108985315Y-56964952D01*
X108923322Y-56997179D01*
X108899441Y-56999500D01*
X17424500Y-56999500D01*
X17357461Y-56979815D01*
X17311706Y-56927011D01*
X17300500Y-56875500D01*
X17300500Y-52199996D01*
X109994435Y-52199996D01*
X109994435Y-52200003D01*
X110014630Y-52379249D01*
X110014631Y-52379254D01*
X110074211Y-52549523D01*
X110074212Y-52549524D01*
X110170184Y-52702262D01*
X110297738Y-52829816D01*
X110450478Y-52925789D01*
X110520878Y-52950423D01*
X110577654Y-52991145D01*
X110603402Y-53056097D01*
X110589946Y-53124659D01*
X110584918Y-53133436D01*
X110574212Y-53150474D01*
X110514631Y-53320745D01*
X110514630Y-53320750D01*
X110494435Y-53499996D01*
X110494435Y-53500003D01*
X110514630Y-53679249D01*
X110514631Y-53679254D01*
X110574211Y-53849523D01*
X110670184Y-54002262D01*
X110797738Y-54129816D01*
X110950478Y-54225789D01*
X111120739Y-54285366D01*
X111120745Y-54285368D01*
X111120750Y-54285369D01*
X111299996Y-54305565D01*
X111300000Y-54305565D01*
X111300004Y-54305565D01*
X111479249Y-54285369D01*
X111479251Y-54285368D01*
X111479255Y-54285368D01*
X111479258Y-54285366D01*
X111479262Y-54285366D01*
X111569377Y-54253832D01*
X111649522Y-54225789D01*
X111739096Y-54169505D01*
X111805068Y-54150500D01*
X112794932Y-54150500D01*
X112860904Y-54169506D01*
X112950477Y-54225789D01*
X112950481Y-54225790D01*
X113120737Y-54285366D01*
X113120743Y-54285367D01*
X113120745Y-54285368D01*
X113120746Y-54285368D01*
X113120750Y-54285369D01*
X113299996Y-54305565D01*
X113300000Y-54305565D01*
X113300004Y-54305565D01*
X113479249Y-54285369D01*
X113479252Y-54285368D01*
X113479255Y-54285368D01*
X113649522Y-54225789D01*
X113802262Y-54129816D01*
X113929816Y-54002262D01*
X114025789Y-53849522D01*
X114085368Y-53679255D01*
X114105565Y-53500000D01*
X114085368Y-53320745D01*
X114025789Y-53150478D01*
X114025786Y-53150474D01*
X113929815Y-52997737D01*
X113802262Y-52870184D01*
X113649523Y-52774211D01*
X113479254Y-52714631D01*
X113479249Y-52714630D01*
X113300004Y-52694435D01*
X113299996Y-52694435D01*
X113120750Y-52714630D01*
X113120737Y-52714633D01*
X112950481Y-52774209D01*
X112950477Y-52774210D01*
X112860904Y-52830494D01*
X112794932Y-52849500D01*
X112720359Y-52849500D01*
X112653320Y-52829815D01*
X112607565Y-52777011D01*
X112597621Y-52707853D01*
X112615366Y-52659527D01*
X112684486Y-52549524D01*
X112744066Y-52379254D01*
X112744067Y-52379249D01*
X112764263Y-52200003D01*
X112764263Y-52199996D01*
X112744067Y-52020750D01*
X112744066Y-52020745D01*
X112684487Y-51850478D01*
X112588514Y-51697738D01*
X112460960Y-51570184D01*
X112308221Y-51474211D01*
X112137952Y-51414631D01*
X112137947Y-51414630D01*
X111958702Y-51394435D01*
X111958694Y-51394435D01*
X111779448Y-51414630D01*
X111779443Y-51414631D01*
X111699681Y-51442542D01*
X111658726Y-51449500D01*
X111099972Y-51449500D01*
X111059017Y-51442542D01*
X110979254Y-51414631D01*
X110979249Y-51414630D01*
X110800004Y-51394435D01*
X110799996Y-51394435D01*
X110620750Y-51414630D01*
X110620745Y-51414631D01*
X110450476Y-51474211D01*
X110297737Y-51570184D01*
X110170184Y-51697737D01*
X110074211Y-51850476D01*
X110014631Y-52020745D01*
X110014630Y-52020750D01*
X109994435Y-52199996D01*
X17300500Y-52199996D01*
X17300500Y-50124500D01*
X17320185Y-50057461D01*
X17372989Y-50011706D01*
X17424500Y-50000500D01*
X18569988Y-50000500D01*
X18637027Y-50020185D01*
G37*
%TD.AperFunction*%
%TD*%
%TA.AperFunction,Conductor*%
%TO.N,GND*%
G36*
X136081961Y-60919685D02*
G01*
X136036206Y-60972489D01*
X136025000Y-61024000D01*
X136025000Y-69776000D01*
X136044685Y-69843039D01*
X136097489Y-69888794D01*
X136149000Y-69900000D01*
X141401000Y-69900000D01*
X141468039Y-69880315D01*
X141513794Y-69827511D01*
X141525000Y-69776000D01*
X141525000Y-65881850D01*
X141082419Y-65881850D01*
X141082419Y-65881857D01*
X141062224Y-66061103D01*
X141062223Y-66061108D01*
X141002643Y-66231377D01*
X140906670Y-66384116D01*
X140779116Y-66511670D01*
X140688774Y-66568436D01*
X140632951Y-66603512D01*
X140626376Y-66607643D01*
X140555756Y-66632354D01*
X140456109Y-66667222D01*
X140456104Y-66667223D01*
X140276858Y-66687419D01*
X140276854Y-66687419D01*
X140276850Y-66687419D01*
X140097605Y-66667223D01*
X140097602Y-66667222D01*
X140097599Y-66667222D01*
X140017837Y-66639311D01*
X139976882Y-66632354D01*
X139905220Y-66632354D01*
X139807678Y-66612950D01*
X139760227Y-66603512D01*
X139623645Y-66546938D01*
X139570863Y-66511670D01*
X139500724Y-66464806D01*
X138819227Y-65783306D01*
X138783154Y-65760657D01*
X138784042Y-65758813D01*
X138777771Y-65755792D01*
X138777770Y-65755790D01*
X138777764Y-65755789D01*
X138625024Y-65659816D01*
X138497470Y-65532262D01*
X138401497Y-65379522D01*
X138341918Y-65209255D01*
X138329212Y-65096484D01*
X138321721Y-65030003D01*
X138321721Y-65029996D01*
X138341917Y-64850750D01*
X138341918Y-64850745D01*
X138399300Y-64686758D01*
X138401497Y-64680478D01*
X138497470Y-64527738D01*
X138625024Y-64400184D01*
X138777763Y-64304211D01*
X138948032Y-64244631D01*
X138948037Y-64244630D01*
X139127282Y-64224435D01*
X139127290Y-64224435D01*
X139306536Y-64244630D01*
X139306541Y-64244631D01*
X139476810Y-64304211D01*
X139629549Y-64400184D01*
X139757102Y-64527737D01*
X139853078Y-64680483D01*
X139856100Y-64686758D01*
X139857925Y-64685878D01*
X139880594Y-64721939D01*
X140198940Y-65040285D01*
X140260263Y-65073770D01*
X140272737Y-65075824D01*
X140456105Y-65096484D01*
X140456109Y-65096485D01*
X140626378Y-65156065D01*
X140779117Y-65252038D01*
X140906670Y-65379591D01*
X141002643Y-65532330D01*
X141062223Y-65702599D01*
X141062224Y-65702604D01*
X141082419Y-65881850D01*
X141525000Y-65881850D01*
X141525000Y-61024000D01*
X141505315Y-60956961D01*
X141452511Y-60911206D01*
X141401000Y-60900000D01*
X136149000Y-60900000D01*
X136081961Y-60919685D01*
G37*
%TD.AperFunction*%
%TD*%
%TA.AperFunction,Conductor*%
%TO.N,GND*%
G36*
X155081961Y-45919685D02*
G01*
X155036206Y-45972489D01*
X155025000Y-46024000D01*
X155025000Y-51848638D01*
X155044685Y-51915677D01*
X155061319Y-51936319D01*
X156988681Y-53863681D01*
X157050004Y-53897166D01*
X157076362Y-53900000D01*
X160973638Y-53900000D01*
X161040677Y-53880315D01*
X161061319Y-53863681D01*
X162988681Y-51936319D01*
X163022166Y-51874996D01*
X163025000Y-51848638D01*
X163025000Y-46024000D01*
X163005315Y-45956961D01*
X162952511Y-45911206D01*
X162901000Y-45900000D01*
X155149000Y-45900000D01*
X155081961Y-45919685D01*
G37*
%TD.AperFunction*%
%TD*%
M02*
