%TF.GenerationSoftware,KiCad,Pcbnew,8.0.6*%
%TF.CreationDate,2025-04-01T14:48:14+11:00*%
%TF.ProjectId,testingstencil,74657374-696e-4677-9374-656e63696c2e,rev?*%
%TF.SameCoordinates,Original*%
%TF.FileFunction,Copper,L1,Top*%
%TF.FilePolarity,Positive*%
%FSLAX46Y46*%
G04 Gerber Fmt 4.6, Leading zero omitted, Abs format (unit mm)*
G04 Created by KiCad (PCBNEW 8.0.6) date 2025-04-01 14:48:14*
%MOMM*%
%LPD*%
G01*
G04 APERTURE LIST*
G04 Aperture macros list*
%AMRoundRect*
0 Rectangle with rounded corners*
0 $1 Rounding radius*
0 $2 $3 $4 $5 $6 $7 $8 $9 X,Y pos of 4 corners*
0 Add a 4 corners polygon primitive as box body*
4,1,4,$2,$3,$4,$5,$6,$7,$8,$9,$2,$3,0*
0 Add four circle primitives for the rounded corners*
1,1,$1+$1,$2,$3*
1,1,$1+$1,$4,$5*
1,1,$1+$1,$6,$7*
1,1,$1+$1,$8,$9*
0 Add four rect primitives between the rounded corners*
20,1,$1+$1,$2,$3,$4,$5,0*
20,1,$1+$1,$4,$5,$6,$7,0*
20,1,$1+$1,$6,$7,$8,$9,0*
20,1,$1+$1,$8,$9,$2,$3,0*%
%AMRotRect*
0 Rectangle, with rotation*
0 The origin of the aperture is its center*
0 $1 length*
0 $2 width*
0 $3 Rotation angle, in degrees counterclockwise*
0 Add horizontal line*
21,1,$1,$2,0,0,$3*%
G04 Aperture macros list end*
%TA.AperFunction,SMDPad,CuDef*%
%ADD10RoundRect,0.090000X-0.660000X-0.360000X0.660000X-0.360000X0.660000X0.360000X-0.660000X0.360000X0*%
%TD*%
%TA.AperFunction,SMDPad,CuDef*%
%ADD11R,3.400000X0.900000*%
%TD*%
%TA.AperFunction,SMDPad,CuDef*%
%ADD12R,1.500000X0.800000*%
%TD*%
%TA.AperFunction,SMDPad,CuDef*%
%ADD13RoundRect,0.225000X-0.225000X-0.250000X0.225000X-0.250000X0.225000X0.250000X-0.225000X0.250000X0*%
%TD*%
%TA.AperFunction,SMDPad,CuDef*%
%ADD14R,0.279400X0.406400*%
%TD*%
%TA.AperFunction,SMDPad,CuDef*%
%ADD15R,0.660400X0.406400*%
%TD*%
%TA.AperFunction,SMDPad,CuDef*%
%ADD16R,0.406400X0.279400*%
%TD*%
%TA.AperFunction,SMDPad,CuDef*%
%ADD17R,0.406400X0.660400*%
%TD*%
%TA.AperFunction,SMDPad,CuDef*%
%ADD18R,0.482600X0.584200*%
%TD*%
%TA.AperFunction,SMDPad,CuDef*%
%ADD19R,0.482600X0.279400*%
%TD*%
%TA.AperFunction,SMDPad,CuDef*%
%ADD20R,0.330200X0.482600*%
%TD*%
%TA.AperFunction,SMDPad,CuDef*%
%ADD21RoundRect,0.225000X-0.250000X0.225000X-0.250000X-0.225000X0.250000X-0.225000X0.250000X0.225000X0*%
%TD*%
%TA.AperFunction,SMDPad,CuDef*%
%ADD22RoundRect,0.225000X0.225000X0.250000X-0.225000X0.250000X-0.225000X-0.250000X0.225000X-0.250000X0*%
%TD*%
%TA.AperFunction,SMDPad,CuDef*%
%ADD23RotRect,0.279400X0.406400X240.000000*%
%TD*%
%TA.AperFunction,SMDPad,CuDef*%
%ADD24RotRect,0.660400X0.406400X240.000000*%
%TD*%
%TA.AperFunction,SMDPad,CuDef*%
%ADD25RoundRect,0.200000X0.275000X-0.200000X0.275000X0.200000X-0.275000X0.200000X-0.275000X-0.200000X0*%
%TD*%
%TA.AperFunction,SMDPad,CuDef*%
%ADD26RotRect,0.279400X0.406400X255.000000*%
%TD*%
%TA.AperFunction,SMDPad,CuDef*%
%ADD27RotRect,0.660400X0.406400X255.000000*%
%TD*%
%TA.AperFunction,SMDPad,CuDef*%
%ADD28RoundRect,0.200000X0.200000X0.275000X-0.200000X0.275000X-0.200000X-0.275000X0.200000X-0.275000X0*%
%TD*%
%TA.AperFunction,SMDPad,CuDef*%
%ADD29RoundRect,0.200000X-0.275000X0.200000X-0.275000X-0.200000X0.275000X-0.200000X0.275000X0.200000X0*%
%TD*%
%TA.AperFunction,ViaPad*%
%ADD30C,0.600000*%
%TD*%
%TA.AperFunction,Conductor*%
%ADD31C,0.500000*%
%TD*%
%TA.AperFunction,Conductor*%
%ADD32C,0.600000*%
%TD*%
%TA.AperFunction,Conductor*%
%ADD33C,0.400000*%
%TD*%
%TA.AperFunction,Conductor*%
%ADD34C,0.200000*%
%TD*%
%TA.AperFunction,Conductor*%
%ADD35C,0.300000*%
%TD*%
%TA.AperFunction,Conductor*%
%ADD36C,0.250000*%
%TD*%
G04 APERTURE END LIST*
D10*
%TO.P,D5,1,VDD*%
%TO.N,+5V*%
X88934314Y-72500000D03*
%TO.P,D5,2,DOUT*%
%TO.N,/5-6*%
X88934314Y-75800000D03*
%TO.P,D5,3,VSS*%
%TO.N,GND*%
X93834314Y-75800000D03*
%TO.P,D5,4,DIN*%
%TO.N,/4-5*%
X93834314Y-72500000D03*
%TD*%
D11*
%TO.P,D3,1,VDD*%
%TO.N,N/C*%
X139700000Y-114900000D03*
D12*
%TO.P,D3,2,DOUT*%
X140950000Y-116200000D03*
D11*
%TO.P,D3,3,VSS*%
X139700000Y-117500000D03*
D12*
%TO.P,D3,4,DIN*%
X138450000Y-116200000D03*
%TD*%
D13*
%TO.P,C2,1*%
%TO.N,GND*%
X51984314Y-72850000D03*
%TO.P,C2,2*%
%TO.N,+5V*%
X53534314Y-72850000D03*
%TD*%
%TO.P,C1,1*%
%TO.N,GND*%
X53100000Y-51300000D03*
%TO.P,C1,2*%
%TO.N,+5V*%
X54650000Y-51300000D03*
%TD*%
D11*
%TO.P,D3,1,VDD*%
%TO.N,+5V*%
X57966667Y-52200000D03*
D12*
%TO.P,D3,2,DOUT*%
%TO.N,/3-4*%
X59216667Y-53500000D03*
D11*
%TO.P,D3,3,VSS*%
%TO.N,GND*%
X57966667Y-54800000D03*
D12*
%TO.P,D3,4,DIN*%
%TO.N,/2-3*%
X56716667Y-53500000D03*
%TD*%
D11*
%TO.P,D4,1,VDD*%
%TO.N,+5V*%
X74633333Y-52200000D03*
D12*
%TO.P,D4,2,DOUT*%
%TO.N,/4-5*%
X75883333Y-53500000D03*
D11*
%TO.P,D4,3,VSS*%
%TO.N,GND*%
X74633333Y-54800000D03*
D12*
%TO.P,D4,4,DIN*%
%TO.N,/3-4*%
X73383333Y-53500000D03*
%TD*%
D14*
%TO.P,J24,1,1*%
%TO.N,/Basic1-2-extension/1D*%
X139425000Y-54516601D03*
%TO.P,J24,2,2*%
%TO.N,/Basic1-2-extension/1A*%
X139425000Y-52376601D03*
%TO.P,J24,3,3*%
%TO.N,/Basic1-2-extension/1C*%
X139025000Y-54516601D03*
%TO.P,J24,4,4*%
%TO.N,/Basic1-2-extension/1B*%
X139025000Y-52376601D03*
D15*
%TO.P,J24,P1,P1*%
%TO.N,5V*%
X140025001Y-54516601D03*
%TO.P,J24,P2,P2*%
X140025001Y-52376601D03*
%TO.P,J24,P3,P3*%
%TO.N,GND*%
X138424999Y-54516601D03*
%TO.P,J24,P4,P4*%
X138424999Y-52376601D03*
%TD*%
D16*
%TO.P,J29,1,1*%
%TO.N,/1Input3Output/1D*%
X142195000Y-33869999D03*
%TO.P,J29,2,2*%
%TO.N,/1Input3Output/1A*%
X140055000Y-33869999D03*
%TO.P,J29,3,3*%
%TO.N,/1Input3Output/1C*%
X142195000Y-34269999D03*
%TO.P,J29,4,4*%
%TO.N,/1Input3Output/1B*%
X140055000Y-34269999D03*
D17*
%TO.P,J29,P1,P1*%
%TO.N,5V*%
X142195000Y-33269998D03*
%TO.P,J29,P2,P2*%
X140055000Y-33269998D03*
%TO.P,J29,P3,P3*%
%TO.N,GND*%
X142195000Y-34870000D03*
%TO.P,J29,P4,P4*%
X140055000Y-34870000D03*
%TD*%
D16*
%TO.P,J8,1,1*%
%TO.N,/2Inputs1Output/2B*%
X158095000Y-47700000D03*
%TO.P,J8,2,2*%
%TO.N,/2Inputs1Output/1A*%
X155955000Y-47700000D03*
%TO.P,J8,3,3*%
%TO.N,/2Inputs1Output/2A*%
X158095000Y-48100000D03*
%TO.P,J8,4,4*%
%TO.N,/2Inputs1Output/1B*%
X155955000Y-48100000D03*
D17*
%TO.P,J8,P1,P1*%
%TO.N,5V*%
X158095000Y-47099999D03*
%TO.P,J8,P2,P2*%
X155955000Y-47099999D03*
%TO.P,J8,P3,P3*%
%TO.N,GND*%
X158095000Y-48700001D03*
%TO.P,J8,P4,P4*%
X155955000Y-48700001D03*
%TD*%
D16*
%TO.P,J30,1,1*%
%TO.N,GND*%
X138195000Y-33869999D03*
%TO.P,J30,2,2*%
%TO.N,/1Input3Output/1A*%
X136055000Y-33869999D03*
%TO.P,J30,3,3*%
%TO.N,GND*%
X138195000Y-34269999D03*
%TO.P,J30,4,4*%
X136055000Y-34269999D03*
D17*
%TO.P,J30,P1,P1*%
%TO.N,5V*%
X138195000Y-33269998D03*
%TO.P,J30,P2,P2*%
X136055000Y-33269998D03*
%TO.P,J30,P3,P3*%
%TO.N,GND*%
X138195000Y-34870000D03*
%TO.P,J30,P4,P4*%
X136055000Y-34870000D03*
%TD*%
D18*
%TO.P,J2,1,1*%
%TO.N,+5V*%
X112575000Y-115800000D03*
D19*
%TO.P,J2,2,2*%
%TO.N,/CH4*%
X112575000Y-116396800D03*
%TO.P,J2,3,3*%
%TO.N,/CH3*%
X112575000Y-116803200D03*
D18*
%TO.P,J2,4,4*%
%TO.N,GND*%
X112575000Y-117400000D03*
%TO.P,J2,5,5*%
%TO.N,+5V*%
X114975000Y-115800000D03*
D19*
%TO.P,J2,6,6*%
%TO.N,/CH1-OUT*%
X114975000Y-116396800D03*
%TO.P,J2,7,7*%
%TO.N,/CH2*%
X114975000Y-116803200D03*
D18*
%TO.P,J2,8,8*%
%TO.N,GND*%
X114975000Y-117400000D03*
D20*
%TO.P,J2,9*%
%TO.N,N/C*%
X112498800Y-115069997D03*
%TO.P,J2,10*%
X112498800Y-118130003D03*
%TO.P,J2,11*%
X115051200Y-115069997D03*
%TO.P,J2,12*%
X115051200Y-118130003D03*
%TD*%
D16*
%TO.P,J13,1,1*%
%TO.N,GND*%
X148095000Y-47700000D03*
%TO.P,J13,2,2*%
%TO.N,/1Input;Output(A\u002CD)/1A*%
X145955000Y-47700000D03*
%TO.P,J13,3,3*%
%TO.N,GND*%
X148095000Y-48100000D03*
%TO.P,J13,4,4*%
%TO.N,/1Input;Output(A\u002CD)/1C*%
X145955000Y-48100000D03*
D17*
%TO.P,J13,P1,P1*%
%TO.N,5V*%
X148095000Y-47099999D03*
%TO.P,J13,P2,P2*%
X145955000Y-47099999D03*
%TO.P,J13,P3,P3*%
%TO.N,GND*%
X148095000Y-48700001D03*
%TO.P,J13,P4,P4*%
X145955000Y-48700001D03*
%TD*%
D10*
%TO.P,D1,1,VDD*%
%TO.N,+5V*%
X27325000Y-114950000D03*
%TO.P,D1,2,DOUT*%
%TO.N,/1-2*%
X27325000Y-118250000D03*
%TO.P,D1,3,VSS*%
%TO.N,GND*%
X32225000Y-118250000D03*
%TO.P,D1,4,DIN*%
%TO.N,Net-(D1-DIN)*%
X32225000Y-114950000D03*
%TD*%
D11*
%TO.P,D3,1,VDD*%
%TO.N,+5V*%
X157391667Y-114800000D03*
D12*
%TO.P,D3,2,DOUT*%
%TO.N,/3-4*%
X158641667Y-116100000D03*
D11*
%TO.P,D3,3,VSS*%
%TO.N,GND*%
X157391667Y-117400000D03*
D12*
%TO.P,D3,4,DIN*%
%TO.N,/2-3*%
X156141667Y-116100000D03*
%TD*%
D16*
%TO.P,J28,1,1*%
%TO.N,/Basic1-2-shorten/1D*%
X151380000Y-57780201D03*
%TO.P,J28,2,2*%
%TO.N,/Basic1-2-shorten/1A*%
X149240000Y-57780201D03*
%TO.P,J28,3,3*%
%TO.N,/Basic1-2-shorten/1C*%
X151380000Y-58180201D03*
%TO.P,J28,4,4*%
%TO.N,/Basic1-2-shorten/1B*%
X149240000Y-58180201D03*
D17*
%TO.P,J28,P1,P1*%
%TO.N,5V*%
X151380000Y-57180200D03*
%TO.P,J28,P2,P2*%
X149240000Y-57180200D03*
%TO.P,J28,P3,P3*%
%TO.N,GND*%
X151380000Y-58780202D03*
%TO.P,J28,P4,P4*%
X149240000Y-58780202D03*
%TD*%
D21*
%TO.P,C3,1*%
%TO.N,N/C*%
X155500000Y-89700000D03*
%TO.P,C3,2*%
X155500000Y-91250000D03*
%TD*%
D22*
%TO.P,C3,1*%
%TO.N,GND*%
X74900000Y-30450000D03*
%TO.P,C3,2*%
%TO.N,+5V*%
X73350000Y-30450000D03*
%TD*%
D13*
%TO.P,C2,1*%
%TO.N,GND*%
X97700000Y-115300000D03*
%TO.P,C2,2*%
%TO.N,+5V*%
X99250000Y-115300000D03*
%TD*%
D21*
%TO.P,C3,1*%
%TO.N,N/C*%
X149000000Y-99950000D03*
%TO.P,C3,2*%
X149000000Y-101500000D03*
%TD*%
D14*
%TO.P,J17,1,1*%
%TO.N,/Cross/2D*%
X158755000Y-56830000D03*
%TO.P,J17,2,2*%
%TO.N,/Cross/2A*%
X158755000Y-58970000D03*
%TO.P,J17,3,3*%
%TO.N,/Cross/2C*%
X159155000Y-56830000D03*
%TO.P,J17,4,4*%
%TO.N,/Cross/2B*%
X159155000Y-58970000D03*
D15*
%TO.P,J17,P1,P1*%
%TO.N,5V*%
X158154999Y-56830000D03*
%TO.P,J17,P2,P2*%
X158154999Y-58970000D03*
%TO.P,J17,P3,P3*%
%TO.N,GND*%
X159755001Y-56830000D03*
%TO.P,J17,P4,P4*%
X159755001Y-58970000D03*
%TD*%
D16*
%TO.P,J15,1,1*%
%TO.N,/Cross/1D*%
X162025000Y-61700000D03*
%TO.P,J15,2,2*%
%TO.N,/Cross/1A*%
X159885000Y-61700000D03*
%TO.P,J15,3,3*%
%TO.N,/Cross/1C*%
X162025000Y-62100000D03*
%TO.P,J15,4,4*%
%TO.N,/Cross/1B*%
X159885000Y-62100000D03*
D17*
%TO.P,J15,P1,P1*%
%TO.N,5V*%
X162025000Y-61099999D03*
%TO.P,J15,P2,P2*%
X159885000Y-61099999D03*
%TO.P,J15,P3,P3*%
%TO.N,GND*%
X162025000Y-62700001D03*
%TO.P,J15,P4,P4*%
X159885000Y-62700001D03*
%TD*%
D23*
%TO.P,J22,1,1*%
%TO.N,/Basic1-1-curve-2/1D*%
X146924998Y-64119615D03*
%TO.P,J22,2,2*%
%TO.N,/Basic1-1-curve-2/1A*%
X145071704Y-63049615D03*
%TO.P,J22,3,3*%
%TO.N,/Basic1-1-curve-2/1C*%
X146724998Y-64466025D03*
%TO.P,J22,4,4*%
%TO.N,/Basic1-1-curve-2/1B*%
X144871704Y-63396025D03*
D24*
%TO.P,J22,P1,P1*%
%TO.N,5V*%
X147224999Y-63599999D03*
%TO.P,J22,P2,P2*%
X145371704Y-62529999D03*
%TO.P,J22,P3,P3*%
%TO.N,GND*%
X146424998Y-64985641D03*
%TO.P,J22,P4,P4*%
X144571703Y-63915641D03*
%TD*%
D18*
%TO.P,J2,1,1*%
%TO.N,+5V*%
X112200000Y-31650000D03*
D19*
%TO.P,J2,2,2*%
%TO.N,/CH4*%
X112200000Y-32246800D03*
%TO.P,J2,3,3*%
%TO.N,/CH3*%
X112200000Y-32653200D03*
D18*
%TO.P,J2,4,4*%
%TO.N,GND*%
X112200000Y-33250000D03*
%TO.P,J2,5,5*%
%TO.N,+5V*%
X114600000Y-31650000D03*
D19*
%TO.P,J2,6,6*%
%TO.N,/CH1-OUT*%
X114600000Y-32246800D03*
%TO.P,J2,7,7*%
%TO.N,/CH2*%
X114600000Y-32653200D03*
D18*
%TO.P,J2,8,8*%
%TO.N,GND*%
X114600000Y-33250000D03*
D20*
%TO.P,J2,9*%
%TO.N,N/C*%
X112123800Y-30919997D03*
%TO.P,J2,10*%
X112123800Y-33980003D03*
%TO.P,J2,11*%
X114676200Y-30919997D03*
%TO.P,J2,12*%
X114676200Y-33980003D03*
%TD*%
D11*
%TO.P,D2,1,VDD*%
%TO.N,+5V*%
X44600000Y-10200000D03*
D12*
%TO.P,D2,2,DOUT*%
%TO.N,/2-3*%
X45850000Y-11500000D03*
D11*
%TO.P,D2,3,VSS*%
%TO.N,GND*%
X44600000Y-12800000D03*
D12*
%TO.P,D2,4,DIN*%
%TO.N,/1-2*%
X43350000Y-11500000D03*
%TD*%
D18*
%TO.P,J1,1,1*%
%TO.N,+5V*%
X17484314Y-94650000D03*
D19*
%TO.P,J1,2,2*%
%TO.N,/CH4*%
X17484314Y-95246800D03*
%TO.P,J1,3,3*%
%TO.N,/CH3*%
X17484314Y-95653200D03*
D18*
%TO.P,J1,4,4*%
%TO.N,GND*%
X17484314Y-96250000D03*
%TO.P,J1,5,5*%
%TO.N,+5V*%
X19884314Y-94650000D03*
D19*
%TO.P,J1,6,6*%
%TO.N,/CH1-IN*%
X19884314Y-95246800D03*
%TO.P,J1,7,7*%
%TO.N,/CH2*%
X19884314Y-95653200D03*
D18*
%TO.P,J1,8,8*%
%TO.N,GND*%
X19884314Y-96250000D03*
D20*
%TO.P,J1,9*%
%TO.N,N/C*%
X17408114Y-93919997D03*
%TO.P,J1,10*%
X17408114Y-96980003D03*
%TO.P,J1,11*%
X19960514Y-93919997D03*
%TO.P,J1,12*%
X19960514Y-96980003D03*
%TD*%
D18*
%TO.P,J1,1,1*%
%TO.N,+5V*%
X17200000Y-31650000D03*
D19*
%TO.P,J1,2,2*%
%TO.N,/CH4*%
X17200000Y-32246800D03*
%TO.P,J1,3,3*%
%TO.N,/CH3*%
X17200000Y-32653200D03*
D18*
%TO.P,J1,4,4*%
%TO.N,GND*%
X17200000Y-33250000D03*
%TO.P,J1,5,5*%
%TO.N,+5V*%
X19600000Y-31650000D03*
D19*
%TO.P,J1,6,6*%
%TO.N,/CH1-IN*%
X19600000Y-32246800D03*
%TO.P,J1,7,7*%
%TO.N,/CH2*%
X19600000Y-32653200D03*
D18*
%TO.P,J1,8,8*%
%TO.N,GND*%
X19600000Y-33250000D03*
D20*
%TO.P,J1,9*%
%TO.N,N/C*%
X17123800Y-30919997D03*
%TO.P,J1,10*%
X17123800Y-33980003D03*
%TO.P,J1,11*%
X19676200Y-30919997D03*
%TO.P,J1,12*%
X19676200Y-33980003D03*
%TD*%
D16*
%TO.P,J10,1,1*%
%TO.N,GND*%
X148095000Y-37700000D03*
%TO.P,J10,2,2*%
%TO.N,/1nput;Output(A\u002CB)/1A*%
X145955000Y-37700000D03*
%TO.P,J10,3,3*%
%TO.N,GND*%
X148095000Y-38100000D03*
%TO.P,J10,4,4*%
%TO.N,/1nput;Output(A\u002CB)/1C*%
X145955000Y-38100000D03*
D17*
%TO.P,J10,P1,P1*%
%TO.N,5V*%
X148095000Y-37099999D03*
%TO.P,J10,P2,P2*%
X145955000Y-37099999D03*
%TO.P,J10,P3,P3*%
%TO.N,GND*%
X148095000Y-38700001D03*
%TO.P,J10,P4,P4*%
X145955000Y-38700001D03*
%TD*%
D11*
%TO.P,D1,1,VDD*%
%TO.N,+5V*%
X29400000Y-31150000D03*
D12*
%TO.P,D1,2,DOUT*%
%TO.N,/1-2*%
X30650000Y-32450000D03*
D11*
%TO.P,D1,3,VSS*%
%TO.N,GND*%
X29400000Y-33750000D03*
D12*
%TO.P,D1,4,DIN*%
%TO.N,Net-(D1-DIN)*%
X28150000Y-32450000D03*
%TD*%
D16*
%TO.P,J21,1,1*%
%TO.N,/Basic1-1-curve-2/1D*%
X151794999Y-64899999D03*
%TO.P,J21,2,2*%
%TO.N,/Basic1-1-curve-2/1A*%
X149654999Y-64899999D03*
%TO.P,J21,3,3*%
%TO.N,/Basic1-1-curve-2/1C*%
X151794999Y-65299999D03*
%TO.P,J21,4,4*%
%TO.N,/Basic1-1-curve-2/1B*%
X149654999Y-65299999D03*
D17*
%TO.P,J21,P1,P1*%
%TO.N,5V*%
X151794999Y-64299998D03*
%TO.P,J21,P2,P2*%
X149654999Y-64299998D03*
%TO.P,J21,P3,P3*%
%TO.N,GND*%
X151794999Y-65900000D03*
%TO.P,J21,P4,P4*%
X149654999Y-65900000D03*
%TD*%
D21*
%TO.P,C3,1*%
%TO.N,N/C*%
X137250000Y-99950000D03*
%TO.P,C3,2*%
X137250000Y-101500000D03*
%TD*%
D10*
%TO.P,D3,1,VDD*%
%TO.N,+5V*%
X63734314Y-93800000D03*
%TO.P,D3,2,DOUT*%
%TO.N,/3-4*%
X63734314Y-97100000D03*
%TO.P,D3,3,VSS*%
%TO.N,GND*%
X68634314Y-97100000D03*
%TO.P,D3,4,DIN*%
%TO.N,/2-3*%
X68634314Y-93800000D03*
%TD*%
D18*
%TO.P,J2,1,1*%
%TO.N,+5V*%
X112484314Y-94650000D03*
D19*
%TO.P,J2,2,2*%
%TO.N,/CH4*%
X112484314Y-95246800D03*
%TO.P,J2,3,3*%
%TO.N,/CH3*%
X112484314Y-95653200D03*
D18*
%TO.P,J2,4,4*%
%TO.N,GND*%
X112484314Y-96250000D03*
%TO.P,J2,5,5*%
%TO.N,+5V*%
X114884314Y-94650000D03*
D19*
%TO.P,J2,6,6*%
%TO.N,/CH1-OUT*%
X114884314Y-95246800D03*
%TO.P,J2,7,7*%
%TO.N,/CH2*%
X114884314Y-95653200D03*
D18*
%TO.P,J2,8,8*%
%TO.N,GND*%
X114884314Y-96250000D03*
D20*
%TO.P,J2,9*%
%TO.N,N/C*%
X112408114Y-93919997D03*
%TO.P,J2,10*%
X112408114Y-96980003D03*
%TO.P,J2,11*%
X114960514Y-93919997D03*
%TO.P,J2,12*%
X114960514Y-96980003D03*
%TD*%
D14*
%TO.P,J14,1,1*%
%TO.N,GND*%
X148825000Y-50830000D03*
%TO.P,J14,2,2*%
%TO.N,/1Input;Output(A\u002CD)/1D*%
X148825000Y-52970000D03*
%TO.P,J14,3,3*%
%TO.N,GND*%
X149225000Y-50830000D03*
%TO.P,J14,4,4*%
%TO.N,/1Input;Output(A\u002CD)/1B*%
X149225000Y-52970000D03*
D15*
%TO.P,J14,P1,P1*%
%TO.N,5V*%
X148224999Y-50830000D03*
%TO.P,J14,P2,P2*%
X148224999Y-52970000D03*
%TO.P,J14,P3,P3*%
%TO.N,GND*%
X149825001Y-50830000D03*
%TO.P,J14,P4,P4*%
X149825001Y-52970000D03*
%TD*%
D25*
%TO.P,R1,1*%
%TO.N,/CH1-IN*%
X22650000Y-34025000D03*
%TO.P,R1,2*%
%TO.N,Net-(D1-DIN)*%
X22650000Y-32375000D03*
%TD*%
D18*
%TO.P,J2,1,1*%
%TO.N,+5V*%
X112150000Y-10700000D03*
D19*
%TO.P,J2,2,2*%
%TO.N,/CH4*%
X112150000Y-11296800D03*
%TO.P,J2,3,3*%
%TO.N,/CH3*%
X112150000Y-11703200D03*
D18*
%TO.P,J2,4,4*%
%TO.N,GND*%
X112150000Y-12300000D03*
%TO.P,J2,5,5*%
%TO.N,+5V*%
X114550000Y-10700000D03*
D19*
%TO.P,J2,6,6*%
%TO.N,/CH1-OUT*%
X114550000Y-11296800D03*
%TO.P,J2,7,7*%
%TO.N,/CH2*%
X114550000Y-11703200D03*
D18*
%TO.P,J2,8,8*%
%TO.N,GND*%
X114550000Y-12300000D03*
D20*
%TO.P,J2,9*%
%TO.N,N/C*%
X112073800Y-9969997D03*
%TO.P,J2,10*%
X112073800Y-13030003D03*
%TO.P,J2,11*%
X114626200Y-9969997D03*
%TO.P,J2,12*%
X114626200Y-13030003D03*
%TD*%
D10*
%TO.P,D4,1,VDD*%
%TO.N,+5V*%
X83734314Y-93800000D03*
%TO.P,D4,2,DOUT*%
%TO.N,/4-5*%
X83734314Y-97100000D03*
%TO.P,D4,3,VSS*%
%TO.N,GND*%
X88634314Y-97100000D03*
%TO.P,D4,4,DIN*%
%TO.N,/3-4*%
X88634314Y-93800000D03*
%TD*%
D21*
%TO.P,C3,1*%
%TO.N,N/C*%
X158000000Y-100175000D03*
%TO.P,C3,2*%
X158000000Y-101725000D03*
%TD*%
%TO.P,C3,1*%
%TO.N,N/C*%
X156000000Y-100175000D03*
%TO.P,C3,2*%
X156000000Y-101725000D03*
%TD*%
%TO.P,C3,1*%
%TO.N,N/C*%
X157500000Y-89700000D03*
%TO.P,C3,2*%
X157500000Y-91250000D03*
%TD*%
D10*
%TO.P,D6,1,VDD*%
%TO.N,+5V*%
X105600981Y-72500000D03*
%TO.P,D6,2,DOUT*%
%TO.N,/CH1-OUT*%
X105600981Y-75800000D03*
%TO.P,D6,3,VSS*%
%TO.N,GND*%
X110500981Y-75800000D03*
%TO.P,D6,4,DIN*%
%TO.N,/5-6*%
X110500981Y-72500000D03*
%TD*%
D18*
%TO.P,J1,1,1*%
%TO.N,+5V*%
X17575000Y-115800000D03*
D19*
%TO.P,J1,2,2*%
%TO.N,/CH4*%
X17575000Y-116396800D03*
%TO.P,J1,3,3*%
%TO.N,/CH3*%
X17575000Y-116803200D03*
D18*
%TO.P,J1,4,4*%
%TO.N,GND*%
X17575000Y-117400000D03*
%TO.P,J1,5,5*%
%TO.N,+5V*%
X19975000Y-115800000D03*
D19*
%TO.P,J1,6,6*%
%TO.N,/CH1-IN*%
X19975000Y-116396800D03*
%TO.P,J1,7,7*%
%TO.N,/CH2*%
X19975000Y-116803200D03*
D18*
%TO.P,J1,8,8*%
%TO.N,GND*%
X19975000Y-117400000D03*
D20*
%TO.P,J1,9*%
%TO.N,N/C*%
X17498800Y-115069997D03*
%TO.P,J1,10*%
X17498800Y-118130003D03*
%TO.P,J1,11*%
X20051200Y-115069997D03*
%TO.P,J1,12*%
X20051200Y-118130003D03*
%TD*%
D11*
%TO.P,D5,1,VDD*%
%TO.N,+5V*%
X105850000Y-10200000D03*
D12*
%TO.P,D5,2,DOUT*%
%TO.N,/CH1-OUT*%
X107100000Y-11500000D03*
D11*
%TO.P,D5,3,VSS*%
%TO.N,GND*%
X105850000Y-12800000D03*
D12*
%TO.P,D5,4,DIN*%
%TO.N,/4-5*%
X104600000Y-11500000D03*
%TD*%
D18*
%TO.P,J1,1,1*%
%TO.N,+5V*%
X17150000Y-10700000D03*
D19*
%TO.P,J1,2,2*%
%TO.N,/CH4*%
X17150000Y-11296800D03*
%TO.P,J1,3,3*%
%TO.N,/CH3*%
X17150000Y-11703200D03*
D18*
%TO.P,J1,4,4*%
%TO.N,GND*%
X17150000Y-12300000D03*
%TO.P,J1,5,5*%
%TO.N,+5V*%
X19550000Y-10700000D03*
D19*
%TO.P,J1,6,6*%
%TO.N,/CH1-IN*%
X19550000Y-11296800D03*
%TO.P,J1,7,7*%
%TO.N,/CH2*%
X19550000Y-11703200D03*
D18*
%TO.P,J1,8,8*%
%TO.N,GND*%
X19550000Y-12300000D03*
D20*
%TO.P,J1,9*%
%TO.N,N/C*%
X17073800Y-9969997D03*
%TO.P,J1,10*%
X17073800Y-13030003D03*
%TO.P,J1,11*%
X19626200Y-9969997D03*
%TO.P,J1,12*%
X19626200Y-13030003D03*
%TD*%
D14*
%TO.P,J2,1,1*%
%TO.N,GND*%
X158825000Y-40830000D03*
%TO.P,J2,2,2*%
%TO.N,/1Input2Outputs/1C*%
X158825000Y-42970000D03*
%TO.P,J2,3,3*%
%TO.N,GND*%
X159225000Y-40830000D03*
%TO.P,J2,4,4*%
%TO.N,/1Input2Outputs/1D*%
X159225000Y-42970000D03*
D15*
%TO.P,J2,P1,P1*%
%TO.N,5V*%
X158224999Y-40830000D03*
%TO.P,J2,P2,P2*%
X158224999Y-42970000D03*
%TO.P,J2,P3,P3*%
%TO.N,GND*%
X159825001Y-40830000D03*
%TO.P,J2,P4,P4*%
X159825001Y-42970000D03*
%TD*%
D13*
%TO.P,C2,1*%
%TO.N,GND*%
X99809314Y-94150000D03*
%TO.P,C2,2*%
%TO.N,+5V*%
X101359314Y-94150000D03*
%TD*%
D11*
%TO.P,D1,1,VDD*%
%TO.N,+5V*%
X24633333Y-52200000D03*
D12*
%TO.P,D1,2,DOUT*%
%TO.N,/1-2*%
X25883333Y-53500000D03*
D11*
%TO.P,D1,3,VSS*%
%TO.N,GND*%
X24633333Y-54800000D03*
D12*
%TO.P,D1,4,DIN*%
%TO.N,Net-(D1-DIN)*%
X23383333Y-53500000D03*
%TD*%
D22*
%TO.P,C3,1*%
%TO.N,GND*%
X72875000Y-9500000D03*
%TO.P,C3,2*%
%TO.N,+5V*%
X71325000Y-9500000D03*
%TD*%
D16*
%TO.P,J16,1,1*%
%TO.N,/Cross/1D*%
X158025000Y-61700000D03*
%TO.P,J16,2,2*%
%TO.N,/Cross/1A*%
X155885000Y-61700000D03*
%TO.P,J16,3,3*%
%TO.N,/Cross/1C*%
X158025000Y-62100000D03*
%TO.P,J16,4,4*%
%TO.N,/Cross/1B*%
X155885000Y-62100000D03*
D17*
%TO.P,J16,P1,P1*%
%TO.N,5V*%
X158025000Y-61099999D03*
%TO.P,J16,P2,P2*%
X155885000Y-61099999D03*
%TO.P,J16,P3,P3*%
%TO.N,GND*%
X158025000Y-62700001D03*
%TO.P,J16,P4,P4*%
X155885000Y-62700001D03*
%TD*%
D14*
%TO.P,J23,1,1*%
%TO.N,/Basic1-2-extension/1D*%
X139425000Y-59016601D03*
%TO.P,J23,2,2*%
%TO.N,/Basic1-2-extension/1A*%
X139425000Y-56876601D03*
%TO.P,J23,3,3*%
%TO.N,/Basic1-2-extension/1C*%
X139025000Y-59016601D03*
%TO.P,J23,4,4*%
%TO.N,/Basic1-2-extension/1B*%
X139025000Y-56876601D03*
D15*
%TO.P,J23,P1,P1*%
%TO.N,5V*%
X140025001Y-59016601D03*
%TO.P,J23,P2,P2*%
X140025001Y-56876601D03*
%TO.P,J23,P3,P3*%
%TO.N,GND*%
X138424999Y-59016601D03*
%TO.P,J23,P4,P4*%
X138424999Y-56876601D03*
%TD*%
D10*
%TO.P,D2,1,VDD*%
%TO.N,+5V*%
X38934314Y-72500000D03*
%TO.P,D2,2,DOUT*%
%TO.N,/2-3*%
X38934314Y-75800000D03*
%TO.P,D2,3,VSS*%
%TO.N,GND*%
X43834314Y-75800000D03*
%TO.P,D2,4,DIN*%
%TO.N,/1-2*%
X43834314Y-72500000D03*
%TD*%
D21*
%TO.P,C3,1*%
%TO.N,N/C*%
X135500000Y-99950000D03*
%TO.P,C3,2*%
X135500000Y-101500000D03*
%TD*%
D22*
%TO.P,C3,1*%
%TO.N,GND*%
X72659314Y-94050000D03*
%TO.P,C3,2*%
%TO.N,+5V*%
X71109314Y-94050000D03*
%TD*%
%TO.P,C2,1*%
%TO.N,GND*%
X96575000Y-51400000D03*
%TO.P,C2,2*%
%TO.N,+5V*%
X95025000Y-51400000D03*
%TD*%
D25*
%TO.P,R1,1*%
%TO.N,/CH1-IN*%
X22600000Y-13075000D03*
%TO.P,R1,2*%
%TO.N,Net-(D1-DIN)*%
X22600000Y-11425000D03*
%TD*%
D11*
%TO.P,D4,1,VDD*%
%TO.N,+5V*%
X85850000Y-10200000D03*
D12*
%TO.P,D4,2,DOUT*%
%TO.N,/4-5*%
X87100000Y-11500000D03*
D11*
%TO.P,D4,3,VSS*%
%TO.N,GND*%
X85850000Y-12800000D03*
D12*
%TO.P,D4,4,DIN*%
%TO.N,/3-4*%
X84600000Y-11500000D03*
%TD*%
D21*
%TO.P,C3,1*%
%TO.N,N/C*%
X160000000Y-100175000D03*
%TO.P,C3,2*%
X160000000Y-101725000D03*
%TD*%
D14*
%TO.P,J32,1,1*%
%TO.N,GND*%
X139395000Y-31139999D03*
%TO.P,J32,2,2*%
%TO.N,/1Input3Output/1C*%
X139395000Y-28999999D03*
%TO.P,J32,3,3*%
%TO.N,GND*%
X138995000Y-31139999D03*
%TO.P,J32,4,4*%
%TO.N,/1Input3Output/1D*%
X138995000Y-28999999D03*
D15*
%TO.P,J32,P1,P1*%
%TO.N,5V*%
X139995001Y-31139999D03*
%TO.P,J32,P2,P2*%
X139995001Y-28999999D03*
%TO.P,J32,P3,P3*%
%TO.N,GND*%
X138394999Y-31139999D03*
%TO.P,J32,P4,P4*%
X138394999Y-28999999D03*
%TD*%
D21*
%TO.P,C3,1*%
%TO.N,N/C*%
X137000000Y-89675000D03*
%TO.P,C3,2*%
X137000000Y-91225000D03*
%TD*%
D22*
%TO.P,C3,1*%
%TO.N,GND*%
X80200000Y-51600000D03*
%TO.P,C3,2*%
%TO.N,+5V*%
X78650000Y-51600000D03*
%TD*%
D10*
%TO.P,D4,1,VDD*%
%TO.N,+5V*%
X102325000Y-114950000D03*
%TO.P,D4,2,DOUT*%
%TO.N,/CH1-OUT*%
X102325000Y-118250000D03*
%TO.P,D4,3,VSS*%
%TO.N,GND*%
X107225000Y-118250000D03*
%TO.P,D4,4,DIN*%
%TO.N,/3-4*%
X107225000Y-114950000D03*
%TD*%
%TO.P,D3,1,VDD*%
%TO.N,+5V*%
X55600981Y-72500000D03*
%TO.P,D3,2,DOUT*%
%TO.N,/3-4*%
X55600981Y-75800000D03*
%TO.P,D3,3,VSS*%
%TO.N,GND*%
X60500981Y-75800000D03*
%TO.P,D3,4,DIN*%
%TO.N,/2-3*%
X60500981Y-72500000D03*
%TD*%
D25*
%TO.P,R1,1*%
%TO.N,/CH1-IN*%
X23025000Y-118175000D03*
%TO.P,R1,2*%
%TO.N,Net-(D1-DIN)*%
X23025000Y-116525000D03*
%TD*%
D11*
%TO.P,D3,1,VDD*%
%TO.N,+5V*%
X65850000Y-10200000D03*
D12*
%TO.P,D3,2,DOUT*%
%TO.N,/3-4*%
X67100000Y-11500000D03*
D11*
%TO.P,D3,3,VSS*%
%TO.N,GND*%
X65850000Y-12800000D03*
D12*
%TO.P,D3,4,DIN*%
%TO.N,/2-3*%
X64600000Y-11500000D03*
%TD*%
D21*
%TO.P,C3,1*%
%TO.N,N/C*%
X143250000Y-89450000D03*
%TO.P,C3,2*%
X143250000Y-91000000D03*
%TD*%
D16*
%TO.P,J1,1,1*%
%TO.N,GND*%
X158095000Y-37700000D03*
%TO.P,J1,2,2*%
%TO.N,/1Input2Outputs/1A*%
X155955000Y-37700000D03*
%TO.P,J1,3,3*%
%TO.N,GND*%
X158095000Y-38100000D03*
%TO.P,J1,4,4*%
%TO.N,/1Input2Outputs/1B*%
X155955000Y-38100000D03*
D17*
%TO.P,J1,P1,P1*%
%TO.N,5V*%
X158095000Y-37099999D03*
%TO.P,J1,P2,P2*%
X155955000Y-37099999D03*
%TO.P,J1,P3,P3*%
%TO.N,GND*%
X158095000Y-38700001D03*
%TO.P,J1,P4,P4*%
X155955000Y-38700001D03*
%TD*%
D11*
%TO.P,D2,1,VDD*%
%TO.N,+5V*%
X54400000Y-31150000D03*
D12*
%TO.P,D2,2,DOUT*%
%TO.N,/2-3*%
X55650000Y-32450000D03*
D11*
%TO.P,D2,3,VSS*%
%TO.N,GND*%
X54400000Y-33750000D03*
D12*
%TO.P,D2,4,DIN*%
%TO.N,/1-2*%
X53150000Y-32450000D03*
%TD*%
D10*
%TO.P,D3,1,VDD*%
%TO.N,+5V*%
X77325000Y-114950000D03*
%TO.P,D3,2,DOUT*%
%TO.N,/3-4*%
X77325000Y-118250000D03*
%TO.P,D3,3,VSS*%
%TO.N,GND*%
X82225000Y-118250000D03*
%TO.P,D3,4,DIN*%
%TO.N,/2-3*%
X82225000Y-114950000D03*
%TD*%
%TO.P,D5,1,VDD*%
%TO.N,+5V*%
X103734314Y-93800000D03*
%TO.P,D5,2,DOUT*%
%TO.N,/CH1-OUT*%
X103734314Y-97100000D03*
%TO.P,D5,3,VSS*%
%TO.N,GND*%
X108634314Y-97100000D03*
%TO.P,D5,4,DIN*%
%TO.N,/4-5*%
X108634314Y-93800000D03*
%TD*%
%TO.P,D4,1,VDD*%
%TO.N,+5V*%
X72267647Y-72500000D03*
%TO.P,D4,2,DOUT*%
%TO.N,/4-5*%
X72267647Y-75800000D03*
%TO.P,D4,3,VSS*%
%TO.N,GND*%
X77167647Y-75800000D03*
%TO.P,D4,4,DIN*%
%TO.N,/3-4*%
X77167647Y-72500000D03*
%TD*%
D16*
%TO.P,J20,1,1*%
%TO.N,/Basic1-1-curve1/1D*%
X152438082Y-30567346D03*
%TO.P,J20,2,2*%
%TO.N,/Basic1-1-curve1/1A*%
X150298082Y-30567346D03*
%TO.P,J20,3,3*%
%TO.N,/Basic1-1-curve1/1C*%
X152438082Y-30967346D03*
%TO.P,J20,4,4*%
%TO.N,/Basic1-1-curve1/1B*%
X150298082Y-30967346D03*
D17*
%TO.P,J20,P1,P1*%
%TO.N,5V*%
X152438082Y-29967345D03*
%TO.P,J20,P2,P2*%
X150298082Y-29967345D03*
%TO.P,J20,P3,P3*%
%TO.N,GND*%
X152438082Y-31567347D03*
%TO.P,J20,P4,P4*%
X150298082Y-31567347D03*
%TD*%
D11*
%TO.P,D1,1,VDD*%
%TO.N,+5V*%
X25850000Y-10200000D03*
D12*
%TO.P,D1,2,DOUT*%
%TO.N,/1-2*%
X27100000Y-11500000D03*
D11*
%TO.P,D1,3,VSS*%
%TO.N,GND*%
X25850000Y-12800000D03*
D12*
%TO.P,D1,4,DIN*%
%TO.N,Net-(D1-DIN)*%
X24600000Y-11500000D03*
%TD*%
D13*
%TO.P,C3,1*%
%TO.N,GND*%
X71700000Y-115350000D03*
%TO.P,C3,2*%
%TO.N,+5V*%
X73250000Y-115350000D03*
%TD*%
%TO.P,C1,1*%
%TO.N,GND*%
X152525000Y-113900000D03*
%TO.P,C1,2*%
%TO.N,+5V*%
X154075000Y-113900000D03*
%TD*%
D26*
%TO.P,J19,1,1*%
%TO.N,/Basic1-1-curve1/1D*%
X148453386Y-30351097D03*
%TO.P,J19,2,2*%
%TO.N,/Basic1-1-curve1/1A*%
X146386305Y-29797224D03*
%TO.P,J19,3,3*%
%TO.N,/Basic1-1-curve1/1C*%
X148349859Y-30737468D03*
%TO.P,J19,4,4*%
%TO.N,/Basic1-1-curve1/1B*%
X146282778Y-30183595D03*
D27*
%TO.P,J19,P1,P1*%
%TO.N,5V*%
X148608678Y-29771541D03*
%TO.P,J19,P2,P2*%
X146541597Y-29217668D03*
%TO.P,J19,P3,P3*%
%TO.N,GND*%
X148194567Y-31317024D03*
%TO.P,J19,P4,P4*%
X146127486Y-30763151D03*
%TD*%
D13*
%TO.P,C2,1*%
%TO.N,GND*%
X100975000Y-9500000D03*
%TO.P,C2,2*%
%TO.N,+5V*%
X102525000Y-9500000D03*
%TD*%
D14*
%TO.P,J26,1,1*%
%TO.N,/Basic1-2-extension2/1D*%
X139025000Y-68900000D03*
%TO.P,J26,2,2*%
%TO.N,/Basic1-2-extension2/1A*%
X139025000Y-66760000D03*
%TO.P,J26,3,3*%
%TO.N,/Basic1-2-extension2/1C*%
X138625000Y-68900000D03*
%TO.P,J26,4,4*%
%TO.N,/Basic1-2-extension2/1B*%
X138625000Y-66760000D03*
D15*
%TO.P,J26,P1,P1*%
%TO.N,5V*%
X139625001Y-68900000D03*
%TO.P,J26,P2,P2*%
X139625001Y-66760000D03*
%TO.P,J26,P3,P3*%
%TO.N,GND*%
X138024999Y-68900000D03*
%TO.P,J26,P4,P4*%
X138024999Y-66760000D03*
%TD*%
D13*
%TO.P,C1,1*%
%TO.N,GND*%
X35109314Y-72750000D03*
%TO.P,C1,2*%
%TO.N,+5V*%
X36659314Y-72750000D03*
%TD*%
%TO.P,C2,1*%
%TO.N,GND*%
X99625000Y-30450000D03*
%TO.P,C2,2*%
%TO.N,+5V*%
X101175000Y-30450000D03*
%TD*%
D16*
%TO.P,J12,1,1*%
%TO.N,/1Input;Output(A\u002CD)/1D*%
X152095000Y-47700000D03*
%TO.P,J12,2,2*%
%TO.N,/1Input;Output(A\u002CD)/1A*%
X149955000Y-47700000D03*
%TO.P,J12,3,3*%
%TO.N,/1Input;Output(A\u002CD)/1C*%
X152095000Y-48100000D03*
%TO.P,J12,4,4*%
%TO.N,/1Input;Output(A\u002CD)/1B*%
X149955000Y-48100000D03*
D17*
%TO.P,J12,P1,P1*%
%TO.N,5V*%
X152095000Y-47099999D03*
%TO.P,J12,P2,P2*%
X149955000Y-47099999D03*
%TO.P,J12,P3,P3*%
%TO.N,GND*%
X152095000Y-48700001D03*
%TO.P,J12,P4,P4*%
X149955000Y-48700001D03*
%TD*%
D14*
%TO.P,J18,1,1*%
%TO.N,/Cross/2D*%
X158825000Y-64830000D03*
%TO.P,J18,2,2*%
%TO.N,/Cross/2A*%
X158825000Y-66970000D03*
%TO.P,J18,3,3*%
%TO.N,/Cross/2C*%
X159225000Y-64830000D03*
%TO.P,J18,4,4*%
%TO.N,/Cross/2B*%
X159225000Y-66970000D03*
D15*
%TO.P,J18,P1,P1*%
%TO.N,5V*%
X158224999Y-64830000D03*
%TO.P,J18,P2,P2*%
X158224999Y-66970000D03*
%TO.P,J18,P3,P3*%
%TO.N,GND*%
X159825001Y-64830000D03*
%TO.P,J18,P4,P4*%
X159825001Y-66970000D03*
%TD*%
D11*
%TO.P,D4,1,VDD*%
%TO.N,+5V*%
X104400000Y-31150000D03*
D12*
%TO.P,D4,2,DOUT*%
%TO.N,/CH1-OUT*%
X105650000Y-32450000D03*
D11*
%TO.P,D4,3,VSS*%
%TO.N,GND*%
X104400000Y-33750000D03*
D12*
%TO.P,D4,4,DIN*%
%TO.N,/3-4*%
X103150000Y-32450000D03*
%TD*%
D18*
%TO.P,J2,1,1*%
%TO.N,+5V*%
X112684314Y-73350000D03*
D19*
%TO.P,J2,2,2*%
%TO.N,/CH4*%
X112684314Y-73946800D03*
%TO.P,J2,3,3*%
%TO.N,/CH3*%
X112684314Y-74353200D03*
D18*
%TO.P,J2,4,4*%
%TO.N,GND*%
X112684314Y-74950000D03*
%TO.P,J2,5,5*%
%TO.N,+5V*%
X115084314Y-73350000D03*
D19*
%TO.P,J2,6,6*%
%TO.N,/CH1-OUT*%
X115084314Y-73946800D03*
%TO.P,J2,7,7*%
%TO.N,/CH2*%
X115084314Y-74353200D03*
D18*
%TO.P,J2,8,8*%
%TO.N,GND*%
X115084314Y-74950000D03*
D20*
%TO.P,J2,9*%
%TO.N,N/C*%
X112608114Y-72619997D03*
%TO.P,J2,10*%
X112608114Y-75680003D03*
%TO.P,J2,11*%
X115160514Y-72619997D03*
%TO.P,J2,12*%
X115160514Y-75680003D03*
%TD*%
D10*
%TO.P,D1,1,VDD*%
%TO.N,+5V*%
X22267647Y-72500000D03*
%TO.P,D1,2,DOUT*%
%TO.N,/1-2*%
X22267647Y-75800000D03*
%TO.P,D1,3,VSS*%
%TO.N,GND*%
X27167647Y-75800000D03*
%TO.P,D1,4,DIN*%
%TO.N,Net-(D1-DIN)*%
X27167647Y-72500000D03*
%TD*%
%TO.P,D2,1,VDD*%
%TO.N,+5V*%
X42484314Y-93800000D03*
%TO.P,D2,2,DOUT*%
%TO.N,/2-3*%
X42484314Y-97100000D03*
%TO.P,D2,3,VSS*%
%TO.N,GND*%
X47384314Y-97100000D03*
%TO.P,D2,4,DIN*%
%TO.N,/1-2*%
X47384314Y-93800000D03*
%TD*%
D16*
%TO.P,J5,1,1*%
%TO.N,/1Input2Outputs/1D*%
X162095000Y-37700000D03*
%TO.P,J5,2,2*%
%TO.N,/1Input2Outputs/1A*%
X159955000Y-37700000D03*
%TO.P,J5,3,3*%
%TO.N,/1Input2Outputs/1C*%
X162095000Y-38100000D03*
%TO.P,J5,4,4*%
%TO.N,/1Input2Outputs/1B*%
X159955000Y-38100000D03*
D17*
%TO.P,J5,P1,P1*%
%TO.N,5V*%
X162095000Y-37099999D03*
%TO.P,J5,P2,P2*%
X159955000Y-37099999D03*
%TO.P,J5,P3,P3*%
%TO.N,GND*%
X162095000Y-38700001D03*
%TO.P,J5,P4,P4*%
X159955000Y-38700001D03*
%TD*%
D16*
%TO.P,J6,1,1*%
%TO.N,/2Inputs1Output/1D*%
X162095000Y-47700000D03*
%TO.P,J6,2,2*%
%TO.N,/2Inputs1Output/1A*%
X159955000Y-47700000D03*
%TO.P,J6,3,3*%
%TO.N,/2Inputs1Output/1C*%
X162095000Y-48100000D03*
%TO.P,J6,4,4*%
%TO.N,/2Inputs1Output/1B*%
X159955000Y-48100000D03*
D17*
%TO.P,J6,P1,P1*%
%TO.N,5V*%
X162095000Y-47099999D03*
%TO.P,J6,P2,P2*%
X159955000Y-47099999D03*
%TO.P,J6,P3,P3*%
%TO.N,GND*%
X162095000Y-48700001D03*
%TO.P,J6,P4,P4*%
X159955000Y-48700001D03*
%TD*%
D13*
%TO.P,C4,1*%
%TO.N,+5V*%
X96309314Y-72750000D03*
%TO.P,C4,2*%
%TO.N,GND*%
X97859314Y-72750000D03*
%TD*%
%TO.P,C1,1*%
%TO.N,GND*%
X48475000Y-115250000D03*
%TO.P,C1,2*%
%TO.N,+5V*%
X50025000Y-115250000D03*
%TD*%
D21*
%TO.P,C3,1*%
%TO.N,N/C*%
X145500000Y-99950000D03*
%TO.P,C3,2*%
X145500000Y-101500000D03*
%TD*%
%TO.P,C3,1*%
%TO.N,N/C*%
X133750000Y-99950000D03*
%TO.P,C3,2*%
X133750000Y-101500000D03*
%TD*%
D14*
%TO.P,J34,1,1*%
%TO.N,/2Input1Output2ToA/2D*%
X138825000Y-47029999D03*
%TO.P,J34,2,2*%
%TO.N,/2Input1Output2ToA/2A*%
X138825000Y-49169999D03*
%TO.P,J34,3,3*%
%TO.N,/2Input1Output2ToA/2C*%
X139225000Y-47029999D03*
%TO.P,J34,4,4*%
%TO.N,/2Input1Output2ToA/2B*%
X139225000Y-49169999D03*
D15*
%TO.P,J34,P1,P1*%
%TO.N,5V*%
X138224999Y-47029999D03*
%TO.P,J34,P2,P2*%
X138224999Y-49169999D03*
%TO.P,J34,P3,P3*%
%TO.N,GND*%
X139825001Y-47029999D03*
%TO.P,J34,P4,P4*%
X139825001Y-49169999D03*
%TD*%
D10*
%TO.P,D2,1,VDD*%
%TO.N,+5V*%
X52325000Y-114950000D03*
%TO.P,D2,2,DOUT*%
%TO.N,/2-3*%
X52325000Y-118250000D03*
%TO.P,D2,3,VSS*%
%TO.N,GND*%
X57225000Y-118250000D03*
%TO.P,D2,4,DIN*%
%TO.N,/1-2*%
X57225000Y-114950000D03*
%TD*%
D28*
%TO.P,R1,1*%
%TO.N,/CH1-IN*%
X30909314Y-72750000D03*
%TO.P,R1,2*%
%TO.N,Net-(D1-DIN)*%
X29259314Y-72750000D03*
%TD*%
D11*
%TO.P,D3,1,VDD*%
%TO.N,+5V*%
X79400000Y-31150000D03*
D12*
%TO.P,D3,2,DOUT*%
%TO.N,/3-4*%
X80650000Y-32450000D03*
D11*
%TO.P,D3,3,VSS*%
%TO.N,GND*%
X79400000Y-33750000D03*
D12*
%TO.P,D3,4,DIN*%
%TO.N,/2-3*%
X78150000Y-32450000D03*
%TD*%
D16*
%TO.P,J4,1,1*%
%TO.N,/Basic1-1/1D*%
X158095000Y-30700000D03*
%TO.P,J4,2,2*%
%TO.N,/Basic1-1/1A*%
X155955000Y-30700000D03*
%TO.P,J4,3,3*%
%TO.N,/Basic1-1/1C*%
X158095000Y-31100000D03*
%TO.P,J4,4,4*%
%TO.N,/Basic1-1/1B*%
X155955000Y-31100000D03*
D17*
%TO.P,J4,P1,P1*%
%TO.N,5V*%
X158095000Y-30099999D03*
%TO.P,J4,P2,P2*%
X155955000Y-30099999D03*
%TO.P,J4,P3,P3*%
%TO.N,GND*%
X158095000Y-31700001D03*
%TO.P,J4,P4,P4*%
X155955000Y-31700001D03*
%TD*%
D21*
%TO.P,C3,1*%
%TO.N,N/C*%
X147250000Y-99950000D03*
%TO.P,C3,2*%
X147250000Y-101500000D03*
%TD*%
%TO.P,C3,1*%
%TO.N,N/C*%
X143750000Y-99950000D03*
%TO.P,C3,2*%
X143750000Y-101500000D03*
%TD*%
D16*
%TO.P,J33,1,1*%
%TO.N,/2Input1Output2ToA/1D*%
X142095000Y-43899999D03*
%TO.P,J33,2,2*%
%TO.N,/2Input1Output2ToA/1A*%
X139955000Y-43899999D03*
%TO.P,J33,3,3*%
%TO.N,/2Input1Output2ToA/1C*%
X142095000Y-44299999D03*
%TO.P,J33,4,4*%
%TO.N,/2Input1Output2ToA/1B*%
X139955000Y-44299999D03*
D17*
%TO.P,J33,P1,P1*%
%TO.N,5V*%
X142095000Y-43299998D03*
%TO.P,J33,P2,P2*%
X139955000Y-43299998D03*
%TO.P,J33,P3,P3*%
%TO.N,GND*%
X142095000Y-44900000D03*
%TO.P,J33,P4,P4*%
X139955000Y-44900000D03*
%TD*%
D16*
%TO.P,J9,1,1*%
%TO.N,/1nput;Output(A\u002CB)/1D*%
X152095000Y-37700000D03*
%TO.P,J9,2,2*%
%TO.N,/1nput;Output(A\u002CB)/1A*%
X149955000Y-37700000D03*
%TO.P,J9,3,3*%
%TO.N,/1nput;Output(A\u002CB)/1C*%
X152095000Y-38100000D03*
%TO.P,J9,4,4*%
%TO.N,/1nput;Output(A\u002CB)/1B*%
X149955000Y-38100000D03*
D17*
%TO.P,J9,P1,P1*%
%TO.N,5V*%
X152095000Y-37099999D03*
%TO.P,J9,P2,P2*%
X149955000Y-37099999D03*
%TO.P,J9,P3,P3*%
%TO.N,GND*%
X152095000Y-38700001D03*
%TO.P,J9,P4,P4*%
X149955000Y-38700001D03*
%TD*%
D13*
%TO.P,C1,1*%
%TO.N,GND*%
X38109314Y-94150000D03*
%TO.P,C1,2*%
%TO.N,+5V*%
X39659314Y-94150000D03*
%TD*%
D14*
%TO.P,J7,1,1*%
%TO.N,/2Inputs1Output/2D*%
X158825000Y-50830000D03*
%TO.P,J7,2,2*%
%TO.N,/2Inputs1Output/2A*%
X158825000Y-52970000D03*
%TO.P,J7,3,3*%
%TO.N,/2Inputs1Output/2C*%
X159225000Y-50830000D03*
%TO.P,J7,4,4*%
%TO.N,/2Inputs1Output/2B*%
X159225000Y-52970000D03*
D15*
%TO.P,J7,P1,P1*%
%TO.N,5V*%
X158224999Y-50830000D03*
%TO.P,J7,P2,P2*%
X158224999Y-52970000D03*
%TO.P,J7,P3,P3*%
%TO.N,GND*%
X159825001Y-50830000D03*
%TO.P,J7,P4,P4*%
X159825001Y-52970000D03*
%TD*%
D13*
%TO.P,C1,1*%
%TO.N,GND*%
X38350000Y-10000000D03*
%TO.P,C1,2*%
%TO.N,+5V*%
X39900000Y-10000000D03*
%TD*%
%TO.P,C1,1*%
%TO.N,GND*%
X49350000Y-30450000D03*
%TO.P,C1,2*%
%TO.N,+5V*%
X50900000Y-30450000D03*
%TD*%
D11*
%TO.P,D5,1,VDD*%
%TO.N,+5V*%
X91300000Y-52200000D03*
D12*
%TO.P,D5,2,DOUT*%
%TO.N,/5-6*%
X92550000Y-53500000D03*
D11*
%TO.P,D5,3,VSS*%
%TO.N,GND*%
X91300000Y-54800000D03*
D12*
%TO.P,D5,4,DIN*%
%TO.N,/4-5*%
X90050000Y-53500000D03*
%TD*%
D10*
%TO.P,D1,1,VDD*%
%TO.N,+5V*%
X23734314Y-93800000D03*
%TO.P,D1,2,DOUT*%
%TO.N,/1-2*%
X23734314Y-97100000D03*
%TO.P,D1,3,VSS*%
%TO.N,GND*%
X28634314Y-97100000D03*
%TO.P,D1,4,DIN*%
%TO.N,Net-(D1-DIN)*%
X28634314Y-93800000D03*
%TD*%
D29*
%TO.P,R1,1*%
%TO.N,/CH1-IN*%
X21500000Y-53675000D03*
%TO.P,R1,2*%
%TO.N,Net-(D1-DIN)*%
X21500000Y-55325000D03*
%TD*%
D21*
%TO.P,C3,1*%
%TO.N,N/C*%
X135250000Y-89675000D03*
%TO.P,C3,2*%
X135250000Y-91225000D03*
%TD*%
D14*
%TO.P,J25,1,1*%
%TO.N,/Basic1-2-extension2/1D*%
X139025000Y-63900000D03*
%TO.P,J25,2,2*%
%TO.N,/Basic1-2-extension2/1A*%
X139025000Y-61760000D03*
%TO.P,J25,3,3*%
%TO.N,/Basic1-2-extension2/1C*%
X138625000Y-63900000D03*
%TO.P,J25,4,4*%
%TO.N,/Basic1-2-extension2/1B*%
X138625000Y-61760000D03*
D15*
%TO.P,J25,P1,P1*%
%TO.N,5V*%
X139625001Y-63900000D03*
%TO.P,J25,P2,P2*%
X139625001Y-61760000D03*
%TO.P,J25,P3,P3*%
%TO.N,GND*%
X138024999Y-63900000D03*
%TO.P,J25,P4,P4*%
X138024999Y-61760000D03*
%TD*%
D16*
%TO.P,J3,1,1*%
%TO.N,/Basic1-1/1D*%
X162095000Y-30700000D03*
%TO.P,J3,2,2*%
%TO.N,/Basic1-1/1A*%
X159955000Y-30700000D03*
%TO.P,J3,3,3*%
%TO.N,/Basic1-1/1C*%
X162095000Y-31100000D03*
%TO.P,J3,4,4*%
%TO.N,/Basic1-1/1B*%
X159955000Y-31100000D03*
D17*
%TO.P,J3,P1,P1*%
%TO.N,5V*%
X162095000Y-30099999D03*
%TO.P,J3,P2,P2*%
X159955000Y-30099999D03*
%TO.P,J3,P3,P3*%
%TO.N,GND*%
X162095000Y-31700001D03*
%TO.P,J3,P4,P4*%
X159955000Y-31700001D03*
%TD*%
D18*
%TO.P,J2,1,1*%
%TO.N,+5V*%
X112600000Y-52700000D03*
D19*
%TO.P,J2,2,2*%
%TO.N,/CH4*%
X112600000Y-53296800D03*
%TO.P,J2,3,3*%
%TO.N,/CH3*%
X112600000Y-53703200D03*
D18*
%TO.P,J2,4,4*%
%TO.N,GND*%
X112600000Y-54300000D03*
%TO.P,J2,5,5*%
%TO.N,+5V*%
X115000000Y-52700000D03*
D19*
%TO.P,J2,6,6*%
%TO.N,/CH1-OUT*%
X115000000Y-53296800D03*
%TO.P,J2,7,7*%
%TO.N,/CH2*%
X115000000Y-53703200D03*
D18*
%TO.P,J2,8,8*%
%TO.N,GND*%
X115000000Y-54300000D03*
D20*
%TO.P,J2,9*%
%TO.N,N/C*%
X112523800Y-51969997D03*
%TO.P,J2,10*%
X112523800Y-55030003D03*
%TO.P,J2,11*%
X115076200Y-51969997D03*
%TO.P,J2,12*%
X115076200Y-55030003D03*
%TD*%
D18*
%TO.P,J1,1,1*%
%TO.N,+5V*%
X17600000Y-52700000D03*
D19*
%TO.P,J1,2,2*%
%TO.N,/CH4*%
X17600000Y-53296800D03*
%TO.P,J1,3,3*%
%TO.N,/CH3*%
X17600000Y-53703200D03*
D18*
%TO.P,J1,4,4*%
%TO.N,GND*%
X17600000Y-54300000D03*
%TO.P,J1,5,5*%
%TO.N,+5V*%
X20000000Y-52700000D03*
D19*
%TO.P,J1,6,6*%
%TO.N,/CH1-IN*%
X20000000Y-53296800D03*
%TO.P,J1,7,7*%
%TO.N,/CH2*%
X20000000Y-53703200D03*
D18*
%TO.P,J1,8,8*%
%TO.N,GND*%
X20000000Y-54300000D03*
D20*
%TO.P,J1,9*%
%TO.N,N/C*%
X17523800Y-51969997D03*
%TO.P,J1,10*%
X17523800Y-55030003D03*
%TO.P,J1,11*%
X20076200Y-51969997D03*
%TO.P,J1,12*%
X20076200Y-55030003D03*
%TD*%
D14*
%TO.P,J31,1,1*%
%TO.N,GND*%
X138995000Y-36999999D03*
%TO.P,J31,2,2*%
%TO.N,/1Input3Output/1B*%
X138995000Y-39139999D03*
%TO.P,J31,3,3*%
%TO.N,GND*%
X139395000Y-36999999D03*
%TO.P,J31,4,4*%
X139395000Y-39139999D03*
D15*
%TO.P,J31,P1,P1*%
%TO.N,5V*%
X138394999Y-36999999D03*
%TO.P,J31,P2,P2*%
X138394999Y-39139999D03*
%TO.P,J31,P3,P3*%
%TO.N,GND*%
X139995001Y-36999999D03*
%TO.P,J31,P4,P4*%
X139995001Y-39139999D03*
%TD*%
D16*
%TO.P,J27,1,1*%
%TO.N,/Basic1-2-shorten/1D*%
X147880000Y-57780201D03*
%TO.P,J27,2,2*%
%TO.N,/Basic1-2-shorten/1A*%
X145740000Y-57780201D03*
%TO.P,J27,3,3*%
%TO.N,/Basic1-2-shorten/1C*%
X147880000Y-58180201D03*
%TO.P,J27,4,4*%
%TO.N,/Basic1-2-shorten/1B*%
X145740000Y-58180201D03*
D17*
%TO.P,J27,P1,P1*%
%TO.N,5V*%
X147880000Y-57180200D03*
%TO.P,J27,P2,P2*%
X145740000Y-57180200D03*
%TO.P,J27,P3,P3*%
%TO.N,GND*%
X147880000Y-58780202D03*
%TO.P,J27,P4,P4*%
X145740000Y-58780202D03*
%TD*%
D16*
%TO.P,J35,1,1*%
%TO.N,/2Input1Output2ToA/1B*%
X138095000Y-43899999D03*
%TO.P,J35,2,2*%
%TO.N,/2Input1Output2ToA/2A*%
X135955000Y-43899999D03*
%TO.P,J35,3,3*%
%TO.N,/2Input1Output2ToA/1A*%
X138095000Y-44299999D03*
%TO.P,J35,4,4*%
%TO.N,/2Input1Output2ToA/2B*%
X135955000Y-44299999D03*
D17*
%TO.P,J35,P1,P1*%
%TO.N,5V*%
X138095000Y-43299998D03*
%TO.P,J35,P2,P2*%
X135955000Y-43299998D03*
%TO.P,J35,P3,P3*%
%TO.N,GND*%
X138095000Y-44900000D03*
%TO.P,J35,P4,P4*%
X135955000Y-44900000D03*
%TD*%
D14*
%TO.P,J11,1,1*%
%TO.N,GND*%
X148825000Y-40830000D03*
%TO.P,J11,2,2*%
%TO.N,/1nput;Output(A\u002CB)/1B*%
X148825000Y-42970000D03*
%TO.P,J11,3,3*%
%TO.N,GND*%
X149225000Y-40830000D03*
%TO.P,J11,4,4*%
%TO.N,/1nput;Output(A\u002CB)/1D*%
X149225000Y-42970000D03*
D15*
%TO.P,J11,P1,P1*%
%TO.N,5V*%
X148224999Y-40830000D03*
%TO.P,J11,P2,P2*%
X148224999Y-42970000D03*
%TO.P,J11,P3,P3*%
%TO.N,GND*%
X149825001Y-40830000D03*
%TO.P,J11,P4,P4*%
X149825001Y-42970000D03*
%TD*%
D11*
%TO.P,D6,1,VDD*%
%TO.N,+5V*%
X107966667Y-52200000D03*
D12*
%TO.P,D6,2,DOUT*%
%TO.N,/CH1-OUT*%
X109216667Y-53500000D03*
D11*
%TO.P,D6,3,VSS*%
%TO.N,GND*%
X107966667Y-54800000D03*
D12*
%TO.P,D6,4,DIN*%
%TO.N,/5-6*%
X106716667Y-53500000D03*
%TD*%
D11*
%TO.P,D2,1,VDD*%
%TO.N,+5V*%
X41300000Y-52200000D03*
D12*
%TO.P,D2,2,DOUT*%
%TO.N,/2-3*%
X42550000Y-53500000D03*
D11*
%TO.P,D2,3,VSS*%
%TO.N,GND*%
X41300000Y-54800000D03*
D12*
%TO.P,D2,4,DIN*%
%TO.N,/1-2*%
X40050000Y-53500000D03*
%TD*%
D29*
%TO.P,R1,1*%
%TO.N,/CH1-IN*%
X21584314Y-95250000D03*
%TO.P,R1,2*%
%TO.N,Net-(D1-DIN)*%
X21584314Y-96900000D03*
%TD*%
D22*
%TO.P,C4,1*%
%TO.N,+5V*%
X37850000Y-51500000D03*
%TO.P,C4,2*%
%TO.N,GND*%
X36300000Y-51500000D03*
%TD*%
D18*
%TO.P,J1,1,1*%
%TO.N,+5V*%
X17684314Y-73350000D03*
D19*
%TO.P,J1,2,2*%
%TO.N,/CH4*%
X17684314Y-73946800D03*
%TO.P,J1,3,3*%
%TO.N,/CH3*%
X17684314Y-74353200D03*
D18*
%TO.P,J1,4,4*%
%TO.N,GND*%
X17684314Y-74950000D03*
%TO.P,J1,5,5*%
%TO.N,+5V*%
X20084314Y-73350000D03*
D19*
%TO.P,J1,6,6*%
%TO.N,/CH1-IN*%
X20084314Y-73946800D03*
%TO.P,J1,7,7*%
%TO.N,/CH2*%
X20084314Y-74353200D03*
D18*
%TO.P,J1,8,8*%
%TO.N,GND*%
X20084314Y-74950000D03*
D20*
%TO.P,J1,9*%
%TO.N,N/C*%
X17608114Y-72619997D03*
%TO.P,J1,10*%
X17608114Y-75680003D03*
%TO.P,J1,11*%
X20160514Y-72619997D03*
%TO.P,J1,12*%
X20160514Y-75680003D03*
%TD*%
D22*
%TO.P,C3,1*%
%TO.N,GND*%
X80734314Y-72650000D03*
%TO.P,C3,2*%
%TO.N,+5V*%
X79184314Y-72650000D03*
%TD*%
D30*
%TO.N,GND*%
X113384314Y-75450000D03*
X142195000Y-37443195D03*
X48500000Y-51300000D03*
X37100000Y-10000000D03*
X112900000Y-33750000D03*
X75925000Y-30450000D03*
X136595000Y-31669999D03*
X90384314Y-97100000D03*
X74400000Y-33750000D03*
X99750000Y-9400000D03*
X149955000Y-50050000D03*
X159025000Y-32550000D03*
X159025000Y-39850000D03*
X112850000Y-12800000D03*
X85600000Y-51600000D03*
X160525000Y-61900000D03*
X157625000Y-49300000D03*
X17650000Y-13000000D03*
X40850000Y-12800000D03*
X114500000Y-54700000D03*
X99084314Y-72750000D03*
X155955000Y-50170000D03*
X36884314Y-94150000D03*
X108725000Y-117350000D03*
X19184314Y-95950000D03*
X83725000Y-118250000D03*
X161125000Y-59600000D03*
X61300000Y-54800000D03*
X87800000Y-54800000D03*
X113300000Y-54800000D03*
X148868082Y-32367346D03*
X114475000Y-117800000D03*
X110084314Y-96350000D03*
X28684314Y-75750000D03*
X73884314Y-94050000D03*
X137408046Y-64813046D03*
X151475000Y-40400000D03*
X108984314Y-75850000D03*
X136994799Y-55746601D03*
X94300000Y-54800000D03*
X113184314Y-96750000D03*
X159025000Y-49400000D03*
X77800000Y-54800000D03*
X82900000Y-33750000D03*
X30084314Y-97050000D03*
X48350000Y-12800000D03*
X17984314Y-96950000D03*
X33900000Y-33750000D03*
X25900000Y-33750000D03*
X50584314Y-72850000D03*
X58725000Y-118200000D03*
X47725000Y-30450000D03*
X147224999Y-66599999D03*
X17700000Y-33950000D03*
X18900000Y-32950000D03*
X139025000Y-44900000D03*
X100400000Y-33750000D03*
X114384314Y-96650000D03*
X70425000Y-115350000D03*
X73900000Y-9500000D03*
X88850000Y-12800000D03*
X136425000Y-46499999D03*
X19300000Y-54000000D03*
X18100000Y-55000000D03*
X151325000Y-42500000D03*
X37800000Y-54800000D03*
X151268082Y-30667346D03*
X70284314Y-97100000D03*
X114050000Y-12700000D03*
X159025000Y-38700001D03*
X71300000Y-54800000D03*
X31700000Y-51500000D03*
X60850000Y-12800000D03*
X147025000Y-48700001D03*
X160590001Y-64065001D03*
X44800000Y-54800000D03*
X60900000Y-33750000D03*
X146525000Y-40300000D03*
X19275000Y-117100000D03*
X148890232Y-37699999D03*
X82850000Y-12800000D03*
X82084314Y-72650000D03*
X161525000Y-66800000D03*
X140660001Y-46335000D03*
X160675000Y-33100000D03*
X33484314Y-72750000D03*
X136595000Y-36569999D03*
X19384314Y-74650000D03*
X47025000Y-115250000D03*
X33825000Y-118250000D03*
X151775000Y-50400000D03*
X138527286Y-65630000D03*
X102200000Y-51400000D03*
X69850000Y-12800000D03*
X18184314Y-75650000D03*
X45284314Y-75750000D03*
X102850000Y-12800000D03*
X114100000Y-33650000D03*
X150310000Y-58780202D03*
X98400000Y-30350000D03*
X113275000Y-117900000D03*
X96375000Y-115350000D03*
X138625000Y-55946601D03*
X161675000Y-50900000D03*
X95384314Y-75750000D03*
X161425000Y-57100000D03*
X78984314Y-75850000D03*
X62084314Y-75850000D03*
X18075000Y-118100000D03*
X104800000Y-54800000D03*
X18850000Y-12000000D03*
X148224999Y-65099999D03*
X48400000Y-33750000D03*
X146725784Y-59603092D03*
X162525000Y-40200000D03*
X139995001Y-36269999D03*
X114584314Y-75350000D03*
X156625000Y-63100000D03*
X54300000Y-54800000D03*
X29350000Y-12800000D03*
X27800000Y-54800000D03*
X98484314Y-94150000D03*
X49184314Y-97100000D03*
%TO.N,+5V*%
X110825000Y-114050000D03*
X19275000Y-113800000D03*
X18900000Y-29650000D03*
X112784314Y-71450000D03*
X109400000Y-31150000D03*
X111958698Y-52200000D03*
X18850000Y-8700000D03*
X21125000Y-114250000D03*
X110800000Y-52200000D03*
X110284314Y-92950000D03*
X21034314Y-93100000D03*
X20700000Y-9150000D03*
X111508698Y-10200000D03*
X20750000Y-30100000D03*
X110545405Y-71500000D03*
X19384314Y-71350000D03*
X19300000Y-50700000D03*
X19184314Y-92650000D03*
X111558698Y-31150000D03*
X111884314Y-92950000D03*
X109350000Y-10200000D03*
X21234314Y-71800000D03*
X112775000Y-114050000D03*
X21150000Y-51150000D03*
%TO.N,/CH1-OUT*%
X111300000Y-53500000D03*
X113275000Y-116600000D03*
X111184314Y-95450000D03*
X113184314Y-95450000D03*
X110900000Y-32450000D03*
X113300000Y-53500000D03*
X111384314Y-74150000D03*
X112850000Y-11500000D03*
X112900000Y-32450000D03*
X110850000Y-11500000D03*
X111275000Y-116600000D03*
X113384314Y-74150000D03*
%TO.N,/CH3*%
X110284314Y-98600000D03*
X111684314Y-77300000D03*
X111884314Y-76200000D03*
X109275000Y-118600000D03*
X109275000Y-119800000D03*
X107900000Y-35650000D03*
X109800000Y-56650000D03*
X107850000Y-14700000D03*
X108400000Y-34450000D03*
X110300000Y-55500000D03*
X110284314Y-97500000D03*
X108350000Y-13500000D03*
%TO.N,/1Input2Outputs/1A*%
X159025000Y-37900000D03*
X157025000Y-37400000D03*
%TO.N,5V*%
X149025000Y-36900000D03*
X139195000Y-33269998D03*
X147310000Y-57200000D03*
X147275000Y-39150000D03*
X140195000Y-32069999D03*
X148374998Y-64249998D03*
X149025000Y-46069799D03*
X149025000Y-47099999D03*
X148525000Y-41650000D03*
X139825000Y-55446601D03*
X137596751Y-46328248D03*
X155525000Y-35600000D03*
X141945000Y-30320000D03*
X158125000Y-59769799D03*
X146525000Y-41400000D03*
X159025000Y-30099999D03*
X156589999Y-29464999D03*
X140276854Y-65881854D03*
X149025000Y-49650000D03*
X136525000Y-47599999D03*
X157225000Y-62000000D03*
X148644239Y-62680760D03*
X147671636Y-30170900D03*
X149468082Y-28267346D03*
X155525000Y-40400000D03*
X147020200Y-55900000D03*
X141275000Y-56196601D03*
X151425000Y-36900000D03*
X156625000Y-65900000D03*
X139127286Y-65030000D03*
%TO.N,/1Input2Outputs/1C*%
X162034265Y-41609265D03*
X161325000Y-40400000D03*
%TO.N,/Basic1-1/1A*%
X156825000Y-30300000D03*
X159025000Y-30900000D03*
%TO.N,/Basic1-1/1B*%
X160825000Y-30900000D03*
X156825000Y-31300000D03*
%TD*%
D31*
%TO.N,GND*%
X135955000Y-46029999D02*
X136425000Y-46499999D01*
D32*
X151775000Y-51020001D02*
X149921801Y-52873200D01*
D33*
X159025000Y-38700001D02*
X158095000Y-38700001D01*
D34*
X112400000Y-33250000D02*
X112200000Y-33250000D01*
D31*
X140660001Y-46334999D02*
X142095000Y-44900000D01*
D32*
X102850000Y-12800000D02*
X105850000Y-12800000D01*
D31*
X149955000Y-48700001D02*
X149955000Y-50050000D01*
D32*
X35109314Y-72750000D02*
X33484314Y-72750000D01*
D33*
X158095000Y-48700001D02*
X158095000Y-48830000D01*
D32*
X27167647Y-75800000D02*
X28634314Y-75800000D01*
D31*
X113384314Y-75450000D02*
X112884314Y-74950000D01*
D33*
X137895000Y-30369999D02*
X136595000Y-31669999D01*
X148194567Y-31693831D02*
X148194567Y-31317024D01*
D32*
X28634314Y-75800000D02*
X28684314Y-75750000D01*
X48475000Y-115250000D02*
X47025000Y-115250000D01*
D33*
X160590001Y-64065000D02*
X160590001Y-64065001D01*
X148868082Y-32367346D02*
X148194567Y-31693831D01*
D31*
X114984314Y-74950000D02*
X114584314Y-75350000D01*
X115000000Y-54300000D02*
X114861297Y-54438703D01*
D33*
X160590000Y-64065001D02*
X159825001Y-64830000D01*
D32*
X53100000Y-51300000D02*
X48500000Y-51300000D01*
D33*
X149825001Y-40100000D02*
X151175000Y-40100000D01*
D31*
X38109314Y-94150000D02*
X36884314Y-94150000D01*
D33*
X146127486Y-30763151D02*
X146681359Y-31317024D01*
X138394999Y-31139999D02*
X139364801Y-31139999D01*
X148868082Y-32367346D02*
X149298283Y-32797547D01*
D31*
X17875197Y-117400000D02*
X18075000Y-117599803D01*
D33*
X148490231Y-38100000D02*
X148890232Y-37699999D01*
D31*
X138424999Y-54046601D02*
X138424999Y-52376601D01*
D33*
X145955000Y-39730000D02*
X146525000Y-40300000D01*
X159825001Y-40830000D02*
X159375000Y-40830000D01*
D32*
X88850000Y-12800000D02*
X89400000Y-12250000D01*
D33*
X140264596Y-39139999D02*
X139995001Y-39139999D01*
X161355000Y-66970000D02*
X161525000Y-66800000D01*
D35*
X57225000Y-118250000D02*
X58675000Y-118250000D01*
D33*
X145955000Y-38700001D02*
X145955000Y-39730000D01*
D36*
X158095000Y-38700001D02*
X158095000Y-37700000D01*
D34*
X112150000Y-12300000D02*
X112250000Y-12400000D01*
D31*
X139825001Y-47169999D02*
X140660000Y-46335000D01*
X19884314Y-96250000D02*
X19484314Y-96250000D01*
D33*
X161155000Y-56830000D02*
X161425000Y-57100000D01*
X109334314Y-97100000D02*
X110084314Y-96350000D01*
D34*
X112884314Y-74950000D02*
X112684314Y-74950000D01*
D31*
X142195000Y-37443195D02*
X140498196Y-39139999D01*
D33*
X152095000Y-38700001D02*
X149955000Y-38700001D01*
X159724999Y-48700001D02*
X159025000Y-49400000D01*
D34*
X112200000Y-33250000D02*
X112300000Y-33350000D01*
D32*
X74400000Y-33750000D02*
X82900000Y-33750000D01*
D31*
X149955000Y-50050000D02*
X149955000Y-50700001D01*
X139995001Y-36999999D02*
X139145199Y-36999999D01*
X136744799Y-67619800D02*
X136744799Y-65510201D01*
X139955000Y-44900000D02*
X139025000Y-44900000D01*
X140498196Y-39139999D02*
X139995001Y-39139999D01*
D33*
X159375000Y-40830000D02*
X159375000Y-40200000D01*
X162095000Y-40200000D02*
X162095000Y-38700001D01*
D32*
X65850000Y-12800000D02*
X69850000Y-12800000D01*
D31*
X158975000Y-31700001D02*
X158095000Y-31700001D01*
D33*
X151124999Y-66702286D02*
X150697085Y-67130200D01*
D31*
X114450000Y-12300000D02*
X114050000Y-12700000D01*
X87800000Y-54800000D02*
X91300000Y-54800000D01*
D33*
X108634314Y-97100000D02*
X109334314Y-97100000D01*
D31*
X138024999Y-61760000D02*
X138024999Y-64196093D01*
X17450197Y-12300000D02*
X17650000Y-12499803D01*
D32*
X151775000Y-49150000D02*
X151775000Y-50400000D01*
X80200000Y-51600000D02*
X85600000Y-51600000D01*
D31*
X99809314Y-94150000D02*
X98484314Y-94150000D01*
D33*
X161955000Y-62700001D02*
X160590001Y-64065000D01*
D32*
X137095000Y-36069999D02*
X136595000Y-36569999D01*
X145641703Y-64985641D02*
X144571703Y-63915641D01*
D33*
X162025000Y-62700001D02*
X161955000Y-62700001D01*
D32*
X51984314Y-72850000D02*
X50584314Y-72850000D01*
D31*
X18184314Y-75149803D02*
X18184314Y-75650000D01*
D33*
X159755001Y-56830000D02*
X161155000Y-56830000D01*
D31*
X114900000Y-54300000D02*
X114500000Y-54700000D01*
X142195000Y-34870000D02*
X142195000Y-37443195D01*
X44800000Y-54800000D02*
X54300000Y-54800000D01*
D33*
X151794999Y-66029999D02*
X151124999Y-66699999D01*
D32*
X60850000Y-12800000D02*
X65850000Y-12800000D01*
D31*
X17600000Y-54300000D02*
X17900197Y-54300000D01*
X114975000Y-117400000D02*
X114875000Y-117400000D01*
D33*
X139995001Y-39139999D02*
X139925001Y-39209999D01*
D32*
X25900000Y-33750000D02*
X33900000Y-33750000D01*
D31*
X139995001Y-36269999D02*
X139995001Y-36999999D01*
D33*
X148095000Y-38700001D02*
X148095000Y-37730199D01*
D32*
X149654999Y-65900000D02*
X149025000Y-65900000D01*
D31*
X17650000Y-12499803D02*
X17650000Y-13000000D01*
D33*
X161955000Y-48700001D02*
X160665000Y-49990000D01*
D31*
X159955000Y-31700001D02*
X158975000Y-31700001D01*
D33*
X160590001Y-64065001D02*
X160590000Y-64065001D01*
D31*
X17484314Y-96250000D02*
X17784511Y-96250000D01*
X17575000Y-117400000D02*
X17875197Y-117400000D01*
X19684314Y-74950000D02*
X19384314Y-74650000D01*
D33*
X159825001Y-52970000D02*
X159825001Y-50830000D01*
D35*
X82225000Y-118250000D02*
X83725000Y-118250000D01*
D32*
X45234314Y-75800000D02*
X45284314Y-75750000D01*
D31*
X138024999Y-66132287D02*
X138024999Y-66760000D01*
D32*
X149921801Y-52873200D02*
X149825001Y-52873200D01*
D33*
X159885000Y-38700001D02*
X159025000Y-38700001D01*
D31*
X138424999Y-54516601D02*
X138424999Y-54046601D01*
X149240000Y-58780202D02*
X147880000Y-58780202D01*
X19150000Y-12300000D02*
X18850000Y-12000000D01*
X74633333Y-54800000D02*
X77800000Y-54800000D01*
D32*
X36300000Y-51500000D02*
X31700000Y-51500000D01*
D33*
X149825001Y-42970000D02*
X150855000Y-42970000D01*
X162525000Y-40200000D02*
X162095000Y-40200000D01*
D31*
X140660000Y-46335000D02*
X140660001Y-46335000D01*
D33*
X162095000Y-48700001D02*
X161955000Y-48700001D01*
D31*
X158975000Y-32500000D02*
X159025000Y-32550000D01*
D32*
X137095000Y-34870000D02*
X138098200Y-34870000D01*
D35*
X148095000Y-47700000D02*
X148095000Y-48700001D01*
D32*
X85850000Y-12800000D02*
X88850000Y-12800000D01*
D33*
X138394999Y-28999999D02*
X138394999Y-31139999D01*
D31*
X147025000Y-48700001D02*
X146001800Y-48700001D01*
X17784511Y-96250000D02*
X17984314Y-96449803D01*
D33*
X155955000Y-38700001D02*
X156979999Y-39725000D01*
D31*
X24633333Y-54800000D02*
X27800000Y-54800000D01*
X115000000Y-54300000D02*
X114900000Y-54300000D01*
D32*
X102300000Y-12250000D02*
X102850000Y-12800000D01*
D31*
X139025000Y-44900000D02*
X138141800Y-44900000D01*
X162095000Y-31700001D02*
X160695001Y-33100000D01*
X140660001Y-46335000D02*
X140660001Y-46334999D01*
X149240000Y-58780202D02*
X150310000Y-58780202D01*
X17700000Y-33449803D02*
X17700000Y-33950000D01*
X112900000Y-33750000D02*
X112400000Y-33250000D01*
D32*
X145641703Y-65016703D02*
X147224999Y-66599999D01*
D31*
X75925000Y-30450000D02*
X74900000Y-30450000D01*
X88634314Y-97100000D02*
X90384314Y-97100000D01*
D33*
X150298082Y-31567347D02*
X150640981Y-31567347D01*
X158025000Y-62700001D02*
X159825001Y-64500002D01*
D34*
X112684314Y-96250000D02*
X112484314Y-96250000D01*
D31*
X149825001Y-50830000D02*
X148905199Y-50830000D01*
X115084314Y-74950000D02*
X114984314Y-74950000D01*
D32*
X80734314Y-72650000D02*
X82084314Y-72650000D01*
D33*
X149825001Y-40100000D02*
X149825001Y-38830000D01*
X156979999Y-39725000D02*
X158900000Y-39725000D01*
X149825001Y-38830000D02*
X149955000Y-38700001D01*
D31*
X38350000Y-10000000D02*
X37100000Y-10000000D01*
D32*
X88900000Y-33750000D02*
X100400000Y-33750000D01*
X96575000Y-51400000D02*
X102200000Y-51400000D01*
D31*
X28634314Y-97100000D02*
X30034314Y-97100000D01*
X136994799Y-55746601D02*
X136994799Y-57596528D01*
D32*
X136055000Y-34870000D02*
X136055000Y-34409699D01*
D31*
X139825001Y-49169999D02*
X139825001Y-47169999D01*
D33*
X149825001Y-40830000D02*
X149825001Y-40100000D01*
X160525000Y-62402900D02*
X160525000Y-61900000D01*
D31*
X61300000Y-54800000D02*
X71300000Y-54800000D01*
X17900197Y-54300000D02*
X18100000Y-54499803D01*
D32*
X77167647Y-75800000D02*
X78934314Y-75800000D01*
D33*
X159825001Y-64500002D02*
X159825001Y-64830000D01*
D31*
X138024999Y-68900000D02*
X136744799Y-67619800D01*
X160175000Y-33600000D02*
X157854999Y-33600000D01*
X114500000Y-33250000D02*
X114100000Y-33650000D01*
D32*
X60500981Y-75800000D02*
X62034314Y-75800000D01*
D33*
X151124999Y-66699999D02*
X151124999Y-66702286D01*
X156225001Y-62700001D02*
X155885000Y-62700001D01*
D31*
X19550000Y-12300000D02*
X19150000Y-12300000D01*
D33*
X158900000Y-39725000D02*
X159025000Y-39850000D01*
D32*
X43834314Y-75800000D02*
X45234314Y-75800000D01*
X146424998Y-64985641D02*
X145641703Y-64985641D01*
X40850000Y-12800000D02*
X44600000Y-12800000D01*
D31*
X112850000Y-12800000D02*
X112350000Y-12300000D01*
X135955000Y-44900000D02*
X135955000Y-46029999D01*
X94300000Y-54800000D02*
X104800000Y-54800000D01*
X114784314Y-96250000D02*
X114384314Y-96650000D01*
D33*
X162095000Y-40700001D02*
X159825001Y-42970000D01*
D31*
X137408046Y-64846954D02*
X137408046Y-64813046D01*
X149955000Y-50700001D02*
X149825001Y-50830000D01*
X19975000Y-117400000D02*
X19575000Y-117400000D01*
X47384314Y-97100000D02*
X49184314Y-97100000D01*
D33*
X159955000Y-48700001D02*
X159724999Y-48700001D01*
D31*
X114884314Y-96250000D02*
X114745611Y-96388703D01*
X72659314Y-94050000D02*
X73884314Y-94050000D01*
D34*
X112350000Y-12300000D02*
X112150000Y-12300000D01*
D33*
X160665000Y-49990000D02*
X159825001Y-50830000D01*
D31*
X138424999Y-56146602D02*
X138625000Y-55946601D01*
X41300000Y-54800000D02*
X44800000Y-54800000D01*
X113300000Y-54800000D02*
X112800000Y-54300000D01*
X77800000Y-54800000D02*
X87800000Y-54800000D01*
D33*
X146681359Y-31317024D02*
X148194567Y-31317024D01*
D32*
X48350000Y-12800000D02*
X60850000Y-12800000D01*
D31*
X19600000Y-54300000D02*
X19300000Y-54000000D01*
X19600000Y-33250000D02*
X19200000Y-33250000D01*
X18100000Y-54499803D02*
X18100000Y-55000000D01*
D33*
X158095000Y-48830000D02*
X157625000Y-49300000D01*
X145740000Y-58780202D02*
X145902894Y-58780202D01*
X159375000Y-40830000D02*
X158855199Y-40830000D01*
D31*
X17684314Y-74950000D02*
X17984511Y-74950000D01*
X19575000Y-117400000D02*
X19275000Y-117100000D01*
D33*
X145902894Y-58780202D02*
X146725784Y-59603092D01*
D32*
X151775000Y-50400000D02*
X151775000Y-51020001D01*
D33*
X150855000Y-42970000D02*
X151325000Y-42500000D01*
D34*
X112600000Y-54300000D02*
X112700000Y-54400000D01*
D32*
X69850000Y-12800000D02*
X82850000Y-12800000D01*
X44600000Y-12800000D02*
X48350000Y-12800000D01*
D31*
X19484314Y-96250000D02*
X19184314Y-95950000D01*
D33*
X148095000Y-38100000D02*
X148490231Y-38100000D01*
D31*
X73900000Y-9500000D02*
X72875000Y-9500000D01*
D32*
X136055000Y-34870000D02*
X137095000Y-34870000D01*
X149025000Y-65900000D02*
X148224999Y-65099999D01*
D31*
X158975000Y-31700001D02*
X158975000Y-32500000D01*
X71300000Y-54800000D02*
X74633333Y-54800000D01*
X138527286Y-65630000D02*
X138024999Y-66132287D01*
D32*
X137095000Y-34870000D02*
X137095000Y-36069999D01*
D31*
X20000000Y-54300000D02*
X19600000Y-54300000D01*
D32*
X97859314Y-72750000D02*
X99084314Y-72750000D01*
D31*
X114875000Y-117400000D02*
X114475000Y-117800000D01*
X150310000Y-58780202D02*
X151360000Y-58780202D01*
X99625000Y-30350000D02*
X98400000Y-30350000D01*
D33*
X138194999Y-30369999D02*
X137895000Y-30369999D01*
X149825001Y-40830000D02*
X148855199Y-40830000D01*
D31*
X138024999Y-64196093D02*
X137408046Y-64813046D01*
D34*
X112684314Y-74950000D02*
X112784314Y-75050000D01*
D31*
X139995001Y-36269999D02*
X139995001Y-34929999D01*
X160675000Y-33100000D02*
X160175000Y-33600000D01*
X97700000Y-115300000D02*
X96425000Y-115300000D01*
D33*
X159825001Y-66970000D02*
X161355000Y-66970000D01*
D31*
X17984314Y-96449803D02*
X17984314Y-96950000D01*
D35*
X108725000Y-117350000D02*
X107825000Y-118250000D01*
D31*
X138424999Y-54046601D02*
X138403073Y-54046601D01*
D35*
X58675000Y-118250000D02*
X58725000Y-118200000D01*
D31*
X17500197Y-33250000D02*
X17700000Y-33449803D01*
D33*
X151175000Y-40100000D02*
X151475000Y-40400000D01*
D32*
X74400000Y-33750000D02*
X60900000Y-33750000D01*
X85900000Y-33750000D02*
X88900000Y-33750000D01*
X95334314Y-75800000D02*
X95384314Y-75750000D01*
D33*
X161575000Y-50900000D02*
X161675000Y-50900000D01*
D31*
X37800000Y-54800000D02*
X41300000Y-54800000D01*
D33*
X159755001Y-58970000D02*
X160495000Y-58970000D01*
D32*
X82850000Y-12800000D02*
X85850000Y-12800000D01*
X62034314Y-75800000D02*
X62084314Y-75850000D01*
D33*
X159375000Y-40200000D02*
X159025000Y-39850000D01*
D31*
X57966667Y-54800000D02*
X61300000Y-54800000D01*
D32*
X100400000Y-33750000D02*
X105900000Y-33750000D01*
D31*
X20084314Y-74950000D02*
X19684314Y-74950000D01*
D32*
X25850000Y-12800000D02*
X29350000Y-12800000D01*
D31*
X104800000Y-54800000D02*
X107966667Y-54800000D01*
D33*
X159885000Y-62700001D02*
X160227899Y-62700001D01*
D31*
X148095000Y-48700001D02*
X147025000Y-48700001D01*
D33*
X150801282Y-31407046D02*
X150801282Y-31134146D01*
X149298283Y-32797547D02*
X151207882Y-32797547D01*
D31*
X68634314Y-97100000D02*
X70284314Y-97100000D01*
X54300000Y-54800000D02*
X57966667Y-54800000D01*
X138414872Y-59016601D02*
X138424999Y-59016601D01*
X19200000Y-33250000D02*
X18900000Y-32950000D01*
D34*
X112800000Y-54300000D02*
X112600000Y-54300000D01*
D31*
X27800000Y-54800000D02*
X37800000Y-54800000D01*
X157854999Y-33600000D02*
X155955000Y-31700001D01*
D32*
X145641703Y-64985641D02*
X145641703Y-65016703D01*
D31*
X138403073Y-54046601D02*
X136994799Y-55454875D01*
D33*
X139995001Y-39139999D02*
X139434700Y-39139999D01*
D31*
X17984511Y-74950000D02*
X18184314Y-75149803D01*
X113184314Y-96750000D02*
X112684314Y-96250000D01*
D32*
X110500981Y-75800000D02*
X109034314Y-75800000D01*
D31*
X114600000Y-33250000D02*
X114500000Y-33250000D01*
D32*
X71700000Y-115350000D02*
X70425000Y-115350000D01*
D31*
X136744799Y-65510201D02*
X137408046Y-64846954D01*
D32*
X155955000Y-50170000D02*
X155955000Y-48700001D01*
D31*
X114884314Y-96250000D02*
X114784314Y-96250000D01*
X114600000Y-33250000D02*
X114461297Y-33388703D01*
X96425000Y-115300000D02*
X96375000Y-115350000D01*
D33*
X162095000Y-40200000D02*
X162095000Y-40700001D01*
X151794999Y-65900000D02*
X151794999Y-66029999D01*
D32*
X109034314Y-75800000D02*
X108984314Y-75850000D01*
D33*
X160495000Y-58970000D02*
X161125000Y-59600000D01*
D31*
X136994799Y-55454875D02*
X136994799Y-55746601D01*
X160695001Y-33100000D02*
X160675000Y-33100000D01*
D33*
X160665000Y-49990000D02*
X161575000Y-50900000D01*
X152095000Y-48830000D02*
X151775000Y-49150000D01*
D35*
X32225000Y-118250000D02*
X33825000Y-118250000D01*
D33*
X150697085Y-67130200D02*
X147755200Y-67130200D01*
D31*
X139995001Y-34929999D02*
X140055000Y-34870000D01*
X17150000Y-12300000D02*
X17450197Y-12300000D01*
D34*
X112775000Y-117400000D02*
X112575000Y-117400000D01*
D33*
X147755200Y-67130200D02*
X147224999Y-66599999D01*
D31*
X18075000Y-117599803D02*
X18075000Y-118100000D01*
X114975000Y-117400000D02*
X114836297Y-117538703D01*
X113275000Y-117900000D02*
X112775000Y-117400000D01*
D32*
X33900000Y-33750000D02*
X48400000Y-33750000D01*
D31*
X114550000Y-12300000D02*
X114450000Y-12300000D01*
X49150000Y-30450000D02*
X47725000Y-30450000D01*
D33*
X156625000Y-63100000D02*
X156225001Y-62700001D01*
X150801282Y-31134146D02*
X151268082Y-30667346D01*
D34*
X112484314Y-96250000D02*
X112584314Y-96350000D01*
D31*
X91300000Y-54800000D02*
X94300000Y-54800000D01*
D33*
X160227899Y-62700001D02*
X160525000Y-62402900D01*
D32*
X89400000Y-12250000D02*
X102300000Y-12250000D01*
X93834314Y-75800000D02*
X95334314Y-75800000D01*
D33*
X150640981Y-31567347D02*
X150801282Y-31407046D01*
D31*
X100975000Y-9400000D02*
X99750000Y-9400000D01*
D34*
X112575000Y-117400000D02*
X112675000Y-117500000D01*
D31*
X138424999Y-56876601D02*
X138424999Y-56146602D01*
D32*
X78934314Y-75800000D02*
X78984314Y-75850000D01*
X48400000Y-33750000D02*
X60900000Y-33750000D01*
D33*
X151207882Y-32797547D02*
X152438082Y-31567347D01*
X138195000Y-34870000D02*
X138195000Y-33900198D01*
D31*
X30034314Y-97100000D02*
X30084314Y-97050000D01*
X136994799Y-57596528D02*
X138414872Y-59016601D01*
X17200000Y-33250000D02*
X17500197Y-33250000D01*
D32*
X82900000Y-33750000D02*
X85900000Y-33750000D01*
D31*
X114550000Y-12300000D02*
X114411297Y-12438703D01*
D35*
X107825000Y-118250000D02*
X107225000Y-118250000D01*
D31*
X115084314Y-74950000D02*
X114945611Y-75088703D01*
D33*
X152095000Y-48700001D02*
X152095000Y-48830000D01*
D31*
%TO.N,+5V*%
X79100000Y-31450000D02*
X79400000Y-31150000D01*
D32*
X50025000Y-115250000D02*
X50025000Y-114200000D01*
D31*
X21034314Y-93100000D02*
X21734314Y-93800000D01*
D32*
X85850000Y-10200000D02*
X88150000Y-10200000D01*
X38084314Y-71650000D02*
X38784314Y-71650000D01*
D31*
X54700000Y-31450000D02*
X69900000Y-31450000D01*
X17923214Y-93911100D02*
X17923214Y-94511297D01*
X107966667Y-52200000D02*
X110800000Y-52200000D01*
X43284314Y-93000000D02*
X62934314Y-93000000D01*
D32*
X88084314Y-71650000D02*
X88884314Y-71650000D01*
D31*
X55900000Y-52200000D02*
X57966667Y-52200000D01*
X113584314Y-93989797D02*
X113584314Y-94650000D01*
D33*
X19884314Y-94650000D02*
X20484314Y-94650000D01*
D32*
X83550000Y-10200000D02*
X85850000Y-10200000D01*
D31*
X102625000Y-9500000D02*
X105150000Y-9500000D01*
D32*
X104750981Y-71650000D02*
X105600981Y-72500000D01*
D31*
X73400000Y-31450000D02*
X79100000Y-31450000D01*
X107966667Y-52200000D02*
X105400000Y-52200000D01*
X39000000Y-52200000D02*
X41300000Y-52200000D01*
X24633333Y-52200000D02*
X27400000Y-52200000D01*
D32*
X36784314Y-71650000D02*
X38084314Y-71650000D01*
X38784314Y-72350000D02*
X38934314Y-72500000D01*
D31*
X115084314Y-73350000D02*
X113884314Y-73350000D01*
X17588900Y-10561297D02*
X17450197Y-10700000D01*
D32*
X72267647Y-72500000D02*
X73117647Y-71650000D01*
X38784314Y-71650000D02*
X38784314Y-72350000D01*
X88084314Y-71650000D02*
X88934314Y-72500000D01*
D31*
X111884314Y-92950000D02*
X112544517Y-92950000D01*
X64534314Y-93000000D02*
X71084314Y-93000000D01*
D32*
X36659314Y-71775000D02*
X36784314Y-71650000D01*
D31*
X17588900Y-9961100D02*
X17588900Y-10561297D01*
D32*
X78650000Y-51600000D02*
X78000000Y-51600000D01*
D31*
X114975000Y-115800000D02*
X113875000Y-115800000D01*
X115000000Y-52700000D02*
X112147403Y-52700000D01*
D32*
X88150000Y-10200000D02*
X88450000Y-10500000D01*
D31*
X111608700Y-31511297D02*
X111747403Y-31650000D01*
X113875000Y-115150000D02*
X113875000Y-115800000D01*
X102400000Y-31275000D02*
X104275000Y-31275000D01*
X111747403Y-31650000D02*
X112200000Y-31650000D01*
D32*
X28250000Y-10200000D02*
X29250000Y-11200000D01*
X21850000Y-10200000D02*
X21750000Y-10200000D01*
D31*
X104584314Y-92950000D02*
X110284314Y-92950000D01*
X101359314Y-94150000D02*
X101359314Y-93025000D01*
X73275000Y-114150000D02*
X76525000Y-114150000D01*
X21600000Y-52200000D02*
X22300000Y-52200000D01*
X22300000Y-52200000D02*
X24633333Y-52200000D01*
D32*
X88934314Y-71700000D02*
X88934314Y-72500000D01*
D31*
X77325000Y-114950000D02*
X78125000Y-114150000D01*
X62934314Y-93000000D02*
X63734314Y-93800000D01*
X54275000Y-31275000D02*
X54400000Y-31150000D01*
X55600000Y-52200000D02*
X55900000Y-52200000D01*
X104275000Y-31275000D02*
X104400000Y-31150000D01*
X20000000Y-52700000D02*
X21100000Y-52700000D01*
X22384314Y-93800000D02*
X23734314Y-93800000D01*
X88700000Y-52200000D02*
X88300000Y-52600000D01*
X111958698Y-52200000D02*
X112008700Y-52250002D01*
D32*
X54750981Y-71650000D02*
X55600981Y-72500000D01*
D31*
X101384314Y-93000000D02*
X102934314Y-93000000D01*
D32*
X39784314Y-71650000D02*
X54084314Y-71650000D01*
D31*
X28125000Y-114150000D02*
X49975000Y-114150000D01*
X105000000Y-52600000D02*
X94100000Y-52600000D01*
X53125000Y-114150000D02*
X73275000Y-114150000D01*
X73350000Y-30450000D02*
X73350000Y-31400000D01*
D32*
X78000000Y-51600000D02*
X77400000Y-52200000D01*
D31*
X79700000Y-31450000D02*
X100725000Y-31450000D01*
X38500000Y-52700000D02*
X39000000Y-52200000D01*
X43700000Y-52200000D02*
X44100000Y-52600000D01*
X29400000Y-31150000D02*
X46100000Y-31150000D01*
X52325000Y-114950000D02*
X53125000Y-114150000D01*
D32*
X78884314Y-71650000D02*
X88084314Y-71650000D01*
X29250000Y-11200000D02*
X39350000Y-11200000D01*
D31*
X21125000Y-114250000D02*
X21125000Y-114850000D01*
D32*
X103650000Y-10200000D02*
X105850000Y-10200000D01*
D31*
X18900000Y-29650000D02*
X17638900Y-30911100D01*
D32*
X88884314Y-71650000D02*
X89784314Y-71650000D01*
D31*
X111508698Y-10200000D02*
X111558700Y-10250002D01*
X63734314Y-93800000D02*
X64534314Y-93000000D01*
D32*
X38300000Y-51500000D02*
X39000000Y-52200000D01*
D31*
X50725000Y-31450000D02*
X50900000Y-31275000D01*
D32*
X40350000Y-10200000D02*
X42250000Y-10200000D01*
D31*
X101525000Y-114150000D02*
X102325000Y-114950000D01*
X46100000Y-31150000D02*
X46400000Y-31450000D01*
D32*
X106600981Y-71500000D02*
X110545405Y-71500000D01*
D31*
X19975000Y-115800000D02*
X21075000Y-115800000D01*
D32*
X22267647Y-72500000D02*
X21934314Y-72500000D01*
D31*
X72200000Y-52200000D02*
X74633333Y-52200000D01*
D32*
X72184314Y-71650000D02*
X72184314Y-72416667D01*
X38934314Y-72500000D02*
X39784314Y-71650000D01*
X94500000Y-51400000D02*
X93700000Y-52200000D01*
X50025000Y-114200000D02*
X49975000Y-114150000D01*
X95025000Y-51400000D02*
X94500000Y-51400000D01*
D31*
X103734314Y-93800000D02*
X104584314Y-92950000D01*
X20650000Y-10700000D02*
X21150000Y-10200000D01*
X21184314Y-73350000D02*
X21284314Y-73250000D01*
D32*
X25850000Y-10200000D02*
X21850000Y-10200000D01*
X71417647Y-71650000D02*
X72267647Y-72500000D01*
D31*
X18850000Y-8700000D02*
X17588900Y-9961100D01*
X101175000Y-30450000D02*
X102000000Y-31275000D01*
D32*
X70625000Y-10200000D02*
X70925000Y-10500000D01*
X54750981Y-71650000D02*
X55784314Y-71650000D01*
D31*
X39684314Y-93000000D02*
X41684314Y-93000000D01*
X18013900Y-115661297D02*
X17875197Y-115800000D01*
X112775000Y-114050000D02*
X113875000Y-115150000D01*
X17784511Y-94650000D02*
X17484314Y-94650000D01*
X91300000Y-52200000D02*
X88700000Y-52200000D01*
D32*
X103350000Y-10500000D02*
X103650000Y-10200000D01*
D31*
X41684314Y-93000000D02*
X42484314Y-93800000D01*
D32*
X21800000Y-31150000D02*
X20750000Y-30100000D01*
D31*
X39659314Y-94150000D02*
X39659314Y-93025000D01*
D32*
X73384314Y-71650000D02*
X78884314Y-71650000D01*
D31*
X19275000Y-113800000D02*
X18013900Y-115061100D01*
D32*
X105600981Y-72500000D02*
X106600981Y-71500000D01*
X70625000Y-10200000D02*
X71325000Y-9500000D01*
D31*
X99250000Y-114175000D02*
X99225000Y-114150000D01*
X54400000Y-31150000D02*
X54700000Y-31450000D01*
X21100000Y-52700000D02*
X21600000Y-52200000D01*
X19600000Y-31650000D02*
X20700000Y-31650000D01*
D32*
X38784314Y-71650000D02*
X39784314Y-71650000D01*
D31*
X114600000Y-31650000D02*
X111747403Y-31650000D01*
X18123214Y-73211297D02*
X17984511Y-73350000D01*
X83734314Y-93800000D02*
X84534314Y-93000000D01*
D32*
X22300000Y-52200000D02*
X22200000Y-52200000D01*
D31*
X17500197Y-31650000D02*
X17200000Y-31650000D01*
D32*
X54650000Y-51300000D02*
X55000000Y-51300000D01*
X22384314Y-72616667D02*
X22267647Y-72500000D01*
X21900000Y-31150000D02*
X21800000Y-31150000D01*
X96309314Y-72750000D02*
X96309314Y-72075000D01*
X79184314Y-72650000D02*
X79184314Y-71950000D01*
D33*
X21334314Y-93800000D02*
X22384314Y-93800000D01*
D31*
X44100000Y-52600000D02*
X55200000Y-52600000D01*
X60400000Y-52200000D02*
X60800000Y-52600000D01*
X99250000Y-115300000D02*
X99250000Y-114175000D01*
D32*
X89784314Y-71650000D02*
X90084314Y-71650000D01*
D31*
X112684314Y-73350000D02*
X113884314Y-73350000D01*
X105400000Y-52200000D02*
X105000000Y-52600000D01*
X113884314Y-73350000D02*
X113884314Y-72550000D01*
X20700000Y-31650000D02*
X21200000Y-31150000D01*
D32*
X39350000Y-11200000D02*
X40350000Y-10200000D01*
D31*
X88300000Y-52600000D02*
X77800000Y-52600000D01*
D32*
X72184314Y-72416667D02*
X72267647Y-72500000D01*
X83250000Y-10500000D02*
X83550000Y-10200000D01*
D31*
X99225000Y-114150000D02*
X101525000Y-114150000D01*
D32*
X36659314Y-72750000D02*
X36659314Y-71775000D01*
X21750000Y-10200000D02*
X20700000Y-9150000D01*
D31*
X21734314Y-93800000D02*
X22384314Y-93800000D01*
X113584314Y-94650000D02*
X112484314Y-94650000D01*
D32*
X70925000Y-10500000D02*
X83250000Y-10500000D01*
D31*
X71084314Y-93000000D02*
X82934314Y-93000000D01*
D32*
X65850000Y-10200000D02*
X68975000Y-10200000D01*
D31*
X60800000Y-52600000D02*
X71800000Y-52600000D01*
X27400000Y-52200000D02*
X27900000Y-52700000D01*
D32*
X88884314Y-71650000D02*
X88934314Y-71700000D01*
X55600981Y-71833333D02*
X55600981Y-72500000D01*
D31*
X18038900Y-51961100D02*
X18038900Y-52561297D01*
X21284314Y-73250000D02*
X21517647Y-73250000D01*
X21575000Y-115300000D02*
X21925000Y-114950000D01*
X21125000Y-114850000D02*
X21575000Y-115300000D01*
D32*
X55784314Y-71650000D02*
X56450981Y-71650000D01*
X73250000Y-115350000D02*
X73250000Y-114175000D01*
D31*
X17984511Y-73350000D02*
X17684314Y-73350000D01*
D32*
X22267647Y-72500000D02*
X23117647Y-71650000D01*
D31*
X109350000Y-10200000D02*
X105850000Y-10200000D01*
X39659314Y-93025000D02*
X39684314Y-93000000D01*
X71109314Y-93025000D02*
X71084314Y-93000000D01*
D32*
X42250000Y-10200000D02*
X44600000Y-10200000D01*
D31*
X24534314Y-93000000D02*
X39684314Y-93000000D01*
X109400000Y-31150000D02*
X105900000Y-31150000D01*
X17638900Y-30911100D02*
X17638900Y-31511297D01*
D32*
X53534314Y-72200000D02*
X54084314Y-71650000D01*
D31*
X21517647Y-73250000D02*
X22267647Y-72500000D01*
X71109314Y-94050000D02*
X71109314Y-93025000D01*
D32*
X38084314Y-71650000D02*
X38934314Y-72500000D01*
D31*
X17900197Y-52700000D02*
X17600000Y-52700000D01*
X112544517Y-92950000D02*
X113584314Y-93989797D01*
X21075000Y-115800000D02*
X21575000Y-115300000D01*
X103225000Y-114050000D02*
X110825000Y-114050000D01*
D32*
X72184314Y-71650000D02*
X73384314Y-71650000D01*
D31*
X114884314Y-94650000D02*
X113584314Y-94650000D01*
D32*
X95884314Y-71650000D02*
X104750981Y-71650000D01*
D31*
X19384314Y-71350000D02*
X18123214Y-72611100D01*
X84534314Y-93000000D02*
X101384314Y-93000000D01*
D32*
X40100000Y-10200000D02*
X39900000Y-10000000D01*
D31*
X112147403Y-52700000D02*
X112600000Y-52700000D01*
X20084314Y-73350000D02*
X21184314Y-73350000D01*
X17923214Y-94511297D02*
X17784511Y-94650000D01*
D32*
X73117647Y-71650000D02*
X73384314Y-71650000D01*
X65850000Y-10200000D02*
X69350000Y-10200000D01*
X90084314Y-71650000D02*
X95884314Y-71650000D01*
D31*
X55200000Y-52600000D02*
X55600000Y-52200000D01*
D32*
X21900000Y-31150000D02*
X29400000Y-31150000D01*
D31*
X69900000Y-31450000D02*
X73400000Y-31450000D01*
X18123214Y-72611100D02*
X18123214Y-73211297D01*
D32*
X73250000Y-114175000D02*
X73275000Y-114150000D01*
D31*
X100725000Y-31450000D02*
X100900000Y-31275000D01*
D32*
X21934314Y-72500000D02*
X21234314Y-71800000D01*
D31*
X19184314Y-92650000D02*
X17923214Y-93911100D01*
X50900000Y-31275000D02*
X54275000Y-31275000D01*
D33*
X20484314Y-94650000D02*
X21334314Y-93800000D01*
D31*
X17875197Y-115800000D02*
X17575000Y-115800000D01*
X17450197Y-10700000D02*
X17150000Y-10700000D01*
X114550000Y-10700000D02*
X111697403Y-10700000D01*
X102525000Y-9400000D02*
X102625000Y-9500000D01*
X23734314Y-93800000D02*
X24534314Y-93000000D01*
X112008700Y-52561297D02*
X112147403Y-52700000D01*
X94100000Y-52600000D02*
X93700000Y-52200000D01*
X78125000Y-114150000D02*
X99225000Y-114150000D01*
X79400000Y-31150000D02*
X79700000Y-31450000D01*
X112008700Y-52250002D02*
X112008700Y-52561297D01*
D32*
X55000000Y-51300000D02*
X55900000Y-52200000D01*
D31*
X77400000Y-52200000D02*
X74633333Y-52200000D01*
X49975000Y-114150000D02*
X51525000Y-114150000D01*
X102325000Y-114950000D02*
X103225000Y-114050000D01*
X111558700Y-10561297D02*
X111697403Y-10700000D01*
D32*
X71417647Y-71650000D02*
X72184314Y-71650000D01*
X37850000Y-51500000D02*
X38300000Y-51500000D01*
D31*
X27900000Y-52700000D02*
X38500000Y-52700000D01*
X42484314Y-93800000D02*
X43284314Y-93000000D01*
X18013900Y-115061100D02*
X18013900Y-115661297D01*
X21150000Y-10200000D02*
X21850000Y-10200000D01*
D32*
X88450000Y-10500000D02*
X103350000Y-10500000D01*
D31*
X77800000Y-52600000D02*
X77400000Y-52200000D01*
X111558698Y-31150000D02*
X111608700Y-31200002D01*
D32*
X96309314Y-72075000D02*
X95884314Y-71650000D01*
D31*
X73350000Y-31400000D02*
X73400000Y-31450000D01*
D32*
X53534314Y-72850000D02*
X53534314Y-72200000D01*
X69350000Y-10200000D02*
X70625000Y-10200000D01*
D31*
X101175000Y-30450000D02*
X101175000Y-31000000D01*
D32*
X42250000Y-10200000D02*
X40100000Y-10200000D01*
D31*
X19550000Y-10700000D02*
X20650000Y-10700000D01*
D32*
X25850000Y-10200000D02*
X28250000Y-10200000D01*
D31*
X76525000Y-114150000D02*
X77325000Y-114950000D01*
X82934314Y-93000000D02*
X83734314Y-93800000D01*
D32*
X56450981Y-71650000D02*
X71417647Y-71650000D01*
X44600000Y-10200000D02*
X65850000Y-10200000D01*
D31*
X111697403Y-10700000D02*
X112150000Y-10700000D01*
X101175000Y-31000000D02*
X100900000Y-31275000D01*
X21200000Y-31150000D02*
X21900000Y-31150000D01*
X57966667Y-52200000D02*
X60400000Y-52200000D01*
X41300000Y-52200000D02*
X43700000Y-52200000D01*
X102000000Y-31275000D02*
X102400000Y-31275000D01*
D32*
X88934314Y-72500000D02*
X89784314Y-71650000D01*
D31*
X111608700Y-31200002D02*
X111608700Y-31511297D01*
X113884314Y-72550000D02*
X112784314Y-71450000D01*
X27325000Y-114950000D02*
X28125000Y-114150000D01*
X105150000Y-9500000D02*
X105850000Y-10200000D01*
X71800000Y-52600000D02*
X72200000Y-52200000D01*
D32*
X55784314Y-71650000D02*
X55600981Y-71833333D01*
D31*
X93700000Y-52200000D02*
X91300000Y-52200000D01*
X113875000Y-115800000D02*
X112575000Y-115800000D01*
X100900000Y-31275000D02*
X102400000Y-31275000D01*
X51525000Y-114150000D02*
X52325000Y-114950000D01*
X101359314Y-93025000D02*
X101384314Y-93000000D01*
X111558700Y-10250002D02*
X111558700Y-10561297D01*
X17638900Y-31511297D02*
X17500197Y-31650000D01*
D32*
X55600981Y-72500000D02*
X56450981Y-71650000D01*
D31*
X19300000Y-50700000D02*
X18038900Y-51961100D01*
D32*
X23117647Y-71650000D02*
X36784314Y-71650000D01*
D31*
X21925000Y-114950000D02*
X27325000Y-114950000D01*
D32*
X79184314Y-71950000D02*
X78884314Y-71650000D01*
X22200000Y-52200000D02*
X21150000Y-51150000D01*
D31*
X46400000Y-31450000D02*
X50725000Y-31450000D01*
X18038900Y-52561297D02*
X17900197Y-52700000D01*
X50900000Y-30450000D02*
X50900000Y-31275000D01*
X102934314Y-93000000D02*
X103734314Y-93800000D01*
D32*
X54084314Y-71650000D02*
X54750981Y-71650000D01*
D35*
%TO.N,/1-2*%
X43484314Y-95650000D02*
X45334314Y-93800000D01*
X27284314Y-95650000D02*
X43484314Y-95650000D01*
X55675000Y-114950000D02*
X57225000Y-114950000D01*
X23517647Y-74550000D02*
X39784314Y-74550000D01*
X28350000Y-12000000D02*
X39975000Y-12000000D01*
D31*
X25883333Y-53500000D02*
X40050000Y-53500000D01*
D35*
X40475000Y-11500000D02*
X43350000Y-11500000D01*
D33*
X30650000Y-32450000D02*
X53150000Y-32450000D01*
D35*
X23734314Y-97100000D02*
X25834314Y-97100000D01*
X39975000Y-12000000D02*
X40475000Y-11500000D01*
X39784314Y-74550000D02*
X41834314Y-72500000D01*
X25834314Y-97100000D02*
X27284314Y-95650000D01*
X22267647Y-75800000D02*
X23517647Y-74550000D01*
X41834314Y-72500000D02*
X43834314Y-72500000D01*
X30775000Y-116600000D02*
X54025000Y-116600000D01*
X54025000Y-116600000D02*
X55675000Y-114950000D01*
X27850000Y-11500000D02*
X28350000Y-12000000D01*
X27100000Y-11500000D02*
X27850000Y-11500000D01*
X45334314Y-93800000D02*
X47384314Y-93800000D01*
X27325000Y-118250000D02*
X29125000Y-118250000D01*
X29125000Y-118250000D02*
X30775000Y-116600000D01*
D34*
%TO.N,/CH1-IN*%
X19553200Y-11300000D02*
X19550000Y-11296800D01*
X20581114Y-73946800D02*
X20584314Y-73950000D01*
X19603200Y-32250000D02*
X19600000Y-32246800D01*
D35*
X23275000Y-118175000D02*
X22750000Y-118175000D01*
X20584314Y-95250000D02*
X21584314Y-95250000D01*
D34*
X20087514Y-73950000D02*
X20084314Y-73946800D01*
D35*
X22325000Y-13075000D02*
X20550000Y-11300000D01*
X20884314Y-73950000D02*
X29709314Y-73950000D01*
D34*
X19884314Y-95246800D02*
X20381114Y-95246800D01*
D36*
X20584314Y-73950000D02*
X20984314Y-73950000D01*
D35*
X21300000Y-53600000D02*
X21000000Y-53300000D01*
D34*
X19978200Y-116400000D02*
X19975000Y-116396800D01*
D35*
X29709314Y-73950000D02*
X30909314Y-72750000D01*
D34*
X19887514Y-95250000D02*
X19884314Y-95246800D01*
X21000000Y-53300000D02*
X20003200Y-53300000D01*
D36*
X20384314Y-95250000D02*
X20584314Y-95250000D01*
D34*
X20600000Y-32250000D02*
X19603200Y-32250000D01*
D36*
X20984314Y-73950000D02*
X20884314Y-73950000D01*
D34*
X20084314Y-73946800D02*
X20581114Y-73946800D01*
D35*
X22750000Y-118175000D02*
X20975000Y-116400000D01*
D34*
X20003200Y-53300000D02*
X20000000Y-53296800D01*
X20381114Y-95246800D02*
X20384314Y-95250000D01*
D35*
X22375000Y-34025000D02*
X20600000Y-32250000D01*
D34*
X20550000Y-11300000D02*
X19553200Y-11300000D01*
D35*
X22900000Y-34025000D02*
X22375000Y-34025000D01*
X22850000Y-13075000D02*
X22325000Y-13075000D01*
D34*
X20975000Y-116400000D02*
X19978200Y-116400000D01*
D35*
%TO.N,/2-3*%
X40434314Y-75800000D02*
X41984314Y-74250000D01*
X66834314Y-93800000D02*
X68634314Y-93800000D01*
X56884314Y-74250000D02*
X58634314Y-72500000D01*
X56125000Y-116600000D02*
X78625000Y-116600000D01*
X58634314Y-72500000D02*
X60500981Y-72500000D01*
D31*
X56716667Y-53500000D02*
X42550000Y-53500000D01*
D35*
X42484314Y-97100000D02*
X44334314Y-97100000D01*
X44334314Y-97100000D02*
X45884314Y-95550000D01*
X54475000Y-118250000D02*
X56125000Y-116600000D01*
X38934314Y-75800000D02*
X40434314Y-75800000D01*
X65084314Y-95550000D02*
X66834314Y-93800000D01*
X52325000Y-118250000D02*
X54475000Y-118250000D01*
X45850000Y-11500000D02*
X64600000Y-11500000D01*
X41984314Y-74250000D02*
X56884314Y-74250000D01*
X80275000Y-114950000D02*
X82225000Y-114950000D01*
X78625000Y-116600000D02*
X80275000Y-114950000D01*
D33*
X55650000Y-32450000D02*
X78150000Y-32450000D01*
D35*
X45884314Y-95550000D02*
X65084314Y-95550000D01*
%TO.N,/3-4*%
X63734314Y-97100000D02*
X65534314Y-97100000D01*
X57534314Y-75800000D02*
X59084314Y-74250000D01*
X65534314Y-97100000D02*
X67284314Y-95350000D01*
X103675000Y-116450000D02*
X105175000Y-114950000D01*
D33*
X102950000Y-32450000D02*
X103150000Y-32650000D01*
D35*
X74084314Y-74250000D02*
X75834314Y-72500000D01*
X81125000Y-116450000D02*
X103675000Y-116450000D01*
X67284314Y-95350000D02*
X85284314Y-95350000D01*
D33*
X80650000Y-32450000D02*
X102950000Y-32450000D01*
D35*
X75834314Y-72500000D02*
X77167647Y-72500000D01*
X85284314Y-95350000D02*
X86834314Y-93800000D01*
X86834314Y-93800000D02*
X88634314Y-93800000D01*
D31*
X59216667Y-53500000D02*
X73383333Y-53500000D01*
D35*
X67100000Y-11500000D02*
X84600000Y-11500000D01*
X59084314Y-74250000D02*
X74084314Y-74250000D01*
X77325000Y-118250000D02*
X79325000Y-118250000D01*
X79325000Y-118250000D02*
X81125000Y-116450000D01*
X105175000Y-114950000D02*
X107225000Y-114950000D01*
X55600981Y-75800000D02*
X57534314Y-75800000D01*
%TO.N,/4-5*%
X87100000Y-11500000D02*
X104600000Y-11500000D01*
X92834314Y-72500000D02*
X93834314Y-72500000D01*
X85900000Y-97100000D02*
X87550000Y-95450000D01*
X75784314Y-74150000D02*
X91184314Y-74150000D01*
D31*
X75883333Y-53500000D02*
X90050000Y-53500000D01*
D35*
X87550000Y-95450000D02*
X105284314Y-95450000D01*
X74134314Y-75800000D02*
X75784314Y-74150000D01*
X91184314Y-74150000D02*
X92834314Y-72500000D01*
X72267647Y-75800000D02*
X74134314Y-75800000D01*
X83734314Y-97100000D02*
X85900000Y-97100000D01*
X107084314Y-93650000D02*
X108484314Y-93650000D01*
X105284314Y-95450000D02*
X107084314Y-93650000D01*
%TO.N,/CH1-OUT*%
X103734314Y-97100000D02*
X105784314Y-97100000D01*
X110484314Y-74150000D02*
X111384314Y-74150000D01*
X102325000Y-118250000D02*
X104725000Y-118250000D01*
D34*
X113053200Y-11296800D02*
X114550000Y-11296800D01*
D35*
X107434314Y-95450000D02*
X111184314Y-95450000D01*
D34*
X113184314Y-95450000D02*
X113387514Y-95246800D01*
X113103200Y-32246800D02*
X114600000Y-32246800D01*
D35*
X106750981Y-74650000D02*
X109984314Y-74650000D01*
X109900000Y-32450000D02*
X110900000Y-32450000D01*
D34*
X113387514Y-95246800D02*
X114884314Y-95246800D01*
X113384314Y-74150000D02*
X113587514Y-73946800D01*
D35*
X105784314Y-97100000D02*
X107434314Y-95450000D01*
X109984314Y-74650000D02*
X110484314Y-74150000D01*
X111300000Y-53500000D02*
X109216667Y-53500000D01*
D34*
X113478200Y-116396800D02*
X114975000Y-116396800D01*
X112900000Y-32450000D02*
X113103200Y-32246800D01*
X113587514Y-73946800D02*
X115084314Y-73946800D01*
X113300000Y-53500000D02*
X113503200Y-53296800D01*
D35*
X107100000Y-11500000D02*
X110850000Y-11500000D01*
D34*
X112850000Y-11500000D02*
X113053200Y-11296800D01*
D35*
X105600981Y-75800000D02*
X106750981Y-74650000D01*
D31*
X105650000Y-32450000D02*
X109900000Y-32450000D01*
D35*
X106375000Y-116600000D02*
X111275000Y-116600000D01*
D34*
X113275000Y-116600000D02*
X113478200Y-116396800D01*
D35*
X104725000Y-118250000D02*
X106375000Y-116600000D01*
D34*
X113503200Y-53296800D02*
X115000000Y-53296800D01*
D35*
%TO.N,/CH3*%
X110275000Y-118600000D02*
X111871800Y-117003200D01*
D34*
X18103200Y-53703200D02*
X18800000Y-54400000D01*
D35*
X19000000Y-54600000D02*
X19000000Y-55500000D01*
X89584812Y-14488721D02*
X89580140Y-14500000D01*
X109600000Y-56850000D02*
X109800000Y-56650000D01*
D34*
X111646800Y-11703200D02*
X112150000Y-11703200D01*
D35*
X17686500Y-32636500D02*
X18400000Y-33350000D01*
X18884314Y-97450000D02*
X18884314Y-96550000D01*
X107750000Y-35800000D02*
X19950000Y-35800000D01*
D34*
X17684314Y-74353200D02*
X18187514Y-74353200D01*
D36*
X111981114Y-74553200D02*
X112181114Y-74353200D01*
D34*
X111496800Y-32853200D02*
X111696800Y-32653200D01*
X111981114Y-95653200D02*
X112484314Y-95653200D01*
D35*
X109275000Y-118600000D02*
X110275000Y-118600000D01*
D34*
X17703200Y-32653200D02*
X18400000Y-33350000D01*
D35*
X19084314Y-75250000D02*
X18884314Y-75050000D01*
D34*
X17150000Y-11703200D02*
X17653200Y-11703200D01*
D35*
X18800000Y-54400000D02*
X19000000Y-54600000D01*
X110300000Y-55500000D02*
X111896800Y-53903200D01*
D34*
X111871800Y-117003200D02*
X112071800Y-116803200D01*
D35*
X111981114Y-74553200D02*
X111884314Y-74650000D01*
X111684314Y-77300000D02*
X111484314Y-77500000D01*
X109700000Y-13500000D02*
X111296800Y-11903200D01*
X110084314Y-98800000D02*
X20234314Y-98800000D01*
X109125000Y-119950000D02*
X20325000Y-119950000D01*
X18061500Y-116786500D02*
X18775000Y-117500000D01*
X18600000Y-33550000D02*
X17686500Y-32636500D01*
D34*
X112096800Y-53703200D02*
X112600000Y-53703200D01*
D35*
X111484314Y-77500000D02*
X20434314Y-77500000D01*
D34*
X111696800Y-32653200D02*
X112200000Y-32653200D01*
D35*
X17970814Y-95636500D02*
X18684314Y-96350000D01*
X30323533Y-14500000D02*
X19600000Y-14500000D01*
D34*
X18187514Y-74353200D02*
X18884314Y-75050000D01*
D35*
X107900000Y-35650000D02*
X107750000Y-35800000D01*
X18550000Y-13450000D02*
X18550000Y-12600000D01*
D34*
X17200000Y-32653200D02*
X17703200Y-32653200D01*
D35*
X19950000Y-35800000D02*
X18600000Y-34450000D01*
D34*
X111896800Y-53903200D02*
X112096800Y-53703200D01*
D35*
X109275000Y-119800000D02*
X109125000Y-119950000D01*
X18884314Y-96550000D02*
X17970814Y-95636500D01*
X110284314Y-98600000D02*
X110084314Y-98800000D01*
D34*
X111781114Y-95853200D02*
X111981114Y-95653200D01*
D35*
X18550000Y-12600000D02*
X18350000Y-12400000D01*
X30823533Y-14000000D02*
X30323533Y-14500000D01*
X38350000Y-14000000D02*
X30823533Y-14000000D01*
X97126467Y-14000000D02*
X90073533Y-14000000D01*
X108350000Y-13500000D02*
X109700000Y-13500000D01*
D36*
X110284314Y-97350000D02*
X110284314Y-97500000D01*
D35*
X111346800Y-32853200D02*
X111496800Y-32853200D01*
D34*
X17600000Y-53703200D02*
X18103200Y-53703200D01*
D35*
X20350000Y-56850000D02*
X109600000Y-56850000D01*
X38850000Y-14500000D02*
X38350000Y-14000000D01*
X20325000Y-119950000D02*
X18975000Y-118600000D01*
D34*
X17987514Y-95653200D02*
X18684314Y-96350000D01*
D35*
X107850000Y-14700000D02*
X97826467Y-14700000D01*
X89580140Y-14500000D02*
X38850000Y-14500000D01*
X19600000Y-14500000D02*
X18550000Y-13450000D01*
D34*
X17484314Y-95653200D02*
X17987514Y-95653200D01*
D35*
X20434314Y-77500000D02*
X19084314Y-76150000D01*
X18600000Y-34450000D02*
X18600000Y-33550000D01*
D36*
X112181114Y-74353200D02*
X112684314Y-74353200D01*
D34*
X112071800Y-116803200D02*
X112575000Y-116803200D01*
D35*
X19000000Y-55500000D02*
X20350000Y-56850000D01*
D34*
X18078200Y-116803200D02*
X18775000Y-117500000D01*
D35*
X90073533Y-14000000D02*
X89584812Y-14488721D01*
D34*
X17653200Y-11703200D02*
X18350000Y-12400000D01*
D35*
X20234314Y-98800000D02*
X18884314Y-97450000D01*
X19084314Y-76150000D02*
X19084314Y-75250000D01*
X111296800Y-11903200D02*
X111446800Y-11903200D01*
X18975000Y-118600000D02*
X18975000Y-117700000D01*
X107850000Y-14700000D02*
X107700000Y-14850000D01*
X111884314Y-74650000D02*
X111884314Y-76200000D01*
X108400000Y-34450000D02*
X109750000Y-34450000D01*
X18975000Y-117700000D02*
X18061500Y-116786500D01*
D36*
X111781114Y-95853200D02*
X110284314Y-97350000D01*
D34*
X17575000Y-116803200D02*
X18078200Y-116803200D01*
D35*
X97826467Y-14700000D02*
X97126467Y-14000000D01*
X109750000Y-34450000D02*
X111346800Y-32853200D01*
D34*
X111446800Y-11903200D02*
X111646800Y-11703200D01*
D35*
%TO.N,/CH2*%
X97600000Y-13250000D02*
X89600000Y-13250000D01*
X114481114Y-95653200D02*
X113784314Y-96350000D01*
X114638400Y-116803200D02*
X114571800Y-116803200D01*
D34*
X20470914Y-74353200D02*
X20084314Y-74353200D01*
X19884314Y-95653200D02*
X20381114Y-95653200D01*
X114663400Y-53703200D02*
X115000000Y-53703200D01*
D35*
X20325000Y-13725000D02*
X20250000Y-13650000D01*
D34*
X20684314Y-74850000D02*
X20684314Y-74566600D01*
X114547714Y-95653200D02*
X114884314Y-95653200D01*
D35*
X114681114Y-74353200D02*
X114747714Y-74353200D01*
D34*
X20384314Y-95650000D02*
X20584314Y-95850000D01*
D35*
X21242376Y-76750000D02*
X113384314Y-76750000D01*
D34*
X20100000Y-32650000D02*
X20300000Y-32850000D01*
D35*
X114146800Y-11703200D02*
X113450000Y-12400000D01*
X113784314Y-97450000D02*
X113184314Y-98050000D01*
X113784314Y-96350000D02*
X113784314Y-97450000D01*
X20300000Y-34600000D02*
X20300000Y-32850000D01*
X113900000Y-54400000D02*
X114596800Y-53703200D01*
X39350000Y-13750000D02*
X38850000Y-13250000D01*
X30350000Y-13250000D02*
X29875000Y-13725000D01*
X113500000Y-33350000D02*
X113500000Y-34450000D01*
X89600000Y-13250000D02*
X89100000Y-13750000D01*
X113900000Y-55500000D02*
X113900000Y-54400000D01*
X113500000Y-34450000D02*
X112900000Y-35050000D01*
X112900000Y-14050000D02*
X98400000Y-14050000D01*
X38850000Y-13250000D02*
X30350000Y-13250000D01*
X20600000Y-55541938D02*
X21158062Y-56100000D01*
X21034314Y-98050000D02*
X20584314Y-97600000D01*
D34*
X20475000Y-116800000D02*
X20675000Y-117000000D01*
D35*
X20684314Y-74850000D02*
X20684314Y-76191938D01*
X21158062Y-56100000D02*
X113300000Y-56100000D01*
X113450000Y-13500000D02*
X112900000Y-14050000D01*
X113984314Y-75050000D02*
X114681114Y-74353200D01*
X20584314Y-97600000D02*
X20584314Y-95850000D01*
D34*
X114747714Y-74353200D02*
X115084314Y-74353200D01*
X20381114Y-95653200D02*
X20384314Y-95650000D01*
D35*
X20750000Y-35050000D02*
X20300000Y-34600000D01*
X113184314Y-98050000D02*
X21034314Y-98050000D01*
D34*
X20600000Y-53916600D02*
X20386600Y-53703200D01*
D35*
X113875000Y-118600000D02*
X113275000Y-119200000D01*
X113275000Y-119200000D02*
X21125000Y-119200000D01*
X20600000Y-54200000D02*
X20600000Y-55541938D01*
X114196800Y-32653200D02*
X113500000Y-33350000D01*
D34*
X20471800Y-116803200D02*
X20475000Y-116800000D01*
D35*
X113984314Y-76150000D02*
X113984314Y-75050000D01*
D34*
X20050000Y-11700000D02*
X20250000Y-11900000D01*
D35*
X113450000Y-12400000D02*
X113450000Y-13500000D01*
X21125000Y-119200000D02*
X20675000Y-118750000D01*
X20675000Y-118750000D02*
X20675000Y-117000000D01*
D34*
X20684314Y-74566600D02*
X20470914Y-74353200D01*
X19600000Y-32653200D02*
X20096800Y-32653200D01*
X20386600Y-53703200D02*
X20000000Y-53703200D01*
D35*
X114571800Y-116803200D02*
X113875000Y-117500000D01*
X113384314Y-76750000D02*
X113984314Y-76150000D01*
X114263400Y-32653200D02*
X114196800Y-32653200D01*
D34*
X20096800Y-32653200D02*
X20100000Y-32650000D01*
X114263400Y-32653200D02*
X114600000Y-32653200D01*
X114213400Y-11703200D02*
X114550000Y-11703200D01*
D35*
X113300000Y-56100000D02*
X113900000Y-55500000D01*
X114547714Y-95653200D02*
X114481114Y-95653200D01*
D34*
X20600000Y-54200000D02*
X20600000Y-53916600D01*
X20046800Y-11703200D02*
X20050000Y-11700000D01*
D35*
X20250000Y-13650000D02*
X20250000Y-11900000D01*
X20684314Y-76191938D02*
X21242376Y-76750000D01*
X112900000Y-35050000D02*
X20750000Y-35050000D01*
X29875000Y-13725000D02*
X20325000Y-13725000D01*
X89100000Y-13750000D02*
X39350000Y-13750000D01*
X114213400Y-11703200D02*
X114146800Y-11703200D01*
D34*
X114638400Y-116803200D02*
X114975000Y-116803200D01*
X19550000Y-11703200D02*
X20046800Y-11703200D01*
D35*
X113875000Y-117500000D02*
X113875000Y-118600000D01*
X98400000Y-14050000D02*
X97600000Y-13250000D01*
X114596800Y-53703200D02*
X114663400Y-53703200D01*
D34*
X19975000Y-116803200D02*
X20471800Y-116803200D01*
D35*
%TO.N,/CH4*%
X20900000Y-50300000D02*
X108500000Y-50300000D01*
X20850000Y-8500000D02*
X20250000Y-8500000D01*
D34*
X18203200Y-53296800D02*
X17600000Y-53296800D01*
X18087514Y-95246800D02*
X17484314Y-95246800D01*
D35*
X111408698Y-51608698D02*
X111408698Y-52668402D01*
X18784314Y-73150000D02*
X18784314Y-73450000D01*
X111645148Y-113970148D02*
X111645148Y-116029852D01*
X110784314Y-70950000D02*
X20984314Y-70950000D01*
X110100000Y-50300000D02*
X111408698Y-51608698D01*
D34*
X18700000Y-52800000D02*
X18203200Y-53296800D01*
D35*
X111075000Y-113400000D02*
X111645148Y-113970148D01*
D34*
X17803200Y-32246800D02*
X17200000Y-32246800D01*
X18584314Y-94750000D02*
X18087514Y-95246800D01*
D35*
X111484314Y-71650000D02*
X110784314Y-70950000D01*
X111084314Y-94409704D02*
X111554462Y-94879852D01*
X21361091Y-9011091D02*
X20850000Y-8500000D01*
X18584314Y-94450000D02*
X20784314Y-92250000D01*
X108790296Y-8500000D02*
X97988233Y-8500000D01*
X18700000Y-52800000D02*
X18700000Y-52500000D01*
X111408698Y-52668402D02*
X111670148Y-52929852D01*
X89350000Y-8500000D02*
X38600000Y-8500000D01*
D34*
X111921410Y-95246800D02*
X111554462Y-94879852D01*
X111637096Y-32246800D02*
X111270148Y-31879852D01*
D35*
X108500000Y-29650000D02*
X109040296Y-29650000D01*
X18584314Y-94750000D02*
X18584314Y-94450000D01*
D34*
X17753200Y-11296800D02*
X17150000Y-11296800D01*
D35*
X110884314Y-92250000D02*
X111084314Y-92450000D01*
D34*
X112684314Y-73946800D02*
X112181114Y-73946800D01*
X111587096Y-11296800D02*
X111220148Y-10929852D01*
X112012096Y-116396800D02*
X111645148Y-116029852D01*
D35*
X20984314Y-70950000D02*
X18784314Y-73150000D01*
D34*
X112037096Y-53296800D02*
X111670148Y-52929852D01*
X18300000Y-31750000D02*
X17803200Y-32246800D01*
X112150000Y-11296800D02*
X111587096Y-11296800D01*
X112181114Y-73946800D02*
X111784314Y-73550000D01*
D35*
X18250000Y-10500000D02*
X18250000Y-10800000D01*
X20784314Y-92250000D02*
X110884314Y-92250000D01*
X18300000Y-31750000D02*
X18300000Y-31450000D01*
X18300000Y-31450000D02*
X20500000Y-29250000D01*
D34*
X18287514Y-73946800D02*
X17684314Y-73946800D01*
D35*
X18700000Y-52500000D02*
X20900000Y-50300000D01*
X18675000Y-115600000D02*
X20875000Y-113400000D01*
D34*
X112600000Y-53296800D02*
X112037096Y-53296800D01*
D35*
X111784314Y-73550000D02*
X111784314Y-71950000D01*
X108100000Y-29250000D02*
X108500000Y-29650000D01*
D34*
X18784314Y-73450000D02*
X18287514Y-73946800D01*
D35*
X38600000Y-8500000D02*
X38088909Y-9011091D01*
X90100000Y-9250000D02*
X89350000Y-8500000D01*
D34*
X18250000Y-10800000D02*
X17753200Y-11296800D01*
X18675000Y-115900000D02*
X18178200Y-116396800D01*
D35*
X20875000Y-113400000D02*
X111075000Y-113400000D01*
D34*
X112575000Y-116396800D02*
X112012096Y-116396800D01*
D35*
X97238233Y-9250000D02*
X90100000Y-9250000D01*
X109040296Y-29650000D02*
X111270148Y-31879852D01*
X108500000Y-50300000D02*
X110100000Y-50300000D01*
X20250000Y-8500000D02*
X18250000Y-10500000D01*
D34*
X112484314Y-95246800D02*
X111921410Y-95246800D01*
D35*
X18675000Y-115900000D02*
X18675000Y-115600000D01*
X97988233Y-8500000D02*
X97238233Y-9250000D01*
D34*
X112200000Y-32246800D02*
X111637096Y-32246800D01*
D35*
X38088909Y-9011091D02*
X21361091Y-9011091D01*
X111084314Y-92450000D02*
X111084314Y-94409704D01*
X111220148Y-10929852D02*
X108790296Y-8500000D01*
X111784314Y-71950000D02*
X111484314Y-71650000D01*
X20500000Y-29250000D02*
X108100000Y-29250000D01*
D34*
X18178200Y-116396800D02*
X17575000Y-116396800D01*
D35*
%TO.N,Net-(D1-DIN)*%
X22900000Y-32250000D02*
X23100000Y-32450000D01*
D33*
X21500000Y-55325000D02*
X21500000Y-55000000D01*
D35*
X26934314Y-93800000D02*
X28634314Y-93800000D01*
D33*
X27417647Y-72750000D02*
X27167647Y-72500000D01*
D35*
X23050000Y-11500000D02*
X24600000Y-11500000D01*
D33*
X29259314Y-72750000D02*
X27417647Y-72750000D01*
D35*
X22850000Y-11300000D02*
X23050000Y-11500000D01*
D33*
X21500000Y-55000000D02*
X23000000Y-53500000D01*
D35*
X30059314Y-114950000D02*
X28484314Y-116525000D01*
X22234314Y-96900000D02*
X23584314Y-95550000D01*
X23275000Y-116400000D02*
X23475000Y-116600000D01*
X25184314Y-95550000D02*
X26934314Y-93800000D01*
D33*
X23000000Y-53500000D02*
X23383333Y-53500000D01*
D35*
X21584314Y-96900000D02*
X22234314Y-96900000D01*
X32225000Y-114950000D02*
X30059314Y-114950000D01*
X23100000Y-32450000D02*
X28150000Y-32450000D01*
X28484314Y-116525000D02*
X23025000Y-116525000D01*
X23584314Y-95550000D02*
X25184314Y-95550000D01*
%TO.N,/5-6*%
X92284314Y-74050000D02*
X108950981Y-74050000D01*
X90534314Y-75800000D02*
X92284314Y-74050000D01*
X88934314Y-75800000D02*
X90534314Y-75800000D01*
D31*
X92550000Y-53500000D02*
X106716667Y-53500000D01*
D35*
X108950981Y-74050000D02*
X110500981Y-72500000D01*
D36*
%TO.N,/1Input2Outputs/1B*%
X160525000Y-39113401D02*
X160338401Y-39300000D01*
X160338399Y-38100000D02*
X160525000Y-38286601D01*
X159885000Y-38100000D02*
X160338399Y-38100000D01*
X160525000Y-38286601D02*
X160525000Y-39113401D01*
X160338401Y-39300000D02*
X157538399Y-39300000D01*
X156338399Y-38100000D02*
X155955000Y-38100000D01*
X157538399Y-39300000D02*
X156338399Y-38100000D01*
%TO.N,/1Input2Outputs/1A*%
X157025000Y-37400000D02*
X156725000Y-37700000D01*
X159225000Y-37700000D02*
X159025000Y-37900000D01*
X156725000Y-37700000D02*
X155955000Y-37700000D01*
X159885000Y-37700000D02*
X159225000Y-37700000D01*
D33*
%TO.N,5V*%
X157521800Y-61260300D02*
X157682101Y-61099999D01*
X149955000Y-37099999D02*
X149224999Y-37099999D01*
D31*
X146527233Y-62529999D02*
X145371704Y-62529999D01*
D32*
X148374998Y-64249998D02*
X147724999Y-63599999D01*
D31*
X155822346Y-29967345D02*
X152438082Y-29967345D01*
D32*
X138394999Y-39209999D02*
X138394999Y-37069999D01*
D33*
X158154999Y-59793201D02*
X158154999Y-58970000D01*
D31*
X140855201Y-52376601D02*
X140025001Y-52376601D01*
D33*
X156725000Y-48900000D02*
X156725000Y-50750000D01*
X159955000Y-46897500D02*
X159955000Y-47099999D01*
D31*
X146390201Y-55900000D02*
X145740000Y-56550201D01*
D33*
X147880000Y-57180200D02*
X147329800Y-57180200D01*
D31*
X145222951Y-62381246D02*
X145371704Y-62529999D01*
D36*
X152925000Y-50720000D02*
X152975000Y-50770000D01*
D35*
X158897098Y-45900000D02*
X157154999Y-45900000D01*
D32*
X149025000Y-46069799D02*
X146985200Y-46069799D01*
X149025000Y-47099999D02*
X149955000Y-47099999D01*
D31*
X148224999Y-55700001D02*
X148224999Y-52970000D01*
D33*
X158224999Y-56126799D02*
X158425000Y-56326800D01*
X148608678Y-29771541D02*
X148070995Y-29771541D01*
X139995001Y-31870000D02*
X140195000Y-32069999D01*
X158224999Y-45167499D02*
X159116250Y-46058750D01*
X155424998Y-64299998D02*
X151794999Y-64299998D01*
X147025000Y-38900000D02*
X147275000Y-39150000D01*
X155275000Y-47176799D02*
X155275000Y-50338528D01*
D31*
X146794795Y-62262437D02*
X146527233Y-62529999D01*
D33*
X146654999Y-41400000D02*
X148224999Y-42970000D01*
X157794999Y-40400000D02*
X158224999Y-40830000D01*
X155885000Y-61099999D02*
X157161799Y-59823200D01*
D32*
X159885000Y-61099999D02*
X159885000Y-60860000D01*
D33*
X147025000Y-37099999D02*
X147025000Y-38900000D01*
X157682101Y-61099999D02*
X158025000Y-61099999D01*
D31*
X137025000Y-45756496D02*
X137596751Y-46328247D01*
D33*
X155706472Y-50770000D02*
X156705000Y-50770000D01*
D31*
X138224999Y-46956495D02*
X138224999Y-47029999D01*
X160695001Y-28700000D02*
X157354999Y-28700000D01*
X135955000Y-43299998D02*
X137025000Y-43299998D01*
X137596751Y-46328248D02*
X137596752Y-46328248D01*
D33*
X155275000Y-50338528D02*
X155706472Y-50770000D01*
D31*
X147020200Y-55900000D02*
X146390201Y-55900000D01*
D33*
X160825000Y-47099999D02*
X159955000Y-47099999D01*
X151425000Y-36900000D02*
X151895001Y-36900000D01*
X155955000Y-36970000D02*
X155955000Y-37099999D01*
D31*
X147020200Y-55900000D02*
X148025000Y-55900000D01*
X151380000Y-57180200D02*
X150310000Y-57180200D01*
D33*
X156625000Y-65900000D02*
X156625000Y-65500000D01*
D31*
X157354999Y-28700000D02*
X155955000Y-30099999D01*
D33*
X155525000Y-35600000D02*
X154825000Y-35600000D01*
X162025000Y-57600000D02*
X162025000Y-56700000D01*
D31*
X139127286Y-65030000D02*
X139625001Y-64532285D01*
D33*
X161925000Y-57700000D02*
X162025000Y-57600000D01*
X154825000Y-35600000D02*
X153325001Y-37099999D01*
D31*
X139625001Y-68900000D02*
X139625001Y-66533707D01*
D32*
X151064800Y-46069799D02*
X149025000Y-46069799D01*
D31*
X155955000Y-30099999D02*
X155822346Y-29967345D01*
D33*
X156125000Y-35600000D02*
X156725000Y-36200000D01*
D32*
X149751799Y-64299998D02*
X151794999Y-64299998D01*
D33*
X155351800Y-47099999D02*
X155275000Y-47176799D01*
X162025000Y-56700000D02*
X161651800Y-56326800D01*
X158404999Y-59823200D02*
X158125000Y-59823200D01*
D35*
X157154999Y-45900000D02*
X155955000Y-47099999D01*
D33*
X156725000Y-48700000D02*
X156725000Y-48900000D01*
X150298082Y-28997346D02*
X150298082Y-29967345D01*
D31*
X148225916Y-62262437D02*
X146794795Y-62262437D01*
D32*
X145955000Y-46169799D02*
X145855100Y-46069900D01*
D33*
X158154999Y-56830000D02*
X151730200Y-56830000D01*
D31*
X140938401Y-65220307D02*
X140276854Y-65881854D01*
D32*
X148224999Y-50830000D02*
X148224999Y-50450001D01*
D33*
X151730200Y-56830000D02*
X151380000Y-57180200D01*
X149224999Y-37099999D02*
X148825001Y-37099999D01*
X152438082Y-29967345D02*
X150298082Y-29967345D01*
X141315002Y-30320000D02*
X139995001Y-28999999D01*
X156625000Y-65900000D02*
X158224999Y-65900000D01*
D32*
X138394999Y-39139999D02*
X138394999Y-42999999D01*
X148095000Y-47099999D02*
X149025000Y-47099999D01*
D33*
X162025000Y-37099999D02*
X158224999Y-37099999D01*
D32*
X145955000Y-47099999D02*
X145955000Y-46169799D01*
X149751799Y-63788320D02*
X149751799Y-64299998D01*
D31*
X141425000Y-52946400D02*
X140855201Y-52376601D01*
X136654999Y-47599999D02*
X138224999Y-49169999D01*
X148025000Y-55900000D02*
X149029800Y-55900000D01*
D32*
X146525000Y-41400000D02*
X145855100Y-42069900D01*
D33*
X153325001Y-37099999D02*
X152095000Y-37099999D01*
D32*
X152095000Y-47099999D02*
X151064800Y-46069799D01*
D33*
X161651800Y-56326800D02*
X158425000Y-56326800D01*
D31*
X141275000Y-56196601D02*
X140595000Y-56876601D01*
X138224999Y-49873399D02*
X138224999Y-49169999D01*
D33*
X155525000Y-40400000D02*
X157794999Y-40400000D01*
D31*
X139625001Y-66533707D02*
X140276854Y-65881854D01*
D33*
X147329800Y-57180200D02*
X147310000Y-57200000D01*
D31*
X159025000Y-30099999D02*
X158095000Y-30099999D01*
D33*
X158154999Y-58366800D02*
X158858200Y-58366800D01*
X158224999Y-37099999D02*
X157325000Y-36200000D01*
D31*
X140025001Y-61360000D02*
X140025001Y-59016601D01*
D36*
X152403585Y-47099999D02*
X152925000Y-47621414D01*
D33*
X145955000Y-37099999D02*
X147025000Y-37099999D01*
X158425000Y-56326800D02*
X158154999Y-56596801D01*
D32*
X138195000Y-33269998D02*
X139195000Y-33269998D01*
X159885000Y-61099999D02*
X161928200Y-61099999D01*
X140769106Y-32069999D02*
X140195000Y-32069999D01*
D31*
X148644239Y-62680760D02*
X148225916Y-62262437D01*
D33*
X149224999Y-37099999D02*
X149025000Y-36900000D01*
X158224999Y-66970000D02*
X158224999Y-65900000D01*
D31*
X141275000Y-56196601D02*
X143321601Y-56196601D01*
D33*
X162095000Y-47099999D02*
X160825000Y-47099999D01*
D32*
X138798200Y-33330299D02*
X138737899Y-33269998D01*
X147724999Y-63599999D02*
X147224999Y-63599999D01*
D35*
X158927299Y-45869799D02*
X158897098Y-45900000D01*
D33*
X158224999Y-50830000D02*
X158224999Y-50600001D01*
D32*
X148224999Y-50450001D02*
X149025000Y-49650000D01*
D33*
X155525000Y-35600000D02*
X156125000Y-35600000D01*
D32*
X138737899Y-33269998D02*
X138195000Y-33269998D01*
D31*
X150310000Y-57180200D02*
X149260000Y-57180200D01*
D33*
X158858200Y-58366800D02*
X159525000Y-57700000D01*
X147491919Y-28267346D02*
X149468082Y-28267346D01*
D31*
X140938401Y-63073400D02*
X141851600Y-63073400D01*
D33*
X158125000Y-59823200D02*
X158154999Y-59793201D01*
D31*
X141851600Y-63073400D02*
X142543754Y-62381246D01*
D33*
X149568082Y-28267346D02*
X150298082Y-28997346D01*
X148525000Y-41650000D02*
X148224999Y-41349999D01*
X143047332Y-29217668D02*
X146541597Y-29217668D01*
X160825000Y-47099999D02*
X160825000Y-48963401D01*
X158095000Y-47099999D02*
X157752101Y-47099999D01*
X158154999Y-58970000D02*
X158154999Y-58366800D01*
X159885000Y-37099999D02*
X158095000Y-37099999D01*
D36*
X158224999Y-42970000D02*
X158224999Y-40830000D01*
D31*
X149029800Y-55900000D02*
X150310000Y-57180200D01*
D33*
X148224999Y-41349999D02*
X148224999Y-40830000D01*
D32*
X138798200Y-35566799D02*
X138798200Y-33330299D01*
D31*
X159955000Y-30099999D02*
X159025000Y-30099999D01*
D33*
X160825000Y-48963401D02*
X159488401Y-50300000D01*
X148825001Y-37099999D02*
X149025000Y-36900000D01*
D31*
X140595000Y-56876601D02*
X140025001Y-56876601D01*
D33*
X158224999Y-52970000D02*
X158224999Y-56126799D01*
D31*
X145740000Y-56550201D02*
X145740000Y-57180200D01*
D33*
X158224999Y-50600001D02*
X158525000Y-50300000D01*
D32*
X148644239Y-62680760D02*
X149751799Y-63788320D01*
D31*
X143321601Y-56196601D02*
X144025000Y-56900000D01*
D33*
X159225000Y-60200000D02*
X158848200Y-59823200D01*
D32*
X139195000Y-33269998D02*
X140055000Y-33269998D01*
D31*
X140025001Y-55246600D02*
X139825000Y-55446601D01*
D33*
X157521800Y-61703200D02*
X157521800Y-61260300D01*
X152975000Y-50770000D02*
X156075000Y-50770000D01*
X148070995Y-29771541D02*
X147671636Y-30170900D01*
X157291800Y-48133200D02*
X156725000Y-48700000D01*
D36*
X152925000Y-47621414D02*
X152925000Y-50720000D01*
D33*
X159525000Y-57700000D02*
X161925000Y-57700000D01*
D31*
X142543754Y-62381246D02*
X145222951Y-62381246D01*
D32*
X159885000Y-60860000D02*
X159225000Y-60200000D01*
D31*
X162095000Y-30099999D02*
X160695001Y-28700000D01*
D32*
X138394999Y-35970000D02*
X138798200Y-35566799D01*
X145855100Y-42069900D02*
X145855100Y-46069900D01*
D33*
X159116250Y-46058750D02*
X158927299Y-45869799D01*
D31*
X148025000Y-55900000D02*
X148224999Y-55700001D01*
D32*
X145855100Y-46069900D02*
X143085199Y-43299998D01*
D33*
X139995001Y-31139999D02*
X139995001Y-31870000D01*
X146525000Y-41400000D02*
X146654999Y-41400000D01*
D31*
X140025001Y-54516601D02*
X140025001Y-55246600D01*
D33*
X158224999Y-42970000D02*
X158224999Y-45167499D01*
X141945000Y-30320000D02*
X141315002Y-30320000D01*
X157225000Y-62000000D02*
X157521800Y-61703200D01*
D32*
X142195000Y-33269998D02*
X141969105Y-33269998D01*
D31*
X137596752Y-46328248D02*
X138224999Y-46956495D01*
D32*
X148224999Y-52970000D02*
X148224999Y-50830000D01*
D33*
X157325000Y-36200000D02*
X156725000Y-36200000D01*
X155955000Y-47099999D02*
X155351800Y-47099999D01*
D31*
X139625001Y-64532285D02*
X139625001Y-63900000D01*
D33*
X156725000Y-50750000D02*
X156725000Y-51470001D01*
D31*
X145459800Y-56900000D02*
X145740000Y-57180200D01*
D33*
X156625000Y-65500000D02*
X155424998Y-64299998D01*
X156725000Y-36200000D02*
X155955000Y-36970000D01*
D32*
X137254999Y-32069999D02*
X136055000Y-33269998D01*
D33*
X158154999Y-56596801D02*
X158154999Y-56830000D01*
D32*
X143085199Y-43299998D02*
X142095000Y-43299998D01*
D31*
X140938401Y-63073400D02*
X140938401Y-65220307D01*
D33*
X148095000Y-37099999D02*
X148825001Y-37099999D01*
D31*
X141425000Y-56046601D02*
X141425000Y-52946400D01*
D33*
X141945000Y-30320000D02*
X143047332Y-29217668D01*
D31*
X139625001Y-61760000D02*
X140938401Y-63073400D01*
D33*
X152095000Y-47099999D02*
X152403585Y-47099999D01*
D31*
X137025000Y-43299998D02*
X142095000Y-43299998D01*
D32*
X138394999Y-42999999D02*
X138095000Y-43299998D01*
D31*
X137025000Y-43299998D02*
X137025000Y-45756496D01*
D33*
X146541597Y-29217668D02*
X147491919Y-28267346D01*
X147025000Y-37099999D02*
X148095000Y-37099999D01*
D31*
X140025001Y-52376601D02*
X140025001Y-51673401D01*
D32*
X146985200Y-46069799D02*
X145955000Y-47099999D01*
D33*
X159116250Y-46058750D02*
X159955000Y-46897500D01*
D32*
X141969105Y-33269998D02*
X140769106Y-32069999D01*
X140195000Y-32069999D02*
X137254999Y-32069999D01*
D33*
X158224999Y-65900000D02*
X158224999Y-64830000D01*
X151895001Y-36900000D02*
X152095000Y-37099999D01*
X157291800Y-47560300D02*
X157291800Y-48133200D01*
X158848200Y-59823200D02*
X158404999Y-59823200D01*
D32*
X138394999Y-37069999D02*
X138394999Y-35970000D01*
D31*
X140025001Y-59016601D02*
X140025001Y-56876601D01*
D33*
X157161799Y-59823200D02*
X158404999Y-59823200D01*
X149468082Y-28267346D02*
X149568082Y-28267346D01*
X159488401Y-50300000D02*
X158525000Y-50300000D01*
X157752101Y-47099999D02*
X157291800Y-47560300D01*
D31*
X136525000Y-47599999D02*
X136654999Y-47599999D01*
X137596751Y-46328247D02*
X137596751Y-46328248D01*
X141275000Y-56196601D02*
X141425000Y-56046601D01*
X139625001Y-61760000D02*
X140025001Y-61360000D01*
D33*
X156725000Y-51470001D02*
X158224999Y-52970000D01*
D31*
X144025000Y-56900000D02*
X145459800Y-56900000D01*
X140025001Y-51673401D02*
X138224999Y-49873399D01*
D36*
%TO.N,/1Input2Outputs/1C*%
X162025000Y-38100000D02*
X161727074Y-38100000D01*
X160380201Y-43398200D02*
X158878399Y-43398200D01*
X161727074Y-38100000D02*
X161325000Y-38502074D01*
X158825000Y-43344801D02*
X158825000Y-42970000D01*
X162034265Y-41609265D02*
X162034265Y-41744136D01*
X162034265Y-41744136D02*
X160380201Y-43398200D01*
X161325000Y-38502074D02*
X161325000Y-40400000D01*
X158878399Y-43398200D02*
X158825000Y-43344801D01*
%TO.N,/1Input2Outputs/1D*%
X159225000Y-42700000D02*
X159225000Y-42970000D01*
X160800000Y-41125000D02*
X159225000Y-42700000D01*
X160975000Y-38357099D02*
X160975000Y-40007537D01*
X162025000Y-37700000D02*
X161632099Y-37700000D01*
X160800000Y-40182537D02*
X160800000Y-41125000D01*
X161632099Y-37700000D02*
X160975000Y-38357099D01*
X160975000Y-40007537D02*
X160800000Y-40182537D01*
D34*
%TO.N,/Basic1-1/1C*%
X158511599Y-33050000D02*
X157645000Y-32183401D01*
X157761601Y-31100000D02*
X158095000Y-31100000D01*
X157645000Y-31216601D02*
X157761601Y-31100000D01*
X157645000Y-32183401D02*
X157645000Y-31216601D01*
X162095000Y-31100000D02*
X161691800Y-31100000D01*
X159741800Y-33050000D02*
X158511599Y-33050000D01*
X161691800Y-31100000D02*
X159741800Y-33050000D01*
%TO.N,/Basic1-1/1A*%
X156425000Y-30700000D02*
X155955000Y-30700000D01*
X159955000Y-30700000D02*
X159225000Y-30700000D01*
X159225000Y-30700000D02*
X159025000Y-30900000D01*
X156825000Y-30300000D02*
X156425000Y-30700000D01*
%TO.N,/Basic1-1/1D*%
X157645000Y-29616599D02*
X157645000Y-30653200D01*
X162095000Y-30700000D02*
X161691800Y-30700000D01*
X157691800Y-30700000D02*
X158095000Y-30700000D01*
X160341800Y-29350000D02*
X157911599Y-29350000D01*
X161691800Y-30700000D02*
X160341800Y-29350000D01*
X157911599Y-29350000D02*
X157645000Y-29616599D01*
X157645000Y-30653200D02*
X157691800Y-30700000D01*
%TO.N,/Basic1-1/1B*%
X156625000Y-31100000D02*
X155955000Y-31100000D01*
X159955000Y-31100000D02*
X160625000Y-31100000D01*
X156825000Y-31300000D02*
X156625000Y-31100000D01*
X160625000Y-31100000D02*
X160825000Y-30900000D01*
%TO.N,/2Inputs1Output/1A*%
X157592351Y-46269799D02*
X158622464Y-46269799D01*
X159621601Y-47700000D02*
X159955000Y-47700000D01*
X158825000Y-46472335D02*
X158825000Y-46903399D01*
X158622464Y-46269799D02*
X158825000Y-46472335D01*
X158825000Y-46903399D02*
X159621601Y-47700000D01*
X155955000Y-47700000D02*
X156525000Y-47700000D01*
X156525000Y-47700000D02*
X156591800Y-47633200D01*
X156591800Y-47270350D02*
X157592351Y-46269799D01*
X156591800Y-47633200D02*
X156591800Y-47270350D01*
%TO.N,/2Inputs1Output/1B*%
X159955000Y-48100000D02*
X159551800Y-48100000D01*
X156759314Y-48100000D02*
X155955000Y-48100000D01*
X157716615Y-46569799D02*
X156891800Y-47394614D01*
X158525000Y-47073200D02*
X158525000Y-46596599D01*
X156891800Y-47967514D02*
X156759314Y-48100000D01*
X158525000Y-46596599D02*
X158498200Y-46569799D01*
X159551800Y-48100000D02*
X158525000Y-47073200D01*
X158498200Y-46569799D02*
X157716615Y-46569799D01*
X156891800Y-47394614D02*
X156891800Y-47967514D01*
%TO.N,/2Inputs1Output/2A*%
X157691800Y-48333200D02*
X157125000Y-48900000D01*
X157125000Y-48900000D02*
X157125000Y-51166800D01*
X158755199Y-52566800D02*
X158825000Y-52636601D01*
X157761601Y-48100000D02*
X157691800Y-48169801D01*
X158525000Y-52566800D02*
X158755199Y-52566800D01*
X158825000Y-52636601D02*
X158825000Y-52970000D01*
X158095000Y-48100000D02*
X157761601Y-48100000D01*
X157125000Y-51166800D02*
X158525000Y-52566800D01*
X157691800Y-48169801D02*
X157691800Y-48333200D01*
%TO.N,/2Inputs1Output/2B*%
X158058200Y-51233200D02*
X159225000Y-52400000D01*
X158525000Y-47787100D02*
X158525000Y-49107107D01*
X158525000Y-49107107D02*
X157694799Y-49937308D01*
X159225000Y-52400000D02*
X159225000Y-52970000D01*
X158095000Y-47700000D02*
X158437900Y-47700000D01*
X157694799Y-49937308D02*
X157694799Y-51233200D01*
X158437900Y-47700000D02*
X158525000Y-47787100D01*
X157694799Y-51233200D02*
X158058200Y-51233200D01*
%TO.N,/1nput;Output(A\u002CB)/1B*%
X149025000Y-39030000D02*
X149551800Y-38503200D01*
X148498200Y-40426800D02*
X149025000Y-39900000D01*
X148825000Y-42700000D02*
X147694799Y-41569799D01*
X147694799Y-40426800D02*
X148498200Y-40426800D01*
X149025000Y-39900000D02*
X149025000Y-39030000D01*
X149551800Y-38169801D02*
X149621601Y-38100000D01*
X147694799Y-41569799D02*
X147694799Y-40426800D01*
X149621601Y-38100000D02*
X149955000Y-38100000D01*
X149551800Y-38503200D02*
X149551800Y-38169801D01*
X148825000Y-42970000D02*
X148825000Y-42700000D01*
%TO.N,/1nput;Output(A\u002CB)/1D*%
X149294801Y-42566800D02*
X149225000Y-42636601D01*
X152498200Y-37700000D02*
X152525000Y-37726800D01*
X149225000Y-42636601D02*
X149225000Y-42970000D01*
X150408200Y-42566800D02*
X149294801Y-42566800D01*
X152525000Y-40450000D02*
X150408200Y-42566800D01*
X152095000Y-37700000D02*
X152498200Y-37700000D01*
X152525000Y-37726800D02*
X152525000Y-40450000D01*
%TO.N,/1nput;Output(A\u002CB)/1C*%
X152095000Y-38100000D02*
X151725000Y-38100000D01*
X150925000Y-37300000D02*
X150925000Y-37136599D01*
X145612100Y-38100000D02*
X145955000Y-38100000D01*
X145551800Y-36373200D02*
X145551800Y-38039700D01*
X151725000Y-38100000D02*
X150925000Y-37300000D01*
X150058200Y-36269799D02*
X145655201Y-36269799D01*
X145551800Y-38039700D02*
X145612100Y-38100000D01*
X150925000Y-37136599D02*
X150058200Y-36269799D01*
X145655201Y-36269799D02*
X145551800Y-36373200D01*
%TO.N,/1nput;Output(A\u002CB)/1A*%
X146358200Y-39233200D02*
X146358200Y-37760300D01*
X147025000Y-39900000D02*
X146358200Y-39233200D01*
X148725000Y-38572337D02*
X148725000Y-39450000D01*
X148275000Y-39900000D02*
X147025000Y-39900000D01*
X146358200Y-37760300D02*
X146297900Y-37700000D01*
X149597337Y-37700000D02*
X148725000Y-38572337D01*
X146297900Y-37700000D02*
X145955000Y-37700000D01*
X148725000Y-39450000D02*
X148275000Y-39900000D01*
X149955000Y-37700000D02*
X149597337Y-37700000D01*
%TO.N,/1Input;Output(A\u002CD)/1C*%
X151691800Y-47566800D02*
X150694799Y-46569799D01*
X152095000Y-48100000D02*
X151691800Y-48100000D01*
X151691800Y-48100000D02*
X151691800Y-47566800D01*
X146358200Y-47696800D02*
X146358200Y-48039700D01*
X146297900Y-48100000D02*
X145955000Y-48100000D01*
X147485201Y-46569799D02*
X146358200Y-47696800D01*
X146358200Y-48039700D02*
X146297900Y-48100000D01*
X150694799Y-46569799D02*
X147485201Y-46569799D01*
%TO.N,/1Input;Output(A\u002CD)/1B*%
X150525000Y-48336601D02*
X150525000Y-51336601D01*
X149955000Y-48100000D02*
X150288399Y-48100000D01*
X149225000Y-52636601D02*
X149225000Y-52970000D01*
X150525000Y-51336601D02*
X149225000Y-52636601D01*
X150288399Y-48100000D02*
X150525000Y-48336601D01*
%TO.N,/1Input;Output(A\u002CD)/1D*%
X148885300Y-53373200D02*
X148825000Y-53312900D01*
X152437900Y-47700000D02*
X152498200Y-47760300D01*
X150355201Y-53373200D02*
X148885300Y-53373200D01*
X152498200Y-47760300D02*
X152498200Y-51230201D01*
X152498200Y-51230201D02*
X150355201Y-53373200D01*
X148825000Y-53312900D02*
X148825000Y-52970000D01*
X152095000Y-47700000D02*
X152437900Y-47700000D01*
%TO.N,/1Input;Output(A\u002CD)/1A*%
X145551800Y-49230201D02*
X145551800Y-47760300D01*
X145551800Y-47760300D02*
X145612100Y-47700000D01*
X145612100Y-47700000D02*
X145955000Y-47700000D01*
X149612100Y-47700000D02*
X149551800Y-47760300D01*
X149551800Y-47760300D02*
X149551800Y-48373200D01*
X149955000Y-47700000D02*
X149612100Y-47700000D01*
X148694799Y-49230201D02*
X145551800Y-49230201D01*
X149551800Y-48373200D02*
X148694799Y-49230201D01*
%TO.N,/Cross/1A*%
X156825000Y-61000000D02*
X156125000Y-61700000D01*
X159885000Y-61700000D02*
X159551601Y-61700000D01*
X156125000Y-61700000D02*
X155885000Y-61700000D01*
X159551601Y-61700000D02*
X159325000Y-61473399D01*
X159325000Y-61473399D02*
X159325000Y-61042335D01*
X158552464Y-60269799D02*
X157460937Y-60269799D01*
X156825000Y-60905736D02*
X156825000Y-61000000D01*
X159325000Y-61042335D02*
X158552464Y-60269799D01*
X157460937Y-60269799D02*
X156825000Y-60905736D01*
%TO.N,/Cross/1D*%
X161525000Y-61700000D02*
X161025000Y-62200000D01*
X158728200Y-62403200D02*
X158728200Y-62003200D01*
X159555201Y-63230201D02*
X158728200Y-62403200D01*
X161025000Y-62575736D02*
X160370535Y-63230201D01*
X158425000Y-61700000D02*
X158025000Y-61700000D01*
X162025000Y-61700000D02*
X161525000Y-61700000D01*
X160370535Y-63230201D02*
X159555201Y-63230201D01*
X161025000Y-62200000D02*
X161025000Y-62575736D01*
X158728200Y-62003200D02*
X158425000Y-61700000D01*
%TO.N,/Cross/1C*%
X158358399Y-62100000D02*
X158025000Y-62100000D01*
X161325000Y-62700000D02*
X160494799Y-63530201D01*
X158428200Y-62527464D02*
X158428200Y-62169801D01*
X158428200Y-62169801D02*
X158358399Y-62100000D01*
X159430937Y-63530201D02*
X158428200Y-62527464D01*
X162025000Y-62100000D02*
X161549264Y-62100000D01*
X160494799Y-63530201D02*
X159430937Y-63530201D01*
X161325000Y-62324264D02*
X161325000Y-62700000D01*
X161549264Y-62100000D02*
X161325000Y-62324264D01*
%TO.N,/Cross/1B*%
X157125000Y-61030000D02*
X157125000Y-61124264D01*
X157585201Y-60569799D02*
X157125000Y-61030000D01*
X159885000Y-62100000D02*
X159481800Y-62100000D01*
X159025000Y-61643200D02*
X159025000Y-61166599D01*
X158428200Y-60569799D02*
X157585201Y-60569799D01*
X159025000Y-61166599D02*
X158428200Y-60569799D01*
X159481800Y-62100000D02*
X159025000Y-61643200D01*
X156149264Y-62100000D02*
X155885000Y-62100000D01*
X157125000Y-61124264D02*
X156149264Y-62100000D01*
%TO.N,/Cross/2C*%
X158725000Y-57900000D02*
X158049264Y-57900000D01*
X158049264Y-57900000D02*
X155481800Y-60467464D01*
X159225000Y-64487100D02*
X159225000Y-64830000D01*
X158537900Y-63800000D02*
X159225000Y-64487100D01*
X155481800Y-63156800D02*
X156125000Y-63800000D01*
X159155000Y-56830000D02*
X159155000Y-57470000D01*
X156125000Y-63800000D02*
X158537900Y-63800000D01*
X155481800Y-60467464D02*
X155481800Y-63156800D01*
X159155000Y-57470000D02*
X158725000Y-57900000D01*
%TO.N,/Cross/2B*%
X159225000Y-66639700D02*
X159225000Y-66970000D01*
X159582665Y-66500000D02*
X159364700Y-66500000D01*
X159224801Y-58566800D02*
X160849465Y-58566800D01*
X162728200Y-63354465D02*
X159582665Y-66500000D01*
X159155000Y-58636601D02*
X159224801Y-58566800D01*
X160849465Y-58566800D02*
X162728200Y-60445535D01*
X162728200Y-60445535D02*
X162728200Y-63354465D01*
X159364700Y-66500000D02*
X159225000Y-66639700D01*
X159155000Y-58970000D02*
X159155000Y-58636601D01*
%TO.N,/Cross/2A*%
X162428200Y-63230201D02*
X160425201Y-65233200D01*
X161025000Y-60300000D02*
X162125000Y-60300000D01*
X162428200Y-60603200D02*
X162428200Y-63230201D01*
X160091800Y-65233200D02*
X158825000Y-66500000D01*
X158755000Y-58970000D02*
X158755000Y-59312900D01*
X160425201Y-65233200D02*
X160091800Y-65233200D01*
X158755000Y-59312900D02*
X158815300Y-59373200D01*
X162125000Y-60300000D02*
X162428200Y-60603200D01*
X158825000Y-66500000D02*
X158825000Y-66970000D01*
X158815300Y-59373200D02*
X160098200Y-59373200D01*
X160098200Y-59373200D02*
X161025000Y-60300000D01*
%TO.N,/Cross/2D*%
X158413636Y-64100000D02*
X156000736Y-64100000D01*
X155181800Y-63281064D02*
X155181800Y-60343200D01*
X155181800Y-60343200D02*
X158025000Y-57500000D01*
X158625000Y-57500000D02*
X158755000Y-57370000D01*
X156000736Y-64100000D02*
X155181800Y-63281064D01*
X158025000Y-57500000D02*
X158625000Y-57500000D01*
X158825000Y-64511364D02*
X158413636Y-64100000D01*
X158755000Y-57370000D02*
X158755000Y-56830000D01*
X158825000Y-64830000D02*
X158825000Y-64511364D01*
%TO.N,/Basic1-1-curve1/1B*%
X149268082Y-30280246D02*
X149268082Y-29567346D01*
X147935428Y-29200000D02*
X146950672Y-30184756D01*
X150298082Y-30967346D02*
X149955182Y-30967346D01*
X148900736Y-29200000D02*
X147935428Y-29200000D01*
X149268082Y-29567346D02*
X148900736Y-29200000D01*
X149955182Y-30967346D02*
X149268082Y-30280246D01*
X146950672Y-30184756D02*
X146282778Y-30184756D01*
%TO.N,/Basic1-1-curve1/1C*%
X151668082Y-31567346D02*
X150837881Y-32397547D01*
X148538204Y-30737468D02*
X148349859Y-30737468D01*
X149268082Y-31467346D02*
X148538204Y-30737468D01*
X152104683Y-30967346D02*
X151668082Y-31403947D01*
X149268082Y-31859123D02*
X149268082Y-31467346D01*
X152438082Y-30967346D02*
X152104683Y-30967346D01*
X149806506Y-32397547D02*
X149268082Y-31859123D01*
X150837881Y-32397547D02*
X149806506Y-32397547D01*
X151668082Y-31403947D02*
X151668082Y-31567346D01*
%TO.N,/Basic1-1-curve1/1A*%
X150298082Y-30567346D02*
X150068082Y-30567346D01*
X149568082Y-29443082D02*
X149025000Y-28900000D01*
X147735428Y-28900000D02*
X146838204Y-29797224D01*
X149568082Y-30067346D02*
X149568082Y-29443082D01*
X146838204Y-29797224D02*
X146386305Y-29797224D01*
X150068082Y-30567346D02*
X149568082Y-30067346D01*
X149025000Y-28900000D02*
X147735428Y-28900000D01*
%TO.N,/Basic1-1-curve1/1D*%
X149568082Y-31343082D02*
X148576097Y-30351097D01*
X151368082Y-31443082D02*
X150713617Y-32097547D01*
X152438082Y-30567346D02*
X152080419Y-30567346D01*
X149568082Y-31667346D02*
X149568082Y-31343082D01*
X150713617Y-32097547D02*
X149998283Y-32097547D01*
X149998283Y-32097547D02*
X149568082Y-31667346D01*
X151368082Y-31279683D02*
X151368082Y-31443082D01*
X152080419Y-30567346D02*
X151368082Y-31279683D01*
X148576097Y-30351097D02*
X148453386Y-30351097D01*
%TO.N,/Basic1-1-curve-2/1D*%
X150724999Y-65612336D02*
X150724999Y-66099999D01*
X148479464Y-66430200D02*
X147266074Y-65216810D01*
X147266074Y-65216810D02*
X147266074Y-64459047D01*
X150394798Y-66430200D02*
X148479464Y-66430200D01*
X147266074Y-64459047D02*
X146925820Y-64118793D01*
X151437336Y-64899999D02*
X150724999Y-65612336D01*
X150724999Y-66099999D02*
X150394798Y-66430200D01*
X151794999Y-64899999D02*
X151437336Y-64899999D01*
%TO.N,/Basic1-1-curve-2/1B*%
X147105454Y-63012437D02*
X146619523Y-63498368D01*
X146619523Y-63498368D02*
X144974047Y-63498368D01*
X149654999Y-65299999D02*
X149251799Y-65299999D01*
X148224999Y-63392892D02*
X147844544Y-63012437D01*
X149251799Y-65299999D02*
X148951799Y-64999999D01*
X147844544Y-63012437D02*
X147105454Y-63012437D01*
X148951799Y-64999999D02*
X148951799Y-64119693D01*
X144974047Y-63498368D02*
X144871704Y-63396025D01*
X148951799Y-64119693D02*
X148224999Y-63392892D01*
%TO.N,/Basic1-1-curve-2/1A*%
X146495259Y-63198368D02*
X145220457Y-63198368D01*
X149654999Y-64899999D02*
X149321600Y-64899999D01*
X147968808Y-62712437D02*
X146981190Y-62712437D01*
X145220457Y-63198368D02*
X145071704Y-63049615D01*
X146981190Y-62712437D02*
X146495259Y-63198368D01*
X149321600Y-64899999D02*
X149251799Y-64830198D01*
X149251799Y-63995428D02*
X147968808Y-62712437D01*
X149251799Y-64830198D02*
X149251799Y-63995428D01*
%TO.N,/Basic1-1-curve-2/1C*%
X146966074Y-65341074D02*
X146966074Y-64707101D01*
X146966074Y-64707101D02*
X146724998Y-64466025D01*
X148355200Y-66730200D02*
X146966074Y-65341074D01*
X151794999Y-65299999D02*
X151524999Y-65299999D01*
X151524999Y-65299999D02*
X151024999Y-65799999D01*
X151024999Y-65799999D02*
X151024999Y-66234313D01*
X150531399Y-66730200D02*
X148355200Y-66730200D01*
X151024999Y-66234313D02*
X150724999Y-66534313D01*
X150724999Y-66536600D02*
X150531399Y-66730200D01*
X150724999Y-66534313D02*
X150724999Y-66536600D01*
D36*
%TO.N,/Basic1-2-extension/1C*%
X138366624Y-58296601D02*
X137519799Y-57449776D01*
X137519799Y-55601626D02*
X138074824Y-55046601D01*
X138074824Y-55046601D02*
X138878399Y-55046601D01*
X139025000Y-54900000D02*
X139025000Y-54516601D01*
X139025000Y-58633202D02*
X138688399Y-58296601D01*
X139025000Y-59016601D02*
X139025000Y-58633202D01*
X138878399Y-55046601D02*
X139025000Y-54900000D01*
X138688399Y-58296601D02*
X138366624Y-58296601D01*
X137519799Y-57449776D02*
X137519799Y-55601626D01*
%TO.N,/Basic1-2-extension/1D*%
X137869799Y-55746600D02*
X138219798Y-55396601D01*
X139425000Y-58538228D02*
X138833373Y-57946601D01*
X139425000Y-54994974D02*
X139425000Y-54516601D01*
X139023373Y-55396601D02*
X139425000Y-54994974D01*
X137869799Y-57304801D02*
X137869799Y-55746600D01*
X138219798Y-55396601D02*
X139023373Y-55396601D01*
X138511599Y-57946601D02*
X137869799Y-57304801D01*
X138833373Y-57946601D02*
X138511599Y-57946601D01*
X139425000Y-59016601D02*
X139425000Y-58538228D01*
%TO.N,/Basic1-2-extension/1B*%
X140238426Y-53546601D02*
X139716627Y-53546601D01*
X139025000Y-56289064D02*
X139280025Y-56034039D01*
X139716627Y-53546601D02*
X139025000Y-52854974D01*
X140580201Y-53888376D02*
X140238426Y-53546601D01*
X139280025Y-56034039D02*
X140137562Y-56034039D01*
X140580201Y-55591400D02*
X140580201Y-53888376D01*
X139025000Y-56876601D02*
X139025000Y-56289064D01*
X140137562Y-56034039D02*
X140580201Y-55591400D01*
X139025000Y-52854974D02*
X139025000Y-52376601D01*
%TO.N,/Basic1-2-extension/1A*%
X139861601Y-53196601D02*
X139425000Y-52760000D01*
X140930201Y-53743401D02*
X140383401Y-53196601D01*
X139425000Y-56876601D02*
X139425000Y-56384039D01*
X139425000Y-52760000D02*
X139425000Y-52376601D01*
X139425000Y-56384039D02*
X140287562Y-56384039D01*
X140930201Y-55741400D02*
X140930201Y-53743401D01*
X140383401Y-53196601D02*
X139861601Y-53196601D01*
X140287562Y-56384039D02*
X140930201Y-55741400D01*
D34*
%TO.N,/Basic1-2-extension2/1D*%
X138161599Y-67830000D02*
X137494799Y-67163200D01*
X139025000Y-68430000D02*
X138425000Y-67830000D01*
X137494799Y-65857665D02*
X139025000Y-64327464D01*
X139025000Y-64327464D02*
X139025000Y-63900000D01*
X138425000Y-67830000D02*
X138161599Y-67830000D01*
X137494799Y-67163200D02*
X137494799Y-65857665D01*
X139025000Y-68900000D02*
X139025000Y-68430000D01*
%TO.N,/Basic1-2-extension2/1C*%
X138625000Y-68454264D02*
X138625000Y-68900000D01*
X138300736Y-68130000D02*
X138625000Y-68454264D01*
X138037335Y-68130000D02*
X138300736Y-68130000D01*
X137194799Y-67287464D02*
X138037335Y-68130000D01*
X138625000Y-63900000D02*
X138625000Y-64303200D01*
X138625000Y-64303200D02*
X137194799Y-65733401D01*
X137194799Y-65733401D02*
X137194799Y-67287464D01*
%TO.N,/Basic1-2-extension2/1A*%
X139025000Y-66426601D02*
X140488401Y-64963200D01*
X139025000Y-66760000D02*
X139025000Y-66426601D01*
X139149264Y-62930000D02*
X139025000Y-62805736D01*
X139972132Y-62930000D02*
X139149264Y-62930000D01*
X140488401Y-63446269D02*
X139972132Y-62930000D01*
X140488401Y-64963200D02*
X140488401Y-63446269D01*
X139025000Y-62805736D02*
X139025000Y-61760000D01*
%TO.N,/Basic1-2-extension2/1B*%
X138625000Y-66402337D02*
X140155201Y-64872136D01*
X138625000Y-66760000D02*
X138625000Y-66402337D01*
X140155201Y-64872136D02*
X140155201Y-63560201D01*
X139825000Y-63230000D02*
X139025000Y-63230000D01*
X139025000Y-63230000D02*
X138625000Y-62830000D01*
X140155201Y-63560201D02*
X139825000Y-63230000D01*
X138625000Y-62830000D02*
X138625000Y-61760000D01*
%TO.N,/Basic1-2-shorten/1B*%
X149240000Y-58180201D02*
X148812536Y-58180201D01*
X146610000Y-57060632D02*
X146610000Y-57604465D01*
X146610000Y-57604465D02*
X146034264Y-58180201D01*
X146970632Y-56700000D02*
X146610000Y-57060632D01*
X147351571Y-56700000D02*
X146970632Y-56700000D01*
X147401571Y-56650000D02*
X147351571Y-56700000D01*
X146034264Y-58180201D02*
X145740000Y-58180201D01*
X148510000Y-57877665D02*
X148510000Y-56650000D01*
X148812536Y-58180201D02*
X148510000Y-57877665D01*
X148510000Y-56650000D02*
X147401571Y-56650000D01*
%TO.N,/Basic1-2-shorten/1D*%
X152110000Y-59407866D02*
X152110000Y-58082737D01*
X147010000Y-59180201D02*
X147440201Y-59610402D01*
X151907464Y-59610402D02*
X152110000Y-59407866D01*
X147440201Y-59610402D02*
X151907464Y-59610402D01*
X147010000Y-58307301D02*
X147010000Y-59180201D01*
X147537100Y-57780201D02*
X147010000Y-58307301D01*
X152110000Y-58082737D02*
X151807464Y-57780201D01*
X151807464Y-57780201D02*
X151380000Y-57780201D01*
X147880000Y-57780201D02*
X147537100Y-57780201D01*
%TO.N,/Basic1-2-shorten/1A*%
X148836800Y-57780201D02*
X148810000Y-57753401D01*
X147227307Y-56400000D02*
X146846368Y-56400000D01*
X146310000Y-57480201D02*
X146010000Y-57780201D01*
X146010000Y-57780201D02*
X145740000Y-57780201D01*
X147277307Y-56350000D02*
X147227307Y-56400000D01*
X146310000Y-56936368D02*
X146310000Y-57480201D01*
X148810000Y-57753401D02*
X148810000Y-56480201D01*
X148810000Y-56480201D02*
X148679799Y-56350000D01*
X148679799Y-56350000D02*
X147277307Y-56350000D01*
X149240000Y-57780201D02*
X148836800Y-57780201D01*
X146846368Y-56400000D02*
X146310000Y-56936368D01*
%TO.N,/Basic1-2-shorten/1C*%
X151810000Y-59283602D02*
X151783200Y-59310402D01*
X151783200Y-59310402D02*
X147564465Y-59310402D01*
X151783200Y-58180201D02*
X151810000Y-58207001D01*
X151810000Y-58207001D02*
X151810000Y-59283602D01*
X147310000Y-59055937D02*
X147310000Y-58480201D01*
X147610000Y-58180201D02*
X147880000Y-58180201D01*
X151380000Y-58180201D02*
X151783200Y-58180201D01*
X147310000Y-58480201D02*
X147610000Y-58180201D01*
X147564465Y-59310402D02*
X147310000Y-59055937D01*
%TO.N,/1Input3Output/1C*%
X139832515Y-29403199D02*
X139464801Y-29403199D01*
X142537900Y-34269999D02*
X142995000Y-33812899D01*
X141945000Y-30820000D02*
X141249316Y-30820000D01*
X141249316Y-30820000D02*
X139832515Y-29403199D01*
X139395000Y-29333398D02*
X139395000Y-28999999D01*
X142195000Y-34269999D02*
X142537900Y-34269999D01*
X142995000Y-33812899D02*
X142995000Y-31870000D01*
X139464801Y-29403199D02*
X139395000Y-29333398D01*
X142995000Y-31870000D02*
X141945000Y-30820000D01*
%TO.N,/1Input3Output/1D*%
X142525000Y-32469798D02*
X142258200Y-32469798D01*
X142513636Y-33869999D02*
X142695000Y-33688635D01*
X139221601Y-29703199D02*
X138995000Y-29476598D01*
X142695000Y-32639798D02*
X142525000Y-32469798D01*
X142258200Y-32469798D02*
X139491601Y-29703199D01*
X142695000Y-33688635D02*
X142695000Y-32639798D01*
X142195000Y-33869999D02*
X142513636Y-33869999D01*
X139491601Y-29703199D02*
X139221601Y-29703199D01*
X138995000Y-29476598D02*
X138995000Y-28999999D01*
%TO.N,/1Input3Output/1B*%
X141295000Y-35176600D02*
X141295000Y-37706799D01*
X140531800Y-38469999D02*
X139392100Y-38469999D01*
X140388399Y-34269999D02*
X141295000Y-35176600D01*
X141295000Y-37706799D02*
X140531800Y-38469999D01*
X139392100Y-38469999D02*
X138995000Y-38867099D01*
X138995000Y-38867099D02*
X138995000Y-39209999D01*
X140055000Y-34269999D02*
X140388399Y-34269999D01*
%TO.N,/1Input3Output/1A*%
X141195000Y-33203000D02*
X140731798Y-32739798D01*
X137518600Y-32739798D02*
X136388399Y-33869999D01*
X140731798Y-32739798D02*
X137518600Y-32739798D01*
X140528001Y-33869999D02*
X141195000Y-33203000D01*
X136388399Y-33869999D02*
X136055000Y-33869999D01*
X140055000Y-33869999D02*
X140528001Y-33869999D01*
%TO.N,/2Input1Output2ToA/1A*%
X138825000Y-44299999D02*
X138095000Y-44299999D01*
X139225000Y-43899999D02*
X138825000Y-44299999D01*
X139955000Y-43899999D02*
X139225000Y-43899999D01*
%TO.N,/2Input1Output2ToA/1B*%
X137691800Y-43960299D02*
X137691800Y-45430200D01*
X140425000Y-45363400D02*
X140425000Y-44366799D01*
X140358200Y-45430200D02*
X140425000Y-45363400D01*
X140358200Y-44299999D02*
X139955000Y-44299999D01*
X137752100Y-43899999D02*
X137691800Y-43960299D01*
X140425000Y-44366799D02*
X140358200Y-44299999D01*
X137691800Y-45430200D02*
X140358200Y-45430200D01*
X138095000Y-43899999D02*
X137752100Y-43899999D01*
%TO.N,/2Input1Output2ToA/2B*%
X139225000Y-49169999D02*
X139225000Y-48766799D01*
X136225000Y-44299999D02*
X135955000Y-44299999D01*
X139225000Y-48766799D02*
X138558200Y-48099999D01*
X136425000Y-44499999D02*
X136225000Y-44299999D01*
X138558200Y-48099999D02*
X138361599Y-48099999D01*
X136425000Y-45792892D02*
X136425000Y-44499999D01*
X136925000Y-46292892D02*
X136425000Y-45792892D01*
X138361599Y-48099999D02*
X136925000Y-46663400D01*
X136925000Y-46663400D02*
X136925000Y-46292892D01*
%TO.N,/2Input1Output2ToA/2A*%
X138825000Y-48836600D02*
X138755199Y-48766799D01*
X136937335Y-47099999D02*
X136025000Y-47099999D01*
X136025000Y-47099999D02*
X135505000Y-46579999D01*
X138604135Y-48766799D02*
X136937335Y-47099999D01*
X135505000Y-44007099D02*
X135612100Y-43899999D01*
X135505000Y-46579999D02*
X135505000Y-44007099D01*
X138755199Y-48766799D02*
X138604135Y-48766799D01*
X138825000Y-49169999D02*
X138825000Y-48836600D01*
X135612100Y-43899999D02*
X135955000Y-43899999D01*
%TD*%
%TA.AperFunction,Conductor*%
%TO.N,GND*%
G36*
X182043039Y-57719685D02*
G01*
X182088794Y-57772489D01*
X182100000Y-57824000D01*
X182100000Y-63648638D01*
X182080315Y-63715677D01*
X182063681Y-63736319D01*
X180136319Y-65663681D01*
X180074996Y-65697166D01*
X180048638Y-65700000D01*
X176151362Y-65700000D01*
X176084323Y-65680315D01*
X176063681Y-65663681D01*
X174136319Y-63736319D01*
X174102834Y-63674996D01*
X174100000Y-63648638D01*
X174100000Y-62128244D01*
X178722684Y-62128244D01*
X178722684Y-62128251D01*
X178742879Y-62307497D01*
X178742881Y-62307505D01*
X178777170Y-62405498D01*
X178781745Y-62422260D01*
X178806589Y-62547155D01*
X178806592Y-62547165D01*
X178863163Y-62683740D01*
X178896061Y-62732975D01*
X178896062Y-62732978D01*
X178945295Y-62806662D01*
X178945301Y-62806669D01*
X179846692Y-63708059D01*
X179869356Y-63744128D01*
X179871188Y-63743246D01*
X179874207Y-63749515D01*
X179970184Y-63902261D01*
X180097738Y-64029815D01*
X180250478Y-64125788D01*
X180420745Y-64185367D01*
X180420750Y-64185368D01*
X180599996Y-64205564D01*
X180600000Y-64205564D01*
X180600004Y-64205564D01*
X180779249Y-64185368D01*
X180779252Y-64185367D01*
X180779255Y-64185367D01*
X180949522Y-64125788D01*
X181102262Y-64029815D01*
X181229816Y-63902261D01*
X181325789Y-63749521D01*
X181385368Y-63579254D01*
X181405565Y-63399999D01*
X181385368Y-63220744D01*
X181325789Y-63050477D01*
X181229816Y-62897737D01*
X181102262Y-62770183D01*
X180949522Y-62674210D01*
X180949516Y-62674206D01*
X180943247Y-62671187D01*
X180944129Y-62669355D01*
X180908060Y-62646691D01*
X180357409Y-62096040D01*
X180323924Y-62034717D01*
X180321870Y-62022241D01*
X180313618Y-61948998D01*
X180313617Y-61948993D01*
X180254037Y-61778724D01*
X180158064Y-61625985D01*
X180030511Y-61498432D01*
X179877772Y-61402459D01*
X179707503Y-61342879D01*
X179707498Y-61342878D01*
X179528253Y-61322683D01*
X179528245Y-61322683D01*
X179348999Y-61342878D01*
X179348994Y-61342879D01*
X179178725Y-61402459D01*
X179025986Y-61498432D01*
X178898433Y-61625985D01*
X178802460Y-61778724D01*
X178742880Y-61948993D01*
X178742879Y-61948998D01*
X178722684Y-62128244D01*
X174100000Y-62128244D01*
X174100000Y-57824000D01*
X174119685Y-57756961D01*
X174172489Y-57711206D01*
X174224000Y-57700000D01*
X181976000Y-57700000D01*
X182043039Y-57719685D01*
G37*
%TD.AperFunction*%
%TD*%
%TA.AperFunction,Conductor*%
%TO.N,GND*%
G36*
X161115677Y-43719685D02*
G01*
X161136319Y-43736319D01*
X162063681Y-44663681D01*
X162097166Y-44725004D01*
X162100000Y-44751362D01*
X162100000Y-48648638D01*
X162080315Y-48715677D01*
X162063681Y-48736319D01*
X161136319Y-49663681D01*
X161074996Y-49697166D01*
X161048638Y-49700000D01*
X155151362Y-49700000D01*
X155084323Y-49680315D01*
X155063681Y-49663681D01*
X154136319Y-48736319D01*
X154102834Y-48674996D01*
X154100000Y-48648638D01*
X154100000Y-46699996D01*
X155494435Y-46699996D01*
X155494435Y-46700003D01*
X155514630Y-46879249D01*
X155514631Y-46879254D01*
X155574211Y-47049523D01*
X155605926Y-47099996D01*
X155670184Y-47202262D01*
X155797738Y-47329816D01*
X155950478Y-47425789D01*
X156120745Y-47485368D01*
X156207669Y-47495161D01*
X156272080Y-47522226D01*
X156281465Y-47530700D01*
X156615139Y-47864374D01*
X156615149Y-47864385D01*
X156619479Y-47868715D01*
X156619480Y-47868716D01*
X156731284Y-47980520D01*
X156818095Y-48030639D01*
X156818097Y-48030641D01*
X156856151Y-48052611D01*
X156868215Y-48059577D01*
X157020943Y-48100501D01*
X157020946Y-48100501D01*
X157186653Y-48100501D01*
X157186669Y-48100500D01*
X159813331Y-48100500D01*
X159813347Y-48100501D01*
X159820943Y-48100501D01*
X159979054Y-48100501D01*
X159979057Y-48100501D01*
X160131785Y-48059577D01*
X160181904Y-48030639D01*
X160268716Y-47980520D01*
X160318534Y-47930700D01*
X160379857Y-47897215D01*
X160392313Y-47895163D01*
X160479255Y-47885368D01*
X160649522Y-47825789D01*
X160802262Y-47729816D01*
X160929816Y-47602262D01*
X161025789Y-47449522D01*
X161085368Y-47279255D01*
X161105565Y-47100000D01*
X161085368Y-46920745D01*
X161025789Y-46750478D01*
X161025788Y-46750475D01*
X160972691Y-46665973D01*
X160953690Y-46598736D01*
X160972691Y-46534027D01*
X161025788Y-46449524D01*
X161060446Y-46350478D01*
X161085368Y-46279255D01*
X161085377Y-46279178D01*
X161105565Y-46100003D01*
X161105565Y-46099996D01*
X161084589Y-45913825D01*
X161087708Y-45913473D01*
X161091129Y-45857553D01*
X161120070Y-45812007D01*
X161164817Y-45767261D01*
X161205932Y-45701824D01*
X161207778Y-45698978D01*
X161244395Y-45644178D01*
X161244721Y-45643389D01*
X161254288Y-45624867D01*
X161260790Y-45614521D01*
X161282024Y-45553836D01*
X161284485Y-45547388D01*
X161304738Y-45498496D01*
X161307449Y-45484861D01*
X161312024Y-45468099D01*
X161320369Y-45444254D01*
X161326111Y-45393282D01*
X161327708Y-45383016D01*
X161335501Y-45343841D01*
X161335501Y-45316913D01*
X161336281Y-45303028D01*
X161340566Y-45265000D01*
X161340566Y-45264997D01*
X161336281Y-45226968D01*
X161335501Y-45213084D01*
X161335501Y-45186156D01*
X161327712Y-45147002D01*
X161326111Y-45136713D01*
X161320369Y-45085744D01*
X161312024Y-45061897D01*
X161307450Y-45045138D01*
X161304738Y-45031502D01*
X161284485Y-44982606D01*
X161282029Y-44976174D01*
X161260790Y-44915477D01*
X161254290Y-44905133D01*
X161244720Y-44886605D01*
X161244395Y-44885820D01*
X161207791Y-44831039D01*
X161205906Y-44828130D01*
X161164816Y-44762736D01*
X161037261Y-44635181D01*
X161037258Y-44635179D01*
X160971901Y-44594113D01*
X160968983Y-44592222D01*
X160914180Y-44555604D01*
X160914174Y-44555602D01*
X160913366Y-44555267D01*
X160894866Y-44545708D01*
X160884525Y-44539211D01*
X160884524Y-44539210D01*
X160884523Y-44539210D01*
X160823868Y-44517985D01*
X160817378Y-44515508D01*
X160768497Y-44495261D01*
X160754861Y-44492549D01*
X160738105Y-44487975D01*
X160714261Y-44479632D01*
X160714257Y-44479631D01*
X160714256Y-44479631D01*
X160693576Y-44477300D01*
X160663304Y-44473889D01*
X160653004Y-44472287D01*
X160613845Y-44464499D01*
X160613843Y-44464499D01*
X160586916Y-44464499D01*
X160573032Y-44463719D01*
X160535003Y-44459434D01*
X160534999Y-44459434D01*
X160496970Y-44463719D01*
X160483086Y-44464499D01*
X160066205Y-44464499D01*
X159911560Y-44495260D01*
X159911548Y-44495263D01*
X159868883Y-44512935D01*
X159868884Y-44512936D01*
X159765874Y-44555603D01*
X159765865Y-44555608D01*
X159634763Y-44643208D01*
X159634761Y-44643211D01*
X159264791Y-45013181D01*
X159203468Y-45046666D01*
X159177110Y-45049500D01*
X158071154Y-45049500D01*
X157916507Y-45080261D01*
X157916497Y-45080264D01*
X157770826Y-45140602D01*
X157770813Y-45140609D01*
X157639710Y-45228210D01*
X157639706Y-45228213D01*
X157597739Y-45270182D01*
X157597738Y-45270183D01*
X157470186Y-45397734D01*
X157470180Y-45397741D01*
X157429092Y-45463131D01*
X157427204Y-45466046D01*
X157390604Y-45520823D01*
X157390600Y-45520831D01*
X157390266Y-45521638D01*
X157380713Y-45540126D01*
X157374212Y-45550473D01*
X157374210Y-45550476D01*
X157352982Y-45611139D01*
X157350504Y-45617630D01*
X157330264Y-45666495D01*
X157330263Y-45666501D01*
X157327550Y-45680139D01*
X157322975Y-45696897D01*
X157314634Y-45720734D01*
X157314632Y-45720741D01*
X157308890Y-45771695D01*
X157307288Y-45781993D01*
X157299500Y-45821151D01*
X157299500Y-45848084D01*
X157298720Y-45861968D01*
X157294435Y-45899997D01*
X157294435Y-45900000D01*
X157298720Y-45938028D01*
X157299500Y-45951913D01*
X157299500Y-45978843D01*
X157307288Y-46018002D01*
X157308890Y-46028302D01*
X157314632Y-46079251D01*
X157314633Y-46079259D01*
X157322976Y-46103103D01*
X157327550Y-46119859D01*
X157330262Y-46133495D01*
X157350509Y-46182376D01*
X157352988Y-46188871D01*
X157376511Y-46256093D01*
X157374367Y-46256842D01*
X157383960Y-46315161D01*
X157375611Y-46343591D01*
X157376510Y-46343906D01*
X157317040Y-46513858D01*
X157276318Y-46570634D01*
X157211365Y-46596381D01*
X157142804Y-46582924D01*
X157092401Y-46534537D01*
X157082960Y-46513864D01*
X157025789Y-46350478D01*
X156929816Y-46197738D01*
X156802262Y-46070184D01*
X156649523Y-45974211D01*
X156479254Y-45914631D01*
X156479249Y-45914630D01*
X156300004Y-45894435D01*
X156299996Y-45894435D01*
X156120750Y-45914630D01*
X156120745Y-45914631D01*
X155950476Y-45974211D01*
X155797737Y-46070184D01*
X155670184Y-46197737D01*
X155574211Y-46350476D01*
X155514631Y-46520745D01*
X155514630Y-46520750D01*
X155494435Y-46699996D01*
X154100000Y-46699996D01*
X154100000Y-44751362D01*
X154119685Y-44684323D01*
X154136319Y-44663681D01*
X155063681Y-43736319D01*
X155125004Y-43702834D01*
X155151362Y-43700000D01*
X161048638Y-43700000D01*
X161115677Y-43719685D01*
G37*
%TD.AperFunction*%
%TD*%
M02*
