%TF.GenerationSoftware,KiCad,Pcbnew,8.0.6*%
%TF.CreationDate,2025-04-05T16:49:48+11:00*%
%TF.ProjectId,ConnectorsTesting,436f6e6e-6563-4746-9f72-735465737469,rev?*%
%TF.SameCoordinates,Original*%
%TF.FileFunction,Copper,L1,Top*%
%TF.FilePolarity,Positive*%
%FSLAX46Y46*%
G04 Gerber Fmt 4.6, Leading zero omitted, Abs format (unit mm)*
G04 Created by KiCad (PCBNEW 8.0.6) date 2025-04-05 16:49:48*
%MOMM*%
%LPD*%
G01*
G04 APERTURE LIST*
%TA.AperFunction,ViaPad*%
%ADD10C,0.600000*%
%TD*%
%TA.AperFunction,Conductor*%
%ADD11C,0.500000*%
%TD*%
%TA.AperFunction,Conductor*%
%ADD12C,0.400000*%
%TD*%
%TA.AperFunction,Conductor*%
%ADD13C,0.600000*%
%TD*%
%TA.AperFunction,Conductor*%
%ADD14C,0.250000*%
%TD*%
%TA.AperFunction,Conductor*%
%ADD15C,0.200000*%
%TD*%
G04 APERTURE END LIST*
D10*
%TO.N,5V*%
X42800000Y-26000000D03*
%TO.N,GND*%
X47500000Y-63000000D03*
%TO.N,5V*%
X37000000Y-30700000D03*
X39100000Y-32600000D03*
%TO.N,GND*%
X36750000Y-32800000D03*
%TO.N,5V*%
X34596446Y-22796446D03*
X35500000Y-24000000D03*
%TO.N,GND*%
X30700000Y-26000000D03*
X37900000Y-25300000D03*
X34600000Y-25800000D03*
%TO.N,5V*%
X24900000Y-29400000D03*
X24900000Y-30400000D03*
%TO.N,GND*%
X27285413Y-33900001D03*
X23425000Y-34200000D03*
%TO.N,5V*%
X24486961Y-40013039D03*
X26633200Y-41290686D03*
X27800000Y-40150000D03*
X27246446Y-53453554D03*
%TO.N,GND*%
X26400000Y-43400000D03*
X45600001Y-50246602D03*
X22828554Y-58321446D03*
X22350000Y-45000000D03*
X36800001Y-60699999D03*
X25000000Y-26650000D03*
X23850000Y-27700000D03*
X44029999Y-30369999D03*
X47600000Y-40599999D03*
X45000000Y-39000000D03*
X32700000Y-36600000D03*
X47450000Y-49950000D03*
X32550000Y-34500000D03*
X37000000Y-42800001D03*
X35784314Y-59584314D03*
X23550000Y-56900000D03*
X25000000Y-32800001D03*
X47430000Y-25769999D03*
X34070000Y-44150000D03*
X46300000Y-59800000D03*
X47430000Y-30669999D03*
X22100000Y-35100000D03*
X41830000Y-31543195D03*
X22500000Y-60900000D03*
X37500000Y-34400000D03*
X47600000Y-58100000D03*
X32250000Y-44500000D03*
X24647183Y-43752817D03*
X43364999Y-40435000D03*
X22553554Y-53603554D03*
X22600000Y-51200000D03*
X27400000Y-57200000D03*
X28070000Y-44270000D03*
%TO.N,5V*%
X35800001Y-35644370D03*
X37400000Y-44700000D03*
X34800000Y-56200000D03*
X35000000Y-41199999D03*
X25000000Y-24199999D03*
X21350000Y-53100000D03*
X26600000Y-55000000D03*
X23050000Y-54750000D03*
X32600000Y-31000000D03*
X27200000Y-22500000D03*
X42080000Y-24420000D03*
X27400000Y-60000000D03*
X36000000Y-58200000D03*
X46600000Y-40428248D03*
X28500000Y-34500000D03*
X42900000Y-60100000D03*
X42750000Y-50296601D03*
X28500000Y-29700000D03*
X34800000Y-31000000D03*
X37500000Y-35500000D03*
X47528554Y-42278554D03*
X35000000Y-39600000D03*
X43999999Y-49346600D03*
X44166174Y-58900000D03*
%TO.N,/Basic1-1/1A*%
X27200000Y-24400000D03*
X25000000Y-25000000D03*
%TO.N,/Basic1-1/1B*%
X23200000Y-25000000D03*
X27200000Y-25400000D03*
%TD*%
D11*
%TO.N,5V*%
X24486961Y-40013039D02*
X27663039Y-40013039D01*
X27663039Y-40013039D02*
X27800000Y-40150000D01*
D12*
X26800000Y-55200000D02*
X26800000Y-59400000D01*
X26600000Y-55000000D02*
X26600000Y-54100000D01*
X26800000Y-59400000D02*
X27400000Y-60000000D01*
X26600000Y-54100000D02*
X27246446Y-53453554D01*
X26600000Y-55000000D02*
X26800000Y-55200000D01*
D13*
X42800000Y-26000000D02*
X42800000Y-25140000D01*
X42800000Y-25140000D02*
X42080000Y-24420000D01*
D11*
X42900000Y-60100000D02*
X42966174Y-60100000D01*
X42966174Y-60100000D02*
X44166174Y-58900000D01*
D13*
X36000000Y-58200000D02*
X34800000Y-57000000D01*
X34800000Y-57000000D02*
X34800000Y-56200000D01*
%TO.N,GND*%
X33500000Y-56500000D02*
X33500000Y-53500000D01*
X33500000Y-53500000D02*
X34000000Y-53000000D01*
X29000000Y-53000000D02*
X38500000Y-53000000D01*
X38500000Y-53000000D02*
X39000000Y-52500000D01*
%TO.N,5V*%
X37400000Y-44700000D02*
X35000000Y-42300000D01*
X35000000Y-42300000D02*
X35000000Y-41199999D01*
D12*
X34800000Y-31000000D02*
X32600000Y-31000000D01*
D13*
%TO.N,GND*%
X39000000Y-36300000D02*
X41000000Y-36300000D01*
D12*
%TO.N,5V*%
X38900000Y-32600000D02*
X37000000Y-30700000D01*
X39100000Y-32600000D02*
X38900000Y-32600000D01*
X36750000Y-35250000D02*
X36250000Y-35750000D01*
D11*
X35500000Y-23700000D02*
X34596446Y-22796446D01*
X35500000Y-24000000D02*
X35500000Y-23700000D01*
D13*
%TO.N,GND*%
X37900000Y-25300000D02*
X38200000Y-25000000D01*
X38200000Y-25000000D02*
X41000000Y-25000000D01*
X29000000Y-26000000D02*
X30700000Y-26000000D01*
X30700000Y-26000000D02*
X31000000Y-26000000D01*
D12*
%TO.N,5V*%
X24900000Y-30400000D02*
X24900000Y-29400000D01*
D14*
X26633200Y-41290686D02*
X26659314Y-41290686D01*
X26659314Y-41290686D02*
X27800000Y-40150000D01*
D13*
X23050000Y-54750000D02*
X22710050Y-54750000D01*
X22710050Y-54750000D02*
X21350000Y-53389950D01*
X21350000Y-53389950D02*
X21350000Y-53100000D01*
%TO.N,GND*%
X44000000Y-36000000D02*
X44000000Y-34000000D01*
X43000000Y-46500000D02*
X43000000Y-43000000D01*
X29000000Y-59500000D02*
X31000000Y-59500000D01*
X41000000Y-58000000D02*
X43000000Y-58000000D01*
X41500000Y-40000000D02*
X38500000Y-43000000D01*
X22500000Y-29500000D02*
X22500000Y-27500000D01*
X28850000Y-45650000D02*
X31150000Y-45650000D01*
X36500000Y-30000000D02*
X36500000Y-27000000D01*
X33500000Y-39500000D02*
X33500000Y-37500000D01*
X23500000Y-40000000D02*
X23500000Y-38000000D01*
X39000000Y-52500000D02*
X42000000Y-52500000D01*
X29000000Y-35500000D02*
X31000000Y-35500000D01*
D12*
%TO.N,5V*%
X37500000Y-35500000D02*
X37000000Y-35500000D01*
D13*
X27200000Y-22500000D02*
X27200000Y-23410050D01*
D12*
X35800001Y-35644370D02*
X35905631Y-35750000D01*
D13*
X25049999Y-24150000D02*
X25000000Y-24199999D01*
D12*
X28750000Y-29950000D02*
X28750000Y-34250000D01*
D11*
X46600000Y-41350000D02*
X47528554Y-42278554D01*
D13*
X35000000Y-41199999D02*
X35000000Y-39600000D01*
D12*
X36750000Y-35750000D02*
X36250000Y-35750000D01*
X28750000Y-34250000D02*
X28500000Y-34500000D01*
D13*
X42080000Y-24420000D02*
X42080001Y-24420000D01*
D12*
X28500000Y-29700000D02*
X28750000Y-29950000D01*
D11*
X46600000Y-40428248D02*
X46600000Y-41350000D01*
X43700001Y-49346600D02*
X42750000Y-50296601D01*
X43999999Y-49346600D02*
X43700001Y-49346600D01*
D12*
X35905631Y-35750000D02*
X36250000Y-35750000D01*
X37000000Y-35500000D02*
X36750000Y-35750000D01*
D13*
X26460050Y-24150000D02*
X25049999Y-24150000D01*
X27200000Y-23410050D02*
X26460050Y-24150000D01*
D15*
%TO.N,/Basic1-1/1A*%
X25000000Y-25000000D02*
X26600000Y-25000000D01*
X26600000Y-25000000D02*
X27200000Y-24400000D01*
%TO.N,/Basic1-1/1B*%
X23200000Y-25000000D02*
X24000000Y-25800000D01*
X24000000Y-25800000D02*
X26800000Y-25800000D01*
X26800000Y-25800000D02*
X27200000Y-25400000D01*
%TD*%
%TA.AperFunction,Conductor*%
%TO.N,GND*%
G36*
X27015677Y-50019685D02*
G01*
X27036319Y-50036319D01*
X28963681Y-51963681D01*
X28997166Y-52025004D01*
X29000000Y-52051362D01*
X29000000Y-59948638D01*
X28980315Y-60015677D01*
X28963681Y-60036319D01*
X27036319Y-61963681D01*
X26974996Y-61997166D01*
X26948638Y-62000000D01*
X22051362Y-62000000D01*
X21984323Y-61980315D01*
X21963681Y-61963681D01*
X21036319Y-61036319D01*
X21002834Y-60974996D01*
X21000000Y-60948638D01*
X21000000Y-54471390D01*
X21019685Y-54404351D01*
X21072489Y-54358596D01*
X21141647Y-54348652D01*
X21205203Y-54377677D01*
X21211681Y-54383709D01*
X22088261Y-55260289D01*
X22177494Y-55349522D01*
X22199762Y-55371790D01*
X22330864Y-55459390D01*
X22330877Y-55459397D01*
X22434364Y-55502262D01*
X22476553Y-55519737D01*
X22476557Y-55519737D01*
X22476558Y-55519738D01*
X22631204Y-55550500D01*
X22631207Y-55550500D01*
X22631208Y-55550500D01*
X22998085Y-55550500D01*
X23011969Y-55551280D01*
X23049998Y-55555565D01*
X23050000Y-55555565D01*
X23050002Y-55555565D01*
X23088031Y-55551280D01*
X23101915Y-55550500D01*
X23128841Y-55550500D01*
X23128842Y-55550500D01*
X23168017Y-55542707D01*
X23178283Y-55541110D01*
X23229255Y-55535368D01*
X23253100Y-55527023D01*
X23269862Y-55522448D01*
X23283497Y-55519737D01*
X23332389Y-55499484D01*
X23338837Y-55497023D01*
X23399522Y-55475789D01*
X23409868Y-55469287D01*
X23428390Y-55459720D01*
X23429179Y-55459394D01*
X23483987Y-55422771D01*
X23486825Y-55420931D01*
X23552262Y-55379816D01*
X23679816Y-55252262D01*
X23720931Y-55186825D01*
X23722777Y-55183979D01*
X23725938Y-55179249D01*
X23759394Y-55129179D01*
X23759720Y-55128390D01*
X23769287Y-55109868D01*
X23775789Y-55099522D01*
X23797023Y-55038837D01*
X23799484Y-55032389D01*
X23812902Y-54999996D01*
X25794435Y-54999996D01*
X25794435Y-55000003D01*
X25814630Y-55179249D01*
X25814631Y-55179254D01*
X25874211Y-55349523D01*
X25970184Y-55502262D01*
X26063181Y-55595259D01*
X26096666Y-55656582D01*
X26099500Y-55682940D01*
X26099500Y-59331006D01*
X26099500Y-59468994D01*
X26099500Y-59468996D01*
X26099499Y-59468996D01*
X26126418Y-59604322D01*
X26126421Y-59604332D01*
X26179222Y-59731807D01*
X26255887Y-59846545D01*
X26255888Y-59846546D01*
X26608630Y-60199287D01*
X26637990Y-60246013D01*
X26674209Y-60349519D01*
X26674211Y-60349522D01*
X26770184Y-60502262D01*
X26897738Y-60629816D01*
X27050478Y-60725789D01*
X27220745Y-60785368D01*
X27220750Y-60785369D01*
X27399996Y-60805565D01*
X27400000Y-60805565D01*
X27400004Y-60805565D01*
X27579249Y-60785369D01*
X27579252Y-60785368D01*
X27579255Y-60785368D01*
X27749522Y-60725789D01*
X27902262Y-60629816D01*
X28029816Y-60502262D01*
X28125789Y-60349522D01*
X28185368Y-60179255D01*
X28205565Y-60000000D01*
X28185368Y-59820745D01*
X28125789Y-59650478D01*
X28029816Y-59497738D01*
X27902262Y-59370184D01*
X27749522Y-59274211D01*
X27749519Y-59274209D01*
X27646013Y-59237990D01*
X27599287Y-59208630D01*
X27536819Y-59146162D01*
X27503334Y-59084839D01*
X27500500Y-59058481D01*
X27500500Y-55131007D01*
X27500136Y-55129180D01*
X27500131Y-55129154D01*
X27473581Y-54995678D01*
X27473580Y-54995672D01*
X27455941Y-54953087D01*
X27420778Y-54868195D01*
X27420770Y-54868181D01*
X27390036Y-54822185D01*
X27376097Y-54794251D01*
X27325789Y-54650478D01*
X27319506Y-54640478D01*
X27300500Y-54574507D01*
X27300500Y-54441519D01*
X27320185Y-54374480D01*
X27336814Y-54353842D01*
X27445737Y-54244919D01*
X27492462Y-54215560D01*
X27595968Y-54179343D01*
X27748708Y-54083370D01*
X27876262Y-53955816D01*
X27972235Y-53803076D01*
X28031814Y-53632809D01*
X28052011Y-53453554D01*
X28035961Y-53311108D01*
X28031815Y-53274304D01*
X28031814Y-53274299D01*
X27972234Y-53104030D01*
X27892342Y-52976883D01*
X27876262Y-52951292D01*
X27748708Y-52823738D01*
X27728639Y-52811128D01*
X27595969Y-52727765D01*
X27425700Y-52668185D01*
X27425695Y-52668184D01*
X27246450Y-52647989D01*
X27246442Y-52647989D01*
X27067196Y-52668184D01*
X27067191Y-52668185D01*
X26896922Y-52727765D01*
X26744183Y-52823738D01*
X26616630Y-52951291D01*
X26520658Y-53104029D01*
X26520657Y-53104030D01*
X26484438Y-53207538D01*
X26455078Y-53254263D01*
X26055887Y-53653454D01*
X25979222Y-53768192D01*
X25926421Y-53895667D01*
X25926418Y-53895679D01*
X25909594Y-53980262D01*
X25907093Y-53992837D01*
X25905074Y-54002988D01*
X25899500Y-54031006D01*
X25899500Y-54574507D01*
X25880494Y-54640478D01*
X25874209Y-54650479D01*
X25814633Y-54820737D01*
X25814630Y-54820750D01*
X25794435Y-54999996D01*
X23812902Y-54999996D01*
X23819737Y-54983497D01*
X23822448Y-54969862D01*
X23827023Y-54953100D01*
X23835368Y-54929255D01*
X23841110Y-54878283D01*
X23842707Y-54868017D01*
X23850500Y-54828842D01*
X23850500Y-54801914D01*
X23851280Y-54788029D01*
X23855565Y-54750001D01*
X23855565Y-54749998D01*
X23851280Y-54711969D01*
X23850500Y-54698085D01*
X23850500Y-54671157D01*
X23848109Y-54659140D01*
X23842709Y-54631992D01*
X23841110Y-54621714D01*
X23835368Y-54570745D01*
X23827023Y-54546898D01*
X23822449Y-54530139D01*
X23819737Y-54516503D01*
X23799484Y-54467607D01*
X23797028Y-54461175D01*
X23775789Y-54400478D01*
X23769289Y-54390134D01*
X23759719Y-54371606D01*
X23759394Y-54370821D01*
X23722790Y-54316040D01*
X23720905Y-54313131D01*
X23679815Y-54247737D01*
X23552260Y-54120182D01*
X23552257Y-54120180D01*
X23486900Y-54079114D01*
X23483982Y-54077223D01*
X23429179Y-54040605D01*
X23429173Y-54040603D01*
X23428365Y-54040268D01*
X23409865Y-54030709D01*
X23399524Y-54024212D01*
X23399523Y-54024211D01*
X23399522Y-54024211D01*
X23338867Y-54002986D01*
X23332377Y-54000509D01*
X23283496Y-53980262D01*
X23269860Y-53977550D01*
X23253104Y-53972976D01*
X23229260Y-53964633D01*
X23229256Y-53964632D01*
X23229255Y-53964632D01*
X23208575Y-53962301D01*
X23178303Y-53958890D01*
X23168003Y-53957288D01*
X23128844Y-53949500D01*
X23128842Y-53949500D01*
X23101915Y-53949500D01*
X23088024Y-53948719D01*
X23077965Y-53947585D01*
X23013553Y-53920515D01*
X23004175Y-53912047D01*
X22185939Y-53093811D01*
X22152454Y-53032488D01*
X22151314Y-53025252D01*
X22142711Y-52982003D01*
X22141110Y-52971714D01*
X22135368Y-52920745D01*
X22127023Y-52896898D01*
X22122449Y-52880139D01*
X22119737Y-52866503D01*
X22099484Y-52817607D01*
X22097028Y-52811175D01*
X22075789Y-52750478D01*
X22069289Y-52740134D01*
X22059719Y-52721606D01*
X22059394Y-52720821D01*
X22022790Y-52666040D01*
X22020905Y-52663131D01*
X21979815Y-52597737D01*
X21852260Y-52470182D01*
X21852257Y-52470180D01*
X21786900Y-52429114D01*
X21783982Y-52427223D01*
X21729179Y-52390605D01*
X21729173Y-52390603D01*
X21728365Y-52390268D01*
X21709865Y-52380709D01*
X21699524Y-52374212D01*
X21699523Y-52374211D01*
X21699522Y-52374211D01*
X21638867Y-52352986D01*
X21632377Y-52350509D01*
X21583496Y-52330262D01*
X21569860Y-52327550D01*
X21553104Y-52322976D01*
X21529260Y-52314633D01*
X21529256Y-52314632D01*
X21529255Y-52314632D01*
X21508575Y-52312301D01*
X21478303Y-52308890D01*
X21468003Y-52307288D01*
X21428844Y-52299500D01*
X21428842Y-52299500D01*
X21401915Y-52299500D01*
X21388031Y-52298720D01*
X21350002Y-52294435D01*
X21349998Y-52294435D01*
X21311969Y-52298720D01*
X21298085Y-52299500D01*
X21271152Y-52299500D01*
X21231994Y-52307288D01*
X21221696Y-52308890D01*
X21170743Y-52314632D01*
X21164952Y-52316659D01*
X21095173Y-52320219D01*
X21034546Y-52285488D01*
X21002321Y-52223494D01*
X21000000Y-52199616D01*
X21000000Y-51051362D01*
X21019685Y-50984323D01*
X21036319Y-50963681D01*
X21963681Y-50036319D01*
X22025004Y-50002834D01*
X22051362Y-50000000D01*
X26948638Y-50000000D01*
X27015677Y-50019685D01*
G37*
%TD.AperFunction*%
%TD*%
%TA.AperFunction,Conductor*%
%TO.N,GND*%
G36*
X23636152Y-40019685D02*
G01*
X23681907Y-40072489D01*
X23692333Y-40110116D01*
X23701591Y-40192289D01*
X23701592Y-40192293D01*
X23761172Y-40362562D01*
X23847230Y-40499522D01*
X23857145Y-40515301D01*
X23984699Y-40642855D01*
X24137439Y-40738828D01*
X24279176Y-40788424D01*
X24307706Y-40798407D01*
X24307711Y-40798408D01*
X24486957Y-40818604D01*
X24486961Y-40818604D01*
X24486965Y-40818604D01*
X24666210Y-40798408D01*
X24666213Y-40798407D01*
X24666216Y-40798407D01*
X24745978Y-40770496D01*
X24786933Y-40763539D01*
X25795605Y-40763539D01*
X25862644Y-40783224D01*
X25908399Y-40836028D01*
X25918343Y-40905186D01*
X25909413Y-40934486D01*
X25909711Y-40934591D01*
X25847831Y-41111431D01*
X25847830Y-41111436D01*
X25827635Y-41290682D01*
X25827635Y-41290689D01*
X25847830Y-41469935D01*
X25847831Y-41469940D01*
X25907411Y-41640209D01*
X26003384Y-41792948D01*
X26130938Y-41920502D01*
X26283678Y-42016475D01*
X26453945Y-42076054D01*
X26453950Y-42076055D01*
X26633196Y-42096251D01*
X26633200Y-42096251D01*
X26633204Y-42096251D01*
X26812449Y-42076055D01*
X26812452Y-42076054D01*
X26812455Y-42076054D01*
X26982722Y-42016475D01*
X27135462Y-41920502D01*
X27263016Y-41792948D01*
X27358989Y-41640208D01*
X27418568Y-41469941D01*
X27420556Y-41452294D01*
X27447619Y-41387881D01*
X27456085Y-41378503D01*
X27858380Y-40976209D01*
X27919701Y-40942726D01*
X27932158Y-40940674D01*
X27979255Y-40935368D01*
X28149522Y-40875789D01*
X28302262Y-40779816D01*
X28429816Y-40652262D01*
X28525789Y-40499522D01*
X28585368Y-40329255D01*
X28600800Y-40192293D01*
X28605565Y-40150003D01*
X28605565Y-40149998D01*
X28604200Y-40137885D01*
X28616254Y-40069063D01*
X28663603Y-40017683D01*
X28727420Y-40000000D01*
X28876000Y-40000000D01*
X28943039Y-40019685D01*
X28988794Y-40072489D01*
X29000000Y-40124000D01*
X29000000Y-45948638D01*
X28980315Y-46015677D01*
X28963681Y-46036319D01*
X27036319Y-47963681D01*
X26974996Y-47997166D01*
X26948638Y-48000000D01*
X23051362Y-48000000D01*
X22984323Y-47980315D01*
X22963681Y-47963681D01*
X21036319Y-46036319D01*
X21002834Y-45974996D01*
X21000000Y-45948638D01*
X21000000Y-40124000D01*
X21019685Y-40056961D01*
X21072489Y-40011206D01*
X21124000Y-40000000D01*
X23569113Y-40000000D01*
X23636152Y-40019685D01*
G37*
%TD.AperFunction*%
%TD*%
%TA.AperFunction,Conductor*%
%TO.N,GND*%
G36*
X47943039Y-46019685D02*
G01*
X47988794Y-46072489D01*
X48000000Y-46124000D01*
X48000000Y-53876000D01*
X47980315Y-53943039D01*
X47927511Y-53988794D01*
X47876000Y-54000000D01*
X42124000Y-54000000D01*
X42056961Y-53980315D01*
X42011206Y-53927511D01*
X42000000Y-53876000D01*
X42000000Y-50978041D01*
X42019685Y-50911002D01*
X42072489Y-50865247D01*
X42141647Y-50855303D01*
X42205203Y-50884328D01*
X42211681Y-50890360D01*
X42247738Y-50926417D01*
X42400478Y-51022390D01*
X42570745Y-51081969D01*
X42570750Y-51081970D01*
X42749996Y-51102166D01*
X42750000Y-51102166D01*
X42750004Y-51102166D01*
X42929249Y-51081970D01*
X42929252Y-51081969D01*
X42929255Y-51081969D01*
X43099522Y-51022390D01*
X43252262Y-50926417D01*
X43379816Y-50798863D01*
X43475789Y-50646123D01*
X43475792Y-50646111D01*
X43478810Y-50639849D01*
X43480650Y-50640735D01*
X43503305Y-50604662D01*
X43919510Y-50188456D01*
X43980831Y-50154973D01*
X43993306Y-50152919D01*
X43999998Y-50152164D01*
X43999999Y-50152165D01*
X44041382Y-50147502D01*
X44179248Y-50131969D01*
X44179251Y-50131968D01*
X44179254Y-50131968D01*
X44349521Y-50072389D01*
X44502261Y-49976416D01*
X44629815Y-49848862D01*
X44725788Y-49696122D01*
X44785367Y-49525855D01*
X44805564Y-49346600D01*
X44785367Y-49167345D01*
X44725788Y-48997078D01*
X44629815Y-48844338D01*
X44502261Y-48716784D01*
X44446137Y-48681519D01*
X44349522Y-48620811D01*
X44179253Y-48561231D01*
X44179248Y-48561230D01*
X44000003Y-48541035D01*
X43999995Y-48541035D01*
X43820749Y-48561230D01*
X43820744Y-48561231D01*
X43740982Y-48589142D01*
X43700027Y-48596100D01*
X43626081Y-48596100D01*
X43481093Y-48624940D01*
X43481083Y-48624943D01*
X43344512Y-48681512D01*
X43344499Y-48681519D01*
X43221585Y-48763648D01*
X43221581Y-48763651D01*
X42441937Y-49543294D01*
X42405873Y-49565971D01*
X42406750Y-49567792D01*
X42400475Y-49570813D01*
X42247737Y-49666785D01*
X42211681Y-49702842D01*
X42150358Y-49736327D01*
X42080666Y-49731343D01*
X42024733Y-49689471D01*
X42000316Y-49624007D01*
X42000000Y-49615161D01*
X42000000Y-46124000D01*
X42019685Y-46056961D01*
X42072489Y-46011206D01*
X42124000Y-46000000D01*
X47876000Y-46000000D01*
X47943039Y-46019685D01*
G37*
%TD.AperFunction*%
%TD*%
%TA.AperFunction,Conductor*%
%TO.N,GND*%
G36*
X34273205Y-39019685D02*
G01*
X34318960Y-39072489D01*
X34328904Y-39141647D01*
X34309269Y-39192887D01*
X34297230Y-39210907D01*
X34290605Y-39220822D01*
X34290600Y-39220832D01*
X34290266Y-39221639D01*
X34280713Y-39240127D01*
X34274212Y-39250474D01*
X34274210Y-39250477D01*
X34252982Y-39311140D01*
X34250504Y-39317631D01*
X34230264Y-39366496D01*
X34230263Y-39366502D01*
X34227550Y-39380140D01*
X34222975Y-39396898D01*
X34214634Y-39420735D01*
X34214632Y-39420742D01*
X34208890Y-39471696D01*
X34207288Y-39481994D01*
X34199500Y-39521152D01*
X34199500Y-39548085D01*
X34198720Y-39561969D01*
X34194435Y-39599998D01*
X34194435Y-39600001D01*
X34198720Y-39638029D01*
X34199500Y-39651914D01*
X34199500Y-41148084D01*
X34198720Y-41161968D01*
X34194435Y-41199997D01*
X34194435Y-41200000D01*
X34198720Y-41238028D01*
X34199500Y-41251913D01*
X34199500Y-42378846D01*
X34230261Y-42533489D01*
X34230264Y-42533501D01*
X34290602Y-42679172D01*
X34290609Y-42679185D01*
X34378210Y-42810288D01*
X34378213Y-42810292D01*
X35638106Y-44070184D01*
X36770184Y-45202262D01*
X36897738Y-45329816D01*
X36897740Y-45329817D01*
X36963131Y-45370905D01*
X36966040Y-45372790D01*
X37020821Y-45409394D01*
X37021606Y-45409719D01*
X37040134Y-45419289D01*
X37050478Y-45425789D01*
X37111111Y-45447005D01*
X37111114Y-45447006D01*
X37117611Y-45449486D01*
X37166503Y-45469738D01*
X37166510Y-45469739D01*
X37166512Y-45469740D01*
X37180142Y-45472451D01*
X37196907Y-45477026D01*
X37220745Y-45485368D01*
X37271711Y-45491109D01*
X37281998Y-45492710D01*
X37299562Y-45496204D01*
X37321155Y-45500500D01*
X37321158Y-45500500D01*
X37348085Y-45500500D01*
X37361969Y-45501280D01*
X37399998Y-45505565D01*
X37400000Y-45505565D01*
X37400002Y-45505565D01*
X37438031Y-45501280D01*
X37451915Y-45500500D01*
X37478845Y-45500500D01*
X37491003Y-45498080D01*
X37518009Y-45492708D01*
X37528285Y-45491110D01*
X37579255Y-45485368D01*
X37603100Y-45477023D01*
X37619848Y-45472452D01*
X37633498Y-45469738D01*
X37682387Y-45449487D01*
X37688872Y-45447010D01*
X37749522Y-45425789D01*
X37759852Y-45419297D01*
X37778389Y-45409721D01*
X37778401Y-45409716D01*
X37779179Y-45409394D01*
X37833997Y-45372764D01*
X37836859Y-45370910D01*
X37902260Y-45329817D01*
X37902262Y-45329816D01*
X37902266Y-45329812D01*
X37910288Y-45321789D01*
X37910290Y-45321789D01*
X38021789Y-45210290D01*
X38021789Y-45210289D01*
X38028857Y-45203222D01*
X38028861Y-45203216D01*
X38029816Y-45202262D01*
X38070919Y-45136843D01*
X38072764Y-45133997D01*
X38109394Y-45079179D01*
X38109721Y-45078387D01*
X38119298Y-45059851D01*
X38125788Y-45049523D01*
X38125789Y-45049522D01*
X38147010Y-44988872D01*
X38149487Y-44982387D01*
X38169734Y-44933507D01*
X38169738Y-44933498D01*
X38172452Y-44919848D01*
X38177023Y-44903100D01*
X38185368Y-44879255D01*
X38191110Y-44828285D01*
X38192708Y-44818009D01*
X38200500Y-44778843D01*
X38200500Y-44751914D01*
X38201280Y-44738029D01*
X38205565Y-44700001D01*
X38205565Y-44699998D01*
X38201280Y-44661969D01*
X38200500Y-44648085D01*
X38200500Y-44621154D01*
X38192712Y-44582010D01*
X38191109Y-44571711D01*
X38185368Y-44520745D01*
X38177026Y-44496907D01*
X38172451Y-44480142D01*
X38169740Y-44466512D01*
X38169739Y-44466510D01*
X38169738Y-44466503D01*
X38149486Y-44417611D01*
X38147006Y-44411114D01*
X38125789Y-44350479D01*
X38125789Y-44350478D01*
X38119289Y-44340134D01*
X38109719Y-44321606D01*
X38109394Y-44320821D01*
X38072790Y-44266040D01*
X38070905Y-44263131D01*
X38029815Y-44197737D01*
X35836819Y-42004741D01*
X35803334Y-41943418D01*
X35800500Y-41917060D01*
X35800500Y-41251913D01*
X35801280Y-41238028D01*
X35805565Y-41200000D01*
X35805565Y-41199997D01*
X35801280Y-41161968D01*
X35800500Y-41148084D01*
X35800500Y-39651914D01*
X35801280Y-39638029D01*
X35805565Y-39600001D01*
X35805565Y-39599998D01*
X35801280Y-39561969D01*
X35800500Y-39548085D01*
X35800500Y-39521157D01*
X35792711Y-39482003D01*
X35791110Y-39471714D01*
X35785368Y-39420745D01*
X35777023Y-39396898D01*
X35772449Y-39380139D01*
X35769737Y-39366503D01*
X35769734Y-39366496D01*
X35761253Y-39346021D01*
X35749484Y-39317607D01*
X35747028Y-39311175D01*
X35725789Y-39250478D01*
X35719289Y-39240134D01*
X35709719Y-39221606D01*
X35709394Y-39220821D01*
X35690730Y-39192889D01*
X35669854Y-39126213D01*
X35688339Y-39058833D01*
X35740318Y-39012143D01*
X35793834Y-39000000D01*
X38876000Y-39000000D01*
X38943039Y-39019685D01*
X38988794Y-39072489D01*
X39000000Y-39124000D01*
X39000000Y-45948638D01*
X38980315Y-46015677D01*
X38963681Y-46036319D01*
X37036319Y-47963681D01*
X36974996Y-47997166D01*
X36948638Y-48000000D01*
X33051362Y-48000000D01*
X32984323Y-47980315D01*
X32963681Y-47963681D01*
X31036319Y-46036319D01*
X31002834Y-45974996D01*
X31000000Y-45948638D01*
X31000000Y-39124000D01*
X31019685Y-39056961D01*
X31072489Y-39011206D01*
X31124000Y-39000000D01*
X34206166Y-39000000D01*
X34273205Y-39019685D01*
G37*
%TD.AperFunction*%
%TD*%
%TA.AperFunction,Conductor*%
%TO.N,GND*%
G36*
X39015677Y-55019685D02*
G01*
X39036319Y-55036319D01*
X40963681Y-56963681D01*
X40997166Y-57025004D01*
X41000000Y-57051362D01*
X41000000Y-58948638D01*
X40980315Y-59015677D01*
X40963681Y-59036319D01*
X38036319Y-61963681D01*
X37974996Y-61997166D01*
X37948638Y-62000000D01*
X32051362Y-62000000D01*
X31984323Y-61980315D01*
X31963681Y-61963681D01*
X31036319Y-61036319D01*
X31002834Y-60974996D01*
X31000000Y-60948638D01*
X31000000Y-57037544D01*
X31019685Y-56970505D01*
X31020826Y-56968761D01*
X31963189Y-55555217D01*
X32016754Y-55510356D01*
X32066363Y-55500000D01*
X34070386Y-55500000D01*
X34137425Y-55519685D01*
X34183180Y-55572489D01*
X34193124Y-55641647D01*
X34171955Y-55690628D01*
X34173888Y-55691843D01*
X34129092Y-55763132D01*
X34127204Y-55766047D01*
X34090604Y-55820824D01*
X34090600Y-55820832D01*
X34090266Y-55821639D01*
X34080713Y-55840127D01*
X34074212Y-55850474D01*
X34074210Y-55850477D01*
X34052982Y-55911140D01*
X34050504Y-55917631D01*
X34030264Y-55966496D01*
X34030263Y-55966502D01*
X34027550Y-55980140D01*
X34022975Y-55996898D01*
X34014634Y-56020735D01*
X34014632Y-56020742D01*
X34008890Y-56071696D01*
X34007288Y-56081994D01*
X33999500Y-56121152D01*
X33999500Y-56148085D01*
X33998720Y-56161969D01*
X33994435Y-56199998D01*
X33994435Y-56200001D01*
X33998720Y-56238029D01*
X33999500Y-56251914D01*
X33999500Y-57078846D01*
X34030261Y-57233489D01*
X34030264Y-57233501D01*
X34090602Y-57379172D01*
X34090609Y-57379185D01*
X34178210Y-57510288D01*
X34178213Y-57510292D01*
X35365843Y-58697920D01*
X35365853Y-58697931D01*
X35370183Y-58702261D01*
X35370184Y-58702262D01*
X35497738Y-58829816D01*
X35563166Y-58870926D01*
X35566043Y-58872791D01*
X35620815Y-58909389D01*
X35620820Y-58909392D01*
X35620823Y-58909394D01*
X35621603Y-58909717D01*
X35640132Y-58919287D01*
X35650478Y-58925789D01*
X35711160Y-58947022D01*
X35717627Y-58949492D01*
X35766494Y-58969734D01*
X35766498Y-58969735D01*
X35766503Y-58969737D01*
X35780139Y-58972449D01*
X35796898Y-58977023D01*
X35820745Y-58985368D01*
X35871713Y-58991110D01*
X35881991Y-58992709D01*
X35909139Y-58998109D01*
X35921156Y-59000500D01*
X35921157Y-59000500D01*
X35948085Y-59000500D01*
X35961969Y-59001280D01*
X35999998Y-59005565D01*
X36000000Y-59005565D01*
X36000002Y-59005565D01*
X36038031Y-59001280D01*
X36051915Y-59000500D01*
X36078841Y-59000500D01*
X36078842Y-59000500D01*
X36118017Y-58992707D01*
X36128283Y-58991110D01*
X36179255Y-58985368D01*
X36203107Y-58977020D01*
X36219852Y-58972450D01*
X36233497Y-58969737D01*
X36282382Y-58949487D01*
X36288852Y-58947017D01*
X36349522Y-58925789D01*
X36359860Y-58919292D01*
X36378389Y-58909719D01*
X36379179Y-58909393D01*
X36433965Y-58872784D01*
X36436827Y-58870930D01*
X36436878Y-58870898D01*
X36502262Y-58829816D01*
X36629816Y-58702262D01*
X36670939Y-58636811D01*
X36672784Y-58633965D01*
X36709393Y-58579179D01*
X36709719Y-58578389D01*
X36719293Y-58559859D01*
X36725789Y-58549522D01*
X36747017Y-58488852D01*
X36749493Y-58482368D01*
X36769737Y-58433497D01*
X36772450Y-58419852D01*
X36777020Y-58403107D01*
X36785368Y-58379255D01*
X36791110Y-58328283D01*
X36792707Y-58318017D01*
X36800500Y-58278842D01*
X36800500Y-58251914D01*
X36801280Y-58238029D01*
X36805565Y-58200001D01*
X36805565Y-58199998D01*
X36801280Y-58161969D01*
X36800500Y-58148085D01*
X36800500Y-58121156D01*
X36792711Y-58082002D01*
X36791110Y-58071713D01*
X36785368Y-58020745D01*
X36777023Y-57996898D01*
X36772449Y-57980139D01*
X36769737Y-57966503D01*
X36769735Y-57966498D01*
X36769734Y-57966494D01*
X36749492Y-57917627D01*
X36747022Y-57911160D01*
X36725789Y-57850478D01*
X36719287Y-57840132D01*
X36709717Y-57821603D01*
X36709394Y-57820823D01*
X36709392Y-57820820D01*
X36672791Y-57766043D01*
X36670926Y-57763166D01*
X36629816Y-57697738D01*
X36502262Y-57570184D01*
X36502261Y-57570183D01*
X36497931Y-57565853D01*
X36497920Y-57565843D01*
X35636819Y-56704741D01*
X35603334Y-56643418D01*
X35600500Y-56617060D01*
X35600500Y-56251914D01*
X35601280Y-56238029D01*
X35605565Y-56200001D01*
X35605565Y-56199998D01*
X35601280Y-56161969D01*
X35600500Y-56148085D01*
X35600500Y-56121157D01*
X35592711Y-56082003D01*
X35591110Y-56071714D01*
X35585368Y-56020745D01*
X35577023Y-55996898D01*
X35572449Y-55980139D01*
X35569737Y-55966503D01*
X35569734Y-55966496D01*
X35561253Y-55946021D01*
X35549484Y-55917607D01*
X35547028Y-55911175D01*
X35525789Y-55850478D01*
X35519289Y-55840134D01*
X35509719Y-55821606D01*
X35509394Y-55820821D01*
X35472790Y-55766040D01*
X35470905Y-55763131D01*
X35426111Y-55691842D01*
X35428249Y-55690498D01*
X35406257Y-55636615D01*
X35419020Y-55567921D01*
X35466895Y-55517031D01*
X35529614Y-55500000D01*
X37000000Y-55500000D01*
X37463681Y-55036319D01*
X37525004Y-55002834D01*
X37551362Y-55000000D01*
X38948638Y-55000000D01*
X39015677Y-55019685D01*
G37*
%TD.AperFunction*%
%TD*%
%TA.AperFunction,Conductor*%
%TO.N,GND*%
G36*
X26419143Y-22019685D02*
G01*
X26464898Y-22072489D01*
X26474842Y-22141647D01*
X26469145Y-22164953D01*
X26461348Y-22187237D01*
X26452982Y-22211142D01*
X26450504Y-22217631D01*
X26430264Y-22266496D01*
X26430263Y-22266502D01*
X26427550Y-22280140D01*
X26422975Y-22296898D01*
X26414634Y-22320735D01*
X26414632Y-22320742D01*
X26408890Y-22371696D01*
X26407288Y-22381994D01*
X26399500Y-22421152D01*
X26399500Y-22448085D01*
X26398720Y-22461969D01*
X26394435Y-22499998D01*
X26394435Y-22500001D01*
X26398720Y-22538029D01*
X26399500Y-22551914D01*
X26399500Y-23027110D01*
X26379815Y-23094149D01*
X26363181Y-23114791D01*
X26164791Y-23313181D01*
X26103468Y-23346666D01*
X26077110Y-23349500D01*
X24971154Y-23349500D01*
X24816507Y-23380261D01*
X24816497Y-23380264D01*
X24670826Y-23440602D01*
X24670813Y-23440609D01*
X24539710Y-23528210D01*
X24539706Y-23528213D01*
X24497739Y-23570182D01*
X24497738Y-23570183D01*
X24370186Y-23697734D01*
X24370180Y-23697741D01*
X24329092Y-23763131D01*
X24327204Y-23766046D01*
X24290604Y-23820823D01*
X24290600Y-23820831D01*
X24290266Y-23821638D01*
X24280713Y-23840126D01*
X24274212Y-23850473D01*
X24274210Y-23850476D01*
X24252982Y-23911139D01*
X24250504Y-23917630D01*
X24230264Y-23966495D01*
X24230263Y-23966501D01*
X24227550Y-23980139D01*
X24222975Y-23996897D01*
X24214634Y-24020734D01*
X24214632Y-24020741D01*
X24208890Y-24071695D01*
X24207288Y-24081993D01*
X24199500Y-24121151D01*
X24199500Y-24148084D01*
X24198720Y-24161968D01*
X24194435Y-24199997D01*
X24194435Y-24200000D01*
X24198720Y-24238028D01*
X24199500Y-24251913D01*
X24199500Y-24278843D01*
X24207288Y-24318002D01*
X24208890Y-24328302D01*
X24214632Y-24379251D01*
X24214633Y-24379259D01*
X24222976Y-24403103D01*
X24227550Y-24419859D01*
X24230262Y-24433495D01*
X24250509Y-24482376D01*
X24252988Y-24488871D01*
X24276511Y-24556093D01*
X24274367Y-24556842D01*
X24283960Y-24615161D01*
X24275611Y-24643591D01*
X24276510Y-24643906D01*
X24217040Y-24813858D01*
X24176318Y-24870634D01*
X24111365Y-24896381D01*
X24042804Y-24882924D01*
X23992401Y-24834537D01*
X23982960Y-24813864D01*
X23925789Y-24650478D01*
X23829816Y-24497738D01*
X23702262Y-24370184D01*
X23549523Y-24274211D01*
X23379254Y-24214631D01*
X23379249Y-24214630D01*
X23200004Y-24194435D01*
X23199996Y-24194435D01*
X23020750Y-24214630D01*
X23020745Y-24214631D01*
X22850476Y-24274211D01*
X22697737Y-24370184D01*
X22570184Y-24497737D01*
X22474211Y-24650476D01*
X22414631Y-24820745D01*
X22414630Y-24820750D01*
X22394435Y-24999996D01*
X22394435Y-25000003D01*
X22414630Y-25179249D01*
X22414631Y-25179254D01*
X22474211Y-25349523D01*
X22505926Y-25399996D01*
X22570184Y-25502262D01*
X22697738Y-25629816D01*
X22850478Y-25725789D01*
X23020745Y-25785368D01*
X23107669Y-25795161D01*
X23172080Y-25822226D01*
X23181465Y-25830700D01*
X23515139Y-26164374D01*
X23515149Y-26164385D01*
X23519479Y-26168715D01*
X23519480Y-26168716D01*
X23631284Y-26280520D01*
X23718095Y-26330639D01*
X23718097Y-26330641D01*
X23756151Y-26352611D01*
X23768215Y-26359577D01*
X23920943Y-26400501D01*
X23920946Y-26400501D01*
X24086653Y-26400501D01*
X24086669Y-26400500D01*
X26713331Y-26400500D01*
X26713347Y-26400501D01*
X26720943Y-26400501D01*
X26879054Y-26400501D01*
X26879057Y-26400501D01*
X27031785Y-26359577D01*
X27081904Y-26330639D01*
X27168716Y-26280520D01*
X27218534Y-26230700D01*
X27279857Y-26197215D01*
X27292313Y-26195163D01*
X27379255Y-26185368D01*
X27549522Y-26125789D01*
X27702262Y-26029816D01*
X27829816Y-25902262D01*
X27925789Y-25749522D01*
X27985368Y-25579255D01*
X28005565Y-25400000D01*
X27985368Y-25220745D01*
X27925789Y-25050478D01*
X27925788Y-25050475D01*
X27872691Y-24965973D01*
X27853690Y-24898736D01*
X27872691Y-24834027D01*
X27925788Y-24749524D01*
X27960446Y-24650478D01*
X27985368Y-24579255D01*
X27985377Y-24579178D01*
X28005565Y-24400003D01*
X28005565Y-24399996D01*
X27985369Y-24220750D01*
X27985368Y-24220745D01*
X27964801Y-24161968D01*
X27925789Y-24050478D01*
X27875998Y-23971237D01*
X27856999Y-23904002D01*
X27877366Y-23837166D01*
X27877729Y-23836618D01*
X27909394Y-23789229D01*
X27969737Y-23643547D01*
X27984330Y-23570183D01*
X28000500Y-23488893D01*
X28000500Y-23331208D01*
X28000500Y-22551914D01*
X28001280Y-22538029D01*
X28005565Y-22500001D01*
X28005565Y-22499998D01*
X28001280Y-22461969D01*
X28000500Y-22448085D01*
X28000500Y-22421157D01*
X27992711Y-22382003D01*
X27991110Y-22371714D01*
X27985368Y-22320745D01*
X27984281Y-22317641D01*
X27984173Y-22315510D01*
X27983819Y-22313960D01*
X27984090Y-22313897D01*
X27980717Y-22247866D01*
X28015443Y-22187237D01*
X28077435Y-22155006D01*
X28147011Y-22161408D01*
X28189003Y-22189003D01*
X28963681Y-22963681D01*
X28997166Y-23025004D01*
X29000000Y-23051362D01*
X29000000Y-26948638D01*
X28980315Y-27015677D01*
X28963681Y-27036319D01*
X28036319Y-27963681D01*
X27974996Y-27997166D01*
X27948638Y-28000000D01*
X22051362Y-28000000D01*
X21984323Y-27980315D01*
X21963681Y-27963681D01*
X21036319Y-27036319D01*
X21002834Y-26974996D01*
X21000000Y-26948638D01*
X21000000Y-23051362D01*
X21019685Y-22984323D01*
X21036319Y-22963681D01*
X21963681Y-22036319D01*
X22025004Y-22002834D01*
X22051362Y-22000000D01*
X26352104Y-22000000D01*
X26419143Y-22019685D01*
G37*
%TD.AperFunction*%
%TD*%
%TA.AperFunction,Conductor*%
%TO.N,GND*%
G36*
X47015677Y-22019685D02*
G01*
X47036319Y-22036319D01*
X48963681Y-23963681D01*
X48997166Y-24025004D01*
X49000000Y-24051362D01*
X49000000Y-31948638D01*
X48980315Y-32015677D01*
X48963681Y-32036319D01*
X47036319Y-33963681D01*
X46974996Y-33997166D01*
X46948638Y-34000000D01*
X43051362Y-34000000D01*
X42984323Y-33980315D01*
X42963681Y-33963681D01*
X41036319Y-32036319D01*
X41002834Y-31974996D01*
X41000000Y-31948638D01*
X41000000Y-24419998D01*
X41274435Y-24419998D01*
X41274435Y-24420001D01*
X41278720Y-24458029D01*
X41279500Y-24471914D01*
X41279500Y-24498844D01*
X41287288Y-24538003D01*
X41288890Y-24548303D01*
X41294632Y-24599252D01*
X41294633Y-24599260D01*
X41302976Y-24623104D01*
X41307550Y-24639860D01*
X41310262Y-24653496D01*
X41330509Y-24702377D01*
X41332986Y-24708867D01*
X41351167Y-24760824D01*
X41354212Y-24769524D01*
X41360709Y-24779865D01*
X41370268Y-24798365D01*
X41370603Y-24799173D01*
X41370605Y-24799179D01*
X41407223Y-24853982D01*
X41409114Y-24856900D01*
X41450180Y-24922257D01*
X41450182Y-24922260D01*
X41963181Y-25435259D01*
X41996666Y-25496582D01*
X41999500Y-25522940D01*
X41999500Y-25948085D01*
X41998720Y-25961969D01*
X41994435Y-25999998D01*
X41994435Y-26000001D01*
X41998720Y-26038029D01*
X41999500Y-26051914D01*
X41999500Y-26078844D01*
X42007288Y-26118003D01*
X42008890Y-26128303D01*
X42014632Y-26179252D01*
X42014633Y-26179260D01*
X42022976Y-26203104D01*
X42027550Y-26219860D01*
X42030262Y-26233496D01*
X42050509Y-26282377D01*
X42052988Y-26288872D01*
X42074212Y-26349524D01*
X42080709Y-26359865D01*
X42090268Y-26378365D01*
X42090603Y-26379173D01*
X42090605Y-26379179D01*
X42127223Y-26433982D01*
X42129114Y-26436900D01*
X42170180Y-26502257D01*
X42170182Y-26502260D01*
X42170184Y-26502262D01*
X42297738Y-26629816D01*
X42363096Y-26670883D01*
X42363131Y-26670905D01*
X42366040Y-26672790D01*
X42420821Y-26709394D01*
X42421606Y-26709719D01*
X42440134Y-26719289D01*
X42450478Y-26725789D01*
X42511175Y-26747028D01*
X42517607Y-26749484D01*
X42546021Y-26761253D01*
X42566497Y-26769735D01*
X42566498Y-26769735D01*
X42566503Y-26769737D01*
X42580139Y-26772449D01*
X42596898Y-26777023D01*
X42620745Y-26785368D01*
X42671714Y-26791110D01*
X42681992Y-26792709D01*
X42709140Y-26798109D01*
X42721157Y-26800500D01*
X42721158Y-26800500D01*
X42748085Y-26800500D01*
X42761969Y-26801280D01*
X42799998Y-26805565D01*
X42800000Y-26805565D01*
X42800002Y-26805565D01*
X42838031Y-26801280D01*
X42851915Y-26800500D01*
X42878841Y-26800500D01*
X42878842Y-26800500D01*
X42918017Y-26792707D01*
X42928283Y-26791110D01*
X42979255Y-26785368D01*
X43003100Y-26777023D01*
X43019862Y-26772448D01*
X43033497Y-26769737D01*
X43082389Y-26749484D01*
X43088837Y-26747023D01*
X43149522Y-26725789D01*
X43159868Y-26719287D01*
X43178390Y-26709720D01*
X43179179Y-26709394D01*
X43233987Y-26672771D01*
X43236825Y-26670931D01*
X43302262Y-26629816D01*
X43429816Y-26502262D01*
X43470931Y-26436825D01*
X43472777Y-26433979D01*
X43509389Y-26379186D01*
X43509394Y-26379179D01*
X43509720Y-26378390D01*
X43519287Y-26359868D01*
X43525789Y-26349522D01*
X43547023Y-26288837D01*
X43549490Y-26282377D01*
X43569737Y-26233497D01*
X43572449Y-26219860D01*
X43577023Y-26203100D01*
X43585368Y-26179255D01*
X43591110Y-26128283D01*
X43592707Y-26118017D01*
X43600500Y-26078842D01*
X43600500Y-26051914D01*
X43601280Y-26038029D01*
X43605565Y-26000001D01*
X43605565Y-25999998D01*
X43601280Y-25961969D01*
X43600500Y-25948085D01*
X43600500Y-25061157D01*
X43600499Y-25061156D01*
X43580236Y-24959283D01*
X43580236Y-24959280D01*
X43569739Y-24906510D01*
X43569738Y-24906503D01*
X43509394Y-24760821D01*
X43509392Y-24760818D01*
X43509390Y-24760814D01*
X43421789Y-24629711D01*
X43421786Y-24629707D01*
X42706130Y-23914052D01*
X42706110Y-23914030D01*
X42587194Y-23795114D01*
X42587163Y-23795085D01*
X42582260Y-23790182D01*
X42516883Y-23749103D01*
X42513965Y-23747212D01*
X42459185Y-23710609D01*
X42459169Y-23710600D01*
X42458374Y-23710271D01*
X42439862Y-23700707D01*
X42429527Y-23694213D01*
X42429526Y-23694212D01*
X42393974Y-23681772D01*
X42368863Y-23672985D01*
X42362374Y-23670508D01*
X42313499Y-23650263D01*
X42313500Y-23650263D01*
X42299848Y-23647547D01*
X42283096Y-23642973D01*
X42259264Y-23634634D01*
X42259256Y-23634632D01*
X42208304Y-23628890D01*
X42198004Y-23627288D01*
X42158845Y-23619500D01*
X42158843Y-23619500D01*
X42158842Y-23619500D01*
X42131915Y-23619500D01*
X42118031Y-23618720D01*
X42080002Y-23614435D01*
X42079998Y-23614435D01*
X42041969Y-23618720D01*
X42028085Y-23619500D01*
X42001152Y-23619500D01*
X41961994Y-23627288D01*
X41951696Y-23628890D01*
X41900742Y-23634632D01*
X41900735Y-23634634D01*
X41876898Y-23642975D01*
X41860140Y-23647550D01*
X41846502Y-23650263D01*
X41846496Y-23650264D01*
X41797631Y-23670504D01*
X41791140Y-23672982D01*
X41730477Y-23694210D01*
X41730474Y-23694212D01*
X41720127Y-23700713D01*
X41701639Y-23710266D01*
X41700832Y-23710600D01*
X41700824Y-23710604D01*
X41646047Y-23747204D01*
X41643132Y-23749092D01*
X41577742Y-23790180D01*
X41577735Y-23790186D01*
X41450186Y-23917735D01*
X41450180Y-23917742D01*
X41409092Y-23983132D01*
X41407204Y-23986047D01*
X41370604Y-24040824D01*
X41370600Y-24040832D01*
X41370266Y-24041639D01*
X41360713Y-24060127D01*
X41354212Y-24070474D01*
X41354210Y-24070477D01*
X41332982Y-24131140D01*
X41330504Y-24137631D01*
X41310264Y-24186496D01*
X41310263Y-24186502D01*
X41307550Y-24200140D01*
X41302975Y-24216898D01*
X41294634Y-24240735D01*
X41294632Y-24240742D01*
X41288890Y-24291696D01*
X41287288Y-24301994D01*
X41279500Y-24341152D01*
X41279500Y-24368085D01*
X41278720Y-24381969D01*
X41274435Y-24419998D01*
X41000000Y-24419998D01*
X41000000Y-24051362D01*
X41019685Y-23984323D01*
X41036319Y-23963681D01*
X42963681Y-22036319D01*
X43025004Y-22002834D01*
X43051362Y-22000000D01*
X46948638Y-22000000D01*
X47015677Y-22019685D01*
G37*
%TD.AperFunction*%
%TD*%
%TA.AperFunction,Conductor*%
%TO.N,GND*%
G36*
X24084151Y-29019685D02*
G01*
X24129906Y-29072489D01*
X24139850Y-29141647D01*
X24134153Y-29164955D01*
X24114633Y-29220737D01*
X24114630Y-29220750D01*
X24094435Y-29399996D01*
X24094435Y-29400003D01*
X24114630Y-29579249D01*
X24114631Y-29579254D01*
X24174212Y-29749525D01*
X24180492Y-29759519D01*
X24199500Y-29825493D01*
X24199500Y-29974507D01*
X24180494Y-30040478D01*
X24174209Y-30050479D01*
X24114633Y-30220737D01*
X24114630Y-30220750D01*
X24094435Y-30399996D01*
X24094435Y-30400003D01*
X24114630Y-30579249D01*
X24114631Y-30579254D01*
X24174211Y-30749523D01*
X24270184Y-30902262D01*
X24397738Y-31029816D01*
X24550478Y-31125789D01*
X24720745Y-31185368D01*
X24720750Y-31185369D01*
X24899996Y-31205565D01*
X24900000Y-31205565D01*
X24900004Y-31205565D01*
X25079249Y-31185369D01*
X25079252Y-31185368D01*
X25079255Y-31185368D01*
X25249522Y-31125789D01*
X25402262Y-31029816D01*
X25529816Y-30902262D01*
X25625789Y-30749522D01*
X25685368Y-30579255D01*
X25705565Y-30400000D01*
X25704556Y-30391046D01*
X25685369Y-30220750D01*
X25685366Y-30220737D01*
X25625790Y-30050479D01*
X25619506Y-30040478D01*
X25600500Y-29974507D01*
X25600500Y-29825493D01*
X25619508Y-29759519D01*
X25625787Y-29749525D01*
X25625786Y-29749525D01*
X25625789Y-29749522D01*
X25685368Y-29579255D01*
X25691960Y-29520750D01*
X25705565Y-29400003D01*
X25705565Y-29399996D01*
X25685369Y-29220750D01*
X25685366Y-29220737D01*
X25665847Y-29164955D01*
X25662285Y-29095176D01*
X25697013Y-29034549D01*
X25759007Y-29002321D01*
X25782888Y-29000000D01*
X27770386Y-29000000D01*
X27837425Y-29019685D01*
X27883180Y-29072489D01*
X27893124Y-29141647D01*
X27871954Y-29190626D01*
X27873889Y-29191842D01*
X27774211Y-29350476D01*
X27714631Y-29520745D01*
X27714630Y-29520750D01*
X27694435Y-29699996D01*
X27694435Y-29700003D01*
X27714630Y-29879249D01*
X27714631Y-29879254D01*
X27774211Y-30049523D01*
X27774812Y-30050479D01*
X27870184Y-30202262D01*
X27997738Y-30329816D01*
X27997742Y-30329819D01*
X28002809Y-30333859D01*
X28042952Y-30391046D01*
X28049500Y-30430809D01*
X28049500Y-33769190D01*
X28029815Y-33836229D01*
X28002815Y-33866135D01*
X27997738Y-33870183D01*
X27870184Y-33997737D01*
X27774211Y-34150476D01*
X27714631Y-34320745D01*
X27714630Y-34320750D01*
X27694435Y-34499996D01*
X27694435Y-34500003D01*
X27714630Y-34679249D01*
X27714631Y-34679254D01*
X27774211Y-34849523D01*
X27870184Y-35002262D01*
X27997738Y-35129816D01*
X28150478Y-35225789D01*
X28254023Y-35262021D01*
X28320745Y-35285368D01*
X28320750Y-35285369D01*
X28499996Y-35305565D01*
X28500000Y-35305565D01*
X28500004Y-35305565D01*
X28679249Y-35285369D01*
X28679251Y-35285368D01*
X28679255Y-35285368D01*
X28679258Y-35285366D01*
X28679262Y-35285366D01*
X28835045Y-35230855D01*
X28904824Y-35227293D01*
X28965451Y-35262021D01*
X28997679Y-35324015D01*
X29000000Y-35347896D01*
X29000000Y-35948638D01*
X28980315Y-36015677D01*
X28963681Y-36036319D01*
X27036319Y-37963681D01*
X26974996Y-37997166D01*
X26948638Y-38000000D01*
X23051362Y-38000000D01*
X22984323Y-37980315D01*
X22963681Y-37963681D01*
X21036319Y-36036319D01*
X21002834Y-35974996D01*
X21000000Y-35948638D01*
X21000000Y-29124000D01*
X21019685Y-29056961D01*
X21072489Y-29011206D01*
X21124000Y-29000000D01*
X24017112Y-29000000D01*
X24084151Y-29019685D01*
G37*
%TD.AperFunction*%
%TD*%
%TA.AperFunction,Conductor*%
%TO.N,GND*%
G36*
X34028491Y-22019685D02*
G01*
X34074246Y-22072489D01*
X34084190Y-22141647D01*
X34055165Y-22205203D01*
X34049133Y-22211681D01*
X33966630Y-22294183D01*
X33870657Y-22446922D01*
X33811077Y-22617191D01*
X33811076Y-22617196D01*
X33790881Y-22796442D01*
X33790881Y-22796449D01*
X33811076Y-22975695D01*
X33811077Y-22975700D01*
X33870657Y-23145969D01*
X33918170Y-23221585D01*
X33966630Y-23298708D01*
X34094184Y-23426262D01*
X34246924Y-23522235D01*
X34246929Y-23522238D01*
X34253199Y-23525258D01*
X34252316Y-23527089D01*
X34288386Y-23549754D01*
X34479614Y-23740982D01*
X34658141Y-23919508D01*
X34691626Y-23980831D01*
X34693680Y-23993305D01*
X34714630Y-24179250D01*
X34714631Y-24179254D01*
X34774211Y-24349523D01*
X34870184Y-24502262D01*
X34997738Y-24629816D01*
X35150478Y-24725789D01*
X35320745Y-24785368D01*
X35320750Y-24785369D01*
X35499996Y-24805565D01*
X35500000Y-24805565D01*
X35500004Y-24805565D01*
X35679249Y-24785369D01*
X35679252Y-24785368D01*
X35679255Y-24785368D01*
X35849522Y-24725789D01*
X36002262Y-24629816D01*
X36129816Y-24502262D01*
X36225789Y-24349522D01*
X36285368Y-24179255D01*
X36305565Y-24000000D01*
X36303405Y-23980831D01*
X36285368Y-23820747D01*
X36285368Y-23820745D01*
X36257458Y-23740982D01*
X36250500Y-23700028D01*
X36250500Y-23626079D01*
X36221659Y-23481092D01*
X36221658Y-23481091D01*
X36221658Y-23481087D01*
X36198949Y-23426262D01*
X36165087Y-23344511D01*
X36165080Y-23344498D01*
X36082952Y-23221585D01*
X36082951Y-23221584D01*
X35978416Y-23117049D01*
X35825048Y-22963681D01*
X35349754Y-22488386D01*
X35327089Y-22452316D01*
X35325258Y-22453199D01*
X35322238Y-22446929D01*
X35226261Y-22294183D01*
X35143759Y-22211681D01*
X35110274Y-22150358D01*
X35115258Y-22080666D01*
X35157130Y-22024733D01*
X35222594Y-22000316D01*
X35231440Y-22000000D01*
X38148638Y-22000000D01*
X38215677Y-22019685D01*
X38236319Y-22036319D01*
X39163681Y-22963681D01*
X39197166Y-23025004D01*
X39200000Y-23051362D01*
X39200000Y-25948638D01*
X39180315Y-26015677D01*
X39163681Y-26036319D01*
X38236319Y-26963681D01*
X38174996Y-26997166D01*
X38148638Y-27000000D01*
X30624000Y-27000000D01*
X30556961Y-26980315D01*
X30511206Y-26927511D01*
X30500000Y-26876000D01*
X30500000Y-22124000D01*
X30519685Y-22056961D01*
X30572489Y-22011206D01*
X30624000Y-22000000D01*
X33961452Y-22000000D01*
X34028491Y-22019685D01*
G37*
%TD.AperFunction*%
%TD*%
%TA.AperFunction,Conductor*%
%TO.N,GND*%
G36*
X47943039Y-55019685D02*
G01*
X47988794Y-55072489D01*
X48000000Y-55124000D01*
X48000000Y-63876000D01*
X47980315Y-63943039D01*
X47927511Y-63988794D01*
X47876000Y-64000000D01*
X42624000Y-64000000D01*
X42556961Y-63980315D01*
X42511206Y-63927511D01*
X42500000Y-63876000D01*
X42500000Y-60982887D01*
X42519685Y-60915848D01*
X42572489Y-60870093D01*
X42641647Y-60860149D01*
X42664948Y-60865843D01*
X42720745Y-60885368D01*
X42720748Y-60885368D01*
X42720750Y-60885369D01*
X42899996Y-60905565D01*
X42900000Y-60905565D01*
X42900004Y-60905565D01*
X43079249Y-60885369D01*
X43079252Y-60885368D01*
X43079255Y-60885368D01*
X43249522Y-60825789D01*
X43402262Y-60729816D01*
X43529816Y-60602262D01*
X43530048Y-60601892D01*
X43547362Y-60580178D01*
X44474233Y-59653306D01*
X44510306Y-59630657D01*
X44509418Y-59628813D01*
X44515689Y-59625792D01*
X44515690Y-59625790D01*
X44515696Y-59625789D01*
X44668436Y-59529816D01*
X44795990Y-59402262D01*
X44891963Y-59249522D01*
X44951542Y-59079255D01*
X44971739Y-58900000D01*
X44951542Y-58720745D01*
X44891963Y-58550478D01*
X44795990Y-58397738D01*
X44668436Y-58270184D01*
X44515697Y-58174211D01*
X44345428Y-58114631D01*
X44345423Y-58114630D01*
X44166178Y-58094435D01*
X44166170Y-58094435D01*
X43986924Y-58114630D01*
X43986919Y-58114631D01*
X43816650Y-58174211D01*
X43663911Y-58270184D01*
X43536358Y-58397737D01*
X43440382Y-58550483D01*
X43437360Y-58556758D01*
X43435535Y-58555878D01*
X43412866Y-58591939D01*
X42711681Y-59293125D01*
X42650358Y-59326610D01*
X42580667Y-59321626D01*
X42524733Y-59279755D01*
X42500316Y-59214290D01*
X42500000Y-59205444D01*
X42500000Y-55124000D01*
X42519685Y-55056961D01*
X42572489Y-55011206D01*
X42624000Y-55000000D01*
X47876000Y-55000000D01*
X47943039Y-55019685D01*
G37*
%TD.AperFunction*%
%TD*%
%TA.AperFunction,Conductor*%
%TO.N,GND*%
G36*
X48943039Y-36019685D02*
G01*
X48988794Y-36072489D01*
X49000000Y-36124000D01*
X49000000Y-41948638D01*
X48980315Y-42015677D01*
X48963681Y-42036319D01*
X48535514Y-42464485D01*
X48474191Y-42497970D01*
X48404499Y-42492986D01*
X48348566Y-42451114D01*
X48324149Y-42385650D01*
X48324613Y-42362920D01*
X48334119Y-42278556D01*
X48334119Y-42278550D01*
X48313923Y-42099304D01*
X48313922Y-42099299D01*
X48254342Y-41929030D01*
X48158369Y-41776291D01*
X48030816Y-41648738D01*
X47878076Y-41552765D01*
X47878072Y-41552763D01*
X47871798Y-41549742D01*
X47872679Y-41547912D01*
X47836613Y-41525246D01*
X47386819Y-41075451D01*
X47353334Y-41014128D01*
X47350500Y-40987770D01*
X47350500Y-40728220D01*
X47357458Y-40687265D01*
X47385368Y-40607502D01*
X47385369Y-40607497D01*
X47405565Y-40428251D01*
X47405565Y-40428244D01*
X47385369Y-40248998D01*
X47385368Y-40248993D01*
X47325788Y-40078724D01*
X47229815Y-39925985D01*
X47102262Y-39798432D01*
X46949523Y-39702459D01*
X46779254Y-39642879D01*
X46779249Y-39642878D01*
X46600004Y-39622683D01*
X46599996Y-39622683D01*
X46420750Y-39642878D01*
X46420745Y-39642879D01*
X46250476Y-39702459D01*
X46097737Y-39798432D01*
X45970184Y-39925985D01*
X45874211Y-40078724D01*
X45814631Y-40248993D01*
X45814630Y-40248998D01*
X45794435Y-40428244D01*
X45794435Y-40428251D01*
X45814630Y-40607497D01*
X45814631Y-40607502D01*
X45842542Y-40687265D01*
X45849500Y-40728220D01*
X45849500Y-41423918D01*
X45849500Y-41423920D01*
X45849499Y-41423920D01*
X45878340Y-41568907D01*
X45878343Y-41568917D01*
X45934914Y-41705492D01*
X45967812Y-41754727D01*
X45967813Y-41754730D01*
X46017046Y-41828414D01*
X46017052Y-41828421D01*
X46775246Y-42586613D01*
X46797912Y-42622679D01*
X46799742Y-42621798D01*
X46802763Y-42628072D01*
X46802765Y-42628076D01*
X46898738Y-42780816D01*
X47026292Y-42908370D01*
X47179032Y-43004343D01*
X47349299Y-43063922D01*
X47349304Y-43063923D01*
X47528550Y-43084119D01*
X47528554Y-43084119D01*
X47528556Y-43084119D01*
X47563215Y-43080213D01*
X47612921Y-43074613D01*
X47681742Y-43086667D01*
X47733121Y-43134016D01*
X47750746Y-43201626D01*
X47729020Y-43268032D01*
X47714485Y-43285514D01*
X47036319Y-43963681D01*
X46974996Y-43997166D01*
X46948638Y-44000000D01*
X43051362Y-44000000D01*
X42984323Y-43980315D01*
X42963681Y-43963681D01*
X41036319Y-42036319D01*
X41002834Y-41974996D01*
X41000000Y-41948638D01*
X41000000Y-36124000D01*
X41019685Y-36056961D01*
X41072489Y-36011206D01*
X41124000Y-36000000D01*
X48876000Y-36000000D01*
X48943039Y-36019685D01*
G37*
%TD.AperFunction*%
%TD*%
%TA.AperFunction,Conductor*%
%TO.N,GND*%
G36*
X32371354Y-30019685D02*
G01*
X32417109Y-30072489D01*
X32427053Y-30141647D01*
X32398028Y-30205203D01*
X32345269Y-30241042D01*
X32250478Y-30274210D01*
X32097737Y-30370184D01*
X31970184Y-30497737D01*
X31874211Y-30650476D01*
X31814631Y-30820745D01*
X31814630Y-30820750D01*
X31794435Y-30999996D01*
X31794435Y-31000003D01*
X31814630Y-31179249D01*
X31814631Y-31179254D01*
X31874211Y-31349523D01*
X31944889Y-31462006D01*
X31970184Y-31502262D01*
X32097738Y-31629816D01*
X32188080Y-31686582D01*
X32250474Y-31725787D01*
X32250478Y-31725789D01*
X32420745Y-31785368D01*
X32420750Y-31785369D01*
X32599996Y-31805565D01*
X32600000Y-31805565D01*
X32600004Y-31805565D01*
X32779249Y-31785369D01*
X32779252Y-31785368D01*
X32779255Y-31785368D01*
X32949522Y-31725789D01*
X32950488Y-31725181D01*
X32959523Y-31719506D01*
X33025494Y-31700500D01*
X34374506Y-31700500D01*
X34440477Y-31719506D01*
X34450474Y-31725787D01*
X34450475Y-31725787D01*
X34450478Y-31725789D01*
X34620745Y-31785368D01*
X34620750Y-31785369D01*
X34799996Y-31805565D01*
X34800000Y-31805565D01*
X34800004Y-31805565D01*
X34979249Y-31785369D01*
X34979252Y-31785368D01*
X34979255Y-31785368D01*
X35149522Y-31725789D01*
X35302262Y-31629816D01*
X35429816Y-31502262D01*
X35525789Y-31349522D01*
X35585368Y-31179255D01*
X35599985Y-31049523D01*
X35605565Y-31000003D01*
X35605565Y-30999996D01*
X35585369Y-30820750D01*
X35585368Y-30820745D01*
X35525789Y-30650478D01*
X35429816Y-30497738D01*
X35302262Y-30370184D01*
X35270897Y-30350476D01*
X35149521Y-30274210D01*
X35054731Y-30241042D01*
X34997954Y-30200320D01*
X34972207Y-30135367D01*
X34985663Y-30066806D01*
X35034050Y-30016403D01*
X35095685Y-30000000D01*
X36270386Y-30000000D01*
X36337425Y-30019685D01*
X36383180Y-30072489D01*
X36393124Y-30141647D01*
X36371954Y-30190626D01*
X36373889Y-30191842D01*
X36370184Y-30197737D01*
X36370184Y-30197738D01*
X36359569Y-30214632D01*
X36274211Y-30350476D01*
X36214631Y-30520745D01*
X36214630Y-30520750D01*
X36194435Y-30699996D01*
X36194435Y-30700003D01*
X36214630Y-30879249D01*
X36214631Y-30879254D01*
X36274211Y-31049523D01*
X36355724Y-31179249D01*
X36370184Y-31202262D01*
X36497738Y-31329816D01*
X36588080Y-31386582D01*
X36625319Y-31409981D01*
X36650478Y-31425789D01*
X36753984Y-31462007D01*
X36800710Y-31491367D01*
X38453453Y-33144111D01*
X38453454Y-33144112D01*
X38453457Y-33144114D01*
X38568189Y-33220775D01*
X38603012Y-33235198D01*
X38621529Y-33244764D01*
X38750478Y-33325789D01*
X38916955Y-33384041D01*
X38973730Y-33424763D01*
X38999478Y-33489715D01*
X39000000Y-33501083D01*
X39000000Y-36448638D01*
X38980315Y-36515677D01*
X38963681Y-36536319D01*
X37536319Y-37963681D01*
X37474996Y-37997166D01*
X37448638Y-38000000D01*
X33051362Y-38000000D01*
X32984323Y-37980315D01*
X32963681Y-37963681D01*
X31036319Y-36036319D01*
X31002834Y-35974996D01*
X31000000Y-35948638D01*
X31000000Y-35644366D01*
X34994436Y-35644366D01*
X34994436Y-35644373D01*
X35014631Y-35823619D01*
X35014632Y-35823624D01*
X35074212Y-35993893D01*
X35159618Y-36129815D01*
X35170185Y-36146632D01*
X35297739Y-36274186D01*
X35450479Y-36370159D01*
X35603150Y-36423581D01*
X35620746Y-36429738D01*
X35620751Y-36429739D01*
X35723649Y-36441332D01*
X35800001Y-36449935D01*
X35802412Y-36449663D01*
X35830482Y-36450846D01*
X35830575Y-36449903D01*
X35836637Y-36450500D01*
X35836638Y-36450500D01*
X36818996Y-36450500D01*
X36923370Y-36429738D01*
X36954328Y-36423580D01*
X37081811Y-36370775D01*
X37196377Y-36294224D01*
X37263054Y-36273347D01*
X37306220Y-36280285D01*
X37320745Y-36285368D01*
X37320749Y-36285368D01*
X37320753Y-36285369D01*
X37499996Y-36305565D01*
X37500000Y-36305565D01*
X37500004Y-36305565D01*
X37679249Y-36285369D01*
X37679252Y-36285368D01*
X37679255Y-36285368D01*
X37849522Y-36225789D01*
X38002262Y-36129816D01*
X38129816Y-36002262D01*
X38225789Y-35849522D01*
X38285368Y-35679255D01*
X38285369Y-35679249D01*
X38305565Y-35500003D01*
X38305565Y-35499996D01*
X38285369Y-35320750D01*
X38285368Y-35320745D01*
X38225788Y-35150476D01*
X38129815Y-34997737D01*
X38002262Y-34870184D01*
X37849523Y-34774211D01*
X37679254Y-34714631D01*
X37679249Y-34714630D01*
X37500004Y-34694435D01*
X37499996Y-34694435D01*
X37320746Y-34714631D01*
X37320741Y-34714632D01*
X37306218Y-34719714D01*
X37236439Y-34723275D01*
X37196375Y-34705774D01*
X37081810Y-34629224D01*
X36954329Y-34576420D01*
X36954323Y-34576418D01*
X36818996Y-34549500D01*
X36818994Y-34549500D01*
X36681006Y-34549500D01*
X36681004Y-34549500D01*
X36545677Y-34576418D01*
X36545667Y-34576421D01*
X36418192Y-34629222D01*
X36303459Y-34705884D01*
X36161087Y-34848255D01*
X36099763Y-34881739D01*
X36032453Y-34877615D01*
X35979261Y-34859003D01*
X35979250Y-34859000D01*
X35800005Y-34838805D01*
X35799997Y-34838805D01*
X35620751Y-34859000D01*
X35620746Y-34859001D01*
X35450477Y-34918581D01*
X35297738Y-35014554D01*
X35170185Y-35142107D01*
X35074212Y-35294846D01*
X35014632Y-35465115D01*
X35014631Y-35465120D01*
X34994436Y-35644366D01*
X31000000Y-35644366D01*
X31000000Y-30124000D01*
X31019685Y-30056961D01*
X31072489Y-30011206D01*
X31124000Y-30000000D01*
X32304315Y-30000000D01*
X32371354Y-30019685D01*
G37*
%TD.AperFunction*%
%TD*%
M02*
