%TF.GenerationSoftware,KiCad,Pcbnew,8.0.6*%
%TF.CreationDate,2025-04-05T16:49:48+11:00*%
%TF.ProjectId,ConnectorsTesting,436f6e6e-6563-4746-9f72-735465737469,rev?*%
%TF.SameCoordinates,Original*%
%TF.FileFunction,Soldermask,Bot*%
%TF.FilePolarity,Negative*%
%FSLAX46Y46*%
G04 Gerber Fmt 4.6, Leading zero omitted, Abs format (unit mm)*
G04 Created by KiCad (PCBNEW 8.0.6) date 2025-04-05 16:49:48*
%MOMM*%
%LPD*%
G01*
G04 APERTURE LIST*
%ADD10C,0.000000*%
%ADD11C,0.600000*%
G04 APERTURE END LIST*
%TO.C,J29*%
G36*
X41626800Y-27059999D02*
G01*
X42033200Y-27059999D01*
X42033200Y-29279999D01*
X41626800Y-29279999D01*
X41626800Y-27059999D01*
G37*
G36*
X44173200Y-27059999D02*
G01*
X43766800Y-27059999D01*
X43766800Y-29279999D01*
X44173200Y-29279999D01*
X44173200Y-27059999D01*
G37*
D10*
%TO.C,J19*%
G36*
X39017106Y-25109995D02*
G01*
X38624554Y-25215179D01*
X38049975Y-23070824D01*
X38442528Y-22965640D01*
X39017106Y-25109995D01*
G37*
G36*
X36950025Y-25663868D02*
G01*
X36557472Y-25769052D01*
X35982894Y-23624697D01*
X36375446Y-23519513D01*
X36950025Y-25663868D01*
G37*
%TO.C,J5*%
G36*
X24273200Y-30890000D02*
G01*
X23866800Y-30890000D01*
X23866800Y-33110000D01*
X24273200Y-33110000D01*
X24273200Y-30890000D01*
G37*
G36*
X21726800Y-30890000D02*
G01*
X22133200Y-30890000D01*
X22133200Y-33110000D01*
X21726800Y-33110000D01*
X21726800Y-30890000D01*
G37*
%TO.C,J22*%
G36*
X37930978Y-59252508D02*
G01*
X37579025Y-59455708D01*
X36469025Y-57533132D01*
X36820978Y-57329932D01*
X37930978Y-59252508D01*
G37*
G36*
X39784273Y-58182508D02*
G01*
X39432320Y-58385708D01*
X38322320Y-56463132D01*
X38674273Y-56259932D01*
X39784273Y-58182508D01*
G37*
%TO.C,J12*%
G36*
X31726800Y-40890000D02*
G01*
X32133200Y-40890000D01*
X32133200Y-43110000D01*
X31726800Y-43110000D01*
X31726800Y-40890000D01*
G37*
G36*
X34273200Y-40890000D02*
G01*
X33866800Y-40890000D01*
X33866800Y-43110000D01*
X34273200Y-43110000D01*
X34273200Y-40890000D01*
G37*
%TO.C,J26*%
G36*
X44090000Y-63203200D02*
G01*
X46310000Y-63203200D01*
X46310000Y-62796800D01*
X44090000Y-62796800D01*
X44090000Y-63203200D01*
G37*
G36*
X44090000Y-60656800D02*
G01*
X46310000Y-60656800D01*
X46310000Y-61063200D01*
X44090000Y-61063200D01*
X44090000Y-60656800D01*
G37*
%TO.C,J15*%
G36*
X21796800Y-54890000D02*
G01*
X22203200Y-54890000D01*
X22203200Y-57110000D01*
X21796800Y-57110000D01*
X21796800Y-54890000D01*
G37*
G36*
X24343200Y-54890000D02*
G01*
X23936800Y-54890000D01*
X23936800Y-57110000D01*
X24343200Y-57110000D01*
X24343200Y-54890000D01*
G37*
%TO.C,J35*%
G36*
X45726800Y-37089999D02*
G01*
X46133200Y-37089999D01*
X46133200Y-39309999D01*
X45726800Y-39309999D01*
X45726800Y-37089999D01*
G37*
G36*
X48273200Y-37089999D02*
G01*
X47866800Y-37089999D01*
X47866800Y-39309999D01*
X48273200Y-39309999D01*
X48273200Y-37089999D01*
G37*
%TO.C,J9*%
G36*
X31726800Y-30890000D02*
G01*
X32133200Y-30890000D01*
X32133200Y-33110000D01*
X31726800Y-33110000D01*
X31726800Y-30890000D01*
G37*
G36*
X34273200Y-30890000D02*
G01*
X33866800Y-30890000D01*
X33866800Y-33110000D01*
X34273200Y-33110000D01*
X34273200Y-30890000D01*
G37*
%TO.C,J14*%
G36*
X36110000Y-44726800D02*
G01*
X33890000Y-44726800D01*
X33890000Y-45133200D01*
X36110000Y-45133200D01*
X36110000Y-44726800D01*
G37*
G36*
X36110000Y-47273200D02*
G01*
X33890000Y-47273200D01*
X33890000Y-46866800D01*
X36110000Y-46866800D01*
X36110000Y-47273200D01*
G37*
%TO.C,J11*%
G36*
X36110000Y-34726800D02*
G01*
X33890000Y-34726800D01*
X33890000Y-35133200D01*
X36110000Y-35133200D01*
X36110000Y-34726800D01*
G37*
G36*
X36110000Y-37273200D02*
G01*
X33890000Y-37273200D01*
X33890000Y-36866800D01*
X36110000Y-36866800D01*
X36110000Y-37273200D01*
G37*
%TO.C,J17*%
G36*
X26180000Y-50726800D02*
G01*
X23960000Y-50726800D01*
X23960000Y-51133200D01*
X26180000Y-51133200D01*
X26180000Y-50726800D01*
G37*
G36*
X26180000Y-53273200D02*
G01*
X23960000Y-53273200D01*
X23960000Y-52866800D01*
X26180000Y-52866800D01*
X26180000Y-53273200D01*
G37*
%TO.C,J6*%
G36*
X21726800Y-40890000D02*
G01*
X22133200Y-40890000D01*
X22133200Y-43110000D01*
X21726800Y-43110000D01*
X21726800Y-40890000D01*
G37*
G36*
X24273200Y-40890000D02*
G01*
X23866800Y-40890000D01*
X23866800Y-43110000D01*
X24273200Y-43110000D01*
X24273200Y-40890000D01*
G37*
%TO.C,J33*%
G36*
X41726800Y-37089999D02*
G01*
X42133200Y-37089999D01*
X42133200Y-39309999D01*
X41726800Y-39309999D01*
X41726800Y-37089999D01*
G37*
G36*
X44273200Y-37089999D02*
G01*
X43866800Y-37089999D01*
X43866800Y-39309999D01*
X44273200Y-39309999D01*
X44273200Y-37089999D01*
G37*
%TO.C,J34*%
G36*
X46110000Y-40926799D02*
G01*
X43890000Y-40926799D01*
X43890000Y-41333199D01*
X46110000Y-41333199D01*
X46110000Y-40926799D01*
G37*
G36*
X46110000Y-43473199D02*
G01*
X43890000Y-43473199D01*
X43890000Y-43066799D01*
X46110000Y-43066799D01*
X46110000Y-43473199D01*
G37*
%TO.C,J1*%
G36*
X25726800Y-30890000D02*
G01*
X26133200Y-30890000D01*
X26133200Y-33110000D01*
X25726800Y-33110000D01*
X25726800Y-30890000D01*
G37*
G36*
X28273200Y-30890000D02*
G01*
X27866800Y-30890000D01*
X27866800Y-33110000D01*
X28273200Y-33110000D01*
X28273200Y-30890000D01*
G37*
%TO.C,J23*%
G36*
X43690000Y-53319801D02*
G01*
X45910000Y-53319801D01*
X45910000Y-52913401D01*
X43690000Y-52913401D01*
X43690000Y-53319801D01*
G37*
G36*
X43690000Y-50773401D02*
G01*
X45910000Y-50773401D01*
X45910000Y-51179801D01*
X43690000Y-51179801D01*
X43690000Y-50773401D01*
G37*
%TO.C,J18*%
G36*
X26110000Y-58726800D02*
G01*
X23890000Y-58726800D01*
X23890000Y-59133200D01*
X26110000Y-59133200D01*
X26110000Y-58726800D01*
G37*
G36*
X26110000Y-61273200D02*
G01*
X23890000Y-61273200D01*
X23890000Y-60866800D01*
X26110000Y-60866800D01*
X26110000Y-61273200D01*
G37*
%TO.C,J2*%
G36*
X26110000Y-34726800D02*
G01*
X23890000Y-34726800D01*
X23890000Y-35133200D01*
X26110000Y-35133200D01*
X26110000Y-34726800D01*
G37*
G36*
X26110000Y-37273200D02*
G01*
X23890000Y-37273200D01*
X23890000Y-36866800D01*
X26110000Y-36866800D01*
X26110000Y-37273200D01*
G37*
%TO.C,J7*%
G36*
X26110000Y-44726800D02*
G01*
X23890000Y-44726800D01*
X23890000Y-45133200D01*
X26110000Y-45133200D01*
X26110000Y-44726800D01*
G37*
G36*
X26110000Y-47273200D02*
G01*
X23890000Y-47273200D01*
X23890000Y-46866800D01*
X26110000Y-46866800D01*
X26110000Y-47273200D01*
G37*
%TO.C,J20*%
G36*
X31383718Y-23757346D02*
G01*
X31790118Y-23757346D01*
X31790118Y-25977346D01*
X31383718Y-25977346D01*
X31383718Y-23757346D01*
G37*
G36*
X33930118Y-23757346D02*
G01*
X33523718Y-23757346D01*
X33523718Y-25977346D01*
X33930118Y-25977346D01*
X33930118Y-23757346D01*
G37*
%TO.C,J32*%
G36*
X43720000Y-25443199D02*
G01*
X45940000Y-25443199D01*
X45940000Y-25036799D01*
X43720000Y-25036799D01*
X43720000Y-25443199D01*
G37*
G36*
X43720000Y-22896799D02*
G01*
X45940000Y-22896799D01*
X45940000Y-23303199D01*
X43720000Y-23303199D01*
X43720000Y-22896799D01*
G37*
%TO.C,J4*%
G36*
X25726800Y-23890000D02*
G01*
X26133200Y-23890000D01*
X26133200Y-26110000D01*
X25726800Y-26110000D01*
X25726800Y-23890000D01*
G37*
G36*
X28273200Y-23890000D02*
G01*
X27866800Y-23890000D01*
X27866800Y-26110000D01*
X28273200Y-26110000D01*
X28273200Y-23890000D01*
G37*
%TO.C,J21*%
G36*
X32026801Y-58089999D02*
G01*
X32433201Y-58089999D01*
X32433201Y-60309999D01*
X32026801Y-60309999D01*
X32026801Y-58089999D01*
G37*
G36*
X34573201Y-58089999D02*
G01*
X34166801Y-58089999D01*
X34166801Y-60309999D01*
X34573201Y-60309999D01*
X34573201Y-58089999D01*
G37*
%TO.C,J30*%
G36*
X45626800Y-27059999D02*
G01*
X46033200Y-27059999D01*
X46033200Y-29279999D01*
X45626800Y-29279999D01*
X45626800Y-27059999D01*
G37*
G36*
X48173200Y-27059999D02*
G01*
X47766800Y-27059999D01*
X47766800Y-29279999D01*
X48173200Y-29279999D01*
X48173200Y-27059999D01*
G37*
%TO.C,J13*%
G36*
X35726800Y-40890000D02*
G01*
X36133200Y-40890000D01*
X36133200Y-43110000D01*
X35726800Y-43110000D01*
X35726800Y-40890000D01*
G37*
G36*
X38273200Y-40890000D02*
G01*
X37866800Y-40890000D01*
X37866800Y-43110000D01*
X38273200Y-43110000D01*
X38273200Y-40890000D01*
G37*
%TO.C,J25*%
G36*
X44090000Y-58203200D02*
G01*
X46310000Y-58203200D01*
X46310000Y-57796800D01*
X44090000Y-57796800D01*
X44090000Y-58203200D01*
G37*
G36*
X44090000Y-55656800D02*
G01*
X46310000Y-55656800D01*
X46310000Y-56063200D01*
X44090000Y-56063200D01*
X44090000Y-55656800D01*
G37*
%TO.C,J24*%
G36*
X43690000Y-48819801D02*
G01*
X45910000Y-48819801D01*
X45910000Y-48413401D01*
X43690000Y-48413401D01*
X43690000Y-48819801D01*
G37*
G36*
X43690000Y-46273401D02*
G01*
X45910000Y-46273401D01*
X45910000Y-46679801D01*
X43690000Y-46679801D01*
X43690000Y-46273401D01*
G37*
%TO.C,J16*%
G36*
X25796800Y-54890000D02*
G01*
X26203200Y-54890000D01*
X26203200Y-57110000D01*
X25796800Y-57110000D01*
X25796800Y-54890000D01*
G37*
G36*
X28343200Y-54890000D02*
G01*
X27936800Y-54890000D01*
X27936800Y-57110000D01*
X28343200Y-57110000D01*
X28343200Y-54890000D01*
G37*
%TO.C,J8*%
G36*
X25726800Y-40890000D02*
G01*
X26133200Y-40890000D01*
X26133200Y-43110000D01*
X25726800Y-43110000D01*
X25726800Y-40890000D01*
G37*
G36*
X28273200Y-40890000D02*
G01*
X27866800Y-40890000D01*
X27866800Y-43110000D01*
X28273200Y-43110000D01*
X28273200Y-40890000D01*
G37*
%TO.C,J10*%
G36*
X35726800Y-30890000D02*
G01*
X36133200Y-30890000D01*
X36133200Y-33110000D01*
X35726800Y-33110000D01*
X35726800Y-30890000D01*
G37*
G36*
X38273200Y-30890000D02*
G01*
X37866800Y-30890000D01*
X37866800Y-33110000D01*
X38273200Y-33110000D01*
X38273200Y-30890000D01*
G37*
%TO.C,J31*%
G36*
X45940000Y-30896799D02*
G01*
X43720000Y-30896799D01*
X43720000Y-31303199D01*
X45940000Y-31303199D01*
X45940000Y-30896799D01*
G37*
G36*
X45940000Y-33443199D02*
G01*
X43720000Y-33443199D01*
X43720000Y-33036799D01*
X45940000Y-33036799D01*
X45940000Y-33443199D01*
G37*
%TO.C,J3*%
G36*
X21726800Y-23890000D02*
G01*
X22133200Y-23890000D01*
X22133200Y-26110000D01*
X21726800Y-26110000D01*
X21726800Y-23890000D01*
G37*
G36*
X24273200Y-23890000D02*
G01*
X23866800Y-23890000D01*
X23866800Y-26110000D01*
X24273200Y-26110000D01*
X24273200Y-23890000D01*
G37*
%TD*%
D11*
X42800000Y-26000000D03*
X47500000Y-63000000D03*
X37000000Y-30700000D03*
X39100000Y-32600000D03*
X36750000Y-32800000D03*
X34596446Y-22796446D03*
X35500000Y-24000000D03*
X30700000Y-26000000D03*
X37900000Y-25300000D03*
X34600000Y-25800000D03*
X24900000Y-29400000D03*
X24900000Y-30400000D03*
X27285413Y-33900001D03*
X23425000Y-34200000D03*
X24486961Y-40013039D03*
X26633200Y-41290686D03*
X27800000Y-40150000D03*
X27246446Y-53453554D03*
X26400000Y-43400000D03*
X45600001Y-50246602D03*
X22828554Y-58321446D03*
X22350000Y-45000000D03*
X36800001Y-60699999D03*
X25000000Y-26650000D03*
X23850000Y-27700000D03*
X44029999Y-30369999D03*
X47600000Y-40599999D03*
X45000000Y-39000000D03*
X32700000Y-36600000D03*
X47450000Y-49950000D03*
X32550000Y-34500000D03*
X37000000Y-42800001D03*
X35784314Y-59584314D03*
X23550000Y-56900000D03*
X25000000Y-32800001D03*
X47430000Y-25769999D03*
X34070000Y-44150000D03*
X46300000Y-59800000D03*
X47430000Y-30669999D03*
X22100000Y-35100000D03*
X41830000Y-31543195D03*
X22500000Y-60900000D03*
X37500000Y-34400000D03*
X47600000Y-58100000D03*
X32250000Y-44500000D03*
X24647183Y-43752817D03*
X43364999Y-40435000D03*
X22553554Y-53603554D03*
X22600000Y-51200000D03*
X27400000Y-57200000D03*
X28070000Y-44270000D03*
X35800001Y-35644370D03*
X37400000Y-44700000D03*
X34800000Y-56200000D03*
X35000000Y-41199999D03*
X25000000Y-24199999D03*
X21350000Y-53100000D03*
X26600000Y-55000000D03*
X23050000Y-54750000D03*
X32600000Y-31000000D03*
X27200000Y-22500000D03*
X42080000Y-24420000D03*
X27400000Y-60000000D03*
X36000000Y-58200000D03*
X46600000Y-40428248D03*
X28500000Y-34500000D03*
X42900000Y-60100000D03*
X42750000Y-50296601D03*
X28500000Y-29700000D03*
X34800000Y-31000000D03*
X37500000Y-35500000D03*
X47528554Y-42278554D03*
X35000000Y-39600000D03*
X43999999Y-49346600D03*
X44166174Y-58900000D03*
X27200000Y-24400000D03*
X25000000Y-25000000D03*
X23200000Y-25000000D03*
X27200000Y-25400000D03*
M02*
