%TF.GenerationSoftware,KiCad,Pcbnew,8.0.6*%
%TF.CreationDate,2025-04-05T16:49:48+11:00*%
%TF.ProjectId,ConnectorsTesting,436f6e6e-6563-4746-9f72-735465737469,rev?*%
%TF.SameCoordinates,Original*%
%TF.FileFunction,Paste,Bot*%
%TF.FilePolarity,Positive*%
%FSLAX46Y46*%
G04 Gerber Fmt 4.6, Leading zero omitted, Abs format (unit mm)*
G04 Created by KiCad (PCBNEW 8.0.6) date 2025-04-05 16:49:48*
%MOMM*%
%LPD*%
G01*
G04 APERTURE LIST*
G04 Aperture macros list*
%AMRotRect*
0 Rectangle, with rotation*
0 The origin of the aperture is its center*
0 $1 length*
0 $2 width*
0 $3 Rotation angle, in degrees counterclockwise*
0 Add horizontal line*
21,1,$1,$2,0,0,$3*%
G04 Aperture macros list end*
%ADD10R,0.406400X0.609999*%
%ADD11R,0.406400X0.200000*%
%ADD12RotRect,0.609999X0.406400X285.000000*%
%ADD13RotRect,0.200000X0.406400X285.000000*%
%ADD14RotRect,0.609999X0.406400X300.000000*%
%ADD15RotRect,0.200000X0.406400X300.000000*%
%ADD16R,0.609999X0.406400*%
%ADD17R,0.200000X0.406400*%
G04 APERTURE END LIST*
D10*
%TO.C,J29*%
X41830000Y-27364999D03*
X43970000Y-27364999D03*
D11*
X41830000Y-27969999D03*
X43970000Y-27969999D03*
X41830000Y-28369999D03*
X43970000Y-28369999D03*
D10*
X41830000Y-28974999D03*
X43970000Y-28974999D03*
%TD*%
D12*
%TO.C,J19*%
X38741890Y-24867980D03*
X36674809Y-25421853D03*
D13*
X38585304Y-24283595D03*
X36518223Y-24837468D03*
X38481777Y-23897224D03*
X36414696Y-24451097D03*
D12*
X38325191Y-23312839D03*
X36258110Y-23866712D03*
%TD*%
D10*
%TO.C,J5*%
X24070000Y-32805000D03*
X21930000Y-32805000D03*
D11*
X24070000Y-32200000D03*
X21930000Y-32200000D03*
X24070000Y-31800000D03*
X21930000Y-31800000D03*
D10*
X24070000Y-31195000D03*
X21930000Y-31195000D03*
%TD*%
D14*
%TO.C,J22*%
X36797502Y-57695670D03*
X38650796Y-56625670D03*
D15*
X37100002Y-58219615D03*
X38953296Y-57149615D03*
X37300002Y-58566025D03*
X39153296Y-57496025D03*
D14*
X37602502Y-59089970D03*
X39455796Y-58019970D03*
%TD*%
D10*
%TO.C,J12*%
X31930000Y-41195000D03*
X34070000Y-41195000D03*
D11*
X31930000Y-41800000D03*
X34070000Y-41800000D03*
X31930000Y-42200000D03*
X34070000Y-42200000D03*
D10*
X31930000Y-42805000D03*
X34070000Y-42805000D03*
%TD*%
D16*
%TO.C,J26*%
X44395000Y-63000000D03*
X44395000Y-60860000D03*
D17*
X45000000Y-63000000D03*
X45000000Y-60860000D03*
X45400000Y-63000000D03*
X45400000Y-60860000D03*
D16*
X46005000Y-63000000D03*
X46005000Y-60860000D03*
%TD*%
D10*
%TO.C,J15*%
X22000000Y-55195000D03*
X24140000Y-55195000D03*
D11*
X22000000Y-55800000D03*
X24140000Y-55800000D03*
X22000000Y-56200000D03*
X24140000Y-56200000D03*
D10*
X22000000Y-56805000D03*
X24140000Y-56805000D03*
%TD*%
%TO.C,J35*%
X45930000Y-37394999D03*
X48070000Y-37394999D03*
D11*
X45930000Y-37999999D03*
X48070000Y-37999999D03*
X45930000Y-38399999D03*
X48070000Y-38399999D03*
D10*
X45930000Y-39004999D03*
X48070000Y-39004999D03*
%TD*%
%TO.C,J9*%
X31930000Y-31195000D03*
X34070000Y-31195000D03*
D11*
X31930000Y-31800000D03*
X34070000Y-31800000D03*
X31930000Y-32200000D03*
X34070000Y-32200000D03*
D10*
X31930000Y-32805000D03*
X34070000Y-32805000D03*
%TD*%
D16*
%TO.C,J14*%
X35805000Y-44930000D03*
X35805000Y-47070000D03*
D17*
X35200000Y-44930000D03*
X35200000Y-47070000D03*
X34800000Y-44930000D03*
X34800000Y-47070000D03*
D16*
X34195000Y-44930000D03*
X34195000Y-47070000D03*
%TD*%
%TO.C,J11*%
X35805000Y-34930000D03*
X35805000Y-37070000D03*
D17*
X35200000Y-34930000D03*
X35200000Y-37070000D03*
X34800000Y-34930000D03*
X34800000Y-37070000D03*
D16*
X34195000Y-34930000D03*
X34195000Y-37070000D03*
%TD*%
%TO.C,J17*%
X25875000Y-50930000D03*
X25875000Y-53070000D03*
D17*
X25270000Y-50930000D03*
X25270000Y-53070000D03*
X24870000Y-50930000D03*
X24870000Y-53070000D03*
D16*
X24265000Y-50930000D03*
X24265000Y-53070000D03*
%TD*%
D10*
%TO.C,J6*%
X21930000Y-41195000D03*
X24070000Y-41195000D03*
D11*
X21930000Y-41800000D03*
X24070000Y-41800000D03*
X21930000Y-42200000D03*
X24070000Y-42200000D03*
D10*
X21930000Y-42805000D03*
X24070000Y-42805000D03*
%TD*%
%TO.C,J33*%
X41930000Y-37394999D03*
X44070000Y-37394999D03*
D11*
X41930000Y-37999999D03*
X44070000Y-37999999D03*
X41930000Y-38399999D03*
X44070000Y-38399999D03*
D10*
X41930000Y-39004999D03*
X44070000Y-39004999D03*
%TD*%
D16*
%TO.C,J34*%
X45805000Y-41129999D03*
X45805000Y-43269999D03*
D17*
X45200000Y-41129999D03*
X45200000Y-43269999D03*
X44800000Y-41129999D03*
X44800000Y-43269999D03*
D16*
X44195000Y-41129999D03*
X44195000Y-43269999D03*
%TD*%
D10*
%TO.C,J1*%
X25930000Y-31195000D03*
X28070000Y-31195000D03*
D11*
X25930000Y-31800000D03*
X28070000Y-31800000D03*
X25930000Y-32200000D03*
X28070000Y-32200000D03*
D10*
X25930000Y-32805000D03*
X28070000Y-32805000D03*
%TD*%
D16*
%TO.C,J23*%
X43995000Y-53116601D03*
X43995000Y-50976601D03*
D17*
X44600000Y-53116601D03*
X44600000Y-50976601D03*
X45000000Y-53116601D03*
X45000000Y-50976601D03*
D16*
X45605000Y-53116601D03*
X45605000Y-50976601D03*
%TD*%
%TO.C,J18*%
X25805000Y-58930000D03*
X25805000Y-61070000D03*
D17*
X25200000Y-58930000D03*
X25200000Y-61070000D03*
X24800000Y-58930000D03*
X24800000Y-61070000D03*
D16*
X24195000Y-58930000D03*
X24195000Y-61070000D03*
%TD*%
%TO.C,J2*%
X25805000Y-34930000D03*
X25805000Y-37070000D03*
D17*
X25200000Y-34930000D03*
X25200000Y-37070000D03*
X24800000Y-34930000D03*
X24800000Y-37070000D03*
D16*
X24195000Y-34930000D03*
X24195000Y-37070000D03*
%TD*%
%TO.C,J7*%
X25805000Y-44930000D03*
X25805000Y-47070000D03*
D17*
X25200000Y-44930000D03*
X25200000Y-47070000D03*
X24800000Y-44930000D03*
X24800000Y-47070000D03*
D16*
X24195000Y-44930000D03*
X24195000Y-47070000D03*
%TD*%
D10*
%TO.C,J20*%
X31586918Y-24062346D03*
X33726918Y-24062346D03*
D11*
X31586918Y-24667346D03*
X33726918Y-24667346D03*
X31586918Y-25067346D03*
X33726918Y-25067346D03*
D10*
X31586918Y-25672346D03*
X33726918Y-25672346D03*
%TD*%
D16*
%TO.C,J32*%
X44025000Y-25239999D03*
X44025000Y-23099999D03*
D17*
X44630000Y-25239999D03*
X44630000Y-23099999D03*
X45030000Y-25239999D03*
X45030000Y-23099999D03*
D16*
X45635000Y-25239999D03*
X45635000Y-23099999D03*
%TD*%
D10*
%TO.C,J4*%
X25930000Y-24195000D03*
X28070000Y-24195000D03*
D11*
X25930000Y-24800000D03*
X28070000Y-24800000D03*
X25930000Y-25200000D03*
X28070000Y-25200000D03*
D10*
X25930000Y-25805000D03*
X28070000Y-25805000D03*
%TD*%
%TO.C,J21*%
X32230001Y-58394999D03*
X34370001Y-58394999D03*
D11*
X32230001Y-58999999D03*
X34370001Y-58999999D03*
X32230001Y-59399999D03*
X34370001Y-59399999D03*
D10*
X32230001Y-60004999D03*
X34370001Y-60004999D03*
%TD*%
%TO.C,J30*%
X45830000Y-27364999D03*
X47970000Y-27364999D03*
D11*
X45830000Y-27969999D03*
X47970000Y-27969999D03*
X45830000Y-28369999D03*
X47970000Y-28369999D03*
D10*
X45830000Y-28974999D03*
X47970000Y-28974999D03*
%TD*%
%TO.C,J13*%
X35930000Y-41195000D03*
X38070000Y-41195000D03*
D11*
X35930000Y-41800000D03*
X38070000Y-41800000D03*
X35930000Y-42200000D03*
X38070000Y-42200000D03*
D10*
X35930000Y-42805000D03*
X38070000Y-42805000D03*
%TD*%
D16*
%TO.C,J25*%
X44395000Y-58000000D03*
X44395000Y-55860000D03*
D17*
X45000000Y-58000000D03*
X45000000Y-55860000D03*
X45400000Y-58000000D03*
X45400000Y-55860000D03*
D16*
X46005000Y-58000000D03*
X46005000Y-55860000D03*
%TD*%
%TO.C,J24*%
X43995000Y-48616601D03*
X43995000Y-46476601D03*
D17*
X44600000Y-48616601D03*
X44600000Y-46476601D03*
X45000000Y-48616601D03*
X45000000Y-46476601D03*
D16*
X45605000Y-48616601D03*
X45605000Y-46476601D03*
%TD*%
D10*
%TO.C,J16*%
X26000000Y-55195000D03*
X28140000Y-55195000D03*
D11*
X26000000Y-55800000D03*
X28140000Y-55800000D03*
X26000000Y-56200000D03*
X28140000Y-56200000D03*
D10*
X26000000Y-56805000D03*
X28140000Y-56805000D03*
%TD*%
%TO.C,J8*%
X25930000Y-41195000D03*
X28070000Y-41195000D03*
D11*
X25930000Y-41800000D03*
X28070000Y-41800000D03*
X25930000Y-42200000D03*
X28070000Y-42200000D03*
D10*
X25930000Y-42805000D03*
X28070000Y-42805000D03*
%TD*%
%TO.C,J10*%
X35930000Y-31195000D03*
X38070000Y-31195000D03*
D11*
X35930000Y-31800000D03*
X38070000Y-31800000D03*
X35930000Y-32200000D03*
X38070000Y-32200000D03*
D10*
X35930000Y-32805000D03*
X38070000Y-32805000D03*
%TD*%
D16*
%TO.C,J31*%
X45635000Y-31099999D03*
X45635000Y-33239999D03*
D17*
X45030000Y-31099999D03*
X45030000Y-33239999D03*
X44630000Y-31099999D03*
X44630000Y-33239999D03*
D16*
X44025000Y-31099999D03*
X44025000Y-33239999D03*
%TD*%
D10*
%TO.C,J3*%
X21930000Y-24195000D03*
X24070000Y-24195000D03*
D11*
X21930000Y-24800000D03*
X24070000Y-24800000D03*
X21930000Y-25200000D03*
X24070000Y-25200000D03*
D10*
X21930000Y-25805000D03*
X24070000Y-25805000D03*
%TD*%
M02*
