M48
; DRILL file {KiCad 8.0.6} date 2025-04-05T16:49:39+1100
; FORMAT={-:-/ absolute / inch / decimal}
; #@! TF.CreationDate,2025-04-05T16:49:39+11:00
; #@! TF.GenerationSoftware,Kicad,Pcbnew,8.0.6
; #@! TF.FileFunction,Plated,1,2,PTH
FMAT,2
INCH
; #@! TA.AperFunction,Plated,PTH,ViaDrill
T1C0.0118
%
G90
G05
T1
X0.8406Y-2.0906
X0.8701Y-1.3819
X0.8799Y-1.7717
X0.8858Y-2.3976
X0.8879Y-2.1104
X0.8898Y-2.0157
X0.8988Y-2.2961
X0.9075Y-2.1555
X0.9134Y-0.9843
X0.9222Y-1.3465
X0.9272Y-2.2402
X0.939Y-1.0906
X0.9641Y-1.5753
X0.9704Y-1.7226
X0.9803Y-1.1575
X0.9803Y-1.1969
X0.9843Y-0.9528
X0.9843Y-0.9843
X0.9843Y-1.0492
X0.9843Y-1.2913
X1.0394Y-1.7087
X1.0472Y-2.1654
X1.0486Y-1.6256
X1.0709Y-0.8858
X1.0709Y-0.9606
X1.0709Y-1.0
X1.0727Y-2.1045
X1.0742Y-1.3346
X1.0787Y-2.252
X1.0787Y-2.3622
X1.0945Y-1.5807
X1.1051Y-1.7429
X1.122Y-1.1693
X1.122Y-1.3583
X1.2087Y-1.0236
X1.2697Y-1.752
X1.2815Y-1.3583
X1.2835Y-1.2205
X1.2874Y-1.4409
X1.3413Y-1.7382
X1.3621Y-0.8975
X1.3622Y-1.0157
X1.3701Y-1.2205
X1.3701Y-2.2126
X1.378Y-1.5591
X1.378Y-1.622
X1.3976Y-0.9449
X1.4088Y-2.3458
X1.4094Y-1.4033
X1.4173Y-2.2913
X1.4469Y-1.2913
X1.4488Y-2.3898
X1.4567Y-1.2087
X1.4567Y-1.685
X1.4724Y-1.7598
X1.4764Y-1.3543
X1.4764Y-1.3976
X1.4921Y-0.9961
X1.5394Y-1.2835
X1.6469Y-1.2419
X1.6567Y-0.9614
X1.6831Y-1.9802
X1.685Y-1.0236
X1.689Y-2.3661
X1.7073Y-1.5919
X1.7323Y-1.9428
X1.7335Y-1.1957
X1.7388Y-2.3189
X1.7717Y-1.5354
X1.7953Y-1.9782
X1.8228Y-2.3543
X1.8346Y-1.5917
X1.8673Y-1.0146
X1.8673Y-1.2075
X1.8681Y-1.9665
X1.8701Y-2.4803
X1.8712Y-1.6645
X1.874Y-1.5984
X1.874Y-2.2874
M30
